<?xml version="1.0" encoding="UTF-8" standalone="no"?>
<svg
   xmlns:dc="http://purl.org/dc/elements/1.1/"
   xmlns:cc="http://creativecommons.org/ns#"
   xmlns:rdf="http://www.w3.org/1999/02/22-rdf-syntax-ns#"
   xmlns:svg="http://www.w3.org/2000/svg"
   xmlns="http://www.w3.org/2000/svg"
   xmlns:sodipodi="http://sodipodi.sourceforge.net/DTD/sodipodi-0.dtd"
   xmlns:inkscape="http://www.inkscape.org/namespaces/inkscape"
   version="1.1"
   id="svg851"
   xml:space="preserve"
   width="2343.3071"
   height="2040.9449"
   viewBox="0 0 2343.3071 2040.9449"
   sodipodi:docname="Gilewska_Basic_Bodice_W36G_FullSize.svg"
   inkscape:version="1.0.2 (e86c870879, 2021-01-15)"><metadata
     id="metadata857"><rdf:RDF><cc:Work
         rdf:about=""><dc:format>image/svg+xml</dc:format><dc:type
           rdf:resource="http://purl.org/dc/dcmitype/StillImage" /><dc:title></dc:title></cc:Work></rdf:RDF></metadata><defs
     id="defs855"><clipPath
       clipPathUnits="userSpaceOnUse"
       id="clipPath871"><path
         d="M 0,0 H 1757.4803 V 1530.7087 H 0 Z"
         id="path869" /></clipPath><clipPath
       clipPathUnits="userSpaceOnUse"
       id="clipPath881"><path
         d="M 0,0 H 1757.4803 V 1530.7087 H 0 Z"
         id="path879" /></clipPath><clipPath
       clipPathUnits="userSpaceOnUse"
       id="clipPath891"><path
         d="M 0,0 H 1757.4803 V 1530.7087 H 0 Z"
         id="path889" /></clipPath><clipPath
       clipPathUnits="userSpaceOnUse"
       id="clipPath901"><path
         d="M 0,0 H 1757.4803 V 1530.7087 H 0 Z"
         id="path899" /></clipPath><clipPath
       clipPathUnits="userSpaceOnUse"
       id="clipPath911"><path
         d="M 0,0 H 1757.4803 V 1530.7087 H 0 Z"
         id="path909" /></clipPath><clipPath
       clipPathUnits="userSpaceOnUse"
       id="clipPath1039"><path
         d="M 0,0 H 1757.4803 V 1530.7087 H 0 Z"
         id="path1037" /></clipPath><clipPath
       clipPathUnits="userSpaceOnUse"
       id="clipPath1049"><path
         d="M 0,0 H 1757.4803 V 1530.7087 H 0 Z"
         id="path1047" /></clipPath><clipPath
       clipPathUnits="userSpaceOnUse"
       id="clipPath1059"><path
         d="M 0,0 H 1757.4803 V 1530.7087 H 0 Z"
         id="path1057" /></clipPath><clipPath
       clipPathUnits="userSpaceOnUse"
       id="clipPath1171"><path
         d="M 0,0 H 1757.4803 V 1530.7087 H 0 Z"
         id="path1169" /></clipPath></defs><sodipodi:namedview
     pagecolor="#ffffff"
     bordercolor="#666666"
     borderopacity="1"
     objecttolerance="10"
     gridtolerance="10"
     guidetolerance="10"
     inkscape:pageopacity="0"
     inkscape:pageshadow="2"
     inkscape:window-width="1920"
     inkscape:window-height="1016"
     id="namedview853"
     showgrid="false"
     inkscape:zoom="0.40128471"
     inkscape:cx="1171.6536"
     inkscape:cy="1020.4725"
     inkscape:window-x="0"
     inkscape:window-y="0"
     inkscape:window-maximized="1"
     inkscape:current-layer="g859" /><g
     id="g859"
     inkscape:groupmode="layer"
     inkscape:label="Gilewska_myPattern_W36G_FullSize"
     transform="matrix(1.3333333,0,0,-1.3333333,0,2040.9449)"><path
       d="M 0,0 H 1757.4803 V 1530.7087 H 0 Z"
       style="fill:#ffffff;fill-opacity:1;fill-rule:nonzero;stroke:none"
       id="path861" /><path
       d="M 0,0 H 1757.4803 V 1530.7087 H 0 Z"
       style="fill:#ffffff;fill-opacity:1;fill-rule:nonzero;stroke:none"
       id="path863" /><g
       id="g865"><g
         id="g867"
         clip-path="url(#clipPath871)"><path
           d="m 1615.748,141.73228 v 1043.14962 0 l -3.756,0.4822 -3.7144,0.5192 -3.6728,0.5561 -3.6312,0.5929 -3.5896,0.6299 -3.5481,0.6668 -3.5064,0.7037 -3.4649,0.7405 -3.4232,0.7775 -3.3817,0.8144 -3.3401,0.8514 -3.2985,0.8882 -3.2569,0.9251 -3.2153,0.962 -3.1737,0.9989 -3.1321,1.0359 -3.0905,1.0727 -3.0489,1.1096 -3.0074,1.1466 -2.9657,1.1835 -2.9242,1.2203 -2.8825,1.2573 -2.841,1.2942 -2.7994,1.331 -2.7577,1.368 -2.7162,1.4049 -2.6746,1.4418 -2.633,1.4787 -2.5914,1.5156 -2.5499,1.5525 -2.5082,1.5894 -2.4666,1.6264 -2.425,1.6632 -2.3835,1.7001 -2.3419,1.7371 -2.3002,1.7739 -2.2587,1.8109 -2.2171,1.8477 -2.1754,1.8847 -2.1339,1.9215 -2.0923,1.9585 -2.0507,1.9954 -2.0092,2.0323 -1.9675,2.0692 -1.9259,2.1061 -1.8843,2.143 -1.8428,2.1799 -1.8011,2.2168 -1.7596,2.2537 -1.718,2.2906 -1.6763,2.3275 -1.6348,2.3645 -1.5932,2.4013 -1.5516,2.4383 -1.51,2.4751 -1.4684,2.5121 -1.4269,2.5489 -1.3852,2.5859 -1.3436,2.6228 -1.3021,2.6597 -1.2604,2.6965 -1.2189,2.7335 -1.1772,2.7704 -1.1357,2.8073 -1.0941,2.8442 -1.0525,2.8811 -1.0109,2.9181 -0.9693,2.9549 -0.9277,2.9918 -0.8861,3.0287 -0.8445,3.0657 -0.8029,3.1025 -0.7614,3.1395 -0.7197,3.1763 -0.6782,3.2133 -0.6365,3.2502 -0.595,3.287 -0.5534,3.324 -0.5118,3.3609 -0.4702,3.3978 -0.4286,3.4347 -0.387,3.4716 -0.3454,3.5085 -0.3038,3.5454 -0.2622,3.5823 -0.2207,3.6192 -0.179,3.6562 -0.1375,3.693 -0.096,3.7299 -0.054,3.7669 -0.013,3.8037 0.029,3.8407 0.071,3.8776 0.1121,3.9144 0.1537,3.9514 0.1953,3.9883 0.2369,4.0252 0.2784,4.062 0.3201,4.099 -173.2479,-84.4986 74.0353,-652.50923 -190.6277,628.41913 -155.1447,-114.3895 v 0 l 2.4016,-4.3646 2.3746,-4.384 2.3476,-4.4034 2.3206,-4.4227 2.2935,-4.442 2.2665,-4.4614 2.2395,-4.4808 2.2126,-4.5001 2.1854,-4.5194 2.1585,-4.5388 2.1315,-4.5582 2.1044,-4.5774 2.0775,-4.5969 2.0504,-4.6162 2.0234,-4.6355 1.9964,-4.6549 1.9694,-4.6742 1.9423,-4.6936 1.9154,-4.713 1.8883,-4.7322 1.8613,-4.7517 1.8343,-4.771 1.8073,-4.7903 1.7803,-4.8097 1.7533,-4.829 1.7262,-4.8484 1.6992,-4.8677 1.6723,-4.8871 1.6452,-4.9064 1.6182,-4.9258 1.5911,-4.9451 1.5642,-4.9645 1.5372,-4.9838 1.5101,-5.0032 1.4831,-5.0225 1.4561,-5.0419 1.4291,-5.0612 1.4021,-5.0806 1.3751,-5.0999 1.348,-5.11925 1.321,-5.13862 1.2941,-5.15796 1.267,-5.17732 1.24,-5.19666 1.213,-5.21601 1.1859,-5.23536 1.159,-5.25471 1.1319,-5.27406 1.1049,-5.29341 1.0779,-5.31276 1.0509,-5.33211 1.0239,-5.35145 0.9969,-5.37081 0.9698,-5.39015 0.9429,-5.4095 0.9158,-5.42886 0.8888,-5.4482 0.8618,-5.46755 0.8348,-5.4869 0.8078,-5.50625 0.7807,-5.5256 0.7538,-5.54494 0.7267,-5.5643 0.6997,-5.58364 0.6727,-5.603 0.6457,-5.62234 0.6186,-5.64169 0.4792,-5.56779 0.227,-5.4005 -0.025,-5.23321 -0.2773,-5.06593 -0.5295,-4.89864 -0.7816,-4.73135 -1.0338,-4.56407 -1.2859,-4.39678 -1.5381,-4.22949 -1.7903,-4.06221 -2.0424,-3.89492 -2.2946,-3.72764 -2.5468,-3.56034 -2.7989,-3.39307 -3.051,-3.22577 -3.3032,-3.05849 -3.5554,-2.8912 -3.8075,-2.72392 -4.0597,-2.55663 -4.3119,-2.38934 -4.564,-2.22206 -4.8162,-2.05477 -5.0683,-1.88748 -5.3205,-1.7202 -5.5726,-1.55291 -5.8248,-1.38563 -6.077,-1.21834 -6.3291,-1.05105 -6.5812,-0.88377 -6.8335,-0.71647 -7.08557,-0.5492 -7.33775,-0.3819 v 0 l 70.86612,-616.53544 h 248.0315 l 35.4331,532.91339 35.4331,-532.91339 h 233.8582 z"
           style="fill:#e6e6e6;fill-opacity:1;fill-rule:nonzero;stroke:#808080;stroke-width:1;stroke-linecap:butt;stroke-linejoin:miter;stroke-miterlimit:10;stroke-dasharray:none;stroke-opacity:1"
           id="path873" /></g></g><g
       id="g875"><g
         id="g877"
         clip-path="url(#clipPath881)"><path
           d="m 170.07874,141.73228 -28.34646,616.53544 v 496.06298 0 l 2.3059,-0.3661 2.29389,-0.3454 2.2819,-0.3248 2.2699,-0.3043 2.2579,-0.2836 2.2459,-0.2629 2.2339,-0.2424 2.22191,-0.2217 2.2099,-0.2012 2.19791,-0.1805 2.18591,-0.1598 2.17391,-0.1393 2.16191,-0.1187 2.14992,-0.098 2.13791,-0.077 2.12592,-0.057 2.11391,-0.036 2.10192,-0.015 2.08992,0.01 2.07793,0.026 2.06592,0.046 2.05393,0.067 2.04192,0.088 2.02993,0.1081 2.01793,0.1288 2.00593,0.1494 1.99394,0.17 1.98193,0.1907 1.96994,0.2112 1.95793,0.2319 1.94594,0.2525 1.93394,0.2731 1.92194,0.2937 1.90995,0.3143 1.89794,0.335 1.88595,0.3556 1.87395,0.3762 1.86195,0.3968 1.84995,0.4174 1.83795,0.4381 1.82595,0.4586 1.81396,0.4793 1.80195,0.4999 1.78996,0.5206 1.77796,0.5411 1.76596,0.5618 1.75396,0.5824 1.74197,0.603 1.72996,0.6236 1.71797,0.6442 1.70597,0.6649 1.69397,0.6854 1.68197,0.7061 1.66997,0.7267 1.65798,0.7474 1.64597,0.7679 1.63398,0.7886 1.62198,0.8092 1.60998,0.8298 1.59798,0.8504 1.58599,0.871 1.57398,0.8917 1.56199,0.9123 1.54999,0.9329 1.53799,0.9535 1.52599,0.9741 1.51399,0.9948 1.50199,1.0154 1.49,1.0359 1.478,1.0567 1.46599,1.0772 1.454,1.0978 1.44201,1.1185 1.43,1.1391 1.418,1.1597 1.40601,1.1803 1.39401,1.2009 1.382,1.2216 1.37001,1.2422 1.35802,1.2627 1.34601,1.2835 1.33401,1.304 1.32202,1.3246 1.31002,1.3453 1.29802,1.3659 1.28602,1.3865 1.27402,1.4071 1.26202,1.4278 1.25003,1.4483 1.23803,1.469 1.22602,1.4896 1.21403,1.5102 1.20204,1.5308 1.19003,1.5515 1.17803,1.5721 1.16604,1.5927 1.15403,1.6133 1.14204,1.6339 1.13004,1.6545 374.06047,-93.2637 -2.03661,-4.7569 -1.99386,-4.7599 -1.9511,-4.7628 -1.90836,-4.7657 -1.8656,-4.7687 -1.82285,-4.7716 -1.7801,-4.7746 -1.73735,-4.7775 -1.6946,-4.7804 -1.65185,-4.7834 -1.6091,-4.7864 -1.56635,-4.7892 -1.52359,-4.7923 -1.48085,-4.7951 -1.43809,-4.7981 -1.39534,-4.8011 -1.3526,-4.8039 -1.30984,-4.807 -1.26709,-4.8098 -1.22433,-4.8128 -1.18159,-4.8158 -1.13884,-4.8187 -1.09608,-4.8216 -1.05334,-4.8246 -1.01058,-4.8275 -0.96784,-4.8304 -0.92508,-4.8334 -0.88233,-4.8364 -0.83958,-4.8393 -0.79683,-4.8422 -0.75408,-4.8452 -0.71132,-4.8481 -0.66858,-4.851 -0.62582,-4.854 -0.58308,-4.8569 -0.54032,-4.8599 -0.49757,-4.8628 -0.45482,-4.8658 -0.41207,-4.8687 -0.36932,-4.8716 -0.32657,-4.8746 -0.28382,-4.8775 -0.24106,-4.8805 -0.19832,-4.8834 -0.15556,-4.8864 -0.11282,-4.8893 -0.0701,-4.89219 -0.0273,-4.89518 0.0154,-4.89812 0.0582,-4.90106 0.10094,-4.904 0.14369,-4.90694 0.18645,-4.90988 0.22919,-4.91283 0.27195,-4.91576 0.31469,-4.91871 0.35745,-4.92165 0.4002,-4.9246 0.44295,-4.92753 0.4857,-4.93048 0.52845,-4.93341 0.5712,-4.93636 0.61396,-4.93931 0.6567,-4.94224 0.69946,-4.94518 0.7422,-4.94813 0.78496,-4.95107 0.82771,-4.95401 0.87046,-4.95695 0.91321,-4.95989 0.95596,-4.96284 0.99871,-4.96577 1.04628,-4.96346 1.13021,-4.92135 1.22166,-4.87102 1.31312,-4.8207 1.40457,-4.77036 1.49602,-4.72004 1.58748,-4.66971 1.67893,-4.61938 1.77039,-4.56905 1.86184,-4.51873 1.95329,-4.46839 2.04475,-4.41807 2.13619,-4.36774 2.22766,-4.31741 2.31911,-4.26709 2.41056,-4.21675 2.50201,-4.16643 2.59347,-4.1161 2.68492,-4.06577 2.77637,-4.01544 2.86783,-3.96511 2.95928,-3.91479 3.05074,-3.86446 3.14219,-3.81413 3.23364,-3.7638 3.3251,-3.71347 3.41655,-3.66314 v 0 L 637.79522,141.73868 H 425.19679 L 389.76372,758.27412 354.33065,141.73868 H 170.07868 Z"
           style="fill:#e6e6e6;fill-opacity:1;fill-rule:nonzero;stroke:#808080;stroke-width:1;stroke-linecap:butt;stroke-linejoin:miter;stroke-miterlimit:10;stroke-dasharray:none;stroke-opacity:1"
           id="path883" /></g></g><g
       id="g885"><g
         id="g887"
         clip-path="url(#clipPath891)"><path
           d="M 0,0 V 1530.7087"
           style="fill:none;stroke:#b0b0b0;stroke-width:0.8;stroke-linecap:square;stroke-linejoin:round;stroke-miterlimit:10;stroke-dasharray:none;stroke-opacity:1"
           id="path893" /></g></g><g
       id="g895"><g
         id="g897"
         clip-path="url(#clipPath901)"><path
           d="M 28.346457,0 V 1530.7087"
           style="fill:none;stroke:#b0b0b0;stroke-width:0.8;stroke-linecap:square;stroke-linejoin:round;stroke-miterlimit:10;stroke-dasharray:none;stroke-opacity:1"
           id="path903" /></g></g><g
       id="g905"><g
         id="g907"
         clip-path="url(#clipPath911)"><path
           d="M 56.692913,0 V 1530.7087"
           style="fill:none;stroke:#b0b0b0;stroke-width:0.8;stroke-linecap:square;stroke-linejoin:round;stroke-miterlimit:10;stroke-dasharray:none;stroke-opacity:1"
           id="path913" /><path
           d="M 85.03937,0 V 1530.7087"
           style="fill:none;stroke:#b0b0b0;stroke-width:0.8;stroke-linecap:square;stroke-linejoin:round;stroke-miterlimit:10;stroke-dasharray:none;stroke-opacity:1"
           id="path915" /><path
           d="M 113.38583,0 V 1530.7087"
           style="fill:none;stroke:#b0b0b0;stroke-width:0.8;stroke-linecap:square;stroke-linejoin:round;stroke-miterlimit:10;stroke-dasharray:none;stroke-opacity:1"
           id="path917" /><path
           d="M 141.73228,0 V 1530.7087"
           style="fill:none;stroke:#b0b0b0;stroke-width:0.8;stroke-linecap:square;stroke-linejoin:round;stroke-miterlimit:10;stroke-dasharray:none;stroke-opacity:1"
           id="path919" /><path
           d="M 170.07874,0 V 1530.7087"
           style="fill:none;stroke:#b0b0b0;stroke-width:0.8;stroke-linecap:square;stroke-linejoin:round;stroke-miterlimit:10;stroke-dasharray:none;stroke-opacity:1"
           id="path921" /><path
           d="M 198.4252,0 V 1530.7087"
           style="fill:none;stroke:#b0b0b0;stroke-width:0.8;stroke-linecap:square;stroke-linejoin:round;stroke-miterlimit:10;stroke-dasharray:none;stroke-opacity:1"
           id="path923" /><path
           d="M 226.77165,0 V 1530.7087"
           style="fill:none;stroke:#b0b0b0;stroke-width:0.8;stroke-linecap:square;stroke-linejoin:round;stroke-miterlimit:10;stroke-dasharray:none;stroke-opacity:1"
           id="path925" /><path
           d="M 255.11811,0 V 1530.7087"
           style="fill:none;stroke:#b0b0b0;stroke-width:0.8;stroke-linecap:square;stroke-linejoin:round;stroke-miterlimit:10;stroke-dasharray:none;stroke-opacity:1"
           id="path927" /><path
           d="M 283.46457,0 V 1530.7087"
           style="fill:none;stroke:#b0b0b0;stroke-width:0.8;stroke-linecap:square;stroke-linejoin:round;stroke-miterlimit:10;stroke-dasharray:none;stroke-opacity:1"
           id="path929" /><path
           d="M 311.81102,0 V 1530.7087"
           style="fill:none;stroke:#b0b0b0;stroke-width:0.8;stroke-linecap:square;stroke-linejoin:round;stroke-miterlimit:10;stroke-dasharray:none;stroke-opacity:1"
           id="path931" /><path
           d="M 340.15748,0 V 1530.7087"
           style="fill:none;stroke:#b0b0b0;stroke-width:0.8;stroke-linecap:square;stroke-linejoin:round;stroke-miterlimit:10;stroke-dasharray:none;stroke-opacity:1"
           id="path933" /><path
           d="M 368.50394,0 V 1530.7087"
           style="fill:none;stroke:#b0b0b0;stroke-width:0.8;stroke-linecap:square;stroke-linejoin:round;stroke-miterlimit:10;stroke-dasharray:none;stroke-opacity:1"
           id="path935" /><path
           d="M 396.85039,0 V 1530.7087"
           style="fill:none;stroke:#b0b0b0;stroke-width:0.8;stroke-linecap:square;stroke-linejoin:round;stroke-miterlimit:10;stroke-dasharray:none;stroke-opacity:1"
           id="path937" /><path
           d="M 425.19685,0 V 1530.7087"
           style="fill:none;stroke:#b0b0b0;stroke-width:0.8;stroke-linecap:square;stroke-linejoin:round;stroke-miterlimit:10;stroke-dasharray:none;stroke-opacity:1"
           id="path939" /><path
           d="M 453.54331,0 V 1530.7087"
           style="fill:none;stroke:#b0b0b0;stroke-width:0.8;stroke-linecap:square;stroke-linejoin:round;stroke-miterlimit:10;stroke-dasharray:none;stroke-opacity:1"
           id="path941" /><path
           d="M 481.88976,0 V 1530.7087"
           style="fill:none;stroke:#b0b0b0;stroke-width:0.8;stroke-linecap:square;stroke-linejoin:round;stroke-miterlimit:10;stroke-dasharray:none;stroke-opacity:1"
           id="path943" /><path
           d="M 510.23622,0 V 1530.7087"
           style="fill:none;stroke:#b0b0b0;stroke-width:0.8;stroke-linecap:square;stroke-linejoin:round;stroke-miterlimit:10;stroke-dasharray:none;stroke-opacity:1"
           id="path945" /><path
           d="M 538.58268,0 V 1530.7087"
           style="fill:none;stroke:#b0b0b0;stroke-width:0.8;stroke-linecap:square;stroke-linejoin:round;stroke-miterlimit:10;stroke-dasharray:none;stroke-opacity:1"
           id="path947" /><path
           d="M 566.92913,0 V 1530.7087"
           style="fill:none;stroke:#b0b0b0;stroke-width:0.8;stroke-linecap:square;stroke-linejoin:round;stroke-miterlimit:10;stroke-dasharray:none;stroke-opacity:1"
           id="path949" /><path
           d="M 595.27559,0 V 1530.7087"
           style="fill:none;stroke:#b0b0b0;stroke-width:0.8;stroke-linecap:square;stroke-linejoin:round;stroke-miterlimit:10;stroke-dasharray:none;stroke-opacity:1"
           id="path951" /><path
           d="M 623.62205,0 V 1530.7087"
           style="fill:none;stroke:#b0b0b0;stroke-width:0.8;stroke-linecap:square;stroke-linejoin:round;stroke-miterlimit:10;stroke-dasharray:none;stroke-opacity:1"
           id="path953" /><path
           d="M 651.9685,0 V 1530.7087"
           style="fill:none;stroke:#b0b0b0;stroke-width:0.8;stroke-linecap:square;stroke-linejoin:round;stroke-miterlimit:10;stroke-dasharray:none;stroke-opacity:1"
           id="path955" /><path
           d="M 680.31496,0 V 1530.7087"
           style="fill:none;stroke:#b0b0b0;stroke-width:0.8;stroke-linecap:square;stroke-linejoin:round;stroke-miterlimit:10;stroke-dasharray:none;stroke-opacity:1"
           id="path957" /><path
           d="M 708.66142,0 V 1530.7087"
           style="fill:none;stroke:#b0b0b0;stroke-width:0.8;stroke-linecap:square;stroke-linejoin:round;stroke-miterlimit:10;stroke-dasharray:none;stroke-opacity:1"
           id="path959" /><path
           d="M 737.00787,0 V 1530.7087"
           style="fill:none;stroke:#b0b0b0;stroke-width:0.8;stroke-linecap:square;stroke-linejoin:round;stroke-miterlimit:10;stroke-dasharray:none;stroke-opacity:1"
           id="path961" /><path
           d="M 765.35433,0 V 1530.7087"
           style="fill:none;stroke:#b0b0b0;stroke-width:0.8;stroke-linecap:square;stroke-linejoin:round;stroke-miterlimit:10;stroke-dasharray:none;stroke-opacity:1"
           id="path963" /><path
           d="M 793.70079,0 V 1530.7087"
           style="fill:none;stroke:#b0b0b0;stroke-width:0.8;stroke-linecap:square;stroke-linejoin:round;stroke-miterlimit:10;stroke-dasharray:none;stroke-opacity:1"
           id="path965" /><path
           d="M 822.04724,0 V 1530.7087"
           style="fill:none;stroke:#b0b0b0;stroke-width:0.8;stroke-linecap:square;stroke-linejoin:round;stroke-miterlimit:10;stroke-dasharray:none;stroke-opacity:1"
           id="path967" /><path
           d="M 850.3937,0 V 1530.7087"
           style="fill:none;stroke:#b0b0b0;stroke-width:0.8;stroke-linecap:square;stroke-linejoin:round;stroke-miterlimit:10;stroke-dasharray:none;stroke-opacity:1"
           id="path969" /><path
           d="M 878.74016,0 V 1530.7087"
           style="fill:none;stroke:#b0b0b0;stroke-width:0.8;stroke-linecap:square;stroke-linejoin:round;stroke-miterlimit:10;stroke-dasharray:none;stroke-opacity:1"
           id="path971" /><path
           d="M 907.08661,0 V 1530.7087"
           style="fill:none;stroke:#b0b0b0;stroke-width:0.8;stroke-linecap:square;stroke-linejoin:round;stroke-miterlimit:10;stroke-dasharray:none;stroke-opacity:1"
           id="path973" /><path
           d="M 935.43307,0 V 1530.7087"
           style="fill:none;stroke:#b0b0b0;stroke-width:0.8;stroke-linecap:square;stroke-linejoin:round;stroke-miterlimit:10;stroke-dasharray:none;stroke-opacity:1"
           id="path975" /><path
           d="M 963.77953,0 V 1530.7087"
           style="fill:none;stroke:#b0b0b0;stroke-width:0.8;stroke-linecap:square;stroke-linejoin:round;stroke-miterlimit:10;stroke-dasharray:none;stroke-opacity:1"
           id="path977" /><path
           d="M 992.12598,0 V 1530.7087"
           style="fill:none;stroke:#b0b0b0;stroke-width:0.8;stroke-linecap:square;stroke-linejoin:round;stroke-miterlimit:10;stroke-dasharray:none;stroke-opacity:1"
           id="path979" /><path
           d="M 1020.4724,0 V 1530.7087"
           style="fill:none;stroke:#b0b0b0;stroke-width:0.8;stroke-linecap:square;stroke-linejoin:round;stroke-miterlimit:10;stroke-dasharray:none;stroke-opacity:1"
           id="path981" /><path
           d="M 1048.8189,0 V 1530.7087"
           style="fill:none;stroke:#b0b0b0;stroke-width:0.8;stroke-linecap:square;stroke-linejoin:round;stroke-miterlimit:10;stroke-dasharray:none;stroke-opacity:1"
           id="path983" /><path
           d="M 1077.1654,0 V 1530.7087"
           style="fill:none;stroke:#b0b0b0;stroke-width:0.8;stroke-linecap:square;stroke-linejoin:round;stroke-miterlimit:10;stroke-dasharray:none;stroke-opacity:1"
           id="path985" /><path
           d="M 1105.5118,0 V 1530.7087"
           style="fill:none;stroke:#b0b0b0;stroke-width:0.8;stroke-linecap:square;stroke-linejoin:round;stroke-miterlimit:10;stroke-dasharray:none;stroke-opacity:1"
           id="path987" /><path
           d="M 1133.8583,0 V 1530.7087"
           style="fill:none;stroke:#b0b0b0;stroke-width:0.8;stroke-linecap:square;stroke-linejoin:round;stroke-miterlimit:10;stroke-dasharray:none;stroke-opacity:1"
           id="path989" /><path
           d="M 1162.2047,0 V 1530.7087"
           style="fill:none;stroke:#b0b0b0;stroke-width:0.8;stroke-linecap:square;stroke-linejoin:round;stroke-miterlimit:10;stroke-dasharray:none;stroke-opacity:1"
           id="path991" /><path
           d="M 1190.5512,0 V 1530.7087"
           style="fill:none;stroke:#b0b0b0;stroke-width:0.8;stroke-linecap:square;stroke-linejoin:round;stroke-miterlimit:10;stroke-dasharray:none;stroke-opacity:1"
           id="path993" /><path
           d="M 1218.8976,0 V 1530.7087"
           style="fill:none;stroke:#b0b0b0;stroke-width:0.8;stroke-linecap:square;stroke-linejoin:round;stroke-miterlimit:10;stroke-dasharray:none;stroke-opacity:1"
           id="path995" /><path
           d="M 1247.2441,0 V 1530.7087"
           style="fill:none;stroke:#b0b0b0;stroke-width:0.8;stroke-linecap:square;stroke-linejoin:round;stroke-miterlimit:10;stroke-dasharray:none;stroke-opacity:1"
           id="path997" /><path
           d="M 1275.5906,0 V 1530.7087"
           style="fill:none;stroke:#b0b0b0;stroke-width:0.8;stroke-linecap:square;stroke-linejoin:round;stroke-miterlimit:10;stroke-dasharray:none;stroke-opacity:1"
           id="path999" /><path
           d="M 1303.937,0 V 1530.7087"
           style="fill:none;stroke:#b0b0b0;stroke-width:0.8;stroke-linecap:square;stroke-linejoin:round;stroke-miterlimit:10;stroke-dasharray:none;stroke-opacity:1"
           id="path1001" /><path
           d="M 1332.2835,0 V 1530.7087"
           style="fill:none;stroke:#b0b0b0;stroke-width:0.8;stroke-linecap:square;stroke-linejoin:round;stroke-miterlimit:10;stroke-dasharray:none;stroke-opacity:1"
           id="path1003" /><path
           d="M 1360.6299,0 V 1530.7087"
           style="fill:none;stroke:#b0b0b0;stroke-width:0.8;stroke-linecap:square;stroke-linejoin:round;stroke-miterlimit:10;stroke-dasharray:none;stroke-opacity:1"
           id="path1005" /><path
           d="M 1388.9764,0 V 1530.7087"
           style="fill:none;stroke:#b0b0b0;stroke-width:0.8;stroke-linecap:square;stroke-linejoin:round;stroke-miterlimit:10;stroke-dasharray:none;stroke-opacity:1"
           id="path1007" /><path
           d="M 1417.3228,0 V 1530.7087"
           style="fill:none;stroke:#b0b0b0;stroke-width:0.8;stroke-linecap:square;stroke-linejoin:round;stroke-miterlimit:10;stroke-dasharray:none;stroke-opacity:1"
           id="path1009" /><path
           d="M 1445.6693,0 V 1530.7087"
           style="fill:none;stroke:#b0b0b0;stroke-width:0.8;stroke-linecap:square;stroke-linejoin:round;stroke-miterlimit:10;stroke-dasharray:none;stroke-opacity:1"
           id="path1011" /><path
           d="M 1474.0157,0 V 1530.7087"
           style="fill:none;stroke:#b0b0b0;stroke-width:0.8;stroke-linecap:square;stroke-linejoin:round;stroke-miterlimit:10;stroke-dasharray:none;stroke-opacity:1"
           id="path1013" /><path
           d="M 1502.3622,0 V 1530.7087"
           style="fill:none;stroke:#b0b0b0;stroke-width:0.8;stroke-linecap:square;stroke-linejoin:round;stroke-miterlimit:10;stroke-dasharray:none;stroke-opacity:1"
           id="path1015" /><path
           d="M 1530.7087,0 V 1530.7087"
           style="fill:none;stroke:#b0b0b0;stroke-width:0.8;stroke-linecap:square;stroke-linejoin:round;stroke-miterlimit:10;stroke-dasharray:none;stroke-opacity:1"
           id="path1017" /><path
           d="M 1559.0551,0 V 1530.7087"
           style="fill:none;stroke:#b0b0b0;stroke-width:0.8;stroke-linecap:square;stroke-linejoin:round;stroke-miterlimit:10;stroke-dasharray:none;stroke-opacity:1"
           id="path1019" /><path
           d="M 1587.4016,0 V 1530.7087"
           style="fill:none;stroke:#b0b0b0;stroke-width:0.8;stroke-linecap:square;stroke-linejoin:round;stroke-miterlimit:10;stroke-dasharray:none;stroke-opacity:1"
           id="path1021" /><path
           d="M 1615.748,0 V 1530.7087"
           style="fill:none;stroke:#b0b0b0;stroke-width:0.8;stroke-linecap:square;stroke-linejoin:round;stroke-miterlimit:10;stroke-dasharray:none;stroke-opacity:1"
           id="path1023" /><path
           d="M 1644.0945,0 V 1530.7087"
           style="fill:none;stroke:#b0b0b0;stroke-width:0.8;stroke-linecap:square;stroke-linejoin:round;stroke-miterlimit:10;stroke-dasharray:none;stroke-opacity:1"
           id="path1025" /><path
           d="M 1672.4409,0 V 1530.7087"
           style="fill:none;stroke:#b0b0b0;stroke-width:0.8;stroke-linecap:square;stroke-linejoin:round;stroke-miterlimit:10;stroke-dasharray:none;stroke-opacity:1"
           id="path1027" /><path
           d="M 1700.7874,0 V 1530.7087"
           style="fill:none;stroke:#b0b0b0;stroke-width:0.8;stroke-linecap:square;stroke-linejoin:round;stroke-miterlimit:10;stroke-dasharray:none;stroke-opacity:1"
           id="path1029" /><path
           d="M 1729.1339,0 V 1530.7087"
           style="fill:none;stroke:#b0b0b0;stroke-width:0.8;stroke-linecap:square;stroke-linejoin:round;stroke-miterlimit:10;stroke-dasharray:none;stroke-opacity:1"
           id="path1031" /></g></g><g
       id="g1033"><g
         id="g1035"
         clip-path="url(#clipPath1039)"><path
           d="M 0,0 H 1757.4803"
           style="fill:none;stroke:#b0b0b0;stroke-width:0.8;stroke-linecap:square;stroke-linejoin:round;stroke-miterlimit:10;stroke-dasharray:none;stroke-opacity:1"
           id="path1041" /></g></g><g
       id="g1043"><g
         id="g1045"
         clip-path="url(#clipPath1049)"><path
           d="M 0,28.346457 H 1757.4803"
           style="fill:none;stroke:#b0b0b0;stroke-width:0.8;stroke-linecap:square;stroke-linejoin:round;stroke-miterlimit:10;stroke-dasharray:none;stroke-opacity:1"
           id="path1051" /></g></g><g
       id="g1053"><g
         id="g1055"
         clip-path="url(#clipPath1059)"><path
           d="M 0,56.692913 H 1757.4803"
           style="fill:none;stroke:#b0b0b0;stroke-width:0.8;stroke-linecap:square;stroke-linejoin:round;stroke-miterlimit:10;stroke-dasharray:none;stroke-opacity:1"
           id="path1061" /><path
           d="M 0,85.03937 H 1757.4803"
           style="fill:none;stroke:#b0b0b0;stroke-width:0.8;stroke-linecap:square;stroke-linejoin:round;stroke-miterlimit:10;stroke-dasharray:none;stroke-opacity:1"
           id="path1063" /><path
           d="M 0,113.38583 H 1757.4803"
           style="fill:none;stroke:#b0b0b0;stroke-width:0.8;stroke-linecap:square;stroke-linejoin:round;stroke-miterlimit:10;stroke-dasharray:none;stroke-opacity:1"
           id="path1065" /><path
           d="M 0,141.73228 H 1757.4803"
           style="fill:none;stroke:#b0b0b0;stroke-width:0.8;stroke-linecap:square;stroke-linejoin:round;stroke-miterlimit:10;stroke-dasharray:none;stroke-opacity:1"
           id="path1067" /><path
           d="M 0,170.07874 H 1757.4803"
           style="fill:none;stroke:#b0b0b0;stroke-width:0.8;stroke-linecap:square;stroke-linejoin:round;stroke-miterlimit:10;stroke-dasharray:none;stroke-opacity:1"
           id="path1069" /><path
           d="M 0,198.4252 H 1757.4803"
           style="fill:none;stroke:#b0b0b0;stroke-width:0.8;stroke-linecap:square;stroke-linejoin:round;stroke-miterlimit:10;stroke-dasharray:none;stroke-opacity:1"
           id="path1071" /><path
           d="M 0,226.77165 H 1757.4803"
           style="fill:none;stroke:#b0b0b0;stroke-width:0.8;stroke-linecap:square;stroke-linejoin:round;stroke-miterlimit:10;stroke-dasharray:none;stroke-opacity:1"
           id="path1073" /><path
           d="M 0,255.11811 H 1757.4803"
           style="fill:none;stroke:#b0b0b0;stroke-width:0.8;stroke-linecap:square;stroke-linejoin:round;stroke-miterlimit:10;stroke-dasharray:none;stroke-opacity:1"
           id="path1075" /><path
           d="M 0,283.46457 H 1757.4803"
           style="fill:none;stroke:#b0b0b0;stroke-width:0.8;stroke-linecap:square;stroke-linejoin:round;stroke-miterlimit:10;stroke-dasharray:none;stroke-opacity:1"
           id="path1077" /><path
           d="M 0,311.81102 H 1757.4803"
           style="fill:none;stroke:#b0b0b0;stroke-width:0.8;stroke-linecap:square;stroke-linejoin:round;stroke-miterlimit:10;stroke-dasharray:none;stroke-opacity:1"
           id="path1079" /><path
           d="M 0,340.15748 H 1757.4803"
           style="fill:none;stroke:#b0b0b0;stroke-width:0.8;stroke-linecap:square;stroke-linejoin:round;stroke-miterlimit:10;stroke-dasharray:none;stroke-opacity:1"
           id="path1081" /><path
           d="M 0,368.50394 H 1757.4803"
           style="fill:none;stroke:#b0b0b0;stroke-width:0.8;stroke-linecap:square;stroke-linejoin:round;stroke-miterlimit:10;stroke-dasharray:none;stroke-opacity:1"
           id="path1083" /><path
           d="M 0,396.85039 H 1757.4803"
           style="fill:none;stroke:#b0b0b0;stroke-width:0.8;stroke-linecap:square;stroke-linejoin:round;stroke-miterlimit:10;stroke-dasharray:none;stroke-opacity:1"
           id="path1085" /><path
           d="M 0,425.19685 H 1757.4803"
           style="fill:none;stroke:#b0b0b0;stroke-width:0.8;stroke-linecap:square;stroke-linejoin:round;stroke-miterlimit:10;stroke-dasharray:none;stroke-opacity:1"
           id="path1087" /><path
           d="M 0,453.54331 H 1757.4803"
           style="fill:none;stroke:#b0b0b0;stroke-width:0.8;stroke-linecap:square;stroke-linejoin:round;stroke-miterlimit:10;stroke-dasharray:none;stroke-opacity:1"
           id="path1089" /><path
           d="M 0,481.88976 H 1757.4803"
           style="fill:none;stroke:#b0b0b0;stroke-width:0.8;stroke-linecap:square;stroke-linejoin:round;stroke-miterlimit:10;stroke-dasharray:none;stroke-opacity:1"
           id="path1091" /><path
           d="M 0,510.23622 H 1757.4803"
           style="fill:none;stroke:#b0b0b0;stroke-width:0.8;stroke-linecap:square;stroke-linejoin:round;stroke-miterlimit:10;stroke-dasharray:none;stroke-opacity:1"
           id="path1093" /><path
           d="M 0,538.58268 H 1757.4803"
           style="fill:none;stroke:#b0b0b0;stroke-width:0.8;stroke-linecap:square;stroke-linejoin:round;stroke-miterlimit:10;stroke-dasharray:none;stroke-opacity:1"
           id="path1095" /><path
           d="M 0,566.92913 H 1757.4803"
           style="fill:none;stroke:#b0b0b0;stroke-width:0.8;stroke-linecap:square;stroke-linejoin:round;stroke-miterlimit:10;stroke-dasharray:none;stroke-opacity:1"
           id="path1097" /><path
           d="M 0,595.27559 H 1757.4803"
           style="fill:none;stroke:#b0b0b0;stroke-width:0.8;stroke-linecap:square;stroke-linejoin:round;stroke-miterlimit:10;stroke-dasharray:none;stroke-opacity:1"
           id="path1099" /><path
           d="M 0,623.62205 H 1757.4803"
           style="fill:none;stroke:#b0b0b0;stroke-width:0.8;stroke-linecap:square;stroke-linejoin:round;stroke-miterlimit:10;stroke-dasharray:none;stroke-opacity:1"
           id="path1101" /><path
           d="M 0,651.9685 H 1757.4803"
           style="fill:none;stroke:#b0b0b0;stroke-width:0.8;stroke-linecap:square;stroke-linejoin:round;stroke-miterlimit:10;stroke-dasharray:none;stroke-opacity:1"
           id="path1103" /><path
           d="M 0,680.31496 H 1757.4803"
           style="fill:none;stroke:#b0b0b0;stroke-width:0.8;stroke-linecap:square;stroke-linejoin:round;stroke-miterlimit:10;stroke-dasharray:none;stroke-opacity:1"
           id="path1105" /><path
           d="M 0,708.66142 H 1757.4803"
           style="fill:none;stroke:#b0b0b0;stroke-width:0.8;stroke-linecap:square;stroke-linejoin:round;stroke-miterlimit:10;stroke-dasharray:none;stroke-opacity:1"
           id="path1107" /><path
           d="M 0,737.00787 H 1757.4803"
           style="fill:none;stroke:#b0b0b0;stroke-width:0.8;stroke-linecap:square;stroke-linejoin:round;stroke-miterlimit:10;stroke-dasharray:none;stroke-opacity:1"
           id="path1109" /><path
           d="M 0,765.35433 H 1757.4803"
           style="fill:none;stroke:#b0b0b0;stroke-width:0.8;stroke-linecap:square;stroke-linejoin:round;stroke-miterlimit:10;stroke-dasharray:none;stroke-opacity:1"
           id="path1111" /><path
           d="M 0,793.70079 H 1757.4803"
           style="fill:none;stroke:#b0b0b0;stroke-width:0.8;stroke-linecap:square;stroke-linejoin:round;stroke-miterlimit:10;stroke-dasharray:none;stroke-opacity:1"
           id="path1113" /><path
           d="M 0,822.04724 H 1757.4803"
           style="fill:none;stroke:#b0b0b0;stroke-width:0.8;stroke-linecap:square;stroke-linejoin:round;stroke-miterlimit:10;stroke-dasharray:none;stroke-opacity:1"
           id="path1115" /><path
           d="M 0,850.3937 H 1757.4803"
           style="fill:none;stroke:#b0b0b0;stroke-width:0.8;stroke-linecap:square;stroke-linejoin:round;stroke-miterlimit:10;stroke-dasharray:none;stroke-opacity:1"
           id="path1117" /><path
           d="M 0,878.74016 H 1757.4803"
           style="fill:none;stroke:#b0b0b0;stroke-width:0.8;stroke-linecap:square;stroke-linejoin:round;stroke-miterlimit:10;stroke-dasharray:none;stroke-opacity:1"
           id="path1119" /><path
           d="M 0,907.08661 H 1757.4803"
           style="fill:none;stroke:#b0b0b0;stroke-width:0.8;stroke-linecap:square;stroke-linejoin:round;stroke-miterlimit:10;stroke-dasharray:none;stroke-opacity:1"
           id="path1121" /><path
           d="M 0,935.43307 H 1757.4803"
           style="fill:none;stroke:#b0b0b0;stroke-width:0.8;stroke-linecap:square;stroke-linejoin:round;stroke-miterlimit:10;stroke-dasharray:none;stroke-opacity:1"
           id="path1123" /><path
           d="M 0,963.77953 H 1757.4803"
           style="fill:none;stroke:#b0b0b0;stroke-width:0.8;stroke-linecap:square;stroke-linejoin:round;stroke-miterlimit:10;stroke-dasharray:none;stroke-opacity:1"
           id="path1125" /><path
           d="M 0,992.12598 H 1757.4803"
           style="fill:none;stroke:#b0b0b0;stroke-width:0.8;stroke-linecap:square;stroke-linejoin:round;stroke-miterlimit:10;stroke-dasharray:none;stroke-opacity:1"
           id="path1127" /><path
           d="M 0,1020.4724 H 1757.4803"
           style="fill:none;stroke:#b0b0b0;stroke-width:0.8;stroke-linecap:square;stroke-linejoin:round;stroke-miterlimit:10;stroke-dasharray:none;stroke-opacity:1"
           id="path1129" /><path
           d="M 0,1048.8189 H 1757.4803"
           style="fill:none;stroke:#b0b0b0;stroke-width:0.8;stroke-linecap:square;stroke-linejoin:round;stroke-miterlimit:10;stroke-dasharray:none;stroke-opacity:1"
           id="path1131" /><path
           d="M 0,1077.1654 H 1757.4803"
           style="fill:none;stroke:#b0b0b0;stroke-width:0.8;stroke-linecap:square;stroke-linejoin:round;stroke-miterlimit:10;stroke-dasharray:none;stroke-opacity:1"
           id="path1133" /><path
           d="M 0,1105.5118 H 1757.4803"
           style="fill:none;stroke:#b0b0b0;stroke-width:0.8;stroke-linecap:square;stroke-linejoin:round;stroke-miterlimit:10;stroke-dasharray:none;stroke-opacity:1"
           id="path1135" /><path
           d="M 0,1133.8583 H 1757.4803"
           style="fill:none;stroke:#b0b0b0;stroke-width:0.8;stroke-linecap:square;stroke-linejoin:round;stroke-miterlimit:10;stroke-dasharray:none;stroke-opacity:1"
           id="path1137" /><path
           d="M 0,1162.2047 H 1757.4803"
           style="fill:none;stroke:#b0b0b0;stroke-width:0.8;stroke-linecap:square;stroke-linejoin:round;stroke-miterlimit:10;stroke-dasharray:none;stroke-opacity:1"
           id="path1139" /><path
           d="M 0,1190.5512 H 1757.4803"
           style="fill:none;stroke:#b0b0b0;stroke-width:0.8;stroke-linecap:square;stroke-linejoin:round;stroke-miterlimit:10;stroke-dasharray:none;stroke-opacity:1"
           id="path1141" /><path
           d="M 0,1218.8976 H 1757.4803"
           style="fill:none;stroke:#b0b0b0;stroke-width:0.8;stroke-linecap:square;stroke-linejoin:round;stroke-miterlimit:10;stroke-dasharray:none;stroke-opacity:1"
           id="path1143" /><path
           d="M 0,1247.2441 H 1757.4803"
           style="fill:none;stroke:#b0b0b0;stroke-width:0.8;stroke-linecap:square;stroke-linejoin:round;stroke-miterlimit:10;stroke-dasharray:none;stroke-opacity:1"
           id="path1145" /><path
           d="M 0,1275.5906 H 1757.4803"
           style="fill:none;stroke:#b0b0b0;stroke-width:0.8;stroke-linecap:square;stroke-linejoin:round;stroke-miterlimit:10;stroke-dasharray:none;stroke-opacity:1"
           id="path1147" /><path
           d="M 0,1303.937 H 1757.4803"
           style="fill:none;stroke:#b0b0b0;stroke-width:0.8;stroke-linecap:square;stroke-linejoin:round;stroke-miterlimit:10;stroke-dasharray:none;stroke-opacity:1"
           id="path1149" /><path
           d="M 0,1332.2835 H 1757.4803"
           style="fill:none;stroke:#b0b0b0;stroke-width:0.8;stroke-linecap:square;stroke-linejoin:round;stroke-miterlimit:10;stroke-dasharray:none;stroke-opacity:1"
           id="path1151" /><path
           d="M 0,1360.6299 H 1757.4803"
           style="fill:none;stroke:#b0b0b0;stroke-width:0.8;stroke-linecap:square;stroke-linejoin:round;stroke-miterlimit:10;stroke-dasharray:none;stroke-opacity:1"
           id="path1153" /><path
           d="M 0,1388.9764 H 1757.4803"
           style="fill:none;stroke:#b0b0b0;stroke-width:0.8;stroke-linecap:square;stroke-linejoin:round;stroke-miterlimit:10;stroke-dasharray:none;stroke-opacity:1"
           id="path1155" /><path
           d="M 0,1417.3228 H 1757.4803"
           style="fill:none;stroke:#b0b0b0;stroke-width:0.8;stroke-linecap:square;stroke-linejoin:round;stroke-miterlimit:10;stroke-dasharray:none;stroke-opacity:1"
           id="path1157" /><path
           d="M 0,1445.6693 H 1757.4803"
           style="fill:none;stroke:#b0b0b0;stroke-width:0.8;stroke-linecap:square;stroke-linejoin:round;stroke-miterlimit:10;stroke-dasharray:none;stroke-opacity:1"
           id="path1159" /><path
           d="M 0,1474.0157 H 1757.4803"
           style="fill:none;stroke:#b0b0b0;stroke-width:0.8;stroke-linecap:square;stroke-linejoin:round;stroke-miterlimit:10;stroke-dasharray:none;stroke-opacity:1"
           id="path1161" /><path
           d="M 0,1502.3622 H 1757.4803"
           style="fill:none;stroke:#b0b0b0;stroke-width:0.8;stroke-linecap:square;stroke-linejoin:round;stroke-miterlimit:10;stroke-dasharray:none;stroke-opacity:1"
           id="path1163" /></g></g><g
       id="g1165"><g
         id="g1167"
         clip-path="url(#clipPath1171)"><path
           d="M 28.346457,28.346457 H 170.07874"
           style="fill:none;stroke:#0000ff;stroke-width:5;stroke-linecap:butt;stroke-linejoin:round;stroke-miterlimit:10;stroke-dasharray:none;stroke-opacity:1"
           id="path1173" /></g></g><g
       id="g1175"><path
         d="M 0,0 V 1530.7087"
         style="fill:none;stroke:#000000;stroke-width:0.8;stroke-linecap:square;stroke-linejoin:miter;stroke-miterlimit:10;stroke-dasharray:none;stroke-opacity:1"
         id="path1177" /><path
         d="M 1757.4803,0 V 1530.7087"
         style="fill:none;stroke:#000000;stroke-width:0.8;stroke-linecap:square;stroke-linejoin:miter;stroke-miterlimit:10;stroke-dasharray:none;stroke-opacity:1"
         id="path1179" /><path
         d="M 0,0 H 1757.4803"
         style="fill:none;stroke:#000000;stroke-width:0.8;stroke-linecap:square;stroke-linejoin:miter;stroke-miterlimit:10;stroke-dasharray:none;stroke-opacity:1"
         id="path1181" /><path
         d="M 0,1530.7087 H 1757.4803"
         style="fill:none;stroke:#000000;stroke-width:0.8;stroke-linecap:square;stroke-linejoin:miter;stroke-miterlimit:10;stroke-dasharray:none;stroke-opacity:1"
         id="path1183" /><text
         transform="matrix(1,0,0,-1,79.376661,42.519685)"
         style="font-variant:normal;font-weight:normal;font-size:16px;font-family:'DejaVu Sans';-inkscape-font-specification:DejaVuSans;writing-mode:lr-tb;fill:#000000;fill-opacity:1;fill-rule:nonzero;stroke:none"
         id="text1187"><tspan
           x="0 10.176 15.264 24.063999"
           y="0"
           sodipodi:role="line"
           id="tspan1185">5 cm</tspan></text></g></g></svg>
