<?xml version="1.0" encoding="UTF-8" standalone="no"?>
<svg
   xmlns:dc="http://purl.org/dc/elements/1.1/"
   xmlns:cc="http://creativecommons.org/ns#"
   xmlns:rdf="http://www.w3.org/1999/02/22-rdf-syntax-ns#"
   xmlns:svg="http://www.w3.org/2000/svg"
   xmlns="http://www.w3.org/2000/svg"
   xmlns:sodipodi="http://sodipodi.sourceforge.net/DTD/sodipodi-0.dtd"
   xmlns:inkscape="http://www.inkscape.org/namespaces/inkscape"
   width="505.02646mm"
   height="712.53015mm"
   viewBox="0 0 505.02646 712.53015"
   version="1.1"
   id="svg3684"
   inkscape:version="1.0.2 (e86c870879, 2021-01-15)"
   sodipodi:docname="Chiappetta_m.svg">
  <defs
     id="defs3678" />
  <sodipodi:namedview
     id="base"
     pagecolor="#ffffff"
     bordercolor="#666666"
     borderopacity="1.0"
     inkscape:pageopacity="0.0"
     inkscape:pageshadow="2"
     inkscape:zoom="0.30411871"
     inkscape:cx="1654.6624"
     inkscape:cy="1327.5038"
     inkscape:document-units="mm"
     inkscape:current-layer="layer1"
     inkscape:document-rotation="0"
     showgrid="false"
     inkscape:window-width="1920"
     inkscape:window-height="1016"
     inkscape:window-x="0"
     inkscape:window-y="0"
     inkscape:window-maximized="1"
     fit-margin-top="0"
     fit-margin-left="0"
     fit-margin-right="0"
     fit-margin-bottom="0" />
  <metadata
     id="metadata3681">
    <rdf:RDF>
      <cc:Work
         rdf:about="">
        <dc:format>image/svg+xml</dc:format>
        <dc:type
           rdf:resource="http://purl.org/dc/dcmitype/StillImage" />
        <dc:title></dc:title>
      </cc:Work>
    </rdf:RDF>
  </metadata>
  <g
     inkscape:label="Calque 1"
     inkscape:groupmode="layer"
     id="layer1"
     transform="translate(202.63546,217.19179)">
    <g
       id="g3594"
       transform="matrix(0.26458333,0,0,0.26458333,-548.8789,-671.56499)">
      <path
         style="fill:none;stroke:#000000;stroke-width:3.77953;stroke-linecap:butt;stroke-linejoin:miter;stroke-miterlimit:4;stroke-dasharray:none;stroke-opacity:1"
         d="m 2817.756,1833.8468 c -29.1211,13.5083 -50.4472,38.64 -63.4039,67.8637 -2.1682,4.8904 -2.5162,10.6988 -4.5011,15.7047 -10.8682,27.4093 -15.1953,48.8669 0.3709,75.2915 17.3701,29.4867 56.9582,53.2174 68.6635,82.0515 2.7635,6.8075 2.8478,14.7524 3.9323,21.9452"
         id="path3147" />
      <path
         style="fill:none;stroke:#000000;stroke-width:3.77953;stroke-linecap:butt;stroke-linejoin:miter;stroke-miterlimit:4;stroke-dasharray:none;stroke-opacity:1"
         d="m 2863.9053,1830.9779 c -10.1069,4.0372 -20.9276,5.0618 -31.5164,5.0618 -1.002,0 2.0016,-0.099 3.0007,-0.1732 4.7915,-0.3568 9.198,-1.2051 13.8828,-2.1928 12.0177,-2.5338 24.616,-3.401 36.7678,-1.014 5.881,1.1552 8.878,5.9532 13.5035,8.9528 17.5688,11.3935 26.9514,17.2013 39.7685,34.7728 3.8791,5.318 7.7798,8.7526 8.8127,15.7046 3.622,24.3752 -4.6414,46.5678 -7.5019,70.3947 -1.7361,14.4614 -3.8132,53.1397 -9.9421,63.816 -9.5705,16.671 -31.8299,29.4323 -38.0786,44.7396 -3.8557,9.4452 -4.052,19.7136 -5.441,29.711"
         id="path3149" />
      <path
         style="fill:none;stroke:#000000;stroke-width:3.77953;stroke-linecap:butt;stroke-linejoin:miter;stroke-miterlimit:4;stroke-dasharray:none;stroke-opacity:1"
         d="m 2939.6914,2057.1987 c -17.6181,26.7339 3.7902,54.8894 7.1228,82.2164"
         id="path3151" />
      <path
         style="fill:none;stroke:#000000;stroke-width:3.77953;stroke-linecap:butt;stroke-linejoin:miter;stroke-miterlimit:4;stroke-dasharray:none;stroke-opacity:1"
         d="m 2771.7962,2021.7417 c 2.9403,3.7152 6.3627,7.0954 8.821,11.1457 8.1401,13.4116 2.4965,31.4316 -0.1896,45.0777 -1.4357,7.2937 0.125,14.903 -1.3108,22.1101 -2.0779,10.4303 -6.7497,21.4194 -11.8217,30.5601 -21.2606,21.8132 -46.3234,30.3396 -74.0962,40.3457 -5.2964,1.9082 -12.3657,0.8852 -18.0047,2.366 -12.0467,3.1634 -24.6683,7.3587 -37.147,8.6066 -26.4439,2.6444 -40.754,-2.7083 -65.2752,12.4977 -17.4752,10.8368 -31.1428,31.4827 -38.0785,50.6423 -2.8017,7.7397 -1.609,16.3564 -3.5696,24.3113 -1.6698,6.7748 -5.949,12.8654 -7.1228,19.7523 -0.8811,5.1702 0.8682,10.59 -0.1896,15.7047 -1.9067,9.2193 -6.1911,15.7322 -6.1911,25.655 0,10.0425 5.2491,18.6557 5.8119,28.5321 0.5352,9.3914 -0.4941,18.9374 1.69,28.1941 3.4167,14.4809 14.5806,28.4316 17.4441,41.3597"
         id="path3153" />
      <path
         style="fill:none;stroke:#000000;stroke-width:3.77953;stroke-linecap:butt;stroke-linejoin:miter;stroke-miterlimit:4;stroke-dasharray:none;stroke-opacity:1"
         d="m 2514.6196,2425.0579 c -0.9371,4.1659 -1.689,8.3778 -2.8112,12.4977 -2.1023,7.7184 -5.9686,15.086 -7.6915,22.9593 -2.3824,10.8868 -1.3994,22.3027 -3.5696,33.2559 -1.9525,9.8537 -4.9528,19.2777 -5.6224,29.373 -0.7132,10.7525 1.1212,21.5057 1.1212,32.2501 0,11.6777 -2.6505,24.1756 -0.9398,35.7868 0.8499,5.7687 4.0571,10.5976 5.2513,16.2075 2.0862,9.7997 1.0377,20.2853 2.0693,30.2221 0.8404,8.0954 4.1219,15.3171 4.1219,23.6353 0,22.0506 -17.1758,41.4648 -19.505,63.478 -1.8346,17.3373 5.7087,53.2693 1.1211,65.6709"
         id="path3155" />
      <path
         style="fill:none;stroke:#000000;stroke-width:3.77953;stroke-linecap:butt;stroke-linejoin:miter;stroke-miterlimit:4;stroke-dasharray:none;stroke-opacity:1"
         d="m 2485.3538,2824.1615 c -0.4069,21.9832 10.781,42.3708 13.3221,63.6428 0.902,7.5509 -0.3641,15.2732 0.9316,22.7862 1.407,8.1594 5.0576,15.812 6.5703,23.9732 2.2397,12.0834 3.5338,24.2619 8.0626,35.795 7.7149,19.6472 31.0038,40.6806 33.9566,61.2852 2.3052,16.0859 3.0432,32.3805 1.8714,48.6142 -1.9172,26.5584 -14.1468,74.2639 1.69,97.4099 4.5385,6.6333 11.5487,9.6348 17.6336,14.3527 4.1421,3.2114 7.708,11.1916 10.1318,11.9866"
         id="path3157" />
      <path
         style="fill:none;stroke:#000000;stroke-width:3.77953;stroke-linecap:butt;stroke-linejoin:miter;stroke-miterlimit:4;stroke-dasharray:none;stroke-opacity:1"
         d="m 2598.4683,3060.6789 c -4.1779,-9.5793 -9.5703,-20.2465 -10.6924,-30.8981 -1.175,-11.1543 2.145,-21.6648 3.0008,-32.7531 1.8291,-23.6978 5.3808,-47.9451 3.9406,-71.7466 -1.2593,-20.8123 -4.1702,-41.6201 -5.2514,-62.464 -0.6987,-13.4715 3.4544,-26.5104 3.0008,-39.8428 -0.6879,-20.219 -2.1452,-42.022 3.5614,-61.788 2.4788,-8.5858 7.1799,-15.1949 11.0715,-22.9592 3.3489,-6.6814 3.4068,-16.0916 6.1912,-23.2973 5.5314,-14.3148 3.5397,-30.9017 8.6231,-45.2425"
         id="path3159" />
      <path
         style="fill:none;stroke:#000000;stroke-width:3.77953;stroke-linecap:butt;stroke-linejoin:miter;stroke-miterlimit:4;stroke-dasharray:none;stroke-opacity:1"
         d="m 2590.4057,2692.6466 c 4.2018,-8.5185 6.3802,-17.8043 10.5028,-26.3393 6.131,-12.6933 15.1602,-23.938 19.1341,-37.6499 7.1016,-24.5045 9.6818,-52.9228 10.5027,-78.3335 0.2136,-6.6115 -1.3281,-13.7241 -0.371,-20.2552 0.7222,-4.9284 3.1551,-9.8393 4.3116,-14.6907 3.2863,-13.7865 2.4402,-30.6049 2.4402,-44.7314"
         id="path3161" />
      <path
         style="fill:none;stroke:#000000;stroke-width:3.77953;stroke-linecap:butt;stroke-linejoin:miter;stroke-miterlimit:4;stroke-dasharray:none;stroke-opacity:1"
         d="m 2613.4722,2354.1521 c -0.6238,-3.5449 -1.2476,-7.0897 -1.8714,-10.6346 0,-0.1127 0.085,-0.2641 0,-0.338 -0.7363,-0.6403 0.9383,1.7456 1.1212,2.704 0.5188,2.7185 -0.6334,5.8717 0.7502,8.2686 2.9917,5.183 8.1947,8.7517 11.8217,13.5118 2.8956,3.8001 4.684,11.5964 6.1912,15.8695 3.3814,9.5869 9.7169,18.2435 11.2529,28.5321 3.0831,20.6512 3.7509,41.7054 7.502,62.2909 4.2097,23.1033 12.1304,45.2644 20.2635,67.196 2.8913,7.7967 3.947,16.3143 7.1309,23.965 13.8105,33.1856 27.1157,51.3606 21.1951,88.3004 -3.1557,19.6888 -18.1786,37.745 -24.3855,56.3883 -1.9661,5.9055 -2.0931,12.0808 -3.5696,18.0623 -3.059,12.393 -8.3119,24.099 -11.8135,36.2979 -1.9558,6.814 -2.7782,13.8625 -5.07,20.5933 -7.9361,23.3077 -19.6166,45.831 -25.5066,69.8917 -3.449,14.0892 -2.6899,29.3076 -6.1912,43.2228 -2.9401,11.6852 -10.1745,21.7297 -13.6931,33.2559 -3.1674,10.3761 -1.3858,21.6209 -3.1904,32.2419 -1.85,10.8888 -2.6725,19.2189 0.5606,28.7052"
         id="path3163" />
      <path
         style="fill:none;stroke:#000000;stroke-width:3.77953;stroke-linecap:butt;stroke-linejoin:miter;stroke-miterlimit:4;stroke-dasharray:none;stroke-opacity:1"
         d="m 3078.6918,2345.8835 c -3.6473,15.4943 -10.1577,30.3432 -14.4433,45.7536 -2.8661,10.3062 0.9184,20.1579 -1.1294,30.387 -0.8051,4.0213 -2.9628,7.5779 -4.1302,11.4755 -4.3194,14.4204 -6.8337,29.3517 -10.8737,43.8988 -15.3733,55.3551 -43.9862,112.2752 -38.837,171.3494 1.8665,21.4143 16.2776,40.0603 22.1348,60.2711 3.4606,11.941 8.2648,24.7785 10.3214,36.9739 1.8699,11.0881 0.6001,22.4129 0.9398,33.5939 0.3125,10.2859 3.1953,20.4096 4.6908,30.5601 2.6514,17.9966 7.4976,36.1067 11.4425,53.8492 2.2223,9.9947 6.4098,19.5574 7.3124,29.8841 1.3421,15.3554 0.3875,30.3931 -0.371,45.5805 -0.7181,14.3785 -4.9665,29.4773 -4.5094,43.7256 0.083,2.5976 1.2797,17.8033 0.3792,15.3667"
         id="path3165" />
      <path
         style="fill:none;stroke:#000000;stroke-width:3.77953;stroke-linecap:butt;stroke-linejoin:miter;stroke-miterlimit:4;stroke-dasharray:none;stroke-opacity:1"
         d="m 2946.8142,2139.4151 c -11.5343,23.4484 30.3574,32.7051 46.1493,38.1527 6.077,2.0964 10.7566,6.3377 16.6939,8.6067 15.2837,5.8407 31.5818,10.3408 47.6497,13.3386 5.8438,1.0903 12.099,0.4769 17.8151,2.1929 8.6299,2.5908 16.4721,7.6941 25.3252,10.1317 9.9296,2.734 31.3445,7.845 38.8288,14.3526 28.5766,24.8473 29.0565,50.4757 33.0168,86.2642 2.662,24.0553 9.4924,49.935 5.2514,74.2858 -3.5487,20.3756 -11.5801,41.5768 -18.7549,60.9388 -1.9685,5.3123 -2.4232,12.3674 -4.3198,17.0567"
         id="path3167" />
      <path
         style="fill:none;stroke:#000000;stroke-width:3.77953;stroke-linecap:butt;stroke-linejoin:miter;stroke-miterlimit:4;stroke-dasharray:none;stroke-opacity:1"
         d="m 3196.1179,2472.1635 c -13.4921,-10.3933 -14.6329,-21.8099 -14.6329,-36.8007 0,-0.448 0,0.8958 0,1.3437 0,3.7702 0,7.5404 0,11.3106 0,5.5813 0.2815,10.9872 0.7502,16.5455 0.7448,8.834 -0.7879,18.5419 0.9398,27.1802 2.3252,11.626 6.6344,20.1774 6.1911,32.415 -0.7166,19.7846 -5.3084,39.3432 -7.6915,58.9191 -1.1622,9.546 0.1816,19.8846 -2.2506,29.2081 -7.5064,28.7744 -23.9664,61.9267 -11.4425,89.4793"
         id="path3169" />
      <path
         style="fill:none;stroke:#000000;stroke-width:3.77953;stroke-linecap:butt;stroke-linejoin:miter;stroke-miterlimit:4;stroke-dasharray:none;stroke-opacity:1"
         d="m 3071.0002,2469.1215 c -5.2627,17.1596 -4.2421,36.0689 -5.6305,54.1954 -0.8177,10.6743 1.619,21.072 1.3107,31.739 -0.8893,30.7709 0.1303,62.425 2.6298,93.3539 0.5231,6.4726 17.6424,41.0255 22.8851,47.2705 1.2718,1.515 -1.3354,-3.7245 -2.061,-5.5646"
         id="path3171" />
      <path
         style="fill:none;stroke:#000000;stroke-width:3.77953;stroke-linecap:butt;stroke-linejoin:miter;stroke-miterlimit:4;stroke-dasharray:none;stroke-opacity:1"
         d="m 3137.7758,2644.7001 c -2.7259,15.952 5.2828,18.6443 12.7616,29.2081"
         id="path3173" />
      <path
         style="fill:none;stroke:#000000;stroke-width:3.77953;stroke-linecap:butt;stroke-linejoin:miter;stroke-miterlimit:4;stroke-dasharray:none;stroke-opacity:1"
         d="m 2530.0027,2647.0661 c 17.899,9.3105 7.9536,30.7835 15.0039,41.8625 1.46,2.2942 0.6676,-5.3981 0.9398,-8.1038"
         id="path3175" />
      <path
         style="fill:none;stroke:#000000;stroke-width:3.77953;stroke-linecap:butt;stroke-linejoin:miter;stroke-miterlimit:4;stroke-dasharray:none;stroke-opacity:1"
         d="m 2545.9464,2680.8248 c 5.9273,-11.4298 12.7663,-22.5211 21.0055,-32.415"
         id="path3177" />
      <path
         style="fill:none;stroke:#000000;stroke-width:3.77953;stroke-linecap:butt;stroke-linejoin:miter;stroke-miterlimit:4;stroke-dasharray:none;stroke-opacity:1"
         d="m 3090.1343,2690.1157 c -4.5644,5.6251 -9.5285,10.9481 -13.6931,16.8752 -2.4091,3.4288 -2.015,8.1376 -3.1904,12.1598 -8.3945,28.7259 -14.7796,51.5927 -10.3213,82.0433 3.4956,23.8759 4.8101,47.9357 10.3213,71.5817 5.3003,22.741 13.4655,44.7765 17.6337,67.872 2.1251,11.7749 0.3452,23.9602 2.6216,35.6219 2.5206,12.9127 10.1122,24.9612 12.5719,37.9796 5.0093,26.5128 -10.8627,49.389 -21.9535,71.4169 -1.8745,3.723 -2.7966,13.6503 -5.4327,16.0344 -1.8647,1.6864 0.6922,-4.9908 1.3108,-7.4277"
         id="path3179" />
      <path
         style="fill:none;stroke:#000000;stroke-width:3.77953;stroke-linecap:butt;stroke-linejoin:miter;stroke-miterlimit:4;stroke-dasharray:none;stroke-opacity:1"
         d="m 3075.1222,3270.1893 c 17.7818,-8.479 21.8485,-26.1117 31.5164,-41.1948 16.0933,-25.1073 36.2434,-50.9501 39.208,-81.7135 0.6177,-6.4094 -2.4956,-13.3409 -2.6298,-19.9172 -0.2615,-12.8134 2.1063,-24.56 3.751,-37.1388 1.179,-9.0178 -0.4374,-18.0902 1.8796,-27.0152 8.5483,-32.9282 17.7773,-65.6833 27.007,-98.4239 2.8081,-9.9614 7.9324,-19.481 9.7607,-29.711 3.7104,-20.7601 3.8677,-41.7705 7.1228,-62.4641 2.066,-13.1345 5.3676,-26.8405 5.6306,-40.1807 0.3007,-15.2619 1.4585,-30.7186 0,-45.9185 -1.8416,-19.1908 -7.2237,-37.9324 -9.7526,-57.0643 -3.1092,-23.5219 -1.8796,-48.7419 -1.8796,-72.4226"
         id="path3181" />
      <path
         style="fill:none;stroke:#000000;stroke-width:3.77953;stroke-linecap:butt;stroke-linejoin:miter;stroke-miterlimit:4;stroke-dasharray:none;stroke-opacity:1"
         d="m 2608.0394,3031.7923 c -3.2698,10.1954 -7.376,20.6013 -9.3815,31.2361 -3.1538,16.7231 -0.825,35.2365 -1.69,52.1674 -1.2729,24.9156 -0.9143,49.99 -2.2506,74.9535 -0.35,6.5394 -1.9644,12.8805 -2.061,19.4144 -0.1092,7.3888 2.5493,14.1565 2.4402,21.4423 -0.098,6.5587 -1.319,13.0108 -1.319,19.5793 0,8.5167 1.8534,16.7445 1.69,25.3253 -0.4696,24.6645 -1.6282,46.0708 3.751,70.2297 3.5348,15.8757 10.848,29.9121 17.4441,44.5665 5.6176,12.4808 7.3047,28.6043 10.1317,41.8708 2.8614,13.4276 10.1275,28.1504 11.2529,40.6836"
         id="path3183" />
      <path
         style="fill:none;stroke:#000000;stroke-width:3.77953;stroke-linecap:butt;stroke-linejoin:miter;stroke-miterlimit:4;stroke-dasharray:none;stroke-opacity:1"
         d="m 2657.3709,3370.4516 c 1.5004,-3.0393 2.9304,-6.1143 4.5012,-9.1178 1.5708,-3.0034 -4.5743,5.7291 -4.5012,9.1178 0.1894,8.7832 5.4377,16.8961 6.0016,25.6632 1.4755,22.9403 -7.4629,43.4972 -13.6931,64.9949 -0.028,0.098 -2.4458,12.7359 -3.0008,12.8275 -2.8474,0.4699 -5.7543,-0.4507 -8.6314,-0.676"
         id="path3185" />
      <path
         style="fill:none;stroke:#000000;stroke-width:3.77953;stroke-linecap:butt;stroke-linejoin:miter;stroke-miterlimit:4;stroke-dasharray:none;stroke-opacity:1"
         d="m 2844.7712,3053.5726 c -4.8455,-0.8029 4.9283,-13.9807 3.1904,-15.0286 -2.5229,-1.5211 -4.5628,4.6554 -4.5094,7.6009 0.045,2.5142 2.021,5.0131 1.319,7.4277 -17.7713,61.1277 -5.2651,0.6709 -9.5712,22.6213 -2.0893,10.6506 -6.3632,20.6598 -8.8127,31.2279 -3.2501,14.0226 -5.3971,29.3181 -7.131,43.5607 -2.9236,24.0157 0.017,48.6882 -3.3717,72.4227 -2.1342,14.9486 -7.8017,29.7787 -10.882,44.5747 -4.7125,22.6368 -7.1894,46.3628 -14.8225,68.3667 -3.0589,8.818 -8.188,16.659 -10.3131,25.8363 -1.9311,8.3398 -4.3154,17.3901 -4.5012,25.9931 -0.2614,12.1042 2.9726,23.9526 0,36.133 -2.221,9.1008 -7.639,16.8623 -11.4425,25.317 -6.3696,14.1587 -12.4754,29.4418 -17.8233,43.8987"
         id="path3187" />
      <path
         style="fill:none;stroke:#000000;stroke-width:3.77953;stroke-linecap:butt;stroke-linejoin:miter;stroke-miterlimit:4;stroke-dasharray:none;stroke-opacity:1"
         d="m 2725.0863,3319.8011 c 0.2759,33.9072 1.2826,67.9998 7.8812,101.4659 2.6293,13.3355 10.341,25.2814 12.3823,38.6638 1.2953,8.492 -1.0715,18.567 1.5004,26.669 2.365,7.4504 8.725,12.872 12.1927,19.7524 2.2093,4.3836 10.327,35.1691 10.882,40.3539 1.3742,12.8384 -5.5834,20.9575 -7.131,32.9179 -0.504,3.895 1.8796,7.2104 1.8796,10.9726 0,3.4889 -1.747,8.7991 -0.9398,12.3246 1.2108,5.2885 3.5774,13.546 4.3115,17.5595"
         id="path3189" />
      <path
         style="fill:none;stroke:#000000;stroke-width:3.77953;stroke-linecap:butt;stroke-linejoin:miter;stroke-miterlimit:4;stroke-dasharray:none;stroke-opacity:1"
         d="m 2598.2787,3411.9843 c 4.5643,-2.5336 9.1287,-5.0672 13.6931,-7.6008 0.1896,-0.1677 0.3157,-0.5029 0.5688,-0.5029 0.2263,0 -2.0196,6.2687 -3.1904,15.3584 -2.3979,18.6169 -9.2355,35.5887 -12.5719,54.0222 -2.646,14.619 -2.1956,29.6333 -4.8722,44.2368 -1.6803,9.168 -4.5038,17.936 -4.8804,27.345 -0.356,8.8948 1.542,17.8388 0.9398,26.6772 -0.8668,12.7254 -4.6634,24.9766 -4.1301,37.8148 0.4845,11.6667 0.6658,24.6175 2.8194,36.1248 1.3238,7.0738 3.6169,12.7083 3.9323,19.9255 0.6756,15.4592 -2.3016,31.7916 0.1896,47.0973 1.5454,9.4948 5.8365,18.3386 7.502,27.8562 1.2151,6.9442 1.6521,13.5173 0.1896,20.4284 -0.1355,0.6401 -4.6618,12.5132 -0.5606,9.2908"
         id="path3191" />
      <path
         style="fill:none;stroke:#000000;stroke-width:3.77953;stroke-linecap:butt;stroke-linejoin:miter;stroke-miterlimit:4;stroke-dasharray:none;stroke-opacity:1"
         d="m 2757.1633,3516.9869 c -2.37,42.7316 16.0907,80.1642 19.3237,121.7211 0.9863,12.6778 -2.5556,25.044 -0.9398,37.8148 1.5114,11.9453 6.7413,23.5152 6.9414,35.6218 0.1107,6.7039 -1.7867,12.3446 -2.2506,18.9115 -2.1629,30.614 -7.4906,60.9864 -15.1935,90.6582 -2.2054,8.4951 1.3785,16.6127 0.1896,24.9872 -0.9517,6.7031 -4.5646,12.732 -6.3808,19.2413 -8.27,19.504 -4.7313,39.4138 -6.1912,59.5951 -0.5246,7.2535 -3.5815,14.2948 -3.1904,21.6073 0.3312,6.1918 2.8387,12.1594 3.1904,18.4086 0.4223,7.502 -2.7463,14.8216 -1.6817,22.2833 2.1475,15.0518 7.505,29.9384 8.8127,45.2425 0.7216,8.4449 -2.0432,16.2458 -2.2506,24.6492 -0.2416,9.7926 3.3941,19.4746 3.9406,29.2082 0.4778,8.5096 -2.4498,16.4669 -2.2506,24.8141 0.2576,10.7957 4.3118,20.7563 3.1904,31.739 -1.3322,13.0479 -6.973,23.595 0.371,36.1248"
         id="path3193" />
      <path
         style="fill:none;stroke:#000000;stroke-width:3.77953;stroke-linecap:butt;stroke-linejoin:miter;stroke-miterlimit:4;stroke-dasharray:none;stroke-opacity:1"
         d="m 2597.9077,3770.058 c 4.6276,4.0505 9.7504,7.5969 13.8827,12.1515 5.784,6.3751 2.6495,22.4222 5.0618,30.5602 2.1157,7.1376 6.7681,13.0188 8.0625,20.5932 1.0253,5.9997 0.6761,11.8328 2.6298,17.7244 2.4487,7.3839 6.572,13.5851 8.4418,21.2692 3.2008,13.1546 2.4851,26.4916 6.3807,39.6779 5.9139,20.0182 11.8672,39.8035 17.2545,59.9332 2.1021,7.8544 6.0226,15.0574 7.8812,22.9592 2.0488,8.7108 2.9721,17.6422 5.0617,26.3393 2.7856,11.5936 6.4002,22.7662 7.131,34.7727 1.5462,25.4015 -0.4506,51.1027 1.3108,76.4787 1.0848,15.628 5.2419,30.6771 5.6306,46.5945 0.4392,17.9909 -4.1862,39.5156 1.8713,56.8911"
         id="path3195" />
      <path
         style="fill:none;stroke:#000000;stroke-width:3.77953;stroke-linecap:butt;stroke-linejoin:miter;stroke-miterlimit:4;stroke-dasharray:none;stroke-opacity:1"
         d="m 2844.7712,3053.5726 c 4.8776,3.9956 10.5728,7.1626 14.6329,11.9867 0.8333,0.9901 1.4963,13.734 2.061,15.6963 8.5598,29.7439 8.8703,62.7701 12.3823,93.7002 0.9712,8.5535 4.997,16.509 5.812,25.1521 1.3767,14.6007 3.4268,28.9074 4.6908,43.5608 1.0652,12.3498 0.3286,24.8121 1.8713,37.1387 1.6129,12.8876 6.4656,24.9856 9.0106,37.6499 6.2199,30.9507 11.0478,62.0834 17.4441,93.0159 3.4031,16.4574 4.0855,33.3429 7.6915,49.8014 1.6456,7.5107 6.0723,14.0994 7.6916,21.6155 2.8793,13.3644 1.0574,25.9846 8.0625,38.6556"
         id="path3197" />
      <path
         style="fill:none;stroke:#000000;stroke-width:3.77953;stroke-linecap:butt;stroke-linejoin:miter;stroke-miterlimit:4;stroke-dasharray:none;stroke-opacity:1"
         d="m 2975.1402,3347.1543 c -1.3135,3.7702 -2.84,7.4729 -3.9406,11.3106 -3.5286,12.3048 -3.6829,26.1914 -6.0015,38.8288 -2.3384,12.7447 -6.5622,25.0381 -6.5622,38.1528 0,12.1639 2.9952,22.2637 -0.1896,34.443 -3.3232,12.7086 -9.7353,24.2892 -14.0723,36.6358 -3.1875,9.0743 -4.5233,18.4561 -7.6916,27.5182 -4.4314,12.675 -11.4197,24.2329 -16.5043,36.6276 -4.2346,10.3229 -3.9544,22.0023 -6.1911,32.753 -1.2917,6.2084 -4.2336,12.5501 -6.1912,18.5735"
         id="path3199" />
      <path
         style="fill:none;stroke:#000000;stroke-width:3.77953;stroke-linecap:butt;stroke-linejoin:miter;stroke-miterlimit:4;stroke-dasharray:none;stroke-opacity:1"
         d="m 3076.062,3025.2054 c 10.1058,18.9411 -10.1318,-3.3409 -10.1318,-1.3438 0,1.3682 0.7013,3.5213 2.0693,3.5449 2.7854,0.048 7.3853,-4.9034 8.0625,-2.2011 1.1167,4.4562 -3.8771,8.343 -5.441,12.6626 -2.0442,5.6464 -1.4186,14.2218 -2.6215,20.2635 -1.4568,7.316 2.0685,14.9426 1.8713,22.2833 -0.2085,7.7638 -2.0225,15.4935 -1.8713,23.2972 0.1504,7.7631 3.0142,15.0878 3.7509,22.7944 0.5463,5.7138 -3.8121,11.0039 -2.8194,16.1993 0.6662,3.4867 2.7126,6.1492 3.0008,9.7937 0.3787,4.789 -1.9228,8.875 -2.2506,13.5118 -0.7759,10.9772 -0.9472,22.0834 -1.5004,33.0827 -0.6714,13.349 0.1182,26.6796 -0.1813,40.0159 -0.2997,13.3419 -3.5946,26.048 -5.2596,39.1668 -0.8873,6.9909 -0.3364,14.0904 -1.3108,21.1043 -1.1318,8.1461 -5.5785,15.2742 -6.5622,23.4622 -2.166,18.0308 -2.6103,36.2618 -4.6907,54.3602 -0.7321,6.3683 -3.664,12.0843 -4.5012,18.4004 -2.1572,16.2736 0.8104,35.3888 6.0015,48.4576"
         id="path3201" />
      <path
         style="fill:none;stroke:#000000;stroke-width:3.77953;stroke-linecap:butt;stroke-linejoin:miter;stroke-miterlimit:4;stroke-dasharray:none;stroke-opacity:1"
         d="m 3028.9811,3451.1511 c 0.5001,3.7125 1.0075,7.424 1.5004,11.1375 1.0664,8.0349 2.0851,15.8466 1.5004,23.9732 -0.8508,11.8243 -7.0667,29.953 -1.3191,41.1948"
         id="path3203" />
      <path
         style="fill:none;stroke:#000000;stroke-width:3.77953;stroke-linecap:butt;stroke-linejoin:miter;stroke-miterlimit:4;stroke-dasharray:none;stroke-opacity:1"
         d="m 3047.9256,3548.7259 c -0.3133,3.9955 -2.5626,8.322 -0.9398,11.9866 1.4018,3.1656 19.82,25.0974 26.265,23.8084"
         id="path3205" />
      <path
         style="fill:none;stroke:#000000;stroke-width:3.77953;stroke-linecap:butt;stroke-linejoin:miter;stroke-miterlimit:4;stroke-dasharray:none;stroke-opacity:1"
         d="m 3080.1922,3451.654 c -1.2785,-7.4897 -8.452,-9.5585 -11.2612,-15.6964 -0.8121,-1.7745 -1.1211,-7.6975 -1.1211,-5.746 0,23.336 12.7913,43.3434 16.8835,65.6709 2.7959,15.2552 -0.6345,29.2539 0.1896,44.4016 0.5597,10.2885 2.8135,20.3842 3.0007,30.725 0.2161,11.929 -1.6492,23.724 -1.8796,35.6219 -0.1482,7.6592 0.9397,15.6866 0,23.2973 -0.9335,7.5604 -4.3337,14.5233 -5.8119,21.9535 -1.1609,5.8348 -0.1735,11.8634 -0.9398,17.7243 -0.8318,6.3617 -3.2629,12.5017 -4.6908,18.7384 -5.261,22.9784 -9.0656,45.777 -10.1317,69.2158 -0.2885,6.3414 -2.1501,14.5277 -1.69,20.0904"
         id="path3207" />
      <path
         style="fill:none;stroke:#000000;stroke-width:3.77953;stroke-linecap:butt;stroke-linejoin:miter;stroke-miterlimit:4;stroke-dasharray:none;stroke-opacity:1"
         d="m 2939.5018,3574.892 c -14.607,9.4433 -10.5538,23.2855 -16.5125,37.823 -9.283,22.648 -19.2712,44.9244 -25.5066,68.7046 -3.9176,14.9408 -0.7427,30.4968 -1.8796,45.5888 -0.7722,10.2501 -2.9104,20.3913 -2.2506,30.725 0.4283,6.7087 1.9844,13.102 1.69,19.9173 -0.5648,13.0754 -3.5873,24.8325 -2.8112,38.1527 0.3917,6.7222 2.8995,13.1242 3.9324,19.7524 1.1423,7.3312 0.8145,14.655 2.6298,21.9452 3.4422,13.8242 9.763,27.2608 12.0031,41.3679 1.15,7.2422 -0.3427,14.6884 0.3792,21.9453 1.4362,14.4371 2.6628,28.6882 3.3718,43.2145 1.0936,22.4072 -1.5274,44.2195 3.3799,66.182 1.7198,7.6965 -0.537,14.9135 2.2506,22.4564 5.0597,13.6908 -5.4329,37.5353 -6.9413,50.9802 -1.4381,12.8174 -2.9222,25.9049 -5.6224,38.6639 -1.8306,8.6501 -5.05,17.0195 -6.1911,25.8282 -0.7865,6.0713 0.441,12.1365 -0.3793,18.2272 -0.8337,6.1906 -3.3506,16.6207 -3.0007,20.6015"
         id="path3209" />
      <path
         style="fill:none;stroke:#000000;stroke-width:3.77953;stroke-linecap:butt;stroke-linejoin:miter;stroke-miterlimit:4;stroke-dasharray:none;stroke-opacity:1"
         d="m 3062.7399,3777.6507 c -5.1284,13.5957 -1.7672,28.1333 -5.0618,42.0356 -1.561,6.5872 -3.8476,12.751 -4.5012,19.5875 -0.5406,5.6552 0.5813,12.0259 -0.7502,17.5512 -2.1315,8.8456 -6.7809,15.8914 -8.2521,25.1604 -2.2752,14.3345 -2.1273,27.0055 -7.3206,41.0217 -7.153,19.3052 -7.1394,40.4758 -10.6923,60.6091 -3.9285,22.2614 -8.5414,44.4227 -11.4425,66.8498 -1.4216,10.9893 -0.9119,22.6251 -3.1822,33.429 -2.2547,10.7295 -8.5826,20.5914 -10.1317,31.401 -2.6838,18.7272 -1.1307,37.773 -5.07,56.5531 -5.0286,23.9728 -4.0327,46.8884 -5.0618,71.2438 -0.1196,2.8317 -12.9019,59.5513 -3.9406,42.5467"
         id="path3211" />
      <path
         style="fill:none;stroke:#000000;stroke-width:3.77953;stroke-linecap:butt;stroke-linejoin:miter;stroke-miterlimit:4;stroke-dasharray:none;stroke-opacity:1"
         d="m 2915.8666,4191.6015 c -1.8769,5.9658 -4.6495,11.7208 -5.6306,17.8975 -1.2904,8.1234 3.956,24.1792 4.5012,32.077 0.7161,10.3753 -3.7104,47.3884 2.8111,54.6983 1.2844,1.4395 0.5278,-3.8224 0.7585,-5.7378"
         id="path3213" />
      <path
         style="fill:none;stroke:#000000;stroke-width:3.77953;stroke-linecap:butt;stroke-linejoin:miter;stroke-miterlimit:4;stroke-dasharray:none;stroke-opacity:1"
         d="m 2688.5081,4236.0031 c 2.0005,9.2002 4.0273,18.3947 6.0016,27.6006 5.1057,23.8078 0.9788,47.7112 -7.8729,69.8917 -6.5808,16.4899 -16.2696,30.5944 -19.3237,48.4494 -0.6157,3.5992 -4.8457,16.9461 -2.061,19.7524 1.6044,1.6168 41.0471,6.9061 45.0199,6.7518 8.8203,-0.3427 16.8201,-6.6634 25.1357,-9.1095 4.3542,-1.2809 9.9136,0.8408 14.2537,0.8408 6.7385,0 13.0321,-4.1612 19.6946,-5.0617 10.9498,-1.48 26.2415,5.793 35.8363,-3.38 15.9793,-15.277 -22.4586,-43.7581 -28.7053,-54.1954 -2.3525,-3.9307 -4.7919,-10.3624 -6.0016,-14.8555 -2.7633,-10.2637 1.9064,-33.7265 5.0618,-44.0636 1.3812,-4.525 4.8838,-10.8807 5.07,-15.3584 0.2955,-7.106 -1.2757,-14.0914 -0.9398,-21.2693 0.4186,-8.9449 0.5274,-19.515 -3.9406,-27.5181"
         id="path3215" />
      <path
         style="fill:none;stroke:#000000;stroke-width:3.77953;stroke-linecap:butt;stroke-linejoin:miter;stroke-miterlimit:4;stroke-dasharray:none;stroke-opacity:1"
         d="m 2746.471,4258.5337 c 2.7796,15.9176 3.4989,33.3229 8.6313,48.7956"
         id="path3217" />
      <path
         style="fill:none;stroke:#000000;stroke-width:3.77953;stroke-linecap:butt;stroke-linejoin:miter;stroke-miterlimit:4;stroke-dasharray:none;stroke-opacity:1"
         d="m 2918.3068,4290.5365 c -2.0033,-2.4512 -3.5586,-9.3568 -6.0098,-7.3536 -2.4512,2.0033 6.2784,4.1993 6.0098,7.3536 -0.4126,4.8461 -5.3937,8.1123 -7.6916,12.3988 -2.3792,4.4382 -3.0349,10.5202 -4.3198,15.3666 -5.8632,22.1158 -23.7835,40.9732 -17.6337,65.6709 1.8631,7.4824 11.8667,10.2967 18.3839,10.2967 6.634,0 13.288,-2.5419 19.8843,-1.69 3.6456,0.4708 7.0255,3.592 10.8819,3.042 11.2877,-1.6101 20.4068,-9.8057 32.077,-10.8078 6.4435,-0.5533 12.8682,0.6839 19.3237,0 0.8082,-0.086 16.9295,-6.3645 18.1943,-8.4417 4.0362,-6.6288 -1.6853,-14.3029 -2.4402,-20.9313 -1.1474,-10.0747 -5.6903,-20.9461 -13.5035,-28.359 -17.2027,-16.3216 -14.3242,-29.454 -14.6329,-52.0025 -0.3172,-23.1688 0.2439,-43.7023 5.8119,-66.1738 1.4482,-5.8443 2.428,-12.0119 2.0693,-18.0624 -0.087,-1.4674 -7.8805,-28.0285 -4.8804,-15.3666"
         id="path3219" />
      <path
         style="fill:none;stroke:#000000;stroke-width:3.77953;stroke-linecap:butt;stroke-linejoin:miter;stroke-miterlimit:4;stroke-dasharray:none;stroke-opacity:1"
         d="m 2515.5594,2364.3169 c 1.806,15.5973 -2.7002,29.9838 -6.0016,44.9127 -0.41,1.8544 -5.8396,14.4851 -5.6305,14.5175 3.5483,0.5506 7.1282,0.8739 10.6923,1.3108"
         id="path3221" />
      <path
         style="fill:none;stroke:#000000;stroke-width:3.77953;stroke-linecap:butt;stroke-linejoin:miter;stroke-miterlimit:4;stroke-dasharray:none;stroke-opacity:1"
         d="m 3175.4834,2398.0839 c -0.5633,3.6025 -1.0271,7.2221 -1.69,10.8077 -0.8641,4.6738 -2.6216,9.1649 -2.6216,14.0064 0,7.672 3.085,21.9564 0.7502,26.6772"
         id="path3223" />
      <path
         style="fill:none;stroke:#000000;stroke-width:3.77953;stroke-linecap:butt;stroke-linejoin:miter;stroke-miterlimit:4;stroke-dasharray:none;stroke-opacity:1"
         d="m 2488.1649,2790.3945 c -7.0852,15.8507 -1.8995,32.0285 -0.5606,48.4823 0.1532,1.8816 -1.6096,7.2945 -1.6817,5.408 -0.2565,-6.7055 -0.3792,-13.4155 -0.5688,-20.1233"
         id="path3225" />
      <path
         style="fill:none;stroke:#000000;stroke-width:3.77953;stroke-linecap:butt;stroke-linejoin:miter;stroke-miterlimit:4;stroke-dasharray:none;stroke-opacity:1"
         d="m 2621.9139,2669.6873 c -0.9975,-1.341 -1.6515,-5.0205 -2.9925,-4.023 -1.341,0.9975 3.0427,2.3524 2.9925,4.023 -0.1534,5.1005 -2.5392,9.8891 -3.5613,14.8885 -0.2032,0.9934 -0.3578,3.9908 0,3.042 1.1415,-3.0275 -0.5665,-7.0964 0.1896,-10.1318 0.6845,-2.7481 3.467,-4.9682 3.3717,-7.7987 -0.1689,-5.017 -2.8188,-9.6368 -4.1219,-14.4845 -0.8482,-3.1554 4.3246,-13.9967 2.2506,-19.5875 -1.3301,-3.5853 -3.4953,-8.18 -3.751,-11.1375"
         id="path3227" />
      <path
         style="fill:none;stroke:#000000;stroke-width:3.77953;stroke-linecap:butt;stroke-linejoin:miter;stroke-miterlimit:4;stroke-dasharray:none;stroke-opacity:1"
         d="m 3181.8642,2420.5402 c -0.2104,-7.3134 -3.982,-10.594 -6.9414,-15.8695 -0.7865,-1.402 2.5496,2.4419 2.6216,4.0478 0.1878,4.1912 4.6606,7.6402 4.3198,11.8217 -1.0347,12.6947 -6.9497,11.6981 -5.8202,22.4482 0.6559,6.2427 2.3697,14.8555 2.0692,14.8555 -3.57,0 -2.7703,-6.586 -3.9406,-9.9587 -2.8403,-8.1855 -5.6306,-16.6893 -5.6306,-25.4901 0,-12.7578 4.8936,-9.062 5.6306,0.338 1.5007,19.1397 0.3004,-0.2327 0.9398,11.9866 0.4131,7.8935 0.3746,3.9689 -3.1904,14.8555"
         id="path3229" />
      <path
         style="fill:none;stroke:#000000;stroke-width:3.77953;stroke-linecap:butt;stroke-linejoin:miter;stroke-miterlimit:4;stroke-dasharray:none;stroke-opacity:1"
         d="m 3183.7355,2634.0984 c -4.2399,8.8095 -4.7213,17.7805 -3.7509,27.345 0.3107,3.0631 0.9011,6.9809 1.8796,10.1318 0.2055,0.6619 1.4521,2.3216 0.9398,1.8548 -6.0076,-5.4735 -4.7385,-20.3838 -3.1904,-27.1801 0.9499,-4.1704 1.5006,-15.5313 4.1219,-12.1515 0.4339,0.5594 -5.1067,26.9206 3.0008,22.9263"
         id="path3231" />
      <path
         style="fill:none;stroke:#000000;stroke-width:3.77953;stroke-linecap:butt;stroke-linejoin:miter;stroke-miterlimit:4;stroke-dasharray:none;stroke-opacity:1"
         d="m 2893.9213,3706.2667 c 2.0347,17.5385 -4.4751,35.2225 -1.8796,52.6785 1.1066,7.4424 3.165,14.302 3.0008,21.9453 -0.144,6.7032 -3.2987,12.1935 -2.8112,19.2413 0.6185,8.94 1.904,16.4446 1.1212,25.4983"
         id="path3233" />
      <path
         style="fill:none;stroke:#000000;stroke-width:3.77953;stroke-linecap:butt;stroke-linejoin:miter;stroke-miterlimit:4;stroke-dasharray:none;stroke-opacity:1"
         d="m 2887.7302,3763.5041 c 0.4369,6.5842 1.3107,13.1538 1.3107,19.7524 0,21.798 -2.0438,8.306 -1.3107,22.7861 0.5696,11.2508 3.8879,21.5068 5.2513,32.5882 0.9733,7.91 0,15.9284 1.69,23.8001 1.0167,4.7283 4.8803,7.8389 5.441,12.3246"
         id="path3235" />
      <path
         style="fill:none;stroke:#000000;stroke-width:3.77953;stroke-linecap:butt;stroke-linejoin:miter;stroke-miterlimit:4;stroke-dasharray:none;stroke-opacity:1"
         d="m 2900.1125,3874.7555 c 22.6122,41.4222 15.59,87.385 18.0047,132.5289"
         id="path3237" />
      <path
         style="fill:none;stroke:#000000;stroke-width:3.77953;stroke-linecap:butt;stroke-linejoin:miter;stroke-miterlimit:4;stroke-dasharray:none;stroke-opacity:1"
         d="m 2910.8048,3955.793 c 0.4369,6.9194 0.6504,13.8565 1.3108,20.7582 2.8939,30.2436 6.48,60.0423 6.9414,90.4932 0.016,1.0756 -2.62,43.0188 2.6215,22.1184"
         id="path3239" />
      <path
         style="fill:none;stroke:#000000;stroke-width:3.77953;stroke-linecap:butt;stroke-linejoin:miter;stroke-miterlimit:4;stroke-dasharray:none;stroke-opacity:1"
         d="m 2919.8072,4050.1609 c 1.5134,21.0888 -1.612,42.0199 -4.6908,62.802 -0.5954,4.019 -7.4962,43.0539 -8.6314,42.7117 -2.5924,-0.7816 -0.5606,-5.3961 -0.5606,-8.1038"
         id="path3241" />
      <path
         style="fill:none;stroke:#000000;stroke-width:3.77953;stroke-linecap:butt;stroke-linejoin:miter;stroke-miterlimit:4;stroke-dasharray:none;stroke-opacity:1"
         d="m 2907.7958,4115.4938 c -3.6976,18.5739 -3.8141,37.5152 -6.5621,56.2234 -0.023,0.154 -3.1159,15.2118 -1.3108,15.8695 5.1493,1.8761 10.6291,2.6765 15.9437,4.0148"
         id="path3243" />
      <path
         style="fill:none;stroke:#000000;stroke-width:3.77953;stroke-linecap:butt;stroke-linejoin:miter;stroke-miterlimit:4;stroke-dasharray:none;stroke-opacity:1"
         d="m 2915.8666,4191.6015 c -26.3959,8.4455 12.468,35.991 -17.8233,15.3666"
         id="path3245" />
      <path
         style="fill:none;stroke:#000000;stroke-width:3.77953;stroke-linecap:butt;stroke-linejoin:miter;stroke-miterlimit:4;stroke-dasharray:none;stroke-opacity:1"
         d="m 2915.8666,4191.6015 c -21.4775,-2.4136 8.0869,9.1683 -17.8233,15.3666"
         id="path3247" />
      <path
         style="fill:none;stroke:#000000;stroke-width:3.77953;stroke-linecap:butt;stroke-linejoin:miter;stroke-miterlimit:4;stroke-dasharray:none;stroke-opacity:1"
         d="m 2987.7121,4135.2462 c 1.0427,-12.217 2.0465,-25.8778 3.9406,-37.8148 0.327,-2.0608 1.8497,-7.9867 2.061,-5.9108 1.0737,10.5504 -6.9981,20.4074 -7.5019,30.725 -0.2128,4.3571 1.8812,8.6549 1.5003,13.0006 -0.3273,3.7354 -4.8094,33.6631 -7.8811,40.2302"
         id="path3249" />
      <path
         style="fill:none;stroke:#000000;stroke-width:3.77953;stroke-linecap:butt;stroke-linejoin:miter;stroke-miterlimit:4;stroke-dasharray:none;stroke-opacity:1"
         d="m 3004.7853,4094.2246 c -5.4877,27.2216 -11.8605,54.1945 -16.7022,81.5404 -0.8775,4.9563 -1.9049,9.7587 -3.5613,14.5175 -0.2193,0.6298 -0.5488,2.4906 -0.7502,1.8548 -1.7236,-5.4403 -2.6271,-11.1073 -3.9406,-16.6609"
         id="path3251" />
      <path
         style="fill:none;stroke:#000000;stroke-width:3.77953;stroke-linecap:butt;stroke-linejoin:miter;stroke-miterlimit:4;stroke-dasharray:none;stroke-opacity:1"
         d="m 2979.831,4175.4764 c 2.377,1.7285 6.706,2.2773 7.1309,5.1854 1.9852,13.5846 -7.2449,36.8241 -4.6907,55.0363 1.6214,17.01 -7.362,35.2143 -1.1294,51.9943 0.6079,1.6367 -0.1224,-3.4899 -0.1814,-5.2349 -0.3574,-10.5721 -0.5399,-21.7536 -0.5688,-21.2693 -0.4009,6.7057 1.0174,16.6648 -2.061,22.7944 -1.1385,2.2668 -2.8424,-8.1725 -0.371,-7.6009 4.2785,0.9897 6.2489,6.1719 9.3733,9.2579"
         id="path3253" />
      <path
         style="fill:none;stroke:#000000;stroke-width:3.77953;stroke-linecap:butt;stroke-linejoin:miter;stroke-miterlimit:4;stroke-dasharray:none;stroke-opacity:1"
         d="m 2758.6719,4146.3919 c 2.0638,4.9519 4.9293,9.6414 6.1912,14.8556 3.2276,13.3359 1.5821,25.179 2.061,38.6638 0.3144,8.8542 0.029,10.9084 3.3717,17.5513 1.0206,2.028 5.4693,5.6632 5.6306,8.1037 0.038,0.5755 -0.3611,2.2667 -0.371,1.69 -0.073,-4.2591 0.1209,-8.5187 0.1814,-12.778"
         id="path3255" />
      <path
         style="fill:none;stroke:#000000;stroke-width:3.77953;stroke-linecap:butt;stroke-linejoin:miter;stroke-miterlimit:4;stroke-dasharray:none;stroke-opacity:1"
         d="m 2762.7939,4179.6149 c 7.5756,14.884 10.6528,30.9437 11.4425,47.4766 0.5988,12.534 -1.8493,25.5894 0.1896,37.9796 0.7141,4.3391 1.9169,8.5959 2.2506,13.0006 0.06,0.7864 0.3794,3.0574 0,2.366 -6.0953,-11.1069 0.4481,-53.7336 0.3792,-65.844 -0.1192,-20.9727 -11.0852,-38.2315 -12.3823,-58.746 -0.5421,-8.5734 4.4107,-24.8458 -2.4402,-31.9121 -2.3895,-2.4647 -0.5935,6.8877 -0.1896,10.2966 0.8554,7.2195 3.7042,13.968 4.5012,21.2775 0.3789,3.4755 0.5001,6.9743 0.7502,10.4615 -1.5004,4.5479 -4.6667,8.8576 -4.5012,13.6437 0.168,4.8601 4.1751,8.8411 5.441,13.5364 1.4163,5.2538 10.7127,50.0404 3.38,55.0363 -1.8714,1.275 0.4471,-4.5077 0.7502,-6.7518 1.5403,-11.407 5.5619,-41.8981 -0.5689,-52.1673 -2.2554,-3.7779 -8.0345,-5.3615 -9.0023,-9.6536 -0.9816,-4.3533 3.2032,-8.3934 3.9406,-12.7946 1.1382,-6.7943 -1.7102,-16.5525 -2.4402,-23.6352 -1.1062,-10.7314 -7.5105,-20.1701 -8.6231,-30.5602 -2.2803,-21.2936 -0.1897,-43.2408 -0.1897,-64.6568"
         id="path3257" />
      <path
         style="fill:none;stroke:#000000;stroke-width:3.77953;stroke-linecap:butt;stroke-linejoin:miter;stroke-miterlimit:4;stroke-dasharray:none;stroke-opacity:1"
         d="m 3057.6781,3420.6239 c 11.9918,12.612 -4.6454,-13.0485 -4.3116,-10.9726 0.6241,3.8799 3.0182,7.2618 4.3116,10.9726 1.6452,4.7202 -0.1182,14.1795 4.8804,14.1795 1.93,0 -2.2271,-3.2222 -2.8112,-5.0617 -0.9431,-2.9704 -3.8728,-11.6594 -2.0692,-9.1178 3.1789,4.4797 4.1409,10.178 6.3808,15.1935 4.5376,10.161 8.1253,5.4231 -12.3824,8.2439"
         id="path3259" />
      <path
         style="fill:none;stroke:#000000;stroke-width:1px;stroke-linecap:butt;stroke-linejoin:miter;stroke-opacity:1"
         d="m 2939.6914,2057.1987 c -0.3933,-0.056 -1.1236,-0.562 -1.1799,-0.1688 -0.056,0.3933 1.1034,0.5587 1.1799,0.1688 0.1673,-0.853 -0.5142,-1.6618 -0.7215,-2.506 -0.2731,-1.1125 0.4112,-2.5869 0.6498,-3.6453 0.1252,-0.5552 -0.4049,-1.3331 -0.497,-1.8906 -0.5047,-3.0567 -1.0303,-6.3389 -1.261,-9.4213 -0.1113,-1.4874 0,-3.115 -0.3442,-4.5739 -0.2003,-0.8402 -0.7301,-1.5315 -0.9168,-2.3725 -0.3085,-1.3903 -0.1684,-2.8309 -0.4197,-4.2296 -0.3011,-1.6759 -1.3624,-3.1268 -1.5666,-4.7786 -0.08,-0.6502 -0.054,-1.3396 -0.077,-1.9948 -0.01,-0.1946 0,-0.7791 0,-0.5843 0,0.4972 0.4543,0.752 0.5742,1.2375 0.7463,3.0219 1.4251,6.0574 2.1778,9.0771 0.9908,3.9752 0.764,8.2003 0.764,12.2421 0,3.9287 -0.837,7.6867 -1.9108,11.4496 -0.3348,1.1731 -0.7743,2.3131 -1.1468,3.4724 -0.1758,0.5469 -0.4954,2.2249 -0.4954,1.6505 0,-0.6451 0.8485,-1.6243 1.0696,-2.2348 0.9559,-2.6399 1.5839,-5.4734 2.1778,-8.2174 0.2999,-1.3861 0.3336,-2.6862 0.4197,-4.092 0.033,-0.5381 0,-2.1549 0.039,-1.6169 0.1199,1.8134 0.309,3.7659 0.039,5.5712 -0.2891,1.9301 -1.0821,3.6885 -1.2996,5.6383 -0.1236,1.1071 -1.2826,3.1122 -0.1915,3.3363 1.0796,0.2218 1.9586,-1.0113 2.9379,-1.517"
         id="path3320" />
      <g
         id="g3406">
        <g
           id="g3392">
          <path
             style="fill:none;stroke:#ff0000;stroke-width:7.55906;stroke-linecap:butt;stroke-linejoin:miter;stroke-miterlimit:4;stroke-dasharray:none;stroke-opacity:1"
             d="m 2737.8205,1970.4701 h 221.156"
             id="path3359" />
          <path
             style="fill:none;stroke:#ff0000;stroke-width:7.55906;stroke-linecap:butt;stroke-linejoin:miter;stroke-miterlimit:4;stroke-dasharray:none;stroke-opacity:1"
             d="M 2767.2951,2130.6353 H 2950.35"
             id="path3361" />
          <path
             style="fill:none;stroke:#ff0000;stroke-width:7.55906;stroke-linecap:butt;stroke-linejoin:miter;stroke-miterlimit:4;stroke-dasharray:none;stroke-opacity:1"
             d="m 2613.4722,2354.1521 h 463.5504"
             id="path3363" />
          <path
             style="fill:none;stroke:#ff0000;stroke-width:7.55906;stroke-linecap:butt;stroke-linejoin:miter;stroke-miterlimit:4;stroke-dasharray:none;stroke-opacity:1"
             d="m 2703.6642,2647.2568 h 320.6377"
             id="path3365" />
          <path
             style="fill:none;stroke:#ff0000;stroke-width:7.55906;stroke-linecap:butt;stroke-linejoin:miter;stroke-miterlimit:4;stroke-dasharray:none;stroke-opacity:1"
             d="m 2616.4666,2931.9459 h 458.8948"
             id="path3367" />
          <path
             style="fill:none;stroke:#ff0000;stroke-width:7.55906;stroke-linecap:butt;stroke-linejoin:miter;stroke-miterlimit:4;stroke-dasharray:none;stroke-opacity:1"
             d="M 2409.2267,2152.7923 V 4380.1194"
             id="path3369" />
          <path
             style="fill:none;stroke:#ff0000;stroke-width:7.55906;stroke-linecap:butt;stroke-linejoin:miter;stroke-miterlimit:4;stroke-dasharray:none;stroke-opacity:1"
             d="m 2477.5246,2197.2509 v 830.4753"
             id="path3371" />
          <path
             style="fill:none;stroke:#ff0000;stroke-width:7.55906;stroke-linecap:butt;stroke-linejoin:miter;stroke-miterlimit:4;stroke-dasharray:none;stroke-opacity:1"
             d="m 2527.9285,3447.2917 v 931.9242"
             id="path3373" />
          <path
             style="fill:none;stroke:#ff0000;stroke-width:7.55906;stroke-linecap:butt;stroke-linejoin:miter;stroke-miterlimit:4;stroke-dasharray:none;stroke-opacity:1"
             d="M 2858.8392,3090.6909 V 4396.2212"
             id="path3375" />
          <path
             style="fill:none;stroke:#ff0000;stroke-width:7.55906;stroke-linecap:butt;stroke-linejoin:miter;stroke-miterlimit:4;stroke-dasharray:none;stroke-opacity:1"
             d="M 3213.6185,2690.8265 V 4384.8843"
             id="path3377" />
          <path
             style="fill:none;stroke:#ff0000;stroke-width:7.55906;stroke-linecap:butt;stroke-linejoin:miter;stroke-miterlimit:4;stroke-dasharray:none;stroke-opacity:1"
             d="m 2860.1652,2146.5265 v 516.8467"
             id="path3379" />
        </g>
      </g>
    </g>
    <g
       id="g5384"
       transform="translate(0,-30.69168)">
      <g
         id="g4997"
         transform="matrix(0.26458333,0,0,0.26458333,-521.18963,-373.74113)">
        <path
           style="fill:none;stroke:#000000;stroke-width:3.77953;stroke-linecap:butt;stroke-linejoin:miter;stroke-miterlimit:4;stroke-dasharray:none;stroke-opacity:1"
           d="m 1603.6796,709.55941 c -22.5338,2.6517 -49.0555,17.15126 -63.3829,35.69031 -3.6622,4.73865 -5.9556,10.41197 -9.5271,15.22626 -6.0252,8.12168 -13.9117,15.53292 -18.6697,24.49703 -6.1095,11.51036 -9.4943,24.78069 -15.7475,36.04063 -3.4101,6.14046 -7.3568,10.6406 -8.7495,17.84942 -4.9913,25.83392 3.2137,48.7769 6.0238,74.19174 1.392,12.58896 0.033,25.63459 0.7861,38.322 1.4793,24.91792 8.4398,52.2486 5.4428,77.3361 -1.0854,9.0862 -4.023,17.931 -6.2289,26.7784"
           id="path4772" />
        <path
           style="fill:none;stroke:#000000;stroke-width:3.77953;stroke-linecap:butt;stroke-linejoin:miter;stroke-miterlimit:4;stroke-dasharray:none;stroke-opacity:1"
           d="m 1521.046,967.4746 c 12.542,19.85195 22.4718,43.8284 40.8255,59.4952 7.6208,6.5052 19.5982,5.6609 27.8037,11.8939 8.0124,6.0864 10.3542,18.4346 22.754,16.9779 20.9,-2.4553 31.3594,-25.4816 42.5771,-39.5524 3.8152,-4.7855 8.6582,-8.6443 12.4408,-13.4661 3.3509,-4.2715 6.4238,-9.35456 8.1685,-14.5256 0.6756,-2.00225 1.9396,-17.97969 1.9396,-9.45019"
           id="path4774" />
        <path
           style="fill:none;stroke:#000000;stroke-width:3.77953;stroke-linecap:butt;stroke-linejoin:miter;stroke-miterlimit:4;stroke-dasharray:none;stroke-opacity:1"
           d="m 1687.0823,881.3804 c 1.1023,9.27646 3.1427,18.48911 3.3067,27.82938 0.2752,15.66697 -7.9085,31.02409 -9.7236,46.54179 -2.1782,18.62256 0.014,39.32342 1.7516,57.91453 0.3644,3.897 7.0365,13.3336 5.8359,17.1487 -0.8377,2.6622 -8.5068,6.2889 -11.4752,8.2284"
           id="path4776" />
        <path
           style="fill:none;stroke:#000000;stroke-width:3.77953;stroke-linecap:butt;stroke-linejoin:miter;stroke-miterlimit:4;stroke-dasharray:none;stroke-opacity:1"
           d="m 1698.5576,916.02828 c -2.6574,3.0931 -5.3147,6.1862 -7.972,9.2793 -0.066,0.11678 -0.2681,0.46351 -0.1966,0.35033 2.2486,-3.55823 5.9395,-6.05913 8.1686,-9.62963 10.0541,-16.10476 8.116,-36.22784 13.9958,-53.53973 2.4055,-7.0823 7.249,-13.45982 8.3651,-21.00233 1.7954,-12.13396 2.9976,-32.18453 -0.7861,-43.73921 -6.951,-21.22691 -23.1577,-48.66952 -42.1841,-60.89652 -17.2882,-11.10996 -35.374,-11.57019 -54.4455,-17.31967 -3.4916,-1.05262 -7.4547,-0.52266 -11.0736,-1.05097 -1.2045,-0.17584 -1.5914,3.76153 -2.3412,2.80259 -2.7432,-3.50829 -4.2723,-7.81535 -6.4084,-11.72303"
           id="path4778" />
        <path
           style="fill:none;stroke:#000000;stroke-width:3.77953;stroke-linecap:butt;stroke-linejoin:miter;stroke-miterlimit:4;stroke-dasharray:none;stroke-opacity:1"
           d="m 1676.7777,1039.0432 c 24.6434,3.4638 43.4552,23.3948 67.4672,28.342 6.7968,1.4004 13.9145,0.9567 20.6093,2.9735 8.0776,2.4334 14.5947,4.8442 23.335,4.2039"
           id="path4788" />
        <path
           style="fill:none;stroke:#000000;stroke-width:3.77953;stroke-linecap:butt;stroke-linejoin:miter;stroke-miterlimit:4;stroke-dasharray:none;stroke-opacity:1"
           d="m 1768.7419,1090.481 c 30.7143,-8.7284 61.1692,-13.3872 92.5453,-7.3483 4.0837,0.786 10.2821,-0.5679 14.0044,1.2304 3.0722,1.4842 5.1147,6.139 7.7755,8.3907 4.1827,3.5396 10.0662,5.8179 13.2183,10.5012 5.284,7.8505 10.5012,41.8742 10.5012,52.4973 0,6.9788 -1.7917,14.0045 -1.1706,20.9938 0.8472,9.533 5.0583,18.1293 5.0583,28.0002 0,23.8341 -4.8821,46.6888 -8.7495,69.9879 -1.1498,6.9268 -0.2027,13.9209 -1.1706,20.8229"
           id="path4790" />
        <path
           style="fill:none;stroke:#000000;stroke-width:3.77953;stroke-linecap:butt;stroke-linejoin:miter;stroke-miterlimit:4;stroke-dasharray:none;stroke-opacity:1"
           d="m 1493.6267,1055.4913 c -10.2307,9.7191 -18.0949,23.5029 -29.9399,31.495 -3.8236,2.5799 -8.2391,3.0883 -12.4407,4.7251 -14.4851,5.6426 -35.4431,14.7832 -50.7457,17.67 -13.7358,2.5911 -26.5213,5.4114 -39.6635,10.3217 -3.3635,1.2567 -8.1812,-0.3035 -11.8597,0.7006 -12.4741,3.4051 -30.9642,10.1838 -40.6376,18.9004 -15.1827,13.6812 -19.9967,33.6547 -26.8297,52.1385 -5.4017,14.6123 -17.0562,28.2379 -20.0197,43.7477 -1.5555,8.141 1.6957,15.8701 1.3586,23.9758 -0.573,13.7765 -2.7712,26.3135 -1.5551,40.2445 0.7759,8.8881 5.6394,16.4642 5.6394,25.5395 -1.8551,18.0107 -10.917,34.3004 -14.97,51.6258 -1.6609,7.1001 -4.6308,13.205 -6.6134,20.1222 -1.5018,5.2398 -0.1668,10.8268 -1.3586,16.0978 -1.2284,5.4334 -4.8029,9.9371 -6.2204,15.3972 -1.9112,7.362 -0.6339,15.2394 -1.7516,22.7454 -0.8693,5.8381 -3.781,11.154 -4.6653,16.9693 -2.0279,13.3369 -2.4733,27.2884 -2.7257,40.7743 -0.1696,9.0674 -3.1681,17.6984 -2.9136,26.7699 0.3044,10.8537 3.3067,20.629 3.3067,31.6743 0,1.6919 0,-3.3836 0,-5.0754 -2.0173,13.3897 -1.721,27.6795 -4.8618,40.9452 -5.3374,22.5432 -16.0312,44.8799 -17.4991,68.2362 -0.8974,14.2779 2.824,27.9337 3.3067,41.9961 0.6953,20.2554 -1.3682,40.6956 0,60.8966 0.5379,7.9417 3.3545,15.5814 3.8877,23.446 0.5141,7.5819 -0.7903,15.1439 -0.581,22.7454 0.6116,22.2107 1.673,45.4777 3.6912,67.5442 0.8189,8.9526 5.1149,17.7861 6.998,26.5904 2.9699,13.8859 1.7516,28.2207 1.7516,42.1756"
           id="path4794" />
        <path
           style="fill:none;stroke:#000000;stroke-width:3.77953;stroke-linecap:butt;stroke-linejoin:miter;stroke-miterlimit:4;stroke-dasharray:none;stroke-opacity:1"
           d="m 1225.7145,1956.6266 c -14.7366,25.0043 -13.2901,53.0705 -17.1146,80.6599 -1.0211,7.3659 -2.8658,15.1032 -2.7172,22.5745 0.1054,5.2957 1.8395,10.3162 1.9396,15.5766 0.2505,13.1531 -1.4928,24.9075 3.3067,37.6213 3.3397,8.8467 10.9547,13.6303 16.3371,20.9938 6.9019,9.4423 14.969,19.8539 20.7973,29.9228 3.5154,6.0732 5.6679,11.9421 10.6977,17.1488 5.7849,5.9883 13.7233,9.7458 19.6352,15.7475 3.9723,4.0326 5.6553,8.7673 9.9116,12.5945 2.7404,2.4642 6.7282,3.0329 9.5271,5.4258 1.3753,1.1758 8.3892,11.7298 9.9201,10.1508 13.4264,-13.8485 -2.2418,-34.5435 -4.4687,-48.8232 -1.6229,-10.4061 1.4824,-20.7344 -0.1966,-31.3155 -1.8228,-11.488 -1.7941,-22.9216 -3.5032,-34.2975 -0.4124,-2.7453 -5.2717,-15.2207 -4.4688,-12.4237 2.1745,7.5748 7.3042,14.4746 10.6892,21.5235 11.3736,23.6847 6.5855,14.3295 28.0002,22.0448 4.1653,1.5007 13.3141,11.9197 17.1061,5.947 10.0762,-15.871 -7.3585,-30.1372 -11.2702,-44.269 -7.1331,-25.7701 6.5869,-55.6344 -6.2204,-77.8659 -4.6669,-8.1011 -15.726,-11.1209 -22.5574,-16.7984 -11.8973,-9.8876 -40.55,-45.2558 -36.7498,-61.7681 2.8273,-12.2848 8.4483,-23.8426 10.8942,-36.22 3.0991,-15.6827 4.6612,-31.5981 7.972,-47.2425 4.822,-22.785 3.9161,-47.4445 10.8857,-69.8169 5.2494,-16.8508 10.7334,-33.6509 15.944,-50.5663 2.429,-7.8855 6.4362,-15.1778 7.5789,-23.446 1.9624,-14.1984 4.0533,-28.8758 4.4773,-43.218 0.2857,-9.662 -1.484,-18.0234 -2.3411,-27.4705 -1.8241,-20.1052 1.0183,-41.1371 4.2807,-60.8966 3.0908,-18.7193 10.711,-36.0301 16.9181,-53.7191 2.0187,-5.7529 1.8442,-11.854 3.4947,-17.67 5.0166,-17.6775 11.406,-35.1407 15.944,-53.0185 3.2231,-12.6976 -0.2446,-25.9177 1.5551,-38.6723 2.6159,-18.5386 10.1139,-36.8753 11.0822,-55.8211 0.7418,-14.5133 -2.9539,-28.6306 -4.6653,-42.8677 -2.5645,-21.3339 -5.1412,-43.2594 -10.8857,-64.0409"
           id="path4796" />
        <path
           style="fill:none;stroke:#000000;stroke-width:3.77953;stroke-linecap:butt;stroke-linejoin:miter;stroke-miterlimit:4;stroke-dasharray:none;stroke-opacity:1"
           d="m 1278.5963,1559.2483 c -0.065,4.9587 -0.5606,9.9303 -0.1965,14.876 0.1435,1.9505 4.279,18.368 4.4773,19.4216 2.381,12.6522 1.9845,25.5158 1.5551,38.322 -0.091,2.7077 1.5072,15.311 0,12.5946"
           id="path4798" />
        <path
           style="fill:none;stroke:#000000;stroke-width:3.77953;stroke-linecap:butt;stroke-linejoin:miter;stroke-miterlimit:4;stroke-dasharray:none;stroke-opacity:1"
           d="m 1379.1136,1423.6389 c 14.8664,14.6577 13.9577,30.5661 16.525,49.1735 1.1092,8.0389 3.8072,15.4352 4.4773,23.6169 0.4594,5.6093 -0.495,11.9456 0.3845,17.4991 2.4114,15.2269 4.9583,32.7096 9.5271,47.4219 5.3685,17.2872 10.9329,34.9768 8.553,53.3688 -3.9145,30.2517 -20.9876,55.0687 -30.1364,83.6419 -13.5961,42.4632 -21.0144,86.9036 -27.9917,130.8759 -2.2226,14.0073 -1.4417,28.6651 -3.8877,42.5259 -1.2512,7.0902 -3.8257,13.9225 -4.2808,21.1732 -0.5955,9.4888 3.4806,17.803 4.0843,27.1202 0.8196,12.6506 -2.7052,27.7171 0.974,39.7147"
           id="path4800" />
        <path
           style="fill:none;stroke:#000000;stroke-width:3.77953;stroke-linecap:butt;stroke-linejoin:miter;stroke-miterlimit:4;stroke-dasharray:none;stroke-opacity:1"
           d="m 1515.2101,1084.8843 c 11.706,0.7506 22.9148,3.6973 34.6137,4.0245"
           id="path4802" />
        <path
           style="fill:none;stroke:#000000;stroke-width:3.77953;stroke-linecap:butt;stroke-linejoin:miter;stroke-miterlimit:4;stroke-dasharray:none;stroke-opacity:1"
           d="m 1639.0623,1086.8068 c 15.3408,12.1762 21.3453,15.3181 37.9119,7.878"
           id="path4804" />
        <path
           style="fill:none;stroke:#000000;stroke-width:3.77953;stroke-linecap:butt;stroke-linejoin:miter;stroke-miterlimit:4;stroke-dasharray:none;stroke-opacity:1"
           d="m 1768.7419,1090.481 c -0.5839,2.683 -4.4345,7.465 -1.7516,8.0489 2.683,0.5838 -0.9179,-7.4064 1.7516,-8.0489 5.3646,-1.2911 21.4964,5.0013 16.1406,3.6741 -5.3559,-1.3272 -10.7604,-2.4494 -16.1406,-3.6741"
           id="path4806" />
        <path
           style="fill:none;stroke:#000000;stroke-width:3.77953;stroke-linecap:butt;stroke-linejoin:miter;stroke-miterlimit:4;stroke-dasharray:none;stroke-opacity:1"
           d="m 1929.532,1189.6995 c -3.0447,-4.3178 -6.3129,-8.4864 -9.134,-12.9534 -1.5055,-2.3838 -1.3758,-9.5486 -3.5033,-7.6986 -0.6118,0.532 1.1371,15.5972 4.0843,18.1997 2.2231,1.9632 8.2689,-0.4999 8.553,2.4523 0.5478,5.6915 -5.1545,10.2719 -6.8014,15.7475 -1.3113,4.3598 -0.3537,9.0989 -0.5896,13.6455 -0.6278,12.1039 1.6635,24.9381 2.7257,37.0916 0.3599,4.1173 3.0822,8.3721 2.9137,12.4237 -0.2328,5.598 -3.2233,10.3032 -4.0843,15.7475 -0.8193,5.1808 -0.188,10.8497 -0.188,16.0978"
           id="path4808" />
        <path
           style="fill:none;stroke:#000000;stroke-width:3.77953;stroke-linecap:butt;stroke-linejoin:miter;stroke-miterlimit:4;stroke-dasharray:none;stroke-opacity:1"
           d="m 1839.9004,1226.4408 c -2.139,6.1235 -4.6608,12.1265 -6.4169,18.3706 -5.7452,20.4274 -7.5659,42.4829 -12.4408,63.1694 -6.5211,27.6726 -20.2634,53.2811 -29.1623,80.1386 -4.4779,13.5148 -7.458,27.5376 -12.2528,40.9452 -3.7415,10.4624 -9.0052,20.5235 -12.2442,31.1446 -1.9294,6.3266 -2.5357,12.8879 -5.0584,19.0713 -6.2034,15.2052 -24.5012,53.0156 -22.5489,69.4667 2.1686,18.2728 8.2268,33.112 14.97,49.8741 3.1233,7.7639 4.5448,15.9865 8.16,23.617 4.4642,9.4225 11.0023,18.2877 14.9784,27.8208 3.4119,8.1802 3.7975,18.0532 6.2204,26.599 3.2567,11.4864 6.7982,22.678 10.6892,33.9472 1.7482,5.0634 0.9245,11.0562 1.7516,16.2687 0.84,5.2939 3.2746,9.2622 5.0583,14.1753 4.4918,12.3721 4.978,27.3765 7.972,40.2445 11.8305,50.8463 -3.4805,105.1812 16.3285,154.1595"
           id="path4810" />
        <path
           style="fill:none;stroke:#000000;stroke-width:3.77953;stroke-linecap:butt;stroke-linejoin:miter;stroke-miterlimit:4;stroke-dasharray:none;stroke-opacity:1"
           d="m 1813.6517,1376.3964 c -1.2304,3.1501 -3.5473,6.0714 -3.6912,9.4502 -0.015,0.3476 9.3128,16.0639 10.5012,19.7719 7.3645,22.9791 11.8489,46.5291 18.2766,69.6376 2.0284,7.2922 5.1905,13.7627 5.0498,21.5235 -0.1493,8.2374 -3.8382,16.0667 -3.1102,24.4971 0.8861,10.2607 10.5494,54.5798 17.8922,62.2978"
           id="path4812" />
        <path
           style="fill:none;stroke:#000000;stroke-width:3.77953;stroke-linecap:butt;stroke-linejoin:miter;stroke-miterlimit:4;stroke-dasharray:none;stroke-opacity:1"
           d="m 1872.3694,1563.9734 c -4.2066,12.7458 -14.7845,20.4174 -18.4646,33.5969 -7.6173,27.2794 1.2252,48.2081 4.0757,74.1918 0.9899,9.0234 -0.097,18.3818 0.7776,27.4705 1.5534,16.1396 6.4191,32.1138 7.3909,48.2934 0.4004,6.6659 -0.2129,13.3225 0.7776,19.9514 1.2363,8.2739 5.6378,15.5421 8.1685,23.446 3.3035,10.3172 5.7875,22.5131 7.7755,33.2466 4.3176,23.3119 1.6548,47.4899 2.3326,71.0388 0.5729,19.9008 7.6568,43.6322 1.1706,63.3403 -2.1723,6.6005 -8.2032,13.7072 -12.0562,19.601 -3.7642,5.758 -4.2033,12.416 -7.972,17.4906 -6.9775,9.395 -9.1169,35.5093 -7.972,46.2 0.5731,5.3521 4.2647,9.951 4.4687,15.3971 0.2211,5.9007 -0.8025,12.4537 -1.162,18.3707 -0.2057,3.3854 -10.4579,38.4343 -8.7496,39.1935 8.817,3.9187 13.9325,-30.213 25.8556,-32.3665 16.3665,-2.9561 25.4969,44.932 20.2248,22.3951"
           id="path4814" />
        <path
           style="fill:none;stroke:#000000;stroke-width:3.77953;stroke-linecap:butt;stroke-linejoin:miter;stroke-miterlimit:4;stroke-dasharray:none;stroke-opacity:1"
           d="m 2031.4079,1532.299 c -8.3269,0.6952 -14.3464,0.9255 -21.1904,-3.3238"
           id="path4816" />
        <path
           style="fill:none;stroke:#000000;stroke-width:3.77953;stroke-linecap:butt;stroke-linejoin:miter;stroke-miterlimit:4;stroke-dasharray:none;stroke-opacity:1"
           d="m 1929.3355,1275.956 c 0.2592,-4.9558 0.5183,-9.9116 0.7775,-14.8674"
           id="path4818" />
        <path
           style="fill:none;stroke:#000000;stroke-width:3.77953;stroke-linecap:butt;stroke-linejoin:miter;stroke-miterlimit:4;stroke-dasharray:none;stroke-opacity:1"
           d="m 1929.925,1235.5406 c 3.4666,10.3702 -0.886,21.316 -0.1965,31.6744 0.4286,6.4379 5.4028,11.6077 4.2723,18.3707 -0.5117,3.0609 -3.0166,5.3943 -3.4947,8.3992 -1.4888,9.3562 -4.1979,23.7005 -2.5292,33.2466 1.4822,8.4791 2.3705,18.5213 5.4428,26.5904 2.1748,5.7117 5.6766,10.8829 7.391,16.7984 1.8106,6.2474 2.381,13.2416 4.8618,19.2508 4.2686,10.3398 11.6642,19.7662 13.7994,30.9737 1.2264,6.4379 1.2314,13.0796 2.9222,19.4216 2.8377,10.6442 7.5414,19.0936 8.16,30.2731 1.241,22.4309 -3.452,45.7902 -0.188,68.0654 1.3878,9.471 6.0111,18.5273 7.5789,27.8208 3.2009,18.9733 6.8438,36.9761 7.1945,56.3423 0.329,18.1678 -6.6559,35.25 -8.1685,53.1894 -1.7416,20.6545 -0.8731,41.6077 -2.3327,62.2978 -1.1733,16.6324 -3.8105,33.7952 -5.8359,50.3868 -4.1942,34.3592 -15.5712,67.9276 -18.0801,102.3629 -1.3734,18.8512 5.1588,38.102 7.0065,56.6927 1.3347,13.4288 0.3845,27.2042 0.3845,40.5948 10.9615,24.8342 -2.4994,48.3676 -1.9481,73.8927 0.2051,9.4981 -0.5758,20.6296 1.1705,29.9228 0.8967,4.7715 3.6279,7.8406 3.5033,12.9449 -0.5088,20.8377 -10.7622,40.2511 -21.3869,57.3932 -2.5938,4.185 -8.4774,20.3712 -13.4148,21.8739 -7.8076,2.3763 -8.7698,-8.6397 -10.3046,-13.4746 -8.742,-27.5389 -3.8996,-55.1675 -19.4473,-79.9678 -8.4235,-13.4367 -28.3556,-26.7076 -37.7153,-5.5967 -2.5646,5.7844 -2.3535,12.1026 -5.6394,17.4991 -0.611,1.0036 -5.5785,6.5781 -5.8359,5.4258 -4.0206,-18.0057 4.2117,-29.1624 12.4408,-43.5683 3.6916,-6.4626 4.8336,-13.8028 8.1685,-20.3017 1.528,-2.9776 4.3824,-5.2306 5.8359,-8.2198 3.2166,-6.6152 -0.992,-19.3082 -0.393,-26.2487 0.6502,-7.5343 2.2852,-15.5533 4.2808,-22.7454"
           id="path4820" />
        <path
           style="fill:none;stroke:#000000;stroke-width:3.77953;stroke-linecap:butt;stroke-linejoin:miter;stroke-miterlimit:4;stroke-dasharray:none;stroke-opacity:1"
           d="m 1909.3158,2051.6839 c -3.8906,2.9763 -8.117,5.5587 -11.6718,8.929 -2.5847,2.4505 -4.3442,5.647 -6.6049,8.3992 -24.0428,29.2703 48.0409,-56.6829 5.4428,-0.3503 -7.437,9.8349 -4.1254,5.6165 -10.3046,13.2952"
           id="path4822" />
        <path
           style="fill:none;stroke:#000000;stroke-width:3.77953;stroke-linecap:butt;stroke-linejoin:miter;stroke-miterlimit:4;stroke-dasharray:none;stroke-opacity:1"
           d="m 1906.009,1762.6241 c -10.6943,15.6392 -0.3533,42.7552 -8.7495,60.3668"
           id="path4824" />
        <path
           style="fill:none;stroke:#000000;stroke-width:3.77953;stroke-linecap:butt;stroke-linejoin:miter;stroke-miterlimit:4;stroke-dasharray:none;stroke-opacity:1"
           d="m 1903.4799,1791.6668 c -4.6944,3.101 -3.0026,64.8569 -6.2204,31.3241"
           id="path4826" />
        <path
           style="fill:none;stroke:#000000;stroke-width:3.77953;stroke-linecap:butt;stroke-linejoin:miter;stroke-miterlimit:4;stroke-dasharray:none;stroke-opacity:1"
           d="m 1963.3596,1535.6741 c 1.9453,-3.7909 3.8906,-7.5818 5.8359,-11.3727 -0.5839,-0.3503 -1.4408,-1.6568 -1.7516,-1.051 -1.9902,3.8785 -2.4084,8.3995 -4.0843,12.4237 -6.0904,14.6246 -12.5274,24.2762 -22.5489,35.8697 -7.5652,8.7519 -0.9983,2.0082 -7.972,8.929 -0.8045,0.7984 -3.0821,3.2623 -2.5291,2.2729 7.5889,-13.5803 16.9727,-24.8439 22.5574,-39.7233 0.7213,-1.9219 0.4546,-4.5985 2.1361,-5.7761 2.3217,-1.6259 8.7956,-4.3723 8.3565,-1.5722 -1.4924,9.5174 -32.469,36.6867 -32.469,39.1935 0,0.6526 0.9001,-0.9454 1.3671,-1.4012 6.3003,-6.1502 12.0034,-11.9716 15.3544,-20.2932 0.9476,-2.353 1.2881,-9.3897 2.5292,-7.1774 4.5571,8.1236 -12.2491,23.0145 -16.1405,27.65"
           id="path4828" />
        <path
           style="fill:none;stroke:#000000;stroke-width:3.77953;stroke-linecap:butt;stroke-linejoin:miter;stroke-miterlimit:4;stroke-dasharray:none;stroke-opacity:1"
           d="m 1928.5579,1339.8773 c -2.1869,7.6307 -1.2113,15.3873 -2.5206,23.0957 -0.3154,1.8573 -2.6699,5.5967 -0.7861,5.5967 0.4629,0 6.7962,-16.0585 6.6134,-14.8674 -0.3029,1.9739 -5.2891,25.0182 -4.6652,25.0182 0.4673,0 2.5131,-4.0948 3.6912,-4.5542 0.027,-0.011 -1.5019,15.6169 3.1102,15.0554 7.1,-0.8645 12.9719,-13.4442 11.8597,-8.0489 -1.4119,6.8491 -4.5762,14.7184 -7.9634,20.8229"
           id="path4830" />
        <path
           style="fill:none;stroke:#000000;stroke-width:3.77953;stroke-linecap:butt;stroke-linejoin:miter;stroke-miterlimit:4;stroke-dasharray:none;stroke-opacity:1"
           d="m 1536.2124,1913.981 c 25.0921,10.7311 57.0877,73.0913 87.1025,62.4602 18.7787,-6.6513 28.7401,-30.9298 32.2725,-48.8146 0.1971,-0.9982 5.9298,-30.4882 5.0583,-19.9514"
           id="path4832" />
        <path
           style="fill:none;stroke:#000000;stroke-width:3.77953;stroke-linecap:butt;stroke-linejoin:miter;stroke-miterlimit:4;stroke-dasharray:none;stroke-opacity:1"
           d="m 1363.7506,1933.753 c 2.5926,6.7521 0.444,13.9481 1.1706,20.8229 1.0044,9.5037 4.1668,18.777 4.4687,28.342 0.6816,21.5927 -3.8409,43.9577 -4.8532,65.6216 -0.4089,8.7496 1.9639,17.3339 2.1361,26.0693 0.3359,17.0415 -0.7256,34.2626 -1.7516,51.2669 -0.9088,15.062 -5.9585,29.7897 -7.391,44.9696 -2.5992,27.5426 0.1614,55.6799 1.9481,83.1121 0.8837,13.5673 7.9395,27.8644 11.0822,41.1246 8.6003,36.2872 16.06,73.8623 16.9181,111.2834 0.5371,23.4223 0.407,47.44 -3.6997,70.5176 -3.121,17.5382 -11.2248,35.6632 -8.5531,53.89"
           id="path4834" />
        <path
           style="fill:none;stroke:#000000;stroke-width:3.77953;stroke-linecap:butt;stroke-linejoin:miter;stroke-miterlimit:4;stroke-dasharray:none;stroke-opacity:1"
           d="m 1520.4649,2543.547 c -5.9608,-22.1296 2.6025,-36.7769 6.8014,-57.5642 1.1886,-5.884 0.9819,-11.8523 1.9482,-17.6785 4.198,-25.3113 11.7065,-50.9629 13.7993,-76.8149 0.8593,-10.6146 -4.0792,-20.3942 -4.4687,-30.7943 -0.7446,-19.8761 1.1807,-40.0539 2.9136,-59.837 1.6225,-18.5225 7.6381,-34.8648 11.4753,-52.8476 1.6155,-7.5713 1.2282,-15.6157 2.5206,-23.2752 2.0728,-12.2852 5.8015,-24.6265 6.6134,-37.0916 0.721,-11.0686 -0.08,-22.4121 1.1706,-33.4175 0.7669,-6.7475 3.7913,-13.0304 4.6653,-19.7804 5.324,-41.1184 0.3849,-82.3493 7.1944,-123.3567 1.0641,-6.408 0.4833,-21.1186 5.2464,-25.7189 2.7964,-2.7009 6.2203,-4.6653 9.3305,-6.9979 19.8203,4.69 32.3088,9.9289 34.4172,33.4174 3.2001,35.6505 6.4382,72.127 3.3067,108.139 -3.7596,43.2359 -7.3632,79.1858 -6.4169,123.0064 0.2387,11.0512 -0.94,21.9476 0.9655,32.8962 2.4616,14.1429 6.9647,28.8419 13.4234,41.6458 1.9016,3.7696 4.6093,6.6109 6.0239,10.6721 9.2011,26.4151 15.4018,53.8627 24.3005,80.3181 4.6677,13.8771 12.7255,26.8697 15.7475,41.2955 2.7393,13.0764 2.159,26.3987 4.0842,39.5438 1.7854,12.19 6.2499,23.3541 7.1945,35.8698"
           id="path4836" />
        <path
           style="fill:none;stroke:#000000;stroke-width:3.77953;stroke-linecap:butt;stroke-linejoin:miter;stroke-miterlimit:4;stroke-dasharray:none;stroke-opacity:1"
           d="m 1842.8226,1957.199 c -1.6861,-4.4346 -3.3722,-8.8691 -5.0583,-13.3037 -0.076,0.038 -0.9563,-0.064 -0.9741,0 -1.8054,6.4365 6.0935,5.6207 6.0324,13.3037 -0.041,5.1321 -4.6016,9.1954 -6.4169,13.9959 -3.6371,9.6182 2.9814,22.7699 1.9396,32.7254 -0.8291,7.9223 -3.3461,15.6198 -3.8877,23.6169 -2.0883,30.8331 0.3481,62.0538 -2.3327,92.9127 -1.4037,16.1582 -14.7236,37.3411 -17.8836,55.1205 -3.7594,21.1518 -3.4042,42.6026 -6.6134,63.6905 -4.6944,30.8466 -11.8837,61.2696 -12.8338,92.5624 -0.7238,23.8356 4.8143,48.2564 0,72.0898 -1.2327,6.1024 -4.1834,11.8661 -5.4429,18.0289 -2.4455,11.9661 -1.4435,24.5026 -4.0842,36.3909 -1.8557,8.354 -6.5742,16.5045 -7.3825,25.0268 -0.604,6.3687 0.5811,12.863 0.5811,19.2422"
           id="path4838" />
        <path
           style="fill:none;stroke:#000000;stroke-width:3.77953;stroke-linecap:butt;stroke-linejoin:miter;stroke-miterlimit:4;stroke-dasharray:none;stroke-opacity:1"
           d="m 1682.9981,2475.4817 c 3.2115,22.1012 0.7391,45.6929 8.365,67.0143 4.1301,11.5474 11.0924,21.1507 12.0563,33.597"
           id="path4840" />
        <path
           style="fill:none;stroke:#000000;stroke-width:3.77953;stroke-linecap:butt;stroke-linejoin:miter;stroke-miterlimit:4;stroke-dasharray:none;stroke-opacity:1"
           d="m 1666.8661,2216.3361 c 3.0937,14.0193 -14.061,40.7337 -7.1945,51.4463 4.032,6.2904 13.9769,-17.7238 12.2443,-11.3727 -2.8674,10.5104 -4.9196,20.7036 -6.6049,31.495 -0.5144,3.2939 -3.3762,12.0599 -0.7776,9.9714 4.7693,-3.833 7.0026,-12.0807 9.9116,-17.3197 0.2762,-0.4973 1.0231,-1.968 0.9741,-1.4013 -0.6652,7.6928 -16.346,32.3859 -6.4169,37.271"
           id="path4842" />
        <path
           style="fill:none;stroke:#000000;stroke-width:3.77953;stroke-linecap:butt;stroke-linejoin:miter;stroke-miterlimit:4;stroke-dasharray:none;stroke-opacity:1"
           d="m 1669.0022,2316.4261 c 17.7135,10.6255 11.7183,2.3303 6.9979,29.2222 -0.5043,2.8732 -2.9093,15.2842 -2.1361,19.0713 0.9029,4.422 9.5271,-14.1345 9.5271,-9.6211 0,11.9126 -14.2854,28.1577 -8.365,39.8942 1.6386,3.2485 14.7186,-10.8055 16.918,-11.2019 0.6896,-0.1242 0.1329,1.4141 0,2.102 -0.8821,4.5655 -8.7115,23.6064 -4.4687,26.599 2.3711,1.6724 10.0933,-11.746 10.6891,-12.6032 1.0471,-1.5063 -6.3554,12.8071 -2.3326,18.3792 2.661,3.6859 7.6459,-4.9249 10.1081,-4.3747 2.1719,0.4853 -2.2284,19.4133 -2.5206,20.9937 -0.1096,0.5925 6.9539,-5.8752 8.553,-5.5966 3.8697,0.6742 4.04,4.8974 4.0843,7.6986 0.1442,9.1254 -3.8538,17.6394 -4.2808,26.7698 -0.2137,4.5698 18.5049,-11.4651 19.6352,-11.5521"
           id="path4844" />
        <path
           style="fill:none;stroke:#000000;stroke-width:3.77953;stroke-linecap:butt;stroke-linejoin:miter;stroke-miterlimit:4;stroke-dasharray:none;stroke-opacity:1"
           d="m 1777.8845,2345.4774 c 0.1937,7.8153 -0.4943,15.7026 0.5811,23.446 0.1255,0.9043 1.8926,-1.7054 2.5291,-1.0509 3.1775,3.2673 -3.4858,23.7336 -2.9222,28.8718 0.4158,3.791 7.2104,3.1856 7.972,8.9204 1.3049,9.8249 -1.5933,18.4468 -2.9137,28.0003 -0.2816,2.0377 3.155,-1.9616 3.5033,-1.7516 3.5394,2.134 -2.4101,7.908 -3.5033,11.8939 -2.9322,10.6921 -3.0896,5.9193 2.3327,7.0065 0.4164,0.084 -1.351,6.0312 -4.8618,19.0712"
           id="path4846" />
        <path
           style="fill:none;stroke:#000000;stroke-width:3.77953;stroke-linecap:butt;stroke-linejoin:miter;stroke-miterlimit:4;stroke-dasharray:none;stroke-opacity:1"
           d="m 1380.4721,2228.2385 c 0.5184,7.5249 0.829,15.0669 1.5551,22.5746 2.698,27.8948 7.6274,8.8157 10.5012,22.3951 2.0202,9.5459 0.2836,20.5228 3.6912,29.7433 0.6538,1.7691 5.6042,-4.2481 6.6134,-0.5212 1.1976,4.4222 0.8264,18.4109 6.6135,19.7719 2.9006,0.6822 8.16,-8.1011 8.16,-8.0489 0,9.0327 -5.6383,22.2579 0.393,30.0937 3.4789,4.5197 10.6544,-0.9085 12.2528,6.2973 2.4848,11.2014 -0.8085,22.903 1.9396,34.2975 1.8504,7.6723 11.6465,6.648 12.2528,14.6965 0.8368,11.1083 -4.6618,22.3371 -5.2549,33.426 -0.2742,5.1264 8.6475,-13.6023 13.4149,-1.2304"
           id="path4848" />
        <path
           style="fill:none;stroke:#000000;stroke-width:3.77953;stroke-linecap:butt;stroke-linejoin:miter;stroke-miterlimit:4;stroke-dasharray:none;stroke-opacity:1"
           d="m 1521.2425,2361.2249 c -3.7967,37.7335 -0.7585,19.5565 -8.7496,54.5907"
           id="path4850" />
        <path
           style="fill:none;stroke:#000000;stroke-width:3.77953;stroke-linecap:butt;stroke-linejoin:miter;stroke-miterlimit:4;stroke-dasharray:none;stroke-opacity:1"
           d="m 1412.5567,2462.007 c -3.8251,0.7007 -8.3196,-0.1704 -11.4753,2.102 -1.9771,1.4237 -7.3436,67.9253 -6.8014,75.7639"
           id="path4852" />
        <path
           style="fill:none;stroke:#000000;stroke-width:3.77953;stroke-linecap:butt;stroke-linejoin:miter;stroke-miterlimit:4;stroke-dasharray:none;stroke-opacity:1"
           d="m 1412.5567,2462.007 c -4.7451,4.336 -29.9127,65.3225 -25.4711,73.8414 1.2703,2.4366 4.7963,2.683 7.1944,4.0245"
           id="path4854" />
        <path
           style="fill:none;stroke:#000000;stroke-width:3.77953;stroke-linecap:butt;stroke-linejoin:miter;stroke-miterlimit:4;stroke-dasharray:none;stroke-opacity:1"
           d="m 1816.9585,2466.9543 c 7.06,28.0917 3.43,57.4876 6.4169,85.9148 2.8433,27.0613 5.4461,52.9601 1.3585,80.1386 -2.7897,18.5496 -11.6836,35.5744 -14.7734,54.249 -3.7063,22.401 -6.7061,44.9089 -10.1081,67.3647 -1.3742,9.0704 -0.5426,18.7093 -2.5292,27.6414 -2.0772,9.3394 -6.044,17.9729 -8.1685,27.2996 -6.6368,29.1365 -11.6049,58.6293 -17.6871,87.8373 -10.5274,50.5545 -22.1136,102.4016 -18.6697,154.5098 0.5816,8.7999 3.437,17.3347 4.2808,26.0692 0.6509,6.7376 -2.0169,12.8121 -1.7516,19.4216 0.828,20.6273 4.9413,38.56 9.9201,58.4443 4.7196,18.8484 -14.9688,31.4466 -7.784,49.6947"
           id="path4856" />
        <path
           style="fill:none;stroke:#000000;stroke-width:3.77953;stroke-linecap:butt;stroke-linejoin:miter;stroke-miterlimit:4;stroke-dasharray:none;stroke-opacity:1"
           d="m 1681.443,3171.7715 c 0,-10.6303 -0.7957,-10.0991 0.7775,-17.3282 1.5014,-6.8989 4.6735,-13.2109 5.8359,-20.2931 4.1938,-25.5516 1.9772,-55.7982 0.1965,-81.54 -1.3801,-19.9512 -1.0173,-40.042 -2.7257,-60.0165 -1.0627,-12.4263 -4.3661,-24.5727 -4.6653,-37.1001 -0.119,-4.986 1.8576,-10.2683 2.5292,-15.2263 1.6393,-12.1019 2.2605,-25.4009 2.9137,-37.6128 0.8351,-15.6134 -0.8357,-31.2997 -0.3845,-46.9007 0.5757,-19.9062 2.1319,-39.3189 0.7775,-59.3157 -1.0545,-15.5698 -8.3322,-30.3373 -10.3046,-45.6703 -2.7339,-21.2528 1.746,-42.6653 0.188,-63.6906 -0.8969,-12.1028 -3.1843,-24.931 -6.4084,-36.5704 -2.5074,-9.0519 1.8592,-56.3494 2.7171,-66.664 0.8159,-9.8078 9.4559,-20.1856 12.4408,-29.5725 2.8128,-8.8455 5.4005,-22.7068 7.391,-29.0939"
           id="path4858" />
        <path
           style="fill:none;stroke:#000000;stroke-width:3.77953;stroke-linecap:butt;stroke-linejoin:miter;stroke-miterlimit:4;stroke-dasharray:none;stroke-opacity:1"
           d="m 1703.4194,2576.093 c -16.5563,22.4761 4.087,48.4311 -6.81,72.141"
           id="path4860" />
        <path
           style="fill:none;stroke:#000000;stroke-width:3.77953;stroke-linecap:butt;stroke-linejoin:miter;stroke-miterlimit:4;stroke-dasharray:none;stroke-opacity:1"
           d="m 1806.0728,2498.979 c -0.3737,31.8024 -7.3995,63.1058 -9.7236,94.8352"
           id="path4862" />
        <path
           style="fill:none;stroke:#000000;stroke-width:3.77953;stroke-linecap:butt;stroke-linejoin:miter;stroke-miterlimit:4;stroke-dasharray:none;stroke-opacity:1"
           d="m 1803.9367,2615.1583 c -3.5004,10.8487 -7.0008,21.6973 -10.5012,32.546"
           id="path4864" />
        <path
           style="fill:none;stroke:#000000;stroke-width:3.77953;stroke-linecap:butt;stroke-linejoin:miter;stroke-miterlimit:4;stroke-dasharray:none;stroke-opacity:1"
           d="m 1412.5567,2462.007 c -8.8806,2.757 -18.1775,4.4211 -26.6417,8.2711 -2.6898,1.2234 -1.8039,5.6791 -3.2982,8.2283 -8.6057,14.6815 -14.4592,31.7866 -12.8338,49.3444 0.7574,8.1815 -0.9921,16.2902 -0.7776,24.497 0.3085,11.8002 1.6275,24.099 2.7172,35.8698 1.2354,13.345 5.677,25.6332 8.1685,38.6723 3.7771,19.7673 3.3919,40.3804 6.9979,60.1873 2.1406,11.7573 6.4792,23.0415 8.5531,34.8188 4.7925,27.2159 7.7426,55.1099 12.0562,82.2406 1.167,7.3398 5.4481,14.0749 6.4169,21.703 3.5469,27.9271 -0.6167,57.1703 2.7257,85.2141 1.6258,13.6404 6.9236,26.5511 8.16,40.2445 0.8389,9.2915 -0.5637,18.6751 0.1965,27.9918 0.4738,5.8064 3.0514,11.3545 3.5033,17.1487 0.949,12.1711 0.5226,24.2759 2.3326,36.3995 2.2987,15.3967 3.9156,32.4562 8.16,47.4134 1.4794,5.2133 4.8158,9.6851 6.2289,14.8759 3.3181,12.1882 6.6031,24.5394 9.9116,36.7413 3.966,14.6267 -0.8109,30.558 1.5551,45.3199 1.4909,9.3016 5.4372,17.5394 6.6134,26.9493"
           id="path4866" />
        <path
           style="fill:none;stroke:#000000;stroke-width:3.77953;stroke-linecap:butt;stroke-linejoin:miter;stroke-miterlimit:4;stroke-dasharray:none;stroke-opacity:1"
           d="m 1533.2902,2518.2212 c -4.2539,10.2859 -4.2792,21.6862 -3.2982,32.7253 1.2058,13.568 4.0407,27.094 6.4084,40.4154 2.9604,16.6562 2.7257,39.3091 2.7257,56.3424 0,7.8316 -1.7377,15.4767 -2.1361,23.2751 -1.0291,20.1416 -0.3621,40.4221 -1.5551,60.5462 -0.9567,16.1368 -3.407,32.2956 -3.6998,48.4643 -0.4662,25.7405 1.7462,52.503 -0.7775,78.0453 -1.4918,15.0975 -3.9556,29.8888 -3.2982,45.1405 0.7962,18.472 7.754,36.1882 8.3565,54.4198 0.5764,17.4425 1.7078,35.21 1.1706,52.6682 -0.7645,24.8445 -5.4713,50.3712 -4.4773,75.2427 0.3544,8.8675 2.7257,17.4591 2.7257,26.4196 0,17.382 14.9115,48.4715 19.0542,66.8434 1.4873,6.5959 -4.5149,16.0637 -5.6394,22.566 -2.3379,13.5191 -5.0583,27.3353 -5.0583,41.1246 0,6.582 2.6156,12.1499 4.8618,18.1998 5.2235,14.0691 5.8359,30.7414 5.8359,45.4908 0,0.8415 0.6051,18.8159 -1.9482,17.4991 -11.7477,-6.0586 -23.5769,-15.1296 -38.4929,-12.9535 -4.9933,0.7285 -7.6549,5.6945 -12.2528,6.1264 -7.6794,0.7214 -15.019,-0.7767 -22.7454,0.7007 -11.8181,2.2597 -22.1325,8.7213 -34.2206,10.5012 -7.9934,1.1769 -15.4686,-1.4013 -23.3265,-1.4013 -3.6294,0 -8.1703,3.6733 -12.0562,1.9225 -3.6943,-1.6645 -3.3969,-13.7113 -3.8878,-16.9694 -1.2638,-8.3887 -4.0983,-15.4702 0.9656,-22.9248 12.0584,-17.7517 30.1926,-21.0303 33.4431,-45.1405 2.2741,-16.8683 5.4924,-32.3542 4.4773,-49.5238 -0.4607,-7.7916 -13.4138,-19.2175 -7.391,-25.548"
           id="path4868" />
        <path
           style="fill:none;stroke:#000000;stroke-width:3.77953;stroke-linecap:butt;stroke-linejoin:miter;stroke-miterlimit:4;stroke-dasharray:none;stroke-opacity:1"
           d="m 1770.297,3148.6672 c -2.9702,12.5081 -9.965,23.5524 -11.6632,36.3995 -3.4571,26.1539 15.5232,76.571 24.6936,102.1835 2.9194,8.1537 6.945,16.5858 9.3305,24.8473 2.1492,7.443 4.2581,20.8654 5.4429,18.1998 0.054,-0.1206 -10.936,1.3345 -11.4667,1.4013 -9.5716,1.2038 -19.3955,-0.5429 -28.9744,-1.051 -11.0512,-0.5861 -21.1599,-6.0454 -32.469,-5.0754 -18.4666,1.5839 -54.6249,5.4034 -70.7739,-4.7251 -5.5557,-3.4845 -2.4029,-17.351 -1.5551,-23.2666 1.2491,-8.7165 8.46,-25.2564 11.8597,-34.6479 2.6796,-7.4023 8.0628,-13.05 9.7236,-21.0023 3.1336,-15.0047 -3.4108,-30.6535 -1.162,-45.6618"
           id="path4870" />
        <path
           style="fill:none;stroke:#000000;stroke-width:3.77953;stroke-linecap:butt;stroke-linejoin:miter;stroke-miterlimit:4;stroke-dasharray:none;stroke-opacity:1"
           d="m 1733.7437,3086.0276 c -1.4674,28.2728 -12.1834,83.3708 4.6653,107.6092 4.2744,6.1491 12.7077,7.9272 19.0542,11.9025"
           id="path4872" />
        <path
           style="fill:none;stroke:#000000;stroke-width:3.77953;stroke-linecap:butt;stroke-linejoin:miter;stroke-miterlimit:4;stroke-dasharray:none;stroke-opacity:1"
           d="m 1524.5406,3072.3821 c 0.5626,15.7234 -1.0949,31.5727 0.9741,47.2424 0.8172,6.189 7.1812,33.4136 10.1081,38.6724 3.0155,5.4178 1.3672,15.4986 1.3672,15.0468 0,-2.2599 -3.805,2.7276 -4.8619,4.7251 -4.2251,7.986 -2.9136,17.8763 -2.9136,26.5904"
           id="path4874" />
        <path
           style="fill:none;stroke:#000000;stroke-width:3.77953;stroke-linecap:butt;stroke-linejoin:miter;stroke-miterlimit:4;stroke-dasharray:none;stroke-opacity:1"
           d="m 1500.6332,2703.8757 c -7.7261,25.2504 -11.7293,50.1856 -12.2528,76.2937"
           id="path4876" />
        <path
           style="fill:none;stroke:#000000;stroke-width:3.77953;stroke-linecap:butt;stroke-linejoin:miter;stroke-miterlimit:4;stroke-dasharray:none;stroke-opacity:1"
           d="m 1520.4649,2543.547 c -5.1865,5.1495 -12.12,8.9997 -15.5595,15.4484 -4.0367,7.5686 -4.0567,16.6692 -6.0238,25.0183 -4.6723,19.8304 -8.5313,39.9109 -14.1924,59.4952 -0.2172,0.7512 -8.4917,19.6712 -4.6653,19.2507"
           id="path4878" />
        <path
           style="fill:none;stroke:#000000;stroke-width:3.77953;stroke-linecap:butt;stroke-linejoin:miter;stroke-miterlimit:4;stroke-dasharray:none;stroke-opacity:1"
           d="m 1429.6627,2440.3553 c 10.6708,26.744 6.8979,13.236 11.6718,40.424"
           id="path4880" />
        <path
           style="fill:none;stroke:#000000;stroke-width:3.77953;stroke-linecap:butt;stroke-linejoin:miter;stroke-miterlimit:4;stroke-dasharray:none;stroke-opacity:1"
           d="m 1393.1094,2493.5533 c -0.482,25.4337 1.1852,52.2246 -3.1102,77.3361"
           id="path4882" />
        <path
           style="fill:none;stroke:#000000;stroke-width:3.77953;stroke-linecap:butt;stroke-linejoin:miter;stroke-miterlimit:4;stroke-dasharray:none;stroke-opacity:1"
           d="m 1393.1094,2493.5533 c -0.3873,9.4473 -0.1316,18.943 -1.162,28.342 -0.5939,5.4172 -2.3684,10.6402 -3.6912,15.9269 -0.4199,1.678 -1.2985,6.2336 -2.1447,4.7251 -1.4017,-2.4987 5.3348,-2.2518 8.1685,-2.6744"
           id="path4884" />
        <path
           style="fill:none;stroke:#000000;stroke-width:3.77953;stroke-linecap:butt;stroke-linejoin:miter;stroke-miterlimit:4;stroke-dasharray:none;stroke-opacity:1"
           d="m 1799.8524,2526.0992 c 3.9205,3.1517 -8.7239,54.644 -8.365,56.1714 0.9548,4.0646 3.2412,7.6957 4.8618,11.5436"
           id="path4886" />
        <path
           style="fill:none;stroke:#000000;stroke-width:3.77953;stroke-linecap:butt;stroke-linejoin:miter;stroke-miterlimit:4;stroke-dasharray:none;stroke-opacity:1"
           d="m 1803.9367,2615.1583 c -12.4709,14.9271 -17.5669,33.0182 -21.0024,51.7967"
           id="path4888" />
        <path
           style="fill:none;stroke:#000000;stroke-width:3.77953;stroke-linecap:butt;stroke-linejoin:miter;stroke-miterlimit:4;stroke-dasharray:none;stroke-opacity:1"
           d="m 1691.3631,2555.4922 c -2.6718,18.4834 6.0437,36.0298 6.8014,54.2489 -8.5724,13.3301 1.6512,25.5092 -1.5551,38.4929"
           id="path4890" />
        <path
           style="fill:none;stroke:#000000;stroke-width:3.77953;stroke-linecap:butt;stroke-linejoin:miter;stroke-miterlimit:4;stroke-dasharray:none;stroke-opacity:1"
           d="m 1439.7794,1501.4449 c 16.0624,16.3919 8.4565,7.3668 22.5489,27.2996"
           id="path4892" />
        <path
           style="fill:none;stroke:#000000;stroke-width:3.77953;stroke-linecap:butt;stroke-linejoin:miter;stroke-miterlimit:4;stroke-dasharray:none;stroke-opacity:1"
           d="m 1474.5811,1569.5188 c 10.8961,25.5453 5.366,52.888 11.4667,79.2586"
           id="path4894" />
        <path
           style="fill:none;stroke:#000000;stroke-width:3.77953;stroke-linecap:butt;stroke-linejoin:miter;stroke-miterlimit:4;stroke-dasharray:none;stroke-opacity:1"
           d="m 1746.381,1459.8077 c -17.859,24.3682 -37.0147,48.1039 -47.4389,76.8148 -4.2287,11.6468 -6.7589,23.6356 -11.4667,34.9897"
           id="path4896" />
        <path
           style="fill:none;stroke:#000000;stroke-width:3.77953;stroke-linecap:butt;stroke-linejoin:miter;stroke-miterlimit:4;stroke-dasharray:none;stroke-opacity:1"
           d="m 1602.9021,1325.5995 c -4.7923,33.6687 -2.5688,10.9148 -0.1965,68.5865"
           id="path4898" />
        <path
           style="fill:none;stroke:#000000;stroke-width:3.77953;stroke-linecap:butt;stroke-linejoin:miter;stroke-miterlimit:4;stroke-dasharray:none;stroke-opacity:1"
           d="m 1534.4608,1477.1273 c 26.5043,-6.383 16.744,-8.8601 29.9399,-4.0244"
           id="path4900" />
      </g>
      <g
         id="g4935"
         transform="matrix(0.26458333,0,0,0.26458333,-521.18963,-373.74113)">
        <path
           style="fill:none;stroke:#ff0000;stroke-width:7.55906;stroke-linecap:butt;stroke-linejoin:miter;stroke-miterlimit:4;stroke-dasharray:none;stroke-opacity:1"
           d="m 1510.5448,816.91229 h 208.229"
           id="path4902" />
        <path
           style="fill:none;stroke:#ff0000;stroke-width:7.55906;stroke-linecap:butt;stroke-linejoin:miter;stroke-miterlimit:4;stroke-dasharray:none;stroke-opacity:1"
           d="M 1493.6267,1055.4913 H 1698.549"
           id="path4904" />
        <path
           style="fill:none;stroke:#ff0000;stroke-width:7.55906;stroke-linecap:butt;stroke-linejoin:miter;stroke-miterlimit:4;stroke-dasharray:none;stroke-opacity:1"
           d="m 1385.3339,1351.8139 h 431.428"
           id="path4906" />
        <path
           style="fill:none;stroke:#ff0000;stroke-width:7.55906;stroke-linecap:butt;stroke-linejoin:miter;stroke-miterlimit:4;stroke-dasharray:none;stroke-opacity:1"
           d="m 1245.3497,1379.8142 133.7639,43.8247"
           id="path4908" />
        <path
           style="fill:none;stroke:#ff0000;stroke-width:7.55906;stroke-linecap:butt;stroke-linejoin:miter;stroke-miterlimit:4;stroke-dasharray:none;stroke-opacity:1"
           d="m 1427.3301,1618.8376 h 319.8285"
           id="path4910" />
        <path
           style="fill:none;stroke:#ff0000;stroke-width:7.55906;stroke-linecap:butt;stroke-linejoin:miter;stroke-miterlimit:4;stroke-dasharray:none;stroke-opacity:1"
           d="m 1355.001,1872.378 456.7111,-6.998"
           id="path4912" />
        <path
           style="fill:none;stroke:#ff0000;stroke-width:7.55906;stroke-linecap:butt;stroke-linejoin:miter;stroke-miterlimit:4;stroke-dasharray:none;stroke-opacity:1"
           d="m 1225.7145,1956.6266 71.1584,8.6641"
           id="path4914" />
        <path
           style="fill:none;stroke:#ff0000;stroke-width:7.55906;stroke-linecap:butt;stroke-linejoin:miter;stroke-miterlimit:4;stroke-dasharray:none;stroke-opacity:1"
           d="m 1616.7014,2090.1085 221.0629,-22.9249"
           id="path4916" />
        <path
           style="fill:none;stroke:#ff0000;stroke-width:7.55906;stroke-linecap:butt;stroke-linejoin:miter;stroke-miterlimit:4;stroke-dasharray:none;stroke-opacity:1"
           d="m 1386.889,2408.7407 151.263,1.7516"
           id="path4918" />
        <path
           style="fill:none;stroke:#ff0000;stroke-width:7.55906;stroke-linecap:butt;stroke-linejoin:miter;stroke-miterlimit:4;stroke-dasharray:none;stroke-opacity:1"
           d="m 1378.1395,2636.0325 160.7901,-11.5436"
           id="path4920" />
        <path
           style="fill:none;stroke:#ff0000;stroke-width:7.55906;stroke-linecap:butt;stroke-linejoin:miter;stroke-miterlimit:4;stroke-dasharray:none;stroke-opacity:1"
           d="m 1444.2482,3125.768 92.5452,-1.7516"
           id="path4922" />
      </g>
    </g>
    <path
       style="fill:none;stroke:#ff0000;stroke-width:2.45208;stroke-linecap:butt;stroke-linejoin:miter;stroke-miterlimit:4;stroke-dasharray:none;stroke-opacity:1"
       d="m -177.56792,-105.56388 51.45761,-19.2495"
       id="path5386" />
  </g>
</svg>
