<?xml version="1.0" encoding="UTF-8" standalone="no"?>
<svg
   xmlns:dc="http://purl.org/dc/elements/1.1/"
   xmlns:cc="http://creativecommons.org/ns#"
   xmlns:rdf="http://www.w3.org/1999/02/22-rdf-syntax-ns#"
   xmlns:svg="http://www.w3.org/2000/svg"
   xmlns="http://www.w3.org/2000/svg"
   xmlns:sodipodi="http://sodipodi.sourceforge.net/DTD/sodipodi-0.dtd"
   xmlns:inkscape="http://www.inkscape.org/namespaces/inkscape"
   width="158.75mm"
   height="223.97673mm"
   viewBox="0 0 158.75 223.97673"
   version="1.1"
   id="svg3684"
   inkscape:version="1.0.2 (e86c870879, 2021-01-15)"
   sodipodi:docname="Chiappetta_m.svg">
  <defs
     id="defs3678" />
  <sodipodi:namedview
     id="base"
     pagecolor="#ffffff"
     bordercolor="#666666"
     borderopacity="1.0"
     inkscape:pageopacity="0.0"
     inkscape:pageshadow="2"
     inkscape:zoom="0.30411871"
     inkscape:cx="1717.3435"
     inkscape:cy="1481.6377"
     inkscape:document-units="mm"
     inkscape:current-layer="layer3"
     inkscape:document-rotation="0"
     showgrid="false"
     inkscape:window-width="1920"
     inkscape:window-height="1016"
     inkscape:window-x="0"
     inkscape:window-y="0"
     inkscape:window-maximized="1"
     fit-margin-top="0"
     fit-margin-left="0"
     fit-margin-right="0"
     fit-margin-bottom="0" />
  <metadata
     id="metadata3681">
    <rdf:RDF>
      <cc:Work
         rdf:about="">
        <dc:format>image/svg+xml</dc:format>
        <dc:type
           rdf:resource="http://purl.org/dc/dcmitype/StillImage" />
        <dc:title></dc:title>
      </cc:Work>
    </rdf:RDF>
  </metadata>
  <g
     inkscape:label="Calque 1"
     inkscape:groupmode="layer"
     id="layer1"
     transform="translate(202.63546,217.19179)" />
  <g
     inkscape:groupmode="layer"
     id="layer3"
     inkscape:label="NUméros">
    <g
       id="g1934"
       transform="matrix(0.31433998,0,0,0.31433998,3.1540153e-7,-2.4417175e-6)">
      <g
         id="g1594">
        <text
           xml:space="preserve"
           style="font-size:14.1111px;line-height:1.25;font-family:sans-serif;fill:#ff0000;fill-opacity:1;stroke-width:0.264583"
           x="-70.402229"
           y="-52.197617"
           id="text1373"
           transform="translate(202.63546,217.19179)"><tspan
             sodipodi:role="line"
             id="tspan1371"
             x="-70.402229"
             y="-52.197617"
             style="fill:#ff0000;fill-opacity:1;stroke-width:0.264583">58</tspan></text>
        <text
           xml:space="preserve"
           style="font-size:14.1111px;line-height:1.25;font-family:sans-serif;fill:#ff0000;fill-opacity:1;stroke-width:0.264583"
           x="450.98294"
           y="154.69087"
           id="text1377"><tspan
             sodipodi:role="line"
             id="tspan1375"
             x="450.98294"
             y="154.69087"
             style="fill:#ff0000;fill-opacity:1;stroke-width:0.264583">2</tspan></text>
        <text
           xml:space="preserve"
           style="font-size:14.1111px;line-height:1.25;font-family:sans-serif;fill:#ff0000;fill-opacity:1;stroke-width:0.264583"
           x="-167.35966"
           y="445.40509"
           id="text1381"
           transform="translate(202.63546,217.19179)"><tspan
             sodipodi:role="line"
             id="tspan1379"
             x="-167.35966"
             y="445.40509"
             style="fill:#ff0000;fill-opacity:1;stroke-width:0.264583">3</tspan></text>
        <text
           xml:space="preserve"
           style="font-size:14.1111px;line-height:1.25;font-family:sans-serif;fill:#ff0000;fill-opacity:1;stroke-width:0.264583"
           x="101.10458"
           y="25.142508"
           id="text1394"><tspan
             sodipodi:role="line"
             id="tspan1392"
             x="101.10458"
             y="25.142508"
             style="fill:#ff0000;fill-opacity:1;stroke-width:0.264583">4</tspan></text>
        <text
           xml:space="preserve"
           style="font-size:14.1111px;line-height:1.25;font-family:sans-serif;fill:#ff0000;fill-opacity:1;stroke-width:0.264583"
           x="398.65674"
           y="453.32446"
           id="text1398"><tspan
             sodipodi:role="line"
             id="tspan1396"
             x="398.65674"
             y="453.32446"
             style="fill:#ff0000;fill-opacity:1;stroke-width:0.264583">9</tspan></text>
        <text
           xml:space="preserve"
           style="font-size:14.1111px;line-height:1.25;font-family:sans-serif;fill:#ff0000;fill-opacity:1;stroke-width:0.264583"
           x="302.63876"
           y="537.08575"
           id="text1402"><tspan
             sodipodi:role="line"
             id="tspan1400"
             x="302.63876"
             y="537.08575"
             style="fill:#ff0000;fill-opacity:1;stroke-width:0.264583">11</tspan></text>
        <text
           xml:space="preserve"
           style="font-size:14.1111px;line-height:1.25;font-family:sans-serif;fill:#ff0000;fill-opacity:1;stroke-width:0.264583"
           x="273.03391"
           y="441.15128"
           id="text1406"><tspan
             sodipodi:role="line"
             id="tspan1404"
             x="273.03391"
             y="441.15128"
             style="fill:#ff0000;fill-opacity:1;stroke-width:0.264583">15</tspan></text>
        <path
           style="fill:none;stroke:#ff0000;stroke-width:2;stroke-linecap:butt;stroke-linejoin:miter;stroke-miterlimit:4;stroke-dasharray:none;stroke-opacity:1"
           d="M 91.503372,100.86609 V 242.397"
           id="path1408" />
        <text
           xml:space="preserve"
           style="font-size:14.1111px;line-height:1.25;font-family:sans-serif;fill:#ff0000;fill-opacity:1;stroke-width:0.264583"
           x="66.639969"
           y="128.55272"
           id="text1412"><tspan
             sodipodi:role="line"
             id="tspan1410"
             x="66.639969"
             y="128.55272"
             style="fill:#ff0000;fill-opacity:1;stroke-width:0.264583">29</tspan></text>
        <text
           xml:space="preserve"
           style="font-size:14.1111px;line-height:1.25;font-family:sans-serif;fill:#ff0000;fill-opacity:1;stroke-width:0.264583"
           x="390.16788"
           y="147.47183"
           id="text1416"><tspan
             sodipodi:role="line"
             id="tspan1414"
             x="390.16788"
             y="147.47183"
             style="fill:#ff0000;fill-opacity:1;stroke-width:0.264583">30</tspan></text>
        <text
           xml:space="preserve"
           style="font-size:14.1111px;line-height:1.25;font-family:sans-serif;fill:#ff0000;fill-opacity:1;stroke-width:0.264583"
           x="38.480515"
           y="96.563217"
           id="text1420"><tspan
             sodipodi:role="line"
             id="tspan1418"
             x="38.480515"
             y="96.563217"
             style="fill:#ff0000;fill-opacity:1;stroke-width:0.264583">36</tspan></text>
        <text
           xml:space="preserve"
           style="font-size:14.1111px;line-height:1.25;font-family:sans-serif;fill:#ff0000;fill-opacity:1;stroke-width:0.264583"
           x="314.67804"
           y="219.65805"
           id="text1424"><tspan
             sodipodi:role="line"
             id="tspan1422"
             x="314.67804"
             y="219.65805"
             style="fill:#ff0000;fill-opacity:1;stroke-width:0.264583">37</tspan></text>
        <path
           style="fill:none;stroke:#fe0000;stroke-width:2;stroke-linecap:butt;stroke-linejoin:miter;stroke-miterlimit:4;stroke-dasharray:none;stroke-opacity:1"
           d="m 114.19772,245.2211 v 93.68816"
           id="path1428" />
        <text
           xml:space="preserve"
           style="font-size:14.1111px;line-height:1.25;font-family:sans-serif;fill:#ff0000;fill-opacity:1;stroke-width:0.264583"
           x="96.988029"
           y="291.77972"
           id="text1432"><tspan
             sodipodi:role="line"
             id="tspan1430"
             x="96.988029"
             y="291.77972"
             style="fill:#ff0000;fill-opacity:1;stroke-width:0.264583">39</tspan></text>
        <text
           xml:space="preserve"
           style="font-size:14.1111px;line-height:1.25;font-family:sans-serif;fill:#ff0000;fill-opacity:1;stroke-width:0.264583"
           x="434.88113"
           y="309.46176"
           id="text1436"><tspan
             sodipodi:role="line"
             id="tspan1434"
             x="434.88113"
             y="309.46176"
             style="fill:#ff0000;fill-opacity:1;stroke-width:0.264583">46</tspan></text>
        <text
           xml:space="preserve"
           style="font-size:14.1111px;line-height:1.25;font-family:sans-serif;fill:#ff0000;fill-opacity:1;stroke-width:0.264583"
           x="39.956509"
           y="308.159"
           id="text1440"><tspan
             sodipodi:role="line"
             id="tspan1438"
             x="39.956509"
             y="308.159"
             style="fill:#ff0000;fill-opacity:1;stroke-width:0.264583">46</tspan></text>
        <text
           xml:space="preserve"
           style="font-size:14.1111px;line-height:1.25;font-family:sans-serif;fill:#ff0000;fill-opacity:1;stroke-width:0.264583"
           x="18.73559"
           y="203.04308"
           id="text1444"><tspan
             sodipodi:role="line"
             id="tspan1442"
             x="18.73559"
             y="203.04308"
             style="fill:#ff0000;fill-opacity:1;stroke-width:0.264583">47</tspan></text>
        <text
           xml:space="preserve"
           style="font-size:14.1111px;line-height:1.25;font-family:sans-serif;fill:#ff0000;fill-opacity:1;stroke-width:0.264583"
           x="67.351341"
           y="632.01013"
           id="text1448"><tspan
             sodipodi:role="line"
             id="tspan1446"
             x="67.351341"
             y="632.01013"
             style="fill:#ff0000;fill-opacity:1;stroke-width:0.264583">48</tspan></text>
        <text
           xml:space="preserve"
           style="font-size:14.1111px;line-height:1.25;font-family:sans-serif;fill:#ff0000;fill-opacity:1;stroke-width:0.264583"
           x="138.05475"
           y="355.13226"
           id="text1452"><tspan
             sodipodi:role="line"
             id="tspan1450"
             x="138.05475"
             y="355.13226"
             style="fill:#ff0000;fill-opacity:1;stroke-width:0.264583">51</tspan></text>
        <text
           xml:space="preserve"
           style="font-size:14.1111px;line-height:1.25;font-family:sans-serif;fill:#ff0000;fill-opacity:1;stroke-width:0.264583"
           x="104.55975"
           y="82.313568"
           id="text1456"><tspan
             sodipodi:role="line"
             id="tspan1454"
             x="104.55975"
             y="82.313568"
             style="fill:#ff0000;fill-opacity:1;stroke-width:0.264583">52</tspan></text>
        <text
           xml:space="preserve"
           style="font-size:14.1111px;line-height:1.25;font-family:sans-serif;fill:#ff0000;fill-opacity:1;stroke-width:0.264583"
           x="417.65131"
           y="101.45055"
           id="text1460"><tspan
             sodipodi:role="line"
             id="tspan1458"
             x="417.65131"
             y="101.45055"
             style="fill:#ff0000;fill-opacity:1;stroke-width:0.264583">52</tspan></text>
        <text
           xml:space="preserve"
           style="font-size:14.1111px;line-height:1.25;font-family:sans-serif;fill:#ff0000;fill-opacity:1;stroke-width:0.264583"
           x="404.65881"
           y="59.438"
           id="text1464"><tspan
             sodipodi:role="line"
             id="tspan1462"
             x="404.65881"
             y="59.438"
             style="fill:#ff0000;fill-opacity:1;stroke-width:0.264583">4</tspan></text>
        <text
           xml:space="preserve"
           style="font-size:14.1111px;line-height:1.25;font-family:sans-serif;fill:#ff0000;fill-opacity:1;stroke-width:0.264583"
           x="64.36982"
           y="441.1861"
           id="text1468"><tspan
             sodipodi:role="line"
             id="tspan1466"
             x="64.36982"
             y="441.1861"
             style="fill:#ff0000;fill-opacity:1;stroke-width:0.264583">53</tspan></text>
        <text
           xml:space="preserve"
           style="font-size:14.1111px;line-height:1.25;font-family:sans-serif;fill:#ff0000;fill-opacity:1;stroke-width:0.264583"
           x="58.307003"
           y="530.5506"
           id="text1472"><tspan
             sodipodi:role="line"
             id="tspan1470"
             x="58.307003"
             y="530.5506"
             style="fill:#ff0000;fill-opacity:1;stroke-width:0.264583">55</tspan></text>
        <text
           xml:space="preserve"
           style="font-size:14.1111px;line-height:1.25;font-family:sans-serif;fill:#ff0000;fill-opacity:1;stroke-width:0.264583"
           x="5.9309683"
           y="320.92258"
           id="text1476"><tspan
             sodipodi:role="line"
             id="tspan1474"
             x="5.9309683"
             y="320.92258"
             style="fill:#ff0000;fill-opacity:1;stroke-width:0.264583">57</tspan></text>
        <path
           style="fill:none;stroke:#ff0000;stroke-width:2;stroke-linecap:butt;stroke-linejoin:miter;stroke-miterlimit:4;stroke-dasharray:none;stroke-opacity:1"
           d="M 43.250384,146.74529 H 162.12929"
           id="path1478" />
        <text
           xml:space="preserve"
           style="font-size:14.1111px;line-height:1.25;font-family:sans-serif;fill:#ff0000;fill-opacity:1;stroke-width:0.264583"
           x="134.52718"
           y="137.92566"
           id="text1482"><tspan
             sodipodi:role="line"
             id="tspan1480"
             x="134.52718"
             y="137.92566"
             style="fill:#ff0000;fill-opacity:1;stroke-width:0.264583">1</tspan></text>
      </g>
      <g
         id="g1541"
         transform="translate(202.63546,217.19179)">
        <path
           style="fill:none;stroke:#000000;stroke-width:1;stroke-linecap:butt;stroke-linejoin:miter;stroke-miterlimit:4;stroke-dasharray:none;stroke-opacity:1"
           d="m 196.65237,-186.3597 c -7.70496,3.57407 -13.34749,10.2235 -16.77562,17.95561 -0.57367,1.29392 -0.66574,2.83072 -1.19092,4.1552 -2.87554,7.25204 -4.02042,12.92937 0.0981,19.92087 4.59584,7.80169 15.07019,14.08044 18.16722,21.70946 0.73117,1.80115 0.75348,3.90324 1.04042,5.80634"
           id="path3147" />
        <path
           style="fill:none;stroke:#000000;stroke-width:1;stroke-linecap:butt;stroke-linejoin:miter;stroke-miterlimit:4;stroke-dasharray:none;stroke-opacity:1"
           d="m 208.8627,-187.11876 c -2.67412,1.06818 -5.53709,1.33927 -8.33871,1.33927 -0.26512,0 0.52959,-0.0262 0.79393,-0.0458 1.26775,-0.0944 2.43364,-0.31885 3.67316,-0.58018 3.17968,-0.6704 6.51298,-0.89984 9.72815,-0.26828 1.55601,0.30564 2.34897,1.57511 3.5728,2.36876 4.64841,3.01453 7.13089,4.55118 10.52208,9.2003 1.02634,1.40706 2.05841,2.31579 2.33169,4.15518 0.95832,6.44927 -1.22803,12.32106 -1.98487,18.62526 -0.45935,3.82625 -1.00891,14.05988 -2.63052,16.88465 -2.53219,4.41087 -8.42166,7.7873 -10.07496,11.83735 -1.02016,2.49905 -1.07209,5.21589 -1.4396,7.86104"
           id="path3149" />
        <path
           style="fill:none;stroke:#000000;stroke-width:1;stroke-linecap:butt;stroke-linejoin:miter;stroke-miterlimit:4;stroke-dasharray:none;stroke-opacity:1"
           d="m 228.91444,-127.26451 c -4.66146,7.07335 1.00282,14.52282 1.88457,21.75309"
           id="path3151" />
        <path
           style="fill:none;stroke:#000000;stroke-width:1;stroke-linecap:butt;stroke-linejoin:miter;stroke-miterlimit:4;stroke-dasharray:none;stroke-opacity:1"
           d="m 184.49217,-136.64584 c 0.77795,0.98298 1.68346,1.87733 2.33389,2.94897 2.15373,3.54848 0.66053,8.31628 -0.0502,11.92681 -0.37986,1.92979 0.0331,3.94308 -0.34681,5.84996 -0.54978,2.75968 -1.78586,5.66722 -3.12783,8.08569 -5.6252,5.77141 -12.2564,8.027355 -19.60462,10.674802 -1.40134,0.504878 -3.27175,0.23421 -4.76374,0.626005 -3.18736,0.836982 -6.52682,1.946989 -9.82848,2.277162 -6.99661,0.699665 -10.78283,-0.716571 -17.27073,3.306683 -4.62364,2.867237 -8.23986,8.329798 -10.07493,13.399109 -0.74129,2.047795 -0.42572,4.327631 -0.94446,6.432365 -0.4418,1.792499 -1.57401,3.40397 -1.88457,5.226129 -0.23313,1.367949 0.22971,2.801937 -0.0502,4.155202 -0.50448,2.439273 -1.63806,4.162478 -1.63806,6.787885 0,2.657078 1.38882,4.935987 1.53773,7.549118 0.14161,2.484808 -0.13073,5.01052 0.44715,7.459689 0.904,3.831405 3.85778,7.522527 4.61541,10.943087"
           id="path3153" />
        <path
           style="fill:none;stroke:#000000;stroke-width:1;stroke-linecap:butt;stroke-linejoin:miter;stroke-miterlimit:4;stroke-dasharray:none;stroke-opacity:1"
           d="m 116.44753,-29.935095 c -0.24794,1.102227 -0.44688,2.216626 -0.7438,3.306683 -0.55623,2.04216 -1.57919,3.991504 -2.03504,6.074648 -0.63035,2.880466 -0.37026,5.900922 -0.94446,8.798957 -0.5166,2.6071243 -1.31043,5.1005576 -1.48759,7.7716057 -0.1887,2.8449322 0.29665,5.6900497 0.29665,8.5328388 0,3.0897248 -0.70128,6.3964605 -0.24866,9.4685905 0.22487,1.526302 1.07344,2.803949 1.38941,4.288235 0.55197,2.592837 0.27456,5.367152 0.5475,7.996263 0.22236,2.141908 1.09059,4.05265 1.09059,6.253507 0,5.834221 -4.54443,10.970895 -5.1607,16.79522 -0.4854,4.587161 1.51043,14.094169 0.29662,17.375426"
           id="path3155" />
        <path
           style="fill:none;stroke:#000000;stroke-width:1;stroke-linecap:butt;stroke-linejoin:miter;stroke-miterlimit:4;stroke-dasharray:none;stroke-opacity:1"
           d="m 108.70428,75.661064 c -0.10765,5.816388 2.85248,11.210607 3.52481,16.838824 0.23865,1.997842 -0.0963,4.041034 0.24649,6.028849 0.37226,2.158843 1.33815,4.183593 1.73839,6.342913 0.59259,3.19706 0.93498,6.41929 2.13323,9.47076 2.04123,5.19832 8.20309,10.7634 8.98435,16.21504 0.60992,4.25606 0.80518,8.56734 0.49514,12.86251 -0.50726,7.02691 -3.74301,19.64899 0.44714,25.77303 1.20082,1.75506 3.0556,2.54921 4.66556,3.79749 1.09593,0.84968 2.03941,2.96111 2.68071,3.17145"
           id="path3157" />
        <path
           style="fill:none;stroke:#000000;stroke-width:1;stroke-linecap:butt;stroke-linejoin:miter;stroke-miterlimit:4;stroke-dasharray:none;stroke-opacity:1"
           d="m 138.6325,138.23963 c -1.10541,-2.53453 -2.53215,-5.35689 -2.82904,-8.17513 -0.31088,-2.95124 0.56754,-5.73214 0.79397,-8.66592 0.48395,-6.27004 1.42367,-12.68548 1.04261,-18.98296 -0.33319,-5.506583 -1.10336,-11.01198 -1.38943,-16.526929 -0.18486,-3.564334 0.91398,-7.014209 0.79396,-10.54174 -0.182,-5.349611 -0.56758,-11.118321 0.94229,-16.348075 0.65585,-2.27166 1.89968,-4.020317 2.92933,-6.074622 0.88607,-1.767787 0.90139,-4.257569 1.63809,-6.164077 1.46352,-3.787457 0.93655,-8.176074 2.28153,-11.970411"
           id="path3159" />
        <path
           style="fill:none;stroke:#000000;stroke-width:1;stroke-linecap:butt;stroke-linejoin:miter;stroke-miterlimit:4;stroke-dasharray:none;stroke-opacity:1"
           d="m 136.49927,40.864414 c 1.11172,-2.253853 1.68809,-4.710721 2.77886,-6.96894 1.62216,-3.358435 4.01114,-6.333596 5.06257,-9.961536 1.87896,-6.483482 2.56164,-14.0024903 2.77884,-20.725738 0.0565,-1.7492926 -0.3514,-3.63116804 -0.0982,-5.3591882 0.19109,-1.3039725 0.83479,-2.6033148 1.14078,-3.8869144 0.8695,-3.647678 0.64564,-8.0975464 0.64564,-11.8351824"
           id="path3161" />
        <path
           style="fill:none;stroke:#000000;stroke-width:1;stroke-linecap:butt;stroke-linejoin:miter;stroke-miterlimit:4;stroke-dasharray:none;stroke-opacity:1"
           d="m 142.60228,-48.695588 c -0.16505,-0.937922 -0.3301,-1.875816 -0.49514,-2.813738 0,-0.02982 0.0225,-0.06988 0,-0.08943 -0.19482,-0.169413 0.24825,0.461857 0.29665,0.715433 0.13726,0.71927 -0.16759,1.553554 0.19849,2.187734 0.79155,1.371335 2.16818,2.315554 3.12782,3.574997 0.76613,1.005443 1.23931,3.068214 1.63809,4.198805 0.89466,2.536534 2.57093,4.826926 2.97733,7.549118 0.81574,5.463963 0.99243,11.034554 1.9849,16.481134 1.11382,6.112748 3.20951,11.9762056 5.36139,17.77894136 0.76499,2.06287684 1.04431,4.31649184 1.88672,6.34073954 3.65402,8.7803561 7.17436,13.5891581 5.60787,23.3628141 -0.83495,5.209328 -4.80976,9.986698 -6.452,14.919404 -0.5202,1.562497 -0.5538,3.196378 -0.94446,4.778983 -0.80936,3.278982 -2.19919,6.376194 -3.12565,9.60382 -0.51747,1.80287 -0.73507,3.667786 -1.34144,5.448644 -2.09976,6.166828 -5.19023,12.126118 -6.74862,18.492178 -0.91255,3.727768 -0.7117,7.754303 -1.63809,11.436033 -0.7779,3.091709 -2.692,5.749318 -3.62297,8.798958 -0.83804,2.74534 -0.36665,5.72053 -0.84412,8.53067 -0.48948,2.88099 -0.7071,5.085 0.14832,7.59492"
           id="path3163" />
        <path
           style="fill:none;stroke:#000000;stroke-width:1;stroke-linecap:butt;stroke-linejoin:miter;stroke-miterlimit:4;stroke-dasharray:none;stroke-opacity:1"
           d="m 265.69163,-50.883322 c -0.96502,4.099534 -2.68756,8.028305 -3.82146,12.10564 -0.75832,2.726849 0.243,5.333444 -0.29882,8.039894 -0.21301,1.063969 -0.78391,2.004986 -1.09278,3.036226 -1.14284,3.815397 -1.80808,7.76597 -2.877,11.61489 -4.06752,14.6460371 -11.63802,29.706147 -10.27562,45.336195 0.49384,5.665867 4.30678,10.599288 5.8565,15.946729 0.91561,3.159389 2.18672,6.555978 2.73087,9.782677 0.49474,2.933727 0.15877,5.93008 0.24865,8.888386 0.0827,2.721478 0.84543,5.40004 1.24111,8.085693 0.70152,4.7616 1.98374,9.553231 3.02749,14.247601 0.58799,2.644431 1.69593,5.174562 1.93474,7.906834 0.3551,4.062783 0.10253,8.041507 -0.0982,12.059837 -0.18999,3.80432 -1.31405,7.79921 -1.19311,11.56907 0.022,0.68728 0.33859,4.71046 0.10033,4.06577"
           id="path3165" />
        <path
           style="fill:none;stroke:#000000;stroke-width:1;stroke-linecap:butt;stroke-linejoin:miter;stroke-miterlimit:4;stroke-dasharray:none;stroke-opacity:1"
           d="m 230.79901,-105.51142 c -3.05178,6.204057 8.03207,8.653226 12.21034,10.09457 1.60787,0.554672 2.84602,1.67685 4.41693,2.277189 4.04381,1.545352 8.35601,2.736003 12.60731,3.529171 1.54618,0.288476 3.2012,0.12618 4.71358,0.580205 2.28333,0.685483 4.35824,2.035731 6.70063,2.680679 2.6272,0.723371 8.29323,2.075656 10.27345,3.797459 7.56089,6.574181 7.68787,13.355029 8.7357,22.824069 0.70432,6.364631 2.51153,13.211969 1.38943,19.654784 -0.93893,5.391045 -3.0639,11.000529 -4.96224,16.123391 -0.52083,1.405546 -0.64113,3.272208 -1.14294,4.512919"
           id="path3167" />
        <path
           style="fill:none;stroke:#000000;stroke-width:1;stroke-linecap:butt;stroke-linejoin:miter;stroke-miterlimit:4;stroke-dasharray:none;stroke-opacity:1"
           d="m 296.76062,-17.471739 c -3.56979,-2.749894 -3.87162,-5.770536 -3.87162,-9.736852 0,-0.118533 0,0.237014 0,0.355521 0,0.997532 0,1.995064 0,2.992596 0,1.476719 0.0745,2.90703 0.19849,4.377664 0.19706,2.337329 -0.20847,4.905877 0.24865,7.191428 0.61521,3.0760453 1.75535,5.3386032 1.63806,8.5764682 -0.1896,5.2346753 -1.40451,10.4095548 -2.03504,15.5890118 -0.3075,2.525712 0.048,5.261134 -0.59547,7.727976 -1.98607,7.613227 -6.34111,16.384773 -3.0275,23.674731"
           id="path3169" />
        <path
           style="fill:none;stroke:#000000;stroke-width:1;stroke-linecap:butt;stroke-linejoin:miter;stroke-miterlimit:4;stroke-dasharray:none;stroke-opacity:1"
           d="m 263.65656,-18.276601 c -1.39242,4.540144 -1.12239,9.5432293 -1.48974,14.339199 -0.21635,2.8242419 0.42836,5.5753 0.34679,8.3976104 -0.23529,8.1414676 0.0345,16.5166146 0.6958,24.6998856 0.13841,1.712542 4.66789,10.854663 6.05502,12.506986 0.3365,0.400844 -0.35333,-0.98544 -0.54531,-1.4723"
           id="path3171" />
        <path
           style="fill:none;stroke:#000000;stroke-width:1;stroke-linecap:butt;stroke-linejoin:miter;stroke-miterlimit:4;stroke-dasharray:none;stroke-opacity:1"
           d="m 281.32427,28.178569 c -0.72123,4.220634 1.39774,4.932971 3.37651,7.727977"
           id="path3173" />
        <path
           style="fill:none;stroke:#000000;stroke-width:1;stroke-linecap:butt;stroke-linejoin:miter;stroke-miterlimit:4;stroke-dasharray:none;stroke-opacity:1"
           d="m 120.51764,28.804573 c 4.73578,2.463404 2.10439,8.144801 3.96978,11.07612 0.38629,0.607007 0.17664,-1.428247 0.24866,-2.14413"
           id="path3175" />
        <path
           style="fill:none;stroke:#000000;stroke-width:1;stroke-linecap:butt;stroke-linejoin:miter;stroke-miterlimit:4;stroke-dasharray:none;stroke-opacity:1"
           d="m 124.73608,37.736563 c 1.56826,-3.024135 3.37775,-5.958708 5.5577,-8.576469"
           id="path3177" />
        <path
           style="fill:none;stroke:#000000;stroke-width:1;stroke-linecap:butt;stroke-linejoin:miter;stroke-miterlimit:4;stroke-dasharray:none;stroke-opacity:1"
           d="m 268.71912,40.19478 c -1.20766,1.488308 -2.52108,2.896685 -3.62296,4.464897 -0.63741,0.907203 -0.53314,2.153073 -0.84413,3.21728 -2.22104,7.600394 -3.91044,13.650568 -2.73084,21.707289 0.92487,6.317166 1.27267,12.682988 2.73084,18.939325 1.40237,6.01689 3.56275,11.847119 4.66558,17.957799 0.56227,3.11544 0.0913,6.33947 0.69364,9.42496 0.6669,3.41649 2.67551,6.60432 3.32631,10.04877 1.32538,7.01485 -2.87409,13.06751 -5.80853,18.89572 -0.49596,0.98505 -0.73993,3.61164 -1.4374,4.24244 -0.49337,0.44619 0.18314,-1.32049 0.34681,-1.96525"
           id="path3179" />
        <path
           style="fill:none;stroke:#000000;stroke-width:1;stroke-linecap:butt;stroke-linejoin:miter;stroke-miterlimit:4;stroke-dasharray:none;stroke-opacity:1"
           d="m 264.74717,193.67258 c 4.70477,-2.2434 5.78075,-6.90872 8.33872,-10.89945 4.25801,-6.64298 9.5894,-13.48055 10.37378,-21.62003 0.16343,-1.69582 -0.6603,-3.52978 -0.6958,-5.26976 -0.0692,-3.39021 0.55729,-6.49817 0.99245,-9.82631 0.31194,-2.38596 -0.11573,-4.78636 0.49731,-7.14777 2.26174,-8.71225 4.70358,-17.37871 7.1456,-26.04132 0.74298,-2.63562 2.09878,-5.15435 2.58252,-7.86104 0.98171,-5.492776 1.02333,-11.051777 1.88458,-16.526959 0.54662,-3.475169 1.42017,-7.101549 1.48976,-10.631143 0.0796,-4.038044 0.38589,-8.12763 0,-12.14927 -0.48726,-5.077566 -1.91127,-10.03628 -2.58038,-15.098262 -0.82264,-6.223503 -0.49731,-12.896295 -0.49731,-19.161813"
           id="path3181" />
        <path
           style="fill:none;stroke:#000000;stroke-width:1;stroke-linecap:butt;stroke-linejoin:miter;stroke-miterlimit:4;stroke-dasharray:none;stroke-opacity:1"
           d="m 141.16485,130.59671 c -0.86514,2.69754 -1.95157,5.45076 -2.48219,8.26455 -0.83444,4.42466 -0.21828,9.32299 -0.44715,13.80263 -0.33678,6.59225 -0.2419,13.22652 -0.59547,19.83144 -0.0926,1.73022 -0.51974,3.40797 -0.5453,5.13673 -0.0289,1.95495 0.6745,3.74558 0.64563,5.67328 -0.0259,1.73532 -0.34898,3.44244 -0.34898,5.18035 0,2.25338 0.49038,4.43032 0.44714,6.70066 -0.12424,6.52581 -0.43079,12.18956 0.99246,18.5816 0.93525,4.20045 2.8702,7.91425 4.61541,11.79156 1.48633,3.30221 1.93271,7.56822 2.68068,11.07831 0.75708,3.55272 2.67957,7.44813 2.97733,10.7642"
           id="path3183" />
        <path
           style="fill:none;stroke:#000000;stroke-width:1;stroke-linecap:butt;stroke-linejoin:miter;stroke-miterlimit:4;stroke-dasharray:none;stroke-opacity:1"
           d="m 154.21714,220.20032 c 0.39698,-0.80415 0.77534,-1.61774 1.19094,-2.41242 0.41561,-0.79465 -1.21028,1.51582 -1.19094,2.41242 0.0501,2.32389 1.43873,4.47042 1.58793,6.79005 0.39039,6.06962 -1.97456,11.50864 -3.62297,17.19657 -0.007,0.0259 -0.64712,3.36971 -0.79396,3.39394 -0.75338,0.12433 -1.52249,-0.11925 -2.28373,-0.17886"
           id="path3185" />
        <path
           style="fill:none;stroke:#000000;stroke-width:1;stroke-linecap:butt;stroke-linejoin:miter;stroke-miterlimit:4;stroke-dasharray:none;stroke-opacity:1"
           d="m 203.80014,136.35942 c -1.28204,-0.21244 1.30394,-3.69906 0.84412,-3.97632 -0.66751,-0.40246 -1.20724,1.23174 -1.19311,2.01107 0.0119,0.66522 0.53472,1.32638 0.34899,1.96525 -4.70199,16.17337 -1.39306,0.17751 -2.53238,5.98522 -0.5528,2.81797 -1.6836,5.46623 -2.3317,8.26238 -0.85992,3.71014 -1.42798,7.75708 -1.88674,11.52543 -0.77354,6.35416 0.005,12.88209 -0.8921,19.16184 -0.56467,3.95515 -2.0642,7.87895 -2.87919,11.79372 -1.24685,5.98932 -1.9022,12.26683 -3.92179,18.08869 -0.80933,2.3331 -2.16641,4.4077 -2.72867,6.83586 -0.51094,2.20657 -1.14179,4.60113 -1.19094,6.87734 -0.0692,3.20257 0.7865,6.33746 0,9.56019 -0.58764,2.40792 -2.02116,4.46148 -3.0275,6.69845 -1.68529,3.74616 -3.30078,7.78981 -4.71575,11.61487"
           id="path3187" />
        <path
           style="fill:none;stroke:#000000;stroke-width:1;stroke-linecap:butt;stroke-linejoin:miter;stroke-miterlimit:4;stroke-dasharray:none;stroke-opacity:1"
           d="m 172.13351,206.79904 c 0.073,8.97128 0.33935,17.99161 2.08523,26.84619 0.69567,3.52835 2.73606,6.68903 3.27615,10.22979 0.34272,2.24684 -0.2835,4.91252 0.39698,7.05618 0.62574,1.97125 2.30849,3.40571 3.22599,5.22615 0.58454,1.15983 2.73235,9.30516 2.87919,10.67697 0.36359,3.39683 -1.47727,5.54501 -1.88674,8.70953 -0.13335,1.03055 0.49731,1.90775 0.49731,2.90317 0,0.9231 -0.46223,2.32809 -0.24865,3.26088 0.32035,1.39925 0.94652,3.58404 1.14075,4.64595"
           id="path3189" />
        <path
           style="fill:none;stroke:#000000;stroke-width:1;stroke-linecap:butt;stroke-linejoin:miter;stroke-miterlimit:4;stroke-dasharray:none;stroke-opacity:1"
           d="m 138.58233,231.18918 c 1.20764,-0.67035 2.4153,-1.3407 3.62297,-2.01105 0.0502,-0.0444 0.0835,-0.13306 0.15049,-0.13306 0.0599,0 -0.53435,1.6586 -0.84412,4.06358 -0.63445,4.92572 -2.44356,9.41618 -3.32632,14.29337 -0.70009,3.86795 -0.58092,7.84048 -1.2891,11.70432 -0.44458,2.4257 -1.19163,4.74557 -1.29128,7.23504 -0.0942,2.35341 0.40799,4.71984 0.24866,7.05834 -0.22934,3.36693 -1.23386,6.60839 -1.09276,10.00516 0.12819,3.08682 0.17616,6.51338 0.74597,9.55802 0.35026,1.87161 0.95697,3.36241 1.04042,5.27196 0.17875,4.09025 -0.60896,8.41153 0.0502,12.46116 0.40888,2.51216 1.54424,4.85209 1.9849,7.37029 0.3215,1.83731 0.43712,3.57645 0.0502,5.40501 -0.0359,0.16936 -1.23344,3.31078 -0.14833,2.45819"
           id="path3191" />
        <path
           style="fill:none;stroke:#000000;stroke-width:1;stroke-linecap:butt;stroke-linejoin:miter;stroke-miterlimit:4;stroke-dasharray:none;stroke-opacity:1"
           d="m 180.62055,258.97112 c -0.62707,11.30606 4.25733,21.21011 5.11273,32.20537 0.26095,3.35433 -0.67617,6.62622 -0.24866,10.00517 0.39989,3.16052 1.78364,6.22173 1.83658,9.42493 0.0293,1.77374 -0.47273,3.26618 -0.59547,5.00367 -0.57227,8.09995 -1.98189,16.13598 -4.01995,23.98665 -0.58351,2.24766 0.36473,4.39544 0.0502,6.61119 -0.25181,1.77353 -1.20772,3.36868 -1.68826,5.09093 -2.1881,5.16043 -1.25182,10.42823 -1.63809,15.76787 -0.1388,1.91915 -0.9476,3.78217 -0.84412,5.71693 0.0876,1.63825 0.75107,3.21718 0.84412,4.87061 0.11174,1.9849 -0.72662,3.92155 -0.44495,5.89579 0.5682,3.98245 1.9857,7.9212 2.3317,11.97041 0.19092,2.23438 -0.5406,4.29837 -0.59547,6.52177 -0.0639,2.59096 0.89802,5.15265 1.04261,7.728 0.12642,2.2515 -0.64817,4.35687 -0.59547,6.5654 0.0682,2.85636 1.14083,5.49177 0.84413,8.39761 -0.35248,3.45226 -1.84494,6.24284 0.0982,9.55802"
           id="path3193" />
        <path
           style="fill:none;stroke:#000000;stroke-width:1;stroke-linecap:butt;stroke-linejoin:miter;stroke-miterlimit:4;stroke-dasharray:none;stroke-opacity:1"
           d="m 138.48417,325.92951 c 1.22439,1.07169 2.57979,2.01001 3.67313,3.21508 1.53035,1.68675 0.70101,5.93254 1.33927,8.08572 0.55978,1.88849 1.79073,3.44456 2.1332,5.44862 0.27128,1.58742 0.17889,3.13076 0.6958,4.68958 0.64789,1.95366 1.73885,3.59439 2.23356,5.62748 0.84688,3.48049 0.65752,7.00923 1.68823,10.49811 1.56472,5.29648 3.13986,10.53134 4.56525,15.85732 0.55618,2.07815 1.59348,3.98394 2.08524,6.07463 0.54208,2.30473 0.78637,4.66783 1.33924,6.96894 0.73702,3.06747 1.69338,6.02355 1.88674,9.20027 0.4091,6.72082 -0.11922,13.52092 0.34682,20.23499 0.28702,4.13491 1.38692,8.11665 1.48976,12.32813 0.11621,4.76009 -1.1076,10.45517 0.49512,15.05244"
           id="path3195" />
        <path
           style="fill:none;stroke:#000000;stroke-width:1;stroke-linecap:butt;stroke-linejoin:miter;stroke-miterlimit:4;stroke-dasharray:none;stroke-opacity:1"
           d="m 203.80014,136.35942 c 1.29053,1.05717 2.79738,1.8951 3.87162,3.17148 0.22048,0.26196 0.39589,3.63379 0.5453,4.15298 2.26479,7.86974 2.34694,16.60792 3.27616,24.79151 0.25696,2.26311 1.32212,4.368 1.53775,6.65482 0.36426,3.86311 0.90668,7.64842 1.24111,11.52547 0.28183,3.26755 0.0869,6.56486 0.49512,9.82628 0.42674,3.40984 1.71069,6.61077 2.38405,9.96153 1.64568,8.18904 2.92306,16.42624 4.61542,24.61046 0.9004,4.35435 1.08095,8.82197 2.03504,13.17662 0.4354,1.98721 1.60663,3.73047 2.03507,5.7191 0.76181,3.536 0.27977,6.87509 2.1332,10.22763"
           id="path3197" />
        <path
           style="fill:none;stroke:#000000;stroke-width:1;stroke-linecap:butt;stroke-linejoin:miter;stroke-miterlimit:4;stroke-dasharray:none;stroke-opacity:1"
           d="m 238.2936,214.03624 c -0.34753,0.99753 -0.75142,1.97721 -1.04262,2.9926 -0.9336,3.25564 -0.97443,6.9298 -1.58789,10.27345 -0.6187,3.37204 -1.73625,6.62466 -1.73625,10.0946 0,3.21836 0.79248,5.8906 -0.0502,9.11304 -0.87926,3.36248 -2.57579,6.42652 -3.72329,9.69322 -0.84336,2.40091 -1.19679,4.88318 -2.03507,7.28086 -1.17248,3.35359 -3.02146,6.41162 -4.36676,9.69105 -1.12041,2.73127 -1.04627,5.82144 -1.63807,8.6659 -0.34176,1.64264 -1.12014,3.32055 -1.63808,4.91424"
           id="path3199" />
        <path
           style="fill:none;stroke:#000000;stroke-width:1;stroke-linecap:butt;stroke-linejoin:miter;stroke-miterlimit:4;stroke-dasharray:none;stroke-opacity:1"
           d="m 264.99583,128.85393 c 2.67382,5.0115 -2.68071,-0.88395 -2.68071,-0.35555 0,0.362 0.18555,0.93168 0.5475,0.93792 0.73697,0.0127 1.95403,-1.29735 2.13321,-0.58237 0.29546,1.17903 -1.02582,2.20742 -1.4396,3.35031 -0.54086,1.49394 -0.37534,3.76285 -0.69361,5.36139 -0.38544,1.93569 0.54729,3.95356 0.49512,5.89579 -0.0552,2.05417 -0.53512,4.09932 -0.49512,6.16405 0.0398,2.05398 0.79751,3.99198 0.99243,6.03101 0.14454,1.51178 -1.00862,2.91145 -0.74597,4.28607 0.17627,0.92252 0.71771,1.62698 0.79397,2.59125 0.10019,1.26709 -0.50875,2.34818 -0.59548,3.575 -0.20529,2.90438 -0.25061,5.8429 -0.39698,8.75313 -0.17764,3.53192 0.0313,7.05897 -0.048,10.58754 -0.0793,3.53004 -0.95107,6.89186 -1.3916,10.36288 -0.23476,1.84968 -0.089,3.72808 -0.34681,5.58385 -0.29946,2.15532 -1.47598,4.04129 -1.73625,6.2077 -0.57309,4.77065 -0.69064,9.59427 -1.24108,14.38281 -0.19371,1.68494 -0.96944,3.1973 -1.19095,4.86843 -0.57076,4.30573 0.21442,9.36329 1.5879,12.82108"
           id="path3201" />
        <path
           style="fill:none;stroke:#000000;stroke-width:1;stroke-linecap:butt;stroke-linejoin:miter;stroke-miterlimit:4;stroke-dasharray:none;stroke-opacity:1"
           d="m 252.53901,241.55206 c 0.13231,0.98227 0.26656,1.96427 0.39698,2.9468 0.28215,2.1259 0.55168,4.19274 0.39698,6.34291 -0.22511,3.12851 -1.86973,7.92506 -0.34901,10.89945"
           id="path3203" />
        <path
           style="fill:none;stroke:#000000;stroke-width:1;stroke-linecap:butt;stroke-linejoin:miter;stroke-miterlimit:4;stroke-dasharray:none;stroke-opacity:1"
           d="m 257.5514,267.36873 c -0.0829,1.05714 -0.67802,2.20186 -0.24865,3.17145 0.37089,0.83757 5.24404,6.64035 6.94928,6.29931"
           id="path3205" />
        <path
           style="fill:none;stroke:#000000;stroke-width:1;stroke-linecap:butt;stroke-linejoin:miter;stroke-miterlimit:4;stroke-dasharray:none;stroke-opacity:1"
           d="m 266.08861,241.68512 c -0.33827,-1.98165 -2.23626,-2.52902 -2.97953,-4.15301 -0.21486,-0.4695 -0.29662,-2.03663 -0.29662,-1.52029 0,6.17431 3.38436,11.46794 4.46709,17.37542 0.73975,4.03627 -0.16788,7.7401 0.0502,11.74793 0.14808,2.72216 0.7444,5.39332 0.79393,8.12932 0.0572,3.15621 -0.43635,6.27697 -0.49731,9.42496 -0.0392,2.0265 0.24863,4.15041 0,6.16408 -0.24699,2.00035 -1.14662,3.84262 -1.53773,5.80853 -0.30716,1.54379 -0.0459,3.13886 -0.24866,4.68955 -0.22008,1.6832 -0.86331,3.30774 -1.2411,4.95787 -1.39198,6.0797 -2.39861,12.11183 -2.68068,18.31335 -0.0763,1.67783 -0.56888,3.84378 -0.44715,5.31558"
           id="path3207" />
        <path
           style="fill:none;stroke:#000000;stroke-width:1;stroke-linecap:butt;stroke-linejoin:miter;stroke-miterlimit:4;stroke-dasharray:none;stroke-opacity:1"
           d="m 228.86427,274.29184 c -3.86476,2.49854 -2.79235,6.16095 -4.36893,10.00734 -2.45612,5.99228 -5.09884,11.88624 -6.74862,18.17809 -1.03653,3.95308 -0.1965,8.06894 -0.49731,12.06203 -0.20431,2.71201 -0.77004,5.3952 -0.59547,8.12933 0.11332,1.77501 0.52504,3.46657 0.44715,5.26978 -0.14944,3.45953 -0.94914,6.57027 -0.7438,10.09457 0.10364,1.77858 0.76716,3.47244 1.04045,5.22616 0.30223,1.93971 0.2155,3.87746 0.6958,5.80633 0.91075,3.65765 2.58312,7.21275 3.17582,10.94526 0.30427,1.91616 -0.0907,3.8863 0.10033,5.80636 0.37999,3.81981 0.70453,7.59042 0.89212,11.43383 0.28935,5.92858 -0.40413,11.69975 0.89426,17.51066 0.45504,2.03636 -0.14208,3.94586 0.59548,5.94159 1.33871,3.62235 -1.43746,9.93121 -1.83656,13.48851 -0.38049,3.39127 -0.77316,6.854 -1.48759,10.22982 -0.48435,2.28867 -1.33615,4.50308 -1.63806,6.83371 -0.2081,1.60637 0.11668,3.21112 -0.10036,4.82262 -0.22058,1.63793 -0.88651,4.39756 -0.79393,5.45081"
           id="path3209" />
        <path
           style="fill:none;stroke:#000000;stroke-width:1;stroke-linecap:butt;stroke-linejoin:miter;stroke-miterlimit:4;stroke-dasharray:none;stroke-opacity:1"
           d="m 261.47102,327.93841 c -1.35689,3.5972 -0.46757,7.4436 -1.33927,11.12192 -0.41301,1.74286 -1.01801,3.3737 -1.19094,5.18253 -0.14303,1.49627 0.1538,3.18185 -0.19849,4.64375 -0.56396,2.3404 -1.79411,4.2046 -2.18337,6.65702 -0.60198,3.79267 -0.56285,7.14521 -1.93691,10.85366 -1.89256,5.10784 -1.88896,10.70922 -2.829,16.03616 -1.03942,5.88999 -2.25991,11.75351 -3.0275,17.68734 -0.37613,2.90759 -0.24127,5.98623 -0.84195,8.84476 -0.59656,2.83885 -2.27082,5.44814 -2.68068,8.30818 -0.71009,4.9549 -0.29917,9.99411 -1.34144,14.96301 -1.33048,6.3428 -1.06698,12.40589 -1.33927,18.84992 -0.0316,0.74922 -3.41362,15.75628 -1.04261,11.25715"
           id="path3211" />
        <path
           style="fill:none;stroke:#000000;stroke-width:1;stroke-linecap:butt;stroke-linejoin:miter;stroke-miterlimit:4;stroke-dasharray:none;stroke-opacity:1"
           d="m 222.61079,437.46289 c -0.49659,1.57845 -1.23018,3.10113 -1.48976,4.73538 -0.34142,2.14932 1.04669,6.39742 1.19094,8.48704 0.18947,2.74513 -0.98171,12.53818 0.74377,14.47226 0.33984,0.38087 0.13965,-1.01134 0.20069,-1.51813"
           id="path3213" />
        <path
           style="fill:none;stroke:#000000;stroke-width:1;stroke-linecap:butt;stroke-linejoin:miter;stroke-miterlimit:4;stroke-dasharray:none;stroke-opacity:1"
           d="m 162.45553,449.21082 c 0.52929,2.43422 1.06555,4.86693 1.58792,7.30265 1.35088,6.29915 0.25897,12.62359 -2.08304,18.49218 -1.74117,4.36296 -4.30466,8.09477 -5.11273,12.81891 -0.1629,0.95229 -1.28209,4.48365 -0.5453,5.22615 0.42449,0.42778 10.86037,1.82724 11.91151,1.78642 2.33371,-0.0907 4.45032,-1.76303 6.65049,-2.41023 1.15205,-0.3389 2.62297,0.22247 3.77129,0.22247 1.78289,0 3.44808,-1.10099 5.21086,-1.33925 2.89714,-0.39158 6.94307,1.53274 9.48169,-0.89429 4.22786,-4.04204 -5.94217,-11.57766 -7.59494,-14.3392 -0.62244,-1.03999 -1.26786,-2.74171 -1.58793,-3.93051 -0.73112,-2.71561 0.5044,-8.92347 1.33927,-11.6585 0.36544,-1.19724 1.29217,-2.87885 1.34144,-4.06357 0.0782,-1.88013 -0.33753,-3.72835 -0.24866,-5.62751 0.11076,-2.36667 0.13954,-5.16334 -1.04261,-7.28083"
           id="path3215" />
        <path
           style="fill:none;stroke:#000000;stroke-width:1;stroke-linecap:butt;stroke-linejoin:miter;stroke-miterlimit:4;stroke-dasharray:none;stroke-opacity:1"
           d="m 177.79154,455.17204 c 0.73544,4.21153 0.92575,8.81668 2.2837,12.9105"
           id="path3217" />
        <path
           style="fill:none;stroke:#000000;stroke-width:1;stroke-linecap:butt;stroke-linejoin:miter;stroke-miterlimit:4;stroke-dasharray:none;stroke-opacity:1"
           d="m 223.25643,463.63944 c -0.53004,-0.64854 -0.94155,-2.47565 -1.59009,-1.94564 -0.64855,0.53004 1.66116,1.11107 1.59009,1.94564 -0.10917,1.2822 -1.42708,2.14638 -2.03507,3.28052 -0.62949,1.17427 -0.80298,2.78347 -1.14295,4.06575 -1.5513,5.85147 -6.29271,10.84082 -4.66558,17.37542 0.49295,1.97972 3.13973,2.72434 4.86408,2.72434 1.75524,0 3.51578,-0.67255 5.26105,-0.44715 0.96456,0.12457 1.85883,0.95038 2.87917,0.80486 2.98654,-0.426 5.3993,-2.59442 8.48704,-2.85956 1.70484,-0.14639 3.40471,0.18095 5.11273,0 0.21383,-0.0227 4.47926,-1.68394 4.81391,-2.23353 1.06791,-1.75387 -0.44591,-3.78431 -0.64564,-5.53808 -0.30358,-2.66559 -1.50556,-5.54198 -3.5728,-7.50331 -4.55155,-4.31843 -3.78995,-7.79304 -3.87162,-13.759 -0.0839,-6.13008 0.0645,-11.5629 1.53773,-17.50848 0.38317,-1.54631 0.64241,-3.17815 0.5475,-4.77901 -0.023,-0.38825 -2.08505,-7.41588 -1.29127,-4.06575"
           id="path3219" />
        <path
           style="fill:none;stroke:#000000;stroke-width:1;stroke-linecap:butt;stroke-linejoin:miter;stroke-miterlimit:4;stroke-dasharray:none;stroke-opacity:1"
           d="m 116.69618,-46.006151 c 0.47784,4.126785 -0.71443,7.933213 -1.58792,11.883151 -0.10848,0.490644 -1.54506,3.832516 -1.48974,3.841089 0.93882,0.145679 1.88601,0.231219 2.82901,0.346816"
           id="path3221" />
        <path
           style="fill:none;stroke:#000000;stroke-width:1;stroke-linecap:butt;stroke-linejoin:miter;stroke-miterlimit:4;stroke-dasharray:none;stroke-opacity:1"
           d="m 291.30107,-37.071966 c -0.14904,0.953161 -0.27175,1.910847 -0.44714,2.859537 -0.22863,1.23661 -0.69364,2.42488 -0.69364,3.70586 0,2.029883 0.81624,5.809298 0.1985,7.058343"
           id="path3223" />
        <path
           style="fill:none;stroke:#000000;stroke-width:1;stroke-linecap:butt;stroke-linejoin:miter;stroke-miterlimit:4;stroke-dasharray:none;stroke-opacity:1"
           d="m 109.44805,66.726879 c -1.87462,4.193831 -0.50257,8.474207 -0.14832,12.827608 0.0405,0.49784 -0.42587,1.930003 -0.44495,1.430867 -0.0679,-1.774164 -0.10033,-3.549518 -0.1505,-5.32429"
           id="path3225" />
        <path
           style="fill:none;stroke:#000000;stroke-width:1;stroke-linecap:butt;stroke-linejoin:miter;stroke-miterlimit:4;stroke-dasharray:none;stroke-opacity:1"
           d="m 144.83581,34.789766 c -0.26392,-0.354806 -0.43696,-1.328341 -0.79176,-1.064419 -0.35481,0.263922 0.80504,0.622406 0.79176,1.064419 -0.0406,1.349507 -0.67183,2.616491 -0.94226,3.939249 -0.0538,0.262837 -0.0947,1.055899 0,0.804862 0.30202,-0.801026 -0.14989,-1.877589 0.0502,-2.680705 0.1811,-0.727102 0.91731,-1.314503 0.89209,-2.063406 -0.0447,-1.327415 -0.74581,-2.549737 -1.09059,-3.832357 -0.22441,-0.834867 1.14422,-3.703294 0.59548,-5.182526 -0.35193,-0.948611 -0.9248,-2.164292 -0.99246,-2.946797"
           id="path3227" />
        <path
           style="fill:none;stroke:#000000;stroke-width:1;stroke-linecap:butt;stroke-linejoin:miter;stroke-miterlimit:4;stroke-dasharray:none;stroke-opacity:1"
           d="m 292.98933,-31.130403 c -0.0557,-1.935004 -1.05358,-2.802996 -1.83658,-4.198806 -0.2081,-0.370945 0.67458,0.646086 0.69363,1.070981 0.0497,1.108921 1.23312,2.021469 1.14295,3.127825 -0.27377,3.358806 -1.83878,3.095122 -1.53993,5.939419 0.17354,1.651714 0.62698,3.930518 0.54747,3.930518 -0.94456,0 -0.73297,-1.742546 -1.04261,-2.634906 -0.7515,-2.165747 -1.48977,-4.415711 -1.48977,-6.744256 0,-3.375501 1.29477,-2.397654 1.48977,0.08943 0.39706,5.064046 0.0795,-0.06157 0.24865,3.171455 0.1093,2.088488 0.0991,1.050105 -0.84412,3.930518"
           id="path3229" />
        <path
           style="fill:none;stroke:#000000;stroke-width:1;stroke-linecap:butt;stroke-linejoin:miter;stroke-miterlimit:4;stroke-dasharray:none;stroke-opacity:1"
           d="m 293.48444,25.373536 c -1.12181,2.330847 -1.24918,4.704424 -0.99243,7.235031 0.0822,0.810446 0.23842,1.84703 0.49732,2.680706 0.0544,0.175127 0.3842,0.614256 0.24865,0.490749 -1.58951,-1.448197 -1.25373,-5.393214 -0.84413,-7.191401 0.25133,-1.103419 0.39704,-4.109324 1.09059,-3.215085 0.1148,0.148008 -1.35115,7.122742 0.79396,6.065917"
           id="path3231" />
        <path
           style="fill:none;stroke:#000000;stroke-width:1;stroke-linecap:butt;stroke-linejoin:miter;stroke-miterlimit:4;stroke-dasharray:none;stroke-opacity:1"
           d="m 216.80443,309.0514 c 0.53835,4.64039 -1.18403,9.31928 -0.49731,13.93785 0.29279,1.96913 0.83741,3.78407 0.79397,5.80636 -0.0381,1.77355 -0.87279,3.2262 -0.7438,5.09093 0.16364,2.36537 0.50377,4.35096 0.29665,6.74642"
           id="path3233" />
        <path
           style="fill:none;stroke:#000000;stroke-width:1;stroke-linecap:butt;stroke-linejoin:miter;stroke-miterlimit:4;stroke-dasharray:none;stroke-opacity:1"
           d="m 215.16637,324.19546 c 0.1156,1.74207 0.34679,3.48027 0.34679,5.22615 0,5.76739 -0.54075,2.19763 -0.34679,6.02883 0.15071,2.97677 1.02868,5.69034 1.38941,8.62229 0.25752,2.09285 0,4.21439 0.44714,6.29711 0.26901,1.25103 1.29125,2.07404 1.4396,3.26088"
           id="path3235" />
        <path
           style="fill:none;stroke:#000000;stroke-width:1;stroke-linecap:butt;stroke-linejoin:miter;stroke-miterlimit:4;stroke-dasharray:none;stroke-opacity:1"
           d="m 218.44252,353.63072 c 5.98281,10.95963 4.12486,23.12062 4.76375,35.06494"
           id="path3237" />
        <path
           style="fill:none;stroke:#000000;stroke-width:1;stroke-linecap:butt;stroke-linejoin:miter;stroke-miterlimit:4;stroke-dasharray:none;stroke-opacity:1"
           d="m 221.27153,375.07189 c 0.11559,1.83076 0.17208,3.6662 0.34681,5.49228 0.76568,8.00195 1.7145,15.88619 1.83658,23.94299 0.004,0.28459 -0.69321,11.38206 0.69361,5.85216"
           id="path3239" />
        <path
           style="fill:none;stroke:#000000;stroke-width:1;stroke-linecap:butt;stroke-linejoin:miter;stroke-miterlimit:4;stroke-dasharray:none;stroke-opacity:1"
           d="m 223.65341,400.04007 c 0.40042,5.57974 -0.42651,11.11776 -1.24111,16.61636 -0.15753,1.06336 -1.98337,11.39134 -2.28372,11.3008 -0.68591,-0.20679 -0.14833,-1.42771 -0.14833,-2.14413"
           id="path3241" />
        <path
           style="fill:none;stroke:#000000;stroke-width:1;stroke-linecap:butt;stroke-linejoin:miter;stroke-miterlimit:4;stroke-dasharray:none;stroke-opacity:1"
           d="m 220.4754,417.32606 c -0.97833,4.91435 -1.00915,9.9259 -1.73623,14.87578 -0.006,0.0407 -0.82441,4.02479 -0.34681,4.1988 1.36242,0.49639 2.81228,0.70816 4.21843,1.06225"
           id="path3243" />
        <path
           style="fill:none;stroke:#000000;stroke-width:1;stroke-linecap:butt;stroke-linejoin:miter;stroke-miterlimit:4;stroke-dasharray:none;stroke-opacity:1"
           d="m 222.61079,437.46289 c -6.98391,2.23454 3.29883,9.52262 -4.71574,4.06575"
           id="path3245" />
        <path
           style="fill:none;stroke:#000000;stroke-width:1;stroke-linecap:butt;stroke-linejoin:miter;stroke-miterlimit:4;stroke-dasharray:none;stroke-opacity:1"
           d="m 222.61079,437.46289 c -5.68258,-0.6386 2.13966,2.42578 -4.71574,4.06575"
           id="path3247" />
        <path
           style="fill:none;stroke:#000000;stroke-width:1;stroke-linecap:butt;stroke-linejoin:miter;stroke-miterlimit:4;stroke-dasharray:none;stroke-opacity:1"
           d="m 241.61992,422.55222 c 0.27588,-3.23241 0.54147,-6.84683 1.04261,-10.00517 0.0865,-0.54525 0.4894,-2.11314 0.54531,-1.56389 0.28408,2.79146 -1.85158,5.39945 -1.98488,8.12932 -0.0563,1.15281 0.49774,2.28994 0.39696,3.43974 -0.0866,0.98832 -1.27249,8.9067 -2.08521,10.64424"
           id="path3249" />
        <path
           style="fill:none;stroke:#000000;stroke-width:1;stroke-linecap:butt;stroke-linejoin:miter;stroke-miterlimit:4;stroke-dasharray:none;stroke-opacity:1"
           d="m 246.1372,411.69859 c -1.45195,7.20238 -3.13809,14.33896 -4.41912,21.57423 -0.23217,1.31135 -0.50401,2.58199 -0.94226,3.84109 -0.058,0.16663 -0.14521,0.65897 -0.19849,0.49075 -0.45604,-1.43942 -0.69509,-2.93881 -1.04262,-4.4082"
           id="path3251" />
        <path
           style="fill:none;stroke:#000000;stroke-width:1;stroke-linecap:butt;stroke-linejoin:miter;stroke-miterlimit:4;stroke-dasharray:none;stroke-opacity:1"
           d="m 239.53471,433.19646 c 0.62891,0.45733 1.77429,0.60254 1.88672,1.37197 0.52525,3.59426 -1.91688,9.74304 -1.24108,14.56169 0.42899,4.50056 -1.94787,9.31711 -0.29883,13.75682 0.16084,0.43305 -0.0324,-0.92337 -0.048,-1.38506 -0.0946,-2.79721 -0.14285,-5.75564 -0.1505,-5.62751 -0.10607,1.77422 0.26919,4.40923 -0.5453,6.03102 -0.30123,0.59976 -0.75205,-2.16231 -0.0982,-2.01107 1.13202,0.26186 1.65335,1.63298 2.48002,2.44949"
           id="path3253" />
        <path
           style="fill:none;stroke:#000000;stroke-width:1;stroke-linecap:butt;stroke-linejoin:miter;stroke-miterlimit:4;stroke-dasharray:none;stroke-opacity:1"
           d="m 181.0197,425.50119 c 0.54604,1.31019 1.30421,2.55095 1.63809,3.93054 0.85397,3.52846 0.41859,6.66194 0.5453,10.2298 0.0832,2.34267 0.008,2.88618 0.8921,4.64378 0.27003,0.53657 1.44708,1.49839 1.48976,2.1441 0.0101,0.15227 -0.0955,0.59973 -0.0982,0.44715 -0.0193,-1.12689 0.032,-2.25391 0.048,-3.38085"
           id="path3255" />
        <path
           style="fill:none;stroke:#000000;stroke-width:1;stroke-linecap:butt;stroke-linejoin:miter;stroke-miterlimit:4;stroke-dasharray:none;stroke-opacity:1"
           d="m 182.11031,434.29144 c 2.00438,3.93806 2.81855,8.18719 3.02749,12.56152 0.15844,3.31628 -0.48929,6.77052 0.0502,10.04876 0.18894,1.14806 0.50718,2.27434 0.59547,3.43975 0.0159,0.20806 0.10038,0.80893 0,0.626 -1.61271,-2.9387 0.11856,-14.21701 0.10033,-17.42122 -0.0315,-5.54903 -2.93296,-10.11542 -3.27615,-15.54322 -0.14343,-2.26838 1.167,-6.57378 -0.64564,-8.44341 -0.63222,-0.65211 -0.15703,1.82237 -0.0502,2.72431 0.22632,1.91016 0.98007,3.6957 1.19094,5.62967 0.10025,0.91956 0.13232,1.84529 0.19849,2.76794 -0.39698,1.2033 -1.23473,2.34358 -1.19094,3.6099 0.0445,1.2859 1.10466,2.33921 1.4396,3.5815 0.37473,1.39007 2.8344,13.23986 0.89429,14.56169 -0.49514,0.33735 0.11829,-1.19266 0.19849,-1.78641 0.40754,-3.0181 1.47159,-11.08554 -0.15052,-13.8026 -0.59674,-0.99957 -2.1258,-1.41856 -2.38186,-2.55418 -0.25971,-1.15181 0.84751,-2.22076 1.04262,-3.38524 0.30115,-1.79766 -0.45249,-4.37952 -0.64564,-6.25348 -0.29268,-2.83935 -1.98715,-5.33667 -2.28153,-8.08572 -0.60333,-5.63393 -0.0502,-11.44079 -0.0502,-17.10711"
           id="path3257" />
        <path
           style="fill:none;stroke:#000000;stroke-width:1;stroke-linecap:butt;stroke-linejoin:miter;stroke-miterlimit:4;stroke-dasharray:none;stroke-opacity:1"
           d="m 260.13175,233.47507 c 3.17283,3.33693 -1.22909,-3.45241 -1.14077,-2.90316 0.16512,1.02655 0.79856,1.92135 1.14077,2.90316 0.4353,1.24889 -0.0313,3.75166 1.29128,3.75166 0.51064,0 -0.58926,-0.85254 -0.7438,-1.33924 -0.24953,-0.78592 -1.02468,-3.08488 -0.54748,-2.41242 0.84109,1.18526 1.09562,2.69293 1.68826,4.01995 1.20057,2.68843 2.14982,1.43486 -3.27618,2.1812"
           id="path3259" />
        <path
           style="fill:none;stroke:#000000;stroke-width:0.264583px;stroke-linecap:butt;stroke-linejoin:miter;stroke-opacity:1"
           d="m 228.91444,-127.26451 c -0.10406,-0.0148 -0.29729,-0.14869 -0.31218,-0.0447 -0.0148,0.10406 0.29194,0.14782 0.31218,0.0447 0.0443,-0.22569 -0.13605,-0.43968 -0.1909,-0.66304 -0.0723,-0.29435 0.1088,-0.68445 0.17193,-0.96449 0.0331,-0.1469 -0.10713,-0.35271 -0.1315,-0.50022 -0.13353,-0.80875 -0.2726,-1.67717 -0.33364,-2.49272 -0.0294,-0.39354 0,-0.82418 -0.0911,-1.21018 -0.053,-0.2223 -0.19317,-0.40521 -0.24257,-0.62772 -0.0816,-0.36785 -0.0445,-0.74901 -0.11104,-1.11908 -0.0797,-0.44342 -0.36047,-0.8273 -0.4145,-1.26434 -0.0212,-0.17203 -0.0143,-0.35444 -0.0204,-0.52779 -0.003,-0.0515 0,-0.20614 0,-0.1546 0,0.13155 0.1202,0.19897 0.15192,0.32742 0.19746,0.79955 0.37706,1.60269 0.57621,2.40165 0.26215,1.05178 0.20214,2.16967 0.20214,3.23906 0,1.03947 -0.22145,2.03377 -0.50556,3.02937 -0.0886,0.31039 -0.20487,0.61201 -0.30343,0.91874 -0.0465,0.1447 -0.13107,0.58867 -0.13107,0.4367 0,-0.17069 0.2245,-0.42977 0.283,-0.59129 0.25291,-0.69848 0.41907,-1.44817 0.57621,-2.17419 0.0793,-0.36674 0.0883,-0.71072 0.11104,-1.08268 0.009,-0.14237 0,-0.57015 0.0103,-0.4278 0.0317,0.47979 0.0818,0.99639 0.0103,1.47405 -0.0765,0.51067 -0.28631,0.97591 -0.34385,1.4918 -0.0327,0.29292 -0.33936,0.82343 -0.0507,0.88273 0.28564,0.0587 0.51821,-0.26758 0.77732,-0.40138"
           id="path3320" />
        <path
           style="fill:none;stroke:#ff0000;stroke-width:2;stroke-linecap:butt;stroke-linejoin:miter;stroke-miterlimit:4;stroke-dasharray:none;stroke-opacity:1"
           d="m 175.50276,-150.21145 h 58.5142"
           id="path3359" />
        <path
           style="fill:none;stroke:#ff0000;stroke-width:2;stroke-linecap:butt;stroke-linejoin:miter;stroke-miterlimit:4;stroke-dasharray:none;stroke-opacity:1"
           d="m 183.30125,-107.83441 h 48.43328"
           id="path3361" />
        <path
           style="fill:none;stroke:#ff0000;stroke-width:2;stroke-linecap:butt;stroke-linejoin:miter;stroke-miterlimit:4;stroke-dasharray:none;stroke-opacity:1"
           d="M 142.60228,-57.16226 H 265.24999"
           id="path3363" />
        <path
           style="fill:none;stroke:#ff0000;stroke-width:2;stroke-linecap:butt;stroke-linejoin:miter;stroke-miterlimit:4;stroke-dasharray:none;stroke-opacity:1"
           d="m 166.46558,28.85503 h 84.83539"
           id="path3365" />
        <path
           style="fill:none;stroke:#ff0000;stroke-width:2;stroke-linecap:butt;stroke-linejoin:miter;stroke-miterlimit:4;stroke-dasharray:none;stroke-opacity:1"
           d="M 143.39455,104.17902 H 264.81046"
           id="path3367" />
        <path
           style="fill:none;stroke:#ff0000;stroke-width:2;stroke-linecap:butt;stroke-linejoin:miter;stroke-miterlimit:4;stroke-dasharray:none;stroke-opacity:1"
           d="M 88.562323,-101.97203 V 487.34159"
           id="path3369" />
        <path
           style="fill:none;stroke:#ff0000;stroke-width:2;stroke-linecap:butt;stroke-linejoin:miter;stroke-miterlimit:4;stroke-dasharray:none;stroke-opacity:1"
           d="M 106.63281,-90.20903 V 129.52089"
           id="path3371" />
        <path
           style="fill:none;stroke:#ff0000;stroke-width:2;stroke-linecap:butt;stroke-linejoin:miter;stroke-miterlimit:4;stroke-dasharray:none;stroke-opacity:1"
           d="M 119.96884,240.53093 V 487.10254"
           id="path3373" />
        <path
           style="fill:none;stroke:#ff0000;stroke-width:2;stroke-linecap:butt;stroke-linejoin:miter;stroke-miterlimit:4;stroke-dasharray:none;stroke-opacity:1"
           d="M 207.5223,146.1803 V 491.60185"
           id="path3375" />
        <path
           style="fill:none;stroke:#ff0000;stroke-width:2;stroke-linecap:butt;stroke-linejoin:miter;stroke-miterlimit:4;stroke-dasharray:none;stroke-opacity:1"
           d="M 301.39098,40.382846 V 488.6023"
           id="path3377" />
        <path
           style="fill:none;stroke:#ff0000;stroke-width:2;stroke-linecap:butt;stroke-linejoin:miter;stroke-miterlimit:4;stroke-dasharray:none;stroke-opacity:1"
           d="M 207.87313,-103.62986 V 33.11916"
           id="path3379" />
        <path
           style="fill:none;stroke:#000000;stroke-width:1;stroke-linecap:butt;stroke-linejoin:miter;stroke-miterlimit:4;stroke-dasharray:none;stroke-opacity:1"
           d="m -96.882741,-216.69522 c -5.962069,0.7016 -12.979269,4.53794 -16.770059,9.44306 -0.96896,1.25377 -1.57575,2.75484 -2.52071,4.02862 -1.59417,2.14886 -3.68081,4.10975 -4.93969,6.4815 -1.61648,3.04545 -2.51204,6.55656 -4.16653,9.53575 -0.90225,1.62467 -1.94649,2.81533 -2.31497,4.72266 -1.32062,6.83523 0.85029,12.90556 1.5938,19.6299 0.3683,3.33083 0.009,6.78248 0.20799,10.13936 0.39139,6.59287 2.23303,13.82411 1.44007,20.46184 -0.28718,2.40406 -1.06442,4.74425 -1.64806,7.08512"
           id="path4772" />
        <path
           style="fill:none;stroke:#000000;stroke-width:1;stroke-linecap:butt;stroke-linejoin:miter;stroke-miterlimit:4;stroke-dasharray:none;stroke-opacity:1"
           d="m -118.74621,-148.45516 c 3.3184,5.2525 5.94566,11.59627 10.80174,15.74144 2.01634,1.72117 5.18536,1.49778 7.3564,3.14693 2.119946,1.61036 2.739547,4.87749 6.020327,4.49207 5.529792,-0.64963 8.297175,-6.74201 11.265191,-10.46491 1.009438,-1.26616 2.290815,-2.28714 3.291628,-3.5629 0.886593,-1.13017 1.699631,-2.47507 2.161249,-3.84324 0.178753,-0.52976 0.513186,-4.75712 0.513186,-2.50036"
           id="path4774" />
        <path
           style="fill:none;stroke:#000000;stroke-width:1;stroke-linecap:butt;stroke-linejoin:miter;stroke-miterlimit:4;stroke-dasharray:none;stroke-opacity:1"
           d="m -74.815777,-171.23425 c 0.29165,2.4544 0.831506,4.89191 0.874898,7.36319 0.07281,4.14522 -2.092458,8.20846 -2.572703,12.31418 -0.576315,4.92722 0.0037,10.40432 0.463444,15.32322 0.09641,1.03108 1.861741,3.52785 1.544082,4.53726 -0.221641,0.70438 -2.250757,1.66394 -3.036146,2.1771"
           id="path4776" />
        <path
           style="fill:none;stroke:#000000;stroke-width:1;stroke-linecap:butt;stroke-linejoin:miter;stroke-miterlimit:4;stroke-dasharray:none;stroke-opacity:1"
           d="m -71.779604,-162.067 c -0.703104,0.81839 -1.406181,1.63677 -2.109258,2.45515 -0.01746,0.0309 -0.07093,0.12264 -0.05202,0.0927 0.594942,-0.94145 1.571492,-1.60314 2.161275,-2.54784 2.660147,-4.26105 2.147358,-9.58528 3.703055,-14.16572 0.636456,-1.87386 1.917965,-3.56124 2.213266,-5.55686 0.475033,-3.21045 0.793115,-8.51549 -0.207989,-11.57267 -1.839118,-5.61629 -6.127141,-12.87714 -11.161209,-16.1122 -4.57417,-2.93951 -9.359371,-3.06128 -14.405372,-4.5825 -0.923819,-0.27851 -1.972389,-0.13829 -2.92989,-0.27807 -0.31869,-0.0465 -0.421058,0.99524 -0.619442,0.74152 -0.725805,-0.92824 -1.13038,-2.06781 -1.695556,-3.10172"
           id="path4778" />
        <path
           style="fill:none;stroke:#000000;stroke-width:1;stroke-linecap:butt;stroke-linejoin:miter;stroke-miterlimit:4;stroke-dasharray:none;stroke-opacity:1"
           d="m -77.542202,-129.5193 c 6.520232,0.91646 11.497521,6.18987 17.850696,7.49882 1.79832,0.37052 3.681545,0.25313 5.452877,0.78674 2.137199,0.64384 3.861515,1.28169 6.174052,1.11228"
           id="path4788" />
        <path
           style="fill:none;stroke:#000000;stroke-width:1;stroke-linecap:butt;stroke-linejoin:miter;stroke-miterlimit:4;stroke-dasharray:none;stroke-opacity:1"
           d="m -53.210008,-115.90972 c 8.126492,-2.30938 16.18435,-3.54203 24.485943,-1.94423 1.080479,0.20796 2.720473,-0.15026 3.705331,0.32554 0.812853,0.39269 1.353265,1.62428 2.057268,2.22004 1.106673,0.93652 2.663349,1.53932 3.497342,2.77844 1.398058,2.07711 2.778442,11.07922 2.778442,13.889912 0,1.846474 -0.474054,3.705357 -0.309721,5.55461 0.224155,2.522273 1.338342,4.79671 1.338342,7.408386 0,6.306105 -1.291722,12.353078 -2.314972,18.517632 -0.304218,1.832715 -0.05363,3.683238 -0.309721,5.509392"
           id="path4790" />
        <path
           style="fill:none;stroke:#000000;stroke-width:1;stroke-linecap:butt;stroke-linejoin:miter;stroke-miterlimit:4;stroke-dasharray:none;stroke-opacity:1"
           d="m -126.0009,-125.16741 c -2.70688,2.57151 -4.78761,6.21848 -7.9216,8.33305 -1.01166,0.6826 -2.17993,0.81712 -3.2916,1.25019 -3.83252,1.49294 -9.37766,3.91139 -13.42647,4.67519 -3.63426,0.68556 -7.01709,1.43176 -10.4943,2.73094 -0.88993,0.33251 -2.16461,-0.0803 -3.13788,0.18537 -3.30044,0.90093 -8.19261,2.69447 -10.75203,5.00073 -4.01709,3.61982 -5.2908,8.904475 -7.09869,13.794981 -1.4292,3.866171 -4.51279,7.471277 -5.29688,11.574912 -0.41156,2.153973 0.44865,4.198964 0.35946,6.343597 -0.15161,3.645032 -0.73321,6.962113 -0.41145,10.648024 0.20529,2.351643 1.49209,4.356152 1.49209,6.757326 -0.49083,4.765331 -2.88846,9.075314 -3.96081,13.659326 -0.43945,1.878568 -1.22524,3.493822 -1.7498,5.323998 -0.39735,1.386364 -0.0441,2.864591 -0.35946,4.25921 -0.32502,1.437587 -1.27077,2.629191 -1.64582,4.073842 -0.50567,1.947863 -0.16772,4.032091 -0.46344,6.018054 -0.23,1.544664 -1.00039,2.951162 -1.23436,4.489794 -0.53655,3.528721 -0.6544,7.2200556 -0.72118,10.7881999 -0.0449,2.3990829 -0.83822,4.68270164 -0.77089,7.0828693 0.0805,2.8717081 0.8749,5.4580895 0.8749,8.3804918 0,0.447649 0,-0.8952442 0,-1.3428662 -0.53374,3.5426912 -0.45535,7.3235342 -1.28635,10.8334172 -1.41219,5.964555 -4.24159,11.874474 -4.62997,18.054161 -0.23744,3.777694 0.74718,7.390792 0.8749,11.111468 0.18396,5.359241 -0.362,10.767377 0,16.112225 0.14232,2.101242 0.88754,4.122579 1.02862,6.203421 0.13602,2.006044 -0.2091,4.006824 -0.15372,6.018054 0.16181,5.876581 0.44264,12.032641 0.97663,17.871069 0.21666,2.368709 1.35331,4.705906 1.85155,7.035376 0.78579,3.67398 0.46344,7.46673 0.46344,11.15896"
           id="path4794" />
        <path
           style="fill:none;stroke:#000000;stroke-width:1;stroke-linecap:butt;stroke-linejoin:miter;stroke-miterlimit:4;stroke-dasharray:none;stroke-opacity:1"
           d="m -196.88601,113.25797 c -3.89905,6.61572 -3.51633,14.04157 -4.52823,21.34127 -0.27017,1.94889 -0.75825,3.99605 -0.71893,5.97283 0.0279,1.40116 0.4867,2.7295 0.51319,4.12131 0.0663,3.48009 -0.39497,6.59011 0.87489,9.95397 0.88363,2.34069 2.89843,3.60635 4.32253,5.55461 1.82613,2.49827 3.96055,5.25301 5.50262,7.91707 0.93011,1.60687 1.49963,3.15968 2.83043,4.53729 1.53059,1.5844 3.63096,2.57858 5.19515,4.16653 1.051,1.06696 1.49629,2.31968 2.62244,3.33229 0.72507,0.65199 1.78017,0.80246 2.52071,1.43558 0.36388,0.31109 2.21965,3.10351 2.6247,2.68573 3.5524,-3.66408 -0.59315,-9.13963 -1.18235,-12.9178 -0.42939,-2.75329 0.39222,-5.48598 -0.052,-8.28556 -0.48229,-3.03954 -0.47469,-6.06468 -0.92689,-9.07455 -0.10912,-0.72636 -1.39481,-4.02714 -1.18237,-3.2871 0.57533,2.00416 1.93257,3.82973 2.82818,5.69475 3.00927,6.26658 1.74241,3.79135 7.40839,5.83269 1.10207,0.39706 3.52269,3.15375 4.52599,1.57348 2.66599,-4.1992 -1.94694,-7.9738 -2.98191,-11.71284 -1.8873,-6.81834 1.74278,-14.71994 -1.64582,-20.60202 -1.23478,-2.14342 -4.16083,-2.94241 -5.96831,-4.44458 -3.14782,-2.61609 -10.72885,-11.97393 -9.72338,-16.34281 0.74805,-3.25035 2.23528,-6.30835 2.88242,-9.5832 0.81997,-4.149386 1.23328,-8.360335 2.10926,-12.499583 1.27582,-6.028531 1.03614,-12.553024 2.88018,-18.472388 1.3889,-4.458441 2.83987,-8.903467 4.21851,-13.379 0.64267,-2.086372 1.70291,-4.015793 2.00525,-6.203421 0.51922,-3.75666 1.07244,-7.640055 1.18462,-11.434762 0.0756,-2.556404 -0.39264,-4.768691 -0.61941,-7.268236 -0.48263,-5.319501 0.26942,-10.884191 1.1326,-16.112226 0.81777,-4.952814 2.83395,-9.5329633 4.47624,-14.2131779 0.53412,-1.5221214 0.48795,-3.1363708 0.92464,-4.6751874 1.32731,-4.6771718 3.01784,-9.2976437 4.21852,-14.0278117 0.85278,-3.359573 -0.0647,-6.857391 0.41145,-10.232046 0.69213,-4.905004 2.67597,-9.756589 2.93217,-14.769332 0.19627,-3.839977 -0.78155,-7.57518 -1.23436,-11.342079 -0.67853,-5.644594 -1.36028,-11.445716 -2.88018,-16.944154"
           id="path4796" />
        <path
           style="fill:none;stroke:#000000;stroke-width:1;stroke-linecap:butt;stroke-linejoin:miter;stroke-miterlimit:4;stroke-dasharray:none;stroke-opacity:1"
           d="m -182.89436,8.1182975 c -0.0172,1.3119894 -0.14833,2.6273915 -0.052,3.9359415 0.038,0.51607 1.13215,4.859867 1.18462,5.138632 0.62997,3.347561 0.52506,6.751055 0.41145,10.139362 -0.0241,0.716412 0.39878,4.051035 0,3.332321"
           id="path4798" />
        <path
           style="fill:none;stroke:#000000;stroke-width:1;stroke-linecap:butt;stroke-linejoin:miter;stroke-miterlimit:4;stroke-dasharray:none;stroke-opacity:1"
           d="m -156.29916,-27.761689 c 3.9334,3.878183 3.69297,8.08728 4.37224,13.010488 0.29347,2.126959 1.00732,4.083897 1.18462,6.2486383 0.12155,1.4841273 -0.13097,3.1606066 0.10173,4.6299702 0.63802,4.02878386 1.31188,8.6544148 2.52071,12.5470442 1.42042,4.5739053 2.89266,9.2542783 2.26298,14.1204943 -1.03571,8.004096 -5.55297,14.570261 -7.97359,22.130253 -3.5973,11.235055 -5.56006,22.993244 -7.40613,34.627581 -0.58807,3.706098 -0.38145,7.584308 -1.02862,11.251645 -0.33105,1.875948 -1.01222,3.683661 -1.13263,5.602075 -0.15756,2.510579 0.92091,4.71038 1.08064,7.17555 0.21685,3.34714 -0.71576,7.33349 0.2577,10.50785"
           id="path4800" />
        <path
           style="fill:none;stroke:#000000;stroke-width:1;stroke-linecap:butt;stroke-linejoin:miter;stroke-miterlimit:4;stroke-dasharray:none;stroke-opacity:1"
           d="m -120.2903,-117.39051 c 3.09722,0.1986 6.06288,0.97824 9.15821,1.06482"
           id="path4802" />
        <path
           style="fill:none;stroke:#000000;stroke-width:1;stroke-linecap:butt;stroke-linejoin:miter;stroke-miterlimit:4;stroke-dasharray:none;stroke-opacity:1"
           d="m -87.521069,-116.88185 c 4.05892,3.22162 5.647611,4.05292 10.030857,2.08439"
           id="path4804" />
        <path
           style="fill:none;stroke:#000000;stroke-width:1;stroke-linecap:butt;stroke-linejoin:miter;stroke-miterlimit:4;stroke-dasharray:none;stroke-opacity:1"
           d="m -53.210008,-115.90972 c -0.15449,0.70988 -1.173295,1.97512 -0.463444,2.12961 0.709877,0.15446 -0.242861,-1.95961 0.463444,-2.12961 1.419384,-0.3416 5.687589,1.32326 4.270534,0.97211 -1.417082,-0.35116 -2.847023,-0.64807 -4.270534,-0.97211"
           id="path4806" />
        <path
           style="fill:none;stroke:#000000;stroke-width:1;stroke-linecap:butt;stroke-linejoin:miter;stroke-miterlimit:4;stroke-dasharray:none;stroke-opacity:1"
           d="m -10.667628,-89.658155 c -0.805577,-1.142417 -1.670288,-2.24536 -2.416704,-3.427253 -0.39833,-0.630714 -0.364014,-2.526401 -0.926915,-2.036922 -0.161872,0.140759 0.300858,4.12676 1.080638,4.815338 0.588195,0.51943 2.187813,-0.132265 2.262981,0.648837 0.144939,1.505876 -1.363795,2.717774 -1.799537,4.166526 -0.346948,1.153531 -0.09358,2.407418 -0.155998,3.610372 -0.166106,3.20249 0.440134,6.598206 0.721174,9.813819 0.09522,1.089369 0.815499,2.215118 0.770917,3.287104 -0.0616,1.481138 -0.852832,2.726055 -1.080638,4.166526 -0.216773,1.370753 -0.04974,2.87065 -0.04974,4.25921"
           id="path4808" />
        <path
           style="fill:none;stroke:#000000;stroke-width:1;stroke-linecap:butt;stroke-linejoin:miter;stroke-miterlimit:4;stroke-dasharray:none;stroke-opacity:1"
           d="m -34.382655,-79.937019 c -0.565944,1.620176 -1.23317,3.20847 -1.697805,4.860554 -1.520084,5.40475 -2.001811,11.240268 -3.291628,16.713571 -1.725375,7.321708 -5.361358,14.097291 -7.715859,21.203337 -1.184777,3.575791 -1.973262,7.28599 -3.241886,10.833418 -0.989939,2.768176 -2.382626,5.430176 -3.239612,8.240342 -0.510487,1.673913 -0.670904,3.409923 -1.338368,5.045948 -1.641316,4.0230421 -6.482609,14.02704368 -5.966063,18.3797305 0.573775,4.8346785 2.176674,8.7608835 3.960812,13.1958555 0.826374,2.054198 1.202479,4.229761 2.159,6.248664 1.181153,2.493037 2.911026,4.838621 3.963035,7.36092 0.902732,2.164345 1.004756,4.776576 1.645815,7.037652 0.861668,3.03911 1.79869,6.000221 2.828184,8.981864 0.462544,1.339691 0.244607,2.925286 0.463444,4.304426 0.22225,1.400678 0.866404,2.450624 1.338342,3.750548 1.188455,3.273452 1.317095,7.243366 2.109258,10.648024 3.130153,13.453084 -0.920882,27.829192 4.320249,40.788035"
           id="path4810" />
        <path
           style="fill:none;stroke:#000000;stroke-width:1;stroke-linecap:butt;stroke-linejoin:miter;stroke-miterlimit:4;stroke-dasharray:none;stroke-opacity:1"
           d="m -41.327624,-40.261267 c -0.325543,0.833464 -0.938556,1.606391 -0.97663,2.500365 -0.004,0.09197 2.464012,4.25024 2.778443,5.231315 1.948524,6.079887 3.135021,12.310825 4.835683,18.424949 0.536681,1.929394 1.37332,3.641381 1.336093,5.6947588 -0.0395,2.1794788 -1.015523,4.250981 -0.822907,6.4815243 0.234448,2.71481021 2.791196,14.4409049 4.733978,16.4829599"
           id="path4812" />
        <path
           style="fill:none;stroke:#000000;stroke-width:1;stroke-linecap:butt;stroke-linejoin:miter;stroke-miterlimit:4;stroke-dasharray:none;stroke-opacity:1"
           d="m -25.791899,9.3684802 c -1.112996,3.3723258 -3.911732,5.4021038 -4.885426,8.8891798 -2.01541,7.217674 0.324168,12.75506 1.078363,19.629913 0.261911,2.387442 -0.02567,4.863518 0.20574,7.268237 0.411004,4.270269 1.698387,8.496776 1.955509,12.777628 0.105939,1.763686 -0.05633,3.524912 0.20574,5.278808 0.327104,2.189136 1.491668,4.112181 2.161249,6.203421 0.874051,2.729759 1.531276,5.956591 2.057267,8.796496 1.142365,6.16794 0.437833,12.565036 0.617167,18.795682 0.15158,5.265425 2.025862,11.544355 0.309722,16.758785 -0.574755,1.74639 -2.17043,3.6267 -3.18987,5.1861 -0.995944,1.52347 -1.112123,3.28507 -2.109258,4.62772 -1.84613,2.48576 -2.41218,9.39517 -2.109259,12.22375 0.151633,1.41608 1.128369,2.63287 1.182344,4.07382 0.0585,1.56122 -0.212328,3.29504 -0.307446,4.86058 -0.05443,0.89572 -2.766986,10.16907 -2.314998,10.36995 2.332831,1.03682 3.686307,-7.99386 6.840961,-8.56364 4.330303,-0.78214 6.746054,11.88826 5.351145,5.92537"
           id="path4814" />
        <path
           style="fill:none;stroke:#000000;stroke-width:1;stroke-linecap:butt;stroke-linejoin:miter;stroke-miterlimit:4;stroke-dasharray:none;stroke-opacity:1"
           d="M 16.287037,0.98796198 C 14.083878,1.1719003 12.491218,1.2328338 10.68041,0.1085399"
           id="path4816" />
        <path
           style="fill:none;stroke:#000000;stroke-width:1;stroke-linecap:butt;stroke-linejoin:miter;stroke-miterlimit:4;stroke-dasharray:none;stroke-opacity:1"
           d="m -10.719619,-66.836123 c 0.06858,-1.311222 0.137134,-2.622444 0.205714,-3.933666"
           id="path4818" />
        <path
           style="fill:none;stroke:#000000;stroke-width:1;stroke-linecap:butt;stroke-linejoin:miter;stroke-miterlimit:4;stroke-dasharray:none;stroke-opacity:1"
           d="m -10.563647,-77.529364 c 0.9172047,2.743782 -0.234421,5.639859 -0.05199,8.380519 0.1134,1.703361 1.4294903,3.071203 1.1303789,4.860581 -0.1353873,0.809863 -0.7981419,1.427241 -0.9246389,2.222288 -0.393912,2.475494 -1.110695,6.270757 -0.669185,8.796496 0.392166,2.243428 0.627195,4.900427 1.4400745,7.035377 0.5754158,1.51122 1.5019337,2.879433 1.9555354,4.444576 0.4790546,1.652958 0.6299729,3.503507 1.2863512,5.093441 1.1294004,2.735739 3.0861529,5.229807 3.6510912,8.195125 0.324485,1.703361 0.325808,3.460644 0.7731655,5.138631 0.7508081,2.816278 1.99532868,5.051848 2.15899992,8.009758 0.32834792,5.934842 -0.91334165,12.1153234 -0.0497417,18.00897 0.36718874,2.5058687 1.59043688,4.9020147 2.00525068,7.36092 0.8469047,5.020019 1.8107554,9.78326 1.9035447,14.907233 C 4.1322374,29.731448 2.2841492,34.251114 1.8839405,38.99758 1.4231422,44.462416 1.6529328,50.006284 1.266747,55.480539 0.9563113,59.881195 0.25855214,64.422186 -0.27733494,68.812047 -1.3870503,77.902918 -4.3972148,86.784557 -5.061028,95.895563 c -0.3633787,4.987717 1.3649325,10.081157 1.8538031,14.999947 0.3531394,3.55303 0.1017323,7.19777 0.1017323,10.7407 2.90023016,6.57072 -0.6612995,12.79726 -0.5154348,19.55078 0.054266,2.51304 -0.152347,5.45825 0.3096948,7.91707 0.2372519,1.26246 0.9598819,2.0745 0.9269148,3.42501 -0.13462,5.51331 -2.8474987,10.64977 -5.6586172,15.18528 -0.6862762,1.10728 -2.242979,5.38988 -3.549332,5.78747 -2.065761,0.62873 -2.320343,-2.28592 -2.726426,-3.56515 -2.312987,-7.28634 -1.031769,-14.5964 -5.145431,-21.15815 -2.228718,-3.55513 -7.502419,-7.06638 -9.97884,-1.48079 -0.67855,1.53045 -0.622697,3.20214 -1.492091,4.62997 -0.161661,0.26553 -1.475978,1.74045 -1.544082,1.43557 -1.063784,-4.764 1.114346,-7.71588 3.291628,-11.52744 0.976736,-1.7099 1.27889,-3.65199 2.161249,-5.37149 0.404284,-0.78783 1.15951,-1.38393 1.544082,-2.17482 0.851059,-1.75028 -0.262467,-5.10863 -0.103981,-6.94497 0.172032,-1.99345 0.604626,-4.11515 1.132628,-6.01806"
           id="path4820" />
        <path
           style="fill:none;stroke:#000000;stroke-width:1;stroke-linecap:butt;stroke-linejoin:miter;stroke-miterlimit:4;stroke-dasharray:none;stroke-opacity:1"
           d="m -16.016498,138.40855 c -1.029388,0.78748 -2.147623,1.47074 -3.088163,2.36246 -0.683869,0.64836 -1.149403,1.4941 -1.747547,2.22229 -6.361324,7.74443 12.7108215,-14.99735 1.440074,-0.0927 -1.967706,2.60215 -1.091512,1.48603 -2.726425,3.51769"
           id="path4822" />
        <path
           style="fill:none;stroke:#000000;stroke-width:1;stroke-linecap:butt;stroke-linejoin:miter;stroke-miterlimit:4;stroke-dasharray:none;stroke-opacity:1"
           d="m -16.891422,61.928144 c -2.829533,4.137872 -0.09348,11.312313 -2.314972,15.972049"
           id="path4824" />
        <path
           style="fill:none;stroke:#000000;stroke-width:1;stroke-linecap:butt;stroke-linejoin:miter;stroke-miterlimit:4;stroke-dasharray:none;stroke-opacity:1"
           d="m -17.560579,69.612358 c -1.24206,0.820473 -0.794438,17.160055 -1.645815,8.287835"
           id="path4826" />
        <path
           style="fill:none;stroke:#000000;stroke-width:1;stroke-linecap:butt;stroke-linejoin:miter;stroke-miterlimit:4;stroke-dasharray:none;stroke-opacity:1"
           d="m -1.717409,1.8809572 c 0.5146939,-1.00300897 1.02938786,-2.00601792 1.54408181,-3.0090269 -0.15449021,-0.092684 -0.38121166,-0.4383616 -0.46344416,-0.278077 -0.52657375,1.0261864 -0.63722245,2.22236764 -1.08063765,3.2871039 -1.6114184,3.8694253 -3.3145413,6.4230778 -5.9660631,9.4905248 -2.0016258,2.315607 -0.2641335,0.531336 -2.1092583,2.362464 -0.2128576,0.211244 -0.8154726,0.863151 -0.6691576,0.601372 2.0078963,-3.593121 4.4906934,-6.5732819 5.9683119,-10.5101231 0.190844,-0.5085027 0.1202796,-1.2166865 0.5651765,-1.5282598 0.6142831,-0.4301861 2.3271691,-1.1568377 2.2109906,-0.4159779 -0.3948642,2.5181454 -8.590756,9.7066888 -8.590756,10.3699468 0,0.172667 0.238151,-0.250137 0.3617117,-0.370734 1.6669543,-1.627241 3.1758995,-3.167486 4.0625183,-5.3692427 0.2507191,-0.6225646 0.3408098,-2.4843581 0.6691841,-1.8990204 1.2057327,2.1493692 -3.2409076,6.0892531 -4.2705072,7.3157291"
           id="path4828" />
        <path
           style="fill:none;stroke:#000000;stroke-width:1;stroke-linecap:butt;stroke-linejoin:miter;stroke-miterlimit:4;stroke-dasharray:none;stroke-opacity:1"
           d="m -10.925359,-49.923612 c -0.578617,2.018956 -0.32049,4.071223 -0.666908,6.110737 -0.08345,0.491411 -0.706411,1.480794 -0.207989,1.480794 0.122475,0 1.798161,-4.248812 1.749795,-3.933667 -0.08014,0.522261 -1.399408,6.619399 -1.234334,6.619399 0.12364,0 0.664924,-1.083416 0.97663,-1.204965 0.0071,-0.0029 -0.397378,4.131971 0.8229069,3.983407 1.8785416,-0.228732 3.4321485,-3.557111 3.1378789,-2.129604 -0.3735652,1.812157 -1.2107862,3.894243 -2.1069829,5.509392"
           id="path4830" />
        <path
           style="fill:none;stroke:#000000;stroke-width:1;stroke-linecap:butt;stroke-linejoin:miter;stroke-miterlimit:4;stroke-dasharray:none;stroke-opacity:1"
           d="m -114.73344,101.97466 c 6.63895,2.83927 15.104456,19.33874 23.045872,16.52592 4.968531,-1.75982 7.604151,-8.18351 8.538765,-12.91553 0.05215,-0.2641 1.568927,-8.066665 1.338342,-5.2788"
           id="path4832" />
        <path
           style="fill:none;stroke:#000000;stroke-width:1;stroke-linecap:butt;stroke-linejoin:miter;stroke-miterlimit:4;stroke-dasharray:none;stroke-opacity:1"
           d="m -160.36395,107.206 c 0.68595,1.78649 0.11747,3.69043 0.30972,5.50939 0.26574,2.51452 1.10246,4.96808 1.18234,7.49882 0.18034,5.71307 -1.01624,11.63048 -1.28408,17.36238 -0.10818,2.315 0.51962,4.58626 0.56518,6.8975 0.0889,4.5089 -0.19198,9.06532 -0.46344,13.56437 -0.24046,3.98516 -1.57652,7.88186 -1.95554,11.89821 -0.6877,7.28731 0.0427,14.73197 0.51544,21.99007 0.23381,3.58969 2.10066,7.37246 2.93216,10.88089 2.2755,9.60099 4.24921,19.54273 4.47625,29.44373 0.14211,6.19715 0.10768,12.55183 -0.97888,18.65778 -0.82577,4.64032 -2.9699,9.43589 -2.26301,14.2584"
           id="path4834" />
        <path
           style="fill:none;stroke:#000000;stroke-width:1;stroke-linecap:butt;stroke-linejoin:miter;stroke-miterlimit:4;stroke-dasharray:none;stroke-opacity:1"
           d="m -118.89996,268.54733 c -1.57713,-5.85513 0.68857,-9.73056 1.79953,-15.23053 0.31449,-1.55681 0.2598,-3.13592 0.51546,-4.67744 1.11073,-6.69695 3.09735,-13.48393 3.65107,-20.32394 0.22736,-2.80845 -1.07929,-5.39597 -1.18234,-8.14766 -0.19701,-5.25888 0.31239,-10.59759 0.77089,-15.83187 0.42928,-4.90075 2.02091,-9.22465 3.03617,-13.9826 0.42743,-2.00324 0.32496,-4.13165 0.66691,-6.15823 0.54843,-3.25046 1.53498,-6.51576 1.74979,-9.81382 0.19077,-2.92856 -0.0212,-5.92986 0.30972,-8.84171 0.20291,-1.78527 1.00312,-3.44763 1.23436,-5.23356 1.40865,-10.87925 0.10184,-21.78825 1.90352,-32.63813 0.28155,-1.69545 0.12788,-5.58763 1.38811,-6.80479 0.73988,-0.71461 1.64579,-1.23436 2.4687,-1.85153 5.244119,1.2409 8.548368,2.62702 9.106215,8.84169 0.846694,9.43253 1.703441,19.0836 0.874898,28.61177 -0.994727,11.4395 -1.94818,20.95125 -1.697805,32.54545 0.06316,2.92396 -0.248708,5.80697 0.255456,8.70378 0.651298,3.74198 1.842743,7.63109 3.551607,11.01879 0.503132,0.99737 1.219544,1.74913 1.593824,2.82366 2.434458,6.98899 4.075059,14.25117 6.429507,21.25083 1.234996,3.67165 3.366955,7.10927 4.166526,10.9261 0.724773,3.4598 0.571236,6.98466 1.080611,10.46263 0.472387,3.22527 1.65362,6.17911 1.903545,9.49055"
           id="path4836" />
        <path
           style="fill:none;stroke:#000000;stroke-width:1;stroke-linecap:butt;stroke-linejoin:miter;stroke-miterlimit:4;stroke-dasharray:none;stroke-opacity:1"
           d="m -33.60949,113.40942 c -0.446114,-1.17332 -0.892228,-2.34662 -1.338342,-3.51994 -0.02011,0.0101 -0.253021,-0.0169 -0.25773,0 -0.477679,1.70299 1.612238,1.48715 1.596072,3.51994 -0.01085,1.35787 -1.217507,2.43295 -1.697805,3.70308 -0.962316,2.54482 0.788829,6.02454 0.513186,8.6586 -0.219366,2.0961 -0.885322,4.13273 -1.02862,6.24863 -0.55253,8.15793 0.0921,16.41841 -0.617194,24.58316 -0.371396,4.27519 -3.895619,9.87983 -4.731702,14.58396 -0.994675,5.59641 -0.900695,11.27194 -1.749796,16.85145 -1.24206,8.16149 -3.144229,16.21091 -3.395609,24.49046 -0.191506,6.30651 1.273783,12.76784 0,19.07376 -0.326152,1.6146 -1.106858,3.13958 -1.440101,4.77015 -0.647038,3.16603 -0.381926,6.48298 -1.080611,9.62842 -0.490987,2.21033 -1.739424,4.36682 -1.953287,6.62168 -0.159808,1.68505 0.15375,3.40333 0.15375,5.09116"
           id="path4838" />
        <path
           style="fill:none;stroke:#000000;stroke-width:1;stroke-linecap:butt;stroke-linejoin:miter;stroke-miterlimit:4;stroke-dasharray:none;stroke-opacity:1"
           d="m -75.896388,250.53838 c 0.849709,5.84761 0.195553,12.08958 2.213239,17.73087 1.092756,3.05525 2.934864,5.59612 3.189896,8.8892"
           id="path4840" />
        <path
           style="fill:none;stroke:#000000;stroke-width:1;stroke-linecap:butt;stroke-linejoin:miter;stroke-miterlimit:4;stroke-dasharray:none;stroke-opacity:1"
           d="m -80.164647,181.97278 c 0.818542,3.70927 -3.720306,10.77745 -1.903544,13.61183 1.0668,1.66433 3.698054,-4.68942 3.239637,-3.00903 -0.758666,2.78088 -1.301644,5.47783 -1.747546,8.33305 -0.136102,0.87152 -0.893286,3.19085 -0.20574,2.63827 1.261877,-1.01415 1.852771,-3.19635 2.622444,-4.5825 0.07308,-0.13158 0.270695,-0.5207 0.257731,-0.37076 -0.176001,2.03538 -4.324879,8.56877 -1.697805,9.86128"
           id="path4842" />
        <path
           style="fill:none;stroke:#000000;stroke-width:1;stroke-linecap:butt;stroke-linejoin:miter;stroke-miterlimit:4;stroke-dasharray:none;stroke-opacity:1"
           d="m -79.59947,208.45492 c 4.686697,2.81133 3.100467,0.61656 1.851528,7.73171 -0.13343,0.7602 -0.769753,4.04394 -0.565177,5.04595 0.238892,1.16998 2.520712,-3.73976 2.520712,-2.54559 0,3.15188 -3.779679,7.45006 -2.21324,10.55534 0.433547,0.8595 3.894297,-2.85895 4.476221,-2.96383 0.182457,-0.0329 0.03516,0.37415 0,0.55615 -0.233389,1.20796 -2.304918,6.24586 -1.182343,7.03765 0.627353,0.44249 2.670519,-3.10779 2.828157,-3.33459 0.277046,-0.39854 -1.681533,3.38854 -0.617167,4.86283 0.704056,0.97523 2.022978,-1.30305 2.674435,-1.15748 0.574649,0.12841 -0.589598,5.13644 -0.666909,5.55459 -0.029,0.15676 1.839886,-1.55448 2.262981,-1.48077 1.023859,0.17838 1.068917,1.29577 1.080638,2.03692 0.03815,2.41443 -1.019651,4.66709 -1.132628,7.08284 -0.05654,1.2091 4.896088,-3.03347 5.195146,-3.05649"
           id="path4844" />
        <path
           style="fill:none;stroke:#000000;stroke-width:1;stroke-linecap:butt;stroke-linejoin:miter;stroke-miterlimit:4;stroke-dasharray:none;stroke-opacity:1"
           d="m -50.791029,216.14141 c 0.05125,2.0678 -0.130783,4.15465 0.15375,6.20342 0.03321,0.23926 0.50075,-0.45122 0.669157,-0.27805 0.840714,0.86447 -0.922284,6.27952 -0.773165,7.639 0.110014,1.00303 1.907752,0.84285 2.109258,2.36019 0.345255,2.5995 -0.42156,4.88071 -0.770916,7.40841 -0.07451,0.53914 0.83476,-0.51901 0.926915,-0.46344 0.936466,0.56462 -0.637673,2.09232 -0.926915,3.14692 -0.775811,2.82895 -0.817457,1.56615 0.617193,1.85381 0.110173,0.0222 -0.357452,1.59575 -1.286351,5.04592"
           id="path4846" />
        <path
           style="fill:none;stroke:#000000;stroke-width:1;stroke-linecap:butt;stroke-linejoin:miter;stroke-miterlimit:4;stroke-dasharray:none;stroke-opacity:1"
           d="m -155.93972,185.12195 c 0.13716,1.99097 0.21933,3.98645 0.41145,5.97287 0.71384,7.38049 2.01808,2.33248 2.77844,5.92537 0.53451,2.52568 0.075,5.42999 0.97663,7.86958 0.17299,0.46807 1.48278,-1.12398 1.7498,-0.1379 0.31686,1.17004 0.21865,4.87121 1.74982,5.23131 0.76745,0.1805 2.159,-2.14342 2.159,-2.1296 0,2.3899 -1.4918,5.88907 0.10398,7.96229 0.92046,1.19583 2.81898,-0.24038 3.24189,1.66616 0.65743,2.9637 -0.21392,6.05975 0.51318,9.07454 0.48959,2.02997 3.08147,1.75895 3.24189,3.88845 0.2214,2.93907 -1.23344,5.91003 -1.39036,8.84397 -0.0726,1.35636 2.28798,-3.59895 3.54936,-0.32555"
           id="path4848" />
        <path
           style="fill:none;stroke:#000000;stroke-width:1;stroke-linecap:butt;stroke-linejoin:miter;stroke-miterlimit:4;stroke-dasharray:none;stroke-opacity:1"
           d="m -118.69422,220.30794 c -1.00455,9.98365 -0.20069,5.17432 -2.315,14.44379"
           id="path4850" />
        <path
           style="fill:none;stroke:#000000;stroke-width:1;stroke-linecap:butt;stroke-linejoin:miter;stroke-miterlimit:4;stroke-dasharray:none;stroke-opacity:1"
           d="m -147.45067,246.9732 c -1.01206,0.18539 -2.20123,-0.0451 -3.03618,0.55615 -0.52311,0.37669 -1.94299,17.97191 -1.79953,20.04587"
           id="path4852" />
        <path
           style="fill:none;stroke:#000000;stroke-width:1;stroke-linecap:butt;stroke-linejoin:miter;stroke-miterlimit:4;stroke-dasharray:none;stroke-opacity:1"
           d="m -147.45067,246.9732 c -1.25548,1.14723 -7.91441,17.28325 -6.73923,19.5372 0.3361,0.64469 1.26902,0.70988 1.90352,1.06482"
           id="path4854" />
        <path
           style="fill:none;stroke:#000000;stroke-width:1;stroke-linecap:butt;stroke-linejoin:miter;stroke-miterlimit:4;stroke-dasharray:none;stroke-opacity:1"
           d="m -40.4527,248.28217 c 1.867959,7.4326 0.907521,15.21026 1.697805,22.73163 0.75229,7.15997 1.440947,14.01236 0.359437,21.20334 -0.738108,4.90791 -3.091286,9.41239 -3.908796,14.35338 -0.980625,5.92693 -1.774322,11.88214 -2.674434,17.82357 -0.363591,2.39988 -0.143563,4.95017 -0.669185,7.31346 -0.549592,2.47105 -1.599141,4.75533 -2.161249,7.22302 -1.755986,7.70903 -3.070463,15.51233 -4.679711,23.24028 -2.785375,13.37588 -5.85089,27.09376 -4.939692,40.88072 0.153882,2.32831 0.909373,4.58647 1.132629,6.89747 0.172217,1.78266 -0.533639,3.38987 -0.463445,5.13864 0.219075,5.45764 1.307386,10.20233 2.624693,15.46338 1.248728,4.98698 -3.960495,8.32025 -2.059516,13.14839"
           id="path4856" />
        <path
           style="fill:none;stroke:#000000;stroke-width:1;stroke-linecap:butt;stroke-linejoin:miter;stroke-miterlimit:4;stroke-dasharray:none;stroke-opacity:1"
           d="m -76.307842,434.76506 c 0,-2.8126 -0.210529,-2.67206 0.205714,-4.58476 0.397245,-1.82533 1.23653,-3.49538 1.544082,-5.36921 1.109609,-6.76053 0.523134,-14.76328 0.05199,-21.57413 -0.365151,-5.27875 -0.26916,-10.59444 -0.721175,-15.87936 -0.281172,-3.2878 -1.155197,-6.50153 -1.23436,-9.81607 -0.03149,-1.31921 0.49149,-2.71682 0.669184,-4.02863 0.433731,-3.20196 0.598091,-6.72065 0.770916,-9.95172 0.220954,-4.13104 -0.221112,-8.28138 -0.101732,-12.40914 0.152321,-5.26685 0.564065,-10.40313 0.205714,-15.69395 -0.279003,-4.1195 -2.204562,-8.02674 -2.726426,-12.0836 -0.723344,-5.62313 0.461963,-11.28852 0.04974,-16.85147 -0.237305,-3.2022 -0.842513,-6.59632 -1.695556,-9.67591 -0.663416,-2.39499 0.491913,-14.90912 0.718899,-17.63819 0.215874,-2.59498 2.501874,-5.34077 3.291629,-7.82439 0.74422,-2.34037 1.428882,-6.00784 1.955535,-7.69776"
           id="path4858" />
        <path
           style="fill:none;stroke:#000000;stroke-width:1;stroke-linecap:butt;stroke-linejoin:miter;stroke-miterlimit:4;stroke-dasharray:none;stroke-opacity:1"
           d="m -70.493253,277.15845 c -4.380521,5.94681 1.081352,12.81407 -1.801812,19.08731"
           id="path4860" />
        <path
           style="fill:none;stroke:#000000;stroke-width:1;stroke-linecap:butt;stroke-linejoin:miter;stroke-miterlimit:4;stroke-dasharray:none;stroke-opacity:1"
           d="m -43.332874,256.75538 c -0.09888,8.41438 -1.957785,16.69674 -2.572703,25.09181"
           id="path4862" />
        <path
           style="fill:none;stroke:#000000;stroke-width:1;stroke-linecap:butt;stroke-linejoin:miter;stroke-miterlimit:4;stroke-dasharray:none;stroke-opacity:1"
           d="m -43.898051,287.49448 c -0.926147,2.87039 -1.852295,5.74075 -2.778442,8.61113"
           id="path4864" />
        <path
           style="fill:none;stroke:#000000;stroke-width:1;stroke-linecap:butt;stroke-linejoin:miter;stroke-miterlimit:4;stroke-dasharray:none;stroke-opacity:1"
           d="m -147.45067,246.9732 c -2.34966,0.72946 -4.80947,1.16975 -7.04895,2.1884 -0.71168,0.32369 -0.47729,1.50259 -0.87265,2.17707 -2.27693,3.88448 -3.82567,8.4102 -3.39561,13.0557 0.20039,2.16469 -0.2625,4.31012 -0.20574,6.4815 0.0816,3.12214 0.43061,6.37619 0.71892,9.49055 0.32687,3.53087 1.50204,6.78212 2.16125,10.23205 0.99936,5.2301 0.89744,10.68398 1.85153,15.92455 0.56637,3.11079 1.71429,6.0964 2.26301,9.21248 1.26801,7.20087 2.04856,14.58116 3.18987,21.75949 0.30877,1.94199 1.44147,3.72398 1.6978,5.74225 0.93845,7.38905 -0.16317,15.12631 0.72118,22.54623 0.43016,3.60902 1.83187,7.02498 2.159,10.64803 0.22196,2.45837 -0.14915,4.94112 0.052,7.40616 0.12536,1.53628 0.80735,3.00421 0.92691,4.53726 0.25109,3.22027 0.13827,6.423 0.61717,9.6307 0.6082,4.07371 1.036,8.58737 2.159,12.5448 0.39142,1.37935 1.27418,2.56251 1.64806,3.93591 0.87792,3.2248 1.74707,6.49272 2.62245,9.72114 1.04933,3.86998 -0.21455,8.08513 0.41145,11.99089 0.39447,2.46104 1.43859,4.64063 1.7498,7.13033"
           id="path4866" />
        <path
           style="fill:none;stroke:#000000;stroke-width:1;stroke-linecap:butt;stroke-linejoin:miter;stroke-miterlimit:4;stroke-dasharray:none;stroke-opacity:1"
           d="m -115.5066,261.84654 c -1.12551,2.72148 -1.13221,5.73781 -0.87265,8.65857 0.31903,3.58987 1.0691,7.16862 1.69555,10.69324 0.78328,4.40695 0.72118,10.40053 0.72118,14.90726 0,2.07211 -0.45977,4.09488 -0.56518,6.1582 -0.27228,5.32914 -0.0958,10.69502 -0.41145,16.01952 -0.25313,4.26953 -0.90144,8.54488 -0.97891,12.82285 -0.12335,6.8105 0.46202,13.89141 -0.20571,20.64948 -0.39471,3.99455 -1.04659,7.90808 -0.87265,11.94342 0.21066,4.88739 2.05158,9.5748 2.21099,14.39858 0.15251,4.61499 0.45186,9.31598 0.30972,13.93512 -0.20227,6.57344 -1.44761,13.32738 -1.18462,19.90797 0.0938,2.34619 0.72118,4.61938 0.72118,6.99018 0,4.59899 3.94533,12.82475 5.04142,17.68565 0.39352,1.74517 -1.19456,4.25019 -1.49209,5.97059 -0.61857,3.57693 -1.33834,7.23247 -1.33834,10.88088 0,1.74149 0.69204,3.21467 1.28635,4.81537 1.38205,3.72245 1.54408,8.13366 1.54408,12.03611 0,0.22264 0.1601,4.97837 -0.51546,4.62997 -3.10824,-1.60301 -6.23805,-4.00304 -10.18458,-3.42728 -1.32114,0.19274 -2.02536,1.50666 -3.24189,1.62094 -2.03184,0.19087 -3.97377,-0.2055 -6.01805,0.18539 -3.12687,0.59788 -5.85589,2.30751 -9.0542,2.77844 -2.11492,0.31139 -4.09273,-0.37076 -6.1718,-0.37076 -0.96028,0 -2.16173,0.9719 -3.18987,0.50867 -0.97745,-0.4404 -0.89876,-3.62779 -1.02865,-4.48982 -0.33438,-2.21952 -1.08434,-4.09316 0.25548,-6.06552 3.19045,-4.69681 7.98846,-5.56427 8.84849,-11.94343 0.60169,-4.46307 1.4532,-8.56038 1.18462,-13.10317 -0.12189,-2.06153 -3.54907,-5.08463 -1.95554,-6.75958"
           id="path4868" />
        <path
           style="fill:none;stroke:#000000;stroke-width:1;stroke-linecap:butt;stroke-linejoin:miter;stroke-miterlimit:4;stroke-dasharray:none;stroke-opacity:1"
           d="m -52.798555,428.65204 c -0.785865,3.30944 -2.636573,6.23158 -3.085888,9.6307 -0.914691,6.91989 4.10718,20.25941 6.533515,27.03605 0.772425,2.15734 1.837531,4.38833 2.468695,6.57419 0.568642,1.96929 1.126622,5.52063 1.4401,4.81536 0.01429,-0.0319 -2.893483,0.35309 -3.033897,0.37076 -2.532486,0.31851 -5.131726,-0.14364 -7.666144,-0.27808 -2.923963,-0.15507 -5.598556,-1.59951 -8.590756,-1.34286 -4.885954,0.41907 -14.452838,1.42965 -18.725594,-1.25019 -1.469945,-0.92194 -0.635767,-4.59078 -0.411453,-6.15595 0.330491,-2.30624 2.238375,-6.68242 3.137879,-9.16726 0.708977,-1.95852 2.133282,-3.45281 2.572702,-5.55686 0.829098,-3.96999 -0.902441,-8.1104 -0.307446,-12.08135"
           id="path4870" />
        <path
           style="fill:none;stroke:#000000;stroke-width:1;stroke-linecap:butt;stroke-linejoin:miter;stroke-miterlimit:4;stroke-dasharray:none;stroke-opacity:1"
           d="m -62.469948,412.07865 c -0.38825,7.48051 -3.223525,22.05852 1.23436,28.4716 1.130935,1.62695 3.362246,2.0974 5.041424,3.1492"
           id="path4872" />
        <path
           style="fill:none;stroke:#000000;stroke-width:1;stroke-linecap:butt;stroke-linejoin:miter;stroke-miterlimit:4;stroke-dasharray:none;stroke-opacity:1"
           d="m -117.8216,408.46828 c 0.14885,4.16015 -0.28969,8.35361 0.25773,12.49955 0.21622,1.6375 1.90003,8.84068 2.67443,10.23207 0.79786,1.43346 0.36174,4.10067 0.36174,3.98113 0,-0.59793 -1.00674,0.72168 -1.28638,1.25019 -1.11789,2.11296 -0.77089,4.72977 -0.77089,7.03537"
           id="path4874" />
        <path
           style="fill:none;stroke:#000000;stroke-width:1;stroke-linecap:butt;stroke-linejoin:miter;stroke-miterlimit:4;stroke-dasharray:none;stroke-opacity:1"
           d="m -124.1471,310.96763 c -2.0442,6.68083 -3.10338,13.27827 -3.24189,20.18604"
           id="path4876" />
        <path
           style="fill:none;stroke:#000000;stroke-width:1;stroke-linecap:butt;stroke-linejoin:miter;stroke-miterlimit:4;stroke-dasharray:none;stroke-opacity:1"
           d="m -118.89996,268.54733 c -1.37227,1.36247 -3.20675,2.38117 -4.11679,4.08738 -1.06804,2.00253 -1.07333,4.4104 -1.59379,6.61943 -1.23622,5.24679 -2.25724,10.55976 -3.75508,15.74144 -0.0575,0.19875 -2.24676,5.20467 -1.23436,5.09341"
           id="path4878" />
        <path
           style="fill:none;stroke:#000000;stroke-width:1;stroke-linecap:butt;stroke-linejoin:miter;stroke-miterlimit:4;stroke-dasharray:none;stroke-opacity:1"
           d="m -142.92471,241.24452 c 2.82331,7.07602 1.82507,3.50203 3.08816,10.69552"
           id="path4880" />
        <path
           style="fill:none;stroke:#000000;stroke-width:1;stroke-linecap:butt;stroke-linejoin:miter;stroke-miterlimit:4;stroke-dasharray:none;stroke-opacity:1"
           d="m -152.59611,255.31983 c -0.12753,6.72933 0.31359,13.81775 -0.8229,20.46184"
           id="path4882" />
        <path
           style="fill:none;stroke:#000000;stroke-width:1;stroke-linecap:butt;stroke-linejoin:miter;stroke-miterlimit:4;stroke-dasharray:none;stroke-opacity:1"
           d="m -152.59611,255.31983 c -0.10247,2.49959 -0.0348,5.012 -0.30744,7.49882 -0.15714,1.4333 -0.62664,2.81522 -0.97663,4.21399 -0.1111,0.44397 -0.34356,1.64931 -0.56745,1.25018 -0.37087,-0.66111 1.4115,-0.59579 2.16125,-0.7076"
           id="path4884" />
        <path
           style="fill:none;stroke:#000000;stroke-width:1;stroke-linecap:butt;stroke-linejoin:miter;stroke-miterlimit:4;stroke-dasharray:none;stroke-opacity:1"
           d="m -44.978688,263.93093 c 1.037298,0.83389 -2.308199,14.45789 -2.21324,14.86201 0.252624,1.07543 0.857567,2.03616 1.286351,3.05425"
           id="path4886" />
        <path
           style="fill:none;stroke:#000000;stroke-width:1;stroke-linecap:butt;stroke-linejoin:miter;stroke-miterlimit:4;stroke-dasharray:none;stroke-opacity:1"
           d="m -43.898051,287.49448 c -3.299592,3.94946 -4.647909,8.73607 -5.556885,13.70454"
           id="path4888" />
        <path
           style="fill:none;stroke:#000000;stroke-width:1;stroke-linecap:butt;stroke-linejoin:miter;stroke-miterlimit:4;stroke-dasharray:none;stroke-opacity:1"
           d="m -73.683149,271.70783 c -0.706914,4.8904 1.599063,9.53288 1.799537,14.35335 -2.268114,3.52692 0.43688,6.74931 -0.411453,10.18458"
           id="path4890" />
        <path
           style="fill:none;stroke:#000000;stroke-width:1;stroke-linecap:butt;stroke-linejoin:miter;stroke-miterlimit:4;stroke-dasharray:none;stroke-opacity:1"
           d="m -140.248,-7.1755185 c 4.24984,4.3370234 2.23745,1.9491324 5.96606,7.22301903"
           id="path4892" />
        <path
           style="fill:none;stroke:#000000;stroke-width:1;stroke-linecap:butt;stroke-linejoin:miter;stroke-miterlimit:4;stroke-dasharray:none;stroke-opacity:1"
           d="m -131.04005,10.835701 c 2.88292,6.75886 1.41975,13.993283 3.0339,20.970504"
           id="path4894" />
        <path
           style="fill:none;stroke:#000000;stroke-width:1;stroke-linecap:butt;stroke-linejoin:miter;stroke-miterlimit:4;stroke-dasharray:none;stroke-opacity:1"
           d="m -59.12633,-18.192028 c -4.725193,6.44742 -9.793472,12.7274905 -12.551542,20.323916 -1.118843,3.0815491 -1.788292,6.2535858 -3.033897,9.257691"
           id="path4896" />
        <path
           style="fill:none;stroke:#000000;stroke-width:1;stroke-linecap:butt;stroke-linejoin:miter;stroke-miterlimit:4;stroke-dasharray:none;stroke-opacity:1"
           d="m -97.088455,-53.70128 c -1.267962,8.908177 -0.679661,2.887874 -0.05199,18.146845"
           id="path4898" />
        <path
           style="fill:none;stroke:#000000;stroke-width:1;stroke-linecap:butt;stroke-linejoin:miter;stroke-miterlimit:4;stroke-dasharray:none;stroke-opacity:1"
           d="m -115.19688,-13.60955 c 7.01259,-1.688836 4.43018,-2.344235 7.9216,-1.064789"
           id="path4900" />
        <path
           style="fill:none;stroke:#ff0000;stroke-width:2;stroke-linecap:butt;stroke-linejoin:miter;stroke-miterlimit:4;stroke-dasharray:none;stroke-opacity:1"
           d="m -121.52466,-188.29144 h 55.093926"
           id="path4902" />
        <path
           style="fill:none;stroke:#ff0000;stroke-width:2;stroke-linecap:butt;stroke-linejoin:miter;stroke-miterlimit:4;stroke-dasharray:none;stroke-opacity:1"
           d="m -126.0009,-125.16741 h 54.219021"
           id="path4904" />
        <path
           style="fill:none;stroke:#ff0000;stroke-width:2;stroke-linecap:butt;stroke-linejoin:miter;stroke-miterlimit:4;stroke-dasharray:none;stroke-opacity:1"
           d="M -154.65337,-46.765387 H -40.504717"
           id="path4906" />
        <path
           style="fill:none;stroke:#ff0000;stroke-width:2;stroke-linecap:butt;stroke-linejoin:miter;stroke-miterlimit:4;stroke-dasharray:none;stroke-opacity:1"
           d="m -191.69086,-39.356974 35.3917,11.595285"
           id="path4908" />
        <path
           style="fill:none;stroke:#ff0000;stroke-width:2;stroke-linecap:butt;stroke-linejoin:miter;stroke-miterlimit:4;stroke-dasharray:none;stroke-opacity:1"
           d="m -143.54188,23.884633 h 84.62129"
           id="path4910" />
        <path
           style="fill:none;stroke:#ff0000;stroke-width:2;stroke-linecap:butt;stroke-linejoin:miter;stroke-miterlimit:4;stroke-dasharray:none;stroke-opacity:1"
           d="M -162.67895,90.967196 -41.84081,89.115642"
           id="path4912" />
        <path
           style="fill:none;stroke:#ff0000;stroke-width:2;stroke-linecap:butt;stroke-linejoin:miter;stroke-miterlimit:4;stroke-dasharray:none;stroke-opacity:1"
           d="m -196.88601,113.25797 18.82733,2.29238"
           id="path4914" />
        <path
           style="fill:none;stroke:#ff0000;stroke-width:2;stroke-linecap:butt;stroke-linejoin:miter;stroke-miterlimit:4;stroke-dasharray:none;stroke-opacity:1"
           d="m -93.43739,148.57506 58.489558,-6.06555"
           id="path4916" />
        <path
           style="fill:none;stroke:#ff0000;stroke-width:2;stroke-linecap:butt;stroke-linejoin:miter;stroke-miterlimit:4;stroke-dasharray:none;stroke-opacity:1"
           d="m -154.24192,232.87983 40.02167,0.46344"
           id="path4918" />
        <path
           style="fill:none;stroke:#ff0000;stroke-width:2;stroke-linecap:butt;stroke-linejoin:miter;stroke-miterlimit:4;stroke-dasharray:none;stroke-opacity:1"
           d="m -156.55689,293.01745 42.54238,-3.05425"
           id="path4920" />
        <path
           style="fill:none;stroke:#ff0000;stroke-width:2;stroke-linecap:butt;stroke-linejoin:miter;stroke-miterlimit:4;stroke-dasharray:none;stroke-opacity:1"
           d="m -139.06563,422.5933 24.48592,-0.46345"
           id="path4922" />
        <path
           style="fill:none;stroke:#ff0000;stroke-width:2.45208;stroke-linecap:butt;stroke-linejoin:miter;stroke-miterlimit:4;stroke-dasharray:none;stroke-opacity:1"
           d="m -177.56792,-105.56388 51.45761,-19.2495"
           id="path5386" />
        <path
           style="fill:none;stroke:#ff0000;stroke-width:2;stroke-linecap:butt;stroke-linejoin:miter;stroke-miterlimit:4;stroke-dasharray:none;stroke-opacity:1"
           d="m -139.06563,422.5933 v 51.66455"
           id="path1383" />
      </g>
    </g>
  </g>
</svg>
