<?xml version="1.0" encoding="UTF-8" standalone="no"?>
<svg
   xmlns:dc="http://purl.org/dc/elements/1.1/"
   xmlns:cc="http://creativecommons.org/ns#"
   xmlns:rdf="http://www.w3.org/1999/02/22-rdf-syntax-ns#"
   xmlns:svg="http://www.w3.org/2000/svg"
   xmlns="http://www.w3.org/2000/svg"
   xmlns:sodipodi="http://sodipodi.sourceforge.net/DTD/sodipodi-0.dtd"
   xmlns:inkscape="http://www.inkscape.org/namespaces/inkscape"
   width="158.75mm"
   height="215.05084mm"
   viewBox="0 0 158.75 215.05084"
   version="1.1"
   id="svg1687"
   inkscape:version="1.0.2 (e86c870879, 2021-01-15)"
   sodipodi:docname="Gilewska_m.svg">
  <defs
     id="defs1681" />
  <sodipodi:namedview
     id="base"
     pagecolor="#ffffff"
     bordercolor="#666666"
     borderopacity="1.0"
     inkscape:pageopacity="0.0"
     inkscape:pageshadow="2"
     inkscape:zoom="0.3493891"
     inkscape:cx="655.69147"
     inkscape:cy="1129.1472"
     inkscape:document-units="mm"
     inkscape:current-layer="layer2"
     inkscape:document-rotation="0"
     showgrid="false"
     inkscape:window-width="1920"
     inkscape:window-height="1016"
     inkscape:window-x="0"
     inkscape:window-y="0"
     inkscape:window-maximized="1"
     fit-margin-top="0"
     fit-margin-left="0"
     fit-margin-right="0"
     fit-margin-bottom="0" />
  <metadata
     id="metadata1684">
    <rdf:RDF>
      <cc:Work
         rdf:about="">
        <dc:format>image/svg+xml</dc:format>
        <dc:type
           rdf:resource="http://purl.org/dc/dcmitype/StillImage" />
        <dc:title></dc:title>
      </cc:Work>
    </rdf:RDF>
  </metadata>
  <g
     inkscape:label="Calque 1"
     inkscape:groupmode="layer"
     id="layer1"
     transform="translate(36.563463,150.23397)" />
  <g
     inkscape:groupmode="layer"
     id="layer2"
     inkscape:label="Numéros"
     transform="translate(-49.026472,-22.354378)">
    <g
       id="g3484"
       transform="matrix(0.34674014,0,0,0.34674014,53.469133,22.354378)">
      <g
         id="g3094">
        <text
           xml:space="preserve"
           style="font-style:normal;font-variant:normal;font-weight:normal;font-stretch:normal;font-size:7.76111px;line-height:1.25;font-family:sans-serif;-inkscape-font-specification:'sans-serif, Normal';font-variant-ligatures:normal;font-variant-caps:normal;font-variant-numeric:normal;font-variant-east-asian:normal;fill:#ff0000;fill-opacity:1;stroke-width:0.264583"
           x="123.25862"
           y="106.8865"
           id="text945"><tspan
             sodipodi:role="line"
             id="tspan943"
             x="123.25862"
             y="106.8865"
             style="font-style:normal;font-variant:normal;font-weight:normal;font-stretch:normal;font-size:7.76111px;font-family:sans-serif;-inkscape-font-specification:'sans-serif, Normal';font-variant-ligatures:normal;font-variant-caps:normal;font-variant-numeric:normal;font-variant-east-asian:normal;fill:#ff0000;fill-opacity:1;stroke-width:0.264583" /></text>
        <text
           xml:space="preserve"
           style="font-style:normal;font-variant:normal;font-weight:normal;font-stretch:normal;font-size:7.76111px;line-height:1.25;font-family:sans-serif;-inkscape-font-specification:'sans-serif, Normal';font-variant-ligatures:normal;font-variant-caps:normal;font-variant-numeric:normal;font-variant-east-asian:normal;fill:#ff0000;fill-opacity:1;stroke-width:0.264583"
           x="120.42469"
           y="108.46263"
           id="text949"><tspan
             sodipodi:role="line"
             id="tspan947"
             x="120.42469"
             y="108.46263"
             style="font-style:normal;font-variant:normal;font-weight:normal;font-stretch:normal;font-size:7.76111px;font-family:sans-serif;-inkscape-font-specification:'sans-serif, Normal';font-variant-ligatures:normal;font-variant-caps:normal;font-variant-numeric:normal;font-variant-east-asian:normal;fill:#ff0000;fill-opacity:1;stroke-width:0.264583">1</tspan></text>
        <text
           xml:space="preserve"
           style="font-style:normal;font-variant:normal;font-weight:normal;font-stretch:normal;font-size:7.76111px;line-height:1.25;font-family:sans-serif;-inkscape-font-specification:'sans-serif, Normal';font-variant-ligatures:normal;font-variant-caps:normal;font-variant-numeric:normal;font-variant-east-asian:normal;fill:#ff0000;fill-opacity:1;stroke-width:0.264583"
           x="390.73792"
           y="129.81017"
           id="text953"><tspan
             sodipodi:role="line"
             id="tspan951"
             x="390.73792"
             y="129.81017"
             style="font-style:normal;font-variant:normal;font-weight:normal;font-stretch:normal;font-size:7.76111px;font-family:sans-serif;-inkscape-font-specification:'sans-serif, Normal';font-variant-ligatures:normal;font-variant-caps:normal;font-variant-numeric:normal;font-variant-east-asian:normal;fill:#ff0000;fill-opacity:1;stroke-width:0.264583">2</tspan></text>
        <text
           xml:space="preserve"
           style="font-style:normal;font-variant:normal;font-weight:normal;font-stretch:normal;font-size:7.76111px;line-height:1.25;font-family:sans-serif;-inkscape-font-specification:'sans-serif, Normal';font-variant-ligatures:normal;font-variant-caps:normal;font-variant-numeric:normal;font-variant-east-asian:normal;fill:#ff0000;fill-opacity:1;stroke-width:0.264583"
           x="107.46423"
           y="417.19519"
           id="text957"><tspan
             sodipodi:role="line"
             id="tspan955"
             x="107.46423"
             y="417.19519"
             style="font-style:normal;font-variant:normal;font-weight:normal;font-stretch:normal;font-size:7.76111px;font-family:sans-serif;-inkscape-font-specification:'sans-serif, Normal';font-variant-ligatures:normal;font-variant-caps:normal;font-variant-numeric:normal;font-variant-east-asian:normal;fill:#ff0000;fill-opacity:1;stroke-width:0.264583">8</tspan></text>
        <text
           xml:space="preserve"
           style="font-style:normal;font-variant:normal;font-weight:normal;font-stretch:normal;font-size:7.76111px;line-height:1.25;font-family:sans-serif;-inkscape-font-specification:'sans-serif, Normal';font-variant-ligatures:normal;font-variant-caps:normal;font-variant-numeric:normal;font-variant-east-asian:normal;fill:#ff0000;fill-opacity:1;stroke-width:0.264583"
           x="94.607147"
           y="249.27573"
           id="text961"><tspan
             sodipodi:role="line"
             id="tspan959"
             x="94.607147"
             y="249.27573"
             style="font-style:normal;font-variant:normal;font-weight:normal;font-stretch:normal;font-size:7.76111px;font-family:sans-serif;-inkscape-font-specification:'sans-serif, Normal';font-variant-ligatures:normal;font-variant-caps:normal;font-variant-numeric:normal;font-variant-east-asian:normal;fill:#ff0000;fill-opacity:1;stroke-width:0.264583">13</tspan></text>
        <text
           xml:space="preserve"
           style="font-style:normal;font-variant:normal;font-weight:normal;font-stretch:normal;font-size:7.76111px;line-height:1.25;font-family:sans-serif;-inkscape-font-specification:'sans-serif, Normal';font-variant-ligatures:normal;font-variant-caps:normal;font-variant-numeric:normal;font-variant-east-asian:normal;fill:#ff0000;fill-opacity:1;stroke-width:0.264583"
           x="6.6238852"
           y="130.48093"
           id="text965"><tspan
             sodipodi:role="line"
             id="tspan963"
             x="6.6238852"
             y="130.48093"
             style="font-style:normal;font-variant:normal;font-weight:normal;font-stretch:normal;font-size:7.76111px;font-family:sans-serif;-inkscape-font-specification:'sans-serif, Normal';font-variant-ligatures:normal;font-variant-caps:normal;font-variant-numeric:normal;font-variant-east-asian:normal;fill:#ff0000;fill-opacity:1;stroke-width:0.264583">34</tspan></text>
        <text
           xml:space="preserve"
           style="font-style:normal;font-variant:normal;font-weight:normal;font-stretch:normal;font-size:7.76111px;line-height:1.25;font-family:sans-serif;-inkscape-font-specification:'sans-serif, Normal';font-variant-ligatures:normal;font-variant-caps:normal;font-variant-numeric:normal;font-variant-east-asian:normal;fill:#ff0000;fill-opacity:1;stroke-width:0.264583"
           x="377.28342"
           y="102.35241"
           id="text969"><tspan
             sodipodi:role="line"
             id="tspan967"
             x="377.28342"
             y="102.35241"
             style="font-style:normal;font-variant:normal;font-weight:normal;font-stretch:normal;font-size:7.76111px;font-family:sans-serif;-inkscape-font-specification:'sans-serif, Normal';font-variant-ligatures:normal;font-variant-caps:normal;font-variant-numeric:normal;font-variant-east-asian:normal;fill:#ff0000;fill-opacity:1;stroke-width:0.264583">26</tspan></text>
        <text
           xml:space="preserve"
           style="font-style:normal;font-variant:normal;font-weight:normal;font-stretch:normal;font-size:7.76111px;line-height:1.25;font-family:sans-serif;-inkscape-font-specification:'sans-serif, Normal';font-variant-ligatures:normal;font-variant-caps:normal;font-variant-numeric:normal;font-variant-east-asian:normal;fill:#ff0000;fill-opacity:1;stroke-width:0.264583"
           x="84.119926"
           y="130.37447"
           id="text973"><tspan
             sodipodi:role="line"
             id="tspan971"
             x="84.119926"
             y="130.37447"
             style="font-style:normal;font-variant:normal;font-weight:normal;font-stretch:normal;font-size:7.76111px;font-family:sans-serif;-inkscape-font-specification:'sans-serif, Normal';font-variant-ligatures:normal;font-variant-caps:normal;font-variant-numeric:normal;font-variant-east-asian:normal;fill:#ff0000;fill-opacity:1;stroke-width:0.264583">31</tspan></text>
        <text
           xml:space="preserve"
           style="font-style:normal;font-variant:normal;font-weight:normal;font-stretch:normal;font-size:7.76111px;line-height:1.25;font-family:sans-serif;-inkscape-font-specification:'sans-serif, Normal';font-variant-ligatures:normal;font-variant-caps:normal;font-variant-numeric:normal;font-variant-east-asian:normal;fill:#ff0000;fill-opacity:1;stroke-width:0.264583"
           x="336.15106"
           y="125.35565"
           id="text977"><tspan
             sodipodi:role="line"
             id="tspan975"
             x="336.15106"
             y="125.35565"
             style="font-style:normal;font-variant:normal;font-weight:normal;font-stretch:normal;font-size:7.76111px;font-family:sans-serif;-inkscape-font-specification:'sans-serif, Normal';font-variant-ligatures:normal;font-variant-caps:normal;font-variant-numeric:normal;font-variant-east-asian:normal;fill:#ff0000;fill-opacity:1;stroke-width:0.264583">33</tspan></text>
        <path
           style="fill:#ff0000;fill-opacity:1;stroke:#ff0000;stroke-width:2;stroke-linecap:butt;stroke-linejoin:miter;stroke-miterlimit:4;stroke-dasharray:none;stroke-opacity:1"
           d="m 390.41855,85.798378 47.81,15.280722"
           id="path979" />
        <text
           xml:space="preserve"
           style="font-style:normal;font-variant:normal;font-weight:normal;font-stretch:normal;font-size:7.76111px;line-height:1.25;font-family:sans-serif;-inkscape-font-specification:'sans-serif, Normal';font-variant-ligatures:normal;font-variant-caps:normal;font-variant-numeric:normal;font-variant-east-asian:normal;fill:#ff0000;fill-opacity:1;stroke-width:0.264583"
           x="408.70682"
           y="80.968697"
           id="text983"><tspan
             sodipodi:role="line"
             id="tspan981"
             x="408.70682"
             y="80.968697"
             style="font-style:normal;font-variant:normal;font-weight:normal;font-stretch:normal;font-size:7.76111px;font-family:sans-serif;-inkscape-font-specification:'sans-serif, Normal';font-variant-ligatures:normal;font-variant-caps:normal;font-variant-numeric:normal;font-variant-east-asian:normal;fill:#ff0000;fill-opacity:1;stroke-width:0.264583">36</tspan></text>
        <text
           xml:space="preserve"
           style="font-style:normal;font-variant:normal;font-weight:normal;font-stretch:normal;font-size:7.76111px;line-height:1.25;font-family:sans-serif;-inkscape-font-specification:'sans-serif, Normal';font-variant-ligatures:normal;font-variant-caps:normal;font-variant-numeric:normal;font-variant-east-asian:normal;fill:#ff0000;fill-opacity:1;stroke-width:0.264583"
           x="-13.403832"
           y="276.09579"
           id="text987"><tspan
             sodipodi:role="line"
             id="tspan985"
             x="-13.403832"
             y="276.09579"
             style="font-style:normal;font-variant:normal;font-weight:normal;font-stretch:normal;font-size:7.76111px;font-family:sans-serif;-inkscape-font-specification:'sans-serif, Normal';font-variant-ligatures:normal;font-variant-caps:normal;font-variant-numeric:normal;font-variant-east-asian:normal;fill:#ff0000;fill-opacity:1;stroke-width:0.264583">37</tspan></text>
        <text
           xml:space="preserve"
           style="font-style:normal;font-variant:normal;font-weight:normal;font-stretch:normal;font-size:7.76111px;line-height:1.25;font-family:sans-serif;-inkscape-font-specification:'sans-serif, Normal';font-variant-ligatures:normal;font-variant-caps:normal;font-variant-numeric:normal;font-variant-east-asian:normal;fill:#ff0000;fill-opacity:1;stroke-width:0.264583"
           x="32.96439"
           y="355.65479"
           id="text991"><tspan
             sodipodi:role="line"
             id="tspan989"
             x="32.96439"
             y="355.65479"
             style="font-style:normal;font-variant:normal;font-weight:normal;font-stretch:normal;font-size:7.76111px;font-family:sans-serif;-inkscape-font-specification:'sans-serif, Normal';font-variant-ligatures:normal;font-variant-caps:normal;font-variant-numeric:normal;font-variant-east-asian:normal;fill:#ff0000;fill-opacity:1;stroke-width:0.264583">38</tspan></text>
        <text
           xml:space="preserve"
           style="font-style:normal;font-variant:normal;font-weight:normal;font-stretch:normal;font-size:7.76111px;line-height:1.25;font-family:sans-serif;-inkscape-font-specification:'sans-serif, Normal';font-variant-ligatures:normal;font-variant-caps:normal;font-variant-numeric:normal;font-variant-east-asian:normal;fill:#ff0000;fill-opacity:1;stroke-width:0.264583"
           x="79.537262"
           y="288.27386"
           id="text995"><tspan
             sodipodi:role="line"
             id="tspan993"
             x="79.537262"
             y="288.27386"
             style="font-style:normal;font-variant:normal;font-weight:normal;font-stretch:normal;font-size:7.76111px;font-family:sans-serif;-inkscape-font-specification:'sans-serif, Normal';font-variant-ligatures:normal;font-variant-caps:normal;font-variant-numeric:normal;font-variant-east-asian:normal;fill:#ff0000;fill-opacity:1;stroke-width:0.264583">39</tspan></text>
        <text
           xml:space="preserve"
           style="font-style:normal;font-variant:normal;font-weight:normal;font-stretch:normal;font-size:7.76111px;line-height:1.25;font-family:sans-serif;-inkscape-font-specification:'sans-serif, Normal';font-variant-ligatures:normal;font-variant-caps:normal;font-variant-numeric:normal;font-variant-east-asian:normal;fill:#ff0000;fill-opacity:1;stroke-width:0.264583"
           x="129.34921"
           y="268.12625"
           id="text999"><tspan
             sodipodi:role="line"
             id="tspan997"
             x="129.34921"
             y="268.12625"
             style="font-style:normal;font-variant:normal;font-weight:normal;font-stretch:normal;font-size:7.76111px;font-family:sans-serif;-inkscape-font-specification:'sans-serif, Normal';font-variant-ligatures:normal;font-variant-caps:normal;font-variant-numeric:normal;font-variant-east-asian:normal;fill:#ff0000;fill-opacity:1;stroke-width:0.264583">46</tspan></text>
        <text
           xml:space="preserve"
           style="font-style:normal;font-variant:normal;font-weight:normal;font-stretch:normal;font-size:7.76111px;line-height:1.25;font-family:sans-serif;-inkscape-font-specification:'sans-serif, Normal';font-variant-ligatures:normal;font-variant-caps:normal;font-variant-numeric:normal;font-variant-east-asian:normal;fill:#ff0000;fill-opacity:1;stroke-width:0.264583"
           x="33.916275"
           y="167.24664"
           id="text1003"><tspan
             sodipodi:role="line"
             id="tspan1001"
             x="33.916275"
             y="167.24664"
             style="font-style:normal;font-variant:normal;font-weight:normal;font-stretch:normal;font-size:7.76111px;font-family:sans-serif;-inkscape-font-specification:'sans-serif, Normal';font-variant-ligatures:normal;font-variant-caps:normal;font-variant-numeric:normal;font-variant-east-asian:normal;fill:#ff0000;fill-opacity:1;stroke-width:0.264583">47</tspan></text>
        <text
           xml:space="preserve"
           style="font-style:normal;font-variant:normal;font-weight:normal;font-stretch:normal;font-size:7.76111px;line-height:1.25;font-family:sans-serif;-inkscape-font-specification:'sans-serif, Normal';font-variant-ligatures:normal;font-variant-caps:normal;font-variant-numeric:normal;font-variant-east-asian:normal;fill:#ff0000;fill-opacity:1;stroke-width:0.264583"
           x="91.48175"
           y="75.731812"
           id="text1007"><tspan
             sodipodi:role="line"
             id="tspan1005"
             x="91.48175"
             y="75.731812"
             style="font-style:normal;font-variant:normal;font-weight:normal;font-stretch:normal;font-size:7.76111px;font-family:sans-serif;-inkscape-font-specification:'sans-serif, Normal';font-variant-ligatures:normal;font-variant-caps:normal;font-variant-numeric:normal;font-variant-east-asian:normal;fill:#ff0000;fill-opacity:1;stroke-width:0.264583">52</tspan></text>
        <text
           xml:space="preserve"
           style="font-style:normal;font-variant:normal;font-weight:normal;font-stretch:normal;font-size:7.76111px;line-height:1.25;font-family:sans-serif;-inkscape-font-specification:'sans-serif, Normal';font-variant-ligatures:normal;font-variant-caps:normal;font-variant-numeric:normal;font-variant-east-asian:normal;fill:#ff0000;fill-opacity:1;stroke-width:0.264583"
           x="70.307854"
           y="348.85623"
           id="text1011"><tspan
             sodipodi:role="line"
             id="tspan1009"
             x="70.307854"
             y="348.85623"
             style="font-style:normal;font-variant:normal;font-weight:normal;font-stretch:normal;font-size:7.76111px;font-family:sans-serif;-inkscape-font-specification:'sans-serif, Normal';font-variant-ligatures:normal;font-variant-caps:normal;font-variant-numeric:normal;font-variant-east-asian:normal;fill:#ff0000;fill-opacity:1;stroke-width:0.264583">51</tspan></text>
        <text
           xml:space="preserve"
           style="font-style:normal;font-variant:normal;font-weight:normal;font-stretch:normal;font-size:7.76111px;line-height:1.25;font-family:sans-serif;-inkscape-font-specification:'sans-serif, Normal';font-variant-ligatures:normal;font-variant-caps:normal;font-variant-numeric:normal;font-variant-east-asian:normal;fill:#ff0000;fill-opacity:1;stroke-width:0.264583"
           x="15.086417"
           y="282.62048"
           id="text1015"><tspan
             sodipodi:role="line"
             id="tspan1013"
             x="15.086417"
             y="282.62048"
             style="font-style:normal;font-variant:normal;font-weight:normal;font-stretch:normal;font-size:7.76111px;font-family:sans-serif;-inkscape-font-specification:'sans-serif, Normal';font-variant-ligatures:normal;font-variant-caps:normal;font-variant-numeric:normal;font-variant-east-asian:normal;fill:#ff0000;fill-opacity:1;stroke-width:0.264583">57</tspan></text>
        <text
           xml:space="preserve"
           style="font-style:normal;font-variant:normal;font-weight:normal;font-stretch:normal;font-size:7.76111px;line-height:1.25;font-family:sans-serif;-inkscape-font-specification:'sans-serif, Normal';font-variant-ligatures:normal;font-variant-caps:normal;font-variant-numeric:normal;font-variant-east-asian:normal;fill:#ff0000;fill-opacity:1;stroke-width:0.264583"
           x="119.46867"
           y="135.98137"
           id="text1019"><tspan
             sodipodi:role="line"
             id="tspan1017"
             x="119.46867"
             y="135.98137"
             style="font-style:normal;font-variant:normal;font-weight:normal;font-stretch:normal;font-size:7.76111px;font-family:sans-serif;-inkscape-font-specification:'sans-serif, Normal';font-variant-ligatures:normal;font-variant-caps:normal;font-variant-numeric:normal;font-variant-east-asian:normal;fill:#ff0000;fill-opacity:1;stroke-width:0.264583">58</tspan></text>
        <text
           xml:space="preserve"
           style="font-style:normal;font-variant:normal;font-weight:normal;font-stretch:normal;font-size:7.76111px;line-height:1.25;font-family:sans-serif;-inkscape-font-specification:'sans-serif, Normal';font-variant-ligatures:normal;font-variant-caps:normal;font-variant-numeric:normal;font-variant-east-asian:normal;fill:#ff0000;fill-opacity:1;stroke-width:0.264583"
           x="118.41965"
           y="212.86038"
           id="text1023"><tspan
             sodipodi:role="line"
             id="tspan1021"
             x="118.41965"
             y="212.86038"
             style="font-style:normal;font-variant:normal;font-weight:normal;font-stretch:normal;font-size:7.76111px;font-family:sans-serif;-inkscape-font-specification:'sans-serif, Normal';font-variant-ligatures:normal;font-variant-caps:normal;font-variant-numeric:normal;font-variant-east-asian:normal;fill:#ff0000;fill-opacity:1;stroke-width:0.264583">60</tspan></text>
        <text
           xml:space="preserve"
           style="font-style:normal;font-variant:normal;font-weight:normal;font-stretch:normal;font-size:7.76111px;line-height:1.25;font-family:sans-serif;-inkscape-font-specification:'sans-serif, Normal';font-variant-ligatures:normal;font-variant-caps:normal;font-variant-numeric:normal;font-variant-east-asian:normal;fill:#ff0000;fill-opacity:1;stroke-width:0.264583"
           x="372.40826"
           y="213.25208"
           id="text1031"><tspan
             sodipodi:role="line"
             id="tspan1029"
             x="372.40826"
             y="213.25208"
             style="font-style:normal;font-variant:normal;font-weight:normal;font-stretch:normal;font-size:7.76111px;font-family:sans-serif;-inkscape-font-specification:'sans-serif, Normal';font-variant-ligatures:normal;font-variant-caps:normal;font-variant-numeric:normal;font-variant-east-asian:normal;fill:#ff0000;fill-opacity:1;stroke-width:0.264583">60</tspan></text>
        <text
           xml:space="preserve"
           style="font-style:normal;font-variant:normal;font-weight:normal;font-stretch:normal;font-size:7.76111px;line-height:1.25;font-family:sans-serif;-inkscape-font-specification:'sans-serif, Normal';font-variant-ligatures:normal;font-variant-caps:normal;font-variant-numeric:normal;font-variant-east-asian:normal;fill:#ff0000;fill-opacity:1;stroke-width:0.264583"
           x="334.26172"
           y="303.62488"
           id="text1035"><tspan
             sodipodi:role="line"
             id="tspan1033"
             x="334.26172"
             y="303.62488"
             style="font-style:normal;font-variant:normal;font-weight:normal;font-stretch:normal;font-size:7.76111px;font-family:sans-serif;-inkscape-font-specification:'sans-serif, Normal';font-variant-ligatures:normal;font-variant-caps:normal;font-variant-numeric:normal;font-variant-east-asian:normal;fill:#ff0000;fill-opacity:1;stroke-width:0.264583">21</tspan></text>
        <text
           xml:space="preserve"
           style="font-size:5.64444px;line-height:1.25;font-family:sans-serif;stroke-width:0.264583"
           x="394.64697"
           y="322.62836"
           id="text1039"><tspan
             sodipodi:role="line"
             id="tspan1037"
             x="394.64697"
             y="322.62836"
             style="font-style:normal;font-variant:normal;font-weight:normal;font-stretch:normal;font-size:7.76111px;font-family:sans-serif;-inkscape-font-specification:'sans-serif, Normal';font-variant-ligatures:normal;font-variant-caps:normal;font-variant-numeric:normal;font-variant-east-asian:normal;fill:#ff0000;fill-opacity:1;stroke-width:0.264583">38</tspan></text>
      </g>
      <g
         id="g3208"
         transform="translate(85.589935,172.58835)">
        <g
           id="g1606"
           transform="matrix(0.26458333,0,0,0.26458333,-468.17235,-371.41204)">
          <g
             id="g1496"
             style="display:inline">
            <g
               id="g1432">
              <path
                 style="fill:none;stroke:#000000;stroke-width:3.77953;stroke-linecap:butt;stroke-linejoin:miter;stroke-miterlimit:4;stroke-dasharray:none;stroke-opacity:1"
                 d="m 1701.5557,1050.2019 c 9.6096,-13.869 23.2002,-21.6588 24.9772,-40.3743 3.702,-38.98897 -14.0839,-75.76747 -18.9704,-113.15147 -3.1745,-24.28598 -0.1054,-47.74879 4.8033,-71.25875 2.9896,-14.31901 6.9137,-31.38592 17.767,-41.6713 2.2615,-2.14321 2.4954,-5.40321 4.3282,-7.78173 10.6952,-13.87998 23.4682,-20.04062 37.2334,-6.47424 11.6793,-5.16845 23.697,-12.42543 36.5157,-15.11005 11.5111,-2.41079 23.4723,-0.42715 33.623,4.31263 40.3783,18.85424 47.2636,56.07327 55.7289,96.73393 3.3887,16.27671 -3.8962,34.46305 -3.1143,51.18229 0.5356,11.45202 6.3964,21.08862 7.1997,32.39225 1.0927,15.37711 -3.007,73.12514 -18.9704,80.97004 -2.7342,1.3438 -4.6962,-0.219 -7.6958,-0.4323 -4.2159,-0.2997 -8.3882,1.954 -12.4886,1.0861 -12.3813,-2.6205 -21.9294,-14.2441 -33.8659,-18.1469 -8.817,-2.88274 -18.734,-1.0146 -27.6268,-3.01561 -18.7595,-4.22109 -38.7623,-12.41006 -53.322,-25.48571 -5.3409,-4.79653 0.7886,-14.57691 -5.2889,-19.43324"
                 id="path1227" />
              <path
                 style="fill:none;stroke:#000000;stroke-width:3.77953;stroke-linecap:butt;stroke-linejoin:miter;stroke-miterlimit:4;stroke-dasharray:none;stroke-opacity:1"
                 d="m 1848.8293,1030.0949 c -8.1266,10.7326 -14.1274,37.0652 5.0479,40.4367 25.3698,4.4606 49.106,20.8489 70.8936,34.1742 22.3241,13.6534 52.6308,15.4106 66.796,40.8696 9.5071,17.0871 23.1661,57.7181 20.4243,77.6418 -1.699,12.346 -3.1795,26.4116 -2.3973,38.9265 2.1226,33.9612 7.0501,67.9142 0.7181,102.0791 -3.8556,20.8033 -14.9616,39.6461 -18.7451,60.1217 -6.1117,33.0754 -4.9172,118.1087 10.5818,145.9797 0.2686,4.9561 0.2371,15.5886 1.6791,22.2724 1.094,5.0708 4.8973,8.7789 6.4842,13.6232 1.942,5.928 -0.2383,11.9918 1.4468,17.7419 1.1934,4.072 3.4065,7.6542 4.3193,11.8912 4.1657,19.3349 0.5388,40.5395 3.8441,60.1217 1.6809,9.9586 7.545,18.6887 8.6597,28.9784 2.8846,26.6266 1.3893,54.5569 0.2324,81.3169 -0.4336,10.0287 2.1649,19.3118 2.1649,29.1896 0,22.3092 -5.2295,45.4565 -3.126,67.6937 2.7437,29.0046 0.8593,57.2051 -9.6101,84.559 -1.693,4.4232 -11.5323,43.232 -11.5323,23.7931"
                 id="path1229" />
              <path
                 style="fill:none;stroke:#000000;stroke-width:3.77953;stroke-linecap:butt;stroke-linejoin:miter;stroke-miterlimit:4;stroke-dasharray:none;stroke-opacity:1"
                 d="m 1951.4364,1162.8738 c 21.3026,21.863 24.3764,46.4896 26.919,74.8326 3.6258,40.4166 12.2305,53.2284 -11.7751,90.1773 -1.807,2.7814 -3.6806,8.029 -6.7271,9.9481 -3.7988,2.3931 -8.2288,3.2397 -12.018,5.6288 -14.3853,9.0699 -22.114,9.3979 -38.9265,2.165"
                 id="path1231" />
              <path
                 style="fill:none;stroke:#000000;stroke-width:3.77953;stroke-linecap:butt;stroke-linejoin:miter;stroke-miterlimit:4;stroke-dasharray:none;stroke-opacity:1"
                 d="m 1971.8607,1348.2129 c -1.3194,7.6474 -2.7266,15.3554 -2.3973,23.1489 0.3079,7.2874 2.7482,13.7824 3.3688,20.9734 1.5748,18.2471 -1.1307,40.2143 -1.6897,58.6116 -0.9063,29.8291 -0.2429,59.5224 -0.2429,89.3113 0,17.3269 -5.2812,37.9459 -1.922,54.9364 2.8688,14.5102 2.42,27.9063 3.8546,42.1686 0.8548,8.4978 3.9015,16.771 4.5622,25.3033 1.9872,25.6609 -3.2516,52.3039 0.961,77.6418 3.8388,23.0888 10.662,45.668 14.9011,68.3378 3.2532,17.3974 8.3049,101.7633 12.4932,105.543 4.8534,30.7 17.4818,64.5337 9.135,96.0173 -5.2028,19.6247 -15.0853,38.7242 -17.7841,59.0445 -0.9886,7.4434 0.37,15.0361 -0.961,22.4836 -3.5179,19.6828 -8.8518,39.1081 -12.5038,58.8333 -3.4151,18.445 -4.2472,35.085 -5.7661,53.8487 -0.6027,7.444 -4.4171,7.0208 -2.1544,16.4323"
                 id="path1233" />
              <path
                 style="fill:none;stroke:#000000;stroke-width:3.77953;stroke-linecap:butt;stroke-linejoin:miter;stroke-miterlimit:4;stroke-dasharray:none;stroke-opacity:1"
                 d="m 1951.6793,2113.7956 c 1.5679,15.4665 -2.5809,34.8603 3.1259,49.9624 1.9516,5.1644 5.7996,9.2314 7.9311,14.2674 3.1882,7.5327 6.2469,17.2868 8.4062,25.3033 1.3712,5.0905 -0.6004,11.1085 1.4468,16.0099 3.2169,7.7017 7.6203,15.0566 9.8531,23.1383 5.087,18.4121 -7.5721,61.3986 -13.6971,78.9408 -5.5199,15.8088 -11.1557,29.5676 -13.9401,46.4879 -0.1962,1.1927 -2.379,22.9535 -3.1259,12.3348"
                 id="path1235" />
              <path
                 style="fill:none;stroke:#000000;stroke-width:3.77953;stroke-linecap:butt;stroke-linejoin:miter;stroke-miterlimit:4;stroke-dasharray:none;stroke-opacity:1"
                 d="m 1896.4155,2244.2089 c 6.2922,28.7746 17.532,81.9069 38.4407,104.2334 2.9188,3.1168 10.0773,8.1565 13.6971,10.6029 2.4355,1.6459 10.2524,5.7564 7.6882,4.3193 -7.7964,-4.3694 -2.9741,3.7065 -4.5622,16.8759"
                 id="path1237" />
              <path
                 style="fill:none;stroke:#000000;stroke-width:3.77953;stroke-linecap:butt;stroke-linejoin:miter;stroke-miterlimit:4;stroke-dasharray:none;stroke-opacity:1"
                 d="m 1873.5834,2147.748 c 2.0184,19.1012 -6.9213,36.2816 -8.4063,54.9365 -2.0413,25.6434 2.3632,64.6921 7.4453,90.1772 2.1137,10.5996 10.8339,19.5692 11.0569,30.4991 0.2198,10.7685 -1.7879,20.9461 -0.7286,31.7875 0.5907,6.0467 8.732,56.176 6.7271,23.1384"
                 id="path1239" />
              <path
                 style="fill:none;stroke:#000000;stroke-width:3.77953;stroke-linecap:butt;stroke-linejoin:miter;stroke-miterlimit:4;stroke-dasharray:none;stroke-opacity:1"
                 d="m 1838.0152,1920.8845 c -1.1325,16.8731 0.241,35.047 4.8051,51.4725 7.8909,28.3987 9.9164,57.7576 12.7361,86.9457 1.1231,11.6267 4.9293,21.3811 4.0869,33.2977 -1.3017,18.4163 -6.2886,38.1823 -4.0869,56.0136 0.7415,6.0052 -1.1248,11.5552 -1.4363,17.5201 -0.09,1.7315 0.7468,6.6195 -0.2429,5.1958 -1.834,-2.6384 -1.7291,-4.2231 -2.6401,-7.7937"
                 id="path1241" />
              <path
                 style="fill:none;stroke:#000000;stroke-width:3.77953;stroke-linecap:butt;stroke-linejoin:miter;stroke-miterlimit:4;stroke-dasharray:none;stroke-opacity:1"
                 d="m 1889.6778,2378.2867 c -10.4128,2.8866 -21.3732,4.2509 -31.2384,8.6597 -6.9669,3.1136 -2.6401,49.169 -2.6401,57.5238 0,14.2459 -4.3455,27.8184 -3.6012,42.1686 1.3082,25.2213 6.6158,49.7105 9.1244,74.8327 0.9835,9.849 6.3319,19.0927 8.4168,28.7566 8.6425,40.059 18.4234,79.7405 27.8695,119.5992 3.0055,12.6819 7.1603,25.2252 8.4169,38.2823 2.886,29.9895 5.0479,59.6022 5.0479,89.7442 0,15.148 -2.2975,56.7368 2.6402,63.7968"
                 id="path1243" />
              <path
                 style="fill:none;stroke:#000000;stroke-width:3.77953;stroke-linecap:butt;stroke-linejoin:miter;stroke-miterlimit:4;stroke-dasharray:none;stroke-opacity:1"
                 d="m 1951.6793,2380.2404 c 3.2374,26.6901 16.9177,51.9116 18.988,78.719 1.1882,15.3861 -1.1154,30.4974 -1.4468,45.8437 -0.2628,12.168 2.1061,24.1918 1.2039,36.3391 -0.7343,9.8878 -3.3688,19.4723 -3.3688,29.4114 0,14.4747 2.015,29.2502 0.961,43.6894 -1.965,26.9173 -5.685,53.5245 -5.0374,80.6621 0.2466,10.3371 4.7078,20.1781 5.9984,30.4885 3.1804,25.4084 7.4785,50.1824 9.8531,75.4769 0.7495,7.9839 6.7722,16.1299 9.1349,23.7931 3.4929,11.3287 21.615,64.0755 34.8396,65.5288"
                 id="path1245" />
              <path
                 style="fill:none;stroke:#000000;stroke-width:3.77953;stroke-linecap:butt;stroke-linejoin:miter;stroke-miterlimit:4;stroke-dasharray:none;stroke-opacity:1"
                 d="m 1729.399,980.35431 c -3.7186,48.94719 -21.6831,89.31809 -63.4377,116.13529 -13.3677,8.5856 -27.2881,14.8034 -40.3733,24.2156 -7.8931,5.6774 -17.9748,7.3223 -25.9475,13.1902 -14.9251,10.9848 -21.4835,28.6457 -30.7631,43.6893 -4.4964,7.2892 -12.5593,12.435 -16.8231,19.4633 -19.8549,32.7278 -8.3458,82.9115 -11.5322,119.1662 -1.7242,19.6177 -5.6103,42.6047 -8.8921,62.0648 -1.2897,7.6479 -6.7835,13.1841 -8.4062,20.5405 -3.8982,17.6715 -5.3174,35.4752 -6.7272,53.4262 -0.7617,9.6996 -1.3583,20.2103 -2.6507,29.8444 -1.1209,8.3558 -6.435,15.665 -6.9594,24.4373 -1.4343,23.9912 -0.1058,46.3795 1.6791,70.281 0.6524,8.7365 -6.0341,19.0297 -1.4468,27.2465"
                 id="path1247" />
              <path
                 style="fill:none;stroke:#000000;stroke-width:3.77953;stroke-linecap:butt;stroke-linejoin:miter;stroke-miterlimit:4;stroke-dasharray:none;stroke-opacity:1"
                 d="m 1507.1188,1604.0549 c -8.4908,4.3263 -18.0681,6.9799 -25.4723,12.979 -5.2356,4.242 -0.979,32.0212 -1.4362,39.1482 -1.8433,28.7306 -7.8743,57.0237 -6.7271,85.858 0.8547,21.4861 8.7488,63.5369 4.8051,82.8271 -1.6241,7.9435 -5.9395,16.0071 -8.4169,23.7931 -3.2661,10.265 -4.5933,21.2213 -7.6881,31.5763 -2.4197,8.0961 -7.8096,16.9597 -8.1634,25.5145 -0.3727,9.0122 2.3973,18.2805 2.3973,27.4682 0,18.0653 -0.037,32.665 7.6881,49.0858 10.3424,21.9853 50.5386,66.3016 78.8246,54.2817 1.0821,-0.4598 6.1647,-0.7515 6.7271,-1.2884 0.4665,-0.4453 -1.2775,-0.1982 -1.922,-0.2218 -3.9609,-0.1451 -7.2678,-0.4194 -10.8141,-2.3761 -9.8618,-5.4415 -25.011,-18.2416 -29.0734,-29.2002 -3.5445,-9.5614 -9.8057,-18.4778 -12.2609,-28.3236 -3.0317,-12.1574 -5.034,-25.7188 -7.4453,-38.0711 -2.6044,-13.3421 4.4257,-34.1828 7.6882,-30.2773 5.4046,6.4697 5.1709,18.6343 6.97,26.391 1.543,6.6524 7.7423,11.9559 10.0854,18.5973 3.7306,10.5743 6.6013,31.5132 15.1439,39.1482 10.8745,9.7191 12.4933,-33.8201 12.4933,-36.5503 0,-16.2261 2.3136,-28.3568 -1.9221,-44.3336 -6.8322,-25.7707 -27.0602,-51.1509 -14.4152,-78.2965 7.8644,-16.883 14.2317,-38.5343 19.2203,-56.4466 2.1812,-7.8317 2.1172,-15.7643 5.2909,-23.3496 13.7661,-32.9017 32.936,-78.009 31.7136,-114.4033 -0.7345,-21.8687 -7.4651,-42.1063 -12.9685,-62.9414 -2.6728,-10.119 -2.1832,-19.6969 -6.97,-28.3236"
                 id="path1249" />
              <path
                 style="fill:none;stroke:#000000;stroke-width:3.77953;stroke-linecap:butt;stroke-linejoin:miter;stroke-miterlimit:4;stroke-dasharray:none;stroke-opacity:1"
                 d="m 1583.5355,1605.3538 c 4.9074,-23.0731 11.4767,-46.2876 19.231,-68.5491 2.5384,-7.2875 7.3668,-12.4996 8.892,-20.118 2.3749,-11.8629 2.2258,-23.6757 6.2413,-35.2514 5.6877,-16.3957 12.7191,-32.8341 16.8231,-49.7406 5.2344,-21.563 -0.7388,-44.0947 0.9611,-65.7399 1.4017,-17.849 5.1468,-36.7546 8.1739,-54.5035 3.1094,-18.2317 16.9644,-34.0429 24.7436,-50.3847 5.5706,-11.7025 8.2996,-22.8155 15.3868,-33.9525 1.9138,-3.0073 -3.3569,6.299 -5.2909,9.2934 -2.9212,4.5229 -4.0531,7.4595 -5.5232,12.7572"
                 id="path1251" />
              <path
                 style="fill:none;stroke:#000000;stroke-width:3.77953;stroke-linecap:butt;stroke-linejoin:miter;stroke-miterlimit:4;stroke-dasharray:none;stroke-opacity:1"
                 d="m 1652.507,1300.6372 c 9.8127,-12.6971 17.3176,-23.5316 31.9565,-28.3236 5.42,-1.7742 6.0346,-6.7362 0,3.6751"
                 id="path1253" />
              <path
                 style="fill:none;stroke:#000000;stroke-width:3.77953;stroke-linecap:butt;stroke-linejoin:miter;stroke-miterlimit:4;stroke-dasharray:none;stroke-opacity:1"
                 d="m 1652.507,1300.6372 c 28.6889,27.4057 53.7281,67.0478 98.2773,57.3126 7.8442,-1.7141 16.9504,-1.6117 24.036,-5.6182 15.2666,-8.6324 33.8274,-12.6602 46.8576,-20.984 3.1107,-1.9872 18.1737,-14.5009 15.862,-9.2934"
                 id="path1255" />
              <path
                 style="fill:none;stroke:#000000;stroke-width:3.77953;stroke-linecap:butt;stroke-linejoin:miter;stroke-miterlimit:4;stroke-dasharray:none;stroke-opacity:1"
                 d="m 1787.0707,1465.003 c 7.059,-29.3876 38.3556,-50.9962 58.8755,-67.2607"
                 id="path1257" />
              <path
                 style="fill:none;stroke:#000000;stroke-width:3.77953;stroke-linecap:butt;stroke-linejoin:miter;stroke-miterlimit:4;stroke-dasharray:none;stroke-opacity:1"
                 d="m 1891.3675,1375.4699 c 31.0228,15.8729 25.4363,40.9728 31.7136,69.4151"
                 id="path1259" />
              <path
                 style="fill:none;stroke:#000000;stroke-width:3.77953;stroke-linecap:butt;stroke-linejoin:miter;stroke-miterlimit:4;stroke-dasharray:none;stroke-opacity:1"
                 d="m 1850.0332,1467.8121 c 17.6765,-9.5003 32.4733,-2.8724 46.3823,-17.2983"
                 id="path1261" />
              <path
                 style="fill:none;stroke:#000000;stroke-width:3.77953;stroke-linecap:butt;stroke-linejoin:miter;stroke-miterlimit:4;stroke-dasharray:none;stroke-opacity:1"
                 d="m 1855.324,1510.8467 c 18.0863,-10.0152 21.2267,-9.4919 37.0045,-5.6183"
                 id="path1263" />
              <path
                 style="fill:none;stroke:#000000;stroke-width:3.77953;stroke-linecap:butt;stroke-linejoin:miter;stroke-miterlimit:4;stroke-dasharray:none;stroke-opacity:1"
                 d="m 1649.624,1354.4859 c 9.2784,13.7098 9.394,22.6967 11.0464,37.2051 1.3966,12.2621 6.9886,23.4659 8.4168,35.6844 1.0997,9.4072 -0.7334,19.2046 0.4753,28.5454 1.0089,7.797 4.4361,15.5126 5.7661,23.3496 2.1627,12.7441 2.7533,24.9355 5.7766,37.6381 3.2754,13.7614 8.2359,22.135 13.4543,34.8184 1.5114,3.6734 3.1057,7.9904 5.7661,11.0253 0.8088,0.9226 4.3528,1.9432 3.126,1.9432 -5.6165,0 -2.411,0.087 -9.6102,-0.433 -27.9447,27.1687 -25.5219,69.4221 -40.3733,103.5998 -8.9301,20.5508 -9.1241,42.4668 -15.3869,63.7968 -2.959,10.0781 -7.8448,19.4216 -11.0464,29.4114 -2.9843,9.3116 -2.9217,19.6652 -5.5338,29.1896 -9.2034,33.5587 -20.333,58.7119 -14.8905,94.7289 2.0349,13.4662 13.6769,66.485 18.2594,77.2088 2.8173,6.5931 6.5552,11.8665 8.1739,19.0302 1.3359,5.9121 0.2972,14.46 2.3973,20.1075 6.2054,16.688 9.6448,31.1002 13.2219,48.4522 3.5539,17.2396 10.6384,32.6724 12.7361,50.6065 4.1039,35.0857 -5.23,70.5965 -12.7361,104.2335 -2.3557,10.5564 -1.6115,19.2833 -4.8051,30.0661 -4.0693,13.7394 11.5054,40.931 2.1544,50.3848 -1.836,26.7862 -11.4571,52.4428 -13.6972,79.152 -1.4448,17.2263 -2.9324,35.1466 -11.2893,50.8283 -8.0993,15.1984 -20.8257,38.377 -23.075,55.5806 -1.0081,7.7104 0.2694,15.645 0.4858,23.3496 0.6009,21.3982 0,43.5367 3.8441,64.6733 5.0265,27.6572 12.327,56.4787 14.1829,84.559 1.2121,18.339 -2.6918,39.3877 -5.2909,57.5238 -1.5154,10.5749 0.309,21.4015 -0.7181,32.0093 -1.1809,12.1955 -5.0663,23.6177 -6.4948,35.6844 -1.3582,11.4734 -1.2392,24.4122 -4.3193,35.4626 -6.2513,22.4278 -19.1794,48.6314 -23.075,67.0389"
                 id="path1265" />
              <path
                 style="fill:none;stroke:#000000;stroke-width:3.77953;stroke-linecap:butt;stroke-linejoin:miter;stroke-miterlimit:4;stroke-dasharray:none;stroke-opacity:1"
                 d="m 1838.0152,1920.8845 c -16.443,16.1669 -23.1735,30.5757 -28.8306,51.2613 -3.8266,13.9925 -11.1131,26.7086 -14.4258,40.8696 -2.7034,11.5564 -3.03,23.5767 -6.4842,35.0402 -2.8482,9.4524 -8.5542,17.8878 -11.5322,27.4682 -4.3926,14.1308 -10.6213,26.979 -15.3763,40.4367 -2.1115,5.9759 -6.8345,11.4682 -9.6208,17.0871 -1.4204,2.8646 -5.833,11.372 -4.5622,8.438 2.4397,-5.6328 5.6055,-11.2987 8.4063,-16.6541"
                 id="path1267" />
              <path
                 style="fill:none;stroke:#000000;stroke-width:3.77953;stroke-linecap:butt;stroke-linejoin:miter;stroke-miterlimit:4;stroke-dasharray:none;stroke-opacity:1"
                 d="m 1783.2266,2104.5022 c -9.1361,40.6683 4.6889,83.3587 -6.009,123.4855 -7.7564,29.0937 -24.778,54.6312 -34.1214,82.6159 -6.6306,19.8594 -16.0476,37.4191 -20.4243,58.168 -6.1822,29.3083 -3.0264,57.8108 -4.8051,87.3787 -2.2065,36.6802 -8.8482,72.6261 -15.1439,108.7745 -5.3995,31.0026 -17.9036,60.5627 -28.3553,90.1878 -3.1277,8.8653 -0.9965,20.0022 -1.4363,29.2002 -0.6765,14.1489 -2.9418,26.5141 2.1649,40.0037 5.5739,14.7234 -0.034,31.1831 -0.2428,46.2767 -0.3582,25.8318 4.2233,52.5113 -3.6012,77.4305 -3.8476,12.2537 -2.6507,25.6061 -2.6507,38.2718 0,2.2683 0.1306,15.7761 0.7286,7.7937"
                 id="path1269" />
              <path
                 style="fill:none;stroke:#000000;stroke-width:3.77953;stroke-linecap:butt;stroke-linejoin:miter;stroke-miterlimit:4;stroke-dasharray:none;stroke-opacity:1"
                 d="m 1676.2896,2212.6326 c -7.4267,24.3055 -3.8424,50.3595 -5.5232,75.4768 -0.7638,11.4135 -2.8836,22.7234 -0.961,34.1742 0.5753,3.4268 11.9895,24.148 7.6881,16.4324"
                 id="path1271" />
              <path
                 style="fill:none;stroke:#000000;stroke-width:3.77953;stroke-linecap:butt;stroke-linejoin:miter;stroke-miterlimit:4;stroke-dasharray:none;stroke-opacity:1"
                 d="m 1752.9492,2228.1989 c -11.8418,23.4549 -25.1863,129.9803 -49.4976,129.9803"
                 id="path1273" />
              <path
                 style="fill:none;stroke:#000000;stroke-width:3.77953;stroke-linecap:butt;stroke-linejoin:miter;stroke-miterlimit:4;stroke-dasharray:none;stroke-opacity:1"
                 d="m 1683.7454,2815.1168 c -8.2606,27.1734 -3.1015,55.7758 -14.4153,81.9611 -3.2802,7.5919 -9.45,15.1672 -13.6971,22.2724"
                 id="path1275" />
              <path
                 style="fill:none;stroke:#000000;stroke-width:3.77953;stroke-linecap:butt;stroke-linejoin:miter;stroke-miterlimit:4;stroke-dasharray:none;stroke-opacity:1"
                 d="m 1607.3287,2809.921 c -1.7172,22.4152 -15.7413,46.361 -30.7632,63.3638 -5.1693,5.851 5.5573,11.4688 2.6507,11.4688 -4.6884,0 -2.3346,-9.1355 -2.6507,-13.8133"
                 id="path1277" />
              <path
                 style="fill:none;stroke:#000000;stroke-width:3.77953;stroke-linecap:butt;stroke-linejoin:miter;stroke-miterlimit:4;stroke-dasharray:none;stroke-opacity:1"
                 d="m 1576.5655,2870.9403 c 2.6437,10.7296 5.6469,21.377 7.9311,32.1888 0.6072,2.8745 -3.7094,10.2474 -4.5622,13.2008 -2.587,8.9592 -2.5571,17.9583 -5.5232,26.8135 -3.8881,11.6073 -10.5736,22.2844 -14.6582,33.9524 -4.9654,14.1841 -12.3064,30.5733 -13.94,45.4213 -1.0626,9.6578 2.4682,20.3313 2.1649,30.2668 -0.5255,17.212 1.4644,21.7734 14.8905,33.097 3.6966,3.1178 5.8639,6.206 10.8141,7.3502 9.4134,2.176 18.9829,-4.828 27.1619,-8.2162 21.2138,-8.7877 10.4457,-5.0752 24.0255,-20.3292 21.6608,-24.3313 6.6801,-32.4018 10.5712,-60.5547 2.5154,-18.1998 18.6489,-29.8603 25.958,-45.6325 3.5442,-7.648 1.3341,-24.4157 -1.4468,-32.6534 -1.2208,-3.6164 -2.6263,-7.196 -3.8441,-10.8141 -0.2945,-0.8751 -0.9214,-3.5204 -0.961,-2.5979 -0.099,2.3092 0.3239,4.6115 0.4858,6.9172"
                 id="path1279" />
              <path
                 style="fill:none;stroke:#000000;stroke-width:3.77953;stroke-linecap:butt;stroke-linejoin:miter;stroke-miterlimit:4;stroke-dasharray:none;stroke-opacity:1"
                 d="m 1913.7138,2901.6506 c -3.925,-2.1016 -7.563,-4.8622 -11.7751,-6.3047 -0.4945,-0.1693 -8.3016,21.9121 -9.3673,24.0044 -8.4834,16.6548 0.024,78.8824 23.3073,85.2137 14.226,3.8685 19.7444,-5.4174 32.4423,-8.4379 14.1672,-3.37 28.8408,-6.0949 43.4887,-4.5411 12.4765,1.3235 22.0635,6.7513 33.8891,9.5151 9.9733,2.3309 20.3978,1.1749 30.2773,3.6751 6.5089,1.6473 13.6697,8.202 19.6956,10.6029 20.4993,8.1678 36.4,3.7025 56.4783,1.5102 5.2093,-0.5688 11.2602,1.5273 16.3373,-0.2112 6.5202,-2.2327 11.3103,-7.2624 17.2983,-10.3811 5.5763,-2.9044 16.8263,-2.2145 20.9101,-7.139 8.8317,-10.6501 -0.3672,-20.8687 -9.8531,-25.3033 -14.3644,-6.7151 -30.5825,-11.0603 -46.3823,-12.3243 -6.9253,-0.554 -15.4472,2.1064 -22.1034,0.2113 -20.6159,-5.8698 -37.2645,-15.2563 -54.5457,-28.1125 -14.9209,-11.1002 -22.164,-24.6473 -33.6462,-38.4935 -0.7545,-0.9097 -3.6956,-5.6288 -4.5622,-5.6288 -2.4117,0 4.8057,0.955 7.2024,0.6865"
                 id="path1281" />
              <path
                 style="fill:none;stroke:#000000;stroke-width:3.77953;stroke-linecap:butt;stroke-linejoin:miter;stroke-miterlimit:4;stroke-dasharray:none;stroke-opacity:1"
                 d="m 1724.351,794.78283 c 16.9207,6.69713 36.9821,7.14012 52.6343,17.08711 8.9228,5.6705 20.9635,27.55383 32.9175,21.83939 14.7497,-10.5791 42.699,-32.37593 61.5157,-15.99936 12.7338,11.08255 16.4739,19.32472 18.988,34.17422 0.6747,3.98549 -2.6507,14.53397 1.922,9.51513"
                 id="path1283" />
              <path
                 style="fill:none;stroke:#000000;stroke-width:3.77953;stroke-linecap:butt;stroke-linejoin:miter;stroke-miterlimit:4;stroke-dasharray:none;stroke-opacity:1"
                 d="m 1758.2401,854.90453 c -2.4043,7.78671 -5.0848,15.49343 -7.2129,23.36012 -7.1933,26.59123 -8.529,30.64567 -10.5712,54.71465 -0.2413,2.84428 -1.6255,30.09685 -1.4468,34.17422 0.1723,3.93011 4.005,8.49969 1.6897,11.68006 -2.2369,3.07261 -7.5333,1.01382 -11.2999,1.52073"
                 id="path1285" />
              <path
                 style="fill:none;stroke:#000000;stroke-width:3.77953;stroke-linecap:butt;stroke-linejoin:miter;stroke-miterlimit:4;stroke-dasharray:none;stroke-opacity:1"
                 d="m 1724.351,794.78283 c -6.2126,47.2134 -3.4329,25.51193 -8.4062,65.09576"
                 id="path1287" />
              <path
                 style="fill:none;stroke:#000000;stroke-width:3.77953;stroke-linecap:butt;stroke-linejoin:miter;stroke-miterlimit:4;stroke-dasharray:none;stroke-opacity:1"
                 d="m 1737.8159,827.01389 c -13.4089,23.97828 0.9862,31.1837 -21.8711,32.8647"
                 id="path1289" />
              <path
                 style="fill:none;stroke:#000000;stroke-width:3.77953;stroke-linecap:butt;stroke-linejoin:miter;stroke-miterlimit:4;stroke-dasharray:none;stroke-opacity:1"
                 d="m 1737.8159,827.01389 c 8.4733,35.74076 5.3249,14.6426 5.0374,63.7968"
                 id="path1291" />
              <path
                 style="fill:none;stroke:#000000;stroke-width:3.77953;stroke-linecap:butt;stroke-linejoin:miter;stroke-miterlimit:4;stroke-dasharray:none;stroke-opacity:1"
                 d="m 1771.6944,769.49011 c 15.2654,-3.40656 35.9183,-17.02512 51.6626,-7.57197"
                 id="path1293" />
              <path
                 style="fill:none;stroke:#000000;stroke-width:3.77953;stroke-linecap:butt;stroke-linejoin:miter;stroke-miterlimit:4;stroke-dasharray:none;stroke-opacity:1"
                 d="m 1789.2356,804.51974 c -3.6893,-31.37354 39.6248,-18.16819 47.3433,-36.55036 1.8765,-4.46898 -8.8146,-4.03416 -13.2219,-6.05124"
                 id="path1295" />
              <path
                 style="fill:none;stroke:#000000;stroke-width:3.77953;stroke-linecap:butt;stroke-linejoin:miter;stroke-miterlimit:4;stroke-dasharray:none;stroke-opacity:1"
                 d="m 1789.2356,804.51974 c 14.0175,-3.38996 28.035,-6.77993 42.0524,-10.16989"
                 id="path1297" />
              <path
                 style="fill:none;stroke:#000000;stroke-width:3.77953;stroke-linecap:butt;stroke-linejoin:miter;stroke-miterlimit:4;stroke-dasharray:none;stroke-opacity:1"
                 d="m 1831.288,794.34985 c 8.0895,3.17171 16.1789,6.34342 24.2684,9.51513"
                 id="path1299" />
              <path
                 style="fill:none;stroke:#000000;stroke-width:3.77953;stroke-linecap:butt;stroke-linejoin:miter;stroke-miterlimit:4;stroke-dasharray:none;stroke-opacity:1"
                 d="m 1855.5564,803.86498 c -0.6337,9.51865 -0.6337,9.51865 0,0"
                 id="path1301" />
              <path
                 style="fill:none;stroke:#000000;stroke-width:3.77953;stroke-linecap:butt;stroke-linejoin:miter;stroke-miterlimit:4;stroke-dasharray:none;stroke-opacity:1"
                 d="m 1875.2836,888.66617 c -0.9049,3.71651 -2.3993,7.75317 -1.9084,11.6799 0.1201,0.96058 0.7896,1.64666 1.0176,2.55702 0.259,1.03441 0.1089,2.13408 0.3392,3.16832 0.2455,1.10287 0.7681,2.12153 1.0604,3.20559 0.343,1.27217 0.054,2.75984 0.425,3.96971 0.4018,1.3116 1.3665,2.42546 1.7388,3.70134 0.4027,1.38023 0.3153,2.76638 0.6355,4.15981 0.8005,3.48337 2.4092,7.28754 4.3257,10.30449 1.2274,1.93207 0.9873,3.61699 1.3568,5.87816 0.073,0.44484 0.8275,1.36593 0.3821,1.29714 -1.2175,-0.188 -1.5966,0.25201 -2.2905,1.25987 -0.1235,0.17936 -0.8509,1.46532 -0.8909,1.44997 -1.4407,-0.55271 -2.414,-3.03154 -4.4953,-3.70134 -4.0637,-1.30779 -8.1417,0 -12.2558,0"
                 id="path1307" />
              <path
                 style="fill:none;stroke:#000000;stroke-width:3.77953;stroke-linecap:butt;stroke-linejoin:miter;stroke-miterlimit:4;stroke-dasharray:none;stroke-opacity:1"
                 d="m 1808.9577,899.19989 c 4.0778,-2.17014 7.8943,-5.49215 12.7646,-5.53337 3.152,-0.0267 6.15,1.07268 9.3298,0.99149 2.7069,-0.0691 5.2278,-2.09236 4.8773,-1.06791 -0.2871,0.83939 -0.902,1.16997 -1.6531,1.52639"
                 id="path1309" />
              <path
                 style="fill:none;stroke:#000000;stroke-width:3.77953;stroke-linecap:butt;stroke-linejoin:miter;stroke-miterlimit:4;stroke-dasharray:none;stroke-opacity:1"
                 d="m 1813.8351,899.54467 c 5.0221,5.13467 12.8782,3.99994 18.7862,0.76226 1.2383,-0.67861 2.3364,-1.54383 3.6044,-2.17495 0.2269,-0.1129 0.8461,-0.15292 0.6784,-0.34293 -0.8265,-0.93685 -1.7519,-1.78171 -2.6278,-2.67256"
                 id="path1311" />
              <path
                 style="fill:none;stroke:#000000;stroke-width:3.77953;stroke-linecap:butt;stroke-linejoin:miter;stroke-miterlimit:4;stroke-dasharray:none;stroke-opacity:1"
                 d="m 1783.2266,2104.5022 c 0.2668,-0.3673 1.1677,-0.835 0.8004,-1.1018 -0.3673,-0.2669 -0.7047,1.5456 -0.8004,1.1018 -1.9728,-9.1442 -0.8373,-18.3933 -0.8373,-27.5598 0,-3.09 -0.6607,-6.58 0.2161,-9.5381 0.2592,-0.8745 0.7847,-3.5591 0.658,-2.6559 -0.1506,1.0738 -0.068,2.0887 -0.3266,3.1457"
                 id="path1313" />
              <path
                 style="fill:none;stroke:#000000;stroke-width:3.77953;stroke-linecap:butt;stroke-linejoin:miter;stroke-miterlimit:4;stroke-dasharray:none;stroke-opacity:1"
                 d="m 1851.2371,2163.5362 c 0.5454,-1.2268 2.8631,-3.1349 1.6363,-3.6804 -6.723,-2.9891 0.2232,6.1989 2.5166,11.6994 0.4504,1.0801 -0.3709,2.99 0,4.2311 1.4649,4.9014 2.503,9.9472 3.823,14.8499 2.4008,8.9175 5.9742,7.444 1.8586,5.1149"
                 id="path1315" />
              <path
                 style="fill:none;stroke:#000000;stroke-width:3.77953;stroke-linecap:butt;stroke-linejoin:miter;stroke-miterlimit:4;stroke-dasharray:none;stroke-opacity:1"
                 d="m 1871.455,1593.644 c 5.2962,7.749 18.2971,4.0987 23.9317,8.4576"
                 id="path1317" />
            </g>
          </g>
          <g
             id="g1449">
            <path
               style="fill:none;stroke:#ff0000;stroke-width:7.55906;stroke-linecap:butt;stroke-linejoin:miter;stroke-miterlimit:4;stroke-dasharray:none;stroke-opacity:1"
               d="m 1721.9572,1059.6918 h 131.0267"
               id="path1356" />
            <path
               style="fill:none;stroke:#ff0000;stroke-width:7.55906;stroke-linecap:butt;stroke-linejoin:miter;stroke-miterlimit:4;stroke-dasharray:none;stroke-opacity:1"
               d="m 1638.7892,1197.5815 321.8371,-17.5057"
               id="path1358" />
            <path
               style="fill:none;stroke:#ff0000;stroke-width:7.55906;stroke-linecap:butt;stroke-linejoin:miter;stroke-miterlimit:4;stroke-dasharray:none;stroke-opacity:1"
               d="m 1656.2758,1288.3618 c 0,0 271.457,2.0699 329.9248,-17.112"
               id="path1360" />
            <path
               style="fill:none;stroke:#ff0000;stroke-width:7.55906;stroke-linecap:butt;stroke-linejoin:miter;stroke-miterlimit:4;stroke-dasharray:none;stroke-opacity:1"
               d="m 1530.3832,1373.0426 c -3.0593,10.1289 -9.2884,-11.0173 0.1104,8.0637 9.3989,19.081 19.5613,28.1293 40.8708,26.6549 21.3095,-1.4745 60.4273,11.9971 66.9878,-6.0994"
               id="path1364" />
            <path
               style="fill:none;stroke:#ff0000;stroke-width:7.55906;stroke-linecap:butt;stroke-linejoin:miter;stroke-miterlimit:4;stroke-dasharray:none;stroke-opacity:1"
               d="m 1693.8414,1564.2624 c 64.2848,14.1379 123.9533,16.2991 160.127,14.8247 36.1738,-1.4744 102.6141,-3.9382 112.0129,-18.6872"
               id="path1366" />
            <path
               style="fill:none;stroke:#ff0000;stroke-width:7.55906;stroke-linecap:butt;stroke-linejoin:miter;stroke-miterlimit:4;stroke-dasharray:none;stroke-opacity:1"
               d="m 1636.7145,1755.7296 c 66.8821,12.8808 166.3311,25.4734 209.8242,24.292 43.493,-1.1815 122.5067,9.2451 136.6026,-6.9831"
               id="path1368" />
            <path
               style="fill:none;stroke:#ff0000;stroke-width:7.55906;stroke-linecap:butt;stroke-linejoin:miter;stroke-miterlimit:4;stroke-dasharray:none;stroke-opacity:1"
               d="m 1639.2263,2067.8797 c 18.6872,18.4904 46.1153,27.9372 75.2964,30.2953 29.181,2.3582 67.0982,7.766 77.3711,-11.4111"
               id="path1370" />
            <path
               style="fill:none;stroke:#ff0000;stroke-width:7.55906;stroke-linecap:butt;stroke-linejoin:miter;stroke-miterlimit:4;stroke-dasharray:none;stroke-opacity:1"
               d="m 1464.7017,1824.5616 c 14.7539,14.36 11.2527,23.6964 36.0633,21.7322 24.8107,-1.9643 36.3947,-4.918 41.6393,-12.5879"
               id="path1372" />
            <path
               style="fill:none;stroke:#ff0000;stroke-width:7.55906;stroke-linecap:butt;stroke-linejoin:miter;stroke-miterlimit:4;stroke-dasharray:none;stroke-opacity:1"
               d="m 1586.9923,1918.1418 h 487.7265"
               id="path1374" />
            <path
               style="fill:none;stroke:#ff0000;stroke-width:7.55906;stroke-linecap:butt;stroke-linejoin:miter;stroke-miterlimit:4;stroke-dasharray:none;stroke-opacity:1"
               d="M 1735.3951,1581.0898 V 1913.123"
               id="path1376" />
            <path
               style="fill:none;stroke:#ff0000;stroke-width:7.55906;stroke-linecap:butt;stroke-linejoin:miter;stroke-miterlimit:4;stroke-dasharray:none;stroke-opacity:1"
               d="m 1792.0043,1580.8929 v 184.2116"
               id="path1378" />
            <path
               style="fill:none;stroke:#ff0000;stroke-width:7.55906;stroke-linecap:butt;stroke-linejoin:miter;stroke-miterlimit:4;stroke-dasharray:none;stroke-opacity:1"
               d="m 1721.9572,1059.6918 c 14.0959,84.532 36.9326,224.7846 37.0431,270.9095 0.1104,46.125 2.7327,236.8297 2.7327,236.8297"
               id="path1380" />
            <path
               style="fill:none;stroke:#ff0000;stroke-width:7.55906;stroke-linecap:butt;stroke-linejoin:miter;stroke-miterlimit:4;stroke-dasharray:none;stroke-opacity:1"
               d="m 1562.6187,1121.6992 c -25.2428,43.277 -48.5214,81.8281 -52.7814,129.9221 -4.26,48.094 -8.0877,177.4253 -11.147,198.5715 -3.0593,21.1462 -18.2454,115.9607 -21.199,139.2681 -2.9537,23.3074 -27.7595,224.045 -27.7595,224.045"
               id="path1382" />
            <path
               style="fill:none;stroke:#ff0000;stroke-width:7.55906;stroke-linecap:butt;stroke-linejoin:miter;stroke-miterlimit:4;stroke-dasharray:none;stroke-opacity:1"
               d="m 1677.4748,1576.0806 c -18.4663,66.2866 -47.6474,207.615 -52.7814,259.1526 -5.1341,51.5375 -15.5175,286.206 -15.5175,286.206 l -56.9358,831.4686"
               id="path1384" />
            <path
               style="fill:none;stroke:#ff0000;stroke-width:7.55906;stroke-linecap:butt;stroke-linejoin:miter;stroke-miterlimit:4;stroke-dasharray:none;stroke-opacity:1"
               d="m 1847.6289,1931.2387 99.2281,1064.7587"
               id="path1386" />
          </g>
        </g>
        <g
           id="g1681"
           transform="matrix(0.22623898,0,0,0.22623898,-216.38359,-284.71324)">
          <path
             style="fill:none;fill-opacity:1;stroke:#000000;stroke-width:3.77953;stroke-linecap:butt;stroke-linejoin:miter;stroke-miterlimit:4;stroke-dasharray:none;stroke-opacity:1"
             d="m 2205.3443,521.83615 c -13.5987,-10.00117 -19.1751,-5.21079 -32.4339,-0.87059 -7.1022,2.32487 -15.1332,2.91255 -21.7478,6.81112 -26.0111,15.33076 -30.4833,46.59569 -41.5666,71.84113 -5.4531,12.42094 -15.3567,24.14803 -18.4447,37.58067 -5.2069,22.65032 -7.2411,81.70438 4.2676,103.47274 5.6904,10.76303 12.0429,17.50992 20.3907,26.04102 3.9073,3.99308 6.5098,9.32747 11.6592,11.88959"
             id="path3567" />
          <path
             style="fill:none;fill-opacity:1;stroke:#000000;stroke-width:3.77953;stroke-linecap:butt;stroke-linejoin:miter;stroke-miterlimit:4;stroke-dasharray:none;stroke-opacity:1"
             d="m 2205.3443,521.83615 c 22.6539,2.89803 49.6739,4.2388 68.7514,18.18007 4.8532,3.5466 7.4372,8.6247 11.2665,12.93089 4.5294,5.09346 12.4945,12.46321 14.1771,19.2299 2.6128,10.50815 3.1853,21.11606 4.2761,31.81084 1.8707,18.34106 2.13,36.50889 -1.7497,54.7109 -3.6885,17.30515 -8.4512,36.15959 -15.7305,52.26129 -4.5517,10.06839 -10.2284,21.18846 -12.8199,31.98155 -3.2863,13.68694 -3.7454,30.94053 -3.3031,44.92098 0.2589,8.1845 3.4257,15.51874 2.1423,23.59994"
             id="path3569" />
          <path
             style="fill:none;fill-opacity:1;stroke:#000000;stroke-width:3.77953;stroke-linecap:butt;stroke-linejoin:miter;stroke-miterlimit:4;stroke-dasharray:none;stroke-opacity:1"
             d="m 2312.3592,670.57981 c 6.7418,2.92856 21.0137,-11.38451 26.997,-7.16107 2.5287,1.78503 0.7767,12.58732 0.7767,15.55121 0,24.70243 -10.1922,24.71296 -23.8902,42.82131 -8.7087,11.51267 -11.0149,24.04286 -24.0779,30.59031"
             id="path3571" />
          <path
             style="fill:none;fill-opacity:1;stroke:#000000;stroke-width:3.77953;stroke-linecap:butt;stroke-linejoin:miter;stroke-miterlimit:4;stroke-dasharray:none;stroke-opacity:1"
             d="m 2105.7124,673.20013 c -10.8698,-6.57873 -10.948,-7.27342 -20.1943,-0.34995 -2.7047,2.02521 -6.8427,2.91444 -9.1327,5.41988 -11.2486,12.30637 -7.1573,46.96629 3.4994,58.38106 11.1552,11.94864 22.5631,6.11495 32.818,13.63078 3.652,2.67652 4.4466,7.8874 7.9634,10.48981 1.2703,0.94002 4.2881,-2.40645 4.6602,-0.87059 1.4773,6.09794 1.4283,12.46714 2.1424,18.70071"
             id="path3573" />
          <path
             style="fill:none;fill-opacity:1;stroke:#000000;stroke-width:3.77953;stroke-linecap:butt;stroke-linejoin:miter;stroke-miterlimit:4;stroke-dasharray:none;stroke-opacity:1"
             d="m 2161.0635,732.63102 c -2.3956,4.89354 -5.1421,9.63034 -7.1867,14.68061 -4.9361,12.19276 -0.3955,29.18028 -0.7767,41.95072 -0.1872,6.27259 -4.1862,11.59473 -5.821,17.48017 -5.4292,19.54512 -5.6103,39.43769 -16.3194,57.50193 -3.7937,6.39923 -39.0644,32.96722 -48.3607,39.15969 -10.1995,6.79411 -22.1339,11.6946 -33.0143,16.95099 -17.6491,8.52642 -34.3943,19.16542 -51.2712,29.19052 -7.0247,4.17277 -20.7105,9.47945 -24.4705,13.28084"
             id="path3575" />
          <path
             style="fill:none;fill-opacity:1;stroke:#000000;stroke-width:3.77953;stroke-linecap:butt;stroke-linejoin:miter;stroke-miterlimit:4;stroke-dasharray:none;stroke-opacity:1"
             d="m 2292.1648,752.38157 c -5.2463,8.44989 -11.9243,16.16418 -15.739,25.34967 -1.9763,4.75886 1.5534,10.22758 1.5534,15.3805 0,8.37386 -1.7733,17.01249 -0.3841,25.34114 1.4524,8.70714 6.0027,16.64106 7.9634,25.17042 3.5085,15.26174 4.4269,36.94729 21.7478,44.3918 8.4148,3.61666 17.5041,3.77881 26.0325,6.64895 6.6513,2.23842 12.7084,6.41575 19.0251,9.43998 6.7135,3.21426 14.0152,4.79025 20.587,8.2109 13.2263,6.88442 25.029,16.61972 36.1296,26.22026 4.4108,3.81471 10.4669,5.42423 12.82,10.48128"
             id="path3577" />
          <path
             style="fill:none;fill-opacity:1;stroke:#000000;stroke-width:3.77953;stroke-linecap:butt;stroke-linejoin:miter;stroke-miterlimit:4;stroke-dasharray:none;stroke-opacity:1"
             d="m 2417.0439,911.26509 c 38.543,20.46646 80.6091,17.59062 103.1228,62.22192 9.4993,18.83145 4.9479,36.68329 5.437,56.28989 0.7376,29.5688 3.3444,60.2483 -1.3571,89.8334 -2.9527,18.5804 -7.3773,36.9166 -6.7941,56.1107 0.6252,20.5762 13.1243,38.9242 14.5611,59.2517 2.9418,41.6177 5.4797,84.0356 1.3657,125.6729 -1.4796,14.9746 -6.6063,38.5786 -6.6063,52.0906 0,6.6293 2.3341,13.0685 1.5534,19.5713 -1.8822,15.6778 -6.6822,30.7092 -7.7671,46.5 -0.3487,5.0754 -0.8669,10.6634 -0.5804,15.7304 0.1071,1.8934 1.9375,2.9626 1.9375,4.8907 0,3.47 -3.3652,10.0238 -3.8835,12.2395"
             id="path3579" />
          <path
             style="fill:none;fill-opacity:1;stroke:#000000;stroke-width:3.77953;stroke-linecap:butt;stroke-linejoin:miter;stroke-miterlimit:4;stroke-dasharray:none;stroke-opacity:1"
             d="m 2540.95,1458.357 c -2.6878,21.2188 2.3302,42.2832 2.3302,63.4425 0,8.7104 -2.2688,17.9435 -1.5535,26.5702 0.5582,6.7305 1.5358,12.7357 1.1694,19.5798 -0.7162,13.3764 -3.48,26.7705 -4.2762,40.201 -0.544,9.1771 0.034,18.3071 -1.3571,27.4408 -1.1818,7.76 -3.6835,15.3311 -5.0529,23.0708 -1.3093,7.4002 0.1472,15.2798 -1.7497,22.5501 -1.7063,6.5397 -4.3185,12.4474 -5.2406,19.2214 -0.8126,5.969 0.6852,11.8853 0.1963,17.8301 -0.4032,4.9025 -2.5499,9.605 -3.6958,14.3392 -2.2952,9.483 -1.9886,18.9287 -5.0443,28.1407"
             id="path3581" />
          <path
             style="fill:none;fill-opacity:1;stroke:#000000;stroke-width:3.77953;stroke-linecap:butt;stroke-linejoin:miter;stroke-miterlimit:4;stroke-dasharray:none;stroke-opacity:1"
             d="m 2516.6758,1760.7436 c -7.681,22.6943 13.3917,36.1904 16.1145,55.7522 1.4017,10.0694 0.3182,20.3034 0.9731,30.411 0.6782,10.468 2.6925,20.9895 2.9105,31.4695 0.3837,18.4529 -5.5971,35.0994 -11.258,52.082 -2.523,7.5689 -3.1527,15.6489 -6.0259,23.0708 -7.1923,18.579 -16.8793,34.5139 -26.997,51.5614 -9.218,15.5318 -21.4577,33.7714 -35.7285,45.4501 -1.5095,1.2354 -6.7077,7.023 -7.9634,6.1198 -10.1684,-7.3142 -6.7457,-32.6023 -1.946,-41.2508 2.1235,-3.8263 5.7187,-6.6482 7.7671,-10.4898 10.2092,-19.1471 32.1903,-76.4303 26.4165,-94.562 -0.7754,-2.435 -0.7095,-5.9044 -1.7497,-8.2109 -1.974,-4.3772 -3.0433,9.1094 -4.6602,13.6308 -3.8681,10.8162 -12.1954,20.11 -16.7035,30.761 -2.0986,4.9583 -5.1485,9.0144 -9.1242,12.5895 -0.4635,0.4168 -1.4927,1.6617 -1.5534,1.0413 -0.3669,-3.7531 2.1687,-6.1516 2.9105,-9.7814 1.7443,-8.5343 -0.6988,-17.3331 2.1339,-25.6996 4.5081,-13.3149 11.2767,-24.2344 12.2395,-38.8012 1.3568,-20.5289 0.8792,-32.005 -2.5264,-51.7321 -0.5476,-3.1715 0.973,-6.4571 0.973,-9.6192 0,-4.6927 -1.5493,-9.1543 -1.9461,-13.81 -0.5468,-6.4176 1.5285,-12.8245 0.5804,-19.2214 -2.3795,-16.0553 -5.1828,-31.9711 -5.6247,-48.4204 -0.1276,-4.7499 1.6465,-8.7183 2.3301,-13.2809 0.9526,-6.3576 -0.316,-29.4524 -1.3656,-35.8309 -0.5552,-3.3736 -3.7183,-6.8831 -5.0443,-10.1399 -3.632,-8.92 -7.4891,-20.1415 -9.5168,-29.5405 -1.624,-7.5275 -2.1084,-15.0355 -3.3032,-22.5501 -0.9668,-6.0811 -4.8011,-10.9044 -4.6602,-17.3009 0.1508,-6.8474 3.2715,-13.2512 2.7142,-20.1005 -1.1349,-13.9464 -6.2,-26.578 -7.1781,-40.3802 -0.5219,-7.3638 1.8424,-14.2263 2.1338,-21.4918 0.6397,-15.9509 1.3349,-31.3323 3.4909,-47.1999 0.6254,-4.6026 10.607,-31.8908 5.4455,-16.601 12.4517,-30.6183 -1.3486,-62.1883 -8.9364,-91.7624 -1.6028,-6.247 -5.3954,-12.1422 -5.6333,-18.7007 -0.9671,-26.6577 2.1064,-52.8115 -1.7497,-79.3607 -0.5056,-3.481 -3.7702,-4.2806 -4.4639,-8.0402 -1.11,-6.0148 -0.2305,-14.6593 -3.4995,-18.7007"
             id="path3583" />
          <path
             style="fill:none;fill-opacity:1;stroke:#000000;stroke-width:3.77953;stroke-linecap:butt;stroke-linejoin:miter;stroke-miterlimit:4;stroke-dasharray:none;stroke-opacity:1"
             d="m 2001.8129,934.86504 c -24.5928,-1.79322 -58.4131,15.0922 -77.884,29.54047 -6.8441,5.07855 -11.7236,11.99996 -18.2569,17.1217 -4.2146,3.30393 -9.2497,5.15627 -13.7844,7.86949 -4.95,2.96169 -22.3059,26.518 -23.8902,32.6814 -2.4438,9.5077 -5.8953,27.0756 -5.0528,37.0601 0.6595,7.8161 2.8852,15.5748 3.1068,23.4207 0.2002,7.0907 -1.965,13.5718 -0.5804,20.8003 1.0212,5.3315 3.3863,10.396 4.2761,15.7305 1.8432,11.0499 0,23.1235 0,34.2605 0,5.0726 2.0277,10.2644 2.3302,15.3805 1.064,17.9959 -1.6884,36.6425 -2.9191,54.5316 -1.3563,19.716 1.3291,40.018 -1.9375,59.6016 -2.1848,13.0981 -8.6248,27.9709 -7.383,41.4301 2.8275,30.6444 8.769,61.9604 17.2839,91.7624 0.9948,3.4817 3.3752,5.8252 4.2762,9.4399 1.547,6.2068 1.5533,12.699 3.3031,18.8715 1.8306,6.4575 5.7978,12.3773 7.7671,18.8799 1.7306,5.7148 0.811,11.648 1.3571,17.4802 1.2914,13.7942 4.4639,26.6821 4.4639,40.5509"
             id="path3585" />
          <path
             style="fill:none;fill-opacity:1;stroke:#000000;stroke-width:3.77953;stroke-linecap:butt;stroke-linejoin:miter;stroke-miterlimit:4;stroke-dasharray:none;stroke-opacity:1"
             d="m 1899.0657,1443.4972 c 4.1453,2.9702 8.18,6.1012 12.4359,8.9108 5.6272,3.7148 13.6336,3.3715 17.8642,8.9193 4.5539,5.9718 3.873,17.4164 9.1327,20.9711"
             id="path3587" />
          <path
             style="fill:none;fill-opacity:1;stroke:#000000;stroke-width:3.77953;stroke-linecap:butt;stroke-linejoin:miter;stroke-miterlimit:4;stroke-dasharray:none;stroke-opacity:1"
             d="m 1985.8862,1261.3722 c -8.8626,12.8028 -11.625,28.6216 -12.0432,44.0418 -1.1323,41.7415 10.4329,83.7235 -0.7767,124.973 -5.4755,20.1486 -10.4533,38.7371 -6.41,60.1308 0.3734,1.9756 1.0973,30.9075 2.7227,24.6413"
             id="path3589" />
          <path
             style="fill:none;fill-opacity:1;stroke:#000000;stroke-width:3.77953;stroke-linecap:butt;stroke-linejoin:miter;stroke-miterlimit:4;stroke-dasharray:none;stroke-opacity:1"
             d="m 1882.5585,1471.6379 c -10.4713,20.3068 -5.3035,42.6545 -6.4099,64.3215 -1.3833,27.0874 -1.6543,53.4691 -1.3571,80.5813 0.1111,10.1368 -2.8644,20.33 -1.9375,30.411 0.7093,7.715 3.2208,15.1666 4.0713,22.9001 0.8074,7.3412 -0.2993,14.8737 0.5889,22.1916 0.9984,8.226 6.6222,15.3063 7.9634,23.4293 3.3284,20.159 5.9717,38.7781 5.0443,59.4223 -0.2277,5.0695 -6.4849,29.8971 -1.7497,19.2299"
             id="path3591" />
          <path
             style="fill:none;fill-opacity:1;stroke:#000000;stroke-width:3.77953;stroke-linecap:butt;stroke-linejoin:miter;stroke-miterlimit:4;stroke-dasharray:none;stroke-opacity:1"
             d="m 1989.1893,1473.5583 c 15.0232,15.4562 -12.8199,-14.0647 -12.8199,-9.7814 0,8.8827 11.2972,5.6701 12.8199,9.7814 1.5357,4.1463 -2.4743,8.5403 -2.919,12.9394 -0.456,4.5112 3.6567,10.2827 4.2761,14.8513 2.2751,16.7786 7.8513,33.861 4.8566,51.22 -2.302,13.3435 -8.4127,24.9306 -12.82,37.5807 -6.1154,17.553 -11.5863,36.0552 -16.3108,54.0025 -5.4947,20.873 -10.6838,46.7838 -8.356,68.5209 0.5617,5.2454 2.2256,10.4267 2.3301,15.7304 0.116,5.8865 -2.6414,11.0233 -2.9105,16.7803 -0.5647,12.0794 0.6516,23.991 0.973,36.0102 0.3679,13.7563 -2.5499,48.6885 0.9645,59.7723 2.7901,8.7995 6.3137,17.0262 6.9989,26.391 0.6628,9.0577 -1.4765,16.6915 -2.5264,25.5204 -1.1964,10.0606 1.0807,19.6153 2.5264,29.3697 1.1828,7.9808 6.6694,12.1951 10.0972,19.0507 0.9138,1.8276 7.1683,30.0611 5.821,30.0611 -4.1211,0 -42.7264,-62.3303 -37.4782,-44.2211 2.1914,7.5615 7.0101,14.6631 10.0972,21.8502 5.0277,11.7055 4.0049,24.5598 8.5437,36.0017 2.4051,6.0628 6.7989,11.5091 8.9364,17.6594 1.439,4.1401 -1.335,12.6541 -1.5534,16.601 -0.707,12.7781 0.8292,27.3417 1.5534,40.201 0.2639,4.6857 7.4039,29.5073 3.3032,31.2902 -2.8921,1.2574 -11.5188,-8.4361 -12.82,-9.9606 -10.5221,-12.3277 -20.6964,-24.9397 -31.2731,-37.2307 -4.7773,-5.5517 -12.4973,-7.8556 -16.5071,-13.9893 -14.135,-21.6218 -18.8694,-43.0912 -23.1049,-68.3417 -3.6855,-21.9709 -10.3228,-42.1057 -8.9364,-64.8422 1.8799,-30.8312 6.5193,-63.2173 13.0077,-93.5121 1.232,-5.7525 4.1614,-10.7198 5.8295,-16.2596 1.631,-5.4163 1.6909,-11.1859 2.5265,-16.7803"
             id="path3593" />
          <path
             style="fill:none;fill-opacity:1;stroke:#000000;stroke-width:3.77953;stroke-linecap:butt;stroke-linejoin:miter;stroke-miterlimit:4;stroke-dasharray:none;stroke-opacity:1"
             d="m 1942.3821,1088.3287 c 1.9424,24.6157 2.9229,62.1542 11.2579,85.4719 2.4162,6.7593 7.4915,12.1951 10.2935,18.7007 2.6843,6.2323 2.0794,13.9796 4.4725,20.4505 2.2291,6.0273 7.198,10.7762 10.0972,16.4303 5.6775,11.0724 7.6206,22.1867 15.7304,32.1608 4.8108,5.9166 12.836,5.8353 17.4802,11.7103 5.8714,7.4275 11.9432,23.4207 22.1404,23.4207"
             id="path3595" />
          <path
             style="fill:none;fill-opacity:1;stroke:#000000;stroke-width:3.77953;stroke-linecap:butt;stroke-linejoin:miter;stroke-miterlimit:4;stroke-dasharray:none;stroke-opacity:1"
             d="m 2045.1208,1252.4529 c 17.6657,0.9135 24.7314,-16.0777 37.8708,-24.8205 17.614,-11.7202 46.1924,-43.9564 53.7977,-63.9717 1.8427,-4.8497 20.4814,-63.3239 7.3829,-50.3408"
             id="path3597" />
          <path
             style="fill:none;fill-opacity:1;stroke:#000000;stroke-width:3.77953;stroke-linecap:butt;stroke-linejoin:miter;stroke-miterlimit:4;stroke-dasharray:none;stroke-opacity:1"
             d="m 2258.5616,1085.8791 c -0.9704,16.1515 -1.2667,31.7263 2.1338,47.5413 1.6035,7.4577 1.2353,16.4382 3.8835,23.5999 1.9991,5.4064 7.6767,11.9045 10.4898,16.6011 11.755,19.6253 26.3905,29.5863 44.0845,43.5212 7.4429,5.8615 17.3133,6.1656 24.8632,11.3689 1.4218,0.9799 17.9896,12.9822 14.177,6.1112"
             id="path3599" />
          <path
             style="fill:none;fill-opacity:1;stroke:#000000;stroke-width:3.77953;stroke-linecap:butt;stroke-linejoin:miter;stroke-miterlimit:4;stroke-dasharray:none;stroke-opacity:1"
             d="m 2383.2444,1272.2034 c 22.3286,-27.9262 48.8625,-57.8185 58.0738,-93.5121 6.2757,-24.3185 8.3507,-49.6073 17.8642,-72.8824 4.8187,-11.7891 1.0897,-24.262 9.5168,-34.6104"
             id="path3601" />
          <path
             style="fill:none;fill-opacity:1;stroke:#000000;stroke-width:3.77953;stroke-linecap:butt;stroke-linejoin:miter;stroke-miterlimit:4;stroke-dasharray:none;stroke-opacity:1"
             d="m 2299.5393,1334.4338 c -6.2366,11.1642 3.4994,-13.4267 3.4994,-12.7601 0,4.4104 -2.5727,8.4482 -3.4994,12.7601 -1.6605,7.7261 -2.1965,18.4035 -5.6333,26.2118 -2.2574,5.1287 -6.53,8.9603 -8.7401,13.9892 -3.1453,7.1571 -13.5812,33.6854 -15.1415,42.1215"
             id="path3603" />
          <path
             style="fill:none;fill-opacity:1;stroke:#000000;stroke-width:3.77953;stroke-linecap:butt;stroke-linejoin:miter;stroke-miterlimit:4;stroke-dasharray:none;stroke-opacity:1"
             d="m 2112.8991,1342.9947 c 9.9056,13.7528 25.5129,26.8778 33.0143,42.6506 1.4586,3.0668 1.3004,6.9522 2.9191,9.6107"
             id="path3605" />
          <path
             style="fill:none;fill-opacity:1;stroke:#000000;stroke-width:3.77953;stroke-linecap:butt;stroke-linejoin:miter;stroke-miterlimit:4;stroke-dasharray:none;stroke-opacity:1"
             d="m 2166.1163,1513.4179 c 1.1837,14.9922 5.1695,29.3482 6.2137,44.3918"
             id="path3607" />
          <path
             style="fill:none;fill-opacity:1;stroke:#000000;stroke-width:3.77953;stroke-linecap:butt;stroke-linejoin:miter;stroke-miterlimit:4;stroke-dasharray:none;stroke-opacity:1"
             d="m 2251.3749,1530.3689 c 6.8642,-5.4796 17.2562,-20.7862 22.9171,-25.6911"
             id="path3609" />
          <path
             style="fill:none;stroke:#000000;stroke-width:3.77953;stroke-linecap:butt;stroke-linejoin:miter;stroke-miterlimit:4;stroke-dasharray:none;stroke-opacity:1"
             d="m 1990.2555,1286.6505 c 5.0902,12.8282 4.6535,8.281 5.1188,19.9125 0.5146,12.8658 -3.8045,25.3697 -0.7313,38.507 2.92,12.4819 13.6633,21.9788 18.8357,33.0749 7.08,15.1885 20.9714,47.9371 12.2464,62.5338"
             id="path1549" />
          <path
             style="fill:none;stroke:#000000;stroke-width:3.77953;stroke-linecap:butt;stroke-linejoin:miter;stroke-miterlimit:4;stroke-dasharray:none;stroke-opacity:1"
             d="m 2045.8384,1396.5788 c -2.0488,13.7076 -5.5847,26.9131 -10.0526,39.9856 -2.8284,8.2754 -3.9082,17.5509 -7.4973,25.5053 -4.962,10.9966 -9.9432,20.6172 -12.8009,32.424 -2.4767,10.2327 -6.2765,19.4604 -4.7571,30.1097 0.1362,0.955 1.0198,14.2241 -0.5464,8.558"
             id="path1551" />
          <path
             style="fill:none;stroke:#000000;stroke-width:3.77953;stroke-linecap:butt;stroke-linejoin:miter;stroke-miterlimit:4;stroke-dasharray:none;stroke-opacity:1"
             d="m 2035.6009,1528.0587 c -9.9688,22.6239 -27.5967,42.968 -35.2927,66.6481 -6.9349,21.3382 -2.1465,52.8052 -1.2777,75.206 0.6686,17.2388 -3.2591,33.9386 -4.3875,51.0105 -0.3736,5.6537 1.8241,20.0116 1.8241,21.8893"
             id="path1553" />
          <path
             style="fill:none;stroke:#000000;stroke-width:3.77953;stroke-linecap:butt;stroke-linejoin:miter;stroke-miterlimit:4;stroke-dasharray:none;stroke-opacity:1"
             d="m 2416.6513,1252.1029 c -2.1315,1.9722 -4.7047,3.5548 -6.3944,5.9165 -4.2737,5.9735 -2.3707,18.4704 -3.841,25.3446 -3.6748,17.1813 -9.4734,34.5792 -11.7,51.9989 -0.5409,4.2319 0.304,8.8239 -0.5464,13.0017 -2.4842,12.2051 -6.977,25.133 -7.3205,37.6794 -0.3717,13.5733 1.963,30.6803 0.5544,42.4606"
             id="path1555" />
          <path
             style="fill:none;stroke:#000000;stroke-width:3.77953;stroke-linecap:butt;stroke-linejoin:miter;stroke-miterlimit:4;stroke-dasharray:none;stroke-opacity:1"
             d="m 2363.2642,1397.8966 c 6.8302,15.0285 2.9887,6.123 8.4134,19.583 4.1098,10.1975 8.7639,21.2682 10.4223,32.2553 0.7131,4.7244 -0.286,9.6281 0.5464,14.3115 0.7876,4.4315 3.9165,8.3212 4.7571,12.6723 1.67,8.6434 1.0232,16.338 4.7491,24.5169 4.0611,8.9146 6.1119,21.2613 7.1357,30.9374 0.503,4.7529 0.7313,19.099 0.7313,14.3196 0,-5.0067 -0.1095,-1.1092 2.0089,-11.5232"
             id="path1557" />
          <path
             style="fill:none;stroke:#000000;stroke-width:3.77953;stroke-linecap:butt;stroke-linejoin:miter;stroke-miterlimit:4;stroke-dasharray:none;stroke-opacity:1"
             d="m 2381.9151,1511.7704 c -2.7429,-0.9884 -5.4857,-1.9768 -8.2286,-2.9652 -0.2437,-0.2196 -0.9738,-0.8799 -0.7312,-0.6589 2.3814,2.1698 6.6882,1.3396 8.9598,3.6241 8.079,8.1249 12.1259,22.6016 16.2722,33.0749 3.8935,9.8345 9.3657,19.2702 13.3473,29.1294 5.235,12.9629 4.4712,30.0939 5.6732,43.7704 2.1942,24.9654 11.2994,48.6495 13.1625,73.5587 1.2347,16.5074 -1.8322,39.7853 -1.8322,52.4971"
             id="path1559" />
          <path
             style="fill:none;stroke:#000000;stroke-width:3.77953;stroke-linecap:butt;stroke-linejoin:miter;stroke-miterlimit:4;stroke-dasharray:none;stroke-opacity:1"
             d="m 1996.4671,1742.8126 c -3.0455,1.3714 -6.3841,2.2221 -9.1365,4.1142 -3.7334,2.5665 -3.8102,15.0806 -4.3875,19.2535 -0.6221,4.496 -3.0094,8.4737 -3.4795,13.0018 -1.3655,13.1536 -1.4666,29.4557 0.5545,42.4525 2.3593,15.1719 7.1636,30.4511 8.9598,45.5865 1.2342,10.3999 2.9825,20.8069 3.833,31.2588 0.8569,10.5303 -2.1074,21.2397 -0.7312,31.7651 3.2265,24.6774 13.0324,48.0955 18.6508,72.2409 6.1574,26.4616 3.5063,54.1042 9.5142,80.3006 3.379,14.7333 9.3825,29.7054 10.2375,44.9276 0.8256,14.6994 -1.6367,29.6709 -0.9161,44.4293 0.3929,8.0452 3.2606,16.4495 4.7572,24.3562 1.7742,9.373 0.5202,19.2088 3.1017,28.4704 3.4222,12.2771 12.5586,36.3751 13.1705,48.3749 1.534,30.079 6.9292,58.5047 3.6563,88.8667 -1.3128,12.1778 4.6368,26.8466 -0.7313,38.507 -1.2137,2.6365 -1.9315,4.7377 -2.5633,1.6473"
             id="path1561" />
          <path
             style="fill:none;stroke:#000000;stroke-width:3.77953;stroke-linecap:butt;stroke-linejoin:miter;stroke-miterlimit:4;stroke-dasharray:none;stroke-opacity:1"
             d="m 2211.5022,1822.9525 c -2.8182,18.4769 1.2136,37.5826 0,55.9445 -0.49,7.4133 -2.3,14.5023 -2.017,22.0579 0.475,12.679 1.2656,25.3088 0.3697,38.0088 -2.5089,35.566 -7.9518,71.6518 -11.8848,107.2926 -1.3696,12.4115 -4.7712,24.4571 -4.5723,37.0284 0.1028,6.5004 2.3463,12.6794 2.5634,19.2535 0.3435,10.4034 -1.8976,21.5928 2.0089,31.4276"
             id="path1563" />
          <path
             style="fill:none;stroke:#000000;stroke-width:3.77953;stroke-linecap:butt;stroke-linejoin:miter;stroke-miterlimit:4;stroke-dasharray:none;stroke-opacity:1"
             d="m 2167.0648,2058.1089 c -0.1821,4.3313 -0.9191,8.6747 -0.5464,12.9937 0.8682,10.0605 16.9886,36.5034 20.2982,48.2222 1.5556,5.5083 0.6898,11.597 2.5553,16.9473 10.537,30.2202 12.7279,51.3641 15.3642,82.6069 0.5776,6.8442 3.743,12.6586 4.0179,19.4142 0.8671,21.3115 0.4563,43.5502 -2.3705,64.6793 -2.4478,18.296 -2.3391,40.31 -9.5143,57.2623 -2.677,6.3248 -4.5643,33.4009 -4.5643,18.5946"
             id="path1565" />
          <path
             style="fill:none;stroke:#000000;stroke-width:3.77953;stroke-linecap:butt;stroke-linejoin:miter;stroke-miterlimit:4;stroke-dasharray:none;stroke-opacity:1"
             d="m 2211.5022,1822.9525 c 2.2553,4.6071 5.1031,8.9689 6.766,13.8214 2.9308,8.5521 -2.6776,19.8263 -3.4794,28.4704 -1.2376,13.3422 0.5513,26.1648 2.3786,39.3267 3.0419,21.9118 8.1771,44.0221 9.5062,66.1498 0.4761,7.9267 -0.8368,15.6542 -0.5464,23.5365 0.6008,16.3137 3.7173,32.654 5.4883,48.8731 0.5001,4.5799 -0.2075,9.1162 0.7313,13.6607 3.0084,14.5627 1.2053,26.7879 0.916,41.4641 -0.1038,5.267 -0.218,10.5318 -0.3696,15.7982 -0.013,0.4391 -0.1186,1.7408 0,1.3178 0.9799,-3.4936 1.8051,-7.0289 2.7402,-10.5347"
             id="path1567" />
          <path
             style="fill:none;stroke:#000000;stroke-width:3.77953;stroke-linecap:butt;stroke-linejoin:miter;stroke-miterlimit:4;stroke-dasharray:none;stroke-opacity:1"
             d="m 2255.0155,2038.3572 c -2.5657,12.9765 -4.0345,26.5717 -7.3125,39.4954 -5.9813,23.5815 -15.9551,46.3203 -20.1134,70.4328 -2.5027,14.5128 -5.7461,29.5019 -7.4973,44.0999 -1.1539,9.6193 -0.2615,19.3661 -1.4624,28.9606 -2.5778,20.594 -6.3158,42.7051 -3.4715,63.5221 2.2929,16.7805 7.8233,34.1017 12.9777,50.191 2.3177,7.2346 2.3647,14.9659 4.5723,22.2106 1.6441,5.3955 5.1848,10.3469 6.766,15.6375 2.0322,6.7995 1.8972,20.8461 3.1098,25.0151"
             id="path1569" />
          <path
             style="fill:none;stroke:#000000;stroke-width:3.77953;stroke-linecap:butt;stroke-linejoin:miter;stroke-miterlimit:4;stroke-dasharray:none;stroke-opacity:1"
             d="m 2428.5381,1743.8009 c 0.9161,-2.1402 2.6626,-4.0941 2.7482,-6.4205 0.08,-2.1644 -4.0928,-4.626 -4.7571,-6.4205 -1.066,-2.8796 -2.5634,-11.5378 -2.5634,-15.1392 0,-2.3572 0,-9.4286 0,-7.0714 0,7.6856 -2.8341,20.3321 -0.5464,27.1526 0.9977,2.9746 5.0676,4.7619 5.1187,7.899 0.2928,17.9877 -6.8553,9.1845 -4.2026,18.7553 1.0107,3.6468 3.7614,6.7792 4.7571,10.5348 2.9546,11.1444 5.7956,23.7092 6.0348,35.2124 0.5081,24.4339 -3.7185,47.264 -5.4884,71.4212 -1.8647,25.4515 -3.1231,51.4588 -6.9508,76.6846 -2.3537,15.5112 -7.8728,30.3705 -10.0527,45.9079 -1.0502,7.4855 -0.3194,14.9085 -1.1009,22.3794 -0.7981,7.6308 -3.2897,14.6848 -4.3875,22.2187 -2.6145,17.9423 -3.7564,36.3702 -7.4973,54.1364 -1.5355,7.2925 -5.3122,13.8114 -6.9508,21.0696 -4.3919,19.4536 -7.1988,39.1624 -11.1536,58.7409 -4.0072,19.838 -11.2558,40.1109 -12.2464,60.3963 -1.2463,25.5218 -7.2764,51.1114 -9.3294,76.6845 -0.6282,7.8253 3.2958,15.0923 3.1098,22.8777 -0.1654,6.926 -2.1244,12.6459 -0.1848,19.7436 1.3532,4.952 5.6122,15.3729 9.5143,15.9589"
             id="path1571" />
          <path
             style="fill:none;stroke:#000000;stroke-width:3.77953;stroke-linecap:butt;stroke-linejoin:miter;stroke-miterlimit:4;stroke-dasharray:none;stroke-opacity:1"
             d="m 2099.0508,2275.169 c -2.8661,-2.4134 -5.6821,-4.8875 -8.5982,-7.2402 -1.1719,-0.9455 -0.042,23.1681 0,24.8464 0.4659,18.6568 3.8605,35.3235 -2.009,53.4855 -6.5891,20.3889 -16.3743,40.9382 -21.0294,61.8748 -1.3719,6.1706 0.2431,12.5853 -1.2776,18.7553 -1.5752,6.391 -4.7732,12.1894 -5.85,18.7634 -3.1505,19.2343 1.7014,36.9758 2.7402,55.9444 0.8658,15.8111 1.7115,31.9284 2.1937,47.724 0.7882,25.8167 -0.1757,51.8374 3.4714,77.5042 0.6367,4.4804 2.5003,8.1892 3.6643,12.5116 2.444,9.0756 1.1212,19.3406 2.5553,28.6312 1.1683,7.5679 4.4501,13.9711 6.4045,21.2303 2.9159,10.8306 2.0681,22.3187 4.7491,33.0748 1.5218,6.1057 4.6708,11.6089 6.4044,17.6062 3.8156,13.1999 3.3597,27.5771 6.2116,40.974 6.4686,30.3867 20.742,58.8988 25.6017,89.5256 1.0033,6.3232 0.1868,13.0427 0.7313,19.4143 0.53,6.2029 3.4601,11.9735 3.6562,18.2651 0.3597,11.5431 -0.9115,22.919 -0.1848,34.5615 0.7241,11.6014 3.6806,23.7235 1.8321,35.3731 -2.9417,18.5392 -10.9063,37.6378 -22.6767,52.3365 -2.8015,3.4984 -7.1576,4.4449 -10.0526,7.5696 -8.1207,8.7646 -17.719,18.1196 -29.8044,20.7321 -5.4267,1.173 -11.4285,3.5394 -16.8267,4.2749 -12.2407,1.668 -13.9904,1.2904 -19.5589,12.6723 -0.3576,0.731 -1.815,3.4086 -1.2857,4.283 3.7945,6.2687 9.4953,8.4648 15.1794,12.6723 4.2825,3.1701 7.234,7.791 11.7,10.6955 5.9245,3.8531 13.2166,4.8302 19.1972,8.558 5.2465,3.2702 9.7916,7.8716 15.3643,11.025 5.7883,3.2755 12.8043,4.2535 18.466,7.5696 12.2306,7.1637 22.5346,16.0767 36.7552,19.575 5.0368,1.239 11.2255,-0.8472 16.2723,-0.9804 19.5128,-0.5148 32.0743,0.01 33.091,-24.5249 0.5191,-12.5275 0.34,-27.7674 -7.3125,-38.507 -3.9728,-5.5755 -16.7484,-12.6009 -16.4571,-19.0848 0.8068,-17.96 33.5667,-30.2633 34.0151,-43.4409 0.5544,-16.296 -16.7565,-26.6163 -18.8357,-42.4606 -3.5359,-26.945 -0.1985,-54.3477 -1.1009,-81.4578 -0.4721,-14.1839 -3.9332,-27.181 -5.4803,-41.1347 -1.5492,-13.9715 -1.4835,-29.0327 -2.017,-43.1195 -0.7318,-19.3251 5.119,-37.5985 4.7571,-56.9329 -0.4787,-25.5838 -6.0652,-50.6917 -2.5633,-76.3551 0.7882,-5.7768 4.2244,-10.8599 6.0348,-16.2964 2.3272,-6.9885 2.4766,-14.5028 4.5723,-21.5517 5.2815,-17.7652 17.558,-44.7463 17.558,-63.1927 0,-26.52 -4.6672,-51.9967 -9.8759,-77.8337 -4.2683,-21.1721 -4.9399,-43.3973 -9.3294,-64.6712 -1.4494,-7.0243 -5.843,-12.8834 -7.6741,-19.7517 -1.7185,-6.4458 -0.5546,-13.0735 -2.017,-19.4142 -0.853,-3.6983 -4.3035,-8.142 -5.6651,-11.5232 -2.2799,-5.6614 -1.03,-12.4768 -2.009,-18.4259 -0.7546,-4.5856 -3.1066,-8.9931 -3.6562,-13.4999 -1.1819,-9.6916 -2.3201,-20.4665 -1.4625,-30.2785 1.3065,-14.9476 4.9946,-28.9652 3.6562,-43.2802"
             id="path1573" />
          <path
             style="fill:none;stroke:#000000;stroke-width:3.77953;stroke-linecap:butt;stroke-linejoin:miter;stroke-miterlimit:4;stroke-dasharray:none;stroke-opacity:1"
             d="m 2261.2351,2290.7984 c -6.0717,12.4704 -11.0644,36.015 -8.9598,50.6891 0.5489,3.8276 2.3786,7.9031 2.3786,11.8446 0,5.958 -2.8836,11.5568 -2.1938,17.6062 0.9266,8.1254 3.9089,13.1148 2.925,21.7285 -0.6774,5.9306 -3.23,10.8795 -4.9419,16.4491 -1.6652,5.4173 -1.5717,10.9845 -2.7402,16.4571 -4.9939,23.3879 -14.9676,46.2625 -15.7259,70.5935 -0.547,17.5536 3.9459,35.5855 2.5634,52.9954 -1.6588,20.8905 -2.9793,42.6272 -1.6473,63.6828 1.0645,16.8273 2.8788,38.6254 8.0437,54.6347 2.0981,6.5033 4.7592,12.2727 5.3036,19.2535 1.1785,15.1141 3.4404,30.2735 4.2027,45.4177 0.4201,8.3479 -0.4123,17.5949 0.916,25.8348 1.0953,6.7941 2.8686,13.174 3.4795,20.0731 0.9131,10.3134 -0.6946,20.8648 0.908,31.1062 1.0118,6.4653 4.3223,12.1281 5.3036,18.5945 1.8676,12.3081 -0.354,24.9855 0.7312,37.3499 3.2059,36.5274 2.0455,73.4007 4.5723,109.9283 1.5118,21.8541 -10.4767,43.9225 -14.4482,65.1614 -2.0861,11.1561 -0.5037,23.1141 -3.2866,34.232 -4.6028,18.3891 -18.0539,37.9373 -9.8758,57.4311 6.2834,14.9775 11.3266,14.8373 24.5008,16.9473 4.1688,0.6676 7.9303,3.2342 12.2544,2.9651 8.762,-0.5451 31.9648,-24.1068 43.5133,-27.1526 9.849,-2.5975 22.2218,-0.8454 31.6365,-5.4321 7.0035,-3.4119 13.8759,-10.1758 21.9374,-11.6839 5.6683,-1.0603 11.2462,0.093 16.6419,-2.4669 6.7633,-3.2095 19.227,-16.3079 24.6857,-21.5598 7.0034,-6.7382 16.4481,-8.9255 19.9285,-18.924 1.4561,-4.1832 -10.4403,-21.6057 -15.1714,-22.2107 -4.644,-0.5939 -8.6369,-2.1126 -13.1705,-3.1339 -8.3863,-1.8892 -16.2871,1.5663 -24.6856,-2.7964 -14.8164,-7.6965 -56.7386,-54.2508 -59.6088,-70.7543 -4.987,-28.6755 0.4678,-57.1896 -0.5464,-85.9015 -0.4567,-12.9299 -5.1899,-25.4656 -2.7402,-38.507 5.1572,-27.4545 14.9044,-54.1872 19.7437,-81.7873 3.2857,-18.7394 2.915,-38.1511 6.4045,-56.9328 2.9052,-15.6372 7.536,-31.0017 11.3383,-46.4061 1.5275,-6.1882 1.2599,-12.8143 2.925,-18.9241 1.4673,-5.3837 4.3422,-10.3774 5.85,-15.7982 2.5683,-9.2332 5.4803,-34.9832 5.4803,-45.257 0,-4.8527 -1.4445,-9.6203 -1.2776,-14.4803 0.2266,-6.6017 2.802,-12.9946 2.5634,-19.583 -0.2391,-6.6005 -2.2723,-13.2844 -1.6474,-19.9124 2.9141,-30.9048 10.0724,-60.5426 5.1188,-91.6551 -1.0901,-6.8461 -4.0967,-13.205 -5.3036,-20.0812 -1.5558,-8.8642 -0.9508,-17.7963 -2.7402,-26.6543 -0.9624,-4.7646 -3.2728,-9.2691 -3.6562,-14.1509 -0.2736,-3.4834 0.542,-7.2604 -0.1848,-10.7035 -1.3059,-6.1865 -5.5222,-11.2574 -6.9509,-17.2768 -1.7241,-7.264 -0.4927,-15.0492 -2.3785,-22.3794 -3.1246,-12.1447 -10.5991,-23.673 -10.5991,-36.3695"
             id="path1575" />
          <path
             style="fill:none;stroke:#000000;stroke-width:3.77953;stroke-linecap:butt;stroke-linejoin:miter;stroke-miterlimit:4;stroke-dasharray:none;stroke-opacity:1"
             d="m 2162.8622,3028.5149 c -3.8713,17.4448 -10.7839,36.6228 -10.7839,54.8034"
             id="path1577" />
          <path
             style="fill:none;stroke:#000000;stroke-width:3.77953;stroke-linecap:butt;stroke-linejoin:miter;stroke-miterlimit:4;stroke-dasharray:none;stroke-opacity:1"
             d="m 2185.9005,3037.4024 c 3.3493,9.4339 6.7361,22.5372 16.8267,27.482"
             id="path1579" />
          <path
             style="fill:none;stroke:#000000;stroke-width:3.77953;stroke-linecap:butt;stroke-linejoin:miter;stroke-miterlimit:4;stroke-dasharray:none;stroke-opacity:1"
             d="m 2257.0324,3025.0595 c 16.1692,8.1306 -6.9149,32.2958 -0.3696,41.1428"
             id="path1581" />
          <path
             style="fill:none;stroke:#000000;stroke-width:1px;stroke-linecap:butt;stroke-linejoin:miter;stroke-opacity:1"
             d="m 2103.0686,616.93205 c 1.4625,21.00797 2.925,42.01594 4.3875,63.02392"
             id="path1583" />
          <circle
             id="path1615"
             style="fill:#000000;stroke:none"
             cx="1917.8459"
             cy="976.15955"
             r="1.5" />
          <circle
             id="path1617"
             style="fill:#000000;stroke:none"
             cx="2513.3789"
             cy="965.79352"
             r="1.5" />
          <path
             style="fill:none;stroke:#ff0000;stroke-width:7.55906;stroke-linecap:butt;stroke-linejoin:miter;stroke-miterlimit:4;stroke-dasharray:none;stroke-opacity:1"
             d="m 1909.987,968.58991 h 599.5589"
             id="path1621" />
          <path
             style="fill:none;stroke:#ff0000;stroke-width:7.55906;stroke-linecap:butt;stroke-linejoin:miter;stroke-miterlimit:4;stroke-dasharray:none;stroke-opacity:1"
             d="m 1942.3821,1088.3287 h 517.7926"
             id="path1623" />
          <path
             style="fill:none;stroke:#ff0000;stroke-width:7.55906;stroke-linecap:butt;stroke-linejoin:miter;stroke-miterlimit:4;stroke-dasharray:none;stroke-opacity:1"
             d="m 2038.1563,1457.3286 h 336.8079"
             id="path1625" />
          <path
             style="fill:none;stroke:#ff0000;stroke-width:7.55906;stroke-linecap:butt;stroke-linejoin:miter;stroke-miterlimit:4;stroke-dasharray:none;stroke-opacity:1"
             d="M 2123.3668,882.85713 V 1442.0286"
             id="path1627" />
          <path
             style="fill:none;stroke:#ff0000;stroke-width:7.55906;stroke-linecap:butt;stroke-linejoin:miter;stroke-miterlimit:4;stroke-dasharray:none;stroke-opacity:1"
             d="m 2090.2758,1463.7411 33.4606,851.4215"
             id="path1629" />
          <path
             style="fill:none;stroke:#ff0000;stroke-width:7.55906;stroke-linecap:butt;stroke-linejoin:miter;stroke-miterlimit:4;stroke-dasharray:none;stroke-opacity:1"
             d="m 2293.1782,1465.8317 4.3979,1700.2634"
             id="path1631" />
        </g>
      </g>
    </g>
  </g>
</svg>
