<?xml version="1.0" encoding="UTF-8" standalone="no"?>
<svg
   xmlns:dc="http://purl.org/dc/elements/1.1/"
   xmlns:cc="http://creativecommons.org/ns#"
   xmlns:rdf="http://www.w3.org/1999/02/22-rdf-syntax-ns#"
   xmlns:svg="http://www.w3.org/2000/svg"
   xmlns="http://www.w3.org/2000/svg"
   xmlns:sodipodi="http://sodipodi.sourceforge.net/DTD/sodipodi-0.dtd"
   xmlns:inkscape="http://www.inkscape.org/namespaces/inkscape"
   version="1.1"
   id="svg3554"
   width="4032"
   height="5376"
   viewBox="0 0 4032 5376"
   sodipodi:docname="IMG_1949.jpg.2022_07_26_22_05_58.0.svg"
   inkscape:version="1.0.2 (e86c870879, 2021-01-15)">
  <metadata
     id="metadata3560">
    <rdf:RDF>
      <cc:Work
         rdf:about="">
        <dc:format>image/svg+xml</dc:format>
        <dc:type
           rdf:resource="http://purl.org/dc/dcmitype/StillImage" />
        <dc:title></dc:title>
      </cc:Work>
    </rdf:RDF>
  </metadata>
  <defs
     id="defs3558" />
  <sodipodi:namedview
     pagecolor="#ffffff"
     bordercolor="#666666"
     borderopacity="1"
     objecttolerance="10"
     gridtolerance="10"
     guidetolerance="10"
     inkscape:pageopacity="0"
     inkscape:pageshadow="2"
     inkscape:window-width="1920"
     inkscape:window-height="1016"
     id="namedview3556"
     showgrid="false"
     inkscape:document-rotation="0"
     inkscape:zoom="0.34373351"
     inkscape:cx="2701.8995"
     inkscape:cy="1897.3493"
     inkscape:window-x="0"
     inkscape:window-y="0"
     inkscape:window-maximized="1"
     inkscape:current-layer="g3562" />
  <g
     inkscape:groupmode="layer"
     inkscape:label="Image"
     id="g3562">
    <g
       id="g1681">
      <path
         style="fill:none;stroke:#000000;stroke-width:3.77952756;stroke-linecap:butt;stroke-linejoin:miter;stroke-opacity:1;fill-opacity:1;stroke-miterlimit:4;stroke-dasharray:none"
         d="m 2205.3443,521.83615 c -13.5987,-10.00117 -19.1751,-5.21079 -32.4339,-0.87059 -7.1022,2.32487 -15.1332,2.91255 -21.7478,6.81112 -26.0111,15.33076 -30.4833,46.59569 -41.5666,71.84113 -5.4531,12.42094 -15.3567,24.14803 -18.4447,37.58067 -5.2069,22.65032 -7.2411,81.70438 4.2676,103.47274 5.6904,10.76303 12.0429,17.50992 20.3907,26.04102 3.9073,3.99308 6.5098,9.32747 11.6592,11.88959"
         id="path3567" />
      <path
         style="fill:none;stroke:#000000;stroke-width:3.77952756;stroke-linecap:butt;stroke-linejoin:miter;stroke-opacity:1;fill-opacity:1;stroke-miterlimit:4;stroke-dasharray:none"
         d="m 2205.3443,521.83615 c 22.6539,2.89803 49.6739,4.2388 68.7514,18.18007 4.8532,3.5466 7.4372,8.6247 11.2665,12.93089 4.5294,5.09346 12.4945,12.46321 14.1771,19.2299 2.6128,10.50815 3.1853,21.11606 4.2761,31.81084 1.8707,18.34106 2.13,36.50889 -1.7497,54.7109 -3.6885,17.30515 -8.4512,36.15959 -15.7305,52.26129 -4.5517,10.06839 -10.2284,21.18846 -12.8199,31.98155 -3.2863,13.68694 -3.7454,30.94053 -3.3031,44.92098 0.2589,8.1845 3.4257,15.51874 2.1423,23.59994"
         id="path3569" />
      <path
         style="fill:none;stroke:#000000;stroke-width:3.77952756;stroke-linecap:butt;stroke-linejoin:miter;stroke-opacity:1;fill-opacity:1;stroke-miterlimit:4;stroke-dasharray:none"
         d="m 2312.3592,670.57981 c 6.7418,2.92856 21.0137,-11.38451 26.997,-7.16107 2.5287,1.78503 0.7767,12.58732 0.7767,15.55121 0,24.70243 -10.1922,24.71296 -23.8902,42.82131 -8.7087,11.51267 -11.0149,24.04286 -24.0779,30.59031"
         id="path3571" />
      <path
         style="fill:none;stroke:#000000;stroke-width:3.77952756;stroke-linecap:butt;stroke-linejoin:miter;stroke-opacity:1;fill-opacity:1;stroke-miterlimit:4;stroke-dasharray:none"
         d="m 2105.7124,673.20013 c -10.8698,-6.57873 -10.948,-7.27342 -20.1943,-0.34995 -2.7047,2.02521 -6.8427,2.91444 -9.1327,5.41988 -11.2486,12.30637 -7.1573,46.96629 3.4994,58.38106 11.1552,11.94864 22.5631,6.11495 32.818,13.63078 3.652,2.67652 4.4466,7.8874 7.9634,10.48981 1.2703,0.94002 4.2881,-2.40645 4.6602,-0.87059 1.4773,6.09794 1.4283,12.46714 2.1424,18.70071"
         id="path3573" />
      <path
         style="fill:none;stroke:#000000;stroke-width:3.77952756;stroke-linecap:butt;stroke-linejoin:miter;stroke-opacity:1;fill-opacity:1;stroke-miterlimit:4;stroke-dasharray:none"
         d="m 2161.0635,732.63102 c -2.3956,4.89354 -5.1421,9.63034 -7.1867,14.68061 -4.9361,12.19276 -0.3955,29.18028 -0.7767,41.95072 -0.1872,6.27259 -4.1862,11.59473 -5.821,17.48017 -5.4292,19.54512 -5.6103,39.43769 -16.3194,57.50193 -3.7937,6.39923 -39.0644,32.96722 -48.3607,39.15969 -10.1995,6.79411 -22.1339,11.6946 -33.0143,16.95099 -17.6491,8.52642 -34.3943,19.16542 -51.2712,29.19052 -7.0247,4.17277 -20.7105,9.47945 -24.4705,13.28084"
         id="path3575" />
      <path
         style="fill:none;stroke:#000000;stroke-width:3.77952756;stroke-linecap:butt;stroke-linejoin:miter;stroke-opacity:1;fill-opacity:1;stroke-miterlimit:4;stroke-dasharray:none"
         d="m 2292.1648,752.38157 c -5.2463,8.44989 -11.9243,16.16418 -15.739,25.34967 -1.9763,4.75886 1.5534,10.22758 1.5534,15.3805 0,8.37386 -1.7733,17.01249 -0.3841,25.34114 1.4524,8.70714 6.0027,16.64106 7.9634,25.17042 3.5085,15.26174 4.4269,36.94729 21.7478,44.3918 8.4148,3.61666 17.5041,3.77881 26.0325,6.64895 6.6513,2.23842 12.7084,6.41575 19.0251,9.43998 6.7135,3.21426 14.0152,4.79025 20.587,8.2109 13.2263,6.88442 25.029,16.61972 36.1296,26.22026 4.4108,3.81471 10.4669,5.42423 12.82,10.48128"
         id="path3577" />
      <path
         style="fill:none;stroke:#000000;stroke-width:3.77952756;stroke-linecap:butt;stroke-linejoin:miter;stroke-opacity:1;fill-opacity:1;stroke-miterlimit:4;stroke-dasharray:none"
         d="m 2417.0439,911.26509 c 38.543,20.46646 80.6091,17.59062 103.1228,62.22192 9.4993,18.83145 4.9479,36.68329 5.437,56.28989 0.7376,29.5688 3.3444,60.2483 -1.3571,89.8334 -2.9527,18.5804 -7.3773,36.9166 -6.7941,56.1107 0.6252,20.5762 13.1243,38.9242 14.5611,59.2517 2.9418,41.6177 5.4797,84.0356 1.3657,125.6729 -1.4796,14.9746 -6.6063,38.5786 -6.6063,52.0906 0,6.6293 2.3341,13.0685 1.5534,19.5713 -1.8822,15.6778 -6.6822,30.7092 -7.7671,46.5 -0.3487,5.0754 -0.8669,10.6634 -0.5804,15.7304 0.1071,1.8934 1.9375,2.9626 1.9375,4.8907 0,3.47 -3.3652,10.0238 -3.8835,12.2395"
         id="path3579" />
      <path
         style="fill:none;stroke:#000000;stroke-width:3.77952756;stroke-linecap:butt;stroke-linejoin:miter;stroke-opacity:1;fill-opacity:1;stroke-miterlimit:4;stroke-dasharray:none"
         d="m 2540.95,1458.357 c -2.6878,21.2188 2.3302,42.2832 2.3302,63.4425 0,8.7104 -2.2688,17.9435 -1.5535,26.5702 0.5582,6.7305 1.5358,12.7357 1.1694,19.5798 -0.7162,13.3764 -3.48,26.7705 -4.2762,40.201 -0.544,9.1771 0.034,18.3071 -1.3571,27.4408 -1.1818,7.76 -3.6835,15.3311 -5.0529,23.0708 -1.3093,7.4002 0.1472,15.2798 -1.7497,22.5501 -1.7063,6.5397 -4.3185,12.4474 -5.2406,19.2214 -0.8126,5.969 0.6852,11.8853 0.1963,17.8301 -0.4032,4.9025 -2.5499,9.605 -3.6958,14.3392 -2.2952,9.483 -1.9886,18.9287 -5.0443,28.1407"
         id="path3581" />
      <path
         style="fill:none;stroke:#000000;stroke-width:3.77952756;stroke-linecap:butt;stroke-linejoin:miter;stroke-opacity:1;fill-opacity:1;stroke-miterlimit:4;stroke-dasharray:none"
         d="m 2516.6758,1760.7436 c -7.681,22.6943 13.3917,36.1904 16.1145,55.7522 1.4017,10.0694 0.3182,20.3034 0.9731,30.411 0.6782,10.468 2.6925,20.9895 2.9105,31.4695 0.3837,18.4529 -5.5971,35.0994 -11.258,52.082 -2.523,7.5689 -3.1527,15.6489 -6.0259,23.0708 -7.1923,18.579 -16.8793,34.5139 -26.997,51.5614 -9.218,15.5318 -21.4577,33.7714 -35.7285,45.4501 -1.5095,1.2354 -6.7077,7.023 -7.9634,6.1198 -10.1684,-7.3142 -6.7457,-32.6023 -1.946,-41.2508 2.1235,-3.8263 5.7187,-6.6482 7.7671,-10.4898 10.2092,-19.1471 32.1903,-76.4303 26.4165,-94.562 -0.7754,-2.435 -0.7095,-5.9044 -1.7497,-8.2109 -1.974,-4.3772 -3.0433,9.1094 -4.6602,13.6308 -3.8681,10.8162 -12.1954,20.11 -16.7035,30.761 -2.0986,4.9583 -5.1485,9.0144 -9.1242,12.5895 -0.4635,0.4168 -1.4927,1.6617 -1.5534,1.0413 -0.3669,-3.7531 2.1687,-6.1516 2.9105,-9.7814 1.7443,-8.5343 -0.6988,-17.3331 2.1339,-25.6996 4.5081,-13.3149 11.2767,-24.2344 12.2395,-38.8012 1.3568,-20.5289 0.8792,-32.005 -2.5264,-51.7321 -0.5476,-3.1715 0.973,-6.4571 0.973,-9.6192 0,-4.6927 -1.5493,-9.1543 -1.9461,-13.81 -0.5468,-6.4176 1.5285,-12.8245 0.5804,-19.2214 -2.3795,-16.0553 -5.1828,-31.9711 -5.6247,-48.4204 -0.1276,-4.7499 1.6465,-8.7183 2.3301,-13.2809 0.9526,-6.3576 -0.316,-29.4524 -1.3656,-35.8309 -0.5552,-3.3736 -3.7183,-6.8831 -5.0443,-10.1399 -3.632,-8.92 -7.4891,-20.1415 -9.5168,-29.5405 -1.624,-7.5275 -2.1084,-15.0355 -3.3032,-22.5501 -0.9668,-6.0811 -4.8011,-10.9044 -4.6602,-17.3009 0.1508,-6.8474 3.2715,-13.2512 2.7142,-20.1005 -1.1349,-13.9464 -6.2,-26.578 -7.1781,-40.3802 -0.5219,-7.3638 1.8424,-14.2263 2.1338,-21.4918 0.6397,-15.9509 1.3349,-31.3323 3.4909,-47.1999 0.6254,-4.6026 10.607,-31.8908 5.4455,-16.601 12.4517,-30.6183 -1.3486,-62.1883 -8.9364,-91.7624 -1.6028,-6.247 -5.3954,-12.1422 -5.6333,-18.7007 -0.9671,-26.6577 2.1064,-52.8115 -1.7497,-79.3607 -0.5056,-3.481 -3.7702,-4.2806 -4.4639,-8.0402 -1.11,-6.0148 -0.2305,-14.6593 -3.4995,-18.7007"
         id="path3583" />
      <path
         style="fill:none;stroke:#000000;stroke-width:3.77952756;stroke-linecap:butt;stroke-linejoin:miter;stroke-opacity:1;fill-opacity:1;stroke-miterlimit:4;stroke-dasharray:none"
         d="m 2001.8129,934.86504 c -24.5928,-1.79322 -58.4131,15.0922 -77.884,29.54047 -6.8441,5.07855 -11.7236,11.99996 -18.2569,17.1217 -4.2146,3.30393 -9.2497,5.15627 -13.7844,7.86949 -4.95,2.96169 -22.3059,26.518 -23.8902,32.6814 -2.4438,9.5077 -5.8953,27.0756 -5.0528,37.0601 0.6595,7.8161 2.8852,15.5748 3.1068,23.4207 0.2002,7.0907 -1.965,13.5718 -0.5804,20.8003 1.0212,5.3315 3.3863,10.396 4.2761,15.7305 1.8432,11.0499 0,23.1235 0,34.2605 0,5.0726 2.0277,10.2644 2.3302,15.3805 1.064,17.9959 -1.6884,36.6425 -2.9191,54.5316 -1.3563,19.716 1.3291,40.018 -1.9375,59.6016 -2.1848,13.0981 -8.6248,27.9709 -7.383,41.4301 2.8275,30.6444 8.769,61.9604 17.2839,91.7624 0.9948,3.4817 3.3752,5.8252 4.2762,9.4399 1.547,6.2068 1.5533,12.699 3.3031,18.8715 1.8306,6.4575 5.7978,12.3773 7.7671,18.8799 1.7306,5.7148 0.811,11.648 1.3571,17.4802 1.2914,13.7942 4.4639,26.6821 4.4639,40.5509"
         id="path3585" />
      <path
         style="fill:none;stroke:#000000;stroke-width:3.77952756;stroke-linecap:butt;stroke-linejoin:miter;stroke-opacity:1;fill-opacity:1;stroke-miterlimit:4;stroke-dasharray:none"
         d="m 1899.0657,1443.4972 c 4.1453,2.9702 8.18,6.1012 12.4359,8.9108 5.6272,3.7148 13.6336,3.3715 17.8642,8.9193 4.5539,5.9718 3.873,17.4164 9.1327,20.9711"
         id="path3587" />
      <path
         style="fill:none;stroke:#000000;stroke-width:3.77952756;stroke-linecap:butt;stroke-linejoin:miter;stroke-opacity:1;fill-opacity:1;stroke-miterlimit:4;stroke-dasharray:none"
         d="m 1985.8862,1261.3722 c -8.8626,12.8028 -11.625,28.6216 -12.0432,44.0418 -1.1323,41.7415 10.4329,83.7235 -0.7767,124.973 -5.4755,20.1486 -10.4533,38.7371 -6.41,60.1308 0.3734,1.9756 1.0973,30.9075 2.7227,24.6413"
         id="path3589" />
      <path
         style="fill:none;stroke:#000000;stroke-width:3.77952756;stroke-linecap:butt;stroke-linejoin:miter;stroke-opacity:1;fill-opacity:1;stroke-miterlimit:4;stroke-dasharray:none"
         d="m 1882.5585,1471.6379 c -10.4713,20.3068 -5.3035,42.6545 -6.4099,64.3215 -1.3833,27.0874 -1.6543,53.4691 -1.3571,80.5813 0.1111,10.1368 -2.8644,20.33 -1.9375,30.411 0.7093,7.715 3.2208,15.1666 4.0713,22.9001 0.8074,7.3412 -0.2993,14.8737 0.5889,22.1916 0.9984,8.226 6.6222,15.3063 7.9634,23.4293 3.3284,20.159 5.9717,38.7781 5.0443,59.4223 -0.2277,5.0695 -6.4849,29.8971 -1.7497,19.2299"
         id="path3591" />
      <path
         style="fill:none;stroke:#000000;stroke-width:3.77952756;stroke-linecap:butt;stroke-linejoin:miter;stroke-opacity:1;fill-opacity:1;stroke-miterlimit:4;stroke-dasharray:none"
         d="m 1989.1893,1473.5583 c 15.0232,15.4562 -12.8199,-14.0647 -12.8199,-9.7814 0,8.8827 11.2972,5.6701 12.8199,9.7814 1.5357,4.1463 -2.4743,8.5403 -2.919,12.9394 -0.456,4.5112 3.6567,10.2827 4.2761,14.8513 2.2751,16.7786 7.8513,33.861 4.8566,51.22 -2.302,13.3435 -8.4127,24.9306 -12.82,37.5807 -6.1154,17.553 -11.5863,36.0552 -16.3108,54.0025 -5.4947,20.873 -10.6838,46.7838 -8.356,68.5209 0.5617,5.2454 2.2256,10.4267 2.3301,15.7304 0.116,5.8865 -2.6414,11.0233 -2.9105,16.7803 -0.5647,12.0794 0.6516,23.991 0.973,36.0102 0.3679,13.7563 -2.5499,48.6885 0.9645,59.7723 2.7901,8.7995 6.3137,17.0262 6.9989,26.391 0.6628,9.0577 -1.4765,16.6915 -2.5264,25.5204 -1.1964,10.0606 1.0807,19.6153 2.5264,29.3697 1.1828,7.9808 6.6694,12.1951 10.0972,19.0507 0.9138,1.8276 7.1683,30.0611 5.821,30.0611 -4.1211,0 -42.7264,-62.3303 -37.4782,-44.2211 2.1914,7.5615 7.0101,14.6631 10.0972,21.8502 5.0277,11.7055 4.0049,24.5598 8.5437,36.0017 2.4051,6.0628 6.7989,11.5091 8.9364,17.6594 1.439,4.1401 -1.335,12.6541 -1.5534,16.601 -0.707,12.7781 0.8292,27.3417 1.5534,40.201 0.2639,4.6857 7.4039,29.5073 3.3032,31.2902 -2.8921,1.2574 -11.5188,-8.4361 -12.82,-9.9606 -10.5221,-12.3277 -20.6964,-24.9397 -31.2731,-37.2307 -4.7773,-5.5517 -12.4973,-7.8556 -16.5071,-13.9893 -14.135,-21.6218 -18.8694,-43.0912 -23.1049,-68.3417 -3.6855,-21.9709 -10.3228,-42.1057 -8.9364,-64.8422 1.8799,-30.8312 6.5193,-63.2173 13.0077,-93.5121 1.232,-5.7525 4.1614,-10.7198 5.8295,-16.2596 1.631,-5.4163 1.6909,-11.1859 2.5265,-16.7803"
         id="path3593" />
      <path
         style="fill:none;stroke:#000000;stroke-width:3.77952756;stroke-linecap:butt;stroke-linejoin:miter;stroke-opacity:1;fill-opacity:1;stroke-miterlimit:4;stroke-dasharray:none"
         d="m 1942.3821,1088.3287 c 1.9424,24.6157 2.9229,62.1542 11.2579,85.4719 2.4162,6.7593 7.4915,12.1951 10.2935,18.7007 2.6843,6.2323 2.0794,13.9796 4.4725,20.4505 2.2291,6.0273 7.198,10.7762 10.0972,16.4303 5.6775,11.0724 7.6206,22.1867 15.7304,32.1608 4.8108,5.9166 12.836,5.8353 17.4802,11.7103 5.8714,7.4275 11.9432,23.4207 22.1404,23.4207"
         id="path3595" />
      <path
         style="fill:none;stroke:#000000;stroke-width:3.77952756;stroke-linecap:butt;stroke-linejoin:miter;stroke-opacity:1;fill-opacity:1;stroke-miterlimit:4;stroke-dasharray:none"
         d="m 2045.1208,1252.4529 c 17.6657,0.9135 24.7314,-16.0777 37.8708,-24.8205 17.614,-11.7202 46.1924,-43.9564 53.7977,-63.9717 1.8427,-4.8497 20.4814,-63.3239 7.3829,-50.3408"
         id="path3597" />
      <path
         style="fill:none;stroke:#000000;stroke-width:3.77952756;stroke-linecap:butt;stroke-linejoin:miter;stroke-opacity:1;fill-opacity:1;stroke-miterlimit:4;stroke-dasharray:none"
         d="m 2258.5616,1085.8791 c -0.9704,16.1515 -1.2667,31.7263 2.1338,47.5413 1.6035,7.4577 1.2353,16.4382 3.8835,23.5999 1.9991,5.4064 7.6767,11.9045 10.4898,16.6011 11.755,19.6253 26.3905,29.5863 44.0845,43.5212 7.4429,5.8615 17.3133,6.1656 24.8632,11.3689 1.4218,0.9799 17.9896,12.9822 14.177,6.1112"
         id="path3599" />
      <path
         style="fill:none;stroke:#000000;stroke-width:3.77952756;stroke-linecap:butt;stroke-linejoin:miter;stroke-opacity:1;fill-opacity:1;stroke-miterlimit:4;stroke-dasharray:none"
         d="m 2383.2444,1272.2034 c 22.3286,-27.9262 48.8625,-57.8185 58.0738,-93.5121 6.2757,-24.3185 8.3507,-49.6073 17.8642,-72.8824 4.8187,-11.7891 1.0897,-24.262 9.5168,-34.6104"
         id="path3601" />
      <path
         style="fill:none;stroke:#000000;stroke-width:3.77952756;stroke-linecap:butt;stroke-linejoin:miter;stroke-opacity:1;fill-opacity:1;stroke-miterlimit:4;stroke-dasharray:none"
         d="m 2299.5393,1334.4338 c -6.2366,11.1642 3.4994,-13.4267 3.4994,-12.7601 0,4.4104 -2.5727,8.4482 -3.4994,12.7601 -1.6605,7.7261 -2.1965,18.4035 -5.6333,26.2118 -2.2574,5.1287 -6.53,8.9603 -8.7401,13.9892 -3.1453,7.1571 -13.5812,33.6854 -15.1415,42.1215"
         id="path3603" />
      <path
         style="fill:none;stroke:#000000;stroke-width:3.77952756;stroke-linecap:butt;stroke-linejoin:miter;stroke-opacity:1;fill-opacity:1;stroke-miterlimit:4;stroke-dasharray:none"
         d="m 2112.8991,1342.9947 c 9.9056,13.7528 25.5129,26.8778 33.0143,42.6506 1.4586,3.0668 1.3004,6.9522 2.9191,9.6107"
         id="path3605" />
      <path
         style="fill:none;stroke:#000000;stroke-width:3.77952756;stroke-linecap:butt;stroke-linejoin:miter;stroke-opacity:1;fill-opacity:1;stroke-miterlimit:4;stroke-dasharray:none"
         d="m 2166.1163,1513.4179 c 1.1837,14.9922 5.1695,29.3482 6.2137,44.3918"
         id="path3607" />
      <path
         style="fill:none;stroke:#000000;stroke-width:3.77952756;stroke-linecap:butt;stroke-linejoin:miter;stroke-opacity:1;fill-opacity:1;stroke-miterlimit:4;stroke-dasharray:none"
         d="m 2251.3749,1530.3689 c 6.8642,-5.4796 17.2562,-20.7862 22.9171,-25.6911"
         id="path3609" />
      <path
         style="fill:none;stroke:#000000;stroke-width:3.77952756;stroke-linecap:butt;stroke-linejoin:miter;stroke-opacity:1;stroke-miterlimit:4;stroke-dasharray:none"
         d="m 1990.2555,1286.6505 c 5.0902,12.8282 4.6535,8.281 5.1188,19.9125 0.5146,12.8658 -3.8045,25.3697 -0.7313,38.507 2.92,12.4819 13.6633,21.9788 18.8357,33.0749 7.08,15.1885 20.9714,47.9371 12.2464,62.5338"
         id="path1549" />
      <path
         style="fill:none;stroke:#000000;stroke-width:3.77952756;stroke-linecap:butt;stroke-linejoin:miter;stroke-opacity:1;stroke-miterlimit:4;stroke-dasharray:none"
         d="m 2045.8384,1396.5788 c -2.0488,13.7076 -5.5847,26.9131 -10.0526,39.9856 -2.8284,8.2754 -3.9082,17.5509 -7.4973,25.5053 -4.962,10.9966 -9.9432,20.6172 -12.8009,32.424 -2.4767,10.2327 -6.2765,19.4604 -4.7571,30.1097 0.1362,0.955 1.0198,14.2241 -0.5464,8.558"
         id="path1551" />
      <path
         style="fill:none;stroke:#000000;stroke-width:3.77952756;stroke-linecap:butt;stroke-linejoin:miter;stroke-opacity:1;stroke-miterlimit:4;stroke-dasharray:none"
         d="m 2035.6009,1528.0587 c -9.9688,22.6239 -27.5967,42.968 -35.2927,66.6481 -6.9349,21.3382 -2.1465,52.8052 -1.2777,75.206 0.6686,17.2388 -3.2591,33.9386 -4.3875,51.0105 -0.3736,5.6537 1.8241,20.0116 1.8241,21.8893"
         id="path1553" />
      <path
         style="fill:none;stroke:#000000;stroke-width:3.77952756;stroke-linecap:butt;stroke-linejoin:miter;stroke-opacity:1;stroke-miterlimit:4;stroke-dasharray:none"
         d="m 2416.6513,1252.1029 c -2.1315,1.9722 -4.7047,3.5548 -6.3944,5.9165 -4.2737,5.9735 -2.3707,18.4704 -3.841,25.3446 -3.6748,17.1813 -9.4734,34.5792 -11.7,51.9989 -0.5409,4.2319 0.304,8.8239 -0.5464,13.0017 -2.4842,12.2051 -6.977,25.133 -7.3205,37.6794 -0.3717,13.5733 1.963,30.6803 0.5544,42.4606"
         id="path1555" />
      <path
         style="fill:none;stroke:#000000;stroke-width:3.77952756;stroke-linecap:butt;stroke-linejoin:miter;stroke-opacity:1;stroke-miterlimit:4;stroke-dasharray:none"
         d="m 2363.2642,1397.8966 c 6.8302,15.0285 2.9887,6.123 8.4134,19.583 4.1098,10.1975 8.7639,21.2682 10.4223,32.2553 0.7131,4.7244 -0.286,9.6281 0.5464,14.3115 0.7876,4.4315 3.9165,8.3212 4.7571,12.6723 1.67,8.6434 1.0232,16.338 4.7491,24.5169 4.0611,8.9146 6.1119,21.2613 7.1357,30.9374 0.503,4.7529 0.7313,19.099 0.7313,14.3196 0,-5.0067 -0.1095,-1.1092 2.0089,-11.5232"
         id="path1557" />
      <path
         style="fill:none;stroke:#000000;stroke-width:3.77952756;stroke-linecap:butt;stroke-linejoin:miter;stroke-opacity:1;stroke-miterlimit:4;stroke-dasharray:none"
         d="m 2381.9151,1511.7704 c -2.7429,-0.9884 -5.4857,-1.9768 -8.2286,-2.9652 -0.2437,-0.2196 -0.9738,-0.8799 -0.7312,-0.6589 2.3814,2.1698 6.6882,1.3396 8.9598,3.6241 8.079,8.1249 12.1259,22.6016 16.2722,33.0749 3.8935,9.8345 9.3657,19.2702 13.3473,29.1294 5.235,12.9629 4.4712,30.0939 5.6732,43.7704 2.1942,24.9654 11.2994,48.6495 13.1625,73.5587 1.2347,16.5074 -1.8322,39.7853 -1.8322,52.4971"
         id="path1559" />
      <path
         style="fill:none;stroke:#000000;stroke-width:3.77952756;stroke-linecap:butt;stroke-linejoin:miter;stroke-opacity:1;stroke-miterlimit:4;stroke-dasharray:none"
         d="m 1996.4671,1742.8126 c -3.0455,1.3714 -6.3841,2.2221 -9.1365,4.1142 -3.7334,2.5665 -3.8102,15.0806 -4.3875,19.2535 -0.6221,4.496 -3.0094,8.4737 -3.4795,13.0018 -1.3655,13.1536 -1.4666,29.4557 0.5545,42.4525 2.3593,15.1719 7.1636,30.4511 8.9598,45.5865 1.2342,10.3999 2.9825,20.8069 3.833,31.2588 0.8569,10.5303 -2.1074,21.2397 -0.7312,31.7651 3.2265,24.6774 13.0324,48.0955 18.6508,72.2409 6.1574,26.4616 3.5063,54.1042 9.5142,80.3006 3.379,14.7333 9.3825,29.7054 10.2375,44.9276 0.8256,14.6994 -1.6367,29.6709 -0.9161,44.4293 0.3929,8.0452 3.2606,16.4495 4.7572,24.3562 1.7742,9.373 0.5202,19.2088 3.1017,28.4704 3.4222,12.2771 12.5586,36.3751 13.1705,48.3749 1.534,30.079 6.9292,58.5047 3.6563,88.8667 -1.3128,12.1778 4.6368,26.8466 -0.7313,38.507 -1.2137,2.6365 -1.9315,4.7377 -2.5633,1.6473"
         id="path1561" />
      <path
         style="fill:none;stroke:#000000;stroke-width:3.77952756;stroke-linecap:butt;stroke-linejoin:miter;stroke-opacity:1;stroke-miterlimit:4;stroke-dasharray:none"
         d="m 2211.5022,1822.9525 c -2.8182,18.4769 1.2136,37.5826 0,55.9445 -0.49,7.4133 -2.3,14.5023 -2.017,22.0579 0.475,12.679 1.2656,25.3088 0.3697,38.0088 -2.5089,35.566 -7.9518,71.6518 -11.8848,107.2926 -1.3696,12.4115 -4.7712,24.4571 -4.5723,37.0284 0.1028,6.5004 2.3463,12.6794 2.5634,19.2535 0.3435,10.4034 -1.8976,21.5928 2.0089,31.4276"
         id="path1563" />
      <path
         style="fill:none;stroke:#000000;stroke-width:3.77952756;stroke-linecap:butt;stroke-linejoin:miter;stroke-opacity:1;stroke-miterlimit:4;stroke-dasharray:none"
         d="m 2167.0648,2058.1089 c -0.1821,4.3313 -0.9191,8.6747 -0.5464,12.9937 0.8682,10.0605 16.9886,36.5034 20.2982,48.2222 1.5556,5.5083 0.6898,11.597 2.5553,16.9473 10.537,30.2202 12.7279,51.3641 15.3642,82.6069 0.5776,6.8442 3.743,12.6586 4.0179,19.4142 0.8671,21.3115 0.4563,43.5502 -2.3705,64.6793 -2.4478,18.296 -2.3391,40.31 -9.5143,57.2623 -2.677,6.3248 -4.5643,33.4009 -4.5643,18.5946"
         id="path1565" />
      <path
         style="fill:none;stroke:#000000;stroke-width:3.77952756;stroke-linecap:butt;stroke-linejoin:miter;stroke-opacity:1;stroke-miterlimit:4;stroke-dasharray:none"
         d="m 2211.5022,1822.9525 c 2.2553,4.6071 5.1031,8.9689 6.766,13.8214 2.9308,8.5521 -2.6776,19.8263 -3.4794,28.4704 -1.2376,13.3422 0.5513,26.1648 2.3786,39.3267 3.0419,21.9118 8.1771,44.0221 9.5062,66.1498 0.4761,7.9267 -0.8368,15.6542 -0.5464,23.5365 0.6008,16.3137 3.7173,32.654 5.4883,48.8731 0.5001,4.5799 -0.2075,9.1162 0.7313,13.6607 3.0084,14.5627 1.2053,26.7879 0.916,41.4641 -0.1038,5.267 -0.218,10.5318 -0.3696,15.7982 -0.013,0.4391 -0.1186,1.7408 0,1.3178 0.9799,-3.4936 1.8051,-7.0289 2.7402,-10.5347"
         id="path1567" />
      <path
         style="fill:none;stroke:#000000;stroke-width:3.77952756;stroke-linecap:butt;stroke-linejoin:miter;stroke-opacity:1;stroke-miterlimit:4;stroke-dasharray:none"
         d="m 2255.0155,2038.3572 c -2.5657,12.9765 -4.0345,26.5717 -7.3125,39.4954 -5.9813,23.5815 -15.9551,46.3203 -20.1134,70.4328 -2.5027,14.5128 -5.7461,29.5019 -7.4973,44.0999 -1.1539,9.6193 -0.2615,19.3661 -1.4624,28.9606 -2.5778,20.594 -6.3158,42.7051 -3.4715,63.5221 2.2929,16.7805 7.8233,34.1017 12.9777,50.191 2.3177,7.2346 2.3647,14.9659 4.5723,22.2106 1.6441,5.3955 5.1848,10.3469 6.766,15.6375 2.0322,6.7995 1.8972,20.8461 3.1098,25.0151"
         id="path1569" />
      <path
         style="fill:none;stroke:#000000;stroke-width:3.77952756;stroke-linecap:butt;stroke-linejoin:miter;stroke-opacity:1;stroke-miterlimit:4;stroke-dasharray:none"
         d="m 2428.5381,1743.8009 c 0.9161,-2.1402 2.6626,-4.0941 2.7482,-6.4205 0.08,-2.1644 -4.0928,-4.626 -4.7571,-6.4205 -1.066,-2.8796 -2.5634,-11.5378 -2.5634,-15.1392 0,-2.3572 0,-9.4286 0,-7.0714 0,7.6856 -2.8341,20.3321 -0.5464,27.1526 0.9977,2.9746 5.0676,4.7619 5.1187,7.899 0.2928,17.9877 -6.8553,9.1845 -4.2026,18.7553 1.0107,3.6468 3.7614,6.7792 4.7571,10.5348 2.9546,11.1444 5.7956,23.7092 6.0348,35.2124 0.5081,24.4339 -3.7185,47.264 -5.4884,71.4212 -1.8647,25.4515 -3.1231,51.4588 -6.9508,76.6846 -2.3537,15.5112 -7.8728,30.3705 -10.0527,45.9079 -1.0502,7.4855 -0.3194,14.9085 -1.1009,22.3794 -0.7981,7.6308 -3.2897,14.6848 -4.3875,22.2187 -2.6145,17.9423 -3.7564,36.3702 -7.4973,54.1364 -1.5355,7.2925 -5.3122,13.8114 -6.9508,21.0696 -4.3919,19.4536 -7.1988,39.1624 -11.1536,58.7409 -4.0072,19.838 -11.2558,40.1109 -12.2464,60.3963 -1.2463,25.5218 -7.2764,51.1114 -9.3294,76.6845 -0.6282,7.8253 3.2958,15.0923 3.1098,22.8777 -0.1654,6.926 -2.1244,12.6459 -0.1848,19.7436 1.3532,4.952 5.6122,15.3729 9.5143,15.9589"
         id="path1571" />
      <path
         style="fill:none;stroke:#000000;stroke-width:3.77952756;stroke-linecap:butt;stroke-linejoin:miter;stroke-opacity:1;stroke-miterlimit:4;stroke-dasharray:none"
         d="m 2099.0508,2275.169 c -2.8661,-2.4134 -5.6821,-4.8875 -8.5982,-7.2402 -1.1719,-0.9455 -0.042,23.1681 0,24.8464 0.4659,18.6568 3.8605,35.3235 -2.009,53.4855 -6.5891,20.3889 -16.3743,40.9382 -21.0294,61.8748 -1.3719,6.1706 0.2431,12.5853 -1.2776,18.7553 -1.5752,6.391 -4.7732,12.1894 -5.85,18.7634 -3.1505,19.2343 1.7014,36.9758 2.7402,55.9444 0.8658,15.8111 1.7115,31.9284 2.1937,47.724 0.7882,25.8167 -0.1757,51.8374 3.4714,77.5042 0.6367,4.4804 2.5003,8.1892 3.6643,12.5116 2.444,9.0756 1.1212,19.3406 2.5553,28.6312 1.1683,7.5679 4.4501,13.9711 6.4045,21.2303 2.9159,10.8306 2.0681,22.3187 4.7491,33.0748 1.5218,6.1057 4.6708,11.6089 6.4044,17.6062 3.8156,13.1999 3.3597,27.5771 6.2116,40.974 6.4686,30.3867 20.742,58.8988 25.6017,89.5256 1.0033,6.3232 0.1868,13.0427 0.7313,19.4143 0.53,6.2029 3.4601,11.9735 3.6562,18.2651 0.3597,11.5431 -0.9115,22.919 -0.1848,34.5615 0.7241,11.6014 3.6806,23.7235 1.8321,35.3731 -2.9417,18.5392 -10.9063,37.6378 -22.6767,52.3365 -2.8015,3.4984 -7.1576,4.4449 -10.0526,7.5696 -8.1207,8.7646 -17.719,18.1196 -29.8044,20.7321 -5.4267,1.173 -11.4285,3.5394 -16.8267,4.2749 -12.2407,1.668 -13.9904,1.2904 -19.5589,12.6723 -0.3576,0.731 -1.815,3.4086 -1.2857,4.283 3.7945,6.2687 9.4953,8.4648 15.1794,12.6723 4.2825,3.1701 7.234,7.791 11.7,10.6955 5.9245,3.8531 13.2166,4.8302 19.1972,8.558 5.2465,3.2702 9.7916,7.8716 15.3643,11.025 5.7883,3.2755 12.8043,4.2535 18.466,7.5696 12.2306,7.1637 22.5346,16.0767 36.7552,19.575 5.0368,1.239 11.2255,-0.8472 16.2723,-0.9804 19.5128,-0.5148 32.0743,0.01 33.091,-24.5249 0.5191,-12.5275 0.34,-27.7674 -7.3125,-38.507 -3.9728,-5.5755 -16.7484,-12.6009 -16.4571,-19.0848 0.8068,-17.96 33.5667,-30.2633 34.0151,-43.4409 0.5544,-16.296 -16.7565,-26.6163 -18.8357,-42.4606 -3.5359,-26.945 -0.1985,-54.3477 -1.1009,-81.4578 -0.4721,-14.1839 -3.9332,-27.181 -5.4803,-41.1347 -1.5492,-13.9715 -1.4835,-29.0327 -2.017,-43.1195 -0.7318,-19.3251 5.119,-37.5985 4.7571,-56.9329 -0.4787,-25.5838 -6.0652,-50.6917 -2.5633,-76.3551 0.7882,-5.7768 4.2244,-10.8599 6.0348,-16.2964 2.3272,-6.9885 2.4766,-14.5028 4.5723,-21.5517 5.2815,-17.7652 17.558,-44.7463 17.558,-63.1927 0,-26.52 -4.6672,-51.9967 -9.8759,-77.8337 -4.2683,-21.1721 -4.9399,-43.3973 -9.3294,-64.6712 -1.4494,-7.0243 -5.843,-12.8834 -7.6741,-19.7517 -1.7185,-6.4458 -0.5546,-13.0735 -2.017,-19.4142 -0.853,-3.6983 -4.3035,-8.142 -5.6651,-11.5232 -2.2799,-5.6614 -1.03,-12.4768 -2.009,-18.4259 -0.7546,-4.5856 -3.1066,-8.9931 -3.6562,-13.4999 -1.1819,-9.6916 -2.3201,-20.4665 -1.4625,-30.2785 1.3065,-14.9476 4.9946,-28.9652 3.6562,-43.2802"
         id="path1573" />
      <path
         style="fill:none;stroke:#000000;stroke-width:3.77952756;stroke-linecap:butt;stroke-linejoin:miter;stroke-opacity:1;stroke-miterlimit:4;stroke-dasharray:none"
         d="m 2261.2351,2290.7984 c -6.0717,12.4704 -11.0644,36.015 -8.9598,50.6891 0.5489,3.8276 2.3786,7.9031 2.3786,11.8446 0,5.958 -2.8836,11.5568 -2.1938,17.6062 0.9266,8.1254 3.9089,13.1148 2.925,21.7285 -0.6774,5.9306 -3.23,10.8795 -4.9419,16.4491 -1.6652,5.4173 -1.5717,10.9845 -2.7402,16.4571 -4.9939,23.3879 -14.9676,46.2625 -15.7259,70.5935 -0.547,17.5536 3.9459,35.5855 2.5634,52.9954 -1.6588,20.8905 -2.9793,42.6272 -1.6473,63.6828 1.0645,16.8273 2.8788,38.6254 8.0437,54.6347 2.0981,6.5033 4.7592,12.2727 5.3036,19.2535 1.1785,15.1141 3.4404,30.2735 4.2027,45.4177 0.4201,8.3479 -0.4123,17.5949 0.916,25.8348 1.0953,6.7941 2.8686,13.174 3.4795,20.0731 0.9131,10.3134 -0.6946,20.8648 0.908,31.1062 1.0118,6.4653 4.3223,12.1281 5.3036,18.5945 1.8676,12.3081 -0.354,24.9855 0.7312,37.3499 3.2059,36.5274 2.0455,73.4007 4.5723,109.9283 1.5118,21.8541 -10.4767,43.9225 -14.4482,65.1614 -2.0861,11.1561 -0.5037,23.1141 -3.2866,34.232 -4.6028,18.3891 -18.0539,37.9373 -9.8758,57.4311 6.2834,14.9775 11.3266,14.8373 24.5008,16.9473 4.1688,0.6676 7.9303,3.2342 12.2544,2.9651 8.762,-0.5451 31.9648,-24.1068 43.5133,-27.1526 9.849,-2.5975 22.2218,-0.8454 31.6365,-5.4321 7.0035,-3.4119 13.8759,-10.1758 21.9374,-11.6839 5.6683,-1.0603 11.2462,0.093 16.6419,-2.4669 6.7633,-3.2095 19.227,-16.3079 24.6857,-21.5598 7.0034,-6.7382 16.4481,-8.9255 19.9285,-18.924 1.4561,-4.1832 -10.4403,-21.6057 -15.1714,-22.2107 -4.644,-0.5939 -8.6369,-2.1126 -13.1705,-3.1339 -8.3863,-1.8892 -16.2871,1.5663 -24.6856,-2.7964 -14.8164,-7.6965 -56.7386,-54.2508 -59.6088,-70.7543 -4.987,-28.6755 0.4678,-57.1896 -0.5464,-85.9015 -0.4567,-12.9299 -5.1899,-25.4656 -2.7402,-38.507 5.1572,-27.4545 14.9044,-54.1872 19.7437,-81.7873 3.2857,-18.7394 2.915,-38.1511 6.4045,-56.9328 2.9052,-15.6372 7.536,-31.0017 11.3383,-46.4061 1.5275,-6.1882 1.2599,-12.8143 2.925,-18.9241 1.4673,-5.3837 4.3422,-10.3774 5.85,-15.7982 2.5683,-9.2332 5.4803,-34.9832 5.4803,-45.257 0,-4.8527 -1.4445,-9.6203 -1.2776,-14.4803 0.2266,-6.6017 2.802,-12.9946 2.5634,-19.583 -0.2391,-6.6005 -2.2723,-13.2844 -1.6474,-19.9124 2.9141,-30.9048 10.0724,-60.5426 5.1188,-91.6551 -1.0901,-6.8461 -4.0967,-13.205 -5.3036,-20.0812 -1.5558,-8.8642 -0.9508,-17.7963 -2.7402,-26.6543 -0.9624,-4.7646 -3.2728,-9.2691 -3.6562,-14.1509 -0.2736,-3.4834 0.542,-7.2604 -0.1848,-10.7035 -1.3059,-6.1865 -5.5222,-11.2574 -6.9509,-17.2768 -1.7241,-7.264 -0.4927,-15.0492 -2.3785,-22.3794 -3.1246,-12.1447 -10.5991,-23.673 -10.5991,-36.3695"
         id="path1575" />
      <path
         style="fill:none;stroke:#000000;stroke-width:3.77952756;stroke-linecap:butt;stroke-linejoin:miter;stroke-opacity:1;stroke-miterlimit:4;stroke-dasharray:none"
         d="m 2162.8622,3028.5149 c -3.8713,17.4448 -10.7839,36.6228 -10.7839,54.8034"
         id="path1577" />
      <path
         style="fill:none;stroke:#000000;stroke-width:3.77952756;stroke-linecap:butt;stroke-linejoin:miter;stroke-opacity:1;stroke-miterlimit:4;stroke-dasharray:none"
         d="m 2185.9005,3037.4024 c 3.3493,9.4339 6.7361,22.5372 16.8267,27.482"
         id="path1579" />
      <path
         style="fill:none;stroke:#000000;stroke-width:3.77952756;stroke-linecap:butt;stroke-linejoin:miter;stroke-opacity:1;stroke-miterlimit:4;stroke-dasharray:none"
         d="m 2257.0324,3025.0595 c 16.1692,8.1306 -6.9149,32.2958 -0.3696,41.1428"
         id="path1581" />
      <path
         style="fill:none;stroke:#000000;stroke-width:1px;stroke-linecap:butt;stroke-linejoin:miter;stroke-opacity:1"
         d="m 2103.0686,616.93205 c 1.4625,21.00797 2.925,42.01594 4.3875,63.02392"
         id="path1583" />
      <circle
         id="path1615"
         style="fill:#000000;stroke:none"
         cx="1917.8459"
         cy="976.15955"
         r="1.5" />
      <circle
         id="path1617"
         style="fill:#000000;stroke:none"
         cx="2513.3789"
         cy="965.79352"
         r="1.5" />
      <path
         style="fill:none;stroke:#ff0000;stroke-width:7.55905512;stroke-linecap:butt;stroke-linejoin:miter;stroke-opacity:1;stroke-miterlimit:4;stroke-dasharray:none"
         d="m 1909.987,968.58991 h 599.5589"
         id="path1621" />
      <path
         style="fill:none;stroke:#ff0000;stroke-width:7.55905512;stroke-linecap:butt;stroke-linejoin:miter;stroke-opacity:1;stroke-miterlimit:4;stroke-dasharray:none"
         d="m 1942.3821,1088.3287 h 517.7926"
         id="path1623" />
      <path
         style="fill:none;stroke:#ff0000;stroke-width:7.55905512;stroke-linecap:butt;stroke-linejoin:miter;stroke-opacity:1;stroke-miterlimit:4;stroke-dasharray:none"
         d="m 2038.1563,1457.3286 h 336.8079"
         id="path1625" />
      <path
         style="fill:none;stroke:#ff0000;stroke-width:7.55905512;stroke-linecap:butt;stroke-linejoin:miter;stroke-opacity:1;stroke-miterlimit:4;stroke-dasharray:none"
         d="M 2123.3668,882.85713 V 1442.0286"
         id="path1627" />
      <path
         style="fill:none;stroke:#ff0000;stroke-width:7.55905512;stroke-linecap:butt;stroke-linejoin:miter;stroke-opacity:1;stroke-miterlimit:4;stroke-dasharray:none"
         d="m 2090.2758,1463.7411 33.4606,851.4215"
         id="path1629" />
      <path
         style="fill:none;stroke:#ff0000;stroke-width:7.55905512;stroke-linecap:butt;stroke-linejoin:miter;stroke-opacity:1;stroke-miterlimit:4;stroke-dasharray:none"
         d="m 2293.1782,1465.8317 4.3979,1700.2634"
         id="path1631" />
    </g>
  </g>
  <g
     inkscape:groupmode="layer"
     id="layer3"
     inkscape:label="Dessin" />
</svg>
