<?xml version="1.0" encoding="utf-8" standalone="no"?>
<!DOCTYPE svg PUBLIC "-//W3C//DTD SVG 1.1//EN"
  "http://www.w3.org/Graphics/SVG/1.1/DTD/svg11.dtd">
<!-- Created with matplotlib (https://matplotlib.org/) -->
<svg height="3316.535433pt" version="1.1" viewBox="0 0 2154.330709 3316.535433" width="2154.330709pt" xmlns="http://www.w3.org/2000/svg" xmlns:xlink="http://www.w3.org/1999/xlink">
 <metadata>
  <rdf:RDF xmlns:cc="http://creativecommons.org/ns#" xmlns:dc="http://purl.org/dc/elements/1.1/" xmlns:rdf="http://www.w3.org/1999/02/22-rdf-syntax-ns#">
   <cc:Work>
    <dc:type rdf:resource="http://purl.org/dc/dcmitype/StillImage"/>
    <dc:date>2022-07-16T11:47:33.395878</dc:date>
    <dc:format>image/svg+xml</dc:format>
    <dc:creator>
     <cc:Agent>
      <dc:title>Matplotlib v3.3.4, https://matplotlib.org/</dc:title>
     </cc:Agent>
    </dc:creator>
   </cc:Work>
  </rdf:RDF>
 </metadata>
 <defs>
  <style type="text/css">*{stroke-linecap:butt;stroke-linejoin:round;}</style>
 </defs>
 <g id="figure_1">
  <g id="patch_1">
   <path d="M 0 3316.535433 
L 2154.330709 3316.535433 
L 2154.330709 0 
L 0 0 
z
" style="fill:#ffffff;"/>
  </g>
  <g id="axes_1">
   <g id="patch_2">
    <path d="M 0 3316.535433 
L 2154.330709 3316.535433 
L 2154.330709 0 
L 0 0 
z
" style="fill:#ffffff;"/>
   </g>
   <g id="patch_3">
    <path clip-path="url(#p7a6ce91a3a)" d="M 195.590551 3146.456693 
L 195.777597 3123.307432 
L 195.929524 3100.158684 
L 196.046876 3077.010441 
L 196.130195 3053.862697 
L 196.180026 3030.715446 
L 196.196912 3007.568678 
L 196.181396 2984.422389 
L 196.134022 2961.27657 
L 196.055332 2938.131215 
L 195.945871 2914.986316 
L 195.806181 2891.841866 
L 195.636807 2868.697859 
L 195.438291 2845.554288 
L 195.211176 2822.411145 
L 194.956007 2799.268423 
L 194.673327 2776.126115 
L 194.363679 2752.984215 
L 194.027606 2729.842715 
L 193.665652 2706.701608 
L 193.27836 2683.560887 
L 192.866273 2660.420545 
L 192.429936 2637.280575 
L 191.96989 2614.14097 
L 191.486681 2591.001723 
L 190.98085 2567.862826 
L 190.452943 2544.724274 
L 189.9035 2521.586058 
L 189.333068 2498.448173 
L 188.742187 2475.310609 
L 188.131403 2452.173362 
L 187.501258 2429.036423 
L 186.852296 2405.899786 
L 186.185061 2382.763443 
L 185.500094 2359.627387 
L 184.797941 2336.491613 
L 184.079144 2313.356111 
L 183.344247 2290.220876 
L 182.593793 2267.0859 
L 181.828325 2243.951176 
L 181.048387 2220.816698 
L 180.254523 2197.682458 
L 179.447275 2174.548448 
L 178.627187 2151.414663 
L 177.794802 2128.281095 
L 176.950665 2105.147737 
L 176.095317 2082.014582 
L 175.229303 2058.881623 
L 174.353167 2035.748853 
L 173.46745 2012.616264 
L 172.572697 1989.48385 
L 171.669451 1966.351605 
L 170.758256 1943.219519 
L 169.839655 1920.087588 
L 168.914191 1896.955802 
L 167.982407 1873.824157 
L 167.044848 1850.692644 
L 166.102056 1827.561257 
L 165.154575 1804.429987 
L 164.202948 1781.29883 
L 163.247718 1758.167776 
L 162.28943 1735.03682 
L 161.328626 1711.905954 
L 160.36585 1688.775172 
L 159.401644 1665.644465 
L 158.436554 1642.513828 
L 157.471121 1619.383253 
L 156.505889 1596.252733 
L 155.541403 1573.12226 
L 154.578204 1549.991829 
L 153.616837 1526.861432 
L 152.657844 1503.731061 
L 151.70177 1480.60071 
L 150.749157 1457.470372 
L 149.800549 1434.34004 
L 148.85649 1411.209707 
L 147.917522 1388.079365 
L 146.98419 1364.949007 
L 146.057036 1341.818628 
L 145.136604 1318.688218 
L 144.223437 1295.557773 
L 143.318079 1272.427283 
L 142.421073 1249.296743 
L 141.532963 1226.166145 
L 140.654291 1203.035483 
L 139.785601 1179.904749 
L 138.927438 1156.773936 
L 138.080343 1133.643037 
L 137.24486 1110.512046 
L 136.421533 1087.380954 
L 135.610906 1064.249755 
L 134.813521 1041.118443 
L 134.029922 1017.987009 
L 133.260652 994.855447 
L 132.506255 971.72375 
L 131.767274 948.591911 
L 131.044252 925.459923 
L 130.337733 902.327778 
L 129.648261 879.19547 
L 128.976378 856.062992 
L 128.976378 856.062992 
L 131.412392 856.038181 
L 133.824694 855.990502 
L 136.213285 855.919956 
L 138.578165 855.826543 
L 140.919333 855.710262 
L 143.23679 855.571114 
L 145.530536 855.409098 
L 147.80057 855.224216 
L 150.046893 855.016465 
L 152.269505 854.785848 
L 154.468405 854.532363 
L 156.643594 854.256011 
L 158.795072 853.956791 
L 160.922839 853.634704 
L 163.026894 853.28975 
L 165.107237 852.921929 
L 167.16387 852.53124 
L 169.196791 852.117684 
L 171.206001 851.68126 
L 173.1915 851.221969 
L 175.153287 850.739811 
L 177.091363 850.234785 
L 179.005727 849.706892 
L 180.89638 849.156132 
L 182.763322 848.582504 
L 184.606553 847.986009 
L 186.426072 847.366647 
L 188.22188 846.724417 
L 189.993977 846.05932 
L 191.742362 845.371355 
L 193.467036 844.660523 
L 195.167999 843.926824 
L 196.84525 843.170258 
L 198.49879 842.390824 
L 200.128619 841.588523 
L 201.734736 840.763354 
L 203.317143 839.915318 
L 204.875837 839.044415 
L 206.410821 838.150645 
L 207.922093 837.234007 
L 209.409654 836.294502 
L 210.873503 835.332129 
L 212.313641 834.346889 
L 213.730068 833.338782 
L 215.122784 832.307807 
L 216.491788 831.253965 
L 217.837081 830.177256 
L 219.158662 829.077679 
L 220.456533 827.955235 
L 221.730691 826.809924 
L 222.981139 825.641745 
L 224.207875 824.450699 
L 225.4109 823.236785 
L 226.590214 822.000005 
L 227.745816 820.740357 
L 228.877707 819.457841 
L 229.985887 818.152458 
L 231.070355 816.824208 
L 232.131112 815.473091 
L 233.168158 814.099106 
L 234.181492 812.702254 
L 235.171115 811.282534 
L 236.137027 809.839947 
L 237.079228 808.374493 
L 237.997717 806.886171 
L 238.892494 805.374982 
L 239.763561 803.840926 
L 240.610916 802.284002 
L 241.43456 800.704211 
L 242.234492 799.101553 
L 243.010713 797.476027 
L 243.763223 795.827634 
L 244.492022 794.156374 
L 245.197109 792.462246 
L 245.878485 790.745251 
L 246.53615 789.005389 
L 247.170103 787.242659 
L 247.780345 785.457062 
L 248.366875 783.648597 
L 248.929695 781.817266 
L 249.468803 779.963066 
L 249.984199 778.086 
L 250.475885 776.186066 
L 250.943859 774.263265 
L 251.388121 772.317596 
L 251.808673 770.349061 
L 252.205513 768.357657 
L 252.578641 766.343387 
L 252.928059 764.306249 
L 253.253765 762.246243 
L 253.55576 760.163371 
L 253.834043 758.057631 
L 254.088615 755.929024 
L 254.319476 753.777549 
L 254.526626 751.603207 
L 254.710064 749.405998 
L 254.869791 747.185921 
L 255.005806 744.942977 
L 255.11811 742.677165 
L 283.464567 198.425197 
L 486.141732 212.598425 
L 507.401575 354.330709 
L 528.661417 212.598425 
L 656.220472 212.598425 
L 677.480315 354.330709 
L 698.740157 212.598425 
L 885.826772 198.425197 
L 885.826772 198.425197 
L 886.379118 228.222428 
L 886.858983 258.018538 
L 887.267955 287.81355 
L 887.607619 317.607489 
L 887.879555 347.400378 
L 888.085338 377.192241 
L 888.226537 406.983103 
L 888.304718 436.772987 
L 888.321439 466.561916 
L 888.278255 496.349915 
L 888.176716 526.137007 
L 888.018365 555.923215 
L 887.804743 585.708564 
L 887.537383 615.493076 
L 887.217815 645.276775 
L 886.847563 675.059684 
L 886.428145 704.841826 
L 885.961075 734.623226 
L 885.447864 764.403904 
L 884.890013 794.183886 
L 884.289023 823.963193 
L 883.646387 853.741849 
L 882.963593 883.519877 
L 882.242125 913.297299 
L 881.483462 943.074138 
L 880.689077 972.850417 
L 879.860438 1002.626158 
L 878.99901 1032.401384 
L 878.106249 1062.176118 
L 877.18361 1091.950381 
L 876.23254 1121.724197 
L 875.254482 1151.497587 
L 874.250875 1181.270574 
L 873.223152 1211.04318 
L 872.17274 1240.815427 
L 871.101062 1270.587337 
L 870.009536 1300.358932 
L 868.899574 1330.130234 
L 867.772585 1359.901265 
L 866.629971 1389.672046 
L 865.473129 1419.4426 
L 864.303451 1449.212949 
L 863.122326 1478.983113 
L 861.931135 1508.753114 
L 860.731256 1538.522974 
L 859.52406 1568.292714 
L 858.310916 1598.062355 
L 857.093185 1627.83192 
L 855.872223 1657.601429 
L 854.649384 1687.370903 
L 853.426013 1717.140363 
L 852.203453 1746.909831 
L 850.98304 1776.679327 
L 849.766107 1806.448872 
L 848.553978 1836.218488 
L 847.347978 1865.988195 
L 846.14942 1895.758014 
L 844.959618 1925.527965 
L 843.779877 1955.298069 
L 842.611499 1985.068346 
L 841.45578 2014.838818 
L 840.31401 2044.609504 
L 839.187477 2074.380426 
L 838.077462 2104.151602 
L 836.985239 2133.923054 
L 835.912081 2163.694801 
L 834.859252 2193.466865 
L 833.828014 2223.239264 
L 832.819623 2253.012018 
L 831.835328 2282.785149 
L 830.876376 2312.558675 
L 829.944008 2342.332616 
L 829.039458 2372.106993 
L 828.163957 2401.881824 
L 827.318731 2431.65713 
L 826.504999 2461.43293 
L 825.723977 2491.209243 
L 824.976875 2520.986089 
L 824.264898 2550.763487 
L 823.589246 2580.541457 
L 822.951114 2610.320017 
L 822.351692 2640.099188 
L 821.792165 2669.878988 
L 821.273712 2699.659435 
L 820.797508 2729.44055 
L 820.364723 2759.222351 
L 819.976522 2789.004857 
L 819.634063 2818.788087 
L 819.338502 2848.572059 
L 819.090988 2878.356792 
L 818.892664 2908.142305 
L 818.744671 2937.928616 
L 818.648142 2967.715744 
L 818.604207 2997.503708 
L 818.613989 3027.292524 
L 818.678608 3057.082213 
L 818.799178 3086.872792 
L 818.976806 3116.664279 
L 819.212598 3146.456693 
L 507.401575 3103.937008 
L 195.590551 3146.456693 
z
" style="fill:#e6e6e6;stroke:#808080;stroke-linejoin:miter;"/>
   </g>
   <g id="patch_4">
    <path clip-path="url(#p7a6ce91a3a)" d="M 1195.275591 3146.456693 
L 1195.365455 3123.266119 
L 1195.441011 3100.073613 
L 1195.501756 3076.879269 
L 1195.547188 3053.683182 
L 1195.576802 3030.485446 
L 1195.590098 3007.286157 
L 1195.586571 2984.085409 
L 1195.56572 2960.883296 
L 1195.527041 2937.679913 
L 1195.470032 2914.475356 
L 1195.39419 2891.269718 
L 1195.299011 2868.063094 
L 1195.183995 2844.855579 
L 1195.048636 2821.647268 
L 1194.892434 2798.438255 
L 1194.714885 2775.228634 
L 1194.515486 2752.018502 
L 1194.293735 2728.807951 
L 1194.049128 2705.597077 
L 1193.781164 2682.385975 
L 1193.489339 2659.174739 
L 1193.173151 2635.963463 
L 1192.832096 2612.752243 
L 1192.465672 2589.541173 
L 1192.073377 2566.330348 
L 1191.654707 2543.119863 
L 1191.20916 2519.909811 
L 1190.736233 2496.700288 
L 1190.235423 2473.491389 
L 1189.706228 2450.283207 
L 1189.148144 2427.075839 
L 1188.560669 2403.869378 
L 1187.943301 2380.663918 
L 1187.295536 2357.459556 
L 1186.616872 2334.256385 
L 1185.906805 2311.0545 
L 1185.164834 2287.853995 
L 1184.390455 2264.654966 
L 1183.583166 2241.457507 
L 1182.742464 2218.261712 
L 1181.867845 2195.067677 
L 1180.958809 2171.875496 
L 1180.01485 2148.685263 
L 1179.035468 2125.497074 
L 1178.020159 2102.311022 
L 1176.96842 2079.127203 
L 1175.879749 2055.945712 
L 1174.753642 2032.766642 
L 1173.589598 2009.590089 
L 1172.387112 1986.416147 
L 1171.145684 1963.244911 
L 1169.864809 1940.076475 
L 1168.543985 1916.910935 
L 1167.182709 1893.748384 
L 1165.780479 1870.588918 
L 1164.336792 1847.432632 
L 1162.851144 1824.279619 
L 1161.323034 1801.129974 
L 1159.751959 1777.983793 
L 1158.137415 1754.841169 
L 1156.4789 1731.702198 
L 1154.775911 1708.566974 
L 1153.027945 1685.435592 
L 1151.2345 1662.308146 
L 1149.395074 1639.184732 
L 1147.509162 1616.065443 
L 1145.576262 1592.950374 
L 1143.595873 1569.839621 
L 1141.56749 1546.733277 
L 1139.490611 1523.631438 
L 1137.364734 1500.534198 
L 1135.189355 1477.441651 
L 1132.963972 1454.353893 
L 1130.688082 1431.271018 
L 1128.361182 1408.19312 
L 1125.98277 1385.120295 
L 1123.552343 1362.052637 
L 1121.069398 1338.99024 
L 1118.533432 1315.9332 
L 1115.943943 1292.881611 
L 1113.300427 1269.835567 
L 1110.602382 1246.795164 
L 1107.849306 1223.760495 
L 1105.040695 1200.731656 
L 1102.176047 1177.708742 
L 1099.254858 1154.691846 
L 1096.276627 1131.681064 
L 1093.240851 1108.67649 
L 1090.147026 1085.678219 
L 1086.99465 1062.686345 
L 1083.78322 1039.700964 
L 1080.512233 1016.72217 
L 1077.181188 993.750057 
L 1073.78958 970.78472 
L 1070.336907 947.826254 
L 1066.822666 924.874754 
L 1063.246356 901.930314 
L 1059.607472 878.993028 
L 1055.905512 856.062992 
L 1055.905512 856.062992 
L 1054.270853 849.838055 
L 1052.644866 843.611262 
L 1051.027551 837.382613 
L 1049.418908 831.152108 
L 1047.818937 824.919747 
L 1046.227638 818.68553 
L 1044.645011 812.449456 
L 1043.071056 806.211527 
L 1041.505773 799.971741 
L 1039.949161 793.7301 
L 1038.401222 787.486602 
L 1036.861955 781.241248 
L 1035.33136 774.994038 
L 1033.809437 768.744972 
L 1032.296186 762.49405 
L 1030.791607 756.241272 
L 1029.2957 749.986638 
L 1027.808464 743.730147 
L 1026.329901 737.471801 
L 1024.86001 731.211598 
L 1023.398791 724.949539 
L 1021.946244 718.685625 
L 1020.502369 712.419854 
L 1019.067165 706.152227 
L 1017.640634 699.882744 
L 1016.222775 693.611405 
L 1014.813588 687.338209 
L 1013.413072 681.063158 
L 1012.021229 674.78625 
L 1010.638058 668.507487 
L 1009.263558 662.226867 
L 1007.897731 655.944392 
L 1006.540576 649.66006 
L 1005.192093 643.373872 
L 1003.852281 637.085828 
L 1002.521142 630.795928 
L 1001.198675 624.504172 
L 999.884879 618.210559 
L 998.579756 611.915091 
L 997.283304 605.617766 
L 995.995525 599.318586 
L 994.716418 593.017549 
L 993.445982 586.714656 
L 992.184219 580.409908 
L 990.931127 574.103303 
L 989.686708 567.794842 
L 988.450961 561.484525 
L 987.223885 555.172351 
L 986.005482 548.858322 
L 984.79575 542.542437 
L 983.594691 536.224695 
L 982.402303 529.905097 
L 981.218588 523.583644 
L 980.043544 517.260334 
L 978.877173 510.935168 
L 977.719473 504.608146 
L 976.570446 498.279268 
L 975.43009 491.948534 
L 974.298406 485.615944 
L 973.175395 479.281497 
L 972.061055 472.945195 
L 970.955388 466.607036 
L 969.858392 460.267022 
L 968.770069 453.925151 
L 967.690417 447.581424 
L 966.619437 441.235841 
L 965.55713 434.888402 
L 964.503494 428.539107 
L 963.45853 422.187956 
L 962.422239 415.834949 
L 961.394619 409.480085 
L 960.375671 403.123366 
L 959.365396 396.76479 
L 958.363792 390.404359 
L 957.37086 384.042071 
L 956.3866 377.677927 
L 955.411013 371.311927 
L 954.444097 364.944071 
L 953.485853 358.574359 
L 952.536281 352.202791 
L 951.595382 345.829366 
L 950.663154 339.454086 
L 949.739598 333.076949 
L 948.824714 326.697957 
L 947.918502 320.317108 
L 947.020963 313.934403 
L 946.132095 307.549842 
L 945.251899 301.163425 
L 944.380375 294.775152 
L 943.517523 288.385023 
L 942.663343 281.993038 
L 941.817835 275.599197 
L 940.981 269.203499 
L 940.152836 262.805946 
L 939.333344 256.406536 
L 938.522524 250.00527 
L 937.720376 243.602148 
L 936.9269 237.19717 
L 936.142096 230.790336 
L 936.142096 230.790336 
L 1162.677408 196.379909 
L 1243.027529 442.219353 
L 1246.752369 183.609029 
L 1615.748031 127.559055 
L 1743.307087 799.370079 
L 1745.704904 801.913605 
L 1748.109785 804.428596 
L 1750.521731 806.915053 
L 1752.940742 809.372974 
L 1755.366817 811.80236 
L 1757.799956 814.203212 
L 1760.24016 816.575528 
L 1762.687428 818.919309 
L 1765.141761 821.234556 
L 1767.603158 823.521267 
L 1770.07162 825.779443 
L 1772.547146 828.009085 
L 1775.029736 830.210191 
L 1777.519391 832.382762 
L 1780.01611 834.526799 
L 1782.519894 836.6423 
L 1785.030743 838.729266 
L 1787.548655 840.787698 
L 1790.073633 842.817594 
L 1792.605674 844.818955 
L 1795.14478 846.791782 
L 1797.690951 848.736073 
L 1800.244186 850.651829 
L 1802.804485 852.539051 
L 1805.371849 854.397737 
L 1807.946278 856.227888 
L 1810.527771 858.029505 
L 1813.116328 859.802586 
L 1815.71195 861.547132 
L 1818.314636 863.263144 
L 1820.924386 864.95062 
L 1823.541201 866.609561 
L 1826.165081 868.239968 
L 1828.796025 869.841839 
L 1831.434033 871.415175 
L 1834.079106 872.959977 
L 1836.731244 874.476243 
L 1839.390445 875.963974 
L 1842.056712 877.423171 
L 1844.730042 878.853832 
L 1847.410437 880.255959 
L 1850.097897 881.62955 
L 1852.792421 882.974606 
L 1855.494009 884.291128 
L 1858.202662 885.579114 
L 1860.91838 886.838565 
L 1863.641162 888.069482 
L 1866.371008 889.271863 
L 1869.107919 890.44571 
L 1871.851894 891.591021 
L 1874.602933 892.707797 
L 1877.361037 893.796039 
L 1880.126206 894.855745 
L 1882.898439 895.886917 
L 1885.677736 896.889553 
L 1888.464098 897.863654 
L 1891.257525 898.809221 
L 1894.058015 899.726252 
L 1896.865571 900.614748 
L 1899.68019 901.47471 
L 1902.501875 902.306136 
L 1905.330623 903.109028 
L 1908.166436 903.883384 
L 1911.009314 904.629205 
L 1913.859256 905.346492 
L 1916.716262 906.035243 
L 1919.580333 906.69546 
L 1922.451468 907.327141 
L 1925.329668 907.930288 
L 1928.214932 908.504899 
L 1931.107261 909.050975 
L 1934.006654 909.568517 
L 1936.913111 910.057523 
L 1939.826633 910.517995 
L 1942.74722 910.949931 
L 1945.674871 911.353332 
L 1948.609586 911.728199 
L 1951.551366 912.07453 
L 1954.50021 912.392327 
L 1957.456119 912.681588 
L 1960.419092 912.942315 
L 1963.38913 913.174506 
L 1966.366232 913.378162 
L 1969.350398 913.553284 
L 1972.341629 913.69987 
L 1975.339925 913.817922 
L 1978.345284 913.907438 
L 1981.357709 913.96842 
L 1984.377198 914.000866 
L 1987.403751 914.004777 
L 1990.437368 913.980154 
L 1993.478051 913.926995 
L 1996.525797 913.845302 
L 1999.580608 913.735073 
L 2002.642484 913.59631 
L 2005.711423 913.429011 
L 2008.787428 913.233178 
L 2011.870497 913.008809 
L 2014.96063 912.755906 
L 2014.96063 912.755906 
L 2010.982375 935.076373 
L 2007.079162 957.405576 
L 2003.250292 979.743395 
L 1999.495066 1002.089714 
L 1995.812786 1024.444416 
L 1992.202754 1046.807383 
L 1988.66427 1069.178498 
L 1985.196638 1091.557643 
L 1981.799158 1113.944702 
L 1978.471132 1136.339557 
L 1975.211861 1158.742091 
L 1972.020647 1181.152186 
L 1968.896792 1203.569726 
L 1965.839597 1225.994592 
L 1962.848363 1248.426668 
L 1959.922393 1270.865837 
L 1957.060988 1293.311981 
L 1954.263449 1315.764982 
L 1951.529078 1338.224724 
L 1948.857177 1360.691089 
L 1946.247047 1383.16396 
L 1943.697989 1405.64322 
L 1941.209306 1428.128751 
L 1938.780299 1450.620437 
L 1936.410269 1473.118159 
L 1934.098518 1495.621801 
L 1931.844347 1518.131245 
L 1929.647059 1540.646373 
L 1927.505954 1563.16707 
L 1925.420334 1585.693217 
L 1923.389501 1608.224697 
L 1921.412757 1630.761393 
L 1919.489403 1653.303188 
L 1917.61874 1675.849963 
L 1915.80007 1698.401603 
L 1914.032695 1720.95799 
L 1912.315915 1743.519005 
L 1910.649034 1766.084533 
L 1909.031352 1788.654456 
L 1907.462171 1811.228657 
L 1905.940793 1833.807017 
L 1904.466518 1856.389421 
L 1903.03865 1878.97575 
L 1901.656488 1901.565888 
L 1900.319335 1924.159717 
L 1899.026492 1946.75712 
L 1897.777262 1969.357979 
L 1896.570944 1991.962178 
L 1895.406842 2014.569598 
L 1894.284257 2037.180123 
L 1893.202489 2059.793636 
L 1892.160842 2082.410019 
L 1891.158615 2105.029155 
L 1890.195112 2127.650926 
L 1889.269633 2150.275216 
L 1888.381479 2172.901906 
L 1887.529954 2195.530881 
L 1886.714358 2218.162022 
L 1885.933992 2240.795212 
L 1885.188159 2263.430333 
L 1884.476159 2286.06727 
L 1883.797295 2308.705903 
L 1883.150868 2331.346117 
L 1882.536179 2353.987794 
L 1881.952531 2376.630816 
L 1881.399224 2399.275066 
L 1880.87556 2421.920427 
L 1880.380842 2444.566781 
L 1879.914369 2467.214012 
L 1879.475445 2489.862002 
L 1879.06337 2512.510634 
L 1878.677446 2535.15979 
L 1878.316975 2557.809353 
L 1877.981259 2580.459206 
L 1877.669598 2603.109232 
L 1877.381294 2625.759313 
L 1877.115649 2648.409332 
L 1876.871965 2671.059172 
L 1876.649543 2693.708715 
L 1876.447684 2716.357845 
L 1876.265691 2739.006443 
L 1876.102865 2761.654393 
L 1875.958507 2784.301578 
L 1875.831918 2806.947879 
L 1875.722402 2829.59318 
L 1875.629258 2852.237364 
L 1875.551789 2874.880313 
L 1875.489296 2897.52191 
L 1875.441081 2920.162037 
L 1875.406445 2942.800578 
L 1875.38469 2965.437415 
L 1875.375118 2988.07243 
L 1875.377029 3010.705507 
L 1875.389726 3033.336528 
L 1875.412511 3055.965377 
L 1875.444684 3078.591934 
L 1875.485547 3101.216085 
L 1875.534402 3123.83771 
L 1875.590551 3146.456693 
L 1535.433071 3188.976378 
L 1195.275591 3146.456693 
z
" style="fill:#e6e6e6;stroke:#808080;stroke-linejoin:miter;"/>
   </g>
   <g id="matplotlib.axis_1">
    <g id="xtick_1">
     <g id="line2d_1">
      <path clip-path="url(#p7a6ce91a3a)" d="M 0 3316.535433 
L 0 0 
" style="fill:none;stroke:#b0b0b0;stroke-linecap:square;stroke-width:0.8;"/>
     </g>
    </g>
    <g id="xtick_2">
     <g id="line2d_2">
      <path clip-path="url(#p7a6ce91a3a)" d="M 28.346457 3316.535433 
L 28.346457 0 
" style="fill:none;stroke:#b0b0b0;stroke-linecap:square;stroke-width:0.8;"/>
     </g>
    </g>
    <g id="xtick_3">
     <g id="line2d_3">
      <path clip-path="url(#p7a6ce91a3a)" d="M 56.692913 3316.535433 
L 56.692913 0 
" style="fill:none;stroke:#b0b0b0;stroke-linecap:square;stroke-width:0.8;"/>
     </g>
    </g>
    <g id="xtick_4">
     <g id="line2d_4">
      <path clip-path="url(#p7a6ce91a3a)" d="M 85.03937 3316.535433 
L 85.03937 0 
" style="fill:none;stroke:#b0b0b0;stroke-linecap:square;stroke-width:0.8;"/>
     </g>
    </g>
    <g id="xtick_5">
     <g id="line2d_5">
      <path clip-path="url(#p7a6ce91a3a)" d="M 113.385827 3316.535433 
L 113.385827 0 
" style="fill:none;stroke:#b0b0b0;stroke-linecap:square;stroke-width:0.8;"/>
     </g>
    </g>
    <g id="xtick_6">
     <g id="line2d_6">
      <path clip-path="url(#p7a6ce91a3a)" d="M 141.732283 3316.535433 
L 141.732283 0 
" style="fill:none;stroke:#b0b0b0;stroke-linecap:square;stroke-width:0.8;"/>
     </g>
    </g>
    <g id="xtick_7">
     <g id="line2d_7">
      <path clip-path="url(#p7a6ce91a3a)" d="M 170.07874 3316.535433 
L 170.07874 0 
" style="fill:none;stroke:#b0b0b0;stroke-linecap:square;stroke-width:0.8;"/>
     </g>
    </g>
    <g id="xtick_8">
     <g id="line2d_8">
      <path clip-path="url(#p7a6ce91a3a)" d="M 198.425197 3316.535433 
L 198.425197 0 
" style="fill:none;stroke:#b0b0b0;stroke-linecap:square;stroke-width:0.8;"/>
     </g>
    </g>
    <g id="xtick_9">
     <g id="line2d_9">
      <path clip-path="url(#p7a6ce91a3a)" d="M 226.771654 3316.535433 
L 226.771654 0 
" style="fill:none;stroke:#b0b0b0;stroke-linecap:square;stroke-width:0.8;"/>
     </g>
    </g>
    <g id="xtick_10">
     <g id="line2d_10">
      <path clip-path="url(#p7a6ce91a3a)" d="M 255.11811 3316.535433 
L 255.11811 0 
" style="fill:none;stroke:#b0b0b0;stroke-linecap:square;stroke-width:0.8;"/>
     </g>
    </g>
    <g id="xtick_11">
     <g id="line2d_11">
      <path clip-path="url(#p7a6ce91a3a)" d="M 283.464567 3316.535433 
L 283.464567 0 
" style="fill:none;stroke:#b0b0b0;stroke-linecap:square;stroke-width:0.8;"/>
     </g>
    </g>
    <g id="xtick_12">
     <g id="line2d_12">
      <path clip-path="url(#p7a6ce91a3a)" d="M 311.811024 3316.535433 
L 311.811024 0 
" style="fill:none;stroke:#b0b0b0;stroke-linecap:square;stroke-width:0.8;"/>
     </g>
    </g>
    <g id="xtick_13">
     <g id="line2d_13">
      <path clip-path="url(#p7a6ce91a3a)" d="M 340.15748 3316.535433 
L 340.15748 0 
" style="fill:none;stroke:#b0b0b0;stroke-linecap:square;stroke-width:0.8;"/>
     </g>
    </g>
    <g id="xtick_14">
     <g id="line2d_14">
      <path clip-path="url(#p7a6ce91a3a)" d="M 368.503937 3316.535433 
L 368.503937 0 
" style="fill:none;stroke:#b0b0b0;stroke-linecap:square;stroke-width:0.8;"/>
     </g>
    </g>
    <g id="xtick_15">
     <g id="line2d_15">
      <path clip-path="url(#p7a6ce91a3a)" d="M 396.850394 3316.535433 
L 396.850394 0 
" style="fill:none;stroke:#b0b0b0;stroke-linecap:square;stroke-width:0.8;"/>
     </g>
    </g>
    <g id="xtick_16">
     <g id="line2d_16">
      <path clip-path="url(#p7a6ce91a3a)" d="M 425.19685 3316.535433 
L 425.19685 0 
" style="fill:none;stroke:#b0b0b0;stroke-linecap:square;stroke-width:0.8;"/>
     </g>
    </g>
    <g id="xtick_17">
     <g id="line2d_17">
      <path clip-path="url(#p7a6ce91a3a)" d="M 453.543307 3316.535433 
L 453.543307 0 
" style="fill:none;stroke:#b0b0b0;stroke-linecap:square;stroke-width:0.8;"/>
     </g>
    </g>
    <g id="xtick_18">
     <g id="line2d_18">
      <path clip-path="url(#p7a6ce91a3a)" d="M 481.889764 3316.535433 
L 481.889764 0 
" style="fill:none;stroke:#b0b0b0;stroke-linecap:square;stroke-width:0.8;"/>
     </g>
    </g>
    <g id="xtick_19">
     <g id="line2d_19">
      <path clip-path="url(#p7a6ce91a3a)" d="M 510.23622 3316.535433 
L 510.23622 0 
" style="fill:none;stroke:#b0b0b0;stroke-linecap:square;stroke-width:0.8;"/>
     </g>
    </g>
    <g id="xtick_20">
     <g id="line2d_20">
      <path clip-path="url(#p7a6ce91a3a)" d="M 538.582677 3316.535433 
L 538.582677 0 
" style="fill:none;stroke:#b0b0b0;stroke-linecap:square;stroke-width:0.8;"/>
     </g>
    </g>
    <g id="xtick_21">
     <g id="line2d_21">
      <path clip-path="url(#p7a6ce91a3a)" d="M 566.929134 3316.535433 
L 566.929134 0 
" style="fill:none;stroke:#b0b0b0;stroke-linecap:square;stroke-width:0.8;"/>
     </g>
    </g>
    <g id="xtick_22">
     <g id="line2d_22">
      <path clip-path="url(#p7a6ce91a3a)" d="M 595.275591 3316.535433 
L 595.275591 0 
" style="fill:none;stroke:#b0b0b0;stroke-linecap:square;stroke-width:0.8;"/>
     </g>
    </g>
    <g id="xtick_23">
     <g id="line2d_23">
      <path clip-path="url(#p7a6ce91a3a)" d="M 623.622047 3316.535433 
L 623.622047 0 
" style="fill:none;stroke:#b0b0b0;stroke-linecap:square;stroke-width:0.8;"/>
     </g>
    </g>
    <g id="xtick_24">
     <g id="line2d_24">
      <path clip-path="url(#p7a6ce91a3a)" d="M 651.968504 3316.535433 
L 651.968504 0 
" style="fill:none;stroke:#b0b0b0;stroke-linecap:square;stroke-width:0.8;"/>
     </g>
    </g>
    <g id="xtick_25">
     <g id="line2d_25">
      <path clip-path="url(#p7a6ce91a3a)" d="M 680.314961 3316.535433 
L 680.314961 0 
" style="fill:none;stroke:#b0b0b0;stroke-linecap:square;stroke-width:0.8;"/>
     </g>
    </g>
    <g id="xtick_26">
     <g id="line2d_26">
      <path clip-path="url(#p7a6ce91a3a)" d="M 708.661417 3316.535433 
L 708.661417 0 
" style="fill:none;stroke:#b0b0b0;stroke-linecap:square;stroke-width:0.8;"/>
     </g>
    </g>
    <g id="xtick_27">
     <g id="line2d_27">
      <path clip-path="url(#p7a6ce91a3a)" d="M 737.007874 3316.535433 
L 737.007874 0 
" style="fill:none;stroke:#b0b0b0;stroke-linecap:square;stroke-width:0.8;"/>
     </g>
    </g>
    <g id="xtick_28">
     <g id="line2d_28">
      <path clip-path="url(#p7a6ce91a3a)" d="M 765.354331 3316.535433 
L 765.354331 0 
" style="fill:none;stroke:#b0b0b0;stroke-linecap:square;stroke-width:0.8;"/>
     </g>
    </g>
    <g id="xtick_29">
     <g id="line2d_29">
      <path clip-path="url(#p7a6ce91a3a)" d="M 793.700787 3316.535433 
L 793.700787 0 
" style="fill:none;stroke:#b0b0b0;stroke-linecap:square;stroke-width:0.8;"/>
     </g>
    </g>
    <g id="xtick_30">
     <g id="line2d_30">
      <path clip-path="url(#p7a6ce91a3a)" d="M 822.047244 3316.535433 
L 822.047244 0 
" style="fill:none;stroke:#b0b0b0;stroke-linecap:square;stroke-width:0.8;"/>
     </g>
    </g>
    <g id="xtick_31">
     <g id="line2d_31">
      <path clip-path="url(#p7a6ce91a3a)" d="M 850.393701 3316.535433 
L 850.393701 0 
" style="fill:none;stroke:#b0b0b0;stroke-linecap:square;stroke-width:0.8;"/>
     </g>
    </g>
    <g id="xtick_32">
     <g id="line2d_32">
      <path clip-path="url(#p7a6ce91a3a)" d="M 878.740157 3316.535433 
L 878.740157 0 
" style="fill:none;stroke:#b0b0b0;stroke-linecap:square;stroke-width:0.8;"/>
     </g>
    </g>
    <g id="xtick_33">
     <g id="line2d_33">
      <path clip-path="url(#p7a6ce91a3a)" d="M 907.086614 3316.535433 
L 907.086614 0 
" style="fill:none;stroke:#b0b0b0;stroke-linecap:square;stroke-width:0.8;"/>
     </g>
    </g>
    <g id="xtick_34">
     <g id="line2d_34">
      <path clip-path="url(#p7a6ce91a3a)" d="M 935.433071 3316.535433 
L 935.433071 0 
" style="fill:none;stroke:#b0b0b0;stroke-linecap:square;stroke-width:0.8;"/>
     </g>
    </g>
    <g id="xtick_35">
     <g id="line2d_35">
      <path clip-path="url(#p7a6ce91a3a)" d="M 963.779528 3316.535433 
L 963.779528 0 
" style="fill:none;stroke:#b0b0b0;stroke-linecap:square;stroke-width:0.8;"/>
     </g>
    </g>
    <g id="xtick_36">
     <g id="line2d_36">
      <path clip-path="url(#p7a6ce91a3a)" d="M 992.125984 3316.535433 
L 992.125984 0 
" style="fill:none;stroke:#b0b0b0;stroke-linecap:square;stroke-width:0.8;"/>
     </g>
    </g>
    <g id="xtick_37">
     <g id="line2d_37">
      <path clip-path="url(#p7a6ce91a3a)" d="M 1020.472441 3316.535433 
L 1020.472441 0 
" style="fill:none;stroke:#b0b0b0;stroke-linecap:square;stroke-width:0.8;"/>
     </g>
    </g>
    <g id="xtick_38">
     <g id="line2d_38">
      <path clip-path="url(#p7a6ce91a3a)" d="M 1048.818898 3316.535433 
L 1048.818898 0 
" style="fill:none;stroke:#b0b0b0;stroke-linecap:square;stroke-width:0.8;"/>
     </g>
    </g>
    <g id="xtick_39">
     <g id="line2d_39">
      <path clip-path="url(#p7a6ce91a3a)" d="M 1077.165354 3316.535433 
L 1077.165354 0 
" style="fill:none;stroke:#b0b0b0;stroke-linecap:square;stroke-width:0.8;"/>
     </g>
    </g>
    <g id="xtick_40">
     <g id="line2d_40">
      <path clip-path="url(#p7a6ce91a3a)" d="M 1105.511811 3316.535433 
L 1105.511811 0 
" style="fill:none;stroke:#b0b0b0;stroke-linecap:square;stroke-width:0.8;"/>
     </g>
    </g>
    <g id="xtick_41">
     <g id="line2d_41">
      <path clip-path="url(#p7a6ce91a3a)" d="M 1133.858268 3316.535433 
L 1133.858268 0 
" style="fill:none;stroke:#b0b0b0;stroke-linecap:square;stroke-width:0.8;"/>
     </g>
    </g>
    <g id="xtick_42">
     <g id="line2d_42">
      <path clip-path="url(#p7a6ce91a3a)" d="M 1162.204724 3316.535433 
L 1162.204724 0 
" style="fill:none;stroke:#b0b0b0;stroke-linecap:square;stroke-width:0.8;"/>
     </g>
    </g>
    <g id="xtick_43">
     <g id="line2d_43">
      <path clip-path="url(#p7a6ce91a3a)" d="M 1190.551181 3316.535433 
L 1190.551181 0 
" style="fill:none;stroke:#b0b0b0;stroke-linecap:square;stroke-width:0.8;"/>
     </g>
    </g>
    <g id="xtick_44">
     <g id="line2d_44">
      <path clip-path="url(#p7a6ce91a3a)" d="M 1218.897638 3316.535433 
L 1218.897638 0 
" style="fill:none;stroke:#b0b0b0;stroke-linecap:square;stroke-width:0.8;"/>
     </g>
    </g>
    <g id="xtick_45">
     <g id="line2d_45">
      <path clip-path="url(#p7a6ce91a3a)" d="M 1247.244094 3316.535433 
L 1247.244094 0 
" style="fill:none;stroke:#b0b0b0;stroke-linecap:square;stroke-width:0.8;"/>
     </g>
    </g>
    <g id="xtick_46">
     <g id="line2d_46">
      <path clip-path="url(#p7a6ce91a3a)" d="M 1275.590551 3316.535433 
L 1275.590551 0 
" style="fill:none;stroke:#b0b0b0;stroke-linecap:square;stroke-width:0.8;"/>
     </g>
    </g>
    <g id="xtick_47">
     <g id="line2d_47">
      <path clip-path="url(#p7a6ce91a3a)" d="M 1303.937008 3316.535433 
L 1303.937008 0 
" style="fill:none;stroke:#b0b0b0;stroke-linecap:square;stroke-width:0.8;"/>
     </g>
    </g>
    <g id="xtick_48">
     <g id="line2d_48">
      <path clip-path="url(#p7a6ce91a3a)" d="M 1332.283465 3316.535433 
L 1332.283465 0 
" style="fill:none;stroke:#b0b0b0;stroke-linecap:square;stroke-width:0.8;"/>
     </g>
    </g>
    <g id="xtick_49">
     <g id="line2d_49">
      <path clip-path="url(#p7a6ce91a3a)" d="M 1360.629921 3316.535433 
L 1360.629921 0 
" style="fill:none;stroke:#b0b0b0;stroke-linecap:square;stroke-width:0.8;"/>
     </g>
    </g>
    <g id="xtick_50">
     <g id="line2d_50">
      <path clip-path="url(#p7a6ce91a3a)" d="M 1388.976378 3316.535433 
L 1388.976378 0 
" style="fill:none;stroke:#b0b0b0;stroke-linecap:square;stroke-width:0.8;"/>
     </g>
    </g>
    <g id="xtick_51">
     <g id="line2d_51">
      <path clip-path="url(#p7a6ce91a3a)" d="M 1417.322835 3316.535433 
L 1417.322835 0 
" style="fill:none;stroke:#b0b0b0;stroke-linecap:square;stroke-width:0.8;"/>
     </g>
    </g>
    <g id="xtick_52">
     <g id="line2d_52">
      <path clip-path="url(#p7a6ce91a3a)" d="M 1445.669291 3316.535433 
L 1445.669291 0 
" style="fill:none;stroke:#b0b0b0;stroke-linecap:square;stroke-width:0.8;"/>
     </g>
    </g>
    <g id="xtick_53">
     <g id="line2d_53">
      <path clip-path="url(#p7a6ce91a3a)" d="M 1474.015748 3316.535433 
L 1474.015748 0 
" style="fill:none;stroke:#b0b0b0;stroke-linecap:square;stroke-width:0.8;"/>
     </g>
    </g>
    <g id="xtick_54">
     <g id="line2d_54">
      <path clip-path="url(#p7a6ce91a3a)" d="M 1502.362205 3316.535433 
L 1502.362205 0 
" style="fill:none;stroke:#b0b0b0;stroke-linecap:square;stroke-width:0.8;"/>
     </g>
    </g>
    <g id="xtick_55">
     <g id="line2d_55">
      <path clip-path="url(#p7a6ce91a3a)" d="M 1530.708661 3316.535433 
L 1530.708661 0 
" style="fill:none;stroke:#b0b0b0;stroke-linecap:square;stroke-width:0.8;"/>
     </g>
    </g>
    <g id="xtick_56">
     <g id="line2d_56">
      <path clip-path="url(#p7a6ce91a3a)" d="M 1559.055118 3316.535433 
L 1559.055118 0 
" style="fill:none;stroke:#b0b0b0;stroke-linecap:square;stroke-width:0.8;"/>
     </g>
    </g>
    <g id="xtick_57">
     <g id="line2d_57">
      <path clip-path="url(#p7a6ce91a3a)" d="M 1587.401575 3316.535433 
L 1587.401575 0 
" style="fill:none;stroke:#b0b0b0;stroke-linecap:square;stroke-width:0.8;"/>
     </g>
    </g>
    <g id="xtick_58">
     <g id="line2d_58">
      <path clip-path="url(#p7a6ce91a3a)" d="M 1615.748031 3316.535433 
L 1615.748031 0 
" style="fill:none;stroke:#b0b0b0;stroke-linecap:square;stroke-width:0.8;"/>
     </g>
    </g>
    <g id="xtick_59">
     <g id="line2d_59">
      <path clip-path="url(#p7a6ce91a3a)" d="M 1644.094488 3316.535433 
L 1644.094488 0 
" style="fill:none;stroke:#b0b0b0;stroke-linecap:square;stroke-width:0.8;"/>
     </g>
    </g>
    <g id="xtick_60">
     <g id="line2d_60">
      <path clip-path="url(#p7a6ce91a3a)" d="M 1672.440945 3316.535433 
L 1672.440945 0 
" style="fill:none;stroke:#b0b0b0;stroke-linecap:square;stroke-width:0.8;"/>
     </g>
    </g>
    <g id="xtick_61">
     <g id="line2d_61">
      <path clip-path="url(#p7a6ce91a3a)" d="M 1700.787402 3316.535433 
L 1700.787402 0 
" style="fill:none;stroke:#b0b0b0;stroke-linecap:square;stroke-width:0.8;"/>
     </g>
    </g>
    <g id="xtick_62">
     <g id="line2d_62">
      <path clip-path="url(#p7a6ce91a3a)" d="M 1729.133858 3316.535433 
L 1729.133858 0 
" style="fill:none;stroke:#b0b0b0;stroke-linecap:square;stroke-width:0.8;"/>
     </g>
    </g>
    <g id="xtick_63">
     <g id="line2d_63">
      <path clip-path="url(#p7a6ce91a3a)" d="M 1757.480315 3316.535433 
L 1757.480315 0 
" style="fill:none;stroke:#b0b0b0;stroke-linecap:square;stroke-width:0.8;"/>
     </g>
    </g>
    <g id="xtick_64">
     <g id="line2d_64">
      <path clip-path="url(#p7a6ce91a3a)" d="M 1785.826772 3316.535433 
L 1785.826772 0 
" style="fill:none;stroke:#b0b0b0;stroke-linecap:square;stroke-width:0.8;"/>
     </g>
    </g>
    <g id="xtick_65">
     <g id="line2d_65">
      <path clip-path="url(#p7a6ce91a3a)" d="M 1814.173228 3316.535433 
L 1814.173228 0 
" style="fill:none;stroke:#b0b0b0;stroke-linecap:square;stroke-width:0.8;"/>
     </g>
    </g>
    <g id="xtick_66">
     <g id="line2d_66">
      <path clip-path="url(#p7a6ce91a3a)" d="M 1842.519685 3316.535433 
L 1842.519685 0 
" style="fill:none;stroke:#b0b0b0;stroke-linecap:square;stroke-width:0.8;"/>
     </g>
    </g>
    <g id="xtick_67">
     <g id="line2d_67">
      <path clip-path="url(#p7a6ce91a3a)" d="M 1870.866142 3316.535433 
L 1870.866142 0 
" style="fill:none;stroke:#b0b0b0;stroke-linecap:square;stroke-width:0.8;"/>
     </g>
    </g>
    <g id="xtick_68">
     <g id="line2d_68">
      <path clip-path="url(#p7a6ce91a3a)" d="M 1899.212598 3316.535433 
L 1899.212598 0 
" style="fill:none;stroke:#b0b0b0;stroke-linecap:square;stroke-width:0.8;"/>
     </g>
    </g>
    <g id="xtick_69">
     <g id="line2d_69">
      <path clip-path="url(#p7a6ce91a3a)" d="M 1927.559055 3316.535433 
L 1927.559055 0 
" style="fill:none;stroke:#b0b0b0;stroke-linecap:square;stroke-width:0.8;"/>
     </g>
    </g>
    <g id="xtick_70">
     <g id="line2d_70">
      <path clip-path="url(#p7a6ce91a3a)" d="M 1955.905512 3316.535433 
L 1955.905512 0 
" style="fill:none;stroke:#b0b0b0;stroke-linecap:square;stroke-width:0.8;"/>
     </g>
    </g>
    <g id="xtick_71">
     <g id="line2d_71">
      <path clip-path="url(#p7a6ce91a3a)" d="M 1984.251969 3316.535433 
L 1984.251969 0 
" style="fill:none;stroke:#b0b0b0;stroke-linecap:square;stroke-width:0.8;"/>
     </g>
    </g>
    <g id="xtick_72">
     <g id="line2d_72">
      <path clip-path="url(#p7a6ce91a3a)" d="M 2012.598425 3316.535433 
L 2012.598425 0 
" style="fill:none;stroke:#b0b0b0;stroke-linecap:square;stroke-width:0.8;"/>
     </g>
    </g>
    <g id="xtick_73">
     <g id="line2d_73">
      <path clip-path="url(#p7a6ce91a3a)" d="M 2040.944882 3316.535433 
L 2040.944882 0 
" style="fill:none;stroke:#b0b0b0;stroke-linecap:square;stroke-width:0.8;"/>
     </g>
    </g>
    <g id="xtick_74">
     <g id="line2d_74">
      <path clip-path="url(#p7a6ce91a3a)" d="M 2069.291339 3316.535433 
L 2069.291339 0 
" style="fill:none;stroke:#b0b0b0;stroke-linecap:square;stroke-width:0.8;"/>
     </g>
    </g>
    <g id="xtick_75">
     <g id="line2d_75">
      <path clip-path="url(#p7a6ce91a3a)" d="M 2097.637795 3316.535433 
L 2097.637795 0 
" style="fill:none;stroke:#b0b0b0;stroke-linecap:square;stroke-width:0.8;"/>
     </g>
    </g>
    <g id="xtick_76">
     <g id="line2d_76">
      <path clip-path="url(#p7a6ce91a3a)" d="M 2125.984252 3316.535433 
L 2125.984252 0 
" style="fill:none;stroke:#b0b0b0;stroke-linecap:square;stroke-width:0.8;"/>
     </g>
    </g>
   </g>
   <g id="matplotlib.axis_2">
    <g id="ytick_1">
     <g id="line2d_77">
      <path clip-path="url(#p7a6ce91a3a)" d="M 0 3316.535433 
L 2154.330709 3316.535433 
" style="fill:none;stroke:#b0b0b0;stroke-linecap:square;stroke-width:0.8;"/>
     </g>
    </g>
    <g id="ytick_2">
     <g id="line2d_78">
      <path clip-path="url(#p7a6ce91a3a)" d="M 0 3288.188976 
L 2154.330709 3288.188976 
" style="fill:none;stroke:#b0b0b0;stroke-linecap:square;stroke-width:0.8;"/>
     </g>
    </g>
    <g id="ytick_3">
     <g id="line2d_79">
      <path clip-path="url(#p7a6ce91a3a)" d="M 0 3259.84252 
L 2154.330709 3259.84252 
" style="fill:none;stroke:#b0b0b0;stroke-linecap:square;stroke-width:0.8;"/>
     </g>
    </g>
    <g id="ytick_4">
     <g id="line2d_80">
      <path clip-path="url(#p7a6ce91a3a)" d="M 0 3231.496063 
L 2154.330709 3231.496063 
" style="fill:none;stroke:#b0b0b0;stroke-linecap:square;stroke-width:0.8;"/>
     </g>
    </g>
    <g id="ytick_5">
     <g id="line2d_81">
      <path clip-path="url(#p7a6ce91a3a)" d="M 0 3203.149606 
L 2154.330709 3203.149606 
" style="fill:none;stroke:#b0b0b0;stroke-linecap:square;stroke-width:0.8;"/>
     </g>
    </g>
    <g id="ytick_6">
     <g id="line2d_82">
      <path clip-path="url(#p7a6ce91a3a)" d="M 0 3174.80315 
L 2154.330709 3174.80315 
" style="fill:none;stroke:#b0b0b0;stroke-linecap:square;stroke-width:0.8;"/>
     </g>
    </g>
    <g id="ytick_7">
     <g id="line2d_83">
      <path clip-path="url(#p7a6ce91a3a)" d="M 0 3146.456693 
L 2154.330709 3146.456693 
" style="fill:none;stroke:#b0b0b0;stroke-linecap:square;stroke-width:0.8;"/>
     </g>
    </g>
    <g id="ytick_8">
     <g id="line2d_84">
      <path clip-path="url(#p7a6ce91a3a)" d="M 0 3118.110236 
L 2154.330709 3118.110236 
" style="fill:none;stroke:#b0b0b0;stroke-linecap:square;stroke-width:0.8;"/>
     </g>
    </g>
    <g id="ytick_9">
     <g id="line2d_85">
      <path clip-path="url(#p7a6ce91a3a)" d="M 0 3089.76378 
L 2154.330709 3089.76378 
" style="fill:none;stroke:#b0b0b0;stroke-linecap:square;stroke-width:0.8;"/>
     </g>
    </g>
    <g id="ytick_10">
     <g id="line2d_86">
      <path clip-path="url(#p7a6ce91a3a)" d="M 0 3061.417323 
L 2154.330709 3061.417323 
" style="fill:none;stroke:#b0b0b0;stroke-linecap:square;stroke-width:0.8;"/>
     </g>
    </g>
    <g id="ytick_11">
     <g id="line2d_87">
      <path clip-path="url(#p7a6ce91a3a)" d="M 0 3033.070866 
L 2154.330709 3033.070866 
" style="fill:none;stroke:#b0b0b0;stroke-linecap:square;stroke-width:0.8;"/>
     </g>
    </g>
    <g id="ytick_12">
     <g id="line2d_88">
      <path clip-path="url(#p7a6ce91a3a)" d="M 0 3004.724409 
L 2154.330709 3004.724409 
" style="fill:none;stroke:#b0b0b0;stroke-linecap:square;stroke-width:0.8;"/>
     </g>
    </g>
    <g id="ytick_13">
     <g id="line2d_89">
      <path clip-path="url(#p7a6ce91a3a)" d="M 0 2976.377953 
L 2154.330709 2976.377953 
" style="fill:none;stroke:#b0b0b0;stroke-linecap:square;stroke-width:0.8;"/>
     </g>
    </g>
    <g id="ytick_14">
     <g id="line2d_90">
      <path clip-path="url(#p7a6ce91a3a)" d="M 0 2948.031496 
L 2154.330709 2948.031496 
" style="fill:none;stroke:#b0b0b0;stroke-linecap:square;stroke-width:0.8;"/>
     </g>
    </g>
    <g id="ytick_15">
     <g id="line2d_91">
      <path clip-path="url(#p7a6ce91a3a)" d="M 0 2919.685039 
L 2154.330709 2919.685039 
" style="fill:none;stroke:#b0b0b0;stroke-linecap:square;stroke-width:0.8;"/>
     </g>
    </g>
    <g id="ytick_16">
     <g id="line2d_92">
      <path clip-path="url(#p7a6ce91a3a)" d="M 0 2891.338583 
L 2154.330709 2891.338583 
" style="fill:none;stroke:#b0b0b0;stroke-linecap:square;stroke-width:0.8;"/>
     </g>
    </g>
    <g id="ytick_17">
     <g id="line2d_93">
      <path clip-path="url(#p7a6ce91a3a)" d="M 0 2862.992126 
L 2154.330709 2862.992126 
" style="fill:none;stroke:#b0b0b0;stroke-linecap:square;stroke-width:0.8;"/>
     </g>
    </g>
    <g id="ytick_18">
     <g id="line2d_94">
      <path clip-path="url(#p7a6ce91a3a)" d="M 0 2834.645669 
L 2154.330709 2834.645669 
" style="fill:none;stroke:#b0b0b0;stroke-linecap:square;stroke-width:0.8;"/>
     </g>
    </g>
    <g id="ytick_19">
     <g id="line2d_95">
      <path clip-path="url(#p7a6ce91a3a)" d="M 0 2806.299213 
L 2154.330709 2806.299213 
" style="fill:none;stroke:#b0b0b0;stroke-linecap:square;stroke-width:0.8;"/>
     </g>
    </g>
    <g id="ytick_20">
     <g id="line2d_96">
      <path clip-path="url(#p7a6ce91a3a)" d="M 0 2777.952756 
L 2154.330709 2777.952756 
" style="fill:none;stroke:#b0b0b0;stroke-linecap:square;stroke-width:0.8;"/>
     </g>
    </g>
    <g id="ytick_21">
     <g id="line2d_97">
      <path clip-path="url(#p7a6ce91a3a)" d="M 0 2749.606299 
L 2154.330709 2749.606299 
" style="fill:none;stroke:#b0b0b0;stroke-linecap:square;stroke-width:0.8;"/>
     </g>
    </g>
    <g id="ytick_22">
     <g id="line2d_98">
      <path clip-path="url(#p7a6ce91a3a)" d="M 0 2721.259843 
L 2154.330709 2721.259843 
" style="fill:none;stroke:#b0b0b0;stroke-linecap:square;stroke-width:0.8;"/>
     </g>
    </g>
    <g id="ytick_23">
     <g id="line2d_99">
      <path clip-path="url(#p7a6ce91a3a)" d="M 0 2692.913386 
L 2154.330709 2692.913386 
" style="fill:none;stroke:#b0b0b0;stroke-linecap:square;stroke-width:0.8;"/>
     </g>
    </g>
    <g id="ytick_24">
     <g id="line2d_100">
      <path clip-path="url(#p7a6ce91a3a)" d="M 0 2664.566929 
L 2154.330709 2664.566929 
" style="fill:none;stroke:#b0b0b0;stroke-linecap:square;stroke-width:0.8;"/>
     </g>
    </g>
    <g id="ytick_25">
     <g id="line2d_101">
      <path clip-path="url(#p7a6ce91a3a)" d="M 0 2636.220472 
L 2154.330709 2636.220472 
" style="fill:none;stroke:#b0b0b0;stroke-linecap:square;stroke-width:0.8;"/>
     </g>
    </g>
    <g id="ytick_26">
     <g id="line2d_102">
      <path clip-path="url(#p7a6ce91a3a)" d="M 0 2607.874016 
L 2154.330709 2607.874016 
" style="fill:none;stroke:#b0b0b0;stroke-linecap:square;stroke-width:0.8;"/>
     </g>
    </g>
    <g id="ytick_27">
     <g id="line2d_103">
      <path clip-path="url(#p7a6ce91a3a)" d="M 0 2579.527559 
L 2154.330709 2579.527559 
" style="fill:none;stroke:#b0b0b0;stroke-linecap:square;stroke-width:0.8;"/>
     </g>
    </g>
    <g id="ytick_28">
     <g id="line2d_104">
      <path clip-path="url(#p7a6ce91a3a)" d="M 0 2551.181102 
L 2154.330709 2551.181102 
" style="fill:none;stroke:#b0b0b0;stroke-linecap:square;stroke-width:0.8;"/>
     </g>
    </g>
    <g id="ytick_29">
     <g id="line2d_105">
      <path clip-path="url(#p7a6ce91a3a)" d="M 0 2522.834646 
L 2154.330709 2522.834646 
" style="fill:none;stroke:#b0b0b0;stroke-linecap:square;stroke-width:0.8;"/>
     </g>
    </g>
    <g id="ytick_30">
     <g id="line2d_106">
      <path clip-path="url(#p7a6ce91a3a)" d="M 0 2494.488189 
L 2154.330709 2494.488189 
" style="fill:none;stroke:#b0b0b0;stroke-linecap:square;stroke-width:0.8;"/>
     </g>
    </g>
    <g id="ytick_31">
     <g id="line2d_107">
      <path clip-path="url(#p7a6ce91a3a)" d="M 0 2466.141732 
L 2154.330709 2466.141732 
" style="fill:none;stroke:#b0b0b0;stroke-linecap:square;stroke-width:0.8;"/>
     </g>
    </g>
    <g id="ytick_32">
     <g id="line2d_108">
      <path clip-path="url(#p7a6ce91a3a)" d="M 0 2437.795276 
L 2154.330709 2437.795276 
" style="fill:none;stroke:#b0b0b0;stroke-linecap:square;stroke-width:0.8;"/>
     </g>
    </g>
    <g id="ytick_33">
     <g id="line2d_109">
      <path clip-path="url(#p7a6ce91a3a)" d="M 0 2409.448819 
L 2154.330709 2409.448819 
" style="fill:none;stroke:#b0b0b0;stroke-linecap:square;stroke-width:0.8;"/>
     </g>
    </g>
    <g id="ytick_34">
     <g id="line2d_110">
      <path clip-path="url(#p7a6ce91a3a)" d="M 0 2381.102362 
L 2154.330709 2381.102362 
" style="fill:none;stroke:#b0b0b0;stroke-linecap:square;stroke-width:0.8;"/>
     </g>
    </g>
    <g id="ytick_35">
     <g id="line2d_111">
      <path clip-path="url(#p7a6ce91a3a)" d="M 0 2352.755906 
L 2154.330709 2352.755906 
" style="fill:none;stroke:#b0b0b0;stroke-linecap:square;stroke-width:0.8;"/>
     </g>
    </g>
    <g id="ytick_36">
     <g id="line2d_112">
      <path clip-path="url(#p7a6ce91a3a)" d="M 0 2324.409449 
L 2154.330709 2324.409449 
" style="fill:none;stroke:#b0b0b0;stroke-linecap:square;stroke-width:0.8;"/>
     </g>
    </g>
    <g id="ytick_37">
     <g id="line2d_113">
      <path clip-path="url(#p7a6ce91a3a)" d="M 0 2296.062992 
L 2154.330709 2296.062992 
" style="fill:none;stroke:#b0b0b0;stroke-linecap:square;stroke-width:0.8;"/>
     </g>
    </g>
    <g id="ytick_38">
     <g id="line2d_114">
      <path clip-path="url(#p7a6ce91a3a)" d="M 0 2267.716535 
L 2154.330709 2267.716535 
" style="fill:none;stroke:#b0b0b0;stroke-linecap:square;stroke-width:0.8;"/>
     </g>
    </g>
    <g id="ytick_39">
     <g id="line2d_115">
      <path clip-path="url(#p7a6ce91a3a)" d="M 0 2239.370079 
L 2154.330709 2239.370079 
" style="fill:none;stroke:#b0b0b0;stroke-linecap:square;stroke-width:0.8;"/>
     </g>
    </g>
    <g id="ytick_40">
     <g id="line2d_116">
      <path clip-path="url(#p7a6ce91a3a)" d="M 0 2211.023622 
L 2154.330709 2211.023622 
" style="fill:none;stroke:#b0b0b0;stroke-linecap:square;stroke-width:0.8;"/>
     </g>
    </g>
    <g id="ytick_41">
     <g id="line2d_117">
      <path clip-path="url(#p7a6ce91a3a)" d="M 0 2182.677165 
L 2154.330709 2182.677165 
" style="fill:none;stroke:#b0b0b0;stroke-linecap:square;stroke-width:0.8;"/>
     </g>
    </g>
    <g id="ytick_42">
     <g id="line2d_118">
      <path clip-path="url(#p7a6ce91a3a)" d="M 0 2154.330709 
L 2154.330709 2154.330709 
" style="fill:none;stroke:#b0b0b0;stroke-linecap:square;stroke-width:0.8;"/>
     </g>
    </g>
    <g id="ytick_43">
     <g id="line2d_119">
      <path clip-path="url(#p7a6ce91a3a)" d="M 0 2125.984252 
L 2154.330709 2125.984252 
" style="fill:none;stroke:#b0b0b0;stroke-linecap:square;stroke-width:0.8;"/>
     </g>
    </g>
    <g id="ytick_44">
     <g id="line2d_120">
      <path clip-path="url(#p7a6ce91a3a)" d="M 0 2097.637795 
L 2154.330709 2097.637795 
" style="fill:none;stroke:#b0b0b0;stroke-linecap:square;stroke-width:0.8;"/>
     </g>
    </g>
    <g id="ytick_45">
     <g id="line2d_121">
      <path clip-path="url(#p7a6ce91a3a)" d="M 0 2069.291339 
L 2154.330709 2069.291339 
" style="fill:none;stroke:#b0b0b0;stroke-linecap:square;stroke-width:0.8;"/>
     </g>
    </g>
    <g id="ytick_46">
     <g id="line2d_122">
      <path clip-path="url(#p7a6ce91a3a)" d="M 0 2040.944882 
L 2154.330709 2040.944882 
" style="fill:none;stroke:#b0b0b0;stroke-linecap:square;stroke-width:0.8;"/>
     </g>
    </g>
    <g id="ytick_47">
     <g id="line2d_123">
      <path clip-path="url(#p7a6ce91a3a)" d="M 0 2012.598425 
L 2154.330709 2012.598425 
" style="fill:none;stroke:#b0b0b0;stroke-linecap:square;stroke-width:0.8;"/>
     </g>
    </g>
    <g id="ytick_48">
     <g id="line2d_124">
      <path clip-path="url(#p7a6ce91a3a)" d="M 0 1984.251969 
L 2154.330709 1984.251969 
" style="fill:none;stroke:#b0b0b0;stroke-linecap:square;stroke-width:0.8;"/>
     </g>
    </g>
    <g id="ytick_49">
     <g id="line2d_125">
      <path clip-path="url(#p7a6ce91a3a)" d="M 0 1955.905512 
L 2154.330709 1955.905512 
" style="fill:none;stroke:#b0b0b0;stroke-linecap:square;stroke-width:0.8;"/>
     </g>
    </g>
    <g id="ytick_50">
     <g id="line2d_126">
      <path clip-path="url(#p7a6ce91a3a)" d="M 0 1927.559055 
L 2154.330709 1927.559055 
" style="fill:none;stroke:#b0b0b0;stroke-linecap:square;stroke-width:0.8;"/>
     </g>
    </g>
    <g id="ytick_51">
     <g id="line2d_127">
      <path clip-path="url(#p7a6ce91a3a)" d="M 0 1899.212598 
L 2154.330709 1899.212598 
" style="fill:none;stroke:#b0b0b0;stroke-linecap:square;stroke-width:0.8;"/>
     </g>
    </g>
    <g id="ytick_52">
     <g id="line2d_128">
      <path clip-path="url(#p7a6ce91a3a)" d="M 0 1870.866142 
L 2154.330709 1870.866142 
" style="fill:none;stroke:#b0b0b0;stroke-linecap:square;stroke-width:0.8;"/>
     </g>
    </g>
    <g id="ytick_53">
     <g id="line2d_129">
      <path clip-path="url(#p7a6ce91a3a)" d="M 0 1842.519685 
L 2154.330709 1842.519685 
" style="fill:none;stroke:#b0b0b0;stroke-linecap:square;stroke-width:0.8;"/>
     </g>
    </g>
    <g id="ytick_54">
     <g id="line2d_130">
      <path clip-path="url(#p7a6ce91a3a)" d="M 0 1814.173228 
L 2154.330709 1814.173228 
" style="fill:none;stroke:#b0b0b0;stroke-linecap:square;stroke-width:0.8;"/>
     </g>
    </g>
    <g id="ytick_55">
     <g id="line2d_131">
      <path clip-path="url(#p7a6ce91a3a)" d="M 0 1785.826772 
L 2154.330709 1785.826772 
" style="fill:none;stroke:#b0b0b0;stroke-linecap:square;stroke-width:0.8;"/>
     </g>
    </g>
    <g id="ytick_56">
     <g id="line2d_132">
      <path clip-path="url(#p7a6ce91a3a)" d="M 0 1757.480315 
L 2154.330709 1757.480315 
" style="fill:none;stroke:#b0b0b0;stroke-linecap:square;stroke-width:0.8;"/>
     </g>
    </g>
    <g id="ytick_57">
     <g id="line2d_133">
      <path clip-path="url(#p7a6ce91a3a)" d="M 0 1729.133858 
L 2154.330709 1729.133858 
" style="fill:none;stroke:#b0b0b0;stroke-linecap:square;stroke-width:0.8;"/>
     </g>
    </g>
    <g id="ytick_58">
     <g id="line2d_134">
      <path clip-path="url(#p7a6ce91a3a)" d="M 0 1700.787402 
L 2154.330709 1700.787402 
" style="fill:none;stroke:#b0b0b0;stroke-linecap:square;stroke-width:0.8;"/>
     </g>
    </g>
    <g id="ytick_59">
     <g id="line2d_135">
      <path clip-path="url(#p7a6ce91a3a)" d="M 0 1672.440945 
L 2154.330709 1672.440945 
" style="fill:none;stroke:#b0b0b0;stroke-linecap:square;stroke-width:0.8;"/>
     </g>
    </g>
    <g id="ytick_60">
     <g id="line2d_136">
      <path clip-path="url(#p7a6ce91a3a)" d="M 0 1644.094488 
L 2154.330709 1644.094488 
" style="fill:none;stroke:#b0b0b0;stroke-linecap:square;stroke-width:0.8;"/>
     </g>
    </g>
    <g id="ytick_61">
     <g id="line2d_137">
      <path clip-path="url(#p7a6ce91a3a)" d="M 0 1615.748031 
L 2154.330709 1615.748031 
" style="fill:none;stroke:#b0b0b0;stroke-linecap:square;stroke-width:0.8;"/>
     </g>
    </g>
    <g id="ytick_62">
     <g id="line2d_138">
      <path clip-path="url(#p7a6ce91a3a)" d="M 0 1587.401575 
L 2154.330709 1587.401575 
" style="fill:none;stroke:#b0b0b0;stroke-linecap:square;stroke-width:0.8;"/>
     </g>
    </g>
    <g id="ytick_63">
     <g id="line2d_139">
      <path clip-path="url(#p7a6ce91a3a)" d="M 0 1559.055118 
L 2154.330709 1559.055118 
" style="fill:none;stroke:#b0b0b0;stroke-linecap:square;stroke-width:0.8;"/>
     </g>
    </g>
    <g id="ytick_64">
     <g id="line2d_140">
      <path clip-path="url(#p7a6ce91a3a)" d="M 0 1530.708661 
L 2154.330709 1530.708661 
" style="fill:none;stroke:#b0b0b0;stroke-linecap:square;stroke-width:0.8;"/>
     </g>
    </g>
    <g id="ytick_65">
     <g id="line2d_141">
      <path clip-path="url(#p7a6ce91a3a)" d="M 0 1502.362205 
L 2154.330709 1502.362205 
" style="fill:none;stroke:#b0b0b0;stroke-linecap:square;stroke-width:0.8;"/>
     </g>
    </g>
    <g id="ytick_66">
     <g id="line2d_142">
      <path clip-path="url(#p7a6ce91a3a)" d="M 0 1474.015748 
L 2154.330709 1474.015748 
" style="fill:none;stroke:#b0b0b0;stroke-linecap:square;stroke-width:0.8;"/>
     </g>
    </g>
    <g id="ytick_67">
     <g id="line2d_143">
      <path clip-path="url(#p7a6ce91a3a)" d="M 0 1445.669291 
L 2154.330709 1445.669291 
" style="fill:none;stroke:#b0b0b0;stroke-linecap:square;stroke-width:0.8;"/>
     </g>
    </g>
    <g id="ytick_68">
     <g id="line2d_144">
      <path clip-path="url(#p7a6ce91a3a)" d="M 0 1417.322835 
L 2154.330709 1417.322835 
" style="fill:none;stroke:#b0b0b0;stroke-linecap:square;stroke-width:0.8;"/>
     </g>
    </g>
    <g id="ytick_69">
     <g id="line2d_145">
      <path clip-path="url(#p7a6ce91a3a)" d="M 0 1388.976378 
L 2154.330709 1388.976378 
" style="fill:none;stroke:#b0b0b0;stroke-linecap:square;stroke-width:0.8;"/>
     </g>
    </g>
    <g id="ytick_70">
     <g id="line2d_146">
      <path clip-path="url(#p7a6ce91a3a)" d="M 0 1360.629921 
L 2154.330709 1360.629921 
" style="fill:none;stroke:#b0b0b0;stroke-linecap:square;stroke-width:0.8;"/>
     </g>
    </g>
    <g id="ytick_71">
     <g id="line2d_147">
      <path clip-path="url(#p7a6ce91a3a)" d="M 0 1332.283465 
L 2154.330709 1332.283465 
" style="fill:none;stroke:#b0b0b0;stroke-linecap:square;stroke-width:0.8;"/>
     </g>
    </g>
    <g id="ytick_72">
     <g id="line2d_148">
      <path clip-path="url(#p7a6ce91a3a)" d="M 0 1303.937008 
L 2154.330709 1303.937008 
" style="fill:none;stroke:#b0b0b0;stroke-linecap:square;stroke-width:0.8;"/>
     </g>
    </g>
    <g id="ytick_73">
     <g id="line2d_149">
      <path clip-path="url(#p7a6ce91a3a)" d="M 0 1275.590551 
L 2154.330709 1275.590551 
" style="fill:none;stroke:#b0b0b0;stroke-linecap:square;stroke-width:0.8;"/>
     </g>
    </g>
    <g id="ytick_74">
     <g id="line2d_150">
      <path clip-path="url(#p7a6ce91a3a)" d="M 0 1247.244094 
L 2154.330709 1247.244094 
" style="fill:none;stroke:#b0b0b0;stroke-linecap:square;stroke-width:0.8;"/>
     </g>
    </g>
    <g id="ytick_75">
     <g id="line2d_151">
      <path clip-path="url(#p7a6ce91a3a)" d="M 0 1218.897638 
L 2154.330709 1218.897638 
" style="fill:none;stroke:#b0b0b0;stroke-linecap:square;stroke-width:0.8;"/>
     </g>
    </g>
    <g id="ytick_76">
     <g id="line2d_152">
      <path clip-path="url(#p7a6ce91a3a)" d="M 0 1190.551181 
L 2154.330709 1190.551181 
" style="fill:none;stroke:#b0b0b0;stroke-linecap:square;stroke-width:0.8;"/>
     </g>
    </g>
    <g id="ytick_77">
     <g id="line2d_153">
      <path clip-path="url(#p7a6ce91a3a)" d="M 0 1162.204724 
L 2154.330709 1162.204724 
" style="fill:none;stroke:#b0b0b0;stroke-linecap:square;stroke-width:0.8;"/>
     </g>
    </g>
    <g id="ytick_78">
     <g id="line2d_154">
      <path clip-path="url(#p7a6ce91a3a)" d="M 0 1133.858268 
L 2154.330709 1133.858268 
" style="fill:none;stroke:#b0b0b0;stroke-linecap:square;stroke-width:0.8;"/>
     </g>
    </g>
    <g id="ytick_79">
     <g id="line2d_155">
      <path clip-path="url(#p7a6ce91a3a)" d="M 0 1105.511811 
L 2154.330709 1105.511811 
" style="fill:none;stroke:#b0b0b0;stroke-linecap:square;stroke-width:0.8;"/>
     </g>
    </g>
    <g id="ytick_80">
     <g id="line2d_156">
      <path clip-path="url(#p7a6ce91a3a)" d="M 0 1077.165354 
L 2154.330709 1077.165354 
" style="fill:none;stroke:#b0b0b0;stroke-linecap:square;stroke-width:0.8;"/>
     </g>
    </g>
    <g id="ytick_81">
     <g id="line2d_157">
      <path clip-path="url(#p7a6ce91a3a)" d="M 0 1048.818898 
L 2154.330709 1048.818898 
" style="fill:none;stroke:#b0b0b0;stroke-linecap:square;stroke-width:0.8;"/>
     </g>
    </g>
    <g id="ytick_82">
     <g id="line2d_158">
      <path clip-path="url(#p7a6ce91a3a)" d="M 0 1020.472441 
L 2154.330709 1020.472441 
" style="fill:none;stroke:#b0b0b0;stroke-linecap:square;stroke-width:0.8;"/>
     </g>
    </g>
    <g id="ytick_83">
     <g id="line2d_159">
      <path clip-path="url(#p7a6ce91a3a)" d="M 0 992.125984 
L 2154.330709 992.125984 
" style="fill:none;stroke:#b0b0b0;stroke-linecap:square;stroke-width:0.8;"/>
     </g>
    </g>
    <g id="ytick_84">
     <g id="line2d_160">
      <path clip-path="url(#p7a6ce91a3a)" d="M 0 963.779528 
L 2154.330709 963.779528 
" style="fill:none;stroke:#b0b0b0;stroke-linecap:square;stroke-width:0.8;"/>
     </g>
    </g>
    <g id="ytick_85">
     <g id="line2d_161">
      <path clip-path="url(#p7a6ce91a3a)" d="M 0 935.433071 
L 2154.330709 935.433071 
" style="fill:none;stroke:#b0b0b0;stroke-linecap:square;stroke-width:0.8;"/>
     </g>
    </g>
    <g id="ytick_86">
     <g id="line2d_162">
      <path clip-path="url(#p7a6ce91a3a)" d="M 0 907.086614 
L 2154.330709 907.086614 
" style="fill:none;stroke:#b0b0b0;stroke-linecap:square;stroke-width:0.8;"/>
     </g>
    </g>
    <g id="ytick_87">
     <g id="line2d_163">
      <path clip-path="url(#p7a6ce91a3a)" d="M 0 878.740157 
L 2154.330709 878.740157 
" style="fill:none;stroke:#b0b0b0;stroke-linecap:square;stroke-width:0.8;"/>
     </g>
    </g>
    <g id="ytick_88">
     <g id="line2d_164">
      <path clip-path="url(#p7a6ce91a3a)" d="M 0 850.393701 
L 2154.330709 850.393701 
" style="fill:none;stroke:#b0b0b0;stroke-linecap:square;stroke-width:0.8;"/>
     </g>
    </g>
    <g id="ytick_89">
     <g id="line2d_165">
      <path clip-path="url(#p7a6ce91a3a)" d="M 0 822.047244 
L 2154.330709 822.047244 
" style="fill:none;stroke:#b0b0b0;stroke-linecap:square;stroke-width:0.8;"/>
     </g>
    </g>
    <g id="ytick_90">
     <g id="line2d_166">
      <path clip-path="url(#p7a6ce91a3a)" d="M 0 793.700787 
L 2154.330709 793.700787 
" style="fill:none;stroke:#b0b0b0;stroke-linecap:square;stroke-width:0.8;"/>
     </g>
    </g>
    <g id="ytick_91">
     <g id="line2d_167">
      <path clip-path="url(#p7a6ce91a3a)" d="M 0 765.354331 
L 2154.330709 765.354331 
" style="fill:none;stroke:#b0b0b0;stroke-linecap:square;stroke-width:0.8;"/>
     </g>
    </g>
    <g id="ytick_92">
     <g id="line2d_168">
      <path clip-path="url(#p7a6ce91a3a)" d="M 0 737.007874 
L 2154.330709 737.007874 
" style="fill:none;stroke:#b0b0b0;stroke-linecap:square;stroke-width:0.8;"/>
     </g>
    </g>
    <g id="ytick_93">
     <g id="line2d_169">
      <path clip-path="url(#p7a6ce91a3a)" d="M 0 708.661417 
L 2154.330709 708.661417 
" style="fill:none;stroke:#b0b0b0;stroke-linecap:square;stroke-width:0.8;"/>
     </g>
    </g>
    <g id="ytick_94">
     <g id="line2d_170">
      <path clip-path="url(#p7a6ce91a3a)" d="M 0 680.314961 
L 2154.330709 680.314961 
" style="fill:none;stroke:#b0b0b0;stroke-linecap:square;stroke-width:0.8;"/>
     </g>
    </g>
    <g id="ytick_95">
     <g id="line2d_171">
      <path clip-path="url(#p7a6ce91a3a)" d="M 0 651.968504 
L 2154.330709 651.968504 
" style="fill:none;stroke:#b0b0b0;stroke-linecap:square;stroke-width:0.8;"/>
     </g>
    </g>
    <g id="ytick_96">
     <g id="line2d_172">
      <path clip-path="url(#p7a6ce91a3a)" d="M 0 623.622047 
L 2154.330709 623.622047 
" style="fill:none;stroke:#b0b0b0;stroke-linecap:square;stroke-width:0.8;"/>
     </g>
    </g>
    <g id="ytick_97">
     <g id="line2d_173">
      <path clip-path="url(#p7a6ce91a3a)" d="M 0 595.275591 
L 2154.330709 595.275591 
" style="fill:none;stroke:#b0b0b0;stroke-linecap:square;stroke-width:0.8;"/>
     </g>
    </g>
    <g id="ytick_98">
     <g id="line2d_174">
      <path clip-path="url(#p7a6ce91a3a)" d="M 0 566.929134 
L 2154.330709 566.929134 
" style="fill:none;stroke:#b0b0b0;stroke-linecap:square;stroke-width:0.8;"/>
     </g>
    </g>
    <g id="ytick_99">
     <g id="line2d_175">
      <path clip-path="url(#p7a6ce91a3a)" d="M 0 538.582677 
L 2154.330709 538.582677 
" style="fill:none;stroke:#b0b0b0;stroke-linecap:square;stroke-width:0.8;"/>
     </g>
    </g>
    <g id="ytick_100">
     <g id="line2d_176">
      <path clip-path="url(#p7a6ce91a3a)" d="M 0 510.23622 
L 2154.330709 510.23622 
" style="fill:none;stroke:#b0b0b0;stroke-linecap:square;stroke-width:0.8;"/>
     </g>
    </g>
    <g id="ytick_101">
     <g id="line2d_177">
      <path clip-path="url(#p7a6ce91a3a)" d="M 0 481.889764 
L 2154.330709 481.889764 
" style="fill:none;stroke:#b0b0b0;stroke-linecap:square;stroke-width:0.8;"/>
     </g>
    </g>
    <g id="ytick_102">
     <g id="line2d_178">
      <path clip-path="url(#p7a6ce91a3a)" d="M 0 453.543307 
L 2154.330709 453.543307 
" style="fill:none;stroke:#b0b0b0;stroke-linecap:square;stroke-width:0.8;"/>
     </g>
    </g>
    <g id="ytick_103">
     <g id="line2d_179">
      <path clip-path="url(#p7a6ce91a3a)" d="M 0 425.19685 
L 2154.330709 425.19685 
" style="fill:none;stroke:#b0b0b0;stroke-linecap:square;stroke-width:0.8;"/>
     </g>
    </g>
    <g id="ytick_104">
     <g id="line2d_180">
      <path clip-path="url(#p7a6ce91a3a)" d="M 0 396.850394 
L 2154.330709 396.850394 
" style="fill:none;stroke:#b0b0b0;stroke-linecap:square;stroke-width:0.8;"/>
     </g>
    </g>
    <g id="ytick_105">
     <g id="line2d_181">
      <path clip-path="url(#p7a6ce91a3a)" d="M 0 368.503937 
L 2154.330709 368.503937 
" style="fill:none;stroke:#b0b0b0;stroke-linecap:square;stroke-width:0.8;"/>
     </g>
    </g>
    <g id="ytick_106">
     <g id="line2d_182">
      <path clip-path="url(#p7a6ce91a3a)" d="M 0 340.15748 
L 2154.330709 340.15748 
" style="fill:none;stroke:#b0b0b0;stroke-linecap:square;stroke-width:0.8;"/>
     </g>
    </g>
    <g id="ytick_107">
     <g id="line2d_183">
      <path clip-path="url(#p7a6ce91a3a)" d="M 0 311.811024 
L 2154.330709 311.811024 
" style="fill:none;stroke:#b0b0b0;stroke-linecap:square;stroke-width:0.8;"/>
     </g>
    </g>
    <g id="ytick_108">
     <g id="line2d_184">
      <path clip-path="url(#p7a6ce91a3a)" d="M 0 283.464567 
L 2154.330709 283.464567 
" style="fill:none;stroke:#b0b0b0;stroke-linecap:square;stroke-width:0.8;"/>
     </g>
    </g>
    <g id="ytick_109">
     <g id="line2d_185">
      <path clip-path="url(#p7a6ce91a3a)" d="M 0 255.11811 
L 2154.330709 255.11811 
" style="fill:none;stroke:#b0b0b0;stroke-linecap:square;stroke-width:0.8;"/>
     </g>
    </g>
    <g id="ytick_110">
     <g id="line2d_186">
      <path clip-path="url(#p7a6ce91a3a)" d="M 0 226.771654 
L 2154.330709 226.771654 
" style="fill:none;stroke:#b0b0b0;stroke-linecap:square;stroke-width:0.8;"/>
     </g>
    </g>
    <g id="ytick_111">
     <g id="line2d_187">
      <path clip-path="url(#p7a6ce91a3a)" d="M 0 198.425197 
L 2154.330709 198.425197 
" style="fill:none;stroke:#b0b0b0;stroke-linecap:square;stroke-width:0.8;"/>
     </g>
    </g>
    <g id="ytick_112">
     <g id="line2d_188">
      <path clip-path="url(#p7a6ce91a3a)" d="M 0 170.07874 
L 2154.330709 170.07874 
" style="fill:none;stroke:#b0b0b0;stroke-linecap:square;stroke-width:0.8;"/>
     </g>
    </g>
    <g id="ytick_113">
     <g id="line2d_189">
      <path clip-path="url(#p7a6ce91a3a)" d="M 0 141.732283 
L 2154.330709 141.732283 
" style="fill:none;stroke:#b0b0b0;stroke-linecap:square;stroke-width:0.8;"/>
     </g>
    </g>
    <g id="ytick_114">
     <g id="line2d_190">
      <path clip-path="url(#p7a6ce91a3a)" d="M 0 113.385827 
L 2154.330709 113.385827 
" style="fill:none;stroke:#b0b0b0;stroke-linecap:square;stroke-width:0.8;"/>
     </g>
    </g>
    <g id="ytick_115">
     <g id="line2d_191">
      <path clip-path="url(#p7a6ce91a3a)" d="M 0 85.03937 
L 2154.330709 85.03937 
" style="fill:none;stroke:#b0b0b0;stroke-linecap:square;stroke-width:0.8;"/>
     </g>
    </g>
    <g id="ytick_116">
     <g id="line2d_192">
      <path clip-path="url(#p7a6ce91a3a)" d="M 0 56.692913 
L 2154.330709 56.692913 
" style="fill:none;stroke:#b0b0b0;stroke-linecap:square;stroke-width:0.8;"/>
     </g>
    </g>
    <g id="ytick_117">
     <g id="line2d_193">
      <path clip-path="url(#p7a6ce91a3a)" d="M 0 28.346457 
L 2154.330709 28.346457 
" style="fill:none;stroke:#b0b0b0;stroke-linecap:square;stroke-width:0.8;"/>
     </g>
    </g>
   </g>
   <g id="line2d_194">
    <defs>
     <path d="M 0 3 
C 0.795609 3 1.55874 2.683901 2.12132 2.12132 
C 2.683901 1.55874 3 0.795609 3 0 
C 3 -0.795609 2.683901 -1.55874 2.12132 -2.12132 
C 1.55874 -2.683901 0.795609 -3 0 -3 
C -0.795609 -3 -1.55874 -2.683901 -2.12132 -2.12132 
C -2.683901 -1.55874 -3 -0.795609 -3 0 
C -3 0.795609 -2.683901 1.55874 -2.12132 2.12132 
C -1.55874 2.683901 -0.795609 3 0 3 
z
" id="md78b372cc2" style="stroke:#ff0000;"/>
    </defs>
    <g clip-path="url(#p7a6ce91a3a)">
     <use style="fill:#ff0000;stroke:#ff0000;" x="255.11811" xlink:href="#md78b372cc2" y="198.425197"/>
    </g>
   </g>
   <g id="line2d_195">
    <g clip-path="url(#p7a6ce91a3a)">
     <use style="fill:#ff0000;stroke:#ff0000;" x="885.826772" xlink:href="#md78b372cc2" y="198.425197"/>
    </g>
   </g>
   <g id="line2d_196">
    <g clip-path="url(#p7a6ce91a3a)">
     <use style="fill:#ff0000;stroke:#ff0000;" x="255.11811" xlink:href="#md78b372cc2" y="3146.456693"/>
    </g>
   </g>
   <g id="line2d_197">
    <g clip-path="url(#p7a6ce91a3a)">
     <use style="fill:#ff0000;stroke:#ff0000;" x="885.826772" xlink:href="#md78b372cc2" y="3146.456693"/>
    </g>
   </g>
   <g id="line2d_198">
    <g clip-path="url(#p7a6ce91a3a)">
     <use style="fill:#ff0000;stroke:#ff0000;" x="255.11811" xlink:href="#md78b372cc2" y="856.062992"/>
    </g>
   </g>
   <g id="line2d_199">
    <g clip-path="url(#p7a6ce91a3a)">
     <use style="fill:#ff0000;stroke:#ff0000;" x="885.826772" xlink:href="#md78b372cc2" y="856.062992"/>
    </g>
   </g>
   <g id="line2d_200">
    <g clip-path="url(#p7a6ce91a3a)">
     <use style="fill:#ff0000;stroke:#ff0000;" x="255.11811" xlink:href="#md78b372cc2" y="742.677165"/>
    </g>
   </g>
   <g id="line2d_201">
    <g clip-path="url(#p7a6ce91a3a)">
     <use style="fill:#ff0000;stroke:#ff0000;" x="885.826772" xlink:href="#md78b372cc2" y="742.677165"/>
    </g>
   </g>
   <g id="line2d_202">
    <g clip-path="url(#p7a6ce91a3a)">
     <use style="fill:#ff0000;stroke:#ff0000;" x="128.976378" xlink:href="#md78b372cc2" y="856.062992"/>
    </g>
   </g>
   <g id="line2d_203">
    <g clip-path="url(#p7a6ce91a3a)">
     <use style="fill:#ff0000;stroke:#ff0000;" x="255.11811" xlink:href="#md78b372cc2" y="1513.700787"/>
    </g>
   </g>
   <g id="line2d_204">
    <g clip-path="url(#p7a6ce91a3a)">
     <use style="fill:#ff0000;stroke:#ff0000;" x="885.826772" xlink:href="#md78b372cc2" y="1513.700787"/>
    </g>
   </g>
   <g id="line2d_205">
    <g clip-path="url(#p7a6ce91a3a)">
     <use style="fill:#ff0000;stroke:#ff0000;" x="507.401575" xlink:href="#md78b372cc2" y="856.062992"/>
    </g>
   </g>
   <g id="line2d_206">
    <g clip-path="url(#p7a6ce91a3a)">
     <use style="fill:#ff0000;stroke:#ff0000;" x="507.401575" xlink:href="#md78b372cc2" y="198.425197"/>
    </g>
   </g>
   <g id="line2d_207">
    <g clip-path="url(#p7a6ce91a3a)">
     <use style="fill:#ff0000;stroke:#ff0000;" x="507.401575" xlink:href="#md78b372cc2" y="212.598425"/>
    </g>
   </g>
   <g id="line2d_208">
    <g clip-path="url(#p7a6ce91a3a)">
     <use style="fill:#ff0000;stroke:#ff0000;" x="507.401575" xlink:href="#md78b372cc2" y="3146.456693"/>
    </g>
   </g>
   <g id="line2d_209">
    <g clip-path="url(#p7a6ce91a3a)">
     <use style="fill:#ff0000;stroke:#ff0000;" x="507.401575" xlink:href="#md78b372cc2" y="1842.519685"/>
    </g>
   </g>
   <g id="line2d_210">
    <g clip-path="url(#p7a6ce91a3a)">
     <use style="fill:#ff0000;stroke:#ff0000;" x="677.480315" xlink:href="#md78b372cc2" y="212.598425"/>
    </g>
   </g>
   <g id="line2d_211">
    <g clip-path="url(#p7a6ce91a3a)">
     <use style="fill:#ff0000;stroke:#ff0000;" x="507.401575" xlink:href="#md78b372cc2" y="1513.700787"/>
    </g>
   </g>
   <g id="line2d_212">
    <g clip-path="url(#p7a6ce91a3a)">
     <use style="fill:#ff0000;stroke:#ff0000;" x="861.732283" xlink:href="#md78b372cc2" y="1513.700787"/>
    </g>
   </g>
   <g id="line2d_213">
    <g clip-path="url(#p7a6ce91a3a)">
     <use style="fill:#ff0000;stroke:#ff0000;" x="153.070866" xlink:href="#md78b372cc2" y="1513.700787"/>
    </g>
   </g>
   <g id="line2d_214">
    <g clip-path="url(#p7a6ce91a3a)">
     <use style="fill:#ff0000;stroke:#ff0000;" x="507.401575" xlink:href="#md78b372cc2" y="3103.937008"/>
    </g>
   </g>
   <g id="line2d_215">
    <g clip-path="url(#p7a6ce91a3a)">
     <use style="fill:#ff0000;stroke:#ff0000;" x="195.590551" xlink:href="#md78b372cc2" y="3146.456693"/>
    </g>
   </g>
   <g id="line2d_216">
    <g clip-path="url(#p7a6ce91a3a)">
     <use style="fill:#ff0000;stroke:#ff0000;" x="819.212598" xlink:href="#md78b372cc2" y="3146.456693"/>
    </g>
   </g>
   <g id="line2d_217">
    <g clip-path="url(#p7a6ce91a3a)">
     <use style="fill:#ff0000;stroke:#ff0000;" x="283.464567" xlink:href="#md78b372cc2" y="198.425197"/>
    </g>
   </g>
   <g id="line2d_218">
    <g clip-path="url(#p7a6ce91a3a)">
     <use style="fill:#ff0000;stroke:#ff0000;" x="1743.307087" xlink:href="#md78b372cc2" y="198.425197"/>
    </g>
   </g>
   <g id="line2d_219">
    <g clip-path="url(#p7a6ce91a3a)">
     <use style="fill:#ff0000;stroke:#ff0000;" x="1055.905512" xlink:href="#md78b372cc2" y="198.425197"/>
    </g>
   </g>
   <g id="line2d_220">
    <g clip-path="url(#p7a6ce91a3a)">
     <use style="fill:#ff0000;stroke:#ff0000;" x="1743.307087" xlink:href="#md78b372cc2" y="3146.456693"/>
    </g>
   </g>
   <g id="line2d_221">
    <g clip-path="url(#p7a6ce91a3a)">
     <use style="fill:#ff0000;stroke:#ff0000;" x="1055.905512" xlink:href="#md78b372cc2" y="3146.456693"/>
    </g>
   </g>
   <g id="line2d_222">
    <g clip-path="url(#p7a6ce91a3a)">
     <use style="fill:#ff0000;stroke:#ff0000;" x="1743.307087" xlink:href="#md78b372cc2" y="856.062992"/>
    </g>
   </g>
   <g id="line2d_223">
    <g clip-path="url(#p7a6ce91a3a)">
     <use style="fill:#ff0000;stroke:#ff0000;" x="1055.905512" xlink:href="#md78b372cc2" y="856.062992"/>
    </g>
   </g>
   <g id="line2d_224">
    <g clip-path="url(#p7a6ce91a3a)">
     <use style="fill:#ff0000;stroke:#ff0000;" x="1743.307087" xlink:href="#md78b372cc2" y="742.677165"/>
    </g>
   </g>
   <g id="line2d_225">
    <g clip-path="url(#p7a6ce91a3a)">
     <use style="fill:#ff0000;stroke:#ff0000;" x="1055.905512" xlink:href="#md78b372cc2" y="742.677165"/>
    </g>
   </g>
   <g id="line2d_226">
    <g clip-path="url(#p7a6ce91a3a)">
     <use style="fill:#ff0000;stroke:#ff0000;" x="2014.96063" xlink:href="#md78b372cc2" y="856.062992"/>
    </g>
   </g>
   <g id="line2d_227">
    <g clip-path="url(#p7a6ce91a3a)">
     <use style="fill:#ff0000;stroke:#ff0000;" x="2014.96063" xlink:href="#md78b372cc2" y="912.755906"/>
    </g>
   </g>
   <g id="line2d_228">
    <g clip-path="url(#p7a6ce91a3a)">
     <use style="fill:#ff0000;stroke:#ff0000;" x="1743.307087" xlink:href="#md78b372cc2" y="1513.700787"/>
    </g>
   </g>
   <g id="line2d_229">
    <g clip-path="url(#p7a6ce91a3a)">
     <use style="fill:#ff0000;stroke:#ff0000;" x="1055.905512" xlink:href="#md78b372cc2" y="1513.700787"/>
    </g>
   </g>
   <g id="line2d_230">
    <g clip-path="url(#p7a6ce91a3a)">
     <use style="fill:#ff0000;stroke:#ff0000;" x="1535.433071" xlink:href="#md78b372cc2" y="856.062992"/>
    </g>
   </g>
   <g id="line2d_231">
    <g clip-path="url(#p7a6ce91a3a)">
     <use style="fill:#ff0000;stroke:#ff0000;" x="1535.433071" xlink:href="#md78b372cc2" y="198.425197"/>
    </g>
   </g>
   <g id="line2d_232">
    <g clip-path="url(#p7a6ce91a3a)">
     <use style="fill:#ff0000;stroke:#ff0000;" x="1535.433071" xlink:href="#md78b372cc2" y="3146.456693"/>
    </g>
   </g>
   <g id="line2d_233">
    <g clip-path="url(#p7a6ce91a3a)">
     <use style="fill:#ff0000;stroke:#ff0000;" x="1535.433071" xlink:href="#md78b372cc2" y="1842.519685"/>
    </g>
   </g>
   <g id="line2d_234">
    <g clip-path="url(#p7a6ce91a3a)">
     <use style="fill:#ff0000;stroke:#ff0000;" x="1615.748031" xlink:href="#md78b372cc2" y="198.425197"/>
    </g>
   </g>
   <g id="line2d_235">
    <g clip-path="url(#p7a6ce91a3a)">
     <use style="fill:#ff0000;stroke:#ff0000;" x="1615.748031" xlink:href="#md78b372cc2" y="127.559055"/>
    </g>
   </g>
   <g id="line2d_236">
    <g clip-path="url(#p7a6ce91a3a)">
     <use style="fill:#ff0000;stroke:#ff0000;" x="1055.905512" xlink:href="#md78b372cc2" y="212.598425"/>
    </g>
   </g>
   <g id="line2d_237">
    <g clip-path="url(#p7a6ce91a3a)">
     <use style="fill:#ff0000;stroke:#ff0000;" x="936.142096" xlink:href="#md78b372cc2" y="230.790336"/>
    </g>
   </g>
   <g id="line2d_238">
    <g clip-path="url(#p7a6ce91a3a)">
     <use style="fill:#ff0000;stroke:#ff0000;" x="1162.677408" xlink:href="#md78b372cc2" y="196.379909"/>
    </g>
   </g>
   <g id="line2d_239">
    <g clip-path="url(#p7a6ce91a3a)">
     <use style="fill:#ff0000;stroke:#ff0000;" x="1932.283465" xlink:href="#md78b372cc2" y="1513.700787"/>
    </g>
   </g>
   <g id="line2d_240">
    <g clip-path="url(#p7a6ce91a3a)">
     <use style="fill:#ff0000;stroke:#ff0000;" x="1138.582677" xlink:href="#md78b372cc2" y="1513.700787"/>
    </g>
   </g>
   <g id="line2d_241">
    <g clip-path="url(#p7a6ce91a3a)">
     <use style="fill:#ff0000;stroke:#ff0000;" x="1875.590551" xlink:href="#md78b372cc2" y="3146.456693"/>
    </g>
   </g>
   <g id="line2d_242">
    <g clip-path="url(#p7a6ce91a3a)">
     <use style="fill:#ff0000;stroke:#ff0000;" x="1195.275591" xlink:href="#md78b372cc2" y="3146.456693"/>
    </g>
   </g>
   <g id="line2d_243">
    <g clip-path="url(#p7a6ce91a3a)">
     <use style="fill:#ff0000;stroke:#ff0000;" x="1535.433071" xlink:href="#md78b372cc2" y="3188.976378"/>
    </g>
   </g>
   <g id="line2d_244">
    <path clip-path="url(#p7a6ce91a3a)" d="M 28.346457 3288.188976 
L 170.07874 3288.188976 
" style="fill:none;stroke:#0000ff;stroke-width:5;"/>
   </g>
   <g id="patch_5">
    <path d="M 0 3316.535433 
L 0 -0 
" style="fill:none;stroke:#000000;stroke-linecap:square;stroke-linejoin:miter;stroke-width:0.8;"/>
   </g>
   <g id="patch_6">
    <path d="M 2154.330709 3316.535433 
L 2154.330709 -0 
" style="fill:none;stroke:#000000;stroke-linecap:square;stroke-linejoin:miter;stroke-width:0.8;"/>
   </g>
   <g id="patch_7">
    <path d="M 0 3316.535433 
L 2154.330709 3316.535433 
" style="fill:none;stroke:#000000;stroke-linecap:square;stroke-linejoin:miter;stroke-width:0.8;"/>
   </g>
   <g id="patch_8">
    <path d="M 0 0 
L 2154.330709 0 
" style="fill:none;stroke:#000000;stroke-linecap:square;stroke-linejoin:miter;stroke-width:0.8;"/>
   </g>
   <g id="text_1">
    <!-- A -->
    <g transform="translate(260.787402 198.425197)scale(0.1 -0.1)">
     <defs>
      <path d="M 34.1875 63.1875 
L 20.796875 26.90625 
L 47.609375 26.90625 
z
M 28.609375 72.90625 
L 39.796875 72.90625 
L 67.578125 0 
L 57.328125 0 
L 50.6875 18.703125 
L 17.828125 18.703125 
L 11.1875 0 
L 0.78125 0 
z
" id="DejaVuSans-65"/>
     </defs>
     <use xlink:href="#DejaVuSans-65"/>
    </g>
   </g>
   <g id="text_2">
    <!-- B -->
    <g transform="translate(891.496063 198.425197)scale(0.1 -0.1)">
     <defs>
      <path d="M 19.671875 34.8125 
L 19.671875 8.109375 
L 35.5 8.109375 
Q 43.453125 8.109375 47.28125 11.40625 
Q 51.125 14.703125 51.125 21.484375 
Q 51.125 28.328125 47.28125 31.5625 
Q 43.453125 34.8125 35.5 34.8125 
z
M 19.671875 64.796875 
L 19.671875 42.828125 
L 34.28125 42.828125 
Q 41.5 42.828125 45.03125 45.53125 
Q 48.578125 48.25 48.578125 53.8125 
Q 48.578125 59.328125 45.03125 62.0625 
Q 41.5 64.796875 34.28125 64.796875 
z
M 9.8125 72.90625 
L 35.015625 72.90625 
Q 46.296875 72.90625 52.390625 68.21875 
Q 58.5 63.53125 58.5 54.890625 
Q 58.5 48.1875 55.375 44.234375 
Q 52.25 40.28125 46.1875 39.3125 
Q 53.46875 37.75 57.5 32.78125 
Q 61.53125 27.828125 61.53125 20.40625 
Q 61.53125 10.640625 54.890625 5.3125 
Q 48.25 0 35.984375 0 
L 9.8125 0 
z
" id="DejaVuSans-66"/>
     </defs>
     <use xlink:href="#DejaVuSans-66"/>
    </g>
   </g>
   <g id="text_3">
    <!-- C -->
    <g transform="translate(260.787402 3146.456693)scale(0.1 -0.1)">
     <defs>
      <path d="M 64.40625 67.28125 
L 64.40625 56.890625 
Q 59.421875 61.53125 53.78125 63.8125 
Q 48.140625 66.109375 41.796875 66.109375 
Q 29.296875 66.109375 22.65625 58.46875 
Q 16.015625 50.828125 16.015625 36.375 
Q 16.015625 21.96875 22.65625 14.328125 
Q 29.296875 6.6875 41.796875 6.6875 
Q 48.140625 6.6875 53.78125 8.984375 
Q 59.421875 11.28125 64.40625 15.921875 
L 64.40625 5.609375 
Q 59.234375 2.09375 53.4375 0.328125 
Q 47.65625 -1.421875 41.21875 -1.421875 
Q 24.65625 -1.421875 15.125 8.703125 
Q 5.609375 18.84375 5.609375 36.375 
Q 5.609375 53.953125 15.125 64.078125 
Q 24.65625 74.21875 41.21875 74.21875 
Q 47.75 74.21875 53.53125 72.484375 
Q 59.328125 70.75 64.40625 67.28125 
z
" id="DejaVuSans-67"/>
     </defs>
     <use xlink:href="#DejaVuSans-67"/>
    </g>
   </g>
   <g id="text_4">
    <!-- D -->
    <g transform="translate(891.496063 3146.456693)scale(0.1 -0.1)">
     <defs>
      <path d="M 19.671875 64.796875 
L 19.671875 8.109375 
L 31.59375 8.109375 
Q 46.6875 8.109375 53.6875 14.9375 
Q 60.6875 21.78125 60.6875 36.53125 
Q 60.6875 51.171875 53.6875 57.984375 
Q 46.6875 64.796875 31.59375 64.796875 
z
M 9.8125 72.90625 
L 30.078125 72.90625 
Q 51.265625 72.90625 61.171875 64.09375 
Q 71.09375 55.28125 71.09375 36.53125 
Q 71.09375 17.671875 61.125 8.828125 
Q 51.171875 0 30.078125 0 
L 9.8125 0 
z
" id="DejaVuSans-68"/>
     </defs>
     <use xlink:href="#DejaVuSans-68"/>
    </g>
   </g>
   <g id="text_5">
    <!-- E -->
    <g transform="translate(260.787402 856.062992)scale(0.1 -0.1)">
     <defs>
      <path d="M 9.8125 72.90625 
L 55.90625 72.90625 
L 55.90625 64.59375 
L 19.671875 64.59375 
L 19.671875 43.015625 
L 54.390625 43.015625 
L 54.390625 34.71875 
L 19.671875 34.71875 
L 19.671875 8.296875 
L 56.78125 8.296875 
L 56.78125 0 
L 9.8125 0 
z
" id="DejaVuSans-69"/>
     </defs>
     <use xlink:href="#DejaVuSans-69"/>
    </g>
   </g>
   <g id="text_6">
    <!-- F -->
    <g transform="translate(891.496063 856.062992)scale(0.1 -0.1)">
     <defs>
      <path d="M 9.8125 72.90625 
L 51.703125 72.90625 
L 51.703125 64.59375 
L 19.671875 64.59375 
L 19.671875 43.109375 
L 48.578125 43.109375 
L 48.578125 34.8125 
L 19.671875 34.8125 
L 19.671875 0 
L 9.8125 0 
z
" id="DejaVuSans-70"/>
     </defs>
     <use xlink:href="#DejaVuSans-70"/>
    </g>
   </g>
   <g id="text_7">
    <!-- G -->
    <g transform="translate(260.787402 742.677165)scale(0.1 -0.1)">
     <defs>
      <path d="M 59.515625 10.40625 
L 59.515625 29.984375 
L 43.40625 29.984375 
L 43.40625 38.09375 
L 69.28125 38.09375 
L 69.28125 6.78125 
Q 63.578125 2.734375 56.6875 0.65625 
Q 49.8125 -1.421875 42 -1.421875 
Q 24.90625 -1.421875 15.25 8.5625 
Q 5.609375 18.5625 5.609375 36.375 
Q 5.609375 54.25 15.25 64.234375 
Q 24.90625 74.21875 42 74.21875 
Q 49.125 74.21875 55.546875 72.453125 
Q 61.96875 70.703125 67.390625 67.28125 
L 67.390625 56.78125 
Q 61.921875 61.421875 55.765625 63.765625 
Q 49.609375 66.109375 42.828125 66.109375 
Q 29.4375 66.109375 22.71875 58.640625 
Q 16.015625 51.171875 16.015625 36.375 
Q 16.015625 21.625 22.71875 14.15625 
Q 29.4375 6.6875 42.828125 6.6875 
Q 48.046875 6.6875 52.140625 7.59375 
Q 56.25 8.5 59.515625 10.40625 
z
" id="DejaVuSans-71"/>
     </defs>
     <use xlink:href="#DejaVuSans-71"/>
    </g>
   </g>
   <g id="text_8">
    <!-- H -->
    <g transform="translate(891.496063 742.677165)scale(0.1 -0.1)">
     <defs>
      <path d="M 9.8125 72.90625 
L 19.671875 72.90625 
L 19.671875 43.015625 
L 55.515625 43.015625 
L 55.515625 72.90625 
L 65.375 72.90625 
L 65.375 0 
L 55.515625 0 
L 55.515625 34.71875 
L 19.671875 34.71875 
L 19.671875 0 
L 9.8125 0 
z
" id="DejaVuSans-72"/>
     </defs>
     <use xlink:href="#DejaVuSans-72"/>
    </g>
   </g>
   <g id="text_9">
    <!-- E1 -->
    <g transform="translate(134.645669 856.062992)scale(0.1 -0.1)">
     <defs>
      <path d="M 12.40625 8.296875 
L 28.515625 8.296875 
L 28.515625 63.921875 
L 10.984375 60.40625 
L 10.984375 69.390625 
L 28.421875 72.90625 
L 38.28125 72.90625 
L 38.28125 8.296875 
L 54.390625 8.296875 
L 54.390625 0 
L 12.40625 0 
z
" id="DejaVuSans-49"/>
     </defs>
     <use xlink:href="#DejaVuSans-69"/>
     <use x="63.183594" xlink:href="#DejaVuSans-49"/>
    </g>
   </g>
   <g id="text_10">
    <!-- I -->
    <g transform="translate(260.787402 1513.700787)scale(0.1 -0.1)">
     <defs>
      <path d="M 9.8125 72.90625 
L 19.671875 72.90625 
L 19.671875 0 
L 9.8125 0 
z
" id="DejaVuSans-73"/>
     </defs>
     <use xlink:href="#DejaVuSans-73"/>
    </g>
   </g>
   <g id="text_11">
    <!-- L -->
    <g transform="translate(891.496063 1513.700787)scale(0.1 -0.1)">
     <defs>
      <path d="M 9.8125 72.90625 
L 19.671875 72.90625 
L 19.671875 8.296875 
L 55.171875 8.296875 
L 55.171875 0 
L 9.8125 0 
z
" id="DejaVuSans-76"/>
     </defs>
     <use xlink:href="#DejaVuSans-76"/>
    </g>
   </g>
   <g id="text_12">
    <!-- X -->
    <g transform="translate(513.070866 856.062992)scale(0.1 -0.1)">
     <defs>
      <path d="M 6.296875 72.90625 
L 16.890625 72.90625 
L 35.015625 45.796875 
L 53.21875 72.90625 
L 63.8125 72.90625 
L 40.375 37.890625 
L 65.375 0 
L 54.78125 0 
L 34.28125 31 
L 13.625 0 
L 2.984375 0 
L 29 38.921875 
z
" id="DejaVuSans-88"/>
     </defs>
     <use xlink:href="#DejaVuSans-88"/>
    </g>
   </g>
   <g id="text_13">
    <!-- M -->
    <g transform="translate(513.070866 198.425197)scale(0.1 -0.1)">
     <defs>
      <path d="M 9.8125 72.90625 
L 24.515625 72.90625 
L 43.109375 23.296875 
L 61.8125 72.90625 
L 76.515625 72.90625 
L 76.515625 0 
L 66.890625 0 
L 66.890625 64.015625 
L 48.09375 14.015625 
L 38.1875 14.015625 
L 19.390625 64.015625 
L 19.390625 0 
L 9.8125 0 
z
" id="DejaVuSans-77"/>
     </defs>
     <use xlink:href="#DejaVuSans-77"/>
    </g>
   </g>
   <g id="text_14">
    <!-- Mbis -->
    <g transform="translate(513.070866 212.598425)scale(0.1 -0.1)">
     <defs>
      <path d="M 48.6875 27.296875 
Q 48.6875 37.203125 44.609375 42.84375 
Q 40.53125 48.484375 33.40625 48.484375 
Q 26.265625 48.484375 22.1875 42.84375 
Q 18.109375 37.203125 18.109375 27.296875 
Q 18.109375 17.390625 22.1875 11.75 
Q 26.265625 6.109375 33.40625 6.109375 
Q 40.53125 6.109375 44.609375 11.75 
Q 48.6875 17.390625 48.6875 27.296875 
z
M 18.109375 46.390625 
Q 20.953125 51.265625 25.265625 53.625 
Q 29.59375 56 35.59375 56 
Q 45.5625 56 51.78125 48.09375 
Q 58.015625 40.1875 58.015625 27.296875 
Q 58.015625 14.40625 51.78125 6.484375 
Q 45.5625 -1.421875 35.59375 -1.421875 
Q 29.59375 -1.421875 25.265625 0.953125 
Q 20.953125 3.328125 18.109375 8.203125 
L 18.109375 0 
L 9.078125 0 
L 9.078125 75.984375 
L 18.109375 75.984375 
z
" id="DejaVuSans-98"/>
      <path d="M 9.421875 54.6875 
L 18.40625 54.6875 
L 18.40625 0 
L 9.421875 0 
z
M 9.421875 75.984375 
L 18.40625 75.984375 
L 18.40625 64.59375 
L 9.421875 64.59375 
z
" id="DejaVuSans-105"/>
      <path d="M 44.28125 53.078125 
L 44.28125 44.578125 
Q 40.484375 46.53125 36.375 47.5 
Q 32.28125 48.484375 27.875 48.484375 
Q 21.1875 48.484375 17.84375 46.4375 
Q 14.5 44.390625 14.5 40.28125 
Q 14.5 37.15625 16.890625 35.375 
Q 19.28125 33.59375 26.515625 31.984375 
L 29.59375 31.296875 
Q 39.15625 29.25 43.1875 25.515625 
Q 47.21875 21.78125 47.21875 15.09375 
Q 47.21875 7.46875 41.1875 3.015625 
Q 35.15625 -1.421875 24.609375 -1.421875 
Q 20.21875 -1.421875 15.453125 -0.5625 
Q 10.6875 0.296875 5.421875 2 
L 5.421875 11.28125 
Q 10.40625 8.6875 15.234375 7.390625 
Q 20.0625 6.109375 24.8125 6.109375 
Q 31.15625 6.109375 34.5625 8.28125 
Q 37.984375 10.453125 37.984375 14.40625 
Q 37.984375 18.0625 35.515625 20.015625 
Q 33.0625 21.96875 24.703125 23.78125 
L 21.578125 24.515625 
Q 13.234375 26.265625 9.515625 29.90625 
Q 5.8125 33.546875 5.8125 39.890625 
Q 5.8125 47.609375 11.28125 51.796875 
Q 16.75 56 26.8125 56 
Q 31.78125 56 36.171875 55.265625 
Q 40.578125 54.546875 44.28125 53.078125 
z
" id="DejaVuSans-115"/>
     </defs>
     <use xlink:href="#DejaVuSans-77"/>
     <use x="86.279297" xlink:href="#DejaVuSans-98"/>
     <use x="149.755859" xlink:href="#DejaVuSans-105"/>
     <use x="177.539062" xlink:href="#DejaVuSans-115"/>
    </g>
   </g>
   <g id="text_15">
    <!-- N -->
    <g transform="translate(513.070866 3146.456693)scale(0.1 -0.1)">
     <defs>
      <path d="M 9.8125 72.90625 
L 23.09375 72.90625 
L 55.421875 11.921875 
L 55.421875 72.90625 
L 64.984375 72.90625 
L 64.984375 0 
L 51.703125 0 
L 19.390625 60.984375 
L 19.390625 0 
L 9.8125 0 
z
" id="DejaVuSans-78"/>
     </defs>
     <use xlink:href="#DejaVuSans-78"/>
    </g>
   </g>
   <g id="text_16">
    <!-- O -->
    <g transform="translate(513.070866 1842.519685)scale(0.1 -0.1)">
     <defs>
      <path d="M 39.40625 66.21875 
Q 28.65625 66.21875 22.328125 58.203125 
Q 16.015625 50.203125 16.015625 36.375 
Q 16.015625 22.609375 22.328125 14.59375 
Q 28.65625 6.59375 39.40625 6.59375 
Q 50.140625 6.59375 56.421875 14.59375 
Q 62.703125 22.609375 62.703125 36.375 
Q 62.703125 50.203125 56.421875 58.203125 
Q 50.140625 66.21875 39.40625 66.21875 
z
M 39.40625 74.21875 
Q 54.734375 74.21875 63.90625 63.9375 
Q 73.09375 53.65625 73.09375 36.375 
Q 73.09375 19.140625 63.90625 8.859375 
Q 54.734375 -1.421875 39.40625 -1.421875 
Q 24.03125 -1.421875 14.8125 8.828125 
Q 5.609375 19.09375 5.609375 36.375 
Q 5.609375 53.65625 14.8125 63.9375 
Q 24.03125 74.21875 39.40625 74.21875 
z
" id="DejaVuSans-79"/>
     </defs>
     <use xlink:href="#DejaVuSans-79"/>
    </g>
   </g>
   <g id="text_17">
    <!-- M2 -->
    <g transform="translate(683.149606 212.598425)scale(0.1 -0.1)">
     <defs>
      <path d="M 19.1875 8.296875 
L 53.609375 8.296875 
L 53.609375 0 
L 7.328125 0 
L 7.328125 8.296875 
Q 12.9375 14.109375 22.625 23.890625 
Q 32.328125 33.6875 34.8125 36.53125 
Q 39.546875 41.84375 41.421875 45.53125 
Q 43.3125 49.21875 43.3125 52.78125 
Q 43.3125 58.59375 39.234375 62.25 
Q 35.15625 65.921875 28.609375 65.921875 
Q 23.96875 65.921875 18.8125 64.3125 
Q 13.671875 62.703125 7.8125 59.421875 
L 7.8125 69.390625 
Q 13.765625 71.78125 18.9375 73 
Q 24.125 74.21875 28.421875 74.21875 
Q 39.75 74.21875 46.484375 68.546875 
Q 53.21875 62.890625 53.21875 53.421875 
Q 53.21875 48.921875 51.53125 44.890625 
Q 49.859375 40.875 45.40625 35.40625 
Q 44.1875 33.984375 37.640625 27.21875 
Q 31.109375 20.453125 19.1875 8.296875 
z
" id="DejaVuSans-50"/>
     </defs>
     <use xlink:href="#DejaVuSans-77"/>
     <use x="86.279297" xlink:href="#DejaVuSans-50"/>
    </g>
   </g>
   <g id="text_18">
    <!-- X1 -->
    <g transform="translate(513.070866 1513.700787)scale(0.1 -0.1)">
     <use xlink:href="#DejaVuSans-88"/>
     <use x="68.505859" xlink:href="#DejaVuSans-49"/>
    </g>
   </g>
   <g id="text_19">
    <!-- L1 -->
    <g transform="translate(867.401575 1513.700787)scale(0.1 -0.1)">
     <use xlink:href="#DejaVuSans-76"/>
     <use x="55.712891" xlink:href="#DejaVuSans-49"/>
    </g>
   </g>
   <g id="text_20">
    <!-- I1 -->
    <g transform="translate(158.740157 1513.700787)scale(0.1 -0.1)">
     <use xlink:href="#DejaVuSans-73"/>
     <use x="29.492188" xlink:href="#DejaVuSans-49"/>
    </g>
   </g>
   <g id="text_21">
    <!-- N1 -->
    <g transform="translate(513.070866 3103.937008)scale(0.1 -0.1)">
     <use xlink:href="#DejaVuSans-78"/>
     <use x="74.804688" xlink:href="#DejaVuSans-49"/>
    </g>
   </g>
   <g id="text_22">
    <!-- C1 -->
    <g transform="translate(201.259843 3146.456693)scale(0.1 -0.1)">
     <use xlink:href="#DejaVuSans-67"/>
     <use x="69.824219" xlink:href="#DejaVuSans-49"/>
    </g>
   </g>
   <g id="text_23">
    <!-- D1 -->
    <g transform="translate(824.88189 3146.456693)scale(0.1 -0.1)">
     <use xlink:href="#DejaVuSans-68"/>
     <use x="77.001953" xlink:href="#DejaVuSans-49"/>
    </g>
   </g>
   <g id="text_24">
    <!-- A1 -->
    <g transform="translate(289.133858 198.425197)scale(0.1 -0.1)">
     <use xlink:href="#DejaVuSans-65"/>
     <use x="68.408203" xlink:href="#DejaVuSans-49"/>
    </g>
   </g>
   <g id="text_25">
    <!-- A -->
    <g transform="translate(1748.976378 198.425197)scale(0.1 -0.1)">
     <use xlink:href="#DejaVuSans-65"/>
    </g>
   </g>
   <g id="text_26">
    <!-- B -->
    <g transform="translate(1061.574803 198.425197)scale(0.1 -0.1)">
     <use xlink:href="#DejaVuSans-66"/>
    </g>
   </g>
   <g id="text_27">
    <!-- C -->
    <g transform="translate(1748.976378 3146.456693)scale(0.1 -0.1)">
     <use xlink:href="#DejaVuSans-67"/>
    </g>
   </g>
   <g id="text_28">
    <!-- D -->
    <g transform="translate(1061.574803 3146.456693)scale(0.1 -0.1)">
     <use xlink:href="#DejaVuSans-68"/>
    </g>
   </g>
   <g id="text_29">
    <!-- E -->
    <g transform="translate(1748.976378 856.062992)scale(0.1 -0.1)">
     <use xlink:href="#DejaVuSans-69"/>
    </g>
   </g>
   <g id="text_30">
    <!-- F -->
    <g transform="translate(1061.574803 856.062992)scale(0.1 -0.1)">
     <use xlink:href="#DejaVuSans-70"/>
    </g>
   </g>
   <g id="text_31">
    <!-- G -->
    <g transform="translate(1748.976378 742.677165)scale(0.1 -0.1)">
     <use xlink:href="#DejaVuSans-71"/>
    </g>
   </g>
   <g id="text_32">
    <!-- H -->
    <g transform="translate(1061.574803 742.677165)scale(0.1 -0.1)">
     <use xlink:href="#DejaVuSans-72"/>
    </g>
   </g>
   <g id="text_33">
    <!-- E1 -->
    <g transform="translate(2020.629921 856.062992)scale(0.1 -0.1)">
     <use xlink:href="#DejaVuSans-69"/>
     <use x="63.183594" xlink:href="#DejaVuSans-49"/>
    </g>
   </g>
   <g id="text_34">
    <!-- E2 -->
    <g transform="translate(2020.629921 912.755906)scale(0.1 -0.1)">
     <use xlink:href="#DejaVuSans-69"/>
     <use x="63.183594" xlink:href="#DejaVuSans-50"/>
    </g>
   </g>
   <g id="text_35">
    <!-- I -->
    <g transform="translate(1748.976378 1513.700787)scale(0.1 -0.1)">
     <use xlink:href="#DejaVuSans-73"/>
    </g>
   </g>
   <g id="text_36">
    <!-- L -->
    <g transform="translate(1061.574803 1513.700787)scale(0.1 -0.1)">
     <use xlink:href="#DejaVuSans-76"/>
    </g>
   </g>
   <g id="text_37">
    <!-- X -->
    <g transform="translate(1541.102362 856.062992)scale(0.1 -0.1)">
     <use xlink:href="#DejaVuSans-88"/>
    </g>
   </g>
   <g id="text_38">
    <!-- M -->
    <g transform="translate(1541.102362 198.425197)scale(0.1 -0.1)">
     <use xlink:href="#DejaVuSans-77"/>
    </g>
   </g>
   <g id="text_39">
    <!-- N -->
    <g transform="translate(1541.102362 3146.456693)scale(0.1 -0.1)">
     <use xlink:href="#DejaVuSans-78"/>
    </g>
   </g>
   <g id="text_40">
    <!-- O -->
    <g transform="translate(1541.102362 1842.519685)scale(0.1 -0.1)">
     <use xlink:href="#DejaVuSans-79"/>
    </g>
   </g>
   <g id="text_41">
    <!-- A1 -->
    <g transform="translate(1621.417323 198.425197)scale(0.1 -0.1)">
     <use xlink:href="#DejaVuSans-65"/>
     <use x="68.408203" xlink:href="#DejaVuSans-49"/>
    </g>
   </g>
   <g id="text_42">
    <!-- A2 -->
    <g transform="translate(1621.417323 127.559055)scale(0.1 -0.1)">
     <use xlink:href="#DejaVuSans-65"/>
     <use x="68.408203" xlink:href="#DejaVuSans-50"/>
    </g>
   </g>
   <g id="text_43">
    <!-- B1 -->
    <g transform="translate(1061.574803 212.598425)scale(0.1 -0.1)">
     <use xlink:href="#DejaVuSans-66"/>
     <use x="68.603516" xlink:href="#DejaVuSans-49"/>
    </g>
   </g>
   <g id="text_44">
    <!-- B3 -->
    <g transform="translate(941.811387 230.790336)scale(0.1 -0.1)">
     <defs>
      <path d="M 40.578125 39.3125 
Q 47.65625 37.796875 51.625 33 
Q 55.609375 28.21875 55.609375 21.1875 
Q 55.609375 10.40625 48.1875 4.484375 
Q 40.765625 -1.421875 27.09375 -1.421875 
Q 22.515625 -1.421875 17.65625 -0.515625 
Q 12.796875 0.390625 7.625 2.203125 
L 7.625 11.71875 
Q 11.71875 9.328125 16.59375 8.109375 
Q 21.484375 6.890625 26.8125 6.890625 
Q 36.078125 6.890625 40.9375 10.546875 
Q 45.796875 14.203125 45.796875 21.1875 
Q 45.796875 27.640625 41.28125 31.265625 
Q 36.765625 34.90625 28.71875 34.90625 
L 20.21875 34.90625 
L 20.21875 43.015625 
L 29.109375 43.015625 
Q 36.375 43.015625 40.234375 45.921875 
Q 44.09375 48.828125 44.09375 54.296875 
Q 44.09375 59.90625 40.109375 62.90625 
Q 36.140625 65.921875 28.71875 65.921875 
Q 24.65625 65.921875 20.015625 65.03125 
Q 15.375 64.15625 9.8125 62.3125 
L 9.8125 71.09375 
Q 15.4375 72.65625 20.34375 73.4375 
Q 25.25 74.21875 29.59375 74.21875 
Q 40.828125 74.21875 47.359375 69.109375 
Q 53.90625 64.015625 53.90625 55.328125 
Q 53.90625 49.265625 50.4375 45.09375 
Q 46.96875 40.921875 40.578125 39.3125 
z
" id="DejaVuSans-51"/>
     </defs>
     <use xlink:href="#DejaVuSans-66"/>
     <use x="68.603516" xlink:href="#DejaVuSans-51"/>
    </g>
   </g>
   <g id="text_45">
    <!-- B4 -->
    <g transform="translate(1168.346699 196.379909)scale(0.1 -0.1)">
     <defs>
      <path d="M 37.796875 64.3125 
L 12.890625 25.390625 
L 37.796875 25.390625 
z
M 35.203125 72.90625 
L 47.609375 72.90625 
L 47.609375 25.390625 
L 58.015625 25.390625 
L 58.015625 17.1875 
L 47.609375 17.1875 
L 47.609375 0 
L 37.796875 0 
L 37.796875 17.1875 
L 4.890625 17.1875 
L 4.890625 26.703125 
z
" id="DejaVuSans-52"/>
     </defs>
     <use xlink:href="#DejaVuSans-66"/>
     <use x="68.603516" xlink:href="#DejaVuSans-52"/>
    </g>
   </g>
   <g id="text_46">
    <!-- I1 -->
    <g transform="translate(1937.952756 1513.700787)scale(0.1 -0.1)">
     <use xlink:href="#DejaVuSans-73"/>
     <use x="29.492188" xlink:href="#DejaVuSans-49"/>
    </g>
   </g>
   <g id="text_47">
    <!-- L1 -->
    <g transform="translate(1144.251969 1513.700787)scale(0.1 -0.1)">
     <use xlink:href="#DejaVuSans-76"/>
     <use x="55.712891" xlink:href="#DejaVuSans-49"/>
    </g>
   </g>
   <g id="text_48">
    <!-- C1 -->
    <g transform="translate(1881.259843 3146.456693)scale(0.1 -0.1)">
     <use xlink:href="#DejaVuSans-67"/>
     <use x="69.824219" xlink:href="#DejaVuSans-49"/>
    </g>
   </g>
   <g id="text_49">
    <!-- D1 -->
    <g transform="translate(1200.944882 3146.456693)scale(0.1 -0.1)">
     <use xlink:href="#DejaVuSans-68"/>
     <use x="77.001953" xlink:href="#DejaVuSans-49"/>
    </g>
   </g>
   <g id="text_50">
    <!-- N1 -->
    <g transform="translate(1541.102362 3188.976378)scale(0.1 -0.1)">
     <use xlink:href="#DejaVuSans-78"/>
     <use x="74.804688" xlink:href="#DejaVuSans-49"/>
    </g>
   </g>
   <g id="text_51">
    <!-- 5 cm -->
    <g transform="translate(79.388848 3274.015748)scale(0.16 -0.16)">
     <defs>
      <path d="M 10.796875 72.90625 
L 49.515625 72.90625 
L 49.515625 64.59375 
L 19.828125 64.59375 
L 19.828125 46.734375 
Q 21.96875 47.46875 24.109375 47.828125 
Q 26.265625 48.1875 28.421875 48.1875 
Q 40.625 48.1875 47.75 41.5 
Q 54.890625 34.8125 54.890625 23.390625 
Q 54.890625 11.625 47.5625 5.09375 
Q 40.234375 -1.421875 26.90625 -1.421875 
Q 22.3125 -1.421875 17.546875 -0.640625 
Q 12.796875 0.140625 7.71875 1.703125 
L 7.71875 11.625 
Q 12.109375 9.234375 16.796875 8.0625 
Q 21.484375 6.890625 26.703125 6.890625 
Q 35.15625 6.890625 40.078125 11.328125 
Q 45.015625 15.765625 45.015625 23.390625 
Q 45.015625 31 40.078125 35.4375 
Q 35.15625 39.890625 26.703125 39.890625 
Q 22.75 39.890625 18.8125 39.015625 
Q 14.890625 38.140625 10.796875 36.28125 
z
" id="DejaVuSans-53"/>
      <path id="DejaVuSans-32"/>
      <path d="M 48.78125 52.59375 
L 48.78125 44.1875 
Q 44.96875 46.296875 41.140625 47.34375 
Q 37.3125 48.390625 33.40625 48.390625 
Q 24.65625 48.390625 19.8125 42.84375 
Q 14.984375 37.3125 14.984375 27.296875 
Q 14.984375 17.28125 19.8125 11.734375 
Q 24.65625 6.203125 33.40625 6.203125 
Q 37.3125 6.203125 41.140625 7.25 
Q 44.96875 8.296875 48.78125 10.40625 
L 48.78125 2.09375 
Q 45.015625 0.34375 40.984375 -0.53125 
Q 36.96875 -1.421875 32.421875 -1.421875 
Q 20.0625 -1.421875 12.78125 6.34375 
Q 5.515625 14.109375 5.515625 27.296875 
Q 5.515625 40.671875 12.859375 48.328125 
Q 20.21875 56 33.015625 56 
Q 37.15625 56 41.109375 55.140625 
Q 45.0625 54.296875 48.78125 52.59375 
z
" id="DejaVuSans-99"/>
      <path d="M 52 44.1875 
Q 55.375 50.25 60.0625 53.125 
Q 64.75 56 71.09375 56 
Q 79.640625 56 84.28125 50.015625 
Q 88.921875 44.046875 88.921875 33.015625 
L 88.921875 0 
L 79.890625 0 
L 79.890625 32.71875 
Q 79.890625 40.578125 77.09375 44.375 
Q 74.3125 48.1875 68.609375 48.1875 
Q 61.625 48.1875 57.5625 43.546875 
Q 53.515625 38.921875 53.515625 30.90625 
L 53.515625 0 
L 44.484375 0 
L 44.484375 32.71875 
Q 44.484375 40.625 41.703125 44.40625 
Q 38.921875 48.1875 33.109375 48.1875 
Q 26.21875 48.1875 22.15625 43.53125 
Q 18.109375 38.875 18.109375 30.90625 
L 18.109375 0 
L 9.078125 0 
L 9.078125 54.6875 
L 18.109375 54.6875 
L 18.109375 46.1875 
Q 21.1875 51.21875 25.484375 53.609375 
Q 29.78125 56 35.6875 56 
Q 41.65625 56 45.828125 52.96875 
Q 50 49.953125 52 44.1875 
z
" id="DejaVuSans-109"/>
     </defs>
     <use xlink:href="#DejaVuSans-53"/>
     <use x="63.623047" xlink:href="#DejaVuSans-32"/>
     <use x="95.410156" xlink:href="#DejaVuSans-99"/>
     <use x="150.390625" xlink:href="#DejaVuSans-109"/>
    </g>
   </g>
  </g>
 </g>
 <defs>
  <clipPath id="p7a6ce91a3a">
   <rect height="3316.535433" width="2154.330709" x="0" y="0"/>
  </clipPath>
 </defs>
</svg>
