<?xml version="1.0" encoding="utf-8" standalone="no"?>
<!DOCTYPE svg PUBLIC "-//W3C//DTD SVG 1.1//EN"
  "http://www.w3.org/Graphics/SVG/1.1/DTD/svg11.dtd">
<!-- Created with matplotlib (https://matplotlib.org/) -->
<svg height="1190.551181pt" version="1.1" viewBox="0 0 1303.937008 1190.551181" width="1303.937008pt" xmlns="http://www.w3.org/2000/svg" xmlns:xlink="http://www.w3.org/1999/xlink">
 <metadata>
  <rdf:RDF xmlns:cc="http://creativecommons.org/ns#" xmlns:dc="http://purl.org/dc/elements/1.1/" xmlns:rdf="http://www.w3.org/1999/02/22-rdf-syntax-ns#">
   <cc:Work>
    <dc:type rdf:resource="http://purl.org/dc/dcmitype/StillImage"/>
    <dc:date>2022-07-24T21:46:06.522780</dc:date>
    <dc:format>image/svg+xml</dc:format>
    <dc:creator>
     <cc:Agent>
      <dc:title>Matplotlib v3.3.4, https://matplotlib.org/</dc:title>
     </cc:Agent>
    </dc:creator>
   </cc:Work>
  </rdf:RDF>
 </metadata>
 <defs>
  <style type="text/css">*{stroke-linecap:butt;stroke-linejoin:round;}</style>
 </defs>
 <g id="figure_1">
  <g id="patch_1">
   <path d="M 0 1190.551181 
L 1303.937008 1190.551181 
L 1303.937008 0 
L 0 0 
z
" style="fill:#ffffff;"/>
  </g>
  <g id="axes_1">
   <g id="patch_2">
    <path d="M 0 1190.551181 
L 1303.937008 1190.551181 
L 1303.937008 0 
L 0 0 
z
" style="fill:#ffffff;"/>
   </g>
   <g id="patch_3">
    <path clip-path="url(#p31840ed752)" d="M 1162.204724 155.905512 
L 1162.204724 155.905512 
L 1158.323453 156.414314 
L 1154.441155 156.897949 
L 1150.557945 157.356417 
L 1146.673942 157.789716 
L 1142.789262 158.197846 
L 1138.904021 158.580806 
L 1135.018336 158.938598 
L 1131.132325 159.271223 
L 1127.246103 159.57868 
L 1123.359788 159.860974 
L 1119.473495 160.118105 
L 1115.587342 160.350077 
L 1111.701446 160.556894 
L 1107.815922 160.738558 
L 1103.930889 160.895074 
L 1100.046461 161.026447 
L 1096.162756 161.132682 
L 1092.27989 161.213785 
L 1088.39798 161.269763 
L 1084.517142 161.30062 
L 1080.637493 161.306366 
L 1076.759149 161.287007 
L 1072.882226 161.242551 
L 1069.006841 161.173007 
L 1065.13311 161.078384 
L 1061.26115 160.958692 
L 1057.391076 160.81394 
L 1053.523004 160.644139 
L 1049.657052 160.4493 
L 1045.793334 160.229434 
L 1041.931967 159.984553 
L 1038.073067 159.71467 
L 1034.21675 159.419796 
L 1030.363131 159.099946 
L 1026.512327 158.755134 
L 1022.664453 158.385372 
L 1018.819625 157.990677 
L 1014.977959 157.571064 
L 1011.139569 157.126547 
L 1007.304572 156.657143 
L 1003.473083 156.162869 
L 999.645217 155.643741 
L 995.82109 155.099778 
L 992.000817 154.530997 
L 988.184513 153.937416 
L 984.372292 153.319055 
L 980.564271 152.675933 
L 976.760563 152.00807 
L 942.519685 340.15748 
L 916.467502 150.660057 
L 912.628757 151.082607 
L 908.787258 151.480194 
L 904.943119 151.852806 
L 901.096459 152.200429 
L 897.247392 152.523053 
L 893.396034 152.820666 
L 889.542502 153.093258 
L 885.686911 153.340817 
L 881.829379 153.563335 
L 877.970021 153.760801 
L 874.108953 153.933208 
L 870.246292 154.080546 
L 866.382154 154.202807 
L 862.516656 154.299985 
L 858.649913 154.372072 
L 854.782043 154.419061 
L 850.913162 154.440947 
L 847.043385 154.437724 
L 843.172831 154.409387 
L 839.301615 154.355932 
L 835.429854 154.277353 
L 831.557664 154.173648 
L 827.685163 154.044814 
L 823.812466 153.890847 
L 819.93969 153.711745 
L 816.066952 153.507507 
L 812.194369 153.278131 
L 808.322057 153.023617 
L 804.450133 152.743964 
L 800.578714 152.439172 
L 796.707915 152.109243 
L 792.837855 151.754176 
L 788.968649 151.373974 
L 785.100414 150.968638 
L 781.233267 150.538172 
L 777.367324 150.082578 
L 773.502703 149.601859 
L 769.639519 149.09602 
L 765.77789 148.565065 
L 761.917931 148.008999 
L 758.05976 147.427827 
L 754.203493 146.821555 
L 750.349247 146.19019 
L 746.497138 145.533738 
L 742.647283 144.852206 
L 738.799798 144.145603 
L 734.954799 143.413936 
L 731.112403 142.657215 
L 727.272727 141.875447 
L 723.435887 141.068644 
L 722.834646 141.732283 
L 722.834646 141.732283 
L 721.347422 145.081662 
L 719.875941 148.432806 
L 718.420202 151.785717 
L 716.980207 155.140395 
L 715.555955 158.496839 
L 714.147446 161.855049 
L 712.754679 165.215026 
L 711.377656 168.57677 
L 710.016375 171.940279 
L 708.670838 175.305556 
L 707.341043 178.672598 
L 706.026992 182.041407 
L 704.728683 185.411983 
L 703.446117 188.784325 
L 702.179294 192.158433 
L 700.928215 195.534308 
L 699.692878 198.91195 
L 698.473284 202.291357 
L 697.269433 205.672532 
L 696.081325 209.055472 
L 694.90896 212.44018 
L 693.752338 215.826653 
L 692.611458 219.214893 
L 691.486322 222.6049 
L 690.376929 225.996673 
L 689.283278 229.390212 
L 688.205371 232.785518 
L 687.143207 236.18259 
L 686.096785 239.581429 
L 685.066106 242.982034 
L 684.051171 246.384406 
L 683.051978 249.788544 
L 682.068528 253.194448 
L 681.100822 256.602119 
L 680.148858 260.011557 
L 679.212637 263.422761 
L 678.292159 266.835731 
L 677.387424 270.250468 
L 676.498432 273.666971 
L 675.625183 277.085241 
L 674.767677 280.505277 
L 673.925914 283.927079 
L 673.099893 287.350648 
L 672.289616 290.775984 
L 671.495082 294.203086 
L 670.71629 297.631954 
L 669.953242 301.062589 
L 669.205936 304.49499 
L 668.474374 307.929158 
L 667.758554 311.365092 
L 667.058478 314.802793 
L 666.374144 318.24226 
L 665.705553 321.683493 
L 665.052705 325.126493 
L 664.4156 328.571259 
L 663.794238 332.017792 
L 663.188619 335.466091 
L 662.598743 338.916157 
L 662.02461 342.367989 
L 661.46622 345.821588 
L 660.923573 349.276953 
L 660.396669 352.734085 
L 659.885507 356.192983 
L 659.390089 359.653647 
L 658.910414 363.116078 
L 658.446481 366.580275 
L 657.998292 370.046239 
L 657.565845 373.513969 
L 657.149142 376.983466 
L 656.748181 380.454729 
L 656.362963 383.927758 
L 655.993488 387.402554 
L 655.639757 390.879117 
L 655.301768 394.357446 
L 654.979522 397.837541 
L 654.673019 401.319403 
L 654.382259 404.803031 
L 654.107242 408.288426 
L 653.847968 411.775587 
L 653.604436 415.264515 
L 653.376648 418.755209 
L 653.164603 422.247669 
L 652.968301 425.741896 
L 652.787741 429.237889 
L 652.622925 432.735649 
L 652.473851 436.235175 
L 652.340521 439.736468 
L 652.222933 443.239527 
L 652.121088 446.744353 
L 652.034987 450.250945 
L 651.964628 453.759304 
L 651.910012 457.269429 
L 651.871139 460.78132 
L 651.848009 464.294978 
L 651.840622 467.810402 
L 651.848978 471.327593 
L 651.873077 474.84655 
L 651.912919 478.367274 
L 651.968504 481.889764 
L 651.968504 1048.818898 
L 1162.204724 1048.818898 
z
" style="fill:#e6e6e6;stroke:#808080;stroke-linejoin:miter;"/>
   </g>
   <g id="patch_4">
    <path clip-path="url(#p31840ed752)" d="M 141.732283 170.07874 
L 141.732283 170.07874 
L 145.624299 170.484618 
L 149.51661 170.863744 
L 153.409084 171.216121 
L 157.301591 171.541751 
L 161.193997 171.840638 
L 165.086172 172.112786 
L 168.977985 172.3582 
L 172.869302 172.576885 
L 176.759994 172.768847 
L 180.649928 172.934093 
L 184.538973 173.072629 
L 188.426997 173.184463 
L 192.31387 173.269603 
L 196.199459 173.328058 
L 200.083634 173.359837 
L 203.966263 173.36495 
L 207.847215 173.343407 
L 211.726359 173.29522 
L 215.603564 173.2204 
L 219.478698 173.118958 
L 223.351632 172.990908 
L 227.222233 172.836263 
L 231.09037 172.655037 
L 234.955915 172.447243 
L 238.818734 172.212898 
L 242.678698 171.952016 
L 246.535677 171.664614 
L 250.389539 171.350708 
L 254.240154 171.010315 
L 258.087392 170.643453 
L 261.931122 170.250141 
L 265.771215 169.830397 
L 269.607541 169.384242 
L 273.439968 168.911693 
L 277.268368 168.412774 
L 281.09261 167.887504 
L 284.912565 167.335905 
L 288.728103 166.758 
L 292.539094 166.153811 
L 296.34541 165.523362 
L 300.14692 164.866676 
L 303.943496 164.183779 
L 307.735008 163.474695 
L 311.521327 162.73945 
L 315.302325 161.97807 
L 319.077873 161.190582 
L 322.847841 160.377013 
L 361.417323 340.15748 
L 383.066207 157.492908 
L 386.955136 157.814956 
L 390.846127 158.112336 
L 394.739066 158.385039 
L 398.633842 158.633055 
L 402.530343 158.856377 
L 406.428456 159.054996 
L 410.328068 159.228905 
L 414.229069 159.378097 
L 418.131345 159.502566 
L 422.034785 159.602304 
L 425.939275 159.677308 
L 429.844704 159.72757 
L 433.750959 159.753087 
L 437.657928 159.753854 
L 441.565498 159.729867 
L 445.473557 159.681123 
L 449.381992 159.607619 
L 453.290691 159.509352 
L 457.199542 159.38632 
L 461.108431 159.238522 
L 465.017247 159.065956 
L 468.925877 158.868621 
L 472.834208 158.646518 
L 476.742129 158.399647 
L 480.649525 158.128007 
L 484.556286 157.831601 
L 488.462298 157.510429 
L 492.367449 157.164493 
L 496.271626 156.793797 
L 500.174717 156.398342 
L 504.07661 155.978132 
L 507.977191 155.533172 
L 511.876349 155.063464 
L 515.773971 154.569014 
L 519.669945 154.049826 
L 523.564157 153.505907 
L 527.456497 152.937262 
L 531.346851 152.343898 
L 535.235106 151.725822 
L 539.121152 151.083041 
L 543.004875 150.415562 
L 546.886163 149.723394 
L 550.764904 149.006546 
L 554.640985 148.265027 
L 558.514295 147.498846 
L 562.384721 146.708014 
L 566.252151 145.892541 
L 570.116474 145.052437 
L 573.977576 144.187715 
L 577.835347 143.298386 
L 581.689673 142.384462 
L 581.102362 141.732283 
L 581.102362 141.732283 
L 582.589586 145.081662 
L 584.061067 148.432806 
L 585.516806 151.785717 
L 586.956801 155.140395 
L 588.381053 158.496839 
L 589.789562 161.855049 
L 591.182329 165.215026 
L 592.559352 168.57677 
L 593.920633 171.940279 
L 595.26617 175.305556 
L 596.595965 178.672598 
L 597.910016 182.041407 
L 599.208325 185.411983 
L 600.490891 188.784325 
L 601.757713 192.158433 
L 603.008793 195.534308 
L 604.24413 198.91195 
L 605.463724 202.291357 
L 606.667575 205.672532 
L 607.855683 209.055472 
L 609.028048 212.44018 
L 610.18467 215.826653 
L 611.32555 219.214893 
L 612.450686 222.6049 
L 613.560079 225.996673 
L 614.653729 229.390212 
L 615.731637 232.785518 
L 616.793801 236.18259 
L 617.840223 239.581429 
L 618.870901 242.982034 
L 619.885837 246.384406 
L 620.88503 249.788544 
L 621.868479 253.194448 
L 622.836186 256.602119 
L 623.78815 260.011557 
L 624.724371 263.422761 
L 625.644849 266.835731 
L 626.549584 270.250468 
L 627.438576 273.666971 
L 628.311825 277.085241 
L 629.169331 280.505277 
L 630.011094 283.927079 
L 630.837115 287.350648 
L 631.647392 290.775984 
L 632.441926 294.203086 
L 633.220718 297.631954 
L 633.983766 301.062589 
L 634.731072 304.49499 
L 635.462634 307.929158 
L 636.178454 311.365092 
L 636.87853 314.802793 
L 637.562864 318.24226 
L 638.231455 321.683493 
L 638.884303 325.126493 
L 639.521408 328.571259 
L 640.142769 332.017792 
L 640.748388 335.466091 
L 641.338264 338.916157 
L 641.912398 342.367989 
L 642.470788 345.821588 
L 643.013435 349.276953 
L 643.540339 352.734085 
L 644.0515 356.192983 
L 644.546919 359.653647 
L 645.026594 363.116078 
L 645.490527 366.580275 
L 645.938716 370.046239 
L 646.371163 373.513969 
L 646.787866 376.983466 
L 647.188827 380.454729 
L 647.574045 383.927758 
L 647.943519 387.402554 
L 648.297251 390.879117 
L 648.63524 394.357446 
L 648.957486 397.837541 
L 649.263989 401.319403 
L 649.554749 404.803031 
L 649.829766 408.288426 
L 650.08904 411.775587 
L 650.332571 415.264515 
L 650.56036 418.755209 
L 650.772405 422.247669 
L 650.968707 425.741896 
L 651.149267 429.237889 
L 651.314083 432.735649 
L 651.463157 436.235175 
L 651.596487 439.736468 
L 651.714075 443.239527 
L 651.815919 446.744353 
L 651.902021 450.250945 
L 651.97238 453.759304 
L 652.026996 457.269429 
L 652.065869 460.78132 
L 652.088999 464.294978 
L 652.096386 467.810402 
L 652.08803 471.327593 
L 652.063931 474.84655 
L 652.024089 478.367274 
L 651.968504 481.889764 
L 651.968504 1048.818898 
L 141.732283 1048.818898 
z
" style="fill:#e6e6e6;stroke:#808080;stroke-linejoin:miter;"/>
   </g>
   <g id="patch_5">
    <path clip-path="url(#p31840ed752)" d="M 141.732283 510.23622 
L 148.110236 508.110236 
L 148.110236 509.527559 
L 155.905512 509.527559 
L 155.905512 510.944882 
L 148.110236 510.944882 
L 148.110236 512.362205 
z
" style="fill:#0000ff;stroke:#0000ff;stroke-linejoin:miter;"/>
   </g>
   <g id="patch_6">
    <path clip-path="url(#p31840ed752)" d="M 141.732283 992.125984 
L 148.110236 990 
L 148.110236 991.417323 
L 155.905512 991.417323 
L 155.905512 992.834646 
L 148.110236 992.834646 
L 148.110236 994.251969 
z
" style="fill:#0000ff;stroke:#0000ff;stroke-linejoin:miter;"/>
   </g>
   <g id="patch_7">
    <path clip-path="url(#p31840ed752)" d="M 1162.204724 510.23622 
L 1155.826772 512.362205 
L 1155.826772 510.944882 
L 1148.031496 510.944882 
L 1148.031496 509.527559 
L 1155.826772 509.527559 
L 1155.826772 508.110236 
z
" style="fill:#0000ff;stroke:#0000ff;stroke-linejoin:miter;"/>
   </g>
   <g id="patch_8">
    <path clip-path="url(#p31840ed752)" d="M 1162.204724 992.125984 
L 1155.826772 994.251969 
L 1155.826772 992.834646 
L 1148.031496 992.834646 
L 1148.031496 991.417323 
L 1155.826772 991.417323 
L 1155.826772 990 
z
" style="fill:#0000ff;stroke:#0000ff;stroke-linejoin:miter;"/>
   </g>
   <g id="matplotlib.axis_1">
    <g id="xtick_1">
     <g id="line2d_1">
      <path clip-path="url(#p31840ed752)" d="M 0 1190.551181 
L 0 0 
" style="fill:none;stroke:#b0b0b0;stroke-linecap:square;stroke-width:0.8;"/>
     </g>
    </g>
    <g id="xtick_2">
     <g id="line2d_2">
      <path clip-path="url(#p31840ed752)" d="M 28.346457 1190.551181 
L 28.346457 0 
" style="fill:none;stroke:#b0b0b0;stroke-linecap:square;stroke-width:0.8;"/>
     </g>
    </g>
    <g id="xtick_3">
     <g id="line2d_3">
      <path clip-path="url(#p31840ed752)" d="M 56.692913 1190.551181 
L 56.692913 0 
" style="fill:none;stroke:#b0b0b0;stroke-linecap:square;stroke-width:0.8;"/>
     </g>
    </g>
    <g id="xtick_4">
     <g id="line2d_4">
      <path clip-path="url(#p31840ed752)" d="M 85.03937 1190.551181 
L 85.03937 0 
" style="fill:none;stroke:#b0b0b0;stroke-linecap:square;stroke-width:0.8;"/>
     </g>
    </g>
    <g id="xtick_5">
     <g id="line2d_5">
      <path clip-path="url(#p31840ed752)" d="M 113.385827 1190.551181 
L 113.385827 0 
" style="fill:none;stroke:#b0b0b0;stroke-linecap:square;stroke-width:0.8;"/>
     </g>
    </g>
    <g id="xtick_6">
     <g id="line2d_6">
      <path clip-path="url(#p31840ed752)" d="M 141.732283 1190.551181 
L 141.732283 0 
" style="fill:none;stroke:#b0b0b0;stroke-linecap:square;stroke-width:0.8;"/>
     </g>
    </g>
    <g id="xtick_7">
     <g id="line2d_7">
      <path clip-path="url(#p31840ed752)" d="M 170.07874 1190.551181 
L 170.07874 0 
" style="fill:none;stroke:#b0b0b0;stroke-linecap:square;stroke-width:0.8;"/>
     </g>
    </g>
    <g id="xtick_8">
     <g id="line2d_8">
      <path clip-path="url(#p31840ed752)" d="M 198.425197 1190.551181 
L 198.425197 0 
" style="fill:none;stroke:#b0b0b0;stroke-linecap:square;stroke-width:0.8;"/>
     </g>
    </g>
    <g id="xtick_9">
     <g id="line2d_9">
      <path clip-path="url(#p31840ed752)" d="M 226.771654 1190.551181 
L 226.771654 0 
" style="fill:none;stroke:#b0b0b0;stroke-linecap:square;stroke-width:0.8;"/>
     </g>
    </g>
    <g id="xtick_10">
     <g id="line2d_10">
      <path clip-path="url(#p31840ed752)" d="M 255.11811 1190.551181 
L 255.11811 0 
" style="fill:none;stroke:#b0b0b0;stroke-linecap:square;stroke-width:0.8;"/>
     </g>
    </g>
    <g id="xtick_11">
     <g id="line2d_11">
      <path clip-path="url(#p31840ed752)" d="M 283.464567 1190.551181 
L 283.464567 0 
" style="fill:none;stroke:#b0b0b0;stroke-linecap:square;stroke-width:0.8;"/>
     </g>
    </g>
    <g id="xtick_12">
     <g id="line2d_12">
      <path clip-path="url(#p31840ed752)" d="M 311.811024 1190.551181 
L 311.811024 0 
" style="fill:none;stroke:#b0b0b0;stroke-linecap:square;stroke-width:0.8;"/>
     </g>
    </g>
    <g id="xtick_13">
     <g id="line2d_13">
      <path clip-path="url(#p31840ed752)" d="M 340.15748 1190.551181 
L 340.15748 0 
" style="fill:none;stroke:#b0b0b0;stroke-linecap:square;stroke-width:0.8;"/>
     </g>
    </g>
    <g id="xtick_14">
     <g id="line2d_14">
      <path clip-path="url(#p31840ed752)" d="M 368.503937 1190.551181 
L 368.503937 0 
" style="fill:none;stroke:#b0b0b0;stroke-linecap:square;stroke-width:0.8;"/>
     </g>
    </g>
    <g id="xtick_15">
     <g id="line2d_15">
      <path clip-path="url(#p31840ed752)" d="M 396.850394 1190.551181 
L 396.850394 0 
" style="fill:none;stroke:#b0b0b0;stroke-linecap:square;stroke-width:0.8;"/>
     </g>
    </g>
    <g id="xtick_16">
     <g id="line2d_16">
      <path clip-path="url(#p31840ed752)" d="M 425.19685 1190.551181 
L 425.19685 0 
" style="fill:none;stroke:#b0b0b0;stroke-linecap:square;stroke-width:0.8;"/>
     </g>
    </g>
    <g id="xtick_17">
     <g id="line2d_17">
      <path clip-path="url(#p31840ed752)" d="M 453.543307 1190.551181 
L 453.543307 0 
" style="fill:none;stroke:#b0b0b0;stroke-linecap:square;stroke-width:0.8;"/>
     </g>
    </g>
    <g id="xtick_18">
     <g id="line2d_18">
      <path clip-path="url(#p31840ed752)" d="M 481.889764 1190.551181 
L 481.889764 0 
" style="fill:none;stroke:#b0b0b0;stroke-linecap:square;stroke-width:0.8;"/>
     </g>
    </g>
    <g id="xtick_19">
     <g id="line2d_19">
      <path clip-path="url(#p31840ed752)" d="M 510.23622 1190.551181 
L 510.23622 0 
" style="fill:none;stroke:#b0b0b0;stroke-linecap:square;stroke-width:0.8;"/>
     </g>
    </g>
    <g id="xtick_20">
     <g id="line2d_20">
      <path clip-path="url(#p31840ed752)" d="M 538.582677 1190.551181 
L 538.582677 0 
" style="fill:none;stroke:#b0b0b0;stroke-linecap:square;stroke-width:0.8;"/>
     </g>
    </g>
    <g id="xtick_21">
     <g id="line2d_21">
      <path clip-path="url(#p31840ed752)" d="M 566.929134 1190.551181 
L 566.929134 0 
" style="fill:none;stroke:#b0b0b0;stroke-linecap:square;stroke-width:0.8;"/>
     </g>
    </g>
    <g id="xtick_22">
     <g id="line2d_22">
      <path clip-path="url(#p31840ed752)" d="M 595.275591 1190.551181 
L 595.275591 0 
" style="fill:none;stroke:#b0b0b0;stroke-linecap:square;stroke-width:0.8;"/>
     </g>
    </g>
    <g id="xtick_23">
     <g id="line2d_23">
      <path clip-path="url(#p31840ed752)" d="M 623.622047 1190.551181 
L 623.622047 0 
" style="fill:none;stroke:#b0b0b0;stroke-linecap:square;stroke-width:0.8;"/>
     </g>
    </g>
    <g id="xtick_24">
     <g id="line2d_24">
      <path clip-path="url(#p31840ed752)" d="M 651.968504 1190.551181 
L 651.968504 0 
" style="fill:none;stroke:#b0b0b0;stroke-linecap:square;stroke-width:0.8;"/>
     </g>
    </g>
    <g id="xtick_25">
     <g id="line2d_25">
      <path clip-path="url(#p31840ed752)" d="M 680.314961 1190.551181 
L 680.314961 0 
" style="fill:none;stroke:#b0b0b0;stroke-linecap:square;stroke-width:0.8;"/>
     </g>
    </g>
    <g id="xtick_26">
     <g id="line2d_26">
      <path clip-path="url(#p31840ed752)" d="M 708.661417 1190.551181 
L 708.661417 0 
" style="fill:none;stroke:#b0b0b0;stroke-linecap:square;stroke-width:0.8;"/>
     </g>
    </g>
    <g id="xtick_27">
     <g id="line2d_27">
      <path clip-path="url(#p31840ed752)" d="M 737.007874 1190.551181 
L 737.007874 0 
" style="fill:none;stroke:#b0b0b0;stroke-linecap:square;stroke-width:0.8;"/>
     </g>
    </g>
    <g id="xtick_28">
     <g id="line2d_28">
      <path clip-path="url(#p31840ed752)" d="M 765.354331 1190.551181 
L 765.354331 0 
" style="fill:none;stroke:#b0b0b0;stroke-linecap:square;stroke-width:0.8;"/>
     </g>
    </g>
    <g id="xtick_29">
     <g id="line2d_29">
      <path clip-path="url(#p31840ed752)" d="M 793.700787 1190.551181 
L 793.700787 0 
" style="fill:none;stroke:#b0b0b0;stroke-linecap:square;stroke-width:0.8;"/>
     </g>
    </g>
    <g id="xtick_30">
     <g id="line2d_30">
      <path clip-path="url(#p31840ed752)" d="M 822.047244 1190.551181 
L 822.047244 0 
" style="fill:none;stroke:#b0b0b0;stroke-linecap:square;stroke-width:0.8;"/>
     </g>
    </g>
    <g id="xtick_31">
     <g id="line2d_31">
      <path clip-path="url(#p31840ed752)" d="M 850.393701 1190.551181 
L 850.393701 0 
" style="fill:none;stroke:#b0b0b0;stroke-linecap:square;stroke-width:0.8;"/>
     </g>
    </g>
    <g id="xtick_32">
     <g id="line2d_32">
      <path clip-path="url(#p31840ed752)" d="M 878.740157 1190.551181 
L 878.740157 0 
" style="fill:none;stroke:#b0b0b0;stroke-linecap:square;stroke-width:0.8;"/>
     </g>
    </g>
    <g id="xtick_33">
     <g id="line2d_33">
      <path clip-path="url(#p31840ed752)" d="M 907.086614 1190.551181 
L 907.086614 0 
" style="fill:none;stroke:#b0b0b0;stroke-linecap:square;stroke-width:0.8;"/>
     </g>
    </g>
    <g id="xtick_34">
     <g id="line2d_34">
      <path clip-path="url(#p31840ed752)" d="M 935.433071 1190.551181 
L 935.433071 0 
" style="fill:none;stroke:#b0b0b0;stroke-linecap:square;stroke-width:0.8;"/>
     </g>
    </g>
    <g id="xtick_35">
     <g id="line2d_35">
      <path clip-path="url(#p31840ed752)" d="M 963.779528 1190.551181 
L 963.779528 0 
" style="fill:none;stroke:#b0b0b0;stroke-linecap:square;stroke-width:0.8;"/>
     </g>
    </g>
    <g id="xtick_36">
     <g id="line2d_36">
      <path clip-path="url(#p31840ed752)" d="M 992.125984 1190.551181 
L 992.125984 0 
" style="fill:none;stroke:#b0b0b0;stroke-linecap:square;stroke-width:0.8;"/>
     </g>
    </g>
    <g id="xtick_37">
     <g id="line2d_37">
      <path clip-path="url(#p31840ed752)" d="M 1020.472441 1190.551181 
L 1020.472441 0 
" style="fill:none;stroke:#b0b0b0;stroke-linecap:square;stroke-width:0.8;"/>
     </g>
    </g>
    <g id="xtick_38">
     <g id="line2d_38">
      <path clip-path="url(#p31840ed752)" d="M 1048.818898 1190.551181 
L 1048.818898 0 
" style="fill:none;stroke:#b0b0b0;stroke-linecap:square;stroke-width:0.8;"/>
     </g>
    </g>
    <g id="xtick_39">
     <g id="line2d_39">
      <path clip-path="url(#p31840ed752)" d="M 1077.165354 1190.551181 
L 1077.165354 0 
" style="fill:none;stroke:#b0b0b0;stroke-linecap:square;stroke-width:0.8;"/>
     </g>
    </g>
    <g id="xtick_40">
     <g id="line2d_40">
      <path clip-path="url(#p31840ed752)" d="M 1105.511811 1190.551181 
L 1105.511811 0 
" style="fill:none;stroke:#b0b0b0;stroke-linecap:square;stroke-width:0.8;"/>
     </g>
    </g>
    <g id="xtick_41">
     <g id="line2d_41">
      <path clip-path="url(#p31840ed752)" d="M 1133.858268 1190.551181 
L 1133.858268 0 
" style="fill:none;stroke:#b0b0b0;stroke-linecap:square;stroke-width:0.8;"/>
     </g>
    </g>
    <g id="xtick_42">
     <g id="line2d_42">
      <path clip-path="url(#p31840ed752)" d="M 1162.204724 1190.551181 
L 1162.204724 0 
" style="fill:none;stroke:#b0b0b0;stroke-linecap:square;stroke-width:0.8;"/>
     </g>
    </g>
    <g id="xtick_43">
     <g id="line2d_43">
      <path clip-path="url(#p31840ed752)" d="M 1190.551181 1190.551181 
L 1190.551181 0 
" style="fill:none;stroke:#b0b0b0;stroke-linecap:square;stroke-width:0.8;"/>
     </g>
    </g>
    <g id="xtick_44">
     <g id="line2d_44">
      <path clip-path="url(#p31840ed752)" d="M 1218.897638 1190.551181 
L 1218.897638 0 
" style="fill:none;stroke:#b0b0b0;stroke-linecap:square;stroke-width:0.8;"/>
     </g>
    </g>
    <g id="xtick_45">
     <g id="line2d_45">
      <path clip-path="url(#p31840ed752)" d="M 1247.244094 1190.551181 
L 1247.244094 0 
" style="fill:none;stroke:#b0b0b0;stroke-linecap:square;stroke-width:0.8;"/>
     </g>
    </g>
    <g id="xtick_46">
     <g id="line2d_46">
      <path clip-path="url(#p31840ed752)" d="M 1275.590551 1190.551181 
L 1275.590551 0 
" style="fill:none;stroke:#b0b0b0;stroke-linecap:square;stroke-width:0.8;"/>
     </g>
    </g>
   </g>
   <g id="matplotlib.axis_2">
    <g id="ytick_1">
     <g id="line2d_47">
      <path clip-path="url(#p31840ed752)" d="M 0 1190.551181 
L 1303.937008 1190.551181 
" style="fill:none;stroke:#b0b0b0;stroke-linecap:square;stroke-width:0.8;"/>
     </g>
    </g>
    <g id="ytick_2">
     <g id="line2d_48">
      <path clip-path="url(#p31840ed752)" d="M 0 1162.204724 
L 1303.937008 1162.204724 
" style="fill:none;stroke:#b0b0b0;stroke-linecap:square;stroke-width:0.8;"/>
     </g>
    </g>
    <g id="ytick_3">
     <g id="line2d_49">
      <path clip-path="url(#p31840ed752)" d="M 0 1133.858268 
L 1303.937008 1133.858268 
" style="fill:none;stroke:#b0b0b0;stroke-linecap:square;stroke-width:0.8;"/>
     </g>
    </g>
    <g id="ytick_4">
     <g id="line2d_50">
      <path clip-path="url(#p31840ed752)" d="M 0 1105.511811 
L 1303.937008 1105.511811 
" style="fill:none;stroke:#b0b0b0;stroke-linecap:square;stroke-width:0.8;"/>
     </g>
    </g>
    <g id="ytick_5">
     <g id="line2d_51">
      <path clip-path="url(#p31840ed752)" d="M 0 1077.165354 
L 1303.937008 1077.165354 
" style="fill:none;stroke:#b0b0b0;stroke-linecap:square;stroke-width:0.8;"/>
     </g>
    </g>
    <g id="ytick_6">
     <g id="line2d_52">
      <path clip-path="url(#p31840ed752)" d="M 0 1048.818898 
L 1303.937008 1048.818898 
" style="fill:none;stroke:#b0b0b0;stroke-linecap:square;stroke-width:0.8;"/>
     </g>
    </g>
    <g id="ytick_7">
     <g id="line2d_53">
      <path clip-path="url(#p31840ed752)" d="M 0 1020.472441 
L 1303.937008 1020.472441 
" style="fill:none;stroke:#b0b0b0;stroke-linecap:square;stroke-width:0.8;"/>
     </g>
    </g>
    <g id="ytick_8">
     <g id="line2d_54">
      <path clip-path="url(#p31840ed752)" d="M 0 992.125984 
L 1303.937008 992.125984 
" style="fill:none;stroke:#b0b0b0;stroke-linecap:square;stroke-width:0.8;"/>
     </g>
    </g>
    <g id="ytick_9">
     <g id="line2d_55">
      <path clip-path="url(#p31840ed752)" d="M 0 963.779528 
L 1303.937008 963.779528 
" style="fill:none;stroke:#b0b0b0;stroke-linecap:square;stroke-width:0.8;"/>
     </g>
    </g>
    <g id="ytick_10">
     <g id="line2d_56">
      <path clip-path="url(#p31840ed752)" d="M 0 935.433071 
L 1303.937008 935.433071 
" style="fill:none;stroke:#b0b0b0;stroke-linecap:square;stroke-width:0.8;"/>
     </g>
    </g>
    <g id="ytick_11">
     <g id="line2d_57">
      <path clip-path="url(#p31840ed752)" d="M 0 907.086614 
L 1303.937008 907.086614 
" style="fill:none;stroke:#b0b0b0;stroke-linecap:square;stroke-width:0.8;"/>
     </g>
    </g>
    <g id="ytick_12">
     <g id="line2d_58">
      <path clip-path="url(#p31840ed752)" d="M 0 878.740157 
L 1303.937008 878.740157 
" style="fill:none;stroke:#b0b0b0;stroke-linecap:square;stroke-width:0.8;"/>
     </g>
    </g>
    <g id="ytick_13">
     <g id="line2d_59">
      <path clip-path="url(#p31840ed752)" d="M 0 850.393701 
L 1303.937008 850.393701 
" style="fill:none;stroke:#b0b0b0;stroke-linecap:square;stroke-width:0.8;"/>
     </g>
    </g>
    <g id="ytick_14">
     <g id="line2d_60">
      <path clip-path="url(#p31840ed752)" d="M 0 822.047244 
L 1303.937008 822.047244 
" style="fill:none;stroke:#b0b0b0;stroke-linecap:square;stroke-width:0.8;"/>
     </g>
    </g>
    <g id="ytick_15">
     <g id="line2d_61">
      <path clip-path="url(#p31840ed752)" d="M 0 793.700787 
L 1303.937008 793.700787 
" style="fill:none;stroke:#b0b0b0;stroke-linecap:square;stroke-width:0.8;"/>
     </g>
    </g>
    <g id="ytick_16">
     <g id="line2d_62">
      <path clip-path="url(#p31840ed752)" d="M 0 765.354331 
L 1303.937008 765.354331 
" style="fill:none;stroke:#b0b0b0;stroke-linecap:square;stroke-width:0.8;"/>
     </g>
    </g>
    <g id="ytick_17">
     <g id="line2d_63">
      <path clip-path="url(#p31840ed752)" d="M 0 737.007874 
L 1303.937008 737.007874 
" style="fill:none;stroke:#b0b0b0;stroke-linecap:square;stroke-width:0.8;"/>
     </g>
    </g>
    <g id="ytick_18">
     <g id="line2d_64">
      <path clip-path="url(#p31840ed752)" d="M 0 708.661417 
L 1303.937008 708.661417 
" style="fill:none;stroke:#b0b0b0;stroke-linecap:square;stroke-width:0.8;"/>
     </g>
    </g>
    <g id="ytick_19">
     <g id="line2d_65">
      <path clip-path="url(#p31840ed752)" d="M 0 680.314961 
L 1303.937008 680.314961 
" style="fill:none;stroke:#b0b0b0;stroke-linecap:square;stroke-width:0.8;"/>
     </g>
    </g>
    <g id="ytick_20">
     <g id="line2d_66">
      <path clip-path="url(#p31840ed752)" d="M 0 651.968504 
L 1303.937008 651.968504 
" style="fill:none;stroke:#b0b0b0;stroke-linecap:square;stroke-width:0.8;"/>
     </g>
    </g>
    <g id="ytick_21">
     <g id="line2d_67">
      <path clip-path="url(#p31840ed752)" d="M 0 623.622047 
L 1303.937008 623.622047 
" style="fill:none;stroke:#b0b0b0;stroke-linecap:square;stroke-width:0.8;"/>
     </g>
    </g>
    <g id="ytick_22">
     <g id="line2d_68">
      <path clip-path="url(#p31840ed752)" d="M 0 595.275591 
L 1303.937008 595.275591 
" style="fill:none;stroke:#b0b0b0;stroke-linecap:square;stroke-width:0.8;"/>
     </g>
    </g>
    <g id="ytick_23">
     <g id="line2d_69">
      <path clip-path="url(#p31840ed752)" d="M 0 566.929134 
L 1303.937008 566.929134 
" style="fill:none;stroke:#b0b0b0;stroke-linecap:square;stroke-width:0.8;"/>
     </g>
    </g>
    <g id="ytick_24">
     <g id="line2d_70">
      <path clip-path="url(#p31840ed752)" d="M 0 538.582677 
L 1303.937008 538.582677 
" style="fill:none;stroke:#b0b0b0;stroke-linecap:square;stroke-width:0.8;"/>
     </g>
    </g>
    <g id="ytick_25">
     <g id="line2d_71">
      <path clip-path="url(#p31840ed752)" d="M 0 510.23622 
L 1303.937008 510.23622 
" style="fill:none;stroke:#b0b0b0;stroke-linecap:square;stroke-width:0.8;"/>
     </g>
    </g>
    <g id="ytick_26">
     <g id="line2d_72">
      <path clip-path="url(#p31840ed752)" d="M 0 481.889764 
L 1303.937008 481.889764 
" style="fill:none;stroke:#b0b0b0;stroke-linecap:square;stroke-width:0.8;"/>
     </g>
    </g>
    <g id="ytick_27">
     <g id="line2d_73">
      <path clip-path="url(#p31840ed752)" d="M 0 453.543307 
L 1303.937008 453.543307 
" style="fill:none;stroke:#b0b0b0;stroke-linecap:square;stroke-width:0.8;"/>
     </g>
    </g>
    <g id="ytick_28">
     <g id="line2d_74">
      <path clip-path="url(#p31840ed752)" d="M 0 425.19685 
L 1303.937008 425.19685 
" style="fill:none;stroke:#b0b0b0;stroke-linecap:square;stroke-width:0.8;"/>
     </g>
    </g>
    <g id="ytick_29">
     <g id="line2d_75">
      <path clip-path="url(#p31840ed752)" d="M 0 396.850394 
L 1303.937008 396.850394 
" style="fill:none;stroke:#b0b0b0;stroke-linecap:square;stroke-width:0.8;"/>
     </g>
    </g>
    <g id="ytick_30">
     <g id="line2d_76">
      <path clip-path="url(#p31840ed752)" d="M 0 368.503937 
L 1303.937008 368.503937 
" style="fill:none;stroke:#b0b0b0;stroke-linecap:square;stroke-width:0.8;"/>
     </g>
    </g>
    <g id="ytick_31">
     <g id="line2d_77">
      <path clip-path="url(#p31840ed752)" d="M 0 340.15748 
L 1303.937008 340.15748 
" style="fill:none;stroke:#b0b0b0;stroke-linecap:square;stroke-width:0.8;"/>
     </g>
    </g>
    <g id="ytick_32">
     <g id="line2d_78">
      <path clip-path="url(#p31840ed752)" d="M 0 311.811024 
L 1303.937008 311.811024 
" style="fill:none;stroke:#b0b0b0;stroke-linecap:square;stroke-width:0.8;"/>
     </g>
    </g>
    <g id="ytick_33">
     <g id="line2d_79">
      <path clip-path="url(#p31840ed752)" d="M 0 283.464567 
L 1303.937008 283.464567 
" style="fill:none;stroke:#b0b0b0;stroke-linecap:square;stroke-width:0.8;"/>
     </g>
    </g>
    <g id="ytick_34">
     <g id="line2d_80">
      <path clip-path="url(#p31840ed752)" d="M 0 255.11811 
L 1303.937008 255.11811 
" style="fill:none;stroke:#b0b0b0;stroke-linecap:square;stroke-width:0.8;"/>
     </g>
    </g>
    <g id="ytick_35">
     <g id="line2d_81">
      <path clip-path="url(#p31840ed752)" d="M 0 226.771654 
L 1303.937008 226.771654 
" style="fill:none;stroke:#b0b0b0;stroke-linecap:square;stroke-width:0.8;"/>
     </g>
    </g>
    <g id="ytick_36">
     <g id="line2d_82">
      <path clip-path="url(#p31840ed752)" d="M 0 198.425197 
L 1303.937008 198.425197 
" style="fill:none;stroke:#b0b0b0;stroke-linecap:square;stroke-width:0.8;"/>
     </g>
    </g>
    <g id="ytick_37">
     <g id="line2d_83">
      <path clip-path="url(#p31840ed752)" d="M 0 170.07874 
L 1303.937008 170.07874 
" style="fill:none;stroke:#b0b0b0;stroke-linecap:square;stroke-width:0.8;"/>
     </g>
    </g>
    <g id="ytick_38">
     <g id="line2d_84">
      <path clip-path="url(#p31840ed752)" d="M 0 141.732283 
L 1303.937008 141.732283 
" style="fill:none;stroke:#b0b0b0;stroke-linecap:square;stroke-width:0.8;"/>
     </g>
    </g>
    <g id="ytick_39">
     <g id="line2d_85">
      <path clip-path="url(#p31840ed752)" d="M 0 113.385827 
L 1303.937008 113.385827 
" style="fill:none;stroke:#b0b0b0;stroke-linecap:square;stroke-width:0.8;"/>
     </g>
    </g>
    <g id="ytick_40">
     <g id="line2d_86">
      <path clip-path="url(#p31840ed752)" d="M 0 85.03937 
L 1303.937008 85.03937 
" style="fill:none;stroke:#b0b0b0;stroke-linecap:square;stroke-width:0.8;"/>
     </g>
    </g>
    <g id="ytick_41">
     <g id="line2d_87">
      <path clip-path="url(#p31840ed752)" d="M 0 56.692913 
L 1303.937008 56.692913 
" style="fill:none;stroke:#b0b0b0;stroke-linecap:square;stroke-width:0.8;"/>
     </g>
    </g>
    <g id="ytick_42">
     <g id="line2d_88">
      <path clip-path="url(#p31840ed752)" d="M 0 28.346457 
L 1303.937008 28.346457 
" style="fill:none;stroke:#b0b0b0;stroke-linecap:square;stroke-width:0.8;"/>
     </g>
    </g>
   </g>
   <g id="line2d_89">
    <defs>
     <path d="M 0 3 
C 0.795609 3 1.55874 2.683901 2.12132 2.12132 
C 2.683901 1.55874 3 0.795609 3 0 
C 3 -0.795609 2.683901 -1.55874 2.12132 -2.12132 
C 1.55874 -2.683901 0.795609 -3 0 -3 
C -0.795609 -3 -1.55874 -2.683901 -2.12132 -2.12132 
C -2.683901 -1.55874 -3 -0.795609 -3 0 
C -3 0.795609 -2.683901 1.55874 -2.12132 2.12132 
C -1.55874 2.683901 -0.795609 3 0 3 
z
" id="m39022e2707" style="stroke:#ff0000;"/>
    </defs>
    <g clip-path="url(#p31840ed752)">
     <use style="fill:#ff0000;stroke:#ff0000;" x="1162.204724" xlink:href="#m39022e2707" y="141.732283"/>
    </g>
   </g>
   <g id="line2d_90">
    <g clip-path="url(#p31840ed752)">
     <use style="fill:#ff0000;stroke:#ff0000;" x="1162.204724" xlink:href="#m39022e2707" y="453.543307"/>
    </g>
   </g>
   <g id="line2d_91">
    <g clip-path="url(#p31840ed752)">
     <use style="fill:#ff0000;stroke:#ff0000;" x="1162.204724" xlink:href="#m39022e2707" y="155.905512"/>
    </g>
   </g>
   <g id="line2d_92">
    <g clip-path="url(#p31840ed752)">
     <use style="fill:#ff0000;stroke:#ff0000;" x="942.519685" xlink:href="#m39022e2707" y="340.15748"/>
    </g>
   </g>
   <g id="line2d_93">
    <g clip-path="url(#p31840ed752)">
     <use style="fill:#ff0000;stroke:#ff0000;" x="722.834646" xlink:href="#m39022e2707" y="141.732283"/>
    </g>
   </g>
   <g id="line2d_94">
    <g clip-path="url(#p31840ed752)">
     <use style="fill:#ff0000;stroke:#ff0000;" x="651.968504" xlink:href="#m39022e2707" y="141.732283"/>
    </g>
   </g>
   <g id="line2d_95">
    <g clip-path="url(#p31840ed752)">
     <use style="fill:#ff0000;stroke:#ff0000;" x="651.968504" xlink:href="#m39022e2707" y="1048.818898"/>
    </g>
   </g>
   <g id="line2d_96">
    <g clip-path="url(#p31840ed752)">
     <use style="fill:#ff0000;stroke:#ff0000;" x="1162.204724" xlink:href="#m39022e2707" y="1048.818898"/>
    </g>
   </g>
   <g id="line2d_97">
    <g clip-path="url(#p31840ed752)">
     <use style="fill:#ff0000;stroke:#ff0000;" x="141.732283" xlink:href="#m39022e2707" y="141.732283"/>
    </g>
   </g>
   <g id="line2d_98">
    <g clip-path="url(#p31840ed752)">
     <use style="fill:#ff0000;stroke:#ff0000;" x="141.732283" xlink:href="#m39022e2707" y="453.543307"/>
    </g>
   </g>
   <g id="line2d_99">
    <g clip-path="url(#p31840ed752)">
     <use style="fill:#ff0000;stroke:#ff0000;" x="141.732283" xlink:href="#m39022e2707" y="170.07874"/>
    </g>
   </g>
   <g id="line2d_100">
    <g clip-path="url(#p31840ed752)">
     <use style="fill:#ff0000;stroke:#ff0000;" x="361.417323" xlink:href="#m39022e2707" y="340.15748"/>
    </g>
   </g>
   <g id="line2d_101">
    <g clip-path="url(#p31840ed752)">
     <use style="fill:#ff0000;stroke:#ff0000;" x="581.102362" xlink:href="#m39022e2707" y="141.732283"/>
    </g>
   </g>
   <g id="line2d_102">
    <g clip-path="url(#p31840ed752)">
     <use style="fill:#ff0000;stroke:#ff0000;" x="141.732283" xlink:href="#m39022e2707" y="1048.818898"/>
    </g>
   </g>
   <g id="line2d_103">
    <path clip-path="url(#p31840ed752)" d="M 361.417323 907.086614 
L 361.417323 623.622047 
" style="fill:none;stroke:#0000ff;stroke-linecap:square;stroke-width:1.5;"/>
   </g>
   <g id="line2d_104">
    <path clip-path="url(#p31840ed752)" d="M 155.905512 510.23622 
L 155.905512 992.125984 
" style="fill:none;stroke:#0000ff;stroke-linecap:square;stroke-width:1.5;"/>
   </g>
   <g id="line2d_105">
    <path clip-path="url(#p31840ed752)" d="M 1148.031496 510.23622 
L 1148.031496 992.125984 
" style="fill:none;stroke:#0000ff;stroke-linecap:square;stroke-width:1.5;"/>
   </g>
   <g id="line2d_106">
    <path clip-path="url(#p31840ed752)" d="M 141.732283 453.543307 
L 1162.204724 453.543307 
" style="fill:none;stroke:#0000ff;stroke-dasharray:5.55,2.4;stroke-dashoffset:0;stroke-width:1.5;"/>
   </g>
   <g id="line2d_107">
    <path clip-path="url(#p31840ed752)" d="M 141.732283 141.732283 
L 1162.204724 141.732283 
" style="fill:none;stroke:#0000ff;stroke-dasharray:5.55,2.4;stroke-dashoffset:0;stroke-width:1.5;"/>
   </g>
   <g id="line2d_108">
    <path clip-path="url(#p31840ed752)" d="M 28.346457 1162.204724 
L 170.07874 1162.204724 
" style="fill:none;stroke:#0000ff;stroke-width:5;"/>
   </g>
   <g id="line2d_109">
    <path clip-path="url(#p31840ed752)" d="M 28.346457 1162.204724 
L 170.07874 1162.204724 
" style="fill:none;stroke:#0000ff;stroke-width:5;"/>
   </g>
   <g id="patch_9">
    <path d="M 0 1190.551181 
L 0 0 
" style="fill:none;stroke:#000000;stroke-linecap:square;stroke-linejoin:miter;stroke-width:0.8;"/>
   </g>
   <g id="patch_10">
    <path d="M 1303.937008 1190.551181 
L 1303.937008 0 
" style="fill:none;stroke:#000000;stroke-linecap:square;stroke-linejoin:miter;stroke-width:0.8;"/>
   </g>
   <g id="patch_11">
    <path d="M 0 1190.551181 
L 1303.937008 1190.551181 
" style="fill:none;stroke:#000000;stroke-linecap:square;stroke-linejoin:miter;stroke-width:0.8;"/>
   </g>
   <g id="patch_12">
    <path d="M 0 0 
L 1303.937008 0 
" style="fill:none;stroke:#000000;stroke-linecap:square;stroke-linejoin:miter;stroke-width:0.8;"/>
   </g>
   <g id="text_1">
    <!-- B -->
    <g transform="translate(1167.874016 141.732283)scale(0.1 -0.1)">
     <defs>
      <path d="M 19.671875 34.8125 
L 19.671875 8.109375 
L 35.5 8.109375 
Q 43.453125 8.109375 47.28125 11.40625 
Q 51.125 14.703125 51.125 21.484375 
Q 51.125 28.328125 47.28125 31.5625 
Q 43.453125 34.8125 35.5 34.8125 
z
M 19.671875 64.796875 
L 19.671875 42.828125 
L 34.28125 42.828125 
Q 41.5 42.828125 45.03125 45.53125 
Q 48.578125 48.25 48.578125 53.8125 
Q 48.578125 59.328125 45.03125 62.0625 
Q 41.5 64.796875 34.28125 64.796875 
z
M 9.8125 72.90625 
L 35.015625 72.90625 
Q 46.296875 72.90625 52.390625 68.21875 
Q 58.5 63.53125 58.5 54.890625 
Q 58.5 48.1875 55.375 44.234375 
Q 52.25 40.28125 46.1875 39.3125 
Q 53.46875 37.75 57.5 32.78125 
Q 61.53125 27.828125 61.53125 20.40625 
Q 61.53125 10.640625 54.890625 5.3125 
Q 48.25 0 35.984375 0 
L 9.8125 0 
z
" id="DejaVuSans-66"/>
     </defs>
     <use xlink:href="#DejaVuSans-66"/>
    </g>
   </g>
   <g id="text_2">
    <!-- B1 -->
    <g transform="translate(1167.874016 453.543307)scale(0.1 -0.1)">
     <defs>
      <path d="M 12.40625 8.296875 
L 28.515625 8.296875 
L 28.515625 63.921875 
L 10.984375 60.40625 
L 10.984375 69.390625 
L 28.421875 72.90625 
L 38.28125 72.90625 
L 38.28125 8.296875 
L 54.390625 8.296875 
L 54.390625 0 
L 12.40625 0 
z
" id="DejaVuSans-49"/>
     </defs>
     <use xlink:href="#DejaVuSans-66"/>
     <use x="68.603516" xlink:href="#DejaVuSans-49"/>
    </g>
   </g>
   <g id="text_3">
    <!-- B2 -->
    <g transform="translate(1167.874016 155.905512)scale(0.1 -0.1)">
     <defs>
      <path d="M 19.1875 8.296875 
L 53.609375 8.296875 
L 53.609375 0 
L 7.328125 0 
L 7.328125 8.296875 
Q 12.9375 14.109375 22.625 23.890625 
Q 32.328125 33.6875 34.8125 36.53125 
Q 39.546875 41.84375 41.421875 45.53125 
Q 43.3125 49.21875 43.3125 52.78125 
Q 43.3125 58.59375 39.234375 62.25 
Q 35.15625 65.921875 28.609375 65.921875 
Q 23.96875 65.921875 18.8125 64.3125 
Q 13.671875 62.703125 7.8125 59.421875 
L 7.8125 69.390625 
Q 13.765625 71.78125 18.9375 73 
Q 24.125 74.21875 28.421875 74.21875 
Q 39.75 74.21875 46.484375 68.546875 
Q 53.21875 62.890625 53.21875 53.421875 
Q 53.21875 48.921875 51.53125 44.890625 
Q 49.859375 40.875 45.40625 35.40625 
Q 44.1875 33.984375 37.640625 27.21875 
Q 31.109375 20.453125 19.1875 8.296875 
z
" id="DejaVuSans-50"/>
     </defs>
     <use xlink:href="#DejaVuSans-66"/>
     <use x="68.603516" xlink:href="#DejaVuSans-50"/>
    </g>
   </g>
   <g id="text_4">
    <!-- dart2 -->
    <g transform="translate(948.188976 340.15748)scale(0.1 -0.1)">
     <defs>
      <path d="M 45.40625 46.390625 
L 45.40625 75.984375 
L 54.390625 75.984375 
L 54.390625 0 
L 45.40625 0 
L 45.40625 8.203125 
Q 42.578125 3.328125 38.25 0.953125 
Q 33.9375 -1.421875 27.875 -1.421875 
Q 17.96875 -1.421875 11.734375 6.484375 
Q 5.515625 14.40625 5.515625 27.296875 
Q 5.515625 40.1875 11.734375 48.09375 
Q 17.96875 56 27.875 56 
Q 33.9375 56 38.25 53.625 
Q 42.578125 51.265625 45.40625 46.390625 
z
M 14.796875 27.296875 
Q 14.796875 17.390625 18.875 11.75 
Q 22.953125 6.109375 30.078125 6.109375 
Q 37.203125 6.109375 41.296875 11.75 
Q 45.40625 17.390625 45.40625 27.296875 
Q 45.40625 37.203125 41.296875 42.84375 
Q 37.203125 48.484375 30.078125 48.484375 
Q 22.953125 48.484375 18.875 42.84375 
Q 14.796875 37.203125 14.796875 27.296875 
z
" id="DejaVuSans-100"/>
      <path d="M 34.28125 27.484375 
Q 23.390625 27.484375 19.1875 25 
Q 14.984375 22.515625 14.984375 16.5 
Q 14.984375 11.71875 18.140625 8.90625 
Q 21.296875 6.109375 26.703125 6.109375 
Q 34.1875 6.109375 38.703125 11.40625 
Q 43.21875 16.703125 43.21875 25.484375 
L 43.21875 27.484375 
z
M 52.203125 31.203125 
L 52.203125 0 
L 43.21875 0 
L 43.21875 8.296875 
Q 40.140625 3.328125 35.546875 0.953125 
Q 30.953125 -1.421875 24.3125 -1.421875 
Q 15.921875 -1.421875 10.953125 3.296875 
Q 6 8.015625 6 15.921875 
Q 6 25.140625 12.171875 29.828125 
Q 18.359375 34.515625 30.609375 34.515625 
L 43.21875 34.515625 
L 43.21875 35.40625 
Q 43.21875 41.609375 39.140625 45 
Q 35.0625 48.390625 27.6875 48.390625 
Q 23 48.390625 18.546875 47.265625 
Q 14.109375 46.140625 10.015625 43.890625 
L 10.015625 52.203125 
Q 14.9375 54.109375 19.578125 55.046875 
Q 24.21875 56 28.609375 56 
Q 40.484375 56 46.34375 49.84375 
Q 52.203125 43.703125 52.203125 31.203125 
z
" id="DejaVuSans-97"/>
      <path d="M 41.109375 46.296875 
Q 39.59375 47.171875 37.8125 47.578125 
Q 36.03125 48 33.890625 48 
Q 26.265625 48 22.1875 43.046875 
Q 18.109375 38.09375 18.109375 28.8125 
L 18.109375 0 
L 9.078125 0 
L 9.078125 54.6875 
L 18.109375 54.6875 
L 18.109375 46.1875 
Q 20.953125 51.171875 25.484375 53.578125 
Q 30.03125 56 36.53125 56 
Q 37.453125 56 38.578125 55.875 
Q 39.703125 55.765625 41.0625 55.515625 
z
" id="DejaVuSans-114"/>
      <path d="M 18.3125 70.21875 
L 18.3125 54.6875 
L 36.8125 54.6875 
L 36.8125 47.703125 
L 18.3125 47.703125 
L 18.3125 18.015625 
Q 18.3125 11.328125 20.140625 9.421875 
Q 21.96875 7.515625 27.59375 7.515625 
L 36.8125 7.515625 
L 36.8125 0 
L 27.59375 0 
Q 17.1875 0 13.234375 3.875 
Q 9.28125 7.765625 9.28125 18.015625 
L 9.28125 47.703125 
L 2.6875 47.703125 
L 2.6875 54.6875 
L 9.28125 54.6875 
L 9.28125 70.21875 
z
" id="DejaVuSans-116"/>
     </defs>
     <use xlink:href="#DejaVuSans-100"/>
     <use x="63.476562" xlink:href="#DejaVuSans-97"/>
     <use x="124.755859" xlink:href="#DejaVuSans-114"/>
     <use x="165.869141" xlink:href="#DejaVuSans-116"/>
     <use x="205.078125" xlink:href="#DejaVuSans-50"/>
    </g>
   </g>
   <g id="text_5">
    <!-- H -->
    <g transform="translate(728.503937 141.732283)scale(0.1 -0.1)">
     <defs>
      <path d="M 9.8125 72.90625 
L 19.671875 72.90625 
L 19.671875 43.015625 
L 55.515625 43.015625 
L 55.515625 72.90625 
L 65.375 72.90625 
L 65.375 0 
L 55.515625 0 
L 55.515625 34.71875 
L 19.671875 34.71875 
L 19.671875 0 
L 9.8125 0 
z
" id="DejaVuSans-72"/>
     </defs>
     <use xlink:href="#DejaVuSans-72"/>
    </g>
   </g>
   <g id="text_6">
    <!-- F -->
    <g transform="translate(657.637795 141.732283)scale(0.1 -0.1)">
     <defs>
      <path d="M 9.8125 72.90625 
L 51.703125 72.90625 
L 51.703125 64.59375 
L 19.671875 64.59375 
L 19.671875 43.109375 
L 48.578125 43.109375 
L 48.578125 34.8125 
L 19.671875 34.8125 
L 19.671875 0 
L 9.8125 0 
z
" id="DejaVuSans-70"/>
     </defs>
     <use xlink:href="#DejaVuSans-70"/>
    </g>
   </g>
   <g id="text_7">
    <!-- E -->
    <g transform="translate(657.637795 1048.818898)scale(0.1 -0.1)">
     <defs>
      <path d="M 9.8125 72.90625 
L 55.90625 72.90625 
L 55.90625 64.59375 
L 19.671875 64.59375 
L 19.671875 43.015625 
L 54.390625 43.015625 
L 54.390625 34.71875 
L 19.671875 34.71875 
L 19.671875 8.296875 
L 56.78125 8.296875 
L 56.78125 0 
L 9.8125 0 
z
" id="DejaVuSans-69"/>
     </defs>
     <use xlink:href="#DejaVuSans-69"/>
    </g>
   </g>
   <g id="text_8">
    <!-- D -->
    <g transform="translate(1167.874016 1048.818898)scale(0.1 -0.1)">
     <defs>
      <path d="M 19.671875 64.796875 
L 19.671875 8.109375 
L 31.59375 8.109375 
Q 46.6875 8.109375 53.6875 14.9375 
Q 60.6875 21.78125 60.6875 36.53125 
Q 60.6875 51.171875 53.6875 57.984375 
Q 46.6875 64.796875 31.59375 64.796875 
z
M 9.8125 72.90625 
L 30.078125 72.90625 
Q 51.265625 72.90625 61.171875 64.09375 
Q 71.09375 55.28125 71.09375 36.53125 
Q 71.09375 17.671875 61.125 8.828125 
Q 51.171875 0 30.078125 0 
L 9.8125 0 
z
" id="DejaVuSans-68"/>
     </defs>
     <use xlink:href="#DejaVuSans-68"/>
    </g>
   </g>
   <g id="text_9">
    <!-- A -->
    <g transform="translate(147.401575 141.732283)scale(0.1 -0.1)">
     <defs>
      <path d="M 34.1875 63.1875 
L 20.796875 26.90625 
L 47.609375 26.90625 
z
M 28.609375 72.90625 
L 39.796875 72.90625 
L 67.578125 0 
L 57.328125 0 
L 50.6875 18.703125 
L 17.828125 18.703125 
L 11.1875 0 
L 0.78125 0 
z
" id="DejaVuSans-65"/>
     </defs>
     <use xlink:href="#DejaVuSans-65"/>
    </g>
   </g>
   <g id="text_10">
    <!-- A1 -->
    <g transform="translate(147.401575 453.543307)scale(0.1 -0.1)">
     <use xlink:href="#DejaVuSans-65"/>
     <use x="68.408203" xlink:href="#DejaVuSans-49"/>
    </g>
   </g>
   <g id="text_11">
    <!-- A2 -->
    <g transform="translate(147.401575 170.07874)scale(0.1 -0.1)">
     <use xlink:href="#DejaVuSans-65"/>
     <use x="68.408203" xlink:href="#DejaVuSans-50"/>
    </g>
   </g>
   <g id="text_12">
    <!-- dart1 -->
    <g transform="translate(367.086614 340.15748)scale(0.1 -0.1)">
     <use xlink:href="#DejaVuSans-100"/>
     <use x="63.476562" xlink:href="#DejaVuSans-97"/>
     <use x="124.755859" xlink:href="#DejaVuSans-114"/>
     <use x="165.869141" xlink:href="#DejaVuSans-116"/>
     <use x="205.078125" xlink:href="#DejaVuSans-49"/>
    </g>
   </g>
   <g id="text_13">
    <!-- G -->
    <g transform="translate(586.771654 141.732283)scale(0.1 -0.1)">
     <defs>
      <path d="M 59.515625 10.40625 
L 59.515625 29.984375 
L 43.40625 29.984375 
L 43.40625 38.09375 
L 69.28125 38.09375 
L 69.28125 6.78125 
Q 63.578125 2.734375 56.6875 0.65625 
Q 49.8125 -1.421875 42 -1.421875 
Q 24.90625 -1.421875 15.25 8.5625 
Q 5.609375 18.5625 5.609375 36.375 
Q 5.609375 54.25 15.25 64.234375 
Q 24.90625 74.21875 42 74.21875 
Q 49.125 74.21875 55.546875 72.453125 
Q 61.96875 70.703125 67.390625 67.28125 
L 67.390625 56.78125 
Q 61.921875 61.421875 55.765625 63.765625 
Q 49.609375 66.109375 42.828125 66.109375 
Q 29.4375 66.109375 22.71875 58.640625 
Q 16.015625 51.171875 16.015625 36.375 
Q 16.015625 21.625 22.71875 14.15625 
Q 29.4375 6.6875 42.828125 6.6875 
Q 48.046875 6.6875 52.140625 7.59375 
Q 56.25 8.5 59.515625 10.40625 
z
" id="DejaVuSans-71"/>
     </defs>
     <use xlink:href="#DejaVuSans-71"/>
    </g>
   </g>
   <g id="text_14">
    <!-- C -->
    <g transform="translate(147.401575 1048.818898)scale(0.1 -0.1)">
     <defs>
      <path d="M 64.40625 67.28125 
L 64.40625 56.890625 
Q 59.421875 61.53125 53.78125 63.8125 
Q 48.140625 66.109375 41.796875 66.109375 
Q 29.296875 66.109375 22.65625 58.46875 
Q 16.015625 50.828125 16.015625 36.375 
Q 16.015625 21.96875 22.65625 14.328125 
Q 29.296875 6.6875 41.796875 6.6875 
Q 48.140625 6.6875 53.78125 8.984375 
Q 59.421875 11.28125 64.40625 15.921875 
L 64.40625 5.609375 
Q 59.234375 2.09375 53.4375 0.328125 
Q 47.65625 -1.421875 41.21875 -1.421875 
Q 24.65625 -1.421875 15.125 8.703125 
Q 5.609375 18.84375 5.609375 36.375 
Q 5.609375 53.953125 15.125 64.078125 
Q 24.65625 74.21875 41.21875 74.21875 
Q 47.75 74.21875 53.53125 72.484375 
Q 59.328125 70.75 64.40625 67.28125 
z
" id="DejaVuSans-67"/>
     </defs>
     <use xlink:href="#DejaVuSans-67"/>
    </g>
   </g>
   <g id="text_15">
    <!-- Style: Chiappetta -->
    <g transform="translate(85.03937 28.346457)scale(0.1 -0.1)">
     <defs>
      <path d="M 53.515625 70.515625 
L 53.515625 60.890625 
Q 47.90625 63.578125 42.921875 64.890625 
Q 37.9375 66.21875 33.296875 66.21875 
Q 25.25 66.21875 20.875 63.09375 
Q 16.5 59.96875 16.5 54.203125 
Q 16.5 49.359375 19.40625 46.890625 
Q 22.3125 44.4375 30.421875 42.921875 
L 36.375 41.703125 
Q 47.40625 39.59375 52.65625 34.296875 
Q 57.90625 29 57.90625 20.125 
Q 57.90625 9.515625 50.796875 4.046875 
Q 43.703125 -1.421875 29.984375 -1.421875 
Q 24.8125 -1.421875 18.96875 -0.25 
Q 13.140625 0.921875 6.890625 3.21875 
L 6.890625 13.375 
Q 12.890625 10.015625 18.65625 8.296875 
Q 24.421875 6.59375 29.984375 6.59375 
Q 38.421875 6.59375 43.015625 9.90625 
Q 47.609375 13.234375 47.609375 19.390625 
Q 47.609375 24.75 44.3125 27.78125 
Q 41.015625 30.8125 33.5 32.328125 
L 27.484375 33.5 
Q 16.453125 35.6875 11.515625 40.375 
Q 6.59375 45.0625 6.59375 53.421875 
Q 6.59375 63.09375 13.40625 68.65625 
Q 20.21875 74.21875 32.171875 74.21875 
Q 37.3125 74.21875 42.625 73.28125 
Q 47.953125 72.359375 53.515625 70.515625 
z
" id="DejaVuSans-83"/>
      <path d="M 32.171875 -5.078125 
Q 28.375 -14.84375 24.75 -17.8125 
Q 21.140625 -20.796875 15.09375 -20.796875 
L 7.90625 -20.796875 
L 7.90625 -13.28125 
L 13.1875 -13.28125 
Q 16.890625 -13.28125 18.9375 -11.515625 
Q 21 -9.765625 23.484375 -3.21875 
L 25.09375 0.875 
L 2.984375 54.6875 
L 12.5 54.6875 
L 29.59375 11.921875 
L 46.6875 54.6875 
L 56.203125 54.6875 
z
" id="DejaVuSans-121"/>
      <path d="M 9.421875 75.984375 
L 18.40625 75.984375 
L 18.40625 0 
L 9.421875 0 
z
" id="DejaVuSans-108"/>
      <path d="M 56.203125 29.59375 
L 56.203125 25.203125 
L 14.890625 25.203125 
Q 15.484375 15.921875 20.484375 11.0625 
Q 25.484375 6.203125 34.421875 6.203125 
Q 39.59375 6.203125 44.453125 7.46875 
Q 49.3125 8.734375 54.109375 11.28125 
L 54.109375 2.78125 
Q 49.265625 0.734375 44.1875 -0.34375 
Q 39.109375 -1.421875 33.890625 -1.421875 
Q 20.796875 -1.421875 13.15625 6.1875 
Q 5.515625 13.8125 5.515625 26.8125 
Q 5.515625 40.234375 12.765625 48.109375 
Q 20.015625 56 32.328125 56 
Q 43.359375 56 49.78125 48.890625 
Q 56.203125 41.796875 56.203125 29.59375 
z
M 47.21875 32.234375 
Q 47.125 39.59375 43.09375 43.984375 
Q 39.0625 48.390625 32.421875 48.390625 
Q 24.90625 48.390625 20.390625 44.140625 
Q 15.875 39.890625 15.1875 32.171875 
z
" id="DejaVuSans-101"/>
      <path d="M 11.71875 12.40625 
L 22.015625 12.40625 
L 22.015625 0 
L 11.71875 0 
z
M 11.71875 51.703125 
L 22.015625 51.703125 
L 22.015625 39.3125 
L 11.71875 39.3125 
z
" id="DejaVuSans-58"/>
      <path id="DejaVuSans-32"/>
      <path d="M 54.890625 33.015625 
L 54.890625 0 
L 45.90625 0 
L 45.90625 32.71875 
Q 45.90625 40.484375 42.875 44.328125 
Q 39.84375 48.1875 33.796875 48.1875 
Q 26.515625 48.1875 22.3125 43.546875 
Q 18.109375 38.921875 18.109375 30.90625 
L 18.109375 0 
L 9.078125 0 
L 9.078125 75.984375 
L 18.109375 75.984375 
L 18.109375 46.1875 
Q 21.34375 51.125 25.703125 53.5625 
Q 30.078125 56 35.796875 56 
Q 45.21875 56 50.046875 50.171875 
Q 54.890625 44.34375 54.890625 33.015625 
z
" id="DejaVuSans-104"/>
      <path d="M 9.421875 54.6875 
L 18.40625 54.6875 
L 18.40625 0 
L 9.421875 0 
z
M 9.421875 75.984375 
L 18.40625 75.984375 
L 18.40625 64.59375 
L 9.421875 64.59375 
z
" id="DejaVuSans-105"/>
      <path d="M 18.109375 8.203125 
L 18.109375 -20.796875 
L 9.078125 -20.796875 
L 9.078125 54.6875 
L 18.109375 54.6875 
L 18.109375 46.390625 
Q 20.953125 51.265625 25.265625 53.625 
Q 29.59375 56 35.59375 56 
Q 45.5625 56 51.78125 48.09375 
Q 58.015625 40.1875 58.015625 27.296875 
Q 58.015625 14.40625 51.78125 6.484375 
Q 45.5625 -1.421875 35.59375 -1.421875 
Q 29.59375 -1.421875 25.265625 0.953125 
Q 20.953125 3.328125 18.109375 8.203125 
z
M 48.6875 27.296875 
Q 48.6875 37.203125 44.609375 42.84375 
Q 40.53125 48.484375 33.40625 48.484375 
Q 26.265625 48.484375 22.1875 42.84375 
Q 18.109375 37.203125 18.109375 27.296875 
Q 18.109375 17.390625 22.1875 11.75 
Q 26.265625 6.109375 33.40625 6.109375 
Q 40.53125 6.109375 44.609375 11.75 
Q 48.6875 17.390625 48.6875 27.296875 
z
" id="DejaVuSans-112"/>
     </defs>
     <use xlink:href="#DejaVuSans-83"/>
     <use x="63.476562" xlink:href="#DejaVuSans-116"/>
     <use x="102.685547" xlink:href="#DejaVuSans-121"/>
     <use x="161.865234" xlink:href="#DejaVuSans-108"/>
     <use x="189.648438" xlink:href="#DejaVuSans-101"/>
     <use x="251.171875" xlink:href="#DejaVuSans-58"/>
     <use x="284.863281" xlink:href="#DejaVuSans-32"/>
     <use x="316.650391" xlink:href="#DejaVuSans-67"/>
     <use x="386.474609" xlink:href="#DejaVuSans-104"/>
     <use x="449.853516" xlink:href="#DejaVuSans-105"/>
     <use x="477.636719" xlink:href="#DejaVuSans-97"/>
     <use x="538.916016" xlink:href="#DejaVuSans-112"/>
     <use x="602.392578" xlink:href="#DejaVuSans-112"/>
     <use x="665.869141" xlink:href="#DejaVuSans-101"/>
     <use x="727.392578" xlink:href="#DejaVuSans-116"/>
     <use x="766.601562" xlink:href="#DejaVuSans-116"/>
     <use x="805.810547" xlink:href="#DejaVuSans-97"/>
    </g>
   </g>
   <g id="text_16">
    <!-- Gender: G -->
    <g transform="translate(85.03937 56.692913)scale(0.1 -0.1)">
     <defs>
      <path d="M 54.890625 33.015625 
L 54.890625 0 
L 45.90625 0 
L 45.90625 32.71875 
Q 45.90625 40.484375 42.875 44.328125 
Q 39.84375 48.1875 33.796875 48.1875 
Q 26.515625 48.1875 22.3125 43.546875 
Q 18.109375 38.921875 18.109375 30.90625 
L 18.109375 0 
L 9.078125 0 
L 9.078125 54.6875 
L 18.109375 54.6875 
L 18.109375 46.1875 
Q 21.34375 51.125 25.703125 53.5625 
Q 30.078125 56 35.796875 56 
Q 45.21875 56 50.046875 50.171875 
Q 54.890625 44.34375 54.890625 33.015625 
z
" id="DejaVuSans-110"/>
     </defs>
     <use xlink:href="#DejaVuSans-71"/>
     <use x="77.490234" xlink:href="#DejaVuSans-101"/>
     <use x="139.013672" xlink:href="#DejaVuSans-110"/>
     <use x="202.392578" xlink:href="#DejaVuSans-100"/>
     <use x="265.869141" xlink:href="#DejaVuSans-101"/>
     <use x="327.392578" xlink:href="#DejaVuSans-114"/>
     <use x="366.755859" xlink:href="#DejaVuSans-58"/>
     <use x="400.447266" xlink:href="#DejaVuSans-32"/>
     <use x="432.234375" xlink:href="#DejaVuSans-71"/>
    </g>
   </g>
   <g id="text_17">
    <!-- Measurements: W6C -->
    <g transform="translate(85.03937 85.03937)scale(0.1 -0.1)">
     <defs>
      <path d="M 9.8125 72.90625 
L 24.515625 72.90625 
L 43.109375 23.296875 
L 61.8125 72.90625 
L 76.515625 72.90625 
L 76.515625 0 
L 66.890625 0 
L 66.890625 64.015625 
L 48.09375 14.015625 
L 38.1875 14.015625 
L 19.390625 64.015625 
L 19.390625 0 
L 9.8125 0 
z
" id="DejaVuSans-77"/>
      <path d="M 44.28125 53.078125 
L 44.28125 44.578125 
Q 40.484375 46.53125 36.375 47.5 
Q 32.28125 48.484375 27.875 48.484375 
Q 21.1875 48.484375 17.84375 46.4375 
Q 14.5 44.390625 14.5 40.28125 
Q 14.5 37.15625 16.890625 35.375 
Q 19.28125 33.59375 26.515625 31.984375 
L 29.59375 31.296875 
Q 39.15625 29.25 43.1875 25.515625 
Q 47.21875 21.78125 47.21875 15.09375 
Q 47.21875 7.46875 41.1875 3.015625 
Q 35.15625 -1.421875 24.609375 -1.421875 
Q 20.21875 -1.421875 15.453125 -0.5625 
Q 10.6875 0.296875 5.421875 2 
L 5.421875 11.28125 
Q 10.40625 8.6875 15.234375 7.390625 
Q 20.0625 6.109375 24.8125 6.109375 
Q 31.15625 6.109375 34.5625 8.28125 
Q 37.984375 10.453125 37.984375 14.40625 
Q 37.984375 18.0625 35.515625 20.015625 
Q 33.0625 21.96875 24.703125 23.78125 
L 21.578125 24.515625 
Q 13.234375 26.265625 9.515625 29.90625 
Q 5.8125 33.546875 5.8125 39.890625 
Q 5.8125 47.609375 11.28125 51.796875 
Q 16.75 56 26.8125 56 
Q 31.78125 56 36.171875 55.265625 
Q 40.578125 54.546875 44.28125 53.078125 
z
" id="DejaVuSans-115"/>
      <path d="M 8.5 21.578125 
L 8.5 54.6875 
L 17.484375 54.6875 
L 17.484375 21.921875 
Q 17.484375 14.15625 20.5 10.265625 
Q 23.53125 6.390625 29.59375 6.390625 
Q 36.859375 6.390625 41.078125 11.03125 
Q 45.3125 15.671875 45.3125 23.6875 
L 45.3125 54.6875 
L 54.296875 54.6875 
L 54.296875 0 
L 45.3125 0 
L 45.3125 8.40625 
Q 42.046875 3.421875 37.71875 1 
Q 33.40625 -1.421875 27.6875 -1.421875 
Q 18.265625 -1.421875 13.375 4.4375 
Q 8.5 10.296875 8.5 21.578125 
z
M 31.109375 56 
z
" id="DejaVuSans-117"/>
      <path d="M 52 44.1875 
Q 55.375 50.25 60.0625 53.125 
Q 64.75 56 71.09375 56 
Q 79.640625 56 84.28125 50.015625 
Q 88.921875 44.046875 88.921875 33.015625 
L 88.921875 0 
L 79.890625 0 
L 79.890625 32.71875 
Q 79.890625 40.578125 77.09375 44.375 
Q 74.3125 48.1875 68.609375 48.1875 
Q 61.625 48.1875 57.5625 43.546875 
Q 53.515625 38.921875 53.515625 30.90625 
L 53.515625 0 
L 44.484375 0 
L 44.484375 32.71875 
Q 44.484375 40.625 41.703125 44.40625 
Q 38.921875 48.1875 33.109375 48.1875 
Q 26.21875 48.1875 22.15625 43.53125 
Q 18.109375 38.875 18.109375 30.90625 
L 18.109375 0 
L 9.078125 0 
L 9.078125 54.6875 
L 18.109375 54.6875 
L 18.109375 46.1875 
Q 21.1875 51.21875 25.484375 53.609375 
Q 29.78125 56 35.6875 56 
Q 41.65625 56 45.828125 52.96875 
Q 50 49.953125 52 44.1875 
z
" id="DejaVuSans-109"/>
      <path d="M 3.328125 72.90625 
L 13.28125 72.90625 
L 28.609375 11.28125 
L 43.890625 72.90625 
L 54.984375 72.90625 
L 70.3125 11.28125 
L 85.59375 72.90625 
L 95.609375 72.90625 
L 77.296875 0 
L 64.890625 0 
L 49.515625 63.28125 
L 33.984375 0 
L 21.578125 0 
z
" id="DejaVuSans-87"/>
      <path d="M 33.015625 40.375 
Q 26.375 40.375 22.484375 35.828125 
Q 18.609375 31.296875 18.609375 23.390625 
Q 18.609375 15.53125 22.484375 10.953125 
Q 26.375 6.390625 33.015625 6.390625 
Q 39.65625 6.390625 43.53125 10.953125 
Q 47.40625 15.53125 47.40625 23.390625 
Q 47.40625 31.296875 43.53125 35.828125 
Q 39.65625 40.375 33.015625 40.375 
z
M 52.59375 71.296875 
L 52.59375 62.3125 
Q 48.875 64.0625 45.09375 64.984375 
Q 41.3125 65.921875 37.59375 65.921875 
Q 27.828125 65.921875 22.671875 59.328125 
Q 17.53125 52.734375 16.796875 39.40625 
Q 19.671875 43.65625 24.015625 45.921875 
Q 28.375 48.1875 33.59375 48.1875 
Q 44.578125 48.1875 50.953125 41.515625 
Q 57.328125 34.859375 57.328125 23.390625 
Q 57.328125 12.15625 50.6875 5.359375 
Q 44.046875 -1.421875 33.015625 -1.421875 
Q 20.359375 -1.421875 13.671875 8.265625 
Q 6.984375 17.96875 6.984375 36.375 
Q 6.984375 53.65625 15.1875 63.9375 
Q 23.390625 74.21875 37.203125 74.21875 
Q 40.921875 74.21875 44.703125 73.484375 
Q 48.484375 72.75 52.59375 71.296875 
z
" id="DejaVuSans-54"/>
     </defs>
     <use xlink:href="#DejaVuSans-77"/>
     <use x="86.279297" xlink:href="#DejaVuSans-101"/>
     <use x="147.802734" xlink:href="#DejaVuSans-97"/>
     <use x="209.082031" xlink:href="#DejaVuSans-115"/>
     <use x="261.181641" xlink:href="#DejaVuSans-117"/>
     <use x="324.560547" xlink:href="#DejaVuSans-114"/>
     <use x="363.423828" xlink:href="#DejaVuSans-101"/>
     <use x="424.947266" xlink:href="#DejaVuSans-109"/>
     <use x="522.359375" xlink:href="#DejaVuSans-101"/>
     <use x="583.882812" xlink:href="#DejaVuSans-110"/>
     <use x="647.261719" xlink:href="#DejaVuSans-116"/>
     <use x="686.470703" xlink:href="#DejaVuSans-115"/>
     <use x="738.570312" xlink:href="#DejaVuSans-58"/>
     <use x="772.261719" xlink:href="#DejaVuSans-32"/>
     <use x="804.048828" xlink:href="#DejaVuSans-87"/>
     <use x="902.925781" xlink:href="#DejaVuSans-54"/>
     <use x="966.548828" xlink:href="#DejaVuSans-67"/>
    </g>
   </g>
   <g id="text_18">
    <!-- Pattern: My beautiful pattern -->
    <g transform="translate(85.03937 113.385827)scale(0.1 -0.1)">
     <defs>
      <path d="M 19.671875 64.796875 
L 19.671875 37.40625 
L 32.078125 37.40625 
Q 38.96875 37.40625 42.71875 40.96875 
Q 46.484375 44.53125 46.484375 51.125 
Q 46.484375 57.671875 42.71875 61.234375 
Q 38.96875 64.796875 32.078125 64.796875 
z
M 9.8125 72.90625 
L 32.078125 72.90625 
Q 44.34375 72.90625 50.609375 67.359375 
Q 56.890625 61.8125 56.890625 51.125 
Q 56.890625 40.328125 50.609375 34.8125 
Q 44.34375 29.296875 32.078125 29.296875 
L 19.671875 29.296875 
L 19.671875 0 
L 9.8125 0 
z
" id="DejaVuSans-80"/>
      <path d="M 48.6875 27.296875 
Q 48.6875 37.203125 44.609375 42.84375 
Q 40.53125 48.484375 33.40625 48.484375 
Q 26.265625 48.484375 22.1875 42.84375 
Q 18.109375 37.203125 18.109375 27.296875 
Q 18.109375 17.390625 22.1875 11.75 
Q 26.265625 6.109375 33.40625 6.109375 
Q 40.53125 6.109375 44.609375 11.75 
Q 48.6875 17.390625 48.6875 27.296875 
z
M 18.109375 46.390625 
Q 20.953125 51.265625 25.265625 53.625 
Q 29.59375 56 35.59375 56 
Q 45.5625 56 51.78125 48.09375 
Q 58.015625 40.1875 58.015625 27.296875 
Q 58.015625 14.40625 51.78125 6.484375 
Q 45.5625 -1.421875 35.59375 -1.421875 
Q 29.59375 -1.421875 25.265625 0.953125 
Q 20.953125 3.328125 18.109375 8.203125 
L 18.109375 0 
L 9.078125 0 
L 9.078125 75.984375 
L 18.109375 75.984375 
z
" id="DejaVuSans-98"/>
      <path d="M 37.109375 75.984375 
L 37.109375 68.5 
L 28.515625 68.5 
Q 23.6875 68.5 21.796875 66.546875 
Q 19.921875 64.59375 19.921875 59.515625 
L 19.921875 54.6875 
L 34.71875 54.6875 
L 34.71875 47.703125 
L 19.921875 47.703125 
L 19.921875 0 
L 10.890625 0 
L 10.890625 47.703125 
L 2.296875 47.703125 
L 2.296875 54.6875 
L 10.890625 54.6875 
L 10.890625 58.5 
Q 10.890625 67.625 15.140625 71.796875 
Q 19.390625 75.984375 28.609375 75.984375 
z
" id="DejaVuSans-102"/>
     </defs>
     <use xlink:href="#DejaVuSans-80"/>
     <use x="55.802734" xlink:href="#DejaVuSans-97"/>
     <use x="117.082031" xlink:href="#DejaVuSans-116"/>
     <use x="156.291016" xlink:href="#DejaVuSans-116"/>
     <use x="195.5" xlink:href="#DejaVuSans-101"/>
     <use x="257.023438" xlink:href="#DejaVuSans-114"/>
     <use x="296.386719" xlink:href="#DejaVuSans-110"/>
     <use x="359.765625" xlink:href="#DejaVuSans-58"/>
     <use x="393.457031" xlink:href="#DejaVuSans-32"/>
     <use x="425.244141" xlink:href="#DejaVuSans-77"/>
     <use x="511.523438" xlink:href="#DejaVuSans-121"/>
     <use x="570.703125" xlink:href="#DejaVuSans-32"/>
     <use x="602.490234" xlink:href="#DejaVuSans-98"/>
     <use x="665.966797" xlink:href="#DejaVuSans-101"/>
     <use x="727.490234" xlink:href="#DejaVuSans-97"/>
     <use x="788.769531" xlink:href="#DejaVuSans-117"/>
     <use x="852.148438" xlink:href="#DejaVuSans-116"/>
     <use x="891.357422" xlink:href="#DejaVuSans-105"/>
     <use x="919.140625" xlink:href="#DejaVuSans-102"/>
     <use x="954.345703" xlink:href="#DejaVuSans-117"/>
     <use x="1017.724609" xlink:href="#DejaVuSans-108"/>
     <use x="1045.507812" xlink:href="#DejaVuSans-32"/>
     <use x="1077.294922" xlink:href="#DejaVuSans-112"/>
     <use x="1140.771484" xlink:href="#DejaVuSans-97"/>
     <use x="1202.050781" xlink:href="#DejaVuSans-116"/>
     <use x="1241.259766" xlink:href="#DejaVuSans-116"/>
     <use x="1280.46875" xlink:href="#DejaVuSans-101"/>
     <use x="1341.992188" xlink:href="#DejaVuSans-114"/>
     <use x="1381.355469" xlink:href="#DejaVuSans-110"/>
    </g>
   </g>
   <g id="text_19">
    <!-- GRAINLINE -->
    <g transform="translate(378.349926 778.126415)rotate(-90)scale(0.1 -0.1)">
     <defs>
      <path d="M 44.390625 34.1875 
Q 47.5625 33.109375 50.5625 29.59375 
Q 53.5625 26.078125 56.59375 19.921875 
L 66.609375 0 
L 56 0 
L 46.6875 18.703125 
Q 43.0625 26.03125 39.671875 28.421875 
Q 36.28125 30.8125 30.421875 30.8125 
L 19.671875 30.8125 
L 19.671875 0 
L 9.8125 0 
L 9.8125 72.90625 
L 32.078125 72.90625 
Q 44.578125 72.90625 50.734375 67.671875 
Q 56.890625 62.453125 56.890625 51.90625 
Q 56.890625 45.015625 53.6875 40.46875 
Q 50.484375 35.9375 44.390625 34.1875 
z
M 19.671875 64.796875 
L 19.671875 38.921875 
L 32.078125 38.921875 
Q 39.203125 38.921875 42.84375 42.21875 
Q 46.484375 45.515625 46.484375 51.90625 
Q 46.484375 58.296875 42.84375 61.546875 
Q 39.203125 64.796875 32.078125 64.796875 
z
" id="DejaVuSans-82"/>
      <path d="M 9.8125 72.90625 
L 19.671875 72.90625 
L 19.671875 0 
L 9.8125 0 
z
" id="DejaVuSans-73"/>
      <path d="M 9.8125 72.90625 
L 23.09375 72.90625 
L 55.421875 11.921875 
L 55.421875 72.90625 
L 64.984375 72.90625 
L 64.984375 0 
L 51.703125 0 
L 19.390625 60.984375 
L 19.390625 0 
L 9.8125 0 
z
" id="DejaVuSans-78"/>
      <path d="M 9.8125 72.90625 
L 19.671875 72.90625 
L 19.671875 8.296875 
L 55.171875 8.296875 
L 55.171875 0 
L 9.8125 0 
z
" id="DejaVuSans-76"/>
     </defs>
     <use xlink:href="#DejaVuSans-71"/>
     <use x="77.490234" xlink:href="#DejaVuSans-82"/>
     <use x="142.972656" xlink:href="#DejaVuSans-65"/>
     <use x="211.380859" xlink:href="#DejaVuSans-73"/>
     <use x="240.873047" xlink:href="#DejaVuSans-78"/>
     <use x="315.677734" xlink:href="#DejaVuSans-76"/>
     <use x="371.390625" xlink:href="#DejaVuSans-73"/>
     <use x="400.882812" xlink:href="#DejaVuSans-78"/>
     <use x="475.6875" xlink:href="#DejaVuSans-69"/>
    </g>
   </g>
   <g id="text_20">
    <!-- FOLD LINE -->
    <g transform="translate(172.838115 777.378759)rotate(-90)scale(0.1 -0.1)">
     <defs>
      <path d="M 39.40625 66.21875 
Q 28.65625 66.21875 22.328125 58.203125 
Q 16.015625 50.203125 16.015625 36.375 
Q 16.015625 22.609375 22.328125 14.59375 
Q 28.65625 6.59375 39.40625 6.59375 
Q 50.140625 6.59375 56.421875 14.59375 
Q 62.703125 22.609375 62.703125 36.375 
Q 62.703125 50.203125 56.421875 58.203125 
Q 50.140625 66.21875 39.40625 66.21875 
z
M 39.40625 74.21875 
Q 54.734375 74.21875 63.90625 63.9375 
Q 73.09375 53.65625 73.09375 36.375 
Q 73.09375 19.140625 63.90625 8.859375 
Q 54.734375 -1.421875 39.40625 -1.421875 
Q 24.03125 -1.421875 14.8125 8.828125 
Q 5.609375 19.09375 5.609375 36.375 
Q 5.609375 53.65625 14.8125 63.9375 
Q 24.03125 74.21875 39.40625 74.21875 
z
" id="DejaVuSans-79"/>
     </defs>
     <use xlink:href="#DejaVuSans-70"/>
     <use x="57.519531" xlink:href="#DejaVuSans-79"/>
     <use x="136.230469" xlink:href="#DejaVuSans-76"/>
     <use x="191.943359" xlink:href="#DejaVuSans-68"/>
     <use x="268.945312" xlink:href="#DejaVuSans-32"/>
     <use x="300.732422" xlink:href="#DejaVuSans-76"/>
     <use x="356.445312" xlink:href="#DejaVuSans-73"/>
     <use x="385.9375" xlink:href="#DejaVuSans-78"/>
     <use x="460.742188" xlink:href="#DejaVuSans-69"/>
    </g>
   </g>
   <g id="text_21">
    <!-- FOLD LINE -->
    <g transform="translate(1131.098893 724.983446)rotate(-270)scale(0.1 -0.1)">
     <use xlink:href="#DejaVuSans-70"/>
     <use x="57.519531" xlink:href="#DejaVuSans-79"/>
     <use x="136.230469" xlink:href="#DejaVuSans-76"/>
     <use x="191.943359" xlink:href="#DejaVuSans-68"/>
     <use x="268.945312" xlink:href="#DejaVuSans-32"/>
     <use x="300.732422" xlink:href="#DejaVuSans-76"/>
     <use x="356.445312" xlink:href="#DejaVuSans-73"/>
     <use x="385.9375" xlink:href="#DejaVuSans-78"/>
     <use x="460.742188" xlink:href="#DejaVuSans-69"/>
    </g>
   </g>
   <g id="text_22">
    <!-- FRONT -->
    <g transform="translate(890.006145 909.845989)scale(0.1 -0.1)">
     <defs>
      <path d="M -0.296875 72.90625 
L 61.375 72.90625 
L 61.375 64.59375 
L 35.5 64.59375 
L 35.5 0 
L 25.59375 0 
L 25.59375 64.59375 
L -0.296875 64.59375 
z
" id="DejaVuSans-84"/>
     </defs>
     <use xlink:href="#DejaVuSans-70"/>
     <use x="57.519531" xlink:href="#DejaVuSans-82"/>
     <use x="127.001953" xlink:href="#DejaVuSans-79"/>
     <use x="205.712891" xlink:href="#DejaVuSans-78"/>
     <use x="280.517578" xlink:href="#DejaVuSans-84"/>
    </g>
   </g>
   <g id="text_23">
    <!-- BACK -->
    <g transform="translate(383.3168 909.845989)scale(0.1 -0.1)">
     <defs>
      <path d="M 9.8125 72.90625 
L 19.671875 72.90625 
L 19.671875 42.09375 
L 52.390625 72.90625 
L 65.09375 72.90625 
L 28.90625 38.921875 
L 67.671875 0 
L 54.6875 0 
L 19.671875 35.109375 
L 19.671875 0 
L 9.8125 0 
z
" id="DejaVuSans-75"/>
     </defs>
     <use xlink:href="#DejaVuSans-66"/>
     <use x="68.603516" xlink:href="#DejaVuSans-65"/>
     <use x="135.261719" xlink:href="#DejaVuSans-67"/>
     <use x="205.085938" xlink:href="#DejaVuSans-75"/>
    </g>
   </g>
   <g id="text_24">
    <!-- HIP LINE -->
    <g transform="translate(630.968504 439.370079)scale(0.1 -0.1)">
     <use xlink:href="#DejaVuSans-72"/>
     <use x="75.195312" xlink:href="#DejaVuSans-73"/>
     <use x="104.6875" xlink:href="#DejaVuSans-80"/>
     <use x="164.990234" xlink:href="#DejaVuSans-32"/>
     <use x="196.777344" xlink:href="#DejaVuSans-76"/>
     <use x="252.490234" xlink:href="#DejaVuSans-73"/>
     <use x="281.982422" xlink:href="#DejaVuSans-78"/>
     <use x="356.787109" xlink:href="#DejaVuSans-69"/>
    </g>
   </g>
   <g id="text_25">
    <!-- WAIST LINE -->
    <g transform="translate(623.426316 127.559055)scale(0.1 -0.1)">
     <use xlink:href="#DejaVuSans-87"/>
     <use x="93.376953" xlink:href="#DejaVuSans-65"/>
     <use x="161.785156" xlink:href="#DejaVuSans-73"/>
     <use x="191.277344" xlink:href="#DejaVuSans-83"/>
     <use x="254.753906" xlink:href="#DejaVuSans-84"/>
     <use x="315.837891" xlink:href="#DejaVuSans-32"/>
     <use x="347.625" xlink:href="#DejaVuSans-76"/>
     <use x="403.337891" xlink:href="#DejaVuSans-73"/>
     <use x="432.830078" xlink:href="#DejaVuSans-78"/>
     <use x="507.634766" xlink:href="#DejaVuSans-69"/>
    </g>
   </g>
   <g id="text_26">
    <!-- 5 cm -->
    <g transform="translate(79.388848 1148.031496)scale(0.16 -0.16)">
     <defs>
      <path d="M 10.796875 72.90625 
L 49.515625 72.90625 
L 49.515625 64.59375 
L 19.828125 64.59375 
L 19.828125 46.734375 
Q 21.96875 47.46875 24.109375 47.828125 
Q 26.265625 48.1875 28.421875 48.1875 
Q 40.625 48.1875 47.75 41.5 
Q 54.890625 34.8125 54.890625 23.390625 
Q 54.890625 11.625 47.5625 5.09375 
Q 40.234375 -1.421875 26.90625 -1.421875 
Q 22.3125 -1.421875 17.546875 -0.640625 
Q 12.796875 0.140625 7.71875 1.703125 
L 7.71875 11.625 
Q 12.109375 9.234375 16.796875 8.0625 
Q 21.484375 6.890625 26.703125 6.890625 
Q 35.15625 6.890625 40.078125 11.328125 
Q 45.015625 15.765625 45.015625 23.390625 
Q 45.015625 31 40.078125 35.4375 
Q 35.15625 39.890625 26.703125 39.890625 
Q 22.75 39.890625 18.8125 39.015625 
Q 14.890625 38.140625 10.796875 36.28125 
z
" id="DejaVuSans-53"/>
      <path d="M 48.78125 52.59375 
L 48.78125 44.1875 
Q 44.96875 46.296875 41.140625 47.34375 
Q 37.3125 48.390625 33.40625 48.390625 
Q 24.65625 48.390625 19.8125 42.84375 
Q 14.984375 37.3125 14.984375 27.296875 
Q 14.984375 17.28125 19.8125 11.734375 
Q 24.65625 6.203125 33.40625 6.203125 
Q 37.3125 6.203125 41.140625 7.25 
Q 44.96875 8.296875 48.78125 10.40625 
L 48.78125 2.09375 
Q 45.015625 0.34375 40.984375 -0.53125 
Q 36.96875 -1.421875 32.421875 -1.421875 
Q 20.0625 -1.421875 12.78125 6.34375 
Q 5.515625 14.109375 5.515625 27.296875 
Q 5.515625 40.671875 12.859375 48.328125 
Q 20.21875 56 33.015625 56 
Q 37.15625 56 41.109375 55.140625 
Q 45.0625 54.296875 48.78125 52.59375 
z
" id="DejaVuSans-99"/>
     </defs>
     <use xlink:href="#DejaVuSans-53"/>
     <use x="63.623047" xlink:href="#DejaVuSans-32"/>
     <use x="95.410156" xlink:href="#DejaVuSans-99"/>
     <use x="150.390625" xlink:href="#DejaVuSans-109"/>
    </g>
   </g>
   <g id="text_27">
    <!-- 5 cm -->
    <g transform="translate(79.388848 1148.031496)scale(0.16 -0.16)">
     <use xlink:href="#DejaVuSans-53"/>
     <use x="63.623047" xlink:href="#DejaVuSans-32"/>
     <use x="95.410156" xlink:href="#DejaVuSans-99"/>
     <use x="150.390625" xlink:href="#DejaVuSans-109"/>
    </g>
   </g>
  </g>
 </g>
 <defs>
  <clipPath id="p31840ed752">
   <rect height="1190.551181" width="1303.937008" x="0" y="0"/>
  </clipPath>
 </defs>
</svg>
