<?xml version="1.0" encoding="utf-8" standalone="no"?>
<!DOCTYPE svg PUBLIC "-//W3C//DTD SVG 1.1//EN"
  "http://www.w3.org/Graphics/SVG/1.1/DTD/svg11.dtd">
<!-- Created with matplotlib (https://matplotlib.org/) -->
<svg height="1842.519685pt" version="1.1" viewBox="0 0 2012.598425 1842.519685" width="2012.598425pt" xmlns="http://www.w3.org/2000/svg" xmlns:xlink="http://www.w3.org/1999/xlink">
 <metadata>
  <rdf:RDF xmlns:cc="http://creativecommons.org/ns#" xmlns:dc="http://purl.org/dc/elements/1.1/" xmlns:rdf="http://www.w3.org/1999/02/22-rdf-syntax-ns#">
   <cc:Work>
    <dc:type rdf:resource="http://purl.org/dc/dcmitype/StillImage"/>
    <dc:date>2023-02-05T16:32:41.570261</dc:date>
    <dc:format>image/svg+xml</dc:format>
    <dc:creator>
     <cc:Agent>
      <dc:title>Matplotlib v3.3.4, https://matplotlib.org/</dc:title>
     </cc:Agent>
    </dc:creator>
   </cc:Work>
  </rdf:RDF>
 </metadata>
 <defs>
  <style type="text/css">*{stroke-linecap:butt;stroke-linejoin:round;}</style>
 </defs>
 <g id="figure_1">
  <g id="patch_1">
   <path d="M 0 1842.519685 
L 2012.598425 1842.519685 
L 2012.598425 0 
L 0 0 
z
" style="fill:#ffffff;"/>
  </g>
  <g id="axes_1">
   <g id="patch_2">
    <path d="M 0 1842.519685 
L 2012.598425 1842.519685 
L 2012.598425 0 
L 0 0 
z
" style="fill:#ffffff;"/>
   </g>
   <g id="patch_3">
    <path clip-path="url(#p4edf1aae3e)" d="M 116.220472 1700.787402 
L 116.220472 992.125984 
L 116.220472 992.125984 
L 120.607236 991.416113 
L 124.956481 990.668722 
L 129.268207 989.883811 
L 133.542413 989.061382 
L 137.7791 988.201433 
L 141.978267 987.303965 
L 146.139915 986.368977 
L 150.264044 985.396471 
L 154.350654 984.386445 
L 158.399744 983.338899 
L 162.411315 982.253834 
L 166.385366 981.13125 
L 170.321899 979.971147 
L 174.220912 978.773524 
L 178.082405 977.538383 
L 181.90638 976.265721 
L 185.692835 974.955541 
L 189.441771 973.607841 
L 193.153187 972.222622 
L 196.827084 970.799883 
L 200.463462 969.339625 
L 204.062321 967.841848 
L 207.62366 966.306552 
L 211.14748 964.733736 
L 214.63378 963.123401 
L 218.082562 961.475546 
L 221.493823 959.790173 
L 224.867566 958.06728 
L 228.203789 956.306868 
L 231.502494 954.508936 
L 234.763678 952.673485 
L 237.987344 950.800515 
L 241.17349 948.890025 
L 244.322117 946.942016 
L 247.433224 944.956488 
L 250.506812 942.933441 
L 253.542881 940.872874 
L 256.541431 938.774788 
L 259.502461 936.639182 
L 262.425972 934.466058 
L 265.311963 932.255414 
L 268.160436 930.00725 
L 270.971389 927.721568 
L 273.744822 925.398366 
L 276.480737 923.037644 
L 279.179132 920.639404 
L 281.840008 918.203644 
L 284.463364 915.730365 
L 287.049201 913.219566 
L 289.597519 910.671248 
L 292.108318 908.085411 
L 294.581597 905.462055 
L 297.017357 902.801179 
L 299.415597 900.102784 
L 301.776318 897.36687 
L 304.09952 894.593436 
L 306.385203 891.782483 
L 308.633366 888.934011 
L 310.84401 886.048019 
L 313.017135 883.124508 
L 315.152741 880.163478 
L 317.250827 877.164928 
L 319.311393 874.128859 
L 321.334441 871.055271 
L 323.319969 867.944164 
L 325.267978 864.795537 
L 327.178468 861.609391 
L 329.051438 858.385725 
L 330.886889 855.124541 
L 332.68482 851.825837 
L 334.445233 848.489613 
L 336.168126 845.115871 
L 337.853499 841.704609 
L 339.501354 838.255828 
L 341.111689 834.769527 
L 342.684504 831.245707 
L 344.219801 827.684368 
L 345.717578 824.085509 
L 347.177836 820.449131 
L 348.600574 816.775234 
L 349.985794 813.063818 
L 351.333493 809.314882 
L 352.643674 805.528427 
L 353.916335 801.704453 
L 355.151477 797.842959 
L 356.3491 793.943946 
L 357.509203 790.007414 
L 358.631787 786.033362 
L 359.716852 782.021791 
L 360.764397 777.972701 
L 361.774423 773.886091 
L 362.74693 769.761962 
L 363.681918 765.600314 
L 364.579386 761.401147 
L 365.439335 757.16446 
L 366.261764 752.890254 
L 367.046674 748.578528 
L 367.794065 744.229284 
L 368.503937 739.84252 
L 425.19685 240.944882 
L 562.394236 229.017636 
L 609.448819 411.023622 
L 618.577823 223.255217 
L 977.952756 184.251969 
L 977.952756 184.251969 
L 978.61936 189.850986 
L 979.278202 195.45027 
L 979.929285 201.049819 
L 980.572606 206.649633 
L 981.208167 212.249713 
L 981.835967 217.850058 
L 982.456006 223.450668 
L 983.068284 229.051545 
L 983.672802 234.652686 
L 984.269559 240.254093 
L 984.858555 245.855766 
L 985.439791 251.457704 
L 986.013266 257.059907 
L 986.57898 262.662376 
L 987.136933 268.265111 
L 987.687126 273.86811 
L 988.229558 279.471376 
L 988.764229 285.074907 
L 989.29114 290.678703 
L 989.810289 296.282765 
L 990.321678 301.887092 
L 990.825307 307.491685 
L 991.321174 313.096543 
L 991.809281 318.701666 
L 992.289627 324.307055 
L 992.762212 329.91271 
L 993.227037 335.51863 
L 993.684101 341.124815 
L 994.133404 346.731266 
L 994.574947 352.337983 
L 995.008728 357.944965 
L 995.434749 363.552212 
L 995.85301 369.159725 
L 996.263509 374.767503 
L 996.666248 380.375547 
L 997.061226 385.983856 
L 997.448443 391.592431 
L 997.8279 397.201271 
L 998.199596 402.810377 
L 998.563531 408.419748 
L 998.919705 414.029384 
L 999.268119 419.639286 
L 999.608772 425.249454 
L 999.941664 430.859887 
L 1000.266796 436.470585 
L 1000.584166 442.081549 
L 1000.893776 447.692778 
L 1001.195626 453.304273 
L 1001.489714 458.916034 
L 1001.776042 464.528059 
L 1002.054609 470.140351 
L 1002.325416 475.752907 
L 1002.588461 481.365729 
L 1002.843746 486.978817 
L 1003.09127 492.59217 
L 1003.331034 498.205789 
L 1003.563037 503.819673 
L 1003.787279 509.433822 
L 1004.00376 515.048237 
L 1004.21248 520.662918 
L 1004.41344 526.277864 
L 1004.606639 531.893075 
L 1004.792078 537.508552 
L 1004.969755 543.124294 
L 1005.139672 548.740302 
L 1005.301828 554.356575 
L 1005.456224 559.973114 
L 1005.602859 565.589918 
L 1005.741733 571.206988 
L 1005.872846 576.824323 
L 1005.996198 582.441924 
L 1006.11179 588.05979 
L 1006.219621 593.677921 
L 1006.319692 599.296318 
L 1006.412001 604.914981 
L 1006.49655 610.533908 
L 1006.573338 616.153102 
L 1006.642366 621.772561 
L 1006.703632 627.392285 
L 1006.757138 633.012275 
L 1006.802883 638.63253 
L 1006.840868 644.253051 
L 1006.871092 649.873837 
L 1006.893555 655.494889 
L 1006.908257 661.116206 
L 1006.915199 666.737788 
L 1006.914379 672.359636 
L 1006.9058 677.98175 
L 1006.889459 683.604129 
L 1006.865358 689.226773 
L 1006.833495 694.849683 
L 1006.793873 700.472859 
L 1006.746489 706.0963 
L 1006.691345 711.720006 
L 1006.62844 717.343978 
L 1006.557774 722.968215 
L 1006.479348 728.592718 
L 1006.393161 734.217486 
L 1006.299213 739.84252 
L 1006.299213 739.84252 
L 1006.299213 1700.787402 
z
" style="fill:#e6e6e6;stroke:#808080;stroke-linejoin:miter;"/>
   </g>
   <g id="patch_4">
    <path clip-path="url(#p4edf1aae3e)" d="M 1006.299213 1700.787402 
L 1896.377953 1700.787402 
L 1896.377953 992.125984 
L 1896.377953 992.125984 
L 1892.792866 990.614436 
L 1889.228937 989.081728 
L 1885.686168 987.527863 
L 1882.164556 985.952838 
L 1878.664103 984.356655 
L 1875.184809 982.739314 
L 1871.726674 981.100814 
L 1868.289696 979.441155 
L 1864.873878 977.760338 
L 1861.479218 976.058363 
L 1858.105717 974.335228 
L 1854.753374 972.590936 
L 1851.422189 970.825484 
L 1848.112164 969.038874 
L 1844.823296 967.231106 
L 1841.555588 965.402179 
L 1838.309038 963.552093 
L 1835.083646 961.680849 
L 1831.879413 959.788447 
L 1828.696339 957.874885 
L 1825.534423 955.940166 
L 1822.393665 953.984287 
L 1819.274067 952.007251 
L 1816.175626 950.009055 
L 1813.098345 947.989701 
L 1810.042222 945.949189 
L 1807.007257 943.887518 
L 1803.993451 941.804688 
L 1801.000804 939.7007 
L 1798.029315 937.575553 
L 1795.078984 935.429248 
L 1792.149812 933.261784 
L 1789.241799 931.073161 
L 1786.354945 928.86338 
L 1783.489248 926.632441 
L 1780.644711 924.380343 
L 1777.821332 922.107086 
L 1775.019111 919.812671 
L 1772.238049 917.497097 
L 1769.478146 915.160365 
L 1766.739401 912.802474 
L 1764.021815 910.423425 
L 1761.325387 908.023217 
L 1758.650118 905.60185 
L 1755.996008 903.159325 
L 1753.363055 900.695642 
L 1750.751262 898.2108 
L 1748.160627 895.704799 
L 1745.591151 893.17764 
L 1743.042833 890.629322 
L 1740.515674 888.059845 
L 1738.009673 885.46921 
L 1735.524831 882.857417 
L 1733.061147 880.224465 
L 1730.618622 877.570354 
L 1728.197256 874.895085 
L 1725.797048 872.198657 
L 1723.417998 869.481071 
L 1721.060107 866.742326 
L 1718.723375 863.982423 
L 1716.407801 861.201361 
L 1714.113386 858.399141 
L 1711.84013 855.575762 
L 1709.588031 852.731224 
L 1707.357092 849.865528 
L 1705.147311 846.978673 
L 1702.958689 844.07066 
L 1700.791225 841.141488 
L 1698.644919 838.191158 
L 1696.519773 835.219669 
L 1694.415785 832.227021 
L 1692.332955 829.213215 
L 1690.271284 826.178251 
L 1688.230771 823.122128 
L 1686.211417 820.044846 
L 1684.213222 816.946406 
L 1682.236185 813.826807 
L 1680.280307 810.68605 
L 1678.345587 807.524134 
L 1676.432026 804.341059 
L 1674.539623 801.136826 
L 1672.668379 797.911435 
L 1670.818293 794.664885 
L 1668.989366 791.397176 
L 1667.181598 788.108309 
L 1665.394988 784.798283 
L 1663.629537 781.467099 
L 1661.885244 778.114756 
L 1660.16211 774.741254 
L 1658.460134 771.346594 
L 1656.779317 767.930776 
L 1655.119659 764.493799 
L 1653.481159 761.035663 
L 1651.863817 757.556369 
L 1650.267634 754.055916 
L 1648.69261 750.534305 
L 1647.138744 746.991535 
L 1645.606037 743.427607 
L 1644.094488 739.84252 
L 1587.401575 127.559055 
L 1387.30773 149.015231 
L 1403.149606 581.102362 
L 1330.951063 154.795402 
L 1034.645669 184.251969 
L 1034.645669 184.251969 
L 1033.979066 189.850986 
L 1033.320223 195.45027 
L 1032.669141 201.049819 
L 1032.025819 206.649633 
L 1031.390259 212.249713 
L 1030.762459 217.850058 
L 1030.142419 223.450668 
L 1029.530141 229.051545 
L 1028.925623 234.652686 
L 1028.328866 240.254093 
L 1027.73987 245.855766 
L 1027.158634 251.457704 
L 1026.585159 257.059907 
L 1026.019445 262.662376 
L 1025.461492 268.265111 
L 1024.911299 273.86811 
L 1024.368867 279.471376 
L 1023.834196 285.074907 
L 1023.307286 290.678703 
L 1022.788136 296.282765 
L 1022.276747 301.887092 
L 1021.773119 307.491685 
L 1021.277251 313.096543 
L 1020.789144 318.701666 
L 1020.308798 324.307055 
L 1019.836213 329.91271 
L 1019.371388 335.51863 
L 1018.914324 341.124815 
L 1018.465021 346.731266 
L 1018.023479 352.337983 
L 1017.589697 357.944965 
L 1017.163676 363.552212 
L 1016.745416 369.159725 
L 1016.334916 374.767503 
L 1015.932177 380.375547 
L 1015.537199 385.983856 
L 1015.149982 391.592431 
L 1014.770525 397.201271 
L 1014.398829 402.810377 
L 1014.034894 408.419748 
L 1013.67872 414.029384 
L 1013.330306 419.639286 
L 1012.989653 425.249454 
L 1012.656761 430.859887 
L 1012.33163 436.470585 
L 1012.014259 442.081549 
L 1011.704649 447.692778 
L 1011.402799 453.304273 
L 1011.108711 458.916034 
L 1010.822383 464.528059 
L 1010.543816 470.140351 
L 1010.27301 475.752907 
L 1010.009964 481.365729 
L 1009.754679 486.978817 
L 1009.507155 492.59217 
L 1009.267391 498.205789 
L 1009.035389 503.819673 
L 1008.811147 509.433822 
L 1008.594665 515.048237 
L 1008.385945 520.662918 
L 1008.184985 526.277864 
L 1007.991786 531.893075 
L 1007.806347 537.508552 
L 1007.62867 543.124294 
L 1007.458753 548.740302 
L 1007.296597 554.356575 
L 1007.142201 559.973114 
L 1006.995567 565.589918 
L 1006.856693 571.206988 
L 1006.725579 576.824323 
L 1006.602227 582.441924 
L 1006.486635 588.05979 
L 1006.378804 593.677921 
L 1006.278734 599.296318 
L 1006.186424 604.914981 
L 1006.101875 610.533908 
L 1006.025087 616.153102 
L 1005.95606 621.772561 
L 1005.894793 627.392285 
L 1005.841287 633.012275 
L 1005.795542 638.63253 
L 1005.757557 644.253051 
L 1005.727334 649.873837 
L 1005.704871 655.494889 
L 1005.690168 661.116206 
L 1005.683227 666.737788 
L 1005.684046 672.359636 
L 1005.692626 677.98175 
L 1005.708966 683.604129 
L 1005.733068 689.226773 
L 1005.76493 694.849683 
L 1005.804553 700.472859 
L 1005.851936 706.0963 
L 1005.90708 711.720006 
L 1005.969985 717.343978 
L 1006.040651 722.968215 
L 1006.119078 728.592718 
L 1006.205265 734.217486 
L 1006.299213 739.84252 
L 1006.299213 1700.787402 
L 1896.377953 1700.787402 
z
" style="fill:#e6e6e6;stroke:#808080;stroke-linejoin:miter;"/>
   </g>
   <g id="matplotlib.axis_1">
    <g id="xtick_1">
     <g id="line2d_1">
      <path clip-path="url(#p4edf1aae3e)" d="M 0 1842.519685 
L 0 0 
" style="fill:none;stroke:#b0b0b0;stroke-linecap:square;stroke-width:0.8;"/>
     </g>
    </g>
    <g id="xtick_2">
     <g id="line2d_2">
      <path clip-path="url(#p4edf1aae3e)" d="M 28.346457 1842.519685 
L 28.346457 0 
" style="fill:none;stroke:#b0b0b0;stroke-linecap:square;stroke-width:0.8;"/>
     </g>
    </g>
    <g id="xtick_3">
     <g id="line2d_3">
      <path clip-path="url(#p4edf1aae3e)" d="M 56.692913 1842.519685 
L 56.692913 0 
" style="fill:none;stroke:#b0b0b0;stroke-linecap:square;stroke-width:0.8;"/>
     </g>
    </g>
    <g id="xtick_4">
     <g id="line2d_4">
      <path clip-path="url(#p4edf1aae3e)" d="M 85.03937 1842.519685 
L 85.03937 0 
" style="fill:none;stroke:#b0b0b0;stroke-linecap:square;stroke-width:0.8;"/>
     </g>
    </g>
    <g id="xtick_5">
     <g id="line2d_5">
      <path clip-path="url(#p4edf1aae3e)" d="M 113.385827 1842.519685 
L 113.385827 0 
" style="fill:none;stroke:#b0b0b0;stroke-linecap:square;stroke-width:0.8;"/>
     </g>
    </g>
    <g id="xtick_6">
     <g id="line2d_6">
      <path clip-path="url(#p4edf1aae3e)" d="M 141.732283 1842.519685 
L 141.732283 0 
" style="fill:none;stroke:#b0b0b0;stroke-linecap:square;stroke-width:0.8;"/>
     </g>
    </g>
    <g id="xtick_7">
     <g id="line2d_7">
      <path clip-path="url(#p4edf1aae3e)" d="M 170.07874 1842.519685 
L 170.07874 0 
" style="fill:none;stroke:#b0b0b0;stroke-linecap:square;stroke-width:0.8;"/>
     </g>
    </g>
    <g id="xtick_8">
     <g id="line2d_8">
      <path clip-path="url(#p4edf1aae3e)" d="M 198.425197 1842.519685 
L 198.425197 0 
" style="fill:none;stroke:#b0b0b0;stroke-linecap:square;stroke-width:0.8;"/>
     </g>
    </g>
    <g id="xtick_9">
     <g id="line2d_9">
      <path clip-path="url(#p4edf1aae3e)" d="M 226.771654 1842.519685 
L 226.771654 0 
" style="fill:none;stroke:#b0b0b0;stroke-linecap:square;stroke-width:0.8;"/>
     </g>
    </g>
    <g id="xtick_10">
     <g id="line2d_10">
      <path clip-path="url(#p4edf1aae3e)" d="M 255.11811 1842.519685 
L 255.11811 0 
" style="fill:none;stroke:#b0b0b0;stroke-linecap:square;stroke-width:0.8;"/>
     </g>
    </g>
    <g id="xtick_11">
     <g id="line2d_11">
      <path clip-path="url(#p4edf1aae3e)" d="M 283.464567 1842.519685 
L 283.464567 0 
" style="fill:none;stroke:#b0b0b0;stroke-linecap:square;stroke-width:0.8;"/>
     </g>
    </g>
    <g id="xtick_12">
     <g id="line2d_12">
      <path clip-path="url(#p4edf1aae3e)" d="M 311.811024 1842.519685 
L 311.811024 0 
" style="fill:none;stroke:#b0b0b0;stroke-linecap:square;stroke-width:0.8;"/>
     </g>
    </g>
    <g id="xtick_13">
     <g id="line2d_13">
      <path clip-path="url(#p4edf1aae3e)" d="M 340.15748 1842.519685 
L 340.15748 0 
" style="fill:none;stroke:#b0b0b0;stroke-linecap:square;stroke-width:0.8;"/>
     </g>
    </g>
    <g id="xtick_14">
     <g id="line2d_14">
      <path clip-path="url(#p4edf1aae3e)" d="M 368.503937 1842.519685 
L 368.503937 0 
" style="fill:none;stroke:#b0b0b0;stroke-linecap:square;stroke-width:0.8;"/>
     </g>
    </g>
    <g id="xtick_15">
     <g id="line2d_15">
      <path clip-path="url(#p4edf1aae3e)" d="M 396.850394 1842.519685 
L 396.850394 0 
" style="fill:none;stroke:#b0b0b0;stroke-linecap:square;stroke-width:0.8;"/>
     </g>
    </g>
    <g id="xtick_16">
     <g id="line2d_16">
      <path clip-path="url(#p4edf1aae3e)" d="M 425.19685 1842.519685 
L 425.19685 0 
" style="fill:none;stroke:#b0b0b0;stroke-linecap:square;stroke-width:0.8;"/>
     </g>
    </g>
    <g id="xtick_17">
     <g id="line2d_17">
      <path clip-path="url(#p4edf1aae3e)" d="M 453.543307 1842.519685 
L 453.543307 0 
" style="fill:none;stroke:#b0b0b0;stroke-linecap:square;stroke-width:0.8;"/>
     </g>
    </g>
    <g id="xtick_18">
     <g id="line2d_18">
      <path clip-path="url(#p4edf1aae3e)" d="M 481.889764 1842.519685 
L 481.889764 0 
" style="fill:none;stroke:#b0b0b0;stroke-linecap:square;stroke-width:0.8;"/>
     </g>
    </g>
    <g id="xtick_19">
     <g id="line2d_19">
      <path clip-path="url(#p4edf1aae3e)" d="M 510.23622 1842.519685 
L 510.23622 0 
" style="fill:none;stroke:#b0b0b0;stroke-linecap:square;stroke-width:0.8;"/>
     </g>
    </g>
    <g id="xtick_20">
     <g id="line2d_20">
      <path clip-path="url(#p4edf1aae3e)" d="M 538.582677 1842.519685 
L 538.582677 0 
" style="fill:none;stroke:#b0b0b0;stroke-linecap:square;stroke-width:0.8;"/>
     </g>
    </g>
    <g id="xtick_21">
     <g id="line2d_21">
      <path clip-path="url(#p4edf1aae3e)" d="M 566.929134 1842.519685 
L 566.929134 0 
" style="fill:none;stroke:#b0b0b0;stroke-linecap:square;stroke-width:0.8;"/>
     </g>
    </g>
    <g id="xtick_22">
     <g id="line2d_22">
      <path clip-path="url(#p4edf1aae3e)" d="M 595.275591 1842.519685 
L 595.275591 0 
" style="fill:none;stroke:#b0b0b0;stroke-linecap:square;stroke-width:0.8;"/>
     </g>
    </g>
    <g id="xtick_23">
     <g id="line2d_23">
      <path clip-path="url(#p4edf1aae3e)" d="M 623.622047 1842.519685 
L 623.622047 0 
" style="fill:none;stroke:#b0b0b0;stroke-linecap:square;stroke-width:0.8;"/>
     </g>
    </g>
    <g id="xtick_24">
     <g id="line2d_24">
      <path clip-path="url(#p4edf1aae3e)" d="M 651.968504 1842.519685 
L 651.968504 0 
" style="fill:none;stroke:#b0b0b0;stroke-linecap:square;stroke-width:0.8;"/>
     </g>
    </g>
    <g id="xtick_25">
     <g id="line2d_25">
      <path clip-path="url(#p4edf1aae3e)" d="M 680.314961 1842.519685 
L 680.314961 0 
" style="fill:none;stroke:#b0b0b0;stroke-linecap:square;stroke-width:0.8;"/>
     </g>
    </g>
    <g id="xtick_26">
     <g id="line2d_26">
      <path clip-path="url(#p4edf1aae3e)" d="M 708.661417 1842.519685 
L 708.661417 0 
" style="fill:none;stroke:#b0b0b0;stroke-linecap:square;stroke-width:0.8;"/>
     </g>
    </g>
    <g id="xtick_27">
     <g id="line2d_27">
      <path clip-path="url(#p4edf1aae3e)" d="M 737.007874 1842.519685 
L 737.007874 0 
" style="fill:none;stroke:#b0b0b0;stroke-linecap:square;stroke-width:0.8;"/>
     </g>
    </g>
    <g id="xtick_28">
     <g id="line2d_28">
      <path clip-path="url(#p4edf1aae3e)" d="M 765.354331 1842.519685 
L 765.354331 0 
" style="fill:none;stroke:#b0b0b0;stroke-linecap:square;stroke-width:0.8;"/>
     </g>
    </g>
    <g id="xtick_29">
     <g id="line2d_29">
      <path clip-path="url(#p4edf1aae3e)" d="M 793.700787 1842.519685 
L 793.700787 0 
" style="fill:none;stroke:#b0b0b0;stroke-linecap:square;stroke-width:0.8;"/>
     </g>
    </g>
    <g id="xtick_30">
     <g id="line2d_30">
      <path clip-path="url(#p4edf1aae3e)" d="M 822.047244 1842.519685 
L 822.047244 0 
" style="fill:none;stroke:#b0b0b0;stroke-linecap:square;stroke-width:0.8;"/>
     </g>
    </g>
    <g id="xtick_31">
     <g id="line2d_31">
      <path clip-path="url(#p4edf1aae3e)" d="M 850.393701 1842.519685 
L 850.393701 0 
" style="fill:none;stroke:#b0b0b0;stroke-linecap:square;stroke-width:0.8;"/>
     </g>
    </g>
    <g id="xtick_32">
     <g id="line2d_32">
      <path clip-path="url(#p4edf1aae3e)" d="M 878.740157 1842.519685 
L 878.740157 0 
" style="fill:none;stroke:#b0b0b0;stroke-linecap:square;stroke-width:0.8;"/>
     </g>
    </g>
    <g id="xtick_33">
     <g id="line2d_33">
      <path clip-path="url(#p4edf1aae3e)" d="M 907.086614 1842.519685 
L 907.086614 0 
" style="fill:none;stroke:#b0b0b0;stroke-linecap:square;stroke-width:0.8;"/>
     </g>
    </g>
    <g id="xtick_34">
     <g id="line2d_34">
      <path clip-path="url(#p4edf1aae3e)" d="M 935.433071 1842.519685 
L 935.433071 0 
" style="fill:none;stroke:#b0b0b0;stroke-linecap:square;stroke-width:0.8;"/>
     </g>
    </g>
    <g id="xtick_35">
     <g id="line2d_35">
      <path clip-path="url(#p4edf1aae3e)" d="M 963.779528 1842.519685 
L 963.779528 0 
" style="fill:none;stroke:#b0b0b0;stroke-linecap:square;stroke-width:0.8;"/>
     </g>
    </g>
    <g id="xtick_36">
     <g id="line2d_36">
      <path clip-path="url(#p4edf1aae3e)" d="M 992.125984 1842.519685 
L 992.125984 0 
" style="fill:none;stroke:#b0b0b0;stroke-linecap:square;stroke-width:0.8;"/>
     </g>
    </g>
    <g id="xtick_37">
     <g id="line2d_37">
      <path clip-path="url(#p4edf1aae3e)" d="M 1020.472441 1842.519685 
L 1020.472441 0 
" style="fill:none;stroke:#b0b0b0;stroke-linecap:square;stroke-width:0.8;"/>
     </g>
    </g>
    <g id="xtick_38">
     <g id="line2d_38">
      <path clip-path="url(#p4edf1aae3e)" d="M 1048.818898 1842.519685 
L 1048.818898 0 
" style="fill:none;stroke:#b0b0b0;stroke-linecap:square;stroke-width:0.8;"/>
     </g>
    </g>
    <g id="xtick_39">
     <g id="line2d_39">
      <path clip-path="url(#p4edf1aae3e)" d="M 1077.165354 1842.519685 
L 1077.165354 0 
" style="fill:none;stroke:#b0b0b0;stroke-linecap:square;stroke-width:0.8;"/>
     </g>
    </g>
    <g id="xtick_40">
     <g id="line2d_40">
      <path clip-path="url(#p4edf1aae3e)" d="M 1105.511811 1842.519685 
L 1105.511811 0 
" style="fill:none;stroke:#b0b0b0;stroke-linecap:square;stroke-width:0.8;"/>
     </g>
    </g>
    <g id="xtick_41">
     <g id="line2d_41">
      <path clip-path="url(#p4edf1aae3e)" d="M 1133.858268 1842.519685 
L 1133.858268 0 
" style="fill:none;stroke:#b0b0b0;stroke-linecap:square;stroke-width:0.8;"/>
     </g>
    </g>
    <g id="xtick_42">
     <g id="line2d_42">
      <path clip-path="url(#p4edf1aae3e)" d="M 1162.204724 1842.519685 
L 1162.204724 0 
" style="fill:none;stroke:#b0b0b0;stroke-linecap:square;stroke-width:0.8;"/>
     </g>
    </g>
    <g id="xtick_43">
     <g id="line2d_43">
      <path clip-path="url(#p4edf1aae3e)" d="M 1190.551181 1842.519685 
L 1190.551181 0 
" style="fill:none;stroke:#b0b0b0;stroke-linecap:square;stroke-width:0.8;"/>
     </g>
    </g>
    <g id="xtick_44">
     <g id="line2d_44">
      <path clip-path="url(#p4edf1aae3e)" d="M 1218.897638 1842.519685 
L 1218.897638 0 
" style="fill:none;stroke:#b0b0b0;stroke-linecap:square;stroke-width:0.8;"/>
     </g>
    </g>
    <g id="xtick_45">
     <g id="line2d_45">
      <path clip-path="url(#p4edf1aae3e)" d="M 1247.244094 1842.519685 
L 1247.244094 0 
" style="fill:none;stroke:#b0b0b0;stroke-linecap:square;stroke-width:0.8;"/>
     </g>
    </g>
    <g id="xtick_46">
     <g id="line2d_46">
      <path clip-path="url(#p4edf1aae3e)" d="M 1275.590551 1842.519685 
L 1275.590551 0 
" style="fill:none;stroke:#b0b0b0;stroke-linecap:square;stroke-width:0.8;"/>
     </g>
    </g>
    <g id="xtick_47">
     <g id="line2d_47">
      <path clip-path="url(#p4edf1aae3e)" d="M 1303.937008 1842.519685 
L 1303.937008 0 
" style="fill:none;stroke:#b0b0b0;stroke-linecap:square;stroke-width:0.8;"/>
     </g>
    </g>
    <g id="xtick_48">
     <g id="line2d_48">
      <path clip-path="url(#p4edf1aae3e)" d="M 1332.283465 1842.519685 
L 1332.283465 0 
" style="fill:none;stroke:#b0b0b0;stroke-linecap:square;stroke-width:0.8;"/>
     </g>
    </g>
    <g id="xtick_49">
     <g id="line2d_49">
      <path clip-path="url(#p4edf1aae3e)" d="M 1360.629921 1842.519685 
L 1360.629921 0 
" style="fill:none;stroke:#b0b0b0;stroke-linecap:square;stroke-width:0.8;"/>
     </g>
    </g>
    <g id="xtick_50">
     <g id="line2d_50">
      <path clip-path="url(#p4edf1aae3e)" d="M 1388.976378 1842.519685 
L 1388.976378 0 
" style="fill:none;stroke:#b0b0b0;stroke-linecap:square;stroke-width:0.8;"/>
     </g>
    </g>
    <g id="xtick_51">
     <g id="line2d_51">
      <path clip-path="url(#p4edf1aae3e)" d="M 1417.322835 1842.519685 
L 1417.322835 0 
" style="fill:none;stroke:#b0b0b0;stroke-linecap:square;stroke-width:0.8;"/>
     </g>
    </g>
    <g id="xtick_52">
     <g id="line2d_52">
      <path clip-path="url(#p4edf1aae3e)" d="M 1445.669291 1842.519685 
L 1445.669291 0 
" style="fill:none;stroke:#b0b0b0;stroke-linecap:square;stroke-width:0.8;"/>
     </g>
    </g>
    <g id="xtick_53">
     <g id="line2d_53">
      <path clip-path="url(#p4edf1aae3e)" d="M 1474.015748 1842.519685 
L 1474.015748 0 
" style="fill:none;stroke:#b0b0b0;stroke-linecap:square;stroke-width:0.8;"/>
     </g>
    </g>
    <g id="xtick_54">
     <g id="line2d_54">
      <path clip-path="url(#p4edf1aae3e)" d="M 1502.362205 1842.519685 
L 1502.362205 0 
" style="fill:none;stroke:#b0b0b0;stroke-linecap:square;stroke-width:0.8;"/>
     </g>
    </g>
    <g id="xtick_55">
     <g id="line2d_55">
      <path clip-path="url(#p4edf1aae3e)" d="M 1530.708661 1842.519685 
L 1530.708661 0 
" style="fill:none;stroke:#b0b0b0;stroke-linecap:square;stroke-width:0.8;"/>
     </g>
    </g>
    <g id="xtick_56">
     <g id="line2d_56">
      <path clip-path="url(#p4edf1aae3e)" d="M 1559.055118 1842.519685 
L 1559.055118 0 
" style="fill:none;stroke:#b0b0b0;stroke-linecap:square;stroke-width:0.8;"/>
     </g>
    </g>
    <g id="xtick_57">
     <g id="line2d_57">
      <path clip-path="url(#p4edf1aae3e)" d="M 1587.401575 1842.519685 
L 1587.401575 0 
" style="fill:none;stroke:#b0b0b0;stroke-linecap:square;stroke-width:0.8;"/>
     </g>
    </g>
    <g id="xtick_58">
     <g id="line2d_58">
      <path clip-path="url(#p4edf1aae3e)" d="M 1615.748031 1842.519685 
L 1615.748031 0 
" style="fill:none;stroke:#b0b0b0;stroke-linecap:square;stroke-width:0.8;"/>
     </g>
    </g>
    <g id="xtick_59">
     <g id="line2d_59">
      <path clip-path="url(#p4edf1aae3e)" d="M 1644.094488 1842.519685 
L 1644.094488 0 
" style="fill:none;stroke:#b0b0b0;stroke-linecap:square;stroke-width:0.8;"/>
     </g>
    </g>
    <g id="xtick_60">
     <g id="line2d_60">
      <path clip-path="url(#p4edf1aae3e)" d="M 1672.440945 1842.519685 
L 1672.440945 0 
" style="fill:none;stroke:#b0b0b0;stroke-linecap:square;stroke-width:0.8;"/>
     </g>
    </g>
    <g id="xtick_61">
     <g id="line2d_61">
      <path clip-path="url(#p4edf1aae3e)" d="M 1700.787402 1842.519685 
L 1700.787402 0 
" style="fill:none;stroke:#b0b0b0;stroke-linecap:square;stroke-width:0.8;"/>
     </g>
    </g>
    <g id="xtick_62">
     <g id="line2d_62">
      <path clip-path="url(#p4edf1aae3e)" d="M 1729.133858 1842.519685 
L 1729.133858 0 
" style="fill:none;stroke:#b0b0b0;stroke-linecap:square;stroke-width:0.8;"/>
     </g>
    </g>
    <g id="xtick_63">
     <g id="line2d_63">
      <path clip-path="url(#p4edf1aae3e)" d="M 1757.480315 1842.519685 
L 1757.480315 0 
" style="fill:none;stroke:#b0b0b0;stroke-linecap:square;stroke-width:0.8;"/>
     </g>
    </g>
    <g id="xtick_64">
     <g id="line2d_64">
      <path clip-path="url(#p4edf1aae3e)" d="M 1785.826772 1842.519685 
L 1785.826772 0 
" style="fill:none;stroke:#b0b0b0;stroke-linecap:square;stroke-width:0.8;"/>
     </g>
    </g>
    <g id="xtick_65">
     <g id="line2d_65">
      <path clip-path="url(#p4edf1aae3e)" d="M 1814.173228 1842.519685 
L 1814.173228 0 
" style="fill:none;stroke:#b0b0b0;stroke-linecap:square;stroke-width:0.8;"/>
     </g>
    </g>
    <g id="xtick_66">
     <g id="line2d_66">
      <path clip-path="url(#p4edf1aae3e)" d="M 1842.519685 1842.519685 
L 1842.519685 0 
" style="fill:none;stroke:#b0b0b0;stroke-linecap:square;stroke-width:0.8;"/>
     </g>
    </g>
    <g id="xtick_67">
     <g id="line2d_67">
      <path clip-path="url(#p4edf1aae3e)" d="M 1870.866142 1842.519685 
L 1870.866142 0 
" style="fill:none;stroke:#b0b0b0;stroke-linecap:square;stroke-width:0.8;"/>
     </g>
    </g>
    <g id="xtick_68">
     <g id="line2d_68">
      <path clip-path="url(#p4edf1aae3e)" d="M 1899.212598 1842.519685 
L 1899.212598 0 
" style="fill:none;stroke:#b0b0b0;stroke-linecap:square;stroke-width:0.8;"/>
     </g>
    </g>
    <g id="xtick_69">
     <g id="line2d_69">
      <path clip-path="url(#p4edf1aae3e)" d="M 1927.559055 1842.519685 
L 1927.559055 0 
" style="fill:none;stroke:#b0b0b0;stroke-linecap:square;stroke-width:0.8;"/>
     </g>
    </g>
    <g id="xtick_70">
     <g id="line2d_70">
      <path clip-path="url(#p4edf1aae3e)" d="M 1955.905512 1842.519685 
L 1955.905512 0 
" style="fill:none;stroke:#b0b0b0;stroke-linecap:square;stroke-width:0.8;"/>
     </g>
    </g>
    <g id="xtick_71">
     <g id="line2d_71">
      <path clip-path="url(#p4edf1aae3e)" d="M 1984.251969 1842.519685 
L 1984.251969 0 
" style="fill:none;stroke:#b0b0b0;stroke-linecap:square;stroke-width:0.8;"/>
     </g>
    </g>
   </g>
   <g id="matplotlib.axis_2">
    <g id="ytick_1">
     <g id="line2d_72">
      <path clip-path="url(#p4edf1aae3e)" d="M 0 1842.519685 
L 2012.598425 1842.519685 
" style="fill:none;stroke:#b0b0b0;stroke-linecap:square;stroke-width:0.8;"/>
     </g>
    </g>
    <g id="ytick_2">
     <g id="line2d_73">
      <path clip-path="url(#p4edf1aae3e)" d="M 0 1814.173228 
L 2012.598425 1814.173228 
" style="fill:none;stroke:#b0b0b0;stroke-linecap:square;stroke-width:0.8;"/>
     </g>
    </g>
    <g id="ytick_3">
     <g id="line2d_74">
      <path clip-path="url(#p4edf1aae3e)" d="M 0 1785.826772 
L 2012.598425 1785.826772 
" style="fill:none;stroke:#b0b0b0;stroke-linecap:square;stroke-width:0.8;"/>
     </g>
    </g>
    <g id="ytick_4">
     <g id="line2d_75">
      <path clip-path="url(#p4edf1aae3e)" d="M 0 1757.480315 
L 2012.598425 1757.480315 
" style="fill:none;stroke:#b0b0b0;stroke-linecap:square;stroke-width:0.8;"/>
     </g>
    </g>
    <g id="ytick_5">
     <g id="line2d_76">
      <path clip-path="url(#p4edf1aae3e)" d="M 0 1729.133858 
L 2012.598425 1729.133858 
" style="fill:none;stroke:#b0b0b0;stroke-linecap:square;stroke-width:0.8;"/>
     </g>
    </g>
    <g id="ytick_6">
     <g id="line2d_77">
      <path clip-path="url(#p4edf1aae3e)" d="M 0 1700.787402 
L 2012.598425 1700.787402 
" style="fill:none;stroke:#b0b0b0;stroke-linecap:square;stroke-width:0.8;"/>
     </g>
    </g>
    <g id="ytick_7">
     <g id="line2d_78">
      <path clip-path="url(#p4edf1aae3e)" d="M 0 1672.440945 
L 2012.598425 1672.440945 
" style="fill:none;stroke:#b0b0b0;stroke-linecap:square;stroke-width:0.8;"/>
     </g>
    </g>
    <g id="ytick_8">
     <g id="line2d_79">
      <path clip-path="url(#p4edf1aae3e)" d="M 0 1644.094488 
L 2012.598425 1644.094488 
" style="fill:none;stroke:#b0b0b0;stroke-linecap:square;stroke-width:0.8;"/>
     </g>
    </g>
    <g id="ytick_9">
     <g id="line2d_80">
      <path clip-path="url(#p4edf1aae3e)" d="M 0 1615.748031 
L 2012.598425 1615.748031 
" style="fill:none;stroke:#b0b0b0;stroke-linecap:square;stroke-width:0.8;"/>
     </g>
    </g>
    <g id="ytick_10">
     <g id="line2d_81">
      <path clip-path="url(#p4edf1aae3e)" d="M 0 1587.401575 
L 2012.598425 1587.401575 
" style="fill:none;stroke:#b0b0b0;stroke-linecap:square;stroke-width:0.8;"/>
     </g>
    </g>
    <g id="ytick_11">
     <g id="line2d_82">
      <path clip-path="url(#p4edf1aae3e)" d="M 0 1559.055118 
L 2012.598425 1559.055118 
" style="fill:none;stroke:#b0b0b0;stroke-linecap:square;stroke-width:0.8;"/>
     </g>
    </g>
    <g id="ytick_12">
     <g id="line2d_83">
      <path clip-path="url(#p4edf1aae3e)" d="M 0 1530.708661 
L 2012.598425 1530.708661 
" style="fill:none;stroke:#b0b0b0;stroke-linecap:square;stroke-width:0.8;"/>
     </g>
    </g>
    <g id="ytick_13">
     <g id="line2d_84">
      <path clip-path="url(#p4edf1aae3e)" d="M 0 1502.362205 
L 2012.598425 1502.362205 
" style="fill:none;stroke:#b0b0b0;stroke-linecap:square;stroke-width:0.8;"/>
     </g>
    </g>
    <g id="ytick_14">
     <g id="line2d_85">
      <path clip-path="url(#p4edf1aae3e)" d="M 0 1474.015748 
L 2012.598425 1474.015748 
" style="fill:none;stroke:#b0b0b0;stroke-linecap:square;stroke-width:0.8;"/>
     </g>
    </g>
    <g id="ytick_15">
     <g id="line2d_86">
      <path clip-path="url(#p4edf1aae3e)" d="M 0 1445.669291 
L 2012.598425 1445.669291 
" style="fill:none;stroke:#b0b0b0;stroke-linecap:square;stroke-width:0.8;"/>
     </g>
    </g>
    <g id="ytick_16">
     <g id="line2d_87">
      <path clip-path="url(#p4edf1aae3e)" d="M 0 1417.322835 
L 2012.598425 1417.322835 
" style="fill:none;stroke:#b0b0b0;stroke-linecap:square;stroke-width:0.8;"/>
     </g>
    </g>
    <g id="ytick_17">
     <g id="line2d_88">
      <path clip-path="url(#p4edf1aae3e)" d="M 0 1388.976378 
L 2012.598425 1388.976378 
" style="fill:none;stroke:#b0b0b0;stroke-linecap:square;stroke-width:0.8;"/>
     </g>
    </g>
    <g id="ytick_18">
     <g id="line2d_89">
      <path clip-path="url(#p4edf1aae3e)" d="M 0 1360.629921 
L 2012.598425 1360.629921 
" style="fill:none;stroke:#b0b0b0;stroke-linecap:square;stroke-width:0.8;"/>
     </g>
    </g>
    <g id="ytick_19">
     <g id="line2d_90">
      <path clip-path="url(#p4edf1aae3e)" d="M 0 1332.283465 
L 2012.598425 1332.283465 
" style="fill:none;stroke:#b0b0b0;stroke-linecap:square;stroke-width:0.8;"/>
     </g>
    </g>
    <g id="ytick_20">
     <g id="line2d_91">
      <path clip-path="url(#p4edf1aae3e)" d="M 0 1303.937008 
L 2012.598425 1303.937008 
" style="fill:none;stroke:#b0b0b0;stroke-linecap:square;stroke-width:0.8;"/>
     </g>
    </g>
    <g id="ytick_21">
     <g id="line2d_92">
      <path clip-path="url(#p4edf1aae3e)" d="M 0 1275.590551 
L 2012.598425 1275.590551 
" style="fill:none;stroke:#b0b0b0;stroke-linecap:square;stroke-width:0.8;"/>
     </g>
    </g>
    <g id="ytick_22">
     <g id="line2d_93">
      <path clip-path="url(#p4edf1aae3e)" d="M 0 1247.244094 
L 2012.598425 1247.244094 
" style="fill:none;stroke:#b0b0b0;stroke-linecap:square;stroke-width:0.8;"/>
     </g>
    </g>
    <g id="ytick_23">
     <g id="line2d_94">
      <path clip-path="url(#p4edf1aae3e)" d="M 0 1218.897638 
L 2012.598425 1218.897638 
" style="fill:none;stroke:#b0b0b0;stroke-linecap:square;stroke-width:0.8;"/>
     </g>
    </g>
    <g id="ytick_24">
     <g id="line2d_95">
      <path clip-path="url(#p4edf1aae3e)" d="M 0 1190.551181 
L 2012.598425 1190.551181 
" style="fill:none;stroke:#b0b0b0;stroke-linecap:square;stroke-width:0.8;"/>
     </g>
    </g>
    <g id="ytick_25">
     <g id="line2d_96">
      <path clip-path="url(#p4edf1aae3e)" d="M 0 1162.204724 
L 2012.598425 1162.204724 
" style="fill:none;stroke:#b0b0b0;stroke-linecap:square;stroke-width:0.8;"/>
     </g>
    </g>
    <g id="ytick_26">
     <g id="line2d_97">
      <path clip-path="url(#p4edf1aae3e)" d="M 0 1133.858268 
L 2012.598425 1133.858268 
" style="fill:none;stroke:#b0b0b0;stroke-linecap:square;stroke-width:0.8;"/>
     </g>
    </g>
    <g id="ytick_27">
     <g id="line2d_98">
      <path clip-path="url(#p4edf1aae3e)" d="M 0 1105.511811 
L 2012.598425 1105.511811 
" style="fill:none;stroke:#b0b0b0;stroke-linecap:square;stroke-width:0.8;"/>
     </g>
    </g>
    <g id="ytick_28">
     <g id="line2d_99">
      <path clip-path="url(#p4edf1aae3e)" d="M 0 1077.165354 
L 2012.598425 1077.165354 
" style="fill:none;stroke:#b0b0b0;stroke-linecap:square;stroke-width:0.8;"/>
     </g>
    </g>
    <g id="ytick_29">
     <g id="line2d_100">
      <path clip-path="url(#p4edf1aae3e)" d="M 0 1048.818898 
L 2012.598425 1048.818898 
" style="fill:none;stroke:#b0b0b0;stroke-linecap:square;stroke-width:0.8;"/>
     </g>
    </g>
    <g id="ytick_30">
     <g id="line2d_101">
      <path clip-path="url(#p4edf1aae3e)" d="M 0 1020.472441 
L 2012.598425 1020.472441 
" style="fill:none;stroke:#b0b0b0;stroke-linecap:square;stroke-width:0.8;"/>
     </g>
    </g>
    <g id="ytick_31">
     <g id="line2d_102">
      <path clip-path="url(#p4edf1aae3e)" d="M 0 992.125984 
L 2012.598425 992.125984 
" style="fill:none;stroke:#b0b0b0;stroke-linecap:square;stroke-width:0.8;"/>
     </g>
    </g>
    <g id="ytick_32">
     <g id="line2d_103">
      <path clip-path="url(#p4edf1aae3e)" d="M 0 963.779528 
L 2012.598425 963.779528 
" style="fill:none;stroke:#b0b0b0;stroke-linecap:square;stroke-width:0.8;"/>
     </g>
    </g>
    <g id="ytick_33">
     <g id="line2d_104">
      <path clip-path="url(#p4edf1aae3e)" d="M 0 935.433071 
L 2012.598425 935.433071 
" style="fill:none;stroke:#b0b0b0;stroke-linecap:square;stroke-width:0.8;"/>
     </g>
    </g>
    <g id="ytick_34">
     <g id="line2d_105">
      <path clip-path="url(#p4edf1aae3e)" d="M 0 907.086614 
L 2012.598425 907.086614 
" style="fill:none;stroke:#b0b0b0;stroke-linecap:square;stroke-width:0.8;"/>
     </g>
    </g>
    <g id="ytick_35">
     <g id="line2d_106">
      <path clip-path="url(#p4edf1aae3e)" d="M 0 878.740157 
L 2012.598425 878.740157 
" style="fill:none;stroke:#b0b0b0;stroke-linecap:square;stroke-width:0.8;"/>
     </g>
    </g>
    <g id="ytick_36">
     <g id="line2d_107">
      <path clip-path="url(#p4edf1aae3e)" d="M 0 850.393701 
L 2012.598425 850.393701 
" style="fill:none;stroke:#b0b0b0;stroke-linecap:square;stroke-width:0.8;"/>
     </g>
    </g>
    <g id="ytick_37">
     <g id="line2d_108">
      <path clip-path="url(#p4edf1aae3e)" d="M 0 822.047244 
L 2012.598425 822.047244 
" style="fill:none;stroke:#b0b0b0;stroke-linecap:square;stroke-width:0.8;"/>
     </g>
    </g>
    <g id="ytick_38">
     <g id="line2d_109">
      <path clip-path="url(#p4edf1aae3e)" d="M 0 793.700787 
L 2012.598425 793.700787 
" style="fill:none;stroke:#b0b0b0;stroke-linecap:square;stroke-width:0.8;"/>
     </g>
    </g>
    <g id="ytick_39">
     <g id="line2d_110">
      <path clip-path="url(#p4edf1aae3e)" d="M 0 765.354331 
L 2012.598425 765.354331 
" style="fill:none;stroke:#b0b0b0;stroke-linecap:square;stroke-width:0.8;"/>
     </g>
    </g>
    <g id="ytick_40">
     <g id="line2d_111">
      <path clip-path="url(#p4edf1aae3e)" d="M 0 737.007874 
L 2012.598425 737.007874 
" style="fill:none;stroke:#b0b0b0;stroke-linecap:square;stroke-width:0.8;"/>
     </g>
    </g>
    <g id="ytick_41">
     <g id="line2d_112">
      <path clip-path="url(#p4edf1aae3e)" d="M 0 708.661417 
L 2012.598425 708.661417 
" style="fill:none;stroke:#b0b0b0;stroke-linecap:square;stroke-width:0.8;"/>
     </g>
    </g>
    <g id="ytick_42">
     <g id="line2d_113">
      <path clip-path="url(#p4edf1aae3e)" d="M 0 680.314961 
L 2012.598425 680.314961 
" style="fill:none;stroke:#b0b0b0;stroke-linecap:square;stroke-width:0.8;"/>
     </g>
    </g>
    <g id="ytick_43">
     <g id="line2d_114">
      <path clip-path="url(#p4edf1aae3e)" d="M 0 651.968504 
L 2012.598425 651.968504 
" style="fill:none;stroke:#b0b0b0;stroke-linecap:square;stroke-width:0.8;"/>
     </g>
    </g>
    <g id="ytick_44">
     <g id="line2d_115">
      <path clip-path="url(#p4edf1aae3e)" d="M 0 623.622047 
L 2012.598425 623.622047 
" style="fill:none;stroke:#b0b0b0;stroke-linecap:square;stroke-width:0.8;"/>
     </g>
    </g>
    <g id="ytick_45">
     <g id="line2d_116">
      <path clip-path="url(#p4edf1aae3e)" d="M 0 595.275591 
L 2012.598425 595.275591 
" style="fill:none;stroke:#b0b0b0;stroke-linecap:square;stroke-width:0.8;"/>
     </g>
    </g>
    <g id="ytick_46">
     <g id="line2d_117">
      <path clip-path="url(#p4edf1aae3e)" d="M 0 566.929134 
L 2012.598425 566.929134 
" style="fill:none;stroke:#b0b0b0;stroke-linecap:square;stroke-width:0.8;"/>
     </g>
    </g>
    <g id="ytick_47">
     <g id="line2d_118">
      <path clip-path="url(#p4edf1aae3e)" d="M 0 538.582677 
L 2012.598425 538.582677 
" style="fill:none;stroke:#b0b0b0;stroke-linecap:square;stroke-width:0.8;"/>
     </g>
    </g>
    <g id="ytick_48">
     <g id="line2d_119">
      <path clip-path="url(#p4edf1aae3e)" d="M 0 510.23622 
L 2012.598425 510.23622 
" style="fill:none;stroke:#b0b0b0;stroke-linecap:square;stroke-width:0.8;"/>
     </g>
    </g>
    <g id="ytick_49">
     <g id="line2d_120">
      <path clip-path="url(#p4edf1aae3e)" d="M 0 481.889764 
L 2012.598425 481.889764 
" style="fill:none;stroke:#b0b0b0;stroke-linecap:square;stroke-width:0.8;"/>
     </g>
    </g>
    <g id="ytick_50">
     <g id="line2d_121">
      <path clip-path="url(#p4edf1aae3e)" d="M 0 453.543307 
L 2012.598425 453.543307 
" style="fill:none;stroke:#b0b0b0;stroke-linecap:square;stroke-width:0.8;"/>
     </g>
    </g>
    <g id="ytick_51">
     <g id="line2d_122">
      <path clip-path="url(#p4edf1aae3e)" d="M 0 425.19685 
L 2012.598425 425.19685 
" style="fill:none;stroke:#b0b0b0;stroke-linecap:square;stroke-width:0.8;"/>
     </g>
    </g>
    <g id="ytick_52">
     <g id="line2d_123">
      <path clip-path="url(#p4edf1aae3e)" d="M 0 396.850394 
L 2012.598425 396.850394 
" style="fill:none;stroke:#b0b0b0;stroke-linecap:square;stroke-width:0.8;"/>
     </g>
    </g>
    <g id="ytick_53">
     <g id="line2d_124">
      <path clip-path="url(#p4edf1aae3e)" d="M 0 368.503937 
L 2012.598425 368.503937 
" style="fill:none;stroke:#b0b0b0;stroke-linecap:square;stroke-width:0.8;"/>
     </g>
    </g>
    <g id="ytick_54">
     <g id="line2d_125">
      <path clip-path="url(#p4edf1aae3e)" d="M 0 340.15748 
L 2012.598425 340.15748 
" style="fill:none;stroke:#b0b0b0;stroke-linecap:square;stroke-width:0.8;"/>
     </g>
    </g>
    <g id="ytick_55">
     <g id="line2d_126">
      <path clip-path="url(#p4edf1aae3e)" d="M 0 311.811024 
L 2012.598425 311.811024 
" style="fill:none;stroke:#b0b0b0;stroke-linecap:square;stroke-width:0.8;"/>
     </g>
    </g>
    <g id="ytick_56">
     <g id="line2d_127">
      <path clip-path="url(#p4edf1aae3e)" d="M 0 283.464567 
L 2012.598425 283.464567 
" style="fill:none;stroke:#b0b0b0;stroke-linecap:square;stroke-width:0.8;"/>
     </g>
    </g>
    <g id="ytick_57">
     <g id="line2d_128">
      <path clip-path="url(#p4edf1aae3e)" d="M 0 255.11811 
L 2012.598425 255.11811 
" style="fill:none;stroke:#b0b0b0;stroke-linecap:square;stroke-width:0.8;"/>
     </g>
    </g>
    <g id="ytick_58">
     <g id="line2d_129">
      <path clip-path="url(#p4edf1aae3e)" d="M 0 226.771654 
L 2012.598425 226.771654 
" style="fill:none;stroke:#b0b0b0;stroke-linecap:square;stroke-width:0.8;"/>
     </g>
    </g>
    <g id="ytick_59">
     <g id="line2d_130">
      <path clip-path="url(#p4edf1aae3e)" d="M 0 198.425197 
L 2012.598425 198.425197 
" style="fill:none;stroke:#b0b0b0;stroke-linecap:square;stroke-width:0.8;"/>
     </g>
    </g>
    <g id="ytick_60">
     <g id="line2d_131">
      <path clip-path="url(#p4edf1aae3e)" d="M 0 170.07874 
L 2012.598425 170.07874 
" style="fill:none;stroke:#b0b0b0;stroke-linecap:square;stroke-width:0.8;"/>
     </g>
    </g>
    <g id="ytick_61">
     <g id="line2d_132">
      <path clip-path="url(#p4edf1aae3e)" d="M 0 141.732283 
L 2012.598425 141.732283 
" style="fill:none;stroke:#b0b0b0;stroke-linecap:square;stroke-width:0.8;"/>
     </g>
    </g>
    <g id="ytick_62">
     <g id="line2d_133">
      <path clip-path="url(#p4edf1aae3e)" d="M 0 113.385827 
L 2012.598425 113.385827 
" style="fill:none;stroke:#b0b0b0;stroke-linecap:square;stroke-width:0.8;"/>
     </g>
    </g>
    <g id="ytick_63">
     <g id="line2d_134">
      <path clip-path="url(#p4edf1aae3e)" d="M 0 85.03937 
L 2012.598425 85.03937 
" style="fill:none;stroke:#b0b0b0;stroke-linecap:square;stroke-width:0.8;"/>
     </g>
    </g>
    <g id="ytick_64">
     <g id="line2d_135">
      <path clip-path="url(#p4edf1aae3e)" d="M 0 56.692913 
L 2012.598425 56.692913 
" style="fill:none;stroke:#b0b0b0;stroke-linecap:square;stroke-width:0.8;"/>
     </g>
    </g>
    <g id="ytick_65">
     <g id="line2d_136">
      <path clip-path="url(#p4edf1aae3e)" d="M 0 28.346457 
L 2012.598425 28.346457 
" style="fill:none;stroke:#b0b0b0;stroke-linecap:square;stroke-width:0.8;"/>
     </g>
    </g>
   </g>
   <g id="line2d_137">
    <defs>
     <path d="M 0 3 
C 0.795609 3 1.55874 2.683901 2.12132 2.12132 
C 2.683901 1.55874 3 0.795609 3 0 
C 3 -0.795609 2.683901 -1.55874 2.12132 -2.12132 
C 1.55874 -2.683901 0.795609 -3 0 -3 
C -0.795609 -3 -1.55874 -2.683901 -2.12132 -2.12132 
C -2.683901 -1.55874 -3 -0.795609 -3 0 
C -3 0.795609 -2.683901 1.55874 -2.12132 2.12132 
C -1.55874 2.683901 -0.795609 3 0 3 
z
" id="m8a35956894" style="stroke:#ff0000;"/>
    </defs>
    <g clip-path="url(#p4edf1aae3e)">
     <use style="fill:#ff0000;stroke:#ff0000;" x="368.503937" xlink:href="#m8a35956894" y="184.251969"/>
    </g>
   </g>
   <g id="line2d_138">
    <g clip-path="url(#p4edf1aae3e)">
     <use style="fill:#ff0000;stroke:#ff0000;" x="425.19685" xlink:href="#m8a35956894" y="240.944882"/>
    </g>
   </g>
   <g id="line2d_139">
    <g clip-path="url(#p4edf1aae3e)">
     <use style="fill:#ff0000;stroke:#ff0000;" x="368.503937" xlink:href="#m8a35956894" y="739.84252"/>
    </g>
   </g>
   <g id="line2d_140">
    <g clip-path="url(#p4edf1aae3e)">
     <use style="fill:#ff0000;stroke:#ff0000;" x="368.503937" xlink:href="#m8a35956894" y="1700.787402"/>
    </g>
   </g>
   <g id="line2d_141">
    <g clip-path="url(#p4edf1aae3e)">
     <use style="fill:#ff0000;stroke:#ff0000;" x="1006.299213" xlink:href="#m8a35956894" y="1700.787402"/>
    </g>
   </g>
   <g id="line2d_142">
    <g clip-path="url(#p4edf1aae3e)">
     <use style="fill:#ff0000;stroke:#ff0000;" x="1006.299213" xlink:href="#m8a35956894" y="598.110236"/>
    </g>
   </g>
   <g id="line2d_143">
    <g clip-path="url(#p4edf1aae3e)">
     <use style="fill:#ff0000;stroke:#ff0000;" x="1006.299213" xlink:href="#m8a35956894" y="739.84252"/>
    </g>
   </g>
   <g id="line2d_144">
    <g clip-path="url(#p4edf1aae3e)">
     <use style="fill:#ff0000;stroke:#ff0000;" x="977.952756" xlink:href="#m8a35956894" y="184.251969"/>
    </g>
   </g>
   <g id="line2d_145">
    <g clip-path="url(#p4edf1aae3e)">
     <use style="fill:#ff0000;stroke:#ff0000;" x="609.448819" xlink:href="#m8a35956894" y="411.023622"/>
    </g>
   </g>
   <g id="line2d_146">
    <g clip-path="url(#p4edf1aae3e)">
     <use style="fill:#ff0000;stroke:#ff0000;" x="562.394236" xlink:href="#m8a35956894" y="229.017636"/>
    </g>
   </g>
   <g id="line2d_147">
    <g clip-path="url(#p4edf1aae3e)">
     <use style="fill:#ff0000;stroke:#ff0000;" x="618.577823" xlink:href="#m8a35956894" y="223.255217"/>
    </g>
   </g>
   <g id="line2d_148">
    <g clip-path="url(#p4edf1aae3e)">
     <use style="fill:#ff0000;stroke:#ff0000;" x="368.503937" xlink:href="#m8a35956894" y="992.125984"/>
    </g>
   </g>
   <g id="line2d_149">
    <g clip-path="url(#p4edf1aae3e)">
     <use style="fill:#ff0000;stroke:#ff0000;" x="116.220472" xlink:href="#m8a35956894" y="992.125984"/>
    </g>
   </g>
   <g id="line2d_150">
    <g clip-path="url(#p4edf1aae3e)">
     <use style="fill:#ff0000;stroke:#ff0000;" x="116.220472" xlink:href="#m8a35956894" y="1700.787402"/>
    </g>
   </g>
   <g id="line2d_151">
    <g clip-path="url(#p4edf1aae3e)">
     <use style="fill:#ff0000;stroke:#ff0000;" x="1644.094488" xlink:href="#m8a35956894" y="1700.787402"/>
    </g>
   </g>
   <g id="line2d_152">
    <g clip-path="url(#p4edf1aae3e)">
     <use style="fill:#ff0000;stroke:#ff0000;" x="1644.094488" xlink:href="#m8a35956894" y="739.84252"/>
    </g>
   </g>
   <g id="line2d_153">
    <g clip-path="url(#p4edf1aae3e)">
     <use style="fill:#ff0000;stroke:#ff0000;" x="1587.401575" xlink:href="#m8a35956894" y="127.559055"/>
    </g>
   </g>
   <g id="line2d_154">
    <g clip-path="url(#p4edf1aae3e)">
     <use style="fill:#ff0000;stroke:#ff0000;" x="1644.094488" xlink:href="#m8a35956894" y="184.251969"/>
    </g>
   </g>
   <g id="line2d_155">
    <g clip-path="url(#p4edf1aae3e)">
     <use style="fill:#ff0000;stroke:#ff0000;" x="1034.645669" xlink:href="#m8a35956894" y="184.251969"/>
    </g>
   </g>
   <g id="line2d_156">
    <g clip-path="url(#p4edf1aae3e)">
     <use style="fill:#ff0000;stroke:#ff0000;" x="1403.149606" xlink:href="#m8a35956894" y="581.102362"/>
    </g>
   </g>
   <g id="line2d_157">
    <g clip-path="url(#p4edf1aae3e)">
     <use style="fill:#ff0000;stroke:#ff0000;" x="1006.299213" xlink:href="#m8a35956894" y="598.110236"/>
    </g>
   </g>
   <g id="line2d_158">
    <g clip-path="url(#p4edf1aae3e)">
     <use style="fill:#ff0000;stroke:#ff0000;" x="1006.299213" xlink:href="#m8a35956894" y="739.84252"/>
    </g>
   </g>
   <g id="line2d_159">
    <g clip-path="url(#p4edf1aae3e)">
     <use style="fill:#ff0000;stroke:#ff0000;" x="1006.299213" xlink:href="#m8a35956894" y="1700.787402"/>
    </g>
   </g>
   <g id="line2d_160">
    <g clip-path="url(#p4edf1aae3e)">
     <use style="fill:#ff0000;stroke:#ff0000;" x="1387.30773" xlink:href="#m8a35956894" y="149.015231"/>
    </g>
   </g>
   <g id="line2d_161">
    <g clip-path="url(#p4edf1aae3e)">
     <use style="fill:#ff0000;stroke:#ff0000;" x="1330.951063" xlink:href="#m8a35956894" y="154.795402"/>
    </g>
   </g>
   <g id="line2d_162">
    <g clip-path="url(#p4edf1aae3e)">
     <use style="fill:#ff0000;stroke:#ff0000;" x="1644.094488" xlink:href="#m8a35956894" y="992.125984"/>
    </g>
   </g>
   <g id="line2d_163">
    <g clip-path="url(#p4edf1aae3e)">
     <use style="fill:#ff0000;stroke:#ff0000;" x="1896.377953" xlink:href="#m8a35956894" y="992.125984"/>
    </g>
   </g>
   <g id="line2d_164">
    <g clip-path="url(#p4edf1aae3e)">
     <use style="fill:#ff0000;stroke:#ff0000;" x="1896.377953" xlink:href="#m8a35956894" y="1700.787402"/>
    </g>
   </g>
   <g id="line2d_165">
    <path clip-path="url(#p4edf1aae3e)" d="M 1403.149606 1148.031496 
L 1403.149982 864.566929 
" style="fill:none;stroke:#0000ff;stroke-linecap:square;stroke-width:1.5;"/>
   </g>
   <g id="line2d_166">
    <path clip-path="url(#p4edf1aae3e)" d="M 368.503937 739.84252 
L 1644.094488 739.84252 
" style="fill:none;stroke:#0000ff;stroke-dasharray:5.55,2.4;stroke-dashoffset:0;stroke-width:1.5;"/>
   </g>
   <g id="line2d_167">
    <path clip-path="url(#p4edf1aae3e)" d="M 368.503937 184.251969 
L 1644.094488 184.251969 
" style="fill:none;stroke:#0000ff;stroke-dasharray:5.55,2.4;stroke-dashoffset:0;stroke-width:1.5;"/>
   </g>
   <g id="line2d_168">
    <path clip-path="url(#p4edf1aae3e)" d="M 28.346457 1814.173228 
L 170.07874 1814.173228 
" style="fill:none;stroke:#0000ff;stroke-width:5;"/>
   </g>
   <g id="line2d_169">
    <path clip-path="url(#p4edf1aae3e)" d="M 28.346457 1814.173228 
L 170.07874 1814.173228 
" style="fill:none;stroke:#0000ff;stroke-width:5;"/>
   </g>
   <g id="patch_5">
    <path d="M 0 1842.519685 
L 0 -0 
" style="fill:none;stroke:#000000;stroke-linecap:square;stroke-linejoin:miter;stroke-width:0.8;"/>
   </g>
   <g id="patch_6">
    <path d="M 2012.598425 1842.519685 
L 2012.598425 -0 
" style="fill:none;stroke:#000000;stroke-linecap:square;stroke-linejoin:miter;stroke-width:0.8;"/>
   </g>
   <g id="patch_7">
    <path d="M 0 1842.519685 
L 2012.598425 1842.519685 
" style="fill:none;stroke:#000000;stroke-linecap:square;stroke-linejoin:miter;stroke-width:0.8;"/>
   </g>
   <g id="patch_8">
    <path d="M 0 0 
L 2012.598425 0 
" style="fill:none;stroke:#000000;stroke-linecap:square;stroke-linejoin:miter;stroke-width:0.8;"/>
   </g>
   <g id="text_1">
    <!-- A -->
    <g transform="translate(374.173228 184.251969)scale(0.1 -0.1)">
     <defs>
      <path d="M 34.1875 63.1875 
L 20.796875 26.90625 
L 47.609375 26.90625 
z
M 28.609375 72.90625 
L 39.796875 72.90625 
L 67.578125 0 
L 57.328125 0 
L 50.6875 18.703125 
L 17.828125 18.703125 
L 11.1875 0 
L 0.78125 0 
z
" id="DejaVuSans-65"/>
     </defs>
     <use xlink:href="#DejaVuSans-65"/>
    </g>
   </g>
   <g id="text_2">
    <!-- A1 -->
    <g transform="translate(430.866142 240.944882)scale(0.1 -0.1)">
     <defs>
      <path d="M 12.40625 8.296875 
L 28.515625 8.296875 
L 28.515625 63.921875 
L 10.984375 60.40625 
L 10.984375 69.390625 
L 28.421875 72.90625 
L 38.28125 72.90625 
L 38.28125 8.296875 
L 54.390625 8.296875 
L 54.390625 0 
L 12.40625 0 
z
" id="DejaVuSans-49"/>
     </defs>
     <use xlink:href="#DejaVuSans-65"/>
     <use x="68.408203" xlink:href="#DejaVuSans-49"/>
    </g>
   </g>
   <g id="text_3">
    <!-- G -->
    <g transform="translate(374.173228 739.84252)scale(0.1 -0.1)">
     <defs>
      <path d="M 59.515625 10.40625 
L 59.515625 29.984375 
L 43.40625 29.984375 
L 43.40625 38.09375 
L 69.28125 38.09375 
L 69.28125 6.78125 
Q 63.578125 2.734375 56.6875 0.65625 
Q 49.8125 -1.421875 42 -1.421875 
Q 24.90625 -1.421875 15.25 8.5625 
Q 5.609375 18.5625 5.609375 36.375 
Q 5.609375 54.25 15.25 64.234375 
Q 24.90625 74.21875 42 74.21875 
Q 49.125 74.21875 55.546875 72.453125 
Q 61.96875 70.703125 67.390625 67.28125 
L 67.390625 56.78125 
Q 61.921875 61.421875 55.765625 63.765625 
Q 49.609375 66.109375 42.828125 66.109375 
Q 29.4375 66.109375 22.71875 58.640625 
Q 16.015625 51.171875 16.015625 36.375 
Q 16.015625 21.625 22.71875 14.15625 
Q 29.4375 6.6875 42.828125 6.6875 
Q 48.046875 6.6875 52.140625 7.59375 
Q 56.25 8.5 59.515625 10.40625 
z
" id="DejaVuSans-71"/>
     </defs>
     <use xlink:href="#DejaVuSans-71"/>
    </g>
   </g>
   <g id="text_4">
    <!-- B -->
    <g transform="translate(374.173228 1700.787402)scale(0.1 -0.1)">
     <defs>
      <path d="M 19.671875 34.8125 
L 19.671875 8.109375 
L 35.5 8.109375 
Q 43.453125 8.109375 47.28125 11.40625 
Q 51.125 14.703125 51.125 21.484375 
Q 51.125 28.328125 47.28125 31.5625 
Q 43.453125 34.8125 35.5 34.8125 
z
M 19.671875 64.796875 
L 19.671875 42.828125 
L 34.28125 42.828125 
Q 41.5 42.828125 45.03125 45.53125 
Q 48.578125 48.25 48.578125 53.8125 
Q 48.578125 59.328125 45.03125 62.0625 
Q 41.5 64.796875 34.28125 64.796875 
z
M 9.8125 72.90625 
L 35.015625 72.90625 
Q 46.296875 72.90625 52.390625 68.21875 
Q 58.5 63.53125 58.5 54.890625 
Q 58.5 48.1875 55.375 44.234375 
Q 52.25 40.28125 46.1875 39.3125 
Q 53.46875 37.75 57.5 32.78125 
Q 61.53125 27.828125 61.53125 20.40625 
Q 61.53125 10.640625 54.890625 5.3125 
Q 48.25 0 35.984375 0 
L 9.8125 0 
z
" id="DejaVuSans-66"/>
     </defs>
     <use xlink:href="#DejaVuSans-66"/>
    </g>
   </g>
   <g id="text_5">
    <!-- F -->
    <g transform="translate(1011.968504 1700.787402)scale(0.1 -0.1)">
     <defs>
      <path d="M 9.8125 72.90625 
L 51.703125 72.90625 
L 51.703125 64.59375 
L 19.671875 64.59375 
L 19.671875 43.109375 
L 48.578125 43.109375 
L 48.578125 34.8125 
L 19.671875 34.8125 
L 19.671875 0 
L 9.8125 0 
z
" id="DejaVuSans-70"/>
     </defs>
     <use xlink:href="#DejaVuSans-70"/>
    </g>
   </g>
   <g id="text_6">
    <!-- E1 -->
    <g transform="translate(1011.968504 598.110236)scale(0.1 -0.1)">
     <defs>
      <path d="M 9.8125 72.90625 
L 55.90625 72.90625 
L 55.90625 64.59375 
L 19.671875 64.59375 
L 19.671875 43.015625 
L 54.390625 43.015625 
L 54.390625 34.71875 
L 19.671875 34.71875 
L 19.671875 8.296875 
L 56.78125 8.296875 
L 56.78125 0 
L 9.8125 0 
z
" id="DejaVuSans-69"/>
     </defs>
     <use xlink:href="#DejaVuSans-69"/>
     <use x="63.183594" xlink:href="#DejaVuSans-49"/>
    </g>
   </g>
   <g id="text_7">
    <!-- E2 -->
    <g transform="translate(1011.968504 739.84252)scale(0.1 -0.1)">
     <defs>
      <path d="M 19.1875 8.296875 
L 53.609375 8.296875 
L 53.609375 0 
L 7.328125 0 
L 7.328125 8.296875 
Q 12.9375 14.109375 22.625 23.890625 
Q 32.328125 33.6875 34.8125 36.53125 
Q 39.546875 41.84375 41.421875 45.53125 
Q 43.3125 49.21875 43.3125 52.78125 
Q 43.3125 58.59375 39.234375 62.25 
Q 35.15625 65.921875 28.609375 65.921875 
Q 23.96875 65.921875 18.8125 64.3125 
Q 13.671875 62.703125 7.8125 59.421875 
L 7.8125 69.390625 
Q 13.765625 71.78125 18.9375 73 
Q 24.125 74.21875 28.421875 74.21875 
Q 39.75 74.21875 46.484375 68.546875 
Q 53.21875 62.890625 53.21875 53.421875 
Q 53.21875 48.921875 51.53125 44.890625 
Q 49.859375 40.875 45.40625 35.40625 
Q 44.1875 33.984375 37.640625 27.21875 
Q 31.109375 20.453125 19.1875 8.296875 
z
" id="DejaVuSans-50"/>
     </defs>
     <use xlink:href="#DejaVuSans-69"/>
     <use x="63.183594" xlink:href="#DejaVuSans-50"/>
    </g>
   </g>
   <g id="text_8">
    <!-- W1 -->
    <g transform="translate(983.622047 184.251969)scale(0.1 -0.1)">
     <defs>
      <path d="M 3.328125 72.90625 
L 13.28125 72.90625 
L 28.609375 11.28125 
L 43.890625 72.90625 
L 54.984375 72.90625 
L 70.3125 11.28125 
L 85.59375 72.90625 
L 95.609375 72.90625 
L 77.296875 0 
L 64.890625 0 
L 49.515625 63.28125 
L 33.984375 0 
L 21.578125 0 
z
" id="DejaVuSans-87"/>
     </defs>
     <use xlink:href="#DejaVuSans-87"/>
     <use x="98.876953" xlink:href="#DejaVuSans-49"/>
    </g>
   </g>
   <g id="text_9">
    <!-- S4 -->
    <g transform="translate(615.11811 411.023622)scale(0.1 -0.1)">
     <defs>
      <path d="M 53.515625 70.515625 
L 53.515625 60.890625 
Q 47.90625 63.578125 42.921875 64.890625 
Q 37.9375 66.21875 33.296875 66.21875 
Q 25.25 66.21875 20.875 63.09375 
Q 16.5 59.96875 16.5 54.203125 
Q 16.5 49.359375 19.40625 46.890625 
Q 22.3125 44.4375 30.421875 42.921875 
L 36.375 41.703125 
Q 47.40625 39.59375 52.65625 34.296875 
Q 57.90625 29 57.90625 20.125 
Q 57.90625 9.515625 50.796875 4.046875 
Q 43.703125 -1.421875 29.984375 -1.421875 
Q 24.8125 -1.421875 18.96875 -0.25 
Q 13.140625 0.921875 6.890625 3.21875 
L 6.890625 13.375 
Q 12.890625 10.015625 18.65625 8.296875 
Q 24.421875 6.59375 29.984375 6.59375 
Q 38.421875 6.59375 43.015625 9.90625 
Q 47.609375 13.234375 47.609375 19.390625 
Q 47.609375 24.75 44.3125 27.78125 
Q 41.015625 30.8125 33.5 32.328125 
L 27.484375 33.5 
Q 16.453125 35.6875 11.515625 40.375 
Q 6.59375 45.0625 6.59375 53.421875 
Q 6.59375 63.09375 13.40625 68.65625 
Q 20.21875 74.21875 32.171875 74.21875 
Q 37.3125 74.21875 42.625 73.28125 
Q 47.953125 72.359375 53.515625 70.515625 
z
" id="DejaVuSans-83"/>
      <path d="M 37.796875 64.3125 
L 12.890625 25.390625 
L 37.796875 25.390625 
z
M 35.203125 72.90625 
L 47.609375 72.90625 
L 47.609375 25.390625 
L 58.015625 25.390625 
L 58.015625 17.1875 
L 47.609375 17.1875 
L 47.609375 0 
L 37.796875 0 
L 37.796875 17.1875 
L 4.890625 17.1875 
L 4.890625 26.703125 
z
" id="DejaVuSans-52"/>
     </defs>
     <use xlink:href="#DejaVuSans-83"/>
     <use x="63.476562" xlink:href="#DejaVuSans-52"/>
    </g>
   </g>
   <g id="text_10">
    <!-- T4 -->
    <g transform="translate(568.063527 229.017636)scale(0.1 -0.1)">
     <defs>
      <path d="M -0.296875 72.90625 
L 61.375 72.90625 
L 61.375 64.59375 
L 35.5 64.59375 
L 35.5 0 
L 25.59375 0 
L 25.59375 64.59375 
L -0.296875 64.59375 
z
" id="DejaVuSans-84"/>
     </defs>
     <use xlink:href="#DejaVuSans-84"/>
     <use x="61.083984" xlink:href="#DejaVuSans-52"/>
    </g>
   </g>
   <g id="text_11">
    <!-- T5 -->
    <g transform="translate(624.247114 223.255217)scale(0.1 -0.1)">
     <defs>
      <path d="M 10.796875 72.90625 
L 49.515625 72.90625 
L 49.515625 64.59375 
L 19.828125 64.59375 
L 19.828125 46.734375 
Q 21.96875 47.46875 24.109375 47.828125 
Q 26.265625 48.1875 28.421875 48.1875 
Q 40.625 48.1875 47.75 41.5 
Q 54.890625 34.8125 54.890625 23.390625 
Q 54.890625 11.625 47.5625 5.09375 
Q 40.234375 -1.421875 26.90625 -1.421875 
Q 22.3125 -1.421875 17.546875 -0.640625 
Q 12.796875 0.140625 7.71875 1.703125 
L 7.71875 11.625 
Q 12.109375 9.234375 16.796875 8.0625 
Q 21.484375 6.890625 26.703125 6.890625 
Q 35.15625 6.890625 40.078125 11.328125 
Q 45.015625 15.765625 45.015625 23.390625 
Q 45.015625 31 40.078125 35.4375 
Q 35.15625 39.890625 26.703125 39.890625 
Q 22.75 39.890625 18.8125 39.015625 
Q 14.890625 38.140625 10.796875 36.28125 
z
" id="DejaVuSans-53"/>
     </defs>
     <use xlink:href="#DejaVuSans-84"/>
     <use x="61.083984" xlink:href="#DejaVuSans-53"/>
    </g>
   </g>
   <g id="text_12">
    <!-- P -->
    <g transform="translate(374.173228 992.125984)scale(0.1 -0.1)">
     <defs>
      <path d="M 19.671875 64.796875 
L 19.671875 37.40625 
L 32.078125 37.40625 
Q 38.96875 37.40625 42.71875 40.96875 
Q 46.484375 44.53125 46.484375 51.125 
Q 46.484375 57.671875 42.71875 61.234375 
Q 38.96875 64.796875 32.078125 64.796875 
z
M 9.8125 72.90625 
L 32.078125 72.90625 
Q 44.34375 72.90625 50.609375 67.359375 
Q 56.890625 61.8125 56.890625 51.125 
Q 56.890625 40.328125 50.609375 34.8125 
Q 44.34375 29.296875 32.078125 29.296875 
L 19.671875 29.296875 
L 19.671875 0 
L 9.8125 0 
z
" id="DejaVuSans-80"/>
     </defs>
     <use xlink:href="#DejaVuSans-80"/>
    </g>
   </g>
   <g id="text_13">
    <!-- I -->
    <g transform="translate(121.889764 992.125984)scale(0.1 -0.1)">
     <defs>
      <path d="M 9.8125 72.90625 
L 19.671875 72.90625 
L 19.671875 0 
L 9.8125 0 
z
" id="DejaVuSans-73"/>
     </defs>
     <use xlink:href="#DejaVuSans-73"/>
    </g>
   </g>
   <g id="text_14">
    <!-- B1 -->
    <g transform="translate(121.889764 1700.787402)scale(0.1 -0.1)">
     <use xlink:href="#DejaVuSans-66"/>
     <use x="68.603516" xlink:href="#DejaVuSans-49"/>
    </g>
   </g>
   <g id="text_15">
    <!-- C -->
    <g transform="translate(1649.76378 1700.787402)scale(0.1 -0.1)">
     <defs>
      <path d="M 64.40625 67.28125 
L 64.40625 56.890625 
Q 59.421875 61.53125 53.78125 63.8125 
Q 48.140625 66.109375 41.796875 66.109375 
Q 29.296875 66.109375 22.65625 58.46875 
Q 16.015625 50.828125 16.015625 36.375 
Q 16.015625 21.96875 22.65625 14.328125 
Q 29.296875 6.6875 41.796875 6.6875 
Q 48.140625 6.6875 53.78125 8.984375 
Q 59.421875 11.28125 64.40625 15.921875 
L 64.40625 5.609375 
Q 59.234375 2.09375 53.4375 0.328125 
Q 47.65625 -1.421875 41.21875 -1.421875 
Q 24.65625 -1.421875 15.125 8.703125 
Q 5.609375 18.84375 5.609375 36.375 
Q 5.609375 53.953125 15.125 64.078125 
Q 24.65625 74.21875 41.21875 74.21875 
Q 47.75 74.21875 53.53125 72.484375 
Q 59.328125 70.75 64.40625 67.28125 
z
" id="DejaVuSans-67"/>
     </defs>
     <use xlink:href="#DejaVuSans-67"/>
    </g>
   </g>
   <g id="text_16">
    <!-- H -->
    <g transform="translate(1649.76378 739.84252)scale(0.1 -0.1)">
     <defs>
      <path d="M 9.8125 72.90625 
L 19.671875 72.90625 
L 19.671875 43.015625 
L 55.515625 43.015625 
L 55.515625 72.90625 
L 65.375 72.90625 
L 65.375 0 
L 55.515625 0 
L 55.515625 34.71875 
L 19.671875 34.71875 
L 19.671875 0 
L 9.8125 0 
z
" id="DejaVuSans-72"/>
     </defs>
     <use xlink:href="#DejaVuSans-72"/>
    </g>
   </g>
   <g id="text_17">
    <!-- D1 -->
    <g transform="translate(1593.070866 127.559055)scale(0.1 -0.1)">
     <defs>
      <path d="M 19.671875 64.796875 
L 19.671875 8.109375 
L 31.59375 8.109375 
Q 46.6875 8.109375 53.6875 14.9375 
Q 60.6875 21.78125 60.6875 36.53125 
Q 60.6875 51.171875 53.6875 57.984375 
Q 46.6875 64.796875 31.59375 64.796875 
z
M 9.8125 72.90625 
L 30.078125 72.90625 
Q 51.265625 72.90625 61.171875 64.09375 
Q 71.09375 55.28125 71.09375 36.53125 
Q 71.09375 17.671875 61.125 8.828125 
Q 51.171875 0 30.078125 0 
L 9.8125 0 
z
" id="DejaVuSans-68"/>
     </defs>
     <use xlink:href="#DejaVuSans-68"/>
     <use x="77.001953" xlink:href="#DejaVuSans-49"/>
    </g>
   </g>
   <g id="text_18">
    <!-- D -->
    <g transform="translate(1649.76378 184.251969)scale(0.1 -0.1)">
     <use xlink:href="#DejaVuSans-68"/>
    </g>
   </g>
   <g id="text_19">
    <!-- W -->
    <g transform="translate(1040.314961 184.251969)scale(0.1 -0.1)">
     <use xlink:href="#DejaVuSans-87"/>
    </g>
   </g>
   <g id="text_20">
    <!-- S3 -->
    <g transform="translate(1408.818898 581.102362)scale(0.1 -0.1)">
     <defs>
      <path d="M 40.578125 39.3125 
Q 47.65625 37.796875 51.625 33 
Q 55.609375 28.21875 55.609375 21.1875 
Q 55.609375 10.40625 48.1875 4.484375 
Q 40.765625 -1.421875 27.09375 -1.421875 
Q 22.515625 -1.421875 17.65625 -0.515625 
Q 12.796875 0.390625 7.625 2.203125 
L 7.625 11.71875 
Q 11.71875 9.328125 16.59375 8.109375 
Q 21.484375 6.890625 26.8125 6.890625 
Q 36.078125 6.890625 40.9375 10.546875 
Q 45.796875 14.203125 45.796875 21.1875 
Q 45.796875 27.640625 41.28125 31.265625 
Q 36.765625 34.90625 28.71875 34.90625 
L 20.21875 34.90625 
L 20.21875 43.015625 
L 29.109375 43.015625 
Q 36.375 43.015625 40.234375 45.921875 
Q 44.09375 48.828125 44.09375 54.296875 
Q 44.09375 59.90625 40.109375 62.90625 
Q 36.140625 65.921875 28.71875 65.921875 
Q 24.65625 65.921875 20.015625 65.03125 
Q 15.375 64.15625 9.8125 62.3125 
L 9.8125 71.09375 
Q 15.4375 72.65625 20.34375 73.4375 
Q 25.25 74.21875 29.59375 74.21875 
Q 40.828125 74.21875 47.359375 69.109375 
Q 53.90625 64.015625 53.90625 55.328125 
Q 53.90625 49.265625 50.4375 45.09375 
Q 46.96875 40.921875 40.578125 39.3125 
z
" id="DejaVuSans-51"/>
     </defs>
     <use xlink:href="#DejaVuSans-83"/>
     <use x="63.476562" xlink:href="#DejaVuSans-51"/>
    </g>
   </g>
   <g id="text_21">
    <!-- E1 -->
    <g transform="translate(1011.968504 598.110236)scale(0.1 -0.1)">
     <use xlink:href="#DejaVuSans-69"/>
     <use x="63.183594" xlink:href="#DejaVuSans-49"/>
    </g>
   </g>
   <g id="text_22">
    <!-- E2 -->
    <g transform="translate(1011.968504 739.84252)scale(0.1 -0.1)">
     <use xlink:href="#DejaVuSans-69"/>
     <use x="63.183594" xlink:href="#DejaVuSans-50"/>
    </g>
   </g>
   <g id="text_23">
    <!-- F -->
    <g transform="translate(1011.968504 1700.787402)scale(0.1 -0.1)">
     <use xlink:href="#DejaVuSans-70"/>
    </g>
   </g>
   <g id="text_24">
    <!-- T3 -->
    <g transform="translate(1392.977021 149.015231)scale(0.1 -0.1)">
     <use xlink:href="#DejaVuSans-84"/>
     <use x="61.083984" xlink:href="#DejaVuSans-51"/>
    </g>
   </g>
   <g id="text_25">
    <!-- T2 -->
    <g transform="translate(1336.620354 154.795402)scale(0.1 -0.1)">
     <use xlink:href="#DejaVuSans-84"/>
     <use x="61.083984" xlink:href="#DejaVuSans-50"/>
    </g>
   </g>
   <g id="text_26">
    <!-- O -->
    <g transform="translate(1649.76378 992.125984)scale(0.1 -0.1)">
     <defs>
      <path d="M 39.40625 66.21875 
Q 28.65625 66.21875 22.328125 58.203125 
Q 16.015625 50.203125 16.015625 36.375 
Q 16.015625 22.609375 22.328125 14.59375 
Q 28.65625 6.59375 39.40625 6.59375 
Q 50.140625 6.59375 56.421875 14.59375 
Q 62.703125 22.609375 62.703125 36.375 
Q 62.703125 50.203125 56.421875 58.203125 
Q 50.140625 66.21875 39.40625 66.21875 
z
M 39.40625 74.21875 
Q 54.734375 74.21875 63.90625 63.9375 
Q 73.09375 53.65625 73.09375 36.375 
Q 73.09375 19.140625 63.90625 8.859375 
Q 54.734375 -1.421875 39.40625 -1.421875 
Q 24.03125 -1.421875 14.8125 8.828125 
Q 5.609375 19.09375 5.609375 36.375 
Q 5.609375 53.65625 14.8125 63.9375 
Q 24.03125 74.21875 39.40625 74.21875 
z
" id="DejaVuSans-79"/>
     </defs>
     <use xlink:href="#DejaVuSans-79"/>
    </g>
   </g>
   <g id="text_27">
    <!-- L -->
    <g transform="translate(1902.047244 992.125984)scale(0.1 -0.1)">
     <defs>
      <path d="M 9.8125 72.90625 
L 19.671875 72.90625 
L 19.671875 8.296875 
L 55.171875 8.296875 
L 55.171875 0 
L 9.8125 0 
z
" id="DejaVuSans-76"/>
     </defs>
     <use xlink:href="#DejaVuSans-76"/>
    </g>
   </g>
   <g id="text_28">
    <!-- C1 -->
    <g transform="translate(1902.047244 1700.787402)scale(0.1 -0.1)">
     <use xlink:href="#DejaVuSans-67"/>
     <use x="69.824219" xlink:href="#DejaVuSans-49"/>
    </g>
   </g>
   <g id="text_29">
    <!-- Style: Donnanno -->
    <g transform="translate(85.03937 28.346457)scale(0.1 -0.1)">
     <defs>
      <path d="M 18.3125 70.21875 
L 18.3125 54.6875 
L 36.8125 54.6875 
L 36.8125 47.703125 
L 18.3125 47.703125 
L 18.3125 18.015625 
Q 18.3125 11.328125 20.140625 9.421875 
Q 21.96875 7.515625 27.59375 7.515625 
L 36.8125 7.515625 
L 36.8125 0 
L 27.59375 0 
Q 17.1875 0 13.234375 3.875 
Q 9.28125 7.765625 9.28125 18.015625 
L 9.28125 47.703125 
L 2.6875 47.703125 
L 2.6875 54.6875 
L 9.28125 54.6875 
L 9.28125 70.21875 
z
" id="DejaVuSans-116"/>
      <path d="M 32.171875 -5.078125 
Q 28.375 -14.84375 24.75 -17.8125 
Q 21.140625 -20.796875 15.09375 -20.796875 
L 7.90625 -20.796875 
L 7.90625 -13.28125 
L 13.1875 -13.28125 
Q 16.890625 -13.28125 18.9375 -11.515625 
Q 21 -9.765625 23.484375 -3.21875 
L 25.09375 0.875 
L 2.984375 54.6875 
L 12.5 54.6875 
L 29.59375 11.921875 
L 46.6875 54.6875 
L 56.203125 54.6875 
z
" id="DejaVuSans-121"/>
      <path d="M 9.421875 75.984375 
L 18.40625 75.984375 
L 18.40625 0 
L 9.421875 0 
z
" id="DejaVuSans-108"/>
      <path d="M 56.203125 29.59375 
L 56.203125 25.203125 
L 14.890625 25.203125 
Q 15.484375 15.921875 20.484375 11.0625 
Q 25.484375 6.203125 34.421875 6.203125 
Q 39.59375 6.203125 44.453125 7.46875 
Q 49.3125 8.734375 54.109375 11.28125 
L 54.109375 2.78125 
Q 49.265625 0.734375 44.1875 -0.34375 
Q 39.109375 -1.421875 33.890625 -1.421875 
Q 20.796875 -1.421875 13.15625 6.1875 
Q 5.515625 13.8125 5.515625 26.8125 
Q 5.515625 40.234375 12.765625 48.109375 
Q 20.015625 56 32.328125 56 
Q 43.359375 56 49.78125 48.890625 
Q 56.203125 41.796875 56.203125 29.59375 
z
M 47.21875 32.234375 
Q 47.125 39.59375 43.09375 43.984375 
Q 39.0625 48.390625 32.421875 48.390625 
Q 24.90625 48.390625 20.390625 44.140625 
Q 15.875 39.890625 15.1875 32.171875 
z
" id="DejaVuSans-101"/>
      <path d="M 11.71875 12.40625 
L 22.015625 12.40625 
L 22.015625 0 
L 11.71875 0 
z
M 11.71875 51.703125 
L 22.015625 51.703125 
L 22.015625 39.3125 
L 11.71875 39.3125 
z
" id="DejaVuSans-58"/>
      <path id="DejaVuSans-32"/>
      <path d="M 30.609375 48.390625 
Q 23.390625 48.390625 19.1875 42.75 
Q 14.984375 37.109375 14.984375 27.296875 
Q 14.984375 17.484375 19.15625 11.84375 
Q 23.34375 6.203125 30.609375 6.203125 
Q 37.796875 6.203125 41.984375 11.859375 
Q 46.1875 17.53125 46.1875 27.296875 
Q 46.1875 37.015625 41.984375 42.703125 
Q 37.796875 48.390625 30.609375 48.390625 
z
M 30.609375 56 
Q 42.328125 56 49.015625 48.375 
Q 55.71875 40.765625 55.71875 27.296875 
Q 55.71875 13.875 49.015625 6.21875 
Q 42.328125 -1.421875 30.609375 -1.421875 
Q 18.84375 -1.421875 12.171875 6.21875 
Q 5.515625 13.875 5.515625 27.296875 
Q 5.515625 40.765625 12.171875 48.375 
Q 18.84375 56 30.609375 56 
z
" id="DejaVuSans-111"/>
      <path d="M 54.890625 33.015625 
L 54.890625 0 
L 45.90625 0 
L 45.90625 32.71875 
Q 45.90625 40.484375 42.875 44.328125 
Q 39.84375 48.1875 33.796875 48.1875 
Q 26.515625 48.1875 22.3125 43.546875 
Q 18.109375 38.921875 18.109375 30.90625 
L 18.109375 0 
L 9.078125 0 
L 9.078125 54.6875 
L 18.109375 54.6875 
L 18.109375 46.1875 
Q 21.34375 51.125 25.703125 53.5625 
Q 30.078125 56 35.796875 56 
Q 45.21875 56 50.046875 50.171875 
Q 54.890625 44.34375 54.890625 33.015625 
z
" id="DejaVuSans-110"/>
      <path d="M 34.28125 27.484375 
Q 23.390625 27.484375 19.1875 25 
Q 14.984375 22.515625 14.984375 16.5 
Q 14.984375 11.71875 18.140625 8.90625 
Q 21.296875 6.109375 26.703125 6.109375 
Q 34.1875 6.109375 38.703125 11.40625 
Q 43.21875 16.703125 43.21875 25.484375 
L 43.21875 27.484375 
z
M 52.203125 31.203125 
L 52.203125 0 
L 43.21875 0 
L 43.21875 8.296875 
Q 40.140625 3.328125 35.546875 0.953125 
Q 30.953125 -1.421875 24.3125 -1.421875 
Q 15.921875 -1.421875 10.953125 3.296875 
Q 6 8.015625 6 15.921875 
Q 6 25.140625 12.171875 29.828125 
Q 18.359375 34.515625 30.609375 34.515625 
L 43.21875 34.515625 
L 43.21875 35.40625 
Q 43.21875 41.609375 39.140625 45 
Q 35.0625 48.390625 27.6875 48.390625 
Q 23 48.390625 18.546875 47.265625 
Q 14.109375 46.140625 10.015625 43.890625 
L 10.015625 52.203125 
Q 14.9375 54.109375 19.578125 55.046875 
Q 24.21875 56 28.609375 56 
Q 40.484375 56 46.34375 49.84375 
Q 52.203125 43.703125 52.203125 31.203125 
z
" id="DejaVuSans-97"/>
     </defs>
     <use xlink:href="#DejaVuSans-83"/>
     <use x="63.476562" xlink:href="#DejaVuSans-116"/>
     <use x="102.685547" xlink:href="#DejaVuSans-121"/>
     <use x="161.865234" xlink:href="#DejaVuSans-108"/>
     <use x="189.648438" xlink:href="#DejaVuSans-101"/>
     <use x="251.171875" xlink:href="#DejaVuSans-58"/>
     <use x="284.863281" xlink:href="#DejaVuSans-32"/>
     <use x="316.650391" xlink:href="#DejaVuSans-68"/>
     <use x="393.652344" xlink:href="#DejaVuSans-111"/>
     <use x="454.833984" xlink:href="#DejaVuSans-110"/>
     <use x="518.212891" xlink:href="#DejaVuSans-110"/>
     <use x="581.591797" xlink:href="#DejaVuSans-97"/>
     <use x="642.871094" xlink:href="#DejaVuSans-110"/>
     <use x="706.25" xlink:href="#DejaVuSans-110"/>
     <use x="769.628906" xlink:href="#DejaVuSans-111"/>
    </g>
   </g>
   <g id="text_30">
    <!-- Gender: W -->
    <g transform="translate(85.03937 56.692913)scale(0.1 -0.1)">
     <defs>
      <path d="M 45.40625 46.390625 
L 45.40625 75.984375 
L 54.390625 75.984375 
L 54.390625 0 
L 45.40625 0 
L 45.40625 8.203125 
Q 42.578125 3.328125 38.25 0.953125 
Q 33.9375 -1.421875 27.875 -1.421875 
Q 17.96875 -1.421875 11.734375 6.484375 
Q 5.515625 14.40625 5.515625 27.296875 
Q 5.515625 40.1875 11.734375 48.09375 
Q 17.96875 56 27.875 56 
Q 33.9375 56 38.25 53.625 
Q 42.578125 51.265625 45.40625 46.390625 
z
M 14.796875 27.296875 
Q 14.796875 17.390625 18.875 11.75 
Q 22.953125 6.109375 30.078125 6.109375 
Q 37.203125 6.109375 41.296875 11.75 
Q 45.40625 17.390625 45.40625 27.296875 
Q 45.40625 37.203125 41.296875 42.84375 
Q 37.203125 48.484375 30.078125 48.484375 
Q 22.953125 48.484375 18.875 42.84375 
Q 14.796875 37.203125 14.796875 27.296875 
z
" id="DejaVuSans-100"/>
      <path d="M 41.109375 46.296875 
Q 39.59375 47.171875 37.8125 47.578125 
Q 36.03125 48 33.890625 48 
Q 26.265625 48 22.1875 43.046875 
Q 18.109375 38.09375 18.109375 28.8125 
L 18.109375 0 
L 9.078125 0 
L 9.078125 54.6875 
L 18.109375 54.6875 
L 18.109375 46.1875 
Q 20.953125 51.171875 25.484375 53.578125 
Q 30.03125 56 36.53125 56 
Q 37.453125 56 38.578125 55.875 
Q 39.703125 55.765625 41.0625 55.515625 
z
" id="DejaVuSans-114"/>
     </defs>
     <use xlink:href="#DejaVuSans-71"/>
     <use x="77.490234" xlink:href="#DejaVuSans-101"/>
     <use x="139.013672" xlink:href="#DejaVuSans-110"/>
     <use x="202.392578" xlink:href="#DejaVuSans-100"/>
     <use x="265.869141" xlink:href="#DejaVuSans-101"/>
     <use x="327.392578" xlink:href="#DejaVuSans-114"/>
     <use x="366.755859" xlink:href="#DejaVuSans-58"/>
     <use x="400.447266" xlink:href="#DejaVuSans-32"/>
     <use x="432.234375" xlink:href="#DejaVuSans-87"/>
    </g>
   </g>
   <g id="text_31">
    <!-- Measurements: W40D -->
    <g transform="translate(85.03937 85.03937)scale(0.1 -0.1)">
     <defs>
      <path d="M 9.8125 72.90625 
L 24.515625 72.90625 
L 43.109375 23.296875 
L 61.8125 72.90625 
L 76.515625 72.90625 
L 76.515625 0 
L 66.890625 0 
L 66.890625 64.015625 
L 48.09375 14.015625 
L 38.1875 14.015625 
L 19.390625 64.015625 
L 19.390625 0 
L 9.8125 0 
z
" id="DejaVuSans-77"/>
      <path d="M 44.28125 53.078125 
L 44.28125 44.578125 
Q 40.484375 46.53125 36.375 47.5 
Q 32.28125 48.484375 27.875 48.484375 
Q 21.1875 48.484375 17.84375 46.4375 
Q 14.5 44.390625 14.5 40.28125 
Q 14.5 37.15625 16.890625 35.375 
Q 19.28125 33.59375 26.515625 31.984375 
L 29.59375 31.296875 
Q 39.15625 29.25 43.1875 25.515625 
Q 47.21875 21.78125 47.21875 15.09375 
Q 47.21875 7.46875 41.1875 3.015625 
Q 35.15625 -1.421875 24.609375 -1.421875 
Q 20.21875 -1.421875 15.453125 -0.5625 
Q 10.6875 0.296875 5.421875 2 
L 5.421875 11.28125 
Q 10.40625 8.6875 15.234375 7.390625 
Q 20.0625 6.109375 24.8125 6.109375 
Q 31.15625 6.109375 34.5625 8.28125 
Q 37.984375 10.453125 37.984375 14.40625 
Q 37.984375 18.0625 35.515625 20.015625 
Q 33.0625 21.96875 24.703125 23.78125 
L 21.578125 24.515625 
Q 13.234375 26.265625 9.515625 29.90625 
Q 5.8125 33.546875 5.8125 39.890625 
Q 5.8125 47.609375 11.28125 51.796875 
Q 16.75 56 26.8125 56 
Q 31.78125 56 36.171875 55.265625 
Q 40.578125 54.546875 44.28125 53.078125 
z
" id="DejaVuSans-115"/>
      <path d="M 8.5 21.578125 
L 8.5 54.6875 
L 17.484375 54.6875 
L 17.484375 21.921875 
Q 17.484375 14.15625 20.5 10.265625 
Q 23.53125 6.390625 29.59375 6.390625 
Q 36.859375 6.390625 41.078125 11.03125 
Q 45.3125 15.671875 45.3125 23.6875 
L 45.3125 54.6875 
L 54.296875 54.6875 
L 54.296875 0 
L 45.3125 0 
L 45.3125 8.40625 
Q 42.046875 3.421875 37.71875 1 
Q 33.40625 -1.421875 27.6875 -1.421875 
Q 18.265625 -1.421875 13.375 4.4375 
Q 8.5 10.296875 8.5 21.578125 
z
M 31.109375 56 
z
" id="DejaVuSans-117"/>
      <path d="M 52 44.1875 
Q 55.375 50.25 60.0625 53.125 
Q 64.75 56 71.09375 56 
Q 79.640625 56 84.28125 50.015625 
Q 88.921875 44.046875 88.921875 33.015625 
L 88.921875 0 
L 79.890625 0 
L 79.890625 32.71875 
Q 79.890625 40.578125 77.09375 44.375 
Q 74.3125 48.1875 68.609375 48.1875 
Q 61.625 48.1875 57.5625 43.546875 
Q 53.515625 38.921875 53.515625 30.90625 
L 53.515625 0 
L 44.484375 0 
L 44.484375 32.71875 
Q 44.484375 40.625 41.703125 44.40625 
Q 38.921875 48.1875 33.109375 48.1875 
Q 26.21875 48.1875 22.15625 43.53125 
Q 18.109375 38.875 18.109375 30.90625 
L 18.109375 0 
L 9.078125 0 
L 9.078125 54.6875 
L 18.109375 54.6875 
L 18.109375 46.1875 
Q 21.1875 51.21875 25.484375 53.609375 
Q 29.78125 56 35.6875 56 
Q 41.65625 56 45.828125 52.96875 
Q 50 49.953125 52 44.1875 
z
" id="DejaVuSans-109"/>
      <path d="M 31.78125 66.40625 
Q 24.171875 66.40625 20.328125 58.90625 
Q 16.5 51.421875 16.5 36.375 
Q 16.5 21.390625 20.328125 13.890625 
Q 24.171875 6.390625 31.78125 6.390625 
Q 39.453125 6.390625 43.28125 13.890625 
Q 47.125 21.390625 47.125 36.375 
Q 47.125 51.421875 43.28125 58.90625 
Q 39.453125 66.40625 31.78125 66.40625 
z
M 31.78125 74.21875 
Q 44.046875 74.21875 50.515625 64.515625 
Q 56.984375 54.828125 56.984375 36.375 
Q 56.984375 17.96875 50.515625 8.265625 
Q 44.046875 -1.421875 31.78125 -1.421875 
Q 19.53125 -1.421875 13.0625 8.265625 
Q 6.59375 17.96875 6.59375 36.375 
Q 6.59375 54.828125 13.0625 64.515625 
Q 19.53125 74.21875 31.78125 74.21875 
z
" id="DejaVuSans-48"/>
     </defs>
     <use xlink:href="#DejaVuSans-77"/>
     <use x="86.279297" xlink:href="#DejaVuSans-101"/>
     <use x="147.802734" xlink:href="#DejaVuSans-97"/>
     <use x="209.082031" xlink:href="#DejaVuSans-115"/>
     <use x="261.181641" xlink:href="#DejaVuSans-117"/>
     <use x="324.560547" xlink:href="#DejaVuSans-114"/>
     <use x="363.423828" xlink:href="#DejaVuSans-101"/>
     <use x="424.947266" xlink:href="#DejaVuSans-109"/>
     <use x="522.359375" xlink:href="#DejaVuSans-101"/>
     <use x="583.882812" xlink:href="#DejaVuSans-110"/>
     <use x="647.261719" xlink:href="#DejaVuSans-116"/>
     <use x="686.470703" xlink:href="#DejaVuSans-115"/>
     <use x="738.570312" xlink:href="#DejaVuSans-58"/>
     <use x="772.261719" xlink:href="#DejaVuSans-32"/>
     <use x="804.048828" xlink:href="#DejaVuSans-87"/>
     <use x="902.925781" xlink:href="#DejaVuSans-52"/>
     <use x="966.548828" xlink:href="#DejaVuSans-48"/>
     <use x="1030.171875" xlink:href="#DejaVuSans-68"/>
    </g>
   </g>
   <g id="text_32">
    <!-- Pattern: My beautiful pattern -->
    <g transform="translate(85.03937 113.385827)scale(0.1 -0.1)">
     <defs>
      <path d="M 48.6875 27.296875 
Q 48.6875 37.203125 44.609375 42.84375 
Q 40.53125 48.484375 33.40625 48.484375 
Q 26.265625 48.484375 22.1875 42.84375 
Q 18.109375 37.203125 18.109375 27.296875 
Q 18.109375 17.390625 22.1875 11.75 
Q 26.265625 6.109375 33.40625 6.109375 
Q 40.53125 6.109375 44.609375 11.75 
Q 48.6875 17.390625 48.6875 27.296875 
z
M 18.109375 46.390625 
Q 20.953125 51.265625 25.265625 53.625 
Q 29.59375 56 35.59375 56 
Q 45.5625 56 51.78125 48.09375 
Q 58.015625 40.1875 58.015625 27.296875 
Q 58.015625 14.40625 51.78125 6.484375 
Q 45.5625 -1.421875 35.59375 -1.421875 
Q 29.59375 -1.421875 25.265625 0.953125 
Q 20.953125 3.328125 18.109375 8.203125 
L 18.109375 0 
L 9.078125 0 
L 9.078125 75.984375 
L 18.109375 75.984375 
z
" id="DejaVuSans-98"/>
      <path d="M 9.421875 54.6875 
L 18.40625 54.6875 
L 18.40625 0 
L 9.421875 0 
z
M 9.421875 75.984375 
L 18.40625 75.984375 
L 18.40625 64.59375 
L 9.421875 64.59375 
z
" id="DejaVuSans-105"/>
      <path d="M 37.109375 75.984375 
L 37.109375 68.5 
L 28.515625 68.5 
Q 23.6875 68.5 21.796875 66.546875 
Q 19.921875 64.59375 19.921875 59.515625 
L 19.921875 54.6875 
L 34.71875 54.6875 
L 34.71875 47.703125 
L 19.921875 47.703125 
L 19.921875 0 
L 10.890625 0 
L 10.890625 47.703125 
L 2.296875 47.703125 
L 2.296875 54.6875 
L 10.890625 54.6875 
L 10.890625 58.5 
Q 10.890625 67.625 15.140625 71.796875 
Q 19.390625 75.984375 28.609375 75.984375 
z
" id="DejaVuSans-102"/>
      <path d="M 18.109375 8.203125 
L 18.109375 -20.796875 
L 9.078125 -20.796875 
L 9.078125 54.6875 
L 18.109375 54.6875 
L 18.109375 46.390625 
Q 20.953125 51.265625 25.265625 53.625 
Q 29.59375 56 35.59375 56 
Q 45.5625 56 51.78125 48.09375 
Q 58.015625 40.1875 58.015625 27.296875 
Q 58.015625 14.40625 51.78125 6.484375 
Q 45.5625 -1.421875 35.59375 -1.421875 
Q 29.59375 -1.421875 25.265625 0.953125 
Q 20.953125 3.328125 18.109375 8.203125 
z
M 48.6875 27.296875 
Q 48.6875 37.203125 44.609375 42.84375 
Q 40.53125 48.484375 33.40625 48.484375 
Q 26.265625 48.484375 22.1875 42.84375 
Q 18.109375 37.203125 18.109375 27.296875 
Q 18.109375 17.390625 22.1875 11.75 
Q 26.265625 6.109375 33.40625 6.109375 
Q 40.53125 6.109375 44.609375 11.75 
Q 48.6875 17.390625 48.6875 27.296875 
z
" id="DejaVuSans-112"/>
     </defs>
     <use xlink:href="#DejaVuSans-80"/>
     <use x="55.802734" xlink:href="#DejaVuSans-97"/>
     <use x="117.082031" xlink:href="#DejaVuSans-116"/>
     <use x="156.291016" xlink:href="#DejaVuSans-116"/>
     <use x="195.5" xlink:href="#DejaVuSans-101"/>
     <use x="257.023438" xlink:href="#DejaVuSans-114"/>
     <use x="296.386719" xlink:href="#DejaVuSans-110"/>
     <use x="359.765625" xlink:href="#DejaVuSans-58"/>
     <use x="393.457031" xlink:href="#DejaVuSans-32"/>
     <use x="425.244141" xlink:href="#DejaVuSans-77"/>
     <use x="511.523438" xlink:href="#DejaVuSans-121"/>
     <use x="570.703125" xlink:href="#DejaVuSans-32"/>
     <use x="602.490234" xlink:href="#DejaVuSans-98"/>
     <use x="665.966797" xlink:href="#DejaVuSans-101"/>
     <use x="727.490234" xlink:href="#DejaVuSans-97"/>
     <use x="788.769531" xlink:href="#DejaVuSans-117"/>
     <use x="852.148438" xlink:href="#DejaVuSans-116"/>
     <use x="891.357422" xlink:href="#DejaVuSans-105"/>
     <use x="919.140625" xlink:href="#DejaVuSans-102"/>
     <use x="954.345703" xlink:href="#DejaVuSans-117"/>
     <use x="1017.724609" xlink:href="#DejaVuSans-108"/>
     <use x="1045.507812" xlink:href="#DejaVuSans-32"/>
     <use x="1077.294922" xlink:href="#DejaVuSans-112"/>
     <use x="1140.771484" xlink:href="#DejaVuSans-97"/>
     <use x="1202.050781" xlink:href="#DejaVuSans-116"/>
     <use x="1241.259766" xlink:href="#DejaVuSans-116"/>
     <use x="1280.46875" xlink:href="#DejaVuSans-101"/>
     <use x="1341.992188" xlink:href="#DejaVuSans-114"/>
     <use x="1381.355469" xlink:href="#DejaVuSans-110"/>
    </g>
   </g>
   <g id="text_33">
    <!-- GRAINLINE -->
    <g transform="translate(1420.082362 1019.0713)rotate(-89.999924)scale(0.1 -0.1)">
     <defs>
      <path d="M 44.390625 34.1875 
Q 47.5625 33.109375 50.5625 29.59375 
Q 53.5625 26.078125 56.59375 19.921875 
L 66.609375 0 
L 56 0 
L 46.6875 18.703125 
Q 43.0625 26.03125 39.671875 28.421875 
Q 36.28125 30.8125 30.421875 30.8125 
L 19.671875 30.8125 
L 19.671875 0 
L 9.8125 0 
L 9.8125 72.90625 
L 32.078125 72.90625 
Q 44.578125 72.90625 50.734375 67.671875 
Q 56.890625 62.453125 56.890625 51.90625 
Q 56.890625 45.015625 53.6875 40.46875 
Q 50.484375 35.9375 44.390625 34.1875 
z
M 19.671875 64.796875 
L 19.671875 38.921875 
L 32.078125 38.921875 
Q 39.203125 38.921875 42.84375 42.21875 
Q 46.484375 45.515625 46.484375 51.90625 
Q 46.484375 58.296875 42.84375 61.546875 
Q 39.203125 64.796875 32.078125 64.796875 
z
" id="DejaVuSans-82"/>
      <path d="M 9.8125 72.90625 
L 23.09375 72.90625 
L 55.421875 11.921875 
L 55.421875 72.90625 
L 64.984375 72.90625 
L 64.984375 0 
L 51.703125 0 
L 19.390625 60.984375 
L 19.390625 0 
L 9.8125 0 
z
" id="DejaVuSans-78"/>
     </defs>
     <use xlink:href="#DejaVuSans-71"/>
     <use x="77.490234" xlink:href="#DejaVuSans-82"/>
     <use x="142.972656" xlink:href="#DejaVuSans-65"/>
     <use x="211.380859" xlink:href="#DejaVuSans-73"/>
     <use x="240.873047" xlink:href="#DejaVuSans-78"/>
     <use x="315.677734" xlink:href="#DejaVuSans-76"/>
     <use x="371.390625" xlink:href="#DejaVuSans-73"/>
     <use x="400.882812" xlink:href="#DejaVuSans-78"/>
     <use x="475.6875" xlink:href="#DejaVuSans-69"/>
    </g>
   </g>
   <g id="text_34">
    <!-- FRONT -->
    <g transform="translate(670.321106 1561.814493)scale(0.1 -0.1)">
     <use xlink:href="#DejaVuSans-70"/>
     <use x="57.519531" xlink:href="#DejaVuSans-82"/>
     <use x="127.001953" xlink:href="#DejaVuSans-79"/>
     <use x="205.712891" xlink:href="#DejaVuSans-78"/>
     <use x="280.517578" xlink:href="#DejaVuSans-84"/>
    </g>
   </g>
   <g id="text_35">
    <!-- BACK -->
    <g transform="translate(1311.663257 1561.814493)scale(0.1 -0.1)">
     <defs>
      <path d="M 9.8125 72.90625 
L 19.671875 72.90625 
L 19.671875 42.09375 
L 52.390625 72.90625 
L 65.09375 72.90625 
L 28.90625 38.921875 
L 67.671875 0 
L 54.6875 0 
L 19.671875 35.109375 
L 19.671875 0 
L 9.8125 0 
z
" id="DejaVuSans-75"/>
     </defs>
     <use xlink:href="#DejaVuSans-66"/>
     <use x="68.603516" xlink:href="#DejaVuSans-65"/>
     <use x="135.261719" xlink:href="#DejaVuSans-67"/>
     <use x="205.085938" xlink:href="#DejaVuSans-75"/>
    </g>
   </g>
   <g id="text_36">
    <!-- HIP LINE -->
    <g transform="translate(985.299213 725.669291)scale(0.1 -0.1)">
     <use xlink:href="#DejaVuSans-72"/>
     <use x="75.195312" xlink:href="#DejaVuSans-73"/>
     <use x="104.6875" xlink:href="#DejaVuSans-80"/>
     <use x="164.990234" xlink:href="#DejaVuSans-32"/>
     <use x="196.777344" xlink:href="#DejaVuSans-76"/>
     <use x="252.490234" xlink:href="#DejaVuSans-73"/>
     <use x="281.982422" xlink:href="#DejaVuSans-78"/>
     <use x="356.787109" xlink:href="#DejaVuSans-69"/>
    </g>
   </g>
   <g id="text_37">
    <!-- WAIST LINE -->
    <g transform="translate(977.757025 170.07874)scale(0.1 -0.1)">
     <use xlink:href="#DejaVuSans-87"/>
     <use x="93.376953" xlink:href="#DejaVuSans-65"/>
     <use x="161.785156" xlink:href="#DejaVuSans-73"/>
     <use x="191.277344" xlink:href="#DejaVuSans-83"/>
     <use x="254.753906" xlink:href="#DejaVuSans-84"/>
     <use x="315.837891" xlink:href="#DejaVuSans-32"/>
     <use x="347.625" xlink:href="#DejaVuSans-76"/>
     <use x="403.337891" xlink:href="#DejaVuSans-73"/>
     <use x="432.830078" xlink:href="#DejaVuSans-78"/>
     <use x="507.634766" xlink:href="#DejaVuSans-69"/>
    </g>
   </g>
   <g id="text_38">
    <!-- 5 cm -->
    <g transform="translate(79.388848 1800)scale(0.16 -0.16)">
     <defs>
      <path d="M 48.78125 52.59375 
L 48.78125 44.1875 
Q 44.96875 46.296875 41.140625 47.34375 
Q 37.3125 48.390625 33.40625 48.390625 
Q 24.65625 48.390625 19.8125 42.84375 
Q 14.984375 37.3125 14.984375 27.296875 
Q 14.984375 17.28125 19.8125 11.734375 
Q 24.65625 6.203125 33.40625 6.203125 
Q 37.3125 6.203125 41.140625 7.25 
Q 44.96875 8.296875 48.78125 10.40625 
L 48.78125 2.09375 
Q 45.015625 0.34375 40.984375 -0.53125 
Q 36.96875 -1.421875 32.421875 -1.421875 
Q 20.0625 -1.421875 12.78125 6.34375 
Q 5.515625 14.109375 5.515625 27.296875 
Q 5.515625 40.671875 12.859375 48.328125 
Q 20.21875 56 33.015625 56 
Q 37.15625 56 41.109375 55.140625 
Q 45.0625 54.296875 48.78125 52.59375 
z
" id="DejaVuSans-99"/>
     </defs>
     <use xlink:href="#DejaVuSans-53"/>
     <use x="63.623047" xlink:href="#DejaVuSans-32"/>
     <use x="95.410156" xlink:href="#DejaVuSans-99"/>
     <use x="150.390625" xlink:href="#DejaVuSans-109"/>
    </g>
   </g>
   <g id="text_39">
    <!-- 5 cm -->
    <g transform="translate(79.388848 1800)scale(0.16 -0.16)">
     <use xlink:href="#DejaVuSans-53"/>
     <use x="63.623047" xlink:href="#DejaVuSans-32"/>
     <use x="95.410156" xlink:href="#DejaVuSans-99"/>
     <use x="150.390625" xlink:href="#DejaVuSans-109"/>
    </g>
   </g>
  </g>
 </g>
 <defs>
  <clipPath id="p4edf1aae3e">
   <rect height="1842.519685" width="2012.598425" x="0" y="0"/>
  </clipPath>
 </defs>
</svg>
