<?xml version="1.0" encoding="utf-8" standalone="no"?>
<!DOCTYPE svg PUBLIC "-//W3C//DTD SVG 1.1//EN"
  "http://www.w3.org/Graphics/SVG/1.1/DTD/svg11.dtd">
<!-- Created with matplotlib (https://matplotlib.org/) -->
<svg height="1757.480315pt" version="1.1" viewBox="0 0 2211.023622 1757.480315" width="2211.023622pt" xmlns="http://www.w3.org/2000/svg" xmlns:xlink="http://www.w3.org/1999/xlink">
 <metadata>
  <rdf:RDF xmlns:cc="http://creativecommons.org/ns#" xmlns:dc="http://purl.org/dc/elements/1.1/" xmlns:rdf="http://www.w3.org/1999/02/22-rdf-syntax-ns#">
   <cc:Work>
    <dc:type rdf:resource="http://purl.org/dc/dcmitype/StillImage"/>
    <dc:date>2022-07-25T11:06:06.191172</dc:date>
    <dc:format>image/svg+xml</dc:format>
    <dc:creator>
     <cc:Agent>
      <dc:title>Matplotlib v3.3.4, https://matplotlib.org/</dc:title>
     </cc:Agent>
    </dc:creator>
   </cc:Work>
  </rdf:RDF>
 </metadata>
 <defs>
  <style type="text/css">*{stroke-linecap:butt;stroke-linejoin:round;}</style>
 </defs>
 <g id="figure_1">
  <g id="patch_1">
   <path d="M 0 1757.480315 
L 2211.023622 1757.480315 
L 2211.023622 0 
L 0 0 
z
" style="fill:#ffffff;"/>
  </g>
  <g id="axes_1">
   <g id="patch_2">
    <path d="M 0 1757.480315 
L 2211.023622 1757.480315 
L 2211.023622 0 
L 0 0 
z
" style="fill:#ffffff;"/>
   </g>
   <g id="patch_3">
    <path clip-path="url(#pe1d89832c5)" d="M 116.220472 1615.748031 
L 116.220472 989.291339 
L 116.220472 989.291339 
L 121.460436 988.86201 
L 126.651311 988.383594 
L 131.793098 987.85609 
L 136.885796 987.279497 
L 141.929407 986.653817 
L 146.92393 985.979048 
L 151.869364 985.255191 
L 156.765711 984.482246 
L 161.612969 983.660213 
L 166.411139 982.789092 
L 171.160221 981.868883 
L 175.860215 980.899585 
L 180.511121 979.8812 
L 185.112939 978.813726 
L 189.665668 977.697164 
L 194.16931 976.531514 
L 198.623863 975.316777 
L 203.029328 974.05295 
L 207.385706 972.740036 
L 211.692995 971.378034 
L 215.951196 969.966944 
L 220.160308 968.506765 
L 224.320333 966.997498 
L 228.43127 965.439144 
L 232.493118 963.831701 
L 236.505878 962.17517 
L 240.469551 960.469551 
L 244.384135 958.714844 
L 248.249631 956.911048 
L 252.066039 955.058165 
L 255.833359 953.156193 
L 259.55159 951.205134 
L 263.220734 949.204986 
L 266.840789 947.15575 
L 270.411757 945.057426 
L 273.933636 942.910014 
L 277.406427 940.713514 
L 280.83013 938.467925 
L 284.204745 936.173249 
L 287.530272 933.829484 
L 290.80671 931.436632 
L 294.034061 928.994691 
L 297.212323 926.503662 
L 300.341498 923.963545 
L 303.421584 921.37434 
L 306.452582 918.736047 
L 309.434492 916.048665 
L 312.367314 913.312196 
L 315.251048 910.526638 
L 318.085694 907.691993 
L 320.871251 904.808259 
L 323.607721 901.875437 
L 326.295102 898.893527 
L 328.933395 895.862529 
L 331.5226 892.782443 
L 334.062717 889.653268 
L 336.553746 886.475006 
L 338.995687 883.247655 
L 341.388539 879.971217 
L 343.732304 876.64569 
L 346.02698 873.271075 
L 348.272569 869.847372 
L 350.469069 866.374581 
L 352.616481 862.852702 
L 354.714805 859.281734 
L 356.764041 855.661679 
L 358.764189 851.992535 
L 360.715248 848.274303 
L 362.61722 844.506984 
L 364.470103 840.690576 
L 366.273899 836.82508 
L 368.028606 832.910496 
L 369.734225 828.946823 
L 371.390756 824.934063 
L 372.998199 820.872214 
L 374.556553 816.761278 
L 376.06582 812.601253 
L 377.525999 808.39214 
L 378.937089 804.133939 
L 380.299091 799.82665 
L 381.612006 795.470273 
L 382.875832 791.064808 
L 384.09057 786.610255 
L 385.256219 782.106613 
L 386.372781 777.553884 
L 387.440255 772.952066 
L 388.45864 768.30116 
L 389.427938 763.601166 
L 390.348147 758.852084 
L 391.219268 754.053914 
L 392.041301 749.206656 
L 392.814246 744.310309 
L 393.538103 739.364875 
L 394.212872 734.370352 
L 394.838552 729.326741 
L 395.415145 724.234043 
L 395.942649 719.092256 
L 396.421066 713.90138 
L 396.850394 708.661417 
L 453.543307 255.11811 
L 634.49713 242.37746 
L 694.488189 425.19685 
L 718.456954 234.284947 
L 1041.732283 198.425197 
L 1041.732283 198.425197 
L 1043.255939 203.503556 
L 1044.761647 208.583457 
L 1046.249408 213.6649 
L 1047.719221 218.747884 
L 1049.171088 223.83241 
L 1050.605007 228.918478 
L 1052.020978 234.006087 
L 1053.419003 239.095238 
L 1054.79908 244.185931 
L 1056.161209 249.278165 
L 1057.505392 254.371941 
L 1058.831627 259.467259 
L 1060.139915 264.564118 
L 1061.430255 269.662519 
L 1062.702649 274.762462 
L 1063.957095 279.863946 
L 1065.193593 284.966972 
L 1066.412144 290.07154 
L 1067.612749 295.177649 
L 1068.795405 300.285301 
L 1069.960115 305.394493 
L 1071.106877 310.505228 
L 1072.235692 315.617504 
L 1073.346559 320.731322 
L 1074.439479 325.846681 
L 1075.514452 330.963582 
L 1076.571478 336.082025 
L 1077.610556 341.202009 
L 1078.631687 346.323535 
L 1079.634871 351.446603 
L 1080.620107 356.571213 
L 1081.587396 361.697364 
L 1082.536738 366.825057 
L 1083.468133 371.954291 
L 1084.38158 377.085067 
L 1085.27708 382.217385 
L 1086.154632 387.351244 
L 1087.014237 392.486646 
L 1087.855895 397.623588 
L 1088.679606 402.762073 
L 1089.48537 407.902099 
L 1090.273186 413.043667 
L 1091.043054 418.186776 
L 1091.794976 423.331428 
L 1092.52895 428.477621 
L 1093.244977 433.625355 
L 1093.943056 438.774631 
L 1094.623189 443.925449 
L 1095.285374 449.077809 
L 1095.929611 454.23171 
L 1096.555902 459.387153 
L 1097.164245 464.544137 
L 1097.75464 469.702664 
L 1098.327089 474.862731 
L 1098.88159 480.024341 
L 1099.418144 485.187492 
L 1099.93675 490.352185 
L 1100.43741 495.51842 
L 1100.920122 500.686196 
L 1101.384886 505.855514 
L 1101.831703 511.026374 
L 1102.260574 516.198775 
L 1102.671496 521.372718 
L 1103.064472 526.548202 
L 1103.4395 531.725229 
L 1103.796581 536.903797 
L 1104.135714 542.083906 
L 1104.4569 547.265558 
L 1104.760139 552.448751 
L 1105.045431 557.633485 
L 1105.312775 562.819762 
L 1105.562172 568.00758 
L 1105.793622 573.196939 
L 1106.007124 578.387841 
L 1106.202679 583.580284 
L 1106.380287 588.774268 
L 1106.539948 593.969795 
L 1106.681661 599.166863 
L 1106.805427 604.365472 
L 1106.911245 609.565624 
L 1106.999117 614.767317 
L 1107.069041 619.970551 
L 1107.121017 625.175328 
L 1107.155047 630.381646 
L 1107.171129 635.589506 
L 1107.169263 640.798907 
L 1107.149451 646.00985 
L 1107.111691 651.222335 
L 1107.055984 656.436361 
L 1106.98233 661.651929 
L 1106.890728 666.869039 
L 1106.781179 672.087691 
L 1106.653682 677.307884 
L 1106.508239 682.529618 
L 1106.344848 687.752895 
L 1106.16351 692.977713 
L 1105.964224 698.204073 
L 1105.746991 703.431974 
L 1105.511811 708.661417 
L 1105.511811 708.661417 
L 1105.511811 1615.748031 
z
" style="fill:#e6e6e6;stroke:#808080;stroke-linejoin:miter;"/>
   </g>
   <g id="patch_4">
    <path clip-path="url(#pe1d89832c5)" d="M 1105.511811 1615.748031 
L 2094.80315 1615.748031 
L 2094.80315 989.291339 
L 2094.80315 989.291339 
L 2090.364863 988.060333 
L 2085.959305 986.796601 
L 2081.586473 985.500141 
L 2077.246369 984.170954 
L 2072.938993 982.809039 
L 2068.664343 981.414397 
L 2064.422421 979.987027 
L 2060.213227 978.526931 
L 2056.036759 977.034107 
L 2051.89302 975.508555 
L 2047.782007 973.950276 
L 2043.703722 972.35927 
L 2039.658164 970.735537 
L 2035.645333 969.079076 
L 2031.66523 967.389888 
L 2027.717855 965.667972 
L 2023.803206 963.913329 
L 2019.921285 962.125959 
L 2016.072091 960.305861 
L 2012.255625 958.453036 
L 2008.471886 956.567484 
L 2004.720874 954.649204 
L 2001.00259 952.698197 
L 1997.317033 950.714463 
L 1993.664204 948.698001 
L 1990.044101 946.648812 
L 1986.456727 944.566895 
L 1982.902079 942.452252 
L 1979.380159 940.30488 
L 1975.890966 938.124782 
L 1972.434501 935.911956 
L 1969.010763 933.666403 
L 1965.619752 931.388122 
L 1962.261469 929.077114 
L 1958.935913 926.733379 
L 1955.643084 924.356916 
L 1952.382983 921.947726 
L 1949.155609 919.505809 
L 1945.960962 917.031164 
L 1942.799043 914.523792 
L 1939.669851 911.983692 
L 1936.573387 909.410865 
L 1933.509649 906.805311 
L 1930.47864 904.16703 
L 1927.480357 901.496021 
L 1924.514802 898.792285 
L 1921.581974 896.055821 
L 1918.681874 893.28663 
L 1915.814501 890.484712 
L 1912.979855 887.650066 
L 1910.177937 884.782693 
L 1907.408746 881.882593 
L 1904.672282 878.949765 
L 1901.968546 875.98421 
L 1899.297537 872.985927 
L 1896.659256 869.954918 
L 1894.053701 866.89118 
L 1891.480875 863.794716 
L 1888.940775 860.665524 
L 1886.433403 857.503605 
L 1883.958758 854.308958 
L 1881.516841 851.081584 
L 1879.107651 847.821483 
L 1876.731188 844.528654 
L 1874.387453 841.203098 
L 1872.076445 837.844815 
L 1869.798164 834.453804 
L 1867.552611 831.030066 
L 1865.339785 827.573601 
L 1863.159687 824.084408 
L 1861.012315 820.562488 
L 1858.897671 817.00784 
L 1856.815755 813.420465 
L 1854.766566 809.800363 
L 1852.750104 806.147534 
L 1850.76637 802.461977 
L 1848.815363 798.743692 
L 1846.897083 794.992681 
L 1845.011531 791.208942 
L 1843.158706 787.392476 
L 1841.338608 783.543282 
L 1839.551238 779.661361 
L 1837.796595 775.746712 
L 1836.074679 771.799337 
L 1834.385491 767.819233 
L 1832.72903 763.806403 
L 1831.105297 759.760845 
L 1829.51429 755.68256 
L 1827.956012 751.571547 
L 1826.43046 747.427807 
L 1824.937636 743.25134 
L 1823.477539 739.042146 
L 1822.05017 734.800224 
L 1820.655528 730.525574 
L 1819.293613 726.218198 
L 1817.964426 721.878094 
L 1816.667966 717.505262 
L 1815.404234 713.099703 
L 1814.173228 708.661417 
L 1757.480315 141.732283 
L 1517.896989 166.943102 
L 1516.535433 595.275591 
L 1433.388854 175.088465 
L 1169.291339 198.425197 
L 1169.291339 198.425197 
L 1167.767683 203.503556 
L 1166.261975 208.583457 
L 1164.774214 213.6649 
L 1163.304401 218.747884 
L 1161.852534 223.83241 
L 1160.418615 228.918478 
L 1159.002644 234.006087 
L 1157.604619 239.095238 
L 1156.224542 244.185931 
L 1154.862413 249.278165 
L 1153.51823 254.371941 
L 1152.191995 259.467259 
L 1150.883707 264.564118 
L 1149.593367 269.662519 
L 1148.320973 274.762462 
L 1147.066527 279.863946 
L 1145.830029 284.966972 
L 1144.611478 290.07154 
L 1143.410874 295.177649 
L 1142.228217 300.285301 
L 1141.063507 305.394493 
L 1139.916745 310.505228 
L 1138.78793 315.617504 
L 1137.677063 320.731322 
L 1136.584143 325.846681 
L 1135.50917 330.963582 
L 1134.452144 336.082025 
L 1133.413066 341.202009 
L 1132.391935 346.323535 
L 1131.388751 351.446603 
L 1130.403515 356.571213 
L 1129.436226 361.697364 
L 1128.486884 366.825057 
L 1127.555489 371.954291 
L 1126.642042 377.085067 
L 1125.746542 382.217385 
L 1124.86899 387.351244 
L 1124.009385 392.486646 
L 1123.167727 397.623588 
L 1122.344016 402.762073 
L 1121.538253 407.902099 
L 1120.750436 413.043667 
L 1119.980568 418.186776 
L 1119.228646 423.331428 
L 1118.494672 428.477621 
L 1117.778645 433.625355 
L 1117.080566 438.774631 
L 1116.400433 443.925449 
L 1115.738248 449.077809 
L 1115.094011 454.23171 
L 1114.46772 459.387153 
L 1113.859377 464.544137 
L 1113.268982 469.702664 
L 1112.696533 474.862731 
L 1112.142032 480.024341 
L 1111.605478 485.187492 
L 1111.086872 490.352185 
L 1110.586212 495.51842 
L 1110.103501 500.686196 
L 1109.638736 505.855514 
L 1109.191919 511.026374 
L 1108.763049 516.198775 
L 1108.352126 521.372718 
L 1107.95915 526.548202 
L 1107.584122 531.725229 
L 1107.227041 536.903797 
L 1106.887908 542.083906 
L 1106.566722 547.265558 
L 1106.263483 552.448751 
L 1105.978191 557.633485 
L 1105.710847 562.819762 
L 1105.46145 568.00758 
L 1105.23 573.196939 
L 1105.016498 578.387841 
L 1104.820943 583.580284 
L 1104.643335 588.774268 
L 1104.483674 593.969795 
L 1104.341961 599.166863 
L 1104.218195 604.365472 
L 1104.112377 609.565624 
L 1104.024505 614.767317 
L 1103.954581 619.970551 
L 1103.902605 625.175328 
L 1103.868575 630.381646 
L 1103.852493 635.589506 
L 1103.854359 640.798907 
L 1103.874171 646.00985 
L 1103.911931 651.222335 
L 1103.967638 656.436361 
L 1104.041293 661.651929 
L 1104.132894 666.869039 
L 1104.242443 672.087691 
L 1104.36994 677.307884 
L 1104.515383 682.529618 
L 1104.678774 687.752895 
L 1104.860112 692.977713 
L 1105.059398 698.204073 
L 1105.276631 703.431974 
L 1105.511811 708.661417 
L 1105.511811 1615.748031 
L 2094.80315 1615.748031 
z
" style="fill:#e6e6e6;stroke:#808080;stroke-linejoin:miter;"/>
   </g>
   <g id="matplotlib.axis_1">
    <g id="xtick_1">
     <g id="line2d_1">
      <path clip-path="url(#pe1d89832c5)" d="M 0 1757.480315 
L 0 0 
" style="fill:none;stroke:#b0b0b0;stroke-linecap:square;stroke-width:0.8;"/>
     </g>
    </g>
    <g id="xtick_2">
     <g id="line2d_2">
      <path clip-path="url(#pe1d89832c5)" d="M 28.346457 1757.480315 
L 28.346457 0 
" style="fill:none;stroke:#b0b0b0;stroke-linecap:square;stroke-width:0.8;"/>
     </g>
    </g>
    <g id="xtick_3">
     <g id="line2d_3">
      <path clip-path="url(#pe1d89832c5)" d="M 56.692913 1757.480315 
L 56.692913 0 
" style="fill:none;stroke:#b0b0b0;stroke-linecap:square;stroke-width:0.8;"/>
     </g>
    </g>
    <g id="xtick_4">
     <g id="line2d_4">
      <path clip-path="url(#pe1d89832c5)" d="M 85.03937 1757.480315 
L 85.03937 0 
" style="fill:none;stroke:#b0b0b0;stroke-linecap:square;stroke-width:0.8;"/>
     </g>
    </g>
    <g id="xtick_5">
     <g id="line2d_5">
      <path clip-path="url(#pe1d89832c5)" d="M 113.385827 1757.480315 
L 113.385827 0 
" style="fill:none;stroke:#b0b0b0;stroke-linecap:square;stroke-width:0.8;"/>
     </g>
    </g>
    <g id="xtick_6">
     <g id="line2d_6">
      <path clip-path="url(#pe1d89832c5)" d="M 141.732283 1757.480315 
L 141.732283 0 
" style="fill:none;stroke:#b0b0b0;stroke-linecap:square;stroke-width:0.8;"/>
     </g>
    </g>
    <g id="xtick_7">
     <g id="line2d_7">
      <path clip-path="url(#pe1d89832c5)" d="M 170.07874 1757.480315 
L 170.07874 0 
" style="fill:none;stroke:#b0b0b0;stroke-linecap:square;stroke-width:0.8;"/>
     </g>
    </g>
    <g id="xtick_8">
     <g id="line2d_8">
      <path clip-path="url(#pe1d89832c5)" d="M 198.425197 1757.480315 
L 198.425197 0 
" style="fill:none;stroke:#b0b0b0;stroke-linecap:square;stroke-width:0.8;"/>
     </g>
    </g>
    <g id="xtick_9">
     <g id="line2d_9">
      <path clip-path="url(#pe1d89832c5)" d="M 226.771654 1757.480315 
L 226.771654 0 
" style="fill:none;stroke:#b0b0b0;stroke-linecap:square;stroke-width:0.8;"/>
     </g>
    </g>
    <g id="xtick_10">
     <g id="line2d_10">
      <path clip-path="url(#pe1d89832c5)" d="M 255.11811 1757.480315 
L 255.11811 0 
" style="fill:none;stroke:#b0b0b0;stroke-linecap:square;stroke-width:0.8;"/>
     </g>
    </g>
    <g id="xtick_11">
     <g id="line2d_11">
      <path clip-path="url(#pe1d89832c5)" d="M 283.464567 1757.480315 
L 283.464567 0 
" style="fill:none;stroke:#b0b0b0;stroke-linecap:square;stroke-width:0.8;"/>
     </g>
    </g>
    <g id="xtick_12">
     <g id="line2d_12">
      <path clip-path="url(#pe1d89832c5)" d="M 311.811024 1757.480315 
L 311.811024 0 
" style="fill:none;stroke:#b0b0b0;stroke-linecap:square;stroke-width:0.8;"/>
     </g>
    </g>
    <g id="xtick_13">
     <g id="line2d_13">
      <path clip-path="url(#pe1d89832c5)" d="M 340.15748 1757.480315 
L 340.15748 0 
" style="fill:none;stroke:#b0b0b0;stroke-linecap:square;stroke-width:0.8;"/>
     </g>
    </g>
    <g id="xtick_14">
     <g id="line2d_14">
      <path clip-path="url(#pe1d89832c5)" d="M 368.503937 1757.480315 
L 368.503937 0 
" style="fill:none;stroke:#b0b0b0;stroke-linecap:square;stroke-width:0.8;"/>
     </g>
    </g>
    <g id="xtick_15">
     <g id="line2d_15">
      <path clip-path="url(#pe1d89832c5)" d="M 396.850394 1757.480315 
L 396.850394 0 
" style="fill:none;stroke:#b0b0b0;stroke-linecap:square;stroke-width:0.8;"/>
     </g>
    </g>
    <g id="xtick_16">
     <g id="line2d_16">
      <path clip-path="url(#pe1d89832c5)" d="M 425.19685 1757.480315 
L 425.19685 0 
" style="fill:none;stroke:#b0b0b0;stroke-linecap:square;stroke-width:0.8;"/>
     </g>
    </g>
    <g id="xtick_17">
     <g id="line2d_17">
      <path clip-path="url(#pe1d89832c5)" d="M 453.543307 1757.480315 
L 453.543307 0 
" style="fill:none;stroke:#b0b0b0;stroke-linecap:square;stroke-width:0.8;"/>
     </g>
    </g>
    <g id="xtick_18">
     <g id="line2d_18">
      <path clip-path="url(#pe1d89832c5)" d="M 481.889764 1757.480315 
L 481.889764 0 
" style="fill:none;stroke:#b0b0b0;stroke-linecap:square;stroke-width:0.8;"/>
     </g>
    </g>
    <g id="xtick_19">
     <g id="line2d_19">
      <path clip-path="url(#pe1d89832c5)" d="M 510.23622 1757.480315 
L 510.23622 0 
" style="fill:none;stroke:#b0b0b0;stroke-linecap:square;stroke-width:0.8;"/>
     </g>
    </g>
    <g id="xtick_20">
     <g id="line2d_20">
      <path clip-path="url(#pe1d89832c5)" d="M 538.582677 1757.480315 
L 538.582677 0 
" style="fill:none;stroke:#b0b0b0;stroke-linecap:square;stroke-width:0.8;"/>
     </g>
    </g>
    <g id="xtick_21">
     <g id="line2d_21">
      <path clip-path="url(#pe1d89832c5)" d="M 566.929134 1757.480315 
L 566.929134 0 
" style="fill:none;stroke:#b0b0b0;stroke-linecap:square;stroke-width:0.8;"/>
     </g>
    </g>
    <g id="xtick_22">
     <g id="line2d_22">
      <path clip-path="url(#pe1d89832c5)" d="M 595.275591 1757.480315 
L 595.275591 0 
" style="fill:none;stroke:#b0b0b0;stroke-linecap:square;stroke-width:0.8;"/>
     </g>
    </g>
    <g id="xtick_23">
     <g id="line2d_23">
      <path clip-path="url(#pe1d89832c5)" d="M 623.622047 1757.480315 
L 623.622047 0 
" style="fill:none;stroke:#b0b0b0;stroke-linecap:square;stroke-width:0.8;"/>
     </g>
    </g>
    <g id="xtick_24">
     <g id="line2d_24">
      <path clip-path="url(#pe1d89832c5)" d="M 651.968504 1757.480315 
L 651.968504 0 
" style="fill:none;stroke:#b0b0b0;stroke-linecap:square;stroke-width:0.8;"/>
     </g>
    </g>
    <g id="xtick_25">
     <g id="line2d_25">
      <path clip-path="url(#pe1d89832c5)" d="M 680.314961 1757.480315 
L 680.314961 0 
" style="fill:none;stroke:#b0b0b0;stroke-linecap:square;stroke-width:0.8;"/>
     </g>
    </g>
    <g id="xtick_26">
     <g id="line2d_26">
      <path clip-path="url(#pe1d89832c5)" d="M 708.661417 1757.480315 
L 708.661417 0 
" style="fill:none;stroke:#b0b0b0;stroke-linecap:square;stroke-width:0.8;"/>
     </g>
    </g>
    <g id="xtick_27">
     <g id="line2d_27">
      <path clip-path="url(#pe1d89832c5)" d="M 737.007874 1757.480315 
L 737.007874 0 
" style="fill:none;stroke:#b0b0b0;stroke-linecap:square;stroke-width:0.8;"/>
     </g>
    </g>
    <g id="xtick_28">
     <g id="line2d_28">
      <path clip-path="url(#pe1d89832c5)" d="M 765.354331 1757.480315 
L 765.354331 0 
" style="fill:none;stroke:#b0b0b0;stroke-linecap:square;stroke-width:0.8;"/>
     </g>
    </g>
    <g id="xtick_29">
     <g id="line2d_29">
      <path clip-path="url(#pe1d89832c5)" d="M 793.700787 1757.480315 
L 793.700787 0 
" style="fill:none;stroke:#b0b0b0;stroke-linecap:square;stroke-width:0.8;"/>
     </g>
    </g>
    <g id="xtick_30">
     <g id="line2d_30">
      <path clip-path="url(#pe1d89832c5)" d="M 822.047244 1757.480315 
L 822.047244 0 
" style="fill:none;stroke:#b0b0b0;stroke-linecap:square;stroke-width:0.8;"/>
     </g>
    </g>
    <g id="xtick_31">
     <g id="line2d_31">
      <path clip-path="url(#pe1d89832c5)" d="M 850.393701 1757.480315 
L 850.393701 0 
" style="fill:none;stroke:#b0b0b0;stroke-linecap:square;stroke-width:0.8;"/>
     </g>
    </g>
    <g id="xtick_32">
     <g id="line2d_32">
      <path clip-path="url(#pe1d89832c5)" d="M 878.740157 1757.480315 
L 878.740157 0 
" style="fill:none;stroke:#b0b0b0;stroke-linecap:square;stroke-width:0.8;"/>
     </g>
    </g>
    <g id="xtick_33">
     <g id="line2d_33">
      <path clip-path="url(#pe1d89832c5)" d="M 907.086614 1757.480315 
L 907.086614 0 
" style="fill:none;stroke:#b0b0b0;stroke-linecap:square;stroke-width:0.8;"/>
     </g>
    </g>
    <g id="xtick_34">
     <g id="line2d_34">
      <path clip-path="url(#pe1d89832c5)" d="M 935.433071 1757.480315 
L 935.433071 0 
" style="fill:none;stroke:#b0b0b0;stroke-linecap:square;stroke-width:0.8;"/>
     </g>
    </g>
    <g id="xtick_35">
     <g id="line2d_35">
      <path clip-path="url(#pe1d89832c5)" d="M 963.779528 1757.480315 
L 963.779528 0 
" style="fill:none;stroke:#b0b0b0;stroke-linecap:square;stroke-width:0.8;"/>
     </g>
    </g>
    <g id="xtick_36">
     <g id="line2d_36">
      <path clip-path="url(#pe1d89832c5)" d="M 992.125984 1757.480315 
L 992.125984 0 
" style="fill:none;stroke:#b0b0b0;stroke-linecap:square;stroke-width:0.8;"/>
     </g>
    </g>
    <g id="xtick_37">
     <g id="line2d_37">
      <path clip-path="url(#pe1d89832c5)" d="M 1020.472441 1757.480315 
L 1020.472441 0 
" style="fill:none;stroke:#b0b0b0;stroke-linecap:square;stroke-width:0.8;"/>
     </g>
    </g>
    <g id="xtick_38">
     <g id="line2d_38">
      <path clip-path="url(#pe1d89832c5)" d="M 1048.818898 1757.480315 
L 1048.818898 0 
" style="fill:none;stroke:#b0b0b0;stroke-linecap:square;stroke-width:0.8;"/>
     </g>
    </g>
    <g id="xtick_39">
     <g id="line2d_39">
      <path clip-path="url(#pe1d89832c5)" d="M 1077.165354 1757.480315 
L 1077.165354 0 
" style="fill:none;stroke:#b0b0b0;stroke-linecap:square;stroke-width:0.8;"/>
     </g>
    </g>
    <g id="xtick_40">
     <g id="line2d_40">
      <path clip-path="url(#pe1d89832c5)" d="M 1105.511811 1757.480315 
L 1105.511811 0 
" style="fill:none;stroke:#b0b0b0;stroke-linecap:square;stroke-width:0.8;"/>
     </g>
    </g>
    <g id="xtick_41">
     <g id="line2d_41">
      <path clip-path="url(#pe1d89832c5)" d="M 1133.858268 1757.480315 
L 1133.858268 0 
" style="fill:none;stroke:#b0b0b0;stroke-linecap:square;stroke-width:0.8;"/>
     </g>
    </g>
    <g id="xtick_42">
     <g id="line2d_42">
      <path clip-path="url(#pe1d89832c5)" d="M 1162.204724 1757.480315 
L 1162.204724 0 
" style="fill:none;stroke:#b0b0b0;stroke-linecap:square;stroke-width:0.8;"/>
     </g>
    </g>
    <g id="xtick_43">
     <g id="line2d_43">
      <path clip-path="url(#pe1d89832c5)" d="M 1190.551181 1757.480315 
L 1190.551181 0 
" style="fill:none;stroke:#b0b0b0;stroke-linecap:square;stroke-width:0.8;"/>
     </g>
    </g>
    <g id="xtick_44">
     <g id="line2d_44">
      <path clip-path="url(#pe1d89832c5)" d="M 1218.897638 1757.480315 
L 1218.897638 0 
" style="fill:none;stroke:#b0b0b0;stroke-linecap:square;stroke-width:0.8;"/>
     </g>
    </g>
    <g id="xtick_45">
     <g id="line2d_45">
      <path clip-path="url(#pe1d89832c5)" d="M 1247.244094 1757.480315 
L 1247.244094 0 
" style="fill:none;stroke:#b0b0b0;stroke-linecap:square;stroke-width:0.8;"/>
     </g>
    </g>
    <g id="xtick_46">
     <g id="line2d_46">
      <path clip-path="url(#pe1d89832c5)" d="M 1275.590551 1757.480315 
L 1275.590551 0 
" style="fill:none;stroke:#b0b0b0;stroke-linecap:square;stroke-width:0.8;"/>
     </g>
    </g>
    <g id="xtick_47">
     <g id="line2d_47">
      <path clip-path="url(#pe1d89832c5)" d="M 1303.937008 1757.480315 
L 1303.937008 0 
" style="fill:none;stroke:#b0b0b0;stroke-linecap:square;stroke-width:0.8;"/>
     </g>
    </g>
    <g id="xtick_48">
     <g id="line2d_48">
      <path clip-path="url(#pe1d89832c5)" d="M 1332.283465 1757.480315 
L 1332.283465 0 
" style="fill:none;stroke:#b0b0b0;stroke-linecap:square;stroke-width:0.8;"/>
     </g>
    </g>
    <g id="xtick_49">
     <g id="line2d_49">
      <path clip-path="url(#pe1d89832c5)" d="M 1360.629921 1757.480315 
L 1360.629921 0 
" style="fill:none;stroke:#b0b0b0;stroke-linecap:square;stroke-width:0.8;"/>
     </g>
    </g>
    <g id="xtick_50">
     <g id="line2d_50">
      <path clip-path="url(#pe1d89832c5)" d="M 1388.976378 1757.480315 
L 1388.976378 0 
" style="fill:none;stroke:#b0b0b0;stroke-linecap:square;stroke-width:0.8;"/>
     </g>
    </g>
    <g id="xtick_51">
     <g id="line2d_51">
      <path clip-path="url(#pe1d89832c5)" d="M 1417.322835 1757.480315 
L 1417.322835 0 
" style="fill:none;stroke:#b0b0b0;stroke-linecap:square;stroke-width:0.8;"/>
     </g>
    </g>
    <g id="xtick_52">
     <g id="line2d_52">
      <path clip-path="url(#pe1d89832c5)" d="M 1445.669291 1757.480315 
L 1445.669291 0 
" style="fill:none;stroke:#b0b0b0;stroke-linecap:square;stroke-width:0.8;"/>
     </g>
    </g>
    <g id="xtick_53">
     <g id="line2d_53">
      <path clip-path="url(#pe1d89832c5)" d="M 1474.015748 1757.480315 
L 1474.015748 0 
" style="fill:none;stroke:#b0b0b0;stroke-linecap:square;stroke-width:0.8;"/>
     </g>
    </g>
    <g id="xtick_54">
     <g id="line2d_54">
      <path clip-path="url(#pe1d89832c5)" d="M 1502.362205 1757.480315 
L 1502.362205 0 
" style="fill:none;stroke:#b0b0b0;stroke-linecap:square;stroke-width:0.8;"/>
     </g>
    </g>
    <g id="xtick_55">
     <g id="line2d_55">
      <path clip-path="url(#pe1d89832c5)" d="M 1530.708661 1757.480315 
L 1530.708661 0 
" style="fill:none;stroke:#b0b0b0;stroke-linecap:square;stroke-width:0.8;"/>
     </g>
    </g>
    <g id="xtick_56">
     <g id="line2d_56">
      <path clip-path="url(#pe1d89832c5)" d="M 1559.055118 1757.480315 
L 1559.055118 0 
" style="fill:none;stroke:#b0b0b0;stroke-linecap:square;stroke-width:0.8;"/>
     </g>
    </g>
    <g id="xtick_57">
     <g id="line2d_57">
      <path clip-path="url(#pe1d89832c5)" d="M 1587.401575 1757.480315 
L 1587.401575 0 
" style="fill:none;stroke:#b0b0b0;stroke-linecap:square;stroke-width:0.8;"/>
     </g>
    </g>
    <g id="xtick_58">
     <g id="line2d_58">
      <path clip-path="url(#pe1d89832c5)" d="M 1615.748031 1757.480315 
L 1615.748031 0 
" style="fill:none;stroke:#b0b0b0;stroke-linecap:square;stroke-width:0.8;"/>
     </g>
    </g>
    <g id="xtick_59">
     <g id="line2d_59">
      <path clip-path="url(#pe1d89832c5)" d="M 1644.094488 1757.480315 
L 1644.094488 0 
" style="fill:none;stroke:#b0b0b0;stroke-linecap:square;stroke-width:0.8;"/>
     </g>
    </g>
    <g id="xtick_60">
     <g id="line2d_60">
      <path clip-path="url(#pe1d89832c5)" d="M 1672.440945 1757.480315 
L 1672.440945 0 
" style="fill:none;stroke:#b0b0b0;stroke-linecap:square;stroke-width:0.8;"/>
     </g>
    </g>
    <g id="xtick_61">
     <g id="line2d_61">
      <path clip-path="url(#pe1d89832c5)" d="M 1700.787402 1757.480315 
L 1700.787402 0 
" style="fill:none;stroke:#b0b0b0;stroke-linecap:square;stroke-width:0.8;"/>
     </g>
    </g>
    <g id="xtick_62">
     <g id="line2d_62">
      <path clip-path="url(#pe1d89832c5)" d="M 1729.133858 1757.480315 
L 1729.133858 0 
" style="fill:none;stroke:#b0b0b0;stroke-linecap:square;stroke-width:0.8;"/>
     </g>
    </g>
    <g id="xtick_63">
     <g id="line2d_63">
      <path clip-path="url(#pe1d89832c5)" d="M 1757.480315 1757.480315 
L 1757.480315 0 
" style="fill:none;stroke:#b0b0b0;stroke-linecap:square;stroke-width:0.8;"/>
     </g>
    </g>
    <g id="xtick_64">
     <g id="line2d_64">
      <path clip-path="url(#pe1d89832c5)" d="M 1785.826772 1757.480315 
L 1785.826772 0 
" style="fill:none;stroke:#b0b0b0;stroke-linecap:square;stroke-width:0.8;"/>
     </g>
    </g>
    <g id="xtick_65">
     <g id="line2d_65">
      <path clip-path="url(#pe1d89832c5)" d="M 1814.173228 1757.480315 
L 1814.173228 0 
" style="fill:none;stroke:#b0b0b0;stroke-linecap:square;stroke-width:0.8;"/>
     </g>
    </g>
    <g id="xtick_66">
     <g id="line2d_66">
      <path clip-path="url(#pe1d89832c5)" d="M 1842.519685 1757.480315 
L 1842.519685 0 
" style="fill:none;stroke:#b0b0b0;stroke-linecap:square;stroke-width:0.8;"/>
     </g>
    </g>
    <g id="xtick_67">
     <g id="line2d_67">
      <path clip-path="url(#pe1d89832c5)" d="M 1870.866142 1757.480315 
L 1870.866142 0 
" style="fill:none;stroke:#b0b0b0;stroke-linecap:square;stroke-width:0.8;"/>
     </g>
    </g>
    <g id="xtick_68">
     <g id="line2d_68">
      <path clip-path="url(#pe1d89832c5)" d="M 1899.212598 1757.480315 
L 1899.212598 0 
" style="fill:none;stroke:#b0b0b0;stroke-linecap:square;stroke-width:0.8;"/>
     </g>
    </g>
    <g id="xtick_69">
     <g id="line2d_69">
      <path clip-path="url(#pe1d89832c5)" d="M 1927.559055 1757.480315 
L 1927.559055 0 
" style="fill:none;stroke:#b0b0b0;stroke-linecap:square;stroke-width:0.8;"/>
     </g>
    </g>
    <g id="xtick_70">
     <g id="line2d_70">
      <path clip-path="url(#pe1d89832c5)" d="M 1955.905512 1757.480315 
L 1955.905512 0 
" style="fill:none;stroke:#b0b0b0;stroke-linecap:square;stroke-width:0.8;"/>
     </g>
    </g>
    <g id="xtick_71">
     <g id="line2d_71">
      <path clip-path="url(#pe1d89832c5)" d="M 1984.251969 1757.480315 
L 1984.251969 0 
" style="fill:none;stroke:#b0b0b0;stroke-linecap:square;stroke-width:0.8;"/>
     </g>
    </g>
    <g id="xtick_72">
     <g id="line2d_72">
      <path clip-path="url(#pe1d89832c5)" d="M 2012.598425 1757.480315 
L 2012.598425 0 
" style="fill:none;stroke:#b0b0b0;stroke-linecap:square;stroke-width:0.8;"/>
     </g>
    </g>
    <g id="xtick_73">
     <g id="line2d_73">
      <path clip-path="url(#pe1d89832c5)" d="M 2040.944882 1757.480315 
L 2040.944882 0 
" style="fill:none;stroke:#b0b0b0;stroke-linecap:square;stroke-width:0.8;"/>
     </g>
    </g>
    <g id="xtick_74">
     <g id="line2d_74">
      <path clip-path="url(#pe1d89832c5)" d="M 2069.291339 1757.480315 
L 2069.291339 0 
" style="fill:none;stroke:#b0b0b0;stroke-linecap:square;stroke-width:0.8;"/>
     </g>
    </g>
    <g id="xtick_75">
     <g id="line2d_75">
      <path clip-path="url(#pe1d89832c5)" d="M 2097.637795 1757.480315 
L 2097.637795 0 
" style="fill:none;stroke:#b0b0b0;stroke-linecap:square;stroke-width:0.8;"/>
     </g>
    </g>
    <g id="xtick_76">
     <g id="line2d_76">
      <path clip-path="url(#pe1d89832c5)" d="M 2125.984252 1757.480315 
L 2125.984252 0 
" style="fill:none;stroke:#b0b0b0;stroke-linecap:square;stroke-width:0.8;"/>
     </g>
    </g>
    <g id="xtick_77">
     <g id="line2d_77">
      <path clip-path="url(#pe1d89832c5)" d="M 2154.330709 1757.480315 
L 2154.330709 0 
" style="fill:none;stroke:#b0b0b0;stroke-linecap:square;stroke-width:0.8;"/>
     </g>
    </g>
    <g id="xtick_78">
     <g id="line2d_78">
      <path clip-path="url(#pe1d89832c5)" d="M 2182.677165 1757.480315 
L 2182.677165 0 
" style="fill:none;stroke:#b0b0b0;stroke-linecap:square;stroke-width:0.8;"/>
     </g>
    </g>
   </g>
   <g id="matplotlib.axis_2">
    <g id="ytick_1">
     <g id="line2d_79">
      <path clip-path="url(#pe1d89832c5)" d="M 0 1757.480315 
L 2211.023622 1757.480315 
" style="fill:none;stroke:#b0b0b0;stroke-linecap:square;stroke-width:0.8;"/>
     </g>
    </g>
    <g id="ytick_2">
     <g id="line2d_80">
      <path clip-path="url(#pe1d89832c5)" d="M 0 1729.133858 
L 2211.023622 1729.133858 
" style="fill:none;stroke:#b0b0b0;stroke-linecap:square;stroke-width:0.8;"/>
     </g>
    </g>
    <g id="ytick_3">
     <g id="line2d_81">
      <path clip-path="url(#pe1d89832c5)" d="M 0 1700.787402 
L 2211.023622 1700.787402 
" style="fill:none;stroke:#b0b0b0;stroke-linecap:square;stroke-width:0.8;"/>
     </g>
    </g>
    <g id="ytick_4">
     <g id="line2d_82">
      <path clip-path="url(#pe1d89832c5)" d="M 0 1672.440945 
L 2211.023622 1672.440945 
" style="fill:none;stroke:#b0b0b0;stroke-linecap:square;stroke-width:0.8;"/>
     </g>
    </g>
    <g id="ytick_5">
     <g id="line2d_83">
      <path clip-path="url(#pe1d89832c5)" d="M 0 1644.094488 
L 2211.023622 1644.094488 
" style="fill:none;stroke:#b0b0b0;stroke-linecap:square;stroke-width:0.8;"/>
     </g>
    </g>
    <g id="ytick_6">
     <g id="line2d_84">
      <path clip-path="url(#pe1d89832c5)" d="M 0 1615.748031 
L 2211.023622 1615.748031 
" style="fill:none;stroke:#b0b0b0;stroke-linecap:square;stroke-width:0.8;"/>
     </g>
    </g>
    <g id="ytick_7">
     <g id="line2d_85">
      <path clip-path="url(#pe1d89832c5)" d="M 0 1587.401575 
L 2211.023622 1587.401575 
" style="fill:none;stroke:#b0b0b0;stroke-linecap:square;stroke-width:0.8;"/>
     </g>
    </g>
    <g id="ytick_8">
     <g id="line2d_86">
      <path clip-path="url(#pe1d89832c5)" d="M 0 1559.055118 
L 2211.023622 1559.055118 
" style="fill:none;stroke:#b0b0b0;stroke-linecap:square;stroke-width:0.8;"/>
     </g>
    </g>
    <g id="ytick_9">
     <g id="line2d_87">
      <path clip-path="url(#pe1d89832c5)" d="M 0 1530.708661 
L 2211.023622 1530.708661 
" style="fill:none;stroke:#b0b0b0;stroke-linecap:square;stroke-width:0.8;"/>
     </g>
    </g>
    <g id="ytick_10">
     <g id="line2d_88">
      <path clip-path="url(#pe1d89832c5)" d="M 0 1502.362205 
L 2211.023622 1502.362205 
" style="fill:none;stroke:#b0b0b0;stroke-linecap:square;stroke-width:0.8;"/>
     </g>
    </g>
    <g id="ytick_11">
     <g id="line2d_89">
      <path clip-path="url(#pe1d89832c5)" d="M 0 1474.015748 
L 2211.023622 1474.015748 
" style="fill:none;stroke:#b0b0b0;stroke-linecap:square;stroke-width:0.8;"/>
     </g>
    </g>
    <g id="ytick_12">
     <g id="line2d_90">
      <path clip-path="url(#pe1d89832c5)" d="M 0 1445.669291 
L 2211.023622 1445.669291 
" style="fill:none;stroke:#b0b0b0;stroke-linecap:square;stroke-width:0.8;"/>
     </g>
    </g>
    <g id="ytick_13">
     <g id="line2d_91">
      <path clip-path="url(#pe1d89832c5)" d="M 0 1417.322835 
L 2211.023622 1417.322835 
" style="fill:none;stroke:#b0b0b0;stroke-linecap:square;stroke-width:0.8;"/>
     </g>
    </g>
    <g id="ytick_14">
     <g id="line2d_92">
      <path clip-path="url(#pe1d89832c5)" d="M 0 1388.976378 
L 2211.023622 1388.976378 
" style="fill:none;stroke:#b0b0b0;stroke-linecap:square;stroke-width:0.8;"/>
     </g>
    </g>
    <g id="ytick_15">
     <g id="line2d_93">
      <path clip-path="url(#pe1d89832c5)" d="M 0 1360.629921 
L 2211.023622 1360.629921 
" style="fill:none;stroke:#b0b0b0;stroke-linecap:square;stroke-width:0.8;"/>
     </g>
    </g>
    <g id="ytick_16">
     <g id="line2d_94">
      <path clip-path="url(#pe1d89832c5)" d="M 0 1332.283465 
L 2211.023622 1332.283465 
" style="fill:none;stroke:#b0b0b0;stroke-linecap:square;stroke-width:0.8;"/>
     </g>
    </g>
    <g id="ytick_17">
     <g id="line2d_95">
      <path clip-path="url(#pe1d89832c5)" d="M 0 1303.937008 
L 2211.023622 1303.937008 
" style="fill:none;stroke:#b0b0b0;stroke-linecap:square;stroke-width:0.8;"/>
     </g>
    </g>
    <g id="ytick_18">
     <g id="line2d_96">
      <path clip-path="url(#pe1d89832c5)" d="M 0 1275.590551 
L 2211.023622 1275.590551 
" style="fill:none;stroke:#b0b0b0;stroke-linecap:square;stroke-width:0.8;"/>
     </g>
    </g>
    <g id="ytick_19">
     <g id="line2d_97">
      <path clip-path="url(#pe1d89832c5)" d="M 0 1247.244094 
L 2211.023622 1247.244094 
" style="fill:none;stroke:#b0b0b0;stroke-linecap:square;stroke-width:0.8;"/>
     </g>
    </g>
    <g id="ytick_20">
     <g id="line2d_98">
      <path clip-path="url(#pe1d89832c5)" d="M 0 1218.897638 
L 2211.023622 1218.897638 
" style="fill:none;stroke:#b0b0b0;stroke-linecap:square;stroke-width:0.8;"/>
     </g>
    </g>
    <g id="ytick_21">
     <g id="line2d_99">
      <path clip-path="url(#pe1d89832c5)" d="M 0 1190.551181 
L 2211.023622 1190.551181 
" style="fill:none;stroke:#b0b0b0;stroke-linecap:square;stroke-width:0.8;"/>
     </g>
    </g>
    <g id="ytick_22">
     <g id="line2d_100">
      <path clip-path="url(#pe1d89832c5)" d="M 0 1162.204724 
L 2211.023622 1162.204724 
" style="fill:none;stroke:#b0b0b0;stroke-linecap:square;stroke-width:0.8;"/>
     </g>
    </g>
    <g id="ytick_23">
     <g id="line2d_101">
      <path clip-path="url(#pe1d89832c5)" d="M 0 1133.858268 
L 2211.023622 1133.858268 
" style="fill:none;stroke:#b0b0b0;stroke-linecap:square;stroke-width:0.8;"/>
     </g>
    </g>
    <g id="ytick_24">
     <g id="line2d_102">
      <path clip-path="url(#pe1d89832c5)" d="M 0 1105.511811 
L 2211.023622 1105.511811 
" style="fill:none;stroke:#b0b0b0;stroke-linecap:square;stroke-width:0.8;"/>
     </g>
    </g>
    <g id="ytick_25">
     <g id="line2d_103">
      <path clip-path="url(#pe1d89832c5)" d="M 0 1077.165354 
L 2211.023622 1077.165354 
" style="fill:none;stroke:#b0b0b0;stroke-linecap:square;stroke-width:0.8;"/>
     </g>
    </g>
    <g id="ytick_26">
     <g id="line2d_104">
      <path clip-path="url(#pe1d89832c5)" d="M 0 1048.818898 
L 2211.023622 1048.818898 
" style="fill:none;stroke:#b0b0b0;stroke-linecap:square;stroke-width:0.8;"/>
     </g>
    </g>
    <g id="ytick_27">
     <g id="line2d_105">
      <path clip-path="url(#pe1d89832c5)" d="M 0 1020.472441 
L 2211.023622 1020.472441 
" style="fill:none;stroke:#b0b0b0;stroke-linecap:square;stroke-width:0.8;"/>
     </g>
    </g>
    <g id="ytick_28">
     <g id="line2d_106">
      <path clip-path="url(#pe1d89832c5)" d="M 0 992.125984 
L 2211.023622 992.125984 
" style="fill:none;stroke:#b0b0b0;stroke-linecap:square;stroke-width:0.8;"/>
     </g>
    </g>
    <g id="ytick_29">
     <g id="line2d_107">
      <path clip-path="url(#pe1d89832c5)" d="M 0 963.779528 
L 2211.023622 963.779528 
" style="fill:none;stroke:#b0b0b0;stroke-linecap:square;stroke-width:0.8;"/>
     </g>
    </g>
    <g id="ytick_30">
     <g id="line2d_108">
      <path clip-path="url(#pe1d89832c5)" d="M 0 935.433071 
L 2211.023622 935.433071 
" style="fill:none;stroke:#b0b0b0;stroke-linecap:square;stroke-width:0.8;"/>
     </g>
    </g>
    <g id="ytick_31">
     <g id="line2d_109">
      <path clip-path="url(#pe1d89832c5)" d="M 0 907.086614 
L 2211.023622 907.086614 
" style="fill:none;stroke:#b0b0b0;stroke-linecap:square;stroke-width:0.8;"/>
     </g>
    </g>
    <g id="ytick_32">
     <g id="line2d_110">
      <path clip-path="url(#pe1d89832c5)" d="M 0 878.740157 
L 2211.023622 878.740157 
" style="fill:none;stroke:#b0b0b0;stroke-linecap:square;stroke-width:0.8;"/>
     </g>
    </g>
    <g id="ytick_33">
     <g id="line2d_111">
      <path clip-path="url(#pe1d89832c5)" d="M 0 850.393701 
L 2211.023622 850.393701 
" style="fill:none;stroke:#b0b0b0;stroke-linecap:square;stroke-width:0.8;"/>
     </g>
    </g>
    <g id="ytick_34">
     <g id="line2d_112">
      <path clip-path="url(#pe1d89832c5)" d="M 0 822.047244 
L 2211.023622 822.047244 
" style="fill:none;stroke:#b0b0b0;stroke-linecap:square;stroke-width:0.8;"/>
     </g>
    </g>
    <g id="ytick_35">
     <g id="line2d_113">
      <path clip-path="url(#pe1d89832c5)" d="M 0 793.700787 
L 2211.023622 793.700787 
" style="fill:none;stroke:#b0b0b0;stroke-linecap:square;stroke-width:0.8;"/>
     </g>
    </g>
    <g id="ytick_36">
     <g id="line2d_114">
      <path clip-path="url(#pe1d89832c5)" d="M 0 765.354331 
L 2211.023622 765.354331 
" style="fill:none;stroke:#b0b0b0;stroke-linecap:square;stroke-width:0.8;"/>
     </g>
    </g>
    <g id="ytick_37">
     <g id="line2d_115">
      <path clip-path="url(#pe1d89832c5)" d="M 0 737.007874 
L 2211.023622 737.007874 
" style="fill:none;stroke:#b0b0b0;stroke-linecap:square;stroke-width:0.8;"/>
     </g>
    </g>
    <g id="ytick_38">
     <g id="line2d_116">
      <path clip-path="url(#pe1d89832c5)" d="M 0 708.661417 
L 2211.023622 708.661417 
" style="fill:none;stroke:#b0b0b0;stroke-linecap:square;stroke-width:0.8;"/>
     </g>
    </g>
    <g id="ytick_39">
     <g id="line2d_117">
      <path clip-path="url(#pe1d89832c5)" d="M 0 680.314961 
L 2211.023622 680.314961 
" style="fill:none;stroke:#b0b0b0;stroke-linecap:square;stroke-width:0.8;"/>
     </g>
    </g>
    <g id="ytick_40">
     <g id="line2d_118">
      <path clip-path="url(#pe1d89832c5)" d="M 0 651.968504 
L 2211.023622 651.968504 
" style="fill:none;stroke:#b0b0b0;stroke-linecap:square;stroke-width:0.8;"/>
     </g>
    </g>
    <g id="ytick_41">
     <g id="line2d_119">
      <path clip-path="url(#pe1d89832c5)" d="M 0 623.622047 
L 2211.023622 623.622047 
" style="fill:none;stroke:#b0b0b0;stroke-linecap:square;stroke-width:0.8;"/>
     </g>
    </g>
    <g id="ytick_42">
     <g id="line2d_120">
      <path clip-path="url(#pe1d89832c5)" d="M 0 595.275591 
L 2211.023622 595.275591 
" style="fill:none;stroke:#b0b0b0;stroke-linecap:square;stroke-width:0.8;"/>
     </g>
    </g>
    <g id="ytick_43">
     <g id="line2d_121">
      <path clip-path="url(#pe1d89832c5)" d="M 0 566.929134 
L 2211.023622 566.929134 
" style="fill:none;stroke:#b0b0b0;stroke-linecap:square;stroke-width:0.8;"/>
     </g>
    </g>
    <g id="ytick_44">
     <g id="line2d_122">
      <path clip-path="url(#pe1d89832c5)" d="M 0 538.582677 
L 2211.023622 538.582677 
" style="fill:none;stroke:#b0b0b0;stroke-linecap:square;stroke-width:0.8;"/>
     </g>
    </g>
    <g id="ytick_45">
     <g id="line2d_123">
      <path clip-path="url(#pe1d89832c5)" d="M 0 510.23622 
L 2211.023622 510.23622 
" style="fill:none;stroke:#b0b0b0;stroke-linecap:square;stroke-width:0.8;"/>
     </g>
    </g>
    <g id="ytick_46">
     <g id="line2d_124">
      <path clip-path="url(#pe1d89832c5)" d="M 0 481.889764 
L 2211.023622 481.889764 
" style="fill:none;stroke:#b0b0b0;stroke-linecap:square;stroke-width:0.8;"/>
     </g>
    </g>
    <g id="ytick_47">
     <g id="line2d_125">
      <path clip-path="url(#pe1d89832c5)" d="M 0 453.543307 
L 2211.023622 453.543307 
" style="fill:none;stroke:#b0b0b0;stroke-linecap:square;stroke-width:0.8;"/>
     </g>
    </g>
    <g id="ytick_48">
     <g id="line2d_126">
      <path clip-path="url(#pe1d89832c5)" d="M 0 425.19685 
L 2211.023622 425.19685 
" style="fill:none;stroke:#b0b0b0;stroke-linecap:square;stroke-width:0.8;"/>
     </g>
    </g>
    <g id="ytick_49">
     <g id="line2d_127">
      <path clip-path="url(#pe1d89832c5)" d="M 0 396.850394 
L 2211.023622 396.850394 
" style="fill:none;stroke:#b0b0b0;stroke-linecap:square;stroke-width:0.8;"/>
     </g>
    </g>
    <g id="ytick_50">
     <g id="line2d_128">
      <path clip-path="url(#pe1d89832c5)" d="M 0 368.503937 
L 2211.023622 368.503937 
" style="fill:none;stroke:#b0b0b0;stroke-linecap:square;stroke-width:0.8;"/>
     </g>
    </g>
    <g id="ytick_51">
     <g id="line2d_129">
      <path clip-path="url(#pe1d89832c5)" d="M 0 340.15748 
L 2211.023622 340.15748 
" style="fill:none;stroke:#b0b0b0;stroke-linecap:square;stroke-width:0.8;"/>
     </g>
    </g>
    <g id="ytick_52">
     <g id="line2d_130">
      <path clip-path="url(#pe1d89832c5)" d="M 0 311.811024 
L 2211.023622 311.811024 
" style="fill:none;stroke:#b0b0b0;stroke-linecap:square;stroke-width:0.8;"/>
     </g>
    </g>
    <g id="ytick_53">
     <g id="line2d_131">
      <path clip-path="url(#pe1d89832c5)" d="M 0 283.464567 
L 2211.023622 283.464567 
" style="fill:none;stroke:#b0b0b0;stroke-linecap:square;stroke-width:0.8;"/>
     </g>
    </g>
    <g id="ytick_54">
     <g id="line2d_132">
      <path clip-path="url(#pe1d89832c5)" d="M 0 255.11811 
L 2211.023622 255.11811 
" style="fill:none;stroke:#b0b0b0;stroke-linecap:square;stroke-width:0.8;"/>
     </g>
    </g>
    <g id="ytick_55">
     <g id="line2d_133">
      <path clip-path="url(#pe1d89832c5)" d="M 0 226.771654 
L 2211.023622 226.771654 
" style="fill:none;stroke:#b0b0b0;stroke-linecap:square;stroke-width:0.8;"/>
     </g>
    </g>
    <g id="ytick_56">
     <g id="line2d_134">
      <path clip-path="url(#pe1d89832c5)" d="M 0 198.425197 
L 2211.023622 198.425197 
" style="fill:none;stroke:#b0b0b0;stroke-linecap:square;stroke-width:0.8;"/>
     </g>
    </g>
    <g id="ytick_57">
     <g id="line2d_135">
      <path clip-path="url(#pe1d89832c5)" d="M 0 170.07874 
L 2211.023622 170.07874 
" style="fill:none;stroke:#b0b0b0;stroke-linecap:square;stroke-width:0.8;"/>
     </g>
    </g>
    <g id="ytick_58">
     <g id="line2d_136">
      <path clip-path="url(#pe1d89832c5)" d="M 0 141.732283 
L 2211.023622 141.732283 
" style="fill:none;stroke:#b0b0b0;stroke-linecap:square;stroke-width:0.8;"/>
     </g>
    </g>
    <g id="ytick_59">
     <g id="line2d_137">
      <path clip-path="url(#pe1d89832c5)" d="M 0 113.385827 
L 2211.023622 113.385827 
" style="fill:none;stroke:#b0b0b0;stroke-linecap:square;stroke-width:0.8;"/>
     </g>
    </g>
    <g id="ytick_60">
     <g id="line2d_138">
      <path clip-path="url(#pe1d89832c5)" d="M 0 85.03937 
L 2211.023622 85.03937 
" style="fill:none;stroke:#b0b0b0;stroke-linecap:square;stroke-width:0.8;"/>
     </g>
    </g>
    <g id="ytick_61">
     <g id="line2d_139">
      <path clip-path="url(#pe1d89832c5)" d="M 0 56.692913 
L 2211.023622 56.692913 
" style="fill:none;stroke:#b0b0b0;stroke-linecap:square;stroke-width:0.8;"/>
     </g>
    </g>
    <g id="ytick_62">
     <g id="line2d_140">
      <path clip-path="url(#pe1d89832c5)" d="M 0 28.346457 
L 2211.023622 28.346457 
" style="fill:none;stroke:#b0b0b0;stroke-linecap:square;stroke-width:0.8;"/>
     </g>
    </g>
   </g>
   <g id="line2d_141">
    <defs>
     <path d="M 0 3 
C 0.795609 3 1.55874 2.683901 2.12132 2.12132 
C 2.683901 1.55874 3 0.795609 3 0 
C 3 -0.795609 2.683901 -1.55874 2.12132 -2.12132 
C 1.55874 -2.683901 0.795609 -3 0 -3 
C -0.795609 -3 -1.55874 -2.683901 -2.12132 -2.12132 
C -2.683901 -1.55874 -3 -0.795609 -3 0 
C -3 0.795609 -2.683901 1.55874 -2.12132 2.12132 
C -1.55874 2.683901 -0.795609 3 0 3 
z
" id="m114fde2f07" style="stroke:#ff0000;"/>
    </defs>
    <g clip-path="url(#pe1d89832c5)">
     <use style="fill:#ff0000;stroke:#ff0000;" x="396.850394" xlink:href="#m114fde2f07" y="198.425197"/>
    </g>
   </g>
   <g id="line2d_142">
    <g clip-path="url(#pe1d89832c5)">
     <use style="fill:#ff0000;stroke:#ff0000;" x="453.543307" xlink:href="#m114fde2f07" y="255.11811"/>
    </g>
   </g>
   <g id="line2d_143">
    <g clip-path="url(#pe1d89832c5)">
     <use style="fill:#ff0000;stroke:#ff0000;" x="396.850394" xlink:href="#m114fde2f07" y="708.661417"/>
    </g>
   </g>
   <g id="line2d_144">
    <g clip-path="url(#pe1d89832c5)">
     <use style="fill:#ff0000;stroke:#ff0000;" x="396.850394" xlink:href="#m114fde2f07" y="1615.748031"/>
    </g>
   </g>
   <g id="line2d_145">
    <g clip-path="url(#pe1d89832c5)">
     <use style="fill:#ff0000;stroke:#ff0000;" x="1105.511811" xlink:href="#m114fde2f07" y="1615.748031"/>
    </g>
   </g>
   <g id="line2d_146">
    <g clip-path="url(#pe1d89832c5)">
     <use style="fill:#ff0000;stroke:#ff0000;" x="1105.511811" xlink:href="#m114fde2f07" y="566.929134"/>
    </g>
   </g>
   <g id="line2d_147">
    <g clip-path="url(#pe1d89832c5)">
     <use style="fill:#ff0000;stroke:#ff0000;" x="1105.511811" xlink:href="#m114fde2f07" y="708.661417"/>
    </g>
   </g>
   <g id="line2d_148">
    <g clip-path="url(#pe1d89832c5)">
     <use style="fill:#ff0000;stroke:#ff0000;" x="1041.732283" xlink:href="#m114fde2f07" y="198.425197"/>
    </g>
   </g>
   <g id="line2d_149">
    <g clip-path="url(#pe1d89832c5)">
     <use style="fill:#ff0000;stroke:#ff0000;" x="694.488189" xlink:href="#m114fde2f07" y="425.19685"/>
    </g>
   </g>
   <g id="line2d_150">
    <g clip-path="url(#pe1d89832c5)">
     <use style="fill:#ff0000;stroke:#ff0000;" x="634.49713" xlink:href="#m114fde2f07" y="242.37746"/>
    </g>
   </g>
   <g id="line2d_151">
    <g clip-path="url(#pe1d89832c5)">
     <use style="fill:#ff0000;stroke:#ff0000;" x="718.456954" xlink:href="#m114fde2f07" y="234.284947"/>
    </g>
   </g>
   <g id="line2d_152">
    <g clip-path="url(#pe1d89832c5)">
     <use style="fill:#ff0000;stroke:#ff0000;" x="396.850394" xlink:href="#m114fde2f07" y="989.291339"/>
    </g>
   </g>
   <g id="line2d_153">
    <g clip-path="url(#pe1d89832c5)">
     <use style="fill:#ff0000;stroke:#ff0000;" x="116.220472" xlink:href="#m114fde2f07" y="989.291339"/>
    </g>
   </g>
   <g id="line2d_154">
    <g clip-path="url(#pe1d89832c5)">
     <use style="fill:#ff0000;stroke:#ff0000;" x="116.220472" xlink:href="#m114fde2f07" y="1615.748031"/>
    </g>
   </g>
   <g id="line2d_155">
    <g clip-path="url(#pe1d89832c5)">
     <use style="fill:#ff0000;stroke:#ff0000;" x="1814.173228" xlink:href="#m114fde2f07" y="1615.748031"/>
    </g>
   </g>
   <g id="line2d_156">
    <g clip-path="url(#pe1d89832c5)">
     <use style="fill:#ff0000;stroke:#ff0000;" x="1814.173228" xlink:href="#m114fde2f07" y="708.661417"/>
    </g>
   </g>
   <g id="line2d_157">
    <g clip-path="url(#pe1d89832c5)">
     <use style="fill:#ff0000;stroke:#ff0000;" x="1757.480315" xlink:href="#m114fde2f07" y="141.732283"/>
    </g>
   </g>
   <g id="line2d_158">
    <g clip-path="url(#pe1d89832c5)">
     <use style="fill:#ff0000;stroke:#ff0000;" x="1814.173228" xlink:href="#m114fde2f07" y="198.425197"/>
    </g>
   </g>
   <g id="line2d_159">
    <g clip-path="url(#pe1d89832c5)">
     <use style="fill:#ff0000;stroke:#ff0000;" x="1169.291339" xlink:href="#m114fde2f07" y="198.425197"/>
    </g>
   </g>
   <g id="line2d_160">
    <g clip-path="url(#pe1d89832c5)">
     <use style="fill:#ff0000;stroke:#ff0000;" x="1516.535433" xlink:href="#m114fde2f07" y="595.275591"/>
    </g>
   </g>
   <g id="line2d_161">
    <g clip-path="url(#pe1d89832c5)">
     <use style="fill:#ff0000;stroke:#ff0000;" x="1105.511811" xlink:href="#m114fde2f07" y="566.929134"/>
    </g>
   </g>
   <g id="line2d_162">
    <g clip-path="url(#pe1d89832c5)">
     <use style="fill:#ff0000;stroke:#ff0000;" x="1105.511811" xlink:href="#m114fde2f07" y="708.661417"/>
    </g>
   </g>
   <g id="line2d_163">
    <g clip-path="url(#pe1d89832c5)">
     <use style="fill:#ff0000;stroke:#ff0000;" x="1105.511811" xlink:href="#m114fde2f07" y="1615.748031"/>
    </g>
   </g>
   <g id="line2d_164">
    <g clip-path="url(#pe1d89832c5)">
     <use style="fill:#ff0000;stroke:#ff0000;" x="1517.896989" xlink:href="#m114fde2f07" y="166.943102"/>
    </g>
   </g>
   <g id="line2d_165">
    <g clip-path="url(#pe1d89832c5)">
     <use style="fill:#ff0000;stroke:#ff0000;" x="1433.388854" xlink:href="#m114fde2f07" y="175.088465"/>
    </g>
   </g>
   <g id="line2d_166">
    <g clip-path="url(#pe1d89832c5)">
     <use style="fill:#ff0000;stroke:#ff0000;" x="1814.173228" xlink:href="#m114fde2f07" y="989.291339"/>
    </g>
   </g>
   <g id="line2d_167">
    <g clip-path="url(#pe1d89832c5)">
     <use style="fill:#ff0000;stroke:#ff0000;" x="2094.80315" xlink:href="#m114fde2f07" y="989.291339"/>
    </g>
   </g>
   <g id="line2d_168">
    <g clip-path="url(#pe1d89832c5)">
     <use style="fill:#ff0000;stroke:#ff0000;" x="2094.80315" xlink:href="#m114fde2f07" y="1615.748031"/>
    </g>
   </g>
   <g id="line2d_169">
    <path clip-path="url(#pe1d89832c5)" d="M 1516.535433 1162.204724 
L 1516.535809 878.740157 
" style="fill:none;stroke:#0000ff;stroke-linecap:square;stroke-width:1.5;"/>
   </g>
   <g id="line2d_170">
    <path clip-path="url(#pe1d89832c5)" d="M 396.850394 708.661417 
L 1814.173228 708.661417 
" style="fill:none;stroke:#0000ff;stroke-dasharray:5.55,2.4;stroke-dashoffset:0;stroke-width:1.5;"/>
   </g>
   <g id="line2d_171">
    <path clip-path="url(#pe1d89832c5)" d="M 396.850394 198.425197 
L 1814.173228 198.425197 
" style="fill:none;stroke:#0000ff;stroke-dasharray:5.55,2.4;stroke-dashoffset:0;stroke-width:1.5;"/>
   </g>
   <g id="line2d_172">
    <path clip-path="url(#pe1d89832c5)" d="M 28.346457 1729.133858 
L 170.07874 1729.133858 
" style="fill:none;stroke:#0000ff;stroke-width:5;"/>
   </g>
   <g id="line2d_173">
    <path clip-path="url(#pe1d89832c5)" d="M 28.346457 1729.133858 
L 170.07874 1729.133858 
" style="fill:none;stroke:#0000ff;stroke-width:5;"/>
   </g>
   <g id="patch_5">
    <path d="M 0 1757.480315 
L 0 0 
" style="fill:none;stroke:#000000;stroke-linecap:square;stroke-linejoin:miter;stroke-width:0.8;"/>
   </g>
   <g id="patch_6">
    <path d="M 2211.023622 1757.480315 
L 2211.023622 0 
" style="fill:none;stroke:#000000;stroke-linecap:square;stroke-linejoin:miter;stroke-width:0.8;"/>
   </g>
   <g id="patch_7">
    <path d="M 0 1757.480315 
L 2211.023622 1757.480315 
" style="fill:none;stroke:#000000;stroke-linecap:square;stroke-linejoin:miter;stroke-width:0.8;"/>
   </g>
   <g id="patch_8">
    <path d="M 0 0 
L 2211.023622 0 
" style="fill:none;stroke:#000000;stroke-linecap:square;stroke-linejoin:miter;stroke-width:0.8;"/>
   </g>
   <g id="text_1">
    <!-- A -->
    <g transform="translate(402.519685 198.425197)scale(0.1 -0.1)">
     <defs>
      <path d="M 34.1875 63.1875 
L 20.796875 26.90625 
L 47.609375 26.90625 
z
M 28.609375 72.90625 
L 39.796875 72.90625 
L 67.578125 0 
L 57.328125 0 
L 50.6875 18.703125 
L 17.828125 18.703125 
L 11.1875 0 
L 0.78125 0 
z
" id="DejaVuSans-65"/>
     </defs>
     <use xlink:href="#DejaVuSans-65"/>
    </g>
   </g>
   <g id="text_2">
    <!-- A1 -->
    <g transform="translate(459.212598 255.11811)scale(0.1 -0.1)">
     <defs>
      <path d="M 12.40625 8.296875 
L 28.515625 8.296875 
L 28.515625 63.921875 
L 10.984375 60.40625 
L 10.984375 69.390625 
L 28.421875 72.90625 
L 38.28125 72.90625 
L 38.28125 8.296875 
L 54.390625 8.296875 
L 54.390625 0 
L 12.40625 0 
z
" id="DejaVuSans-49"/>
     </defs>
     <use xlink:href="#DejaVuSans-65"/>
     <use x="68.408203" xlink:href="#DejaVuSans-49"/>
    </g>
   </g>
   <g id="text_3">
    <!-- G -->
    <g transform="translate(402.519685 708.661417)scale(0.1 -0.1)">
     <defs>
      <path d="M 59.515625 10.40625 
L 59.515625 29.984375 
L 43.40625 29.984375 
L 43.40625 38.09375 
L 69.28125 38.09375 
L 69.28125 6.78125 
Q 63.578125 2.734375 56.6875 0.65625 
Q 49.8125 -1.421875 42 -1.421875 
Q 24.90625 -1.421875 15.25 8.5625 
Q 5.609375 18.5625 5.609375 36.375 
Q 5.609375 54.25 15.25 64.234375 
Q 24.90625 74.21875 42 74.21875 
Q 49.125 74.21875 55.546875 72.453125 
Q 61.96875 70.703125 67.390625 67.28125 
L 67.390625 56.78125 
Q 61.921875 61.421875 55.765625 63.765625 
Q 49.609375 66.109375 42.828125 66.109375 
Q 29.4375 66.109375 22.71875 58.640625 
Q 16.015625 51.171875 16.015625 36.375 
Q 16.015625 21.625 22.71875 14.15625 
Q 29.4375 6.6875 42.828125 6.6875 
Q 48.046875 6.6875 52.140625 7.59375 
Q 56.25 8.5 59.515625 10.40625 
z
" id="DejaVuSans-71"/>
     </defs>
     <use xlink:href="#DejaVuSans-71"/>
    </g>
   </g>
   <g id="text_4">
    <!-- B -->
    <g transform="translate(402.519685 1615.748031)scale(0.1 -0.1)">
     <defs>
      <path d="M 19.671875 34.8125 
L 19.671875 8.109375 
L 35.5 8.109375 
Q 43.453125 8.109375 47.28125 11.40625 
Q 51.125 14.703125 51.125 21.484375 
Q 51.125 28.328125 47.28125 31.5625 
Q 43.453125 34.8125 35.5 34.8125 
z
M 19.671875 64.796875 
L 19.671875 42.828125 
L 34.28125 42.828125 
Q 41.5 42.828125 45.03125 45.53125 
Q 48.578125 48.25 48.578125 53.8125 
Q 48.578125 59.328125 45.03125 62.0625 
Q 41.5 64.796875 34.28125 64.796875 
z
M 9.8125 72.90625 
L 35.015625 72.90625 
Q 46.296875 72.90625 52.390625 68.21875 
Q 58.5 63.53125 58.5 54.890625 
Q 58.5 48.1875 55.375 44.234375 
Q 52.25 40.28125 46.1875 39.3125 
Q 53.46875 37.75 57.5 32.78125 
Q 61.53125 27.828125 61.53125 20.40625 
Q 61.53125 10.640625 54.890625 5.3125 
Q 48.25 0 35.984375 0 
L 9.8125 0 
z
" id="DejaVuSans-66"/>
     </defs>
     <use xlink:href="#DejaVuSans-66"/>
    </g>
   </g>
   <g id="text_5">
    <!-- F -->
    <g transform="translate(1111.181102 1615.748031)scale(0.1 -0.1)">
     <defs>
      <path d="M 9.8125 72.90625 
L 51.703125 72.90625 
L 51.703125 64.59375 
L 19.671875 64.59375 
L 19.671875 43.109375 
L 48.578125 43.109375 
L 48.578125 34.8125 
L 19.671875 34.8125 
L 19.671875 0 
L 9.8125 0 
z
" id="DejaVuSans-70"/>
     </defs>
     <use xlink:href="#DejaVuSans-70"/>
    </g>
   </g>
   <g id="text_6">
    <!-- E1 -->
    <g transform="translate(1111.181102 566.929134)scale(0.1 -0.1)">
     <defs>
      <path d="M 9.8125 72.90625 
L 55.90625 72.90625 
L 55.90625 64.59375 
L 19.671875 64.59375 
L 19.671875 43.015625 
L 54.390625 43.015625 
L 54.390625 34.71875 
L 19.671875 34.71875 
L 19.671875 8.296875 
L 56.78125 8.296875 
L 56.78125 0 
L 9.8125 0 
z
" id="DejaVuSans-69"/>
     </defs>
     <use xlink:href="#DejaVuSans-69"/>
     <use x="63.183594" xlink:href="#DejaVuSans-49"/>
    </g>
   </g>
   <g id="text_7">
    <!-- E2 -->
    <g transform="translate(1111.181102 708.661417)scale(0.1 -0.1)">
     <defs>
      <path d="M 19.1875 8.296875 
L 53.609375 8.296875 
L 53.609375 0 
L 7.328125 0 
L 7.328125 8.296875 
Q 12.9375 14.109375 22.625 23.890625 
Q 32.328125 33.6875 34.8125 36.53125 
Q 39.546875 41.84375 41.421875 45.53125 
Q 43.3125 49.21875 43.3125 52.78125 
Q 43.3125 58.59375 39.234375 62.25 
Q 35.15625 65.921875 28.609375 65.921875 
Q 23.96875 65.921875 18.8125 64.3125 
Q 13.671875 62.703125 7.8125 59.421875 
L 7.8125 69.390625 
Q 13.765625 71.78125 18.9375 73 
Q 24.125 74.21875 28.421875 74.21875 
Q 39.75 74.21875 46.484375 68.546875 
Q 53.21875 62.890625 53.21875 53.421875 
Q 53.21875 48.921875 51.53125 44.890625 
Q 49.859375 40.875 45.40625 35.40625 
Q 44.1875 33.984375 37.640625 27.21875 
Q 31.109375 20.453125 19.1875 8.296875 
z
" id="DejaVuSans-50"/>
     </defs>
     <use xlink:href="#DejaVuSans-69"/>
     <use x="63.183594" xlink:href="#DejaVuSans-50"/>
    </g>
   </g>
   <g id="text_8">
    <!-- W1 -->
    <g transform="translate(1047.401575 198.425197)scale(0.1 -0.1)">
     <defs>
      <path d="M 3.328125 72.90625 
L 13.28125 72.90625 
L 28.609375 11.28125 
L 43.890625 72.90625 
L 54.984375 72.90625 
L 70.3125 11.28125 
L 85.59375 72.90625 
L 95.609375 72.90625 
L 77.296875 0 
L 64.890625 0 
L 49.515625 63.28125 
L 33.984375 0 
L 21.578125 0 
z
" id="DejaVuSans-87"/>
     </defs>
     <use xlink:href="#DejaVuSans-87"/>
     <use x="98.876953" xlink:href="#DejaVuSans-49"/>
    </g>
   </g>
   <g id="text_9">
    <!-- S4 -->
    <g transform="translate(700.15748 425.19685)scale(0.1 -0.1)">
     <defs>
      <path d="M 53.515625 70.515625 
L 53.515625 60.890625 
Q 47.90625 63.578125 42.921875 64.890625 
Q 37.9375 66.21875 33.296875 66.21875 
Q 25.25 66.21875 20.875 63.09375 
Q 16.5 59.96875 16.5 54.203125 
Q 16.5 49.359375 19.40625 46.890625 
Q 22.3125 44.4375 30.421875 42.921875 
L 36.375 41.703125 
Q 47.40625 39.59375 52.65625 34.296875 
Q 57.90625 29 57.90625 20.125 
Q 57.90625 9.515625 50.796875 4.046875 
Q 43.703125 -1.421875 29.984375 -1.421875 
Q 24.8125 -1.421875 18.96875 -0.25 
Q 13.140625 0.921875 6.890625 3.21875 
L 6.890625 13.375 
Q 12.890625 10.015625 18.65625 8.296875 
Q 24.421875 6.59375 29.984375 6.59375 
Q 38.421875 6.59375 43.015625 9.90625 
Q 47.609375 13.234375 47.609375 19.390625 
Q 47.609375 24.75 44.3125 27.78125 
Q 41.015625 30.8125 33.5 32.328125 
L 27.484375 33.5 
Q 16.453125 35.6875 11.515625 40.375 
Q 6.59375 45.0625 6.59375 53.421875 
Q 6.59375 63.09375 13.40625 68.65625 
Q 20.21875 74.21875 32.171875 74.21875 
Q 37.3125 74.21875 42.625 73.28125 
Q 47.953125 72.359375 53.515625 70.515625 
z
" id="DejaVuSans-83"/>
      <path d="M 37.796875 64.3125 
L 12.890625 25.390625 
L 37.796875 25.390625 
z
M 35.203125 72.90625 
L 47.609375 72.90625 
L 47.609375 25.390625 
L 58.015625 25.390625 
L 58.015625 17.1875 
L 47.609375 17.1875 
L 47.609375 0 
L 37.796875 0 
L 37.796875 17.1875 
L 4.890625 17.1875 
L 4.890625 26.703125 
z
" id="DejaVuSans-52"/>
     </defs>
     <use xlink:href="#DejaVuSans-83"/>
     <use x="63.476562" xlink:href="#DejaVuSans-52"/>
    </g>
   </g>
   <g id="text_10">
    <!-- T4 -->
    <g transform="translate(640.166422 242.37746)scale(0.1 -0.1)">
     <defs>
      <path d="M -0.296875 72.90625 
L 61.375 72.90625 
L 61.375 64.59375 
L 35.5 64.59375 
L 35.5 0 
L 25.59375 0 
L 25.59375 64.59375 
L -0.296875 64.59375 
z
" id="DejaVuSans-84"/>
     </defs>
     <use xlink:href="#DejaVuSans-84"/>
     <use x="61.083984" xlink:href="#DejaVuSans-52"/>
    </g>
   </g>
   <g id="text_11">
    <!-- T5 -->
    <g transform="translate(724.126246 234.284947)scale(0.1 -0.1)">
     <defs>
      <path d="M 10.796875 72.90625 
L 49.515625 72.90625 
L 49.515625 64.59375 
L 19.828125 64.59375 
L 19.828125 46.734375 
Q 21.96875 47.46875 24.109375 47.828125 
Q 26.265625 48.1875 28.421875 48.1875 
Q 40.625 48.1875 47.75 41.5 
Q 54.890625 34.8125 54.890625 23.390625 
Q 54.890625 11.625 47.5625 5.09375 
Q 40.234375 -1.421875 26.90625 -1.421875 
Q 22.3125 -1.421875 17.546875 -0.640625 
Q 12.796875 0.140625 7.71875 1.703125 
L 7.71875 11.625 
Q 12.109375 9.234375 16.796875 8.0625 
Q 21.484375 6.890625 26.703125 6.890625 
Q 35.15625 6.890625 40.078125 11.328125 
Q 45.015625 15.765625 45.015625 23.390625 
Q 45.015625 31 40.078125 35.4375 
Q 35.15625 39.890625 26.703125 39.890625 
Q 22.75 39.890625 18.8125 39.015625 
Q 14.890625 38.140625 10.796875 36.28125 
z
" id="DejaVuSans-53"/>
     </defs>
     <use xlink:href="#DejaVuSans-84"/>
     <use x="61.083984" xlink:href="#DejaVuSans-53"/>
    </g>
   </g>
   <g id="text_12">
    <!-- P -->
    <g transform="translate(402.519685 989.291339)scale(0.1 -0.1)">
     <defs>
      <path d="M 19.671875 64.796875 
L 19.671875 37.40625 
L 32.078125 37.40625 
Q 38.96875 37.40625 42.71875 40.96875 
Q 46.484375 44.53125 46.484375 51.125 
Q 46.484375 57.671875 42.71875 61.234375 
Q 38.96875 64.796875 32.078125 64.796875 
z
M 9.8125 72.90625 
L 32.078125 72.90625 
Q 44.34375 72.90625 50.609375 67.359375 
Q 56.890625 61.8125 56.890625 51.125 
Q 56.890625 40.328125 50.609375 34.8125 
Q 44.34375 29.296875 32.078125 29.296875 
L 19.671875 29.296875 
L 19.671875 0 
L 9.8125 0 
z
" id="DejaVuSans-80"/>
     </defs>
     <use xlink:href="#DejaVuSans-80"/>
    </g>
   </g>
   <g id="text_13">
    <!-- I -->
    <g transform="translate(121.889764 989.291339)scale(0.1 -0.1)">
     <defs>
      <path d="M 9.8125 72.90625 
L 19.671875 72.90625 
L 19.671875 0 
L 9.8125 0 
z
" id="DejaVuSans-73"/>
     </defs>
     <use xlink:href="#DejaVuSans-73"/>
    </g>
   </g>
   <g id="text_14">
    <!-- B1 -->
    <g transform="translate(121.889764 1615.748031)scale(0.1 -0.1)">
     <use xlink:href="#DejaVuSans-66"/>
     <use x="68.603516" xlink:href="#DejaVuSans-49"/>
    </g>
   </g>
   <g id="text_15">
    <!-- C -->
    <g transform="translate(1819.84252 1615.748031)scale(0.1 -0.1)">
     <defs>
      <path d="M 64.40625 67.28125 
L 64.40625 56.890625 
Q 59.421875 61.53125 53.78125 63.8125 
Q 48.140625 66.109375 41.796875 66.109375 
Q 29.296875 66.109375 22.65625 58.46875 
Q 16.015625 50.828125 16.015625 36.375 
Q 16.015625 21.96875 22.65625 14.328125 
Q 29.296875 6.6875 41.796875 6.6875 
Q 48.140625 6.6875 53.78125 8.984375 
Q 59.421875 11.28125 64.40625 15.921875 
L 64.40625 5.609375 
Q 59.234375 2.09375 53.4375 0.328125 
Q 47.65625 -1.421875 41.21875 -1.421875 
Q 24.65625 -1.421875 15.125 8.703125 
Q 5.609375 18.84375 5.609375 36.375 
Q 5.609375 53.953125 15.125 64.078125 
Q 24.65625 74.21875 41.21875 74.21875 
Q 47.75 74.21875 53.53125 72.484375 
Q 59.328125 70.75 64.40625 67.28125 
z
" id="DejaVuSans-67"/>
     </defs>
     <use xlink:href="#DejaVuSans-67"/>
    </g>
   </g>
   <g id="text_16">
    <!-- H -->
    <g transform="translate(1819.84252 708.661417)scale(0.1 -0.1)">
     <defs>
      <path d="M 9.8125 72.90625 
L 19.671875 72.90625 
L 19.671875 43.015625 
L 55.515625 43.015625 
L 55.515625 72.90625 
L 65.375 72.90625 
L 65.375 0 
L 55.515625 0 
L 55.515625 34.71875 
L 19.671875 34.71875 
L 19.671875 0 
L 9.8125 0 
z
" id="DejaVuSans-72"/>
     </defs>
     <use xlink:href="#DejaVuSans-72"/>
    </g>
   </g>
   <g id="text_17">
    <!-- D1 -->
    <g transform="translate(1763.149606 141.732283)scale(0.1 -0.1)">
     <defs>
      <path d="M 19.671875 64.796875 
L 19.671875 8.109375 
L 31.59375 8.109375 
Q 46.6875 8.109375 53.6875 14.9375 
Q 60.6875 21.78125 60.6875 36.53125 
Q 60.6875 51.171875 53.6875 57.984375 
Q 46.6875 64.796875 31.59375 64.796875 
z
M 9.8125 72.90625 
L 30.078125 72.90625 
Q 51.265625 72.90625 61.171875 64.09375 
Q 71.09375 55.28125 71.09375 36.53125 
Q 71.09375 17.671875 61.125 8.828125 
Q 51.171875 0 30.078125 0 
L 9.8125 0 
z
" id="DejaVuSans-68"/>
     </defs>
     <use xlink:href="#DejaVuSans-68"/>
     <use x="77.001953" xlink:href="#DejaVuSans-49"/>
    </g>
   </g>
   <g id="text_18">
    <!-- D -->
    <g transform="translate(1819.84252 198.425197)scale(0.1 -0.1)">
     <use xlink:href="#DejaVuSans-68"/>
    </g>
   </g>
   <g id="text_19">
    <!-- W -->
    <g transform="translate(1174.96063 198.425197)scale(0.1 -0.1)">
     <use xlink:href="#DejaVuSans-87"/>
    </g>
   </g>
   <g id="text_20">
    <!-- S3 -->
    <g transform="translate(1522.204724 595.275591)scale(0.1 -0.1)">
     <defs>
      <path d="M 40.578125 39.3125 
Q 47.65625 37.796875 51.625 33 
Q 55.609375 28.21875 55.609375 21.1875 
Q 55.609375 10.40625 48.1875 4.484375 
Q 40.765625 -1.421875 27.09375 -1.421875 
Q 22.515625 -1.421875 17.65625 -0.515625 
Q 12.796875 0.390625 7.625 2.203125 
L 7.625 11.71875 
Q 11.71875 9.328125 16.59375 8.109375 
Q 21.484375 6.890625 26.8125 6.890625 
Q 36.078125 6.890625 40.9375 10.546875 
Q 45.796875 14.203125 45.796875 21.1875 
Q 45.796875 27.640625 41.28125 31.265625 
Q 36.765625 34.90625 28.71875 34.90625 
L 20.21875 34.90625 
L 20.21875 43.015625 
L 29.109375 43.015625 
Q 36.375 43.015625 40.234375 45.921875 
Q 44.09375 48.828125 44.09375 54.296875 
Q 44.09375 59.90625 40.109375 62.90625 
Q 36.140625 65.921875 28.71875 65.921875 
Q 24.65625 65.921875 20.015625 65.03125 
Q 15.375 64.15625 9.8125 62.3125 
L 9.8125 71.09375 
Q 15.4375 72.65625 20.34375 73.4375 
Q 25.25 74.21875 29.59375 74.21875 
Q 40.828125 74.21875 47.359375 69.109375 
Q 53.90625 64.015625 53.90625 55.328125 
Q 53.90625 49.265625 50.4375 45.09375 
Q 46.96875 40.921875 40.578125 39.3125 
z
" id="DejaVuSans-51"/>
     </defs>
     <use xlink:href="#DejaVuSans-83"/>
     <use x="63.476562" xlink:href="#DejaVuSans-51"/>
    </g>
   </g>
   <g id="text_21">
    <!-- E1 -->
    <g transform="translate(1111.181102 566.929134)scale(0.1 -0.1)">
     <use xlink:href="#DejaVuSans-69"/>
     <use x="63.183594" xlink:href="#DejaVuSans-49"/>
    </g>
   </g>
   <g id="text_22">
    <!-- E2 -->
    <g transform="translate(1111.181102 708.661417)scale(0.1 -0.1)">
     <use xlink:href="#DejaVuSans-69"/>
     <use x="63.183594" xlink:href="#DejaVuSans-50"/>
    </g>
   </g>
   <g id="text_23">
    <!-- F -->
    <g transform="translate(1111.181102 1615.748031)scale(0.1 -0.1)">
     <use xlink:href="#DejaVuSans-70"/>
    </g>
   </g>
   <g id="text_24">
    <!-- T3 -->
    <g transform="translate(1523.566281 166.943102)scale(0.1 -0.1)">
     <use xlink:href="#DejaVuSans-84"/>
     <use x="61.083984" xlink:href="#DejaVuSans-51"/>
    </g>
   </g>
   <g id="text_25">
    <!-- T2 -->
    <g transform="translate(1439.058145 175.088465)scale(0.1 -0.1)">
     <use xlink:href="#DejaVuSans-84"/>
     <use x="61.083984" xlink:href="#DejaVuSans-50"/>
    </g>
   </g>
   <g id="text_26">
    <!-- O -->
    <g transform="translate(1819.84252 989.291339)scale(0.1 -0.1)">
     <defs>
      <path d="M 39.40625 66.21875 
Q 28.65625 66.21875 22.328125 58.203125 
Q 16.015625 50.203125 16.015625 36.375 
Q 16.015625 22.609375 22.328125 14.59375 
Q 28.65625 6.59375 39.40625 6.59375 
Q 50.140625 6.59375 56.421875 14.59375 
Q 62.703125 22.609375 62.703125 36.375 
Q 62.703125 50.203125 56.421875 58.203125 
Q 50.140625 66.21875 39.40625 66.21875 
z
M 39.40625 74.21875 
Q 54.734375 74.21875 63.90625 63.9375 
Q 73.09375 53.65625 73.09375 36.375 
Q 73.09375 19.140625 63.90625 8.859375 
Q 54.734375 -1.421875 39.40625 -1.421875 
Q 24.03125 -1.421875 14.8125 8.828125 
Q 5.609375 19.09375 5.609375 36.375 
Q 5.609375 53.65625 14.8125 63.9375 
Q 24.03125 74.21875 39.40625 74.21875 
z
" id="DejaVuSans-79"/>
     </defs>
     <use xlink:href="#DejaVuSans-79"/>
    </g>
   </g>
   <g id="text_27">
    <!-- L -->
    <g transform="translate(2100.472441 989.291339)scale(0.1 -0.1)">
     <defs>
      <path d="M 9.8125 72.90625 
L 19.671875 72.90625 
L 19.671875 8.296875 
L 55.171875 8.296875 
L 55.171875 0 
L 9.8125 0 
z
" id="DejaVuSans-76"/>
     </defs>
     <use xlink:href="#DejaVuSans-76"/>
    </g>
   </g>
   <g id="text_28">
    <!-- C1 -->
    <g transform="translate(2100.472441 1615.748031)scale(0.1 -0.1)">
     <use xlink:href="#DejaVuSans-67"/>
     <use x="69.824219" xlink:href="#DejaVuSans-49"/>
    </g>
   </g>
   <g id="text_29">
    <!-- Style: Donnanno -->
    <g transform="translate(85.03937 28.346457)scale(0.1 -0.1)">
     <defs>
      <path d="M 18.3125 70.21875 
L 18.3125 54.6875 
L 36.8125 54.6875 
L 36.8125 47.703125 
L 18.3125 47.703125 
L 18.3125 18.015625 
Q 18.3125 11.328125 20.140625 9.421875 
Q 21.96875 7.515625 27.59375 7.515625 
L 36.8125 7.515625 
L 36.8125 0 
L 27.59375 0 
Q 17.1875 0 13.234375 3.875 
Q 9.28125 7.765625 9.28125 18.015625 
L 9.28125 47.703125 
L 2.6875 47.703125 
L 2.6875 54.6875 
L 9.28125 54.6875 
L 9.28125 70.21875 
z
" id="DejaVuSans-116"/>
      <path d="M 32.171875 -5.078125 
Q 28.375 -14.84375 24.75 -17.8125 
Q 21.140625 -20.796875 15.09375 -20.796875 
L 7.90625 -20.796875 
L 7.90625 -13.28125 
L 13.1875 -13.28125 
Q 16.890625 -13.28125 18.9375 -11.515625 
Q 21 -9.765625 23.484375 -3.21875 
L 25.09375 0.875 
L 2.984375 54.6875 
L 12.5 54.6875 
L 29.59375 11.921875 
L 46.6875 54.6875 
L 56.203125 54.6875 
z
" id="DejaVuSans-121"/>
      <path d="M 9.421875 75.984375 
L 18.40625 75.984375 
L 18.40625 0 
L 9.421875 0 
z
" id="DejaVuSans-108"/>
      <path d="M 56.203125 29.59375 
L 56.203125 25.203125 
L 14.890625 25.203125 
Q 15.484375 15.921875 20.484375 11.0625 
Q 25.484375 6.203125 34.421875 6.203125 
Q 39.59375 6.203125 44.453125 7.46875 
Q 49.3125 8.734375 54.109375 11.28125 
L 54.109375 2.78125 
Q 49.265625 0.734375 44.1875 -0.34375 
Q 39.109375 -1.421875 33.890625 -1.421875 
Q 20.796875 -1.421875 13.15625 6.1875 
Q 5.515625 13.8125 5.515625 26.8125 
Q 5.515625 40.234375 12.765625 48.109375 
Q 20.015625 56 32.328125 56 
Q 43.359375 56 49.78125 48.890625 
Q 56.203125 41.796875 56.203125 29.59375 
z
M 47.21875 32.234375 
Q 47.125 39.59375 43.09375 43.984375 
Q 39.0625 48.390625 32.421875 48.390625 
Q 24.90625 48.390625 20.390625 44.140625 
Q 15.875 39.890625 15.1875 32.171875 
z
" id="DejaVuSans-101"/>
      <path d="M 11.71875 12.40625 
L 22.015625 12.40625 
L 22.015625 0 
L 11.71875 0 
z
M 11.71875 51.703125 
L 22.015625 51.703125 
L 22.015625 39.3125 
L 11.71875 39.3125 
z
" id="DejaVuSans-58"/>
      <path id="DejaVuSans-32"/>
      <path d="M 30.609375 48.390625 
Q 23.390625 48.390625 19.1875 42.75 
Q 14.984375 37.109375 14.984375 27.296875 
Q 14.984375 17.484375 19.15625 11.84375 
Q 23.34375 6.203125 30.609375 6.203125 
Q 37.796875 6.203125 41.984375 11.859375 
Q 46.1875 17.53125 46.1875 27.296875 
Q 46.1875 37.015625 41.984375 42.703125 
Q 37.796875 48.390625 30.609375 48.390625 
z
M 30.609375 56 
Q 42.328125 56 49.015625 48.375 
Q 55.71875 40.765625 55.71875 27.296875 
Q 55.71875 13.875 49.015625 6.21875 
Q 42.328125 -1.421875 30.609375 -1.421875 
Q 18.84375 -1.421875 12.171875 6.21875 
Q 5.515625 13.875 5.515625 27.296875 
Q 5.515625 40.765625 12.171875 48.375 
Q 18.84375 56 30.609375 56 
z
" id="DejaVuSans-111"/>
      <path d="M 54.890625 33.015625 
L 54.890625 0 
L 45.90625 0 
L 45.90625 32.71875 
Q 45.90625 40.484375 42.875 44.328125 
Q 39.84375 48.1875 33.796875 48.1875 
Q 26.515625 48.1875 22.3125 43.546875 
Q 18.109375 38.921875 18.109375 30.90625 
L 18.109375 0 
L 9.078125 0 
L 9.078125 54.6875 
L 18.109375 54.6875 
L 18.109375 46.1875 
Q 21.34375 51.125 25.703125 53.5625 
Q 30.078125 56 35.796875 56 
Q 45.21875 56 50.046875 50.171875 
Q 54.890625 44.34375 54.890625 33.015625 
z
" id="DejaVuSans-110"/>
      <path d="M 34.28125 27.484375 
Q 23.390625 27.484375 19.1875 25 
Q 14.984375 22.515625 14.984375 16.5 
Q 14.984375 11.71875 18.140625 8.90625 
Q 21.296875 6.109375 26.703125 6.109375 
Q 34.1875 6.109375 38.703125 11.40625 
Q 43.21875 16.703125 43.21875 25.484375 
L 43.21875 27.484375 
z
M 52.203125 31.203125 
L 52.203125 0 
L 43.21875 0 
L 43.21875 8.296875 
Q 40.140625 3.328125 35.546875 0.953125 
Q 30.953125 -1.421875 24.3125 -1.421875 
Q 15.921875 -1.421875 10.953125 3.296875 
Q 6 8.015625 6 15.921875 
Q 6 25.140625 12.171875 29.828125 
Q 18.359375 34.515625 30.609375 34.515625 
L 43.21875 34.515625 
L 43.21875 35.40625 
Q 43.21875 41.609375 39.140625 45 
Q 35.0625 48.390625 27.6875 48.390625 
Q 23 48.390625 18.546875 47.265625 
Q 14.109375 46.140625 10.015625 43.890625 
L 10.015625 52.203125 
Q 14.9375 54.109375 19.578125 55.046875 
Q 24.21875 56 28.609375 56 
Q 40.484375 56 46.34375 49.84375 
Q 52.203125 43.703125 52.203125 31.203125 
z
" id="DejaVuSans-97"/>
     </defs>
     <use xlink:href="#DejaVuSans-83"/>
     <use x="63.476562" xlink:href="#DejaVuSans-116"/>
     <use x="102.685547" xlink:href="#DejaVuSans-121"/>
     <use x="161.865234" xlink:href="#DejaVuSans-108"/>
     <use x="189.648438" xlink:href="#DejaVuSans-101"/>
     <use x="251.171875" xlink:href="#DejaVuSans-58"/>
     <use x="284.863281" xlink:href="#DejaVuSans-32"/>
     <use x="316.650391" xlink:href="#DejaVuSans-68"/>
     <use x="393.652344" xlink:href="#DejaVuSans-111"/>
     <use x="454.833984" xlink:href="#DejaVuSans-110"/>
     <use x="518.212891" xlink:href="#DejaVuSans-110"/>
     <use x="581.591797" xlink:href="#DejaVuSans-97"/>
     <use x="642.871094" xlink:href="#DejaVuSans-110"/>
     <use x="706.25" xlink:href="#DejaVuSans-110"/>
     <use x="769.628906" xlink:href="#DejaVuSans-111"/>
    </g>
   </g>
   <g id="text_30">
    <!-- Gender: W -->
    <g transform="translate(85.03937 56.692913)scale(0.1 -0.1)">
     <defs>
      <path d="M 45.40625 46.390625 
L 45.40625 75.984375 
L 54.390625 75.984375 
L 54.390625 0 
L 45.40625 0 
L 45.40625 8.203125 
Q 42.578125 3.328125 38.25 0.953125 
Q 33.9375 -1.421875 27.875 -1.421875 
Q 17.96875 -1.421875 11.734375 6.484375 
Q 5.515625 14.40625 5.515625 27.296875 
Q 5.515625 40.1875 11.734375 48.09375 
Q 17.96875 56 27.875 56 
Q 33.9375 56 38.25 53.625 
Q 42.578125 51.265625 45.40625 46.390625 
z
M 14.796875 27.296875 
Q 14.796875 17.390625 18.875 11.75 
Q 22.953125 6.109375 30.078125 6.109375 
Q 37.203125 6.109375 41.296875 11.75 
Q 45.40625 17.390625 45.40625 27.296875 
Q 45.40625 37.203125 41.296875 42.84375 
Q 37.203125 48.484375 30.078125 48.484375 
Q 22.953125 48.484375 18.875 42.84375 
Q 14.796875 37.203125 14.796875 27.296875 
z
" id="DejaVuSans-100"/>
      <path d="M 41.109375 46.296875 
Q 39.59375 47.171875 37.8125 47.578125 
Q 36.03125 48 33.890625 48 
Q 26.265625 48 22.1875 43.046875 
Q 18.109375 38.09375 18.109375 28.8125 
L 18.109375 0 
L 9.078125 0 
L 9.078125 54.6875 
L 18.109375 54.6875 
L 18.109375 46.1875 
Q 20.953125 51.171875 25.484375 53.578125 
Q 30.03125 56 36.53125 56 
Q 37.453125 56 38.578125 55.875 
Q 39.703125 55.765625 41.0625 55.515625 
z
" id="DejaVuSans-114"/>
     </defs>
     <use xlink:href="#DejaVuSans-71"/>
     <use x="77.490234" xlink:href="#DejaVuSans-101"/>
     <use x="139.013672" xlink:href="#DejaVuSans-110"/>
     <use x="202.392578" xlink:href="#DejaVuSans-100"/>
     <use x="265.869141" xlink:href="#DejaVuSans-101"/>
     <use x="327.392578" xlink:href="#DejaVuSans-114"/>
     <use x="366.755859" xlink:href="#DejaVuSans-58"/>
     <use x="400.447266" xlink:href="#DejaVuSans-32"/>
     <use x="432.234375" xlink:href="#DejaVuSans-87"/>
    </g>
   </g>
   <g id="text_31">
    <!-- Measurements: sophie -->
    <g transform="translate(85.03937 85.03937)scale(0.1 -0.1)">
     <defs>
      <path d="M 9.8125 72.90625 
L 24.515625 72.90625 
L 43.109375 23.296875 
L 61.8125 72.90625 
L 76.515625 72.90625 
L 76.515625 0 
L 66.890625 0 
L 66.890625 64.015625 
L 48.09375 14.015625 
L 38.1875 14.015625 
L 19.390625 64.015625 
L 19.390625 0 
L 9.8125 0 
z
" id="DejaVuSans-77"/>
      <path d="M 44.28125 53.078125 
L 44.28125 44.578125 
Q 40.484375 46.53125 36.375 47.5 
Q 32.28125 48.484375 27.875 48.484375 
Q 21.1875 48.484375 17.84375 46.4375 
Q 14.5 44.390625 14.5 40.28125 
Q 14.5 37.15625 16.890625 35.375 
Q 19.28125 33.59375 26.515625 31.984375 
L 29.59375 31.296875 
Q 39.15625 29.25 43.1875 25.515625 
Q 47.21875 21.78125 47.21875 15.09375 
Q 47.21875 7.46875 41.1875 3.015625 
Q 35.15625 -1.421875 24.609375 -1.421875 
Q 20.21875 -1.421875 15.453125 -0.5625 
Q 10.6875 0.296875 5.421875 2 
L 5.421875 11.28125 
Q 10.40625 8.6875 15.234375 7.390625 
Q 20.0625 6.109375 24.8125 6.109375 
Q 31.15625 6.109375 34.5625 8.28125 
Q 37.984375 10.453125 37.984375 14.40625 
Q 37.984375 18.0625 35.515625 20.015625 
Q 33.0625 21.96875 24.703125 23.78125 
L 21.578125 24.515625 
Q 13.234375 26.265625 9.515625 29.90625 
Q 5.8125 33.546875 5.8125 39.890625 
Q 5.8125 47.609375 11.28125 51.796875 
Q 16.75 56 26.8125 56 
Q 31.78125 56 36.171875 55.265625 
Q 40.578125 54.546875 44.28125 53.078125 
z
" id="DejaVuSans-115"/>
      <path d="M 8.5 21.578125 
L 8.5 54.6875 
L 17.484375 54.6875 
L 17.484375 21.921875 
Q 17.484375 14.15625 20.5 10.265625 
Q 23.53125 6.390625 29.59375 6.390625 
Q 36.859375 6.390625 41.078125 11.03125 
Q 45.3125 15.671875 45.3125 23.6875 
L 45.3125 54.6875 
L 54.296875 54.6875 
L 54.296875 0 
L 45.3125 0 
L 45.3125 8.40625 
Q 42.046875 3.421875 37.71875 1 
Q 33.40625 -1.421875 27.6875 -1.421875 
Q 18.265625 -1.421875 13.375 4.4375 
Q 8.5 10.296875 8.5 21.578125 
z
M 31.109375 56 
z
" id="DejaVuSans-117"/>
      <path d="M 52 44.1875 
Q 55.375 50.25 60.0625 53.125 
Q 64.75 56 71.09375 56 
Q 79.640625 56 84.28125 50.015625 
Q 88.921875 44.046875 88.921875 33.015625 
L 88.921875 0 
L 79.890625 0 
L 79.890625 32.71875 
Q 79.890625 40.578125 77.09375 44.375 
Q 74.3125 48.1875 68.609375 48.1875 
Q 61.625 48.1875 57.5625 43.546875 
Q 53.515625 38.921875 53.515625 30.90625 
L 53.515625 0 
L 44.484375 0 
L 44.484375 32.71875 
Q 44.484375 40.625 41.703125 44.40625 
Q 38.921875 48.1875 33.109375 48.1875 
Q 26.21875 48.1875 22.15625 43.53125 
Q 18.109375 38.875 18.109375 30.90625 
L 18.109375 0 
L 9.078125 0 
L 9.078125 54.6875 
L 18.109375 54.6875 
L 18.109375 46.1875 
Q 21.1875 51.21875 25.484375 53.609375 
Q 29.78125 56 35.6875 56 
Q 41.65625 56 45.828125 52.96875 
Q 50 49.953125 52 44.1875 
z
" id="DejaVuSans-109"/>
      <path d="M 18.109375 8.203125 
L 18.109375 -20.796875 
L 9.078125 -20.796875 
L 9.078125 54.6875 
L 18.109375 54.6875 
L 18.109375 46.390625 
Q 20.953125 51.265625 25.265625 53.625 
Q 29.59375 56 35.59375 56 
Q 45.5625 56 51.78125 48.09375 
Q 58.015625 40.1875 58.015625 27.296875 
Q 58.015625 14.40625 51.78125 6.484375 
Q 45.5625 -1.421875 35.59375 -1.421875 
Q 29.59375 -1.421875 25.265625 0.953125 
Q 20.953125 3.328125 18.109375 8.203125 
z
M 48.6875 27.296875 
Q 48.6875 37.203125 44.609375 42.84375 
Q 40.53125 48.484375 33.40625 48.484375 
Q 26.265625 48.484375 22.1875 42.84375 
Q 18.109375 37.203125 18.109375 27.296875 
Q 18.109375 17.390625 22.1875 11.75 
Q 26.265625 6.109375 33.40625 6.109375 
Q 40.53125 6.109375 44.609375 11.75 
Q 48.6875 17.390625 48.6875 27.296875 
z
" id="DejaVuSans-112"/>
      <path d="M 54.890625 33.015625 
L 54.890625 0 
L 45.90625 0 
L 45.90625 32.71875 
Q 45.90625 40.484375 42.875 44.328125 
Q 39.84375 48.1875 33.796875 48.1875 
Q 26.515625 48.1875 22.3125 43.546875 
Q 18.109375 38.921875 18.109375 30.90625 
L 18.109375 0 
L 9.078125 0 
L 9.078125 75.984375 
L 18.109375 75.984375 
L 18.109375 46.1875 
Q 21.34375 51.125 25.703125 53.5625 
Q 30.078125 56 35.796875 56 
Q 45.21875 56 50.046875 50.171875 
Q 54.890625 44.34375 54.890625 33.015625 
z
" id="DejaVuSans-104"/>
      <path d="M 9.421875 54.6875 
L 18.40625 54.6875 
L 18.40625 0 
L 9.421875 0 
z
M 9.421875 75.984375 
L 18.40625 75.984375 
L 18.40625 64.59375 
L 9.421875 64.59375 
z
" id="DejaVuSans-105"/>
     </defs>
     <use xlink:href="#DejaVuSans-77"/>
     <use x="86.279297" xlink:href="#DejaVuSans-101"/>
     <use x="147.802734" xlink:href="#DejaVuSans-97"/>
     <use x="209.082031" xlink:href="#DejaVuSans-115"/>
     <use x="261.181641" xlink:href="#DejaVuSans-117"/>
     <use x="324.560547" xlink:href="#DejaVuSans-114"/>
     <use x="363.423828" xlink:href="#DejaVuSans-101"/>
     <use x="424.947266" xlink:href="#DejaVuSans-109"/>
     <use x="522.359375" xlink:href="#DejaVuSans-101"/>
     <use x="583.882812" xlink:href="#DejaVuSans-110"/>
     <use x="647.261719" xlink:href="#DejaVuSans-116"/>
     <use x="686.470703" xlink:href="#DejaVuSans-115"/>
     <use x="738.570312" xlink:href="#DejaVuSans-58"/>
     <use x="772.261719" xlink:href="#DejaVuSans-32"/>
     <use x="804.048828" xlink:href="#DejaVuSans-115"/>
     <use x="856.148438" xlink:href="#DejaVuSans-111"/>
     <use x="917.330078" xlink:href="#DejaVuSans-112"/>
     <use x="980.806641" xlink:href="#DejaVuSans-104"/>
     <use x="1044.185547" xlink:href="#DejaVuSans-105"/>
     <use x="1071.96875" xlink:href="#DejaVuSans-101"/>
    </g>
   </g>
   <g id="text_32">
    <!-- Pattern: My beautiful pattern -->
    <g transform="translate(85.03937 113.385827)scale(0.1 -0.1)">
     <defs>
      <path d="M 48.6875 27.296875 
Q 48.6875 37.203125 44.609375 42.84375 
Q 40.53125 48.484375 33.40625 48.484375 
Q 26.265625 48.484375 22.1875 42.84375 
Q 18.109375 37.203125 18.109375 27.296875 
Q 18.109375 17.390625 22.1875 11.75 
Q 26.265625 6.109375 33.40625 6.109375 
Q 40.53125 6.109375 44.609375 11.75 
Q 48.6875 17.390625 48.6875 27.296875 
z
M 18.109375 46.390625 
Q 20.953125 51.265625 25.265625 53.625 
Q 29.59375 56 35.59375 56 
Q 45.5625 56 51.78125 48.09375 
Q 58.015625 40.1875 58.015625 27.296875 
Q 58.015625 14.40625 51.78125 6.484375 
Q 45.5625 -1.421875 35.59375 -1.421875 
Q 29.59375 -1.421875 25.265625 0.953125 
Q 20.953125 3.328125 18.109375 8.203125 
L 18.109375 0 
L 9.078125 0 
L 9.078125 75.984375 
L 18.109375 75.984375 
z
" id="DejaVuSans-98"/>
      <path d="M 37.109375 75.984375 
L 37.109375 68.5 
L 28.515625 68.5 
Q 23.6875 68.5 21.796875 66.546875 
Q 19.921875 64.59375 19.921875 59.515625 
L 19.921875 54.6875 
L 34.71875 54.6875 
L 34.71875 47.703125 
L 19.921875 47.703125 
L 19.921875 0 
L 10.890625 0 
L 10.890625 47.703125 
L 2.296875 47.703125 
L 2.296875 54.6875 
L 10.890625 54.6875 
L 10.890625 58.5 
Q 10.890625 67.625 15.140625 71.796875 
Q 19.390625 75.984375 28.609375 75.984375 
z
" id="DejaVuSans-102"/>
     </defs>
     <use xlink:href="#DejaVuSans-80"/>
     <use x="55.802734" xlink:href="#DejaVuSans-97"/>
     <use x="117.082031" xlink:href="#DejaVuSans-116"/>
     <use x="156.291016" xlink:href="#DejaVuSans-116"/>
     <use x="195.5" xlink:href="#DejaVuSans-101"/>
     <use x="257.023438" xlink:href="#DejaVuSans-114"/>
     <use x="296.386719" xlink:href="#DejaVuSans-110"/>
     <use x="359.765625" xlink:href="#DejaVuSans-58"/>
     <use x="393.457031" xlink:href="#DejaVuSans-32"/>
     <use x="425.244141" xlink:href="#DejaVuSans-77"/>
     <use x="511.523438" xlink:href="#DejaVuSans-121"/>
     <use x="570.703125" xlink:href="#DejaVuSans-32"/>
     <use x="602.490234" xlink:href="#DejaVuSans-98"/>
     <use x="665.966797" xlink:href="#DejaVuSans-101"/>
     <use x="727.490234" xlink:href="#DejaVuSans-97"/>
     <use x="788.769531" xlink:href="#DejaVuSans-117"/>
     <use x="852.148438" xlink:href="#DejaVuSans-116"/>
     <use x="891.357422" xlink:href="#DejaVuSans-105"/>
     <use x="919.140625" xlink:href="#DejaVuSans-102"/>
     <use x="954.345703" xlink:href="#DejaVuSans-117"/>
     <use x="1017.724609" xlink:href="#DejaVuSans-108"/>
     <use x="1045.507812" xlink:href="#DejaVuSans-32"/>
     <use x="1077.294922" xlink:href="#DejaVuSans-112"/>
     <use x="1140.771484" xlink:href="#DejaVuSans-97"/>
     <use x="1202.050781" xlink:href="#DejaVuSans-116"/>
     <use x="1241.259766" xlink:href="#DejaVuSans-116"/>
     <use x="1280.46875" xlink:href="#DejaVuSans-101"/>
     <use x="1341.992188" xlink:href="#DejaVuSans-114"/>
     <use x="1381.355469" xlink:href="#DejaVuSans-110"/>
    </g>
   </g>
   <g id="text_33">
    <!-- GRAINLINE -->
    <g transform="translate(1533.468189 1033.244529)rotate(-89.999924)scale(0.1 -0.1)">
     <defs>
      <path d="M 44.390625 34.1875 
Q 47.5625 33.109375 50.5625 29.59375 
Q 53.5625 26.078125 56.59375 19.921875 
L 66.609375 0 
L 56 0 
L 46.6875 18.703125 
Q 43.0625 26.03125 39.671875 28.421875 
Q 36.28125 30.8125 30.421875 30.8125 
L 19.671875 30.8125 
L 19.671875 0 
L 9.8125 0 
L 9.8125 72.90625 
L 32.078125 72.90625 
Q 44.578125 72.90625 50.734375 67.671875 
Q 56.890625 62.453125 56.890625 51.90625 
Q 56.890625 45.015625 53.6875 40.46875 
Q 50.484375 35.9375 44.390625 34.1875 
z
M 19.671875 64.796875 
L 19.671875 38.921875 
L 32.078125 38.921875 
Q 39.203125 38.921875 42.84375 42.21875 
Q 46.484375 45.515625 46.484375 51.90625 
Q 46.484375 58.296875 42.84375 61.546875 
Q 39.203125 64.796875 32.078125 64.796875 
z
" id="DejaVuSans-82"/>
      <path d="M 9.8125 72.90625 
L 23.09375 72.90625 
L 55.421875 11.921875 
L 55.421875 72.90625 
L 64.984375 72.90625 
L 64.984375 0 
L 51.703125 0 
L 19.390625 60.984375 
L 19.390625 0 
L 9.8125 0 
z
" id="DejaVuSans-78"/>
     </defs>
     <use xlink:href="#DejaVuSans-71"/>
     <use x="77.490234" xlink:href="#DejaVuSans-82"/>
     <use x="142.972656" xlink:href="#DejaVuSans-65"/>
     <use x="211.380859" xlink:href="#DejaVuSans-73"/>
     <use x="240.873047" xlink:href="#DejaVuSans-78"/>
     <use x="315.677734" xlink:href="#DejaVuSans-76"/>
     <use x="371.390625" xlink:href="#DejaVuSans-73"/>
     <use x="400.882812" xlink:href="#DejaVuSans-78"/>
     <use x="475.6875" xlink:href="#DejaVuSans-69"/>
    </g>
   </g>
   <g id="text_34">
    <!-- FRONT -->
    <g transform="translate(734.100634 1476.775123)scale(0.1 -0.1)">
     <use xlink:href="#DejaVuSans-70"/>
     <use x="57.519531" xlink:href="#DejaVuSans-82"/>
     <use x="127.001953" xlink:href="#DejaVuSans-79"/>
     <use x="205.712891" xlink:href="#DejaVuSans-78"/>
     <use x="280.517578" xlink:href="#DejaVuSans-84"/>
    </g>
   </g>
   <g id="text_35">
    <!-- BACK -->
    <g transform="translate(1446.308926 1476.775123)scale(0.1 -0.1)">
     <defs>
      <path d="M 9.8125 72.90625 
L 19.671875 72.90625 
L 19.671875 42.09375 
L 52.390625 72.90625 
L 65.09375 72.90625 
L 28.90625 38.921875 
L 67.671875 0 
L 54.6875 0 
L 19.671875 35.109375 
L 19.671875 0 
L 9.8125 0 
z
" id="DejaVuSans-75"/>
     </defs>
     <use xlink:href="#DejaVuSans-66"/>
     <use x="68.603516" xlink:href="#DejaVuSans-65"/>
     <use x="135.261719" xlink:href="#DejaVuSans-67"/>
     <use x="205.085938" xlink:href="#DejaVuSans-75"/>
    </g>
   </g>
   <g id="text_36">
    <!-- HIP LINE -->
    <g transform="translate(1084.511811 694.488189)scale(0.1 -0.1)">
     <use xlink:href="#DejaVuSans-72"/>
     <use x="75.195312" xlink:href="#DejaVuSans-73"/>
     <use x="104.6875" xlink:href="#DejaVuSans-80"/>
     <use x="164.990234" xlink:href="#DejaVuSans-32"/>
     <use x="196.777344" xlink:href="#DejaVuSans-76"/>
     <use x="252.490234" xlink:href="#DejaVuSans-73"/>
     <use x="281.982422" xlink:href="#DejaVuSans-78"/>
     <use x="356.787109" xlink:href="#DejaVuSans-69"/>
    </g>
   </g>
   <g id="text_37">
    <!-- WAIST LINE -->
    <g transform="translate(1076.969624 184.251969)scale(0.1 -0.1)">
     <use xlink:href="#DejaVuSans-87"/>
     <use x="93.376953" xlink:href="#DejaVuSans-65"/>
     <use x="161.785156" xlink:href="#DejaVuSans-73"/>
     <use x="191.277344" xlink:href="#DejaVuSans-83"/>
     <use x="254.753906" xlink:href="#DejaVuSans-84"/>
     <use x="315.837891" xlink:href="#DejaVuSans-32"/>
     <use x="347.625" xlink:href="#DejaVuSans-76"/>
     <use x="403.337891" xlink:href="#DejaVuSans-73"/>
     <use x="432.830078" xlink:href="#DejaVuSans-78"/>
     <use x="507.634766" xlink:href="#DejaVuSans-69"/>
    </g>
   </g>
   <g id="text_38">
    <!-- 5 cm -->
    <g transform="translate(79.388848 1714.96063)scale(0.16 -0.16)">
     <defs>
      <path d="M 48.78125 52.59375 
L 48.78125 44.1875 
Q 44.96875 46.296875 41.140625 47.34375 
Q 37.3125 48.390625 33.40625 48.390625 
Q 24.65625 48.390625 19.8125 42.84375 
Q 14.984375 37.3125 14.984375 27.296875 
Q 14.984375 17.28125 19.8125 11.734375 
Q 24.65625 6.203125 33.40625 6.203125 
Q 37.3125 6.203125 41.140625 7.25 
Q 44.96875 8.296875 48.78125 10.40625 
L 48.78125 2.09375 
Q 45.015625 0.34375 40.984375 -0.53125 
Q 36.96875 -1.421875 32.421875 -1.421875 
Q 20.0625 -1.421875 12.78125 6.34375 
Q 5.515625 14.109375 5.515625 27.296875 
Q 5.515625 40.671875 12.859375 48.328125 
Q 20.21875 56 33.015625 56 
Q 37.15625 56 41.109375 55.140625 
Q 45.0625 54.296875 48.78125 52.59375 
z
" id="DejaVuSans-99"/>
     </defs>
     <use xlink:href="#DejaVuSans-53"/>
     <use x="63.623047" xlink:href="#DejaVuSans-32"/>
     <use x="95.410156" xlink:href="#DejaVuSans-99"/>
     <use x="150.390625" xlink:href="#DejaVuSans-109"/>
    </g>
   </g>
   <g id="text_39">
    <!-- 5 cm -->
    <g transform="translate(79.388848 1714.96063)scale(0.16 -0.16)">
     <use xlink:href="#DejaVuSans-53"/>
     <use x="63.623047" xlink:href="#DejaVuSans-32"/>
     <use x="95.410156" xlink:href="#DejaVuSans-99"/>
     <use x="150.390625" xlink:href="#DejaVuSans-109"/>
    </g>
   </g>
  </g>
 </g>
 <defs>
  <clipPath id="pe1d89832c5">
   <rect height="1757.480315" width="2211.023622" x="0" y="0"/>
  </clipPath>
 </defs>
</svg>
